<svg xmlns="http://www.w3.org/2000/svg" viewBox="0 0 288.488 232.752" width="576.976" height="465.504"><defs><style>@font-face{font-family:&quot;Virgil&quot;;src:url(https://excalidraw.com/Virgil.woff2)}@font-face{font-family:&quot;Cascadia&quot;;src:url(https://excalidraw.com/Cascadia.woff2)}</style></defs><path fill="#fff" d="M0 0h288.488v232.752H0z"/><g stroke-linecap="round"><path d="M64.192 64.029c41.95-.08 83.33-.13 174.01 0m-174.01 0c63.59-.25 127.1-.37 174.01 0M209.972 74.159c7.04-2.36 13.5-4.84 28.23-10.13m-28.23 10.13c10.3-3.76 20.52-7.58 28.23-10.13M210.062 53.639c7.01 2.55 13.45 4.99 28.14 10.39m-28.14-10.39c10.25 3.74 20.43 7.42 28.14 10.39" stroke="#1e1e1e" stroke-width="4" fill="none"/></g><g stroke-linecap="round"><path d="M64.424 65.325c-.08 44.26.22 88.34 0 133.28m0-133.28c-.02 33.86-.1 67.34 0 133.28" stroke="#1e1e1e" stroke-width="4" fill="none"/><path d="M54.134 170.415c3.34 9.52 7.03 18.87 10.29 28.19m-10.29-28.19c2.56 7.27 5.08 14.17 10.29 28.19" stroke="#1e1e1e" stroke-width="4" fill="none"/><path d="M74.654 170.405c-3.45 9.53-6.53 18.88-10.23 28.2m10.23-28.2c-2.63 7.27-5.3 14.17-10.23 28.2" stroke="#1e1e1e" stroke-width="4" fill="none"/></g><g stroke-linecap="round"><path d="M64.321 64.798c72.76 51.23 141.77 105.83 176.34 134.51M64.321 64.798c59.44 43.37 117.6 88.86 176.34 134.51M212.111 190.118c13.39 1.97 23.06 6.57 28.55 9.19m-28.55-9.19c9.89 2.69 18.88 6.67 28.55 9.19M224.701 173.918c8.44 8.55 13.07 19.64 15.96 25.39m-15.96-25.39c5.78 8.17 10.59 17.53 15.96 25.39" stroke="#1971c2" stroke-width="2" fill="none"/></g><path d="M65.141 199.312c36.64-.19 73.36.14 176.34 0M240.562 65.619c-.19 38.41.05 76.89 0 132.27" stroke="#1971c2" stroke-width="2.5" fill="none" stroke-dasharray="8 10" stroke-linecap="round"/><text font-family="Helvetica, Segoe UI Emoji" font-size="28" fill="#1e1e1e" style="white-space:pre" dominant-baseline="text-before-edge" transform="translate(113.43 66.114)">θ</text><text font-family="Helvetica, Segoe UI Emoji" font-size="28" fill="#1e1e1e" style="white-space:pre" dominant-baseline="text-before-edge" transform="translate(10 141.083)">Dy</text><text font-family="Helvetica, Segoe UI Emoji" font-size="28" fill="#1e1e1e" style="white-space:pre" dominant-baseline="text-before-edge" transform="translate(207.518 10)">Dx</text><text font-family="Helvetica, Segoe UI Emoji" font-size="28" fill="#1e1e1e" style="white-space:pre" dominant-baseline="text-before-edge" transform="translate(258.267 190.552)">D</text><text font-family="Helvetica, Segoe UI Emoji" font-size="28" fill="#1e1e1e" style="white-space:pre" dominant-baseline="text-before-edge" transform="translate(28.72 22.443)">o</text><g stroke-linecap="round"><path d="M69.126 65.875c0 .21-.02.44-.06.65-.03.22-.09.43-.17.64-.07.2-.17.4-.27.59-.11.19-.24.38-.38.54-.14.17-.3.33-.47.47-.16.14-.35.27-.54.38-.19.1-.39.2-.59.27-.21.08-.42.14-.64.17a3.573 3.573 0 0 1-1.31 0c-.22-.03-.43-.09-.64-.17-.2-.07-.4-.17-.59-.27-.19-.11-.37-.24-.54-.38-.17-.14-.33-.3-.47-.47-.14-.16-.26-.35-.37-.54a3.524 3.524 0 0 1-.45-1.23 3.573 3.573 0 0 1 0-1.31 3.553 3.553 0 0 1 .45-1.23c.11-.19.23-.37.37-.54.14-.17.3-.33.47-.47.17-.14.35-.26.54-.37a3.524 3.524 0 0 1 1.23-.45 3.573 3.573 0 0 1 1.31 0 3.553 3.553 0 0 1 1.23.45c.19.11.38.23.54.37.17.14.33.3.47.47.14.17.27.35.38.54.1.19.2.39.27.59.08.21.14.42.17.64.04.22.05.55.06.66.01.1.01-.11 0 0" stroke-width="0" fill="#1e1e1e"/><path d="M69.126 65.875c0 .21-.02.44-.06.65-.03.22-.09.43-.17.64-.07.2-.17.4-.27.59-.11.19-.24.38-.38.54-.14.17-.3.33-.47.47-.16.14-.35.27-.54.38-.19.1-.39.2-.59.27-.21.08-.42.14-.64.17a3.573 3.573 0 0 1-1.31 0c-.22-.03-.43-.09-.64-.17-.2-.07-.4-.17-.59-.27-.19-.11-.37-.24-.54-.38-.17-.14-.33-.3-.47-.47-.14-.16-.26-.35-.37-.54a3.524 3.524 0 0 1-.45-1.23 3.573 3.573 0 0 1 0-1.31 3.553 3.553 0 0 1 .45-1.23c.11-.19.23-.37.37-.54.14-.17.3-.33.47-.47.17-.14.35-.26.54-.37a3.524 3.524 0 0 1 1.23-.45 3.573 3.573 0 0 1 1.31 0 3.553 3.553 0 0 1 1.23.45c.19.11.38.23.54.37.17.14.33.3.47.47.14.17.27.35.38.54.1.19.2.39.27.59.08.21.14.42.17.64.04.22.05.55.06.66.01.1.01-.11 0 0" stroke="#1e1e1e" fill="none"/></g></svg>