<svg xmlns="http://www.w3.org/2000/svg" viewBox="0 0 334.61 338.01" width="669.221" height="676.019"><defs><style>@font-face{font-family:&quot;Virgil&quot;;src:url(https://excalidraw.com/Virgil.woff2)}@font-face{font-family:&quot;Cascadia&quot;;src:url(https://excalidraw.com/Cascadia.woff2)}</style></defs><path fill="#fff" d="M0 0h334.61v338.01H0z"/><g stroke-linecap="round"><path d="m72.827 8.78 60.3.71 1.34 64.28-62.57 1.13" stroke-width="0" fill="#ced4da"/><path d="M71.237 10c14.52.61 29.82.65 61.24 0m-61.24 0c20.35.86 40.78.24 61.24 0m0 0c-1.2 16.67-.31 31.2 0 64.84m0-64.84c.13 18.48-.2 35.72 0 64.84m0 0c-15.17-1.24-32.4.27-61.24 0m61.24 0c-23.73-.47-49.46-1.29-61.24 0m0 0c-1.67-11.89 2.08-27.07 0-64.84m0 64.84c-.51-18.24.09-34.83 0-64.84" stroke="#000" stroke-width="4" fill="none"/></g><g stroke-linecap="round"><path d="m134.547 8.93 59.91 1.13-1.02 66.26-61.15.06" stroke-width="0" fill="#ced4da"/><path d="M132.557 10c20.07.45 37.86-.51 61.24 0m-61.24 0c21.41.51 43.92-.74 61.24 0m0 0c-.75 21.56-.66 47.12 0 64.84m0-64.84c-.07 25.19.76 49.89 0 64.84m0 0c-11.54.12-28.58 1.07-61.24 0m61.24 0c-19.45-.95-36.58-1.47-61.24 0m0 0c-1.1-25.89-1.61-52.11 0-64.84m0 64.84c.85-16.82.37-32.69 0-64.84" stroke="#000" stroke-width="4" fill="none"/></g><g stroke-linecap="round"><path d="m9.64 76.692 61.33.06 1.69 61.74-63.9-.06" stroke-width="0" fill="#ced4da"/><path d="M10 75.212c21.26-.51 40.1-1.07 61.24 0m-61.24 0c21.93.15 42.79.19 61.24 0m0 0c1.41 15.39.51 29.27 0 64.84m0-64.84c-.42 24.69.34 48.85 0 64.84m0 0c-18.76-1.45-39.22-1.43-61.24 0m61.24 0c-14.62.29-30.88-.87-61.24 0m0 0c-.66-17.92 1.66-33.94 0-64.84m0 64.84c.79-16.04.12-30.99 0-64.84" stroke="#000" stroke-width="4" fill="none"/></g><g stroke-linecap="round"><path d="m72.657 73.652 58.58-.06 2.5 66.17-62.78 1.28" stroke-width="0" fill="#ced4da"/><path d="M71.237 75.212c17.42.18 31.34 1.45 61.24 0m-61.24 0c15.74-.06 33.48.94 61.24 0m0 0c1.6 22.34 1.99 40.71 0 64.84m0-64.84c.04 23.47.52 48.61 0 64.84m0 0c-13.83.56-27.77 1.28-61.24 0m61.24 0c-24.09-.68-48.35-.66-61.24 0m0 0c-1.64-18.31-.93-35.93 0-64.84m0 64.84c-.39-15.24-.35-31.19 0-64.84" stroke="#000" stroke-width="4" fill="none"/></g><g stroke-linecap="round"><path d="m133.817 74.922 59.7 1.28.44 65.01-59.76-1.49" stroke-width="0" fill="#ced4da"/><path d="M132.557 75.212c17.17-.31 35.06-1.75 61.24 0m-61.24 0c17.25-.15 33.74.22 61.24 0m0 0c2.07 23.21 2.5 46.74 0 64.84m0-64.84c-.54 13.36-.53 27.83 0 64.84m0 0c-19.95.92-44 .04-61.24 0m61.24 0c-15.28.35-29.61-.91-61.24 0m0 0c-.91-20.9.23-43.48 0-64.84m0 64.84c.8-25.05-.53-49.34 0-64.84" stroke="#000" stroke-width="4" fill="none"/></g><g stroke-linecap="round"><path d="m193.955 76.372 62.72-1.49-3.46 65.76-58.81.12" stroke-width="0" fill="#ced4da"/><path d="M193.795 75.212c17.99 1.61 38.43.96 61.24 0m-61.24 0c20.98.47 39.97.32 61.24 0m0 0c-1.01 20.26.69 36.53 0 64.84m0-64.84c-.03 13.34.34 29.55 0 64.84m0 0c-20.52-1.53-39.97-.31-61.24 0m61.24 0c-22.1-.63-43.84-.91-61.24 0m0 0c1.46-21.87 1.52-41.79 0-64.84m0 64.84c1.03-14.53.26-28.28 0-64.84" stroke="#000" stroke-width="4" fill="none"/></g><g stroke-linecap="round"><path d="m8.18 141.013 63.67.13-2.16 65.85-57.9-3.42" stroke-width="0" fill="#ced4da"/><path d="M10 140.423c22.64-.63 45.35 1.02 61.24 0m-61.24 0c23.77.51 47.71-1.28 61.24 0m0 0c-1.56 21.25-.91 47.15 0 64.84m0-64.84c.77 12.78.33 25.58 0 64.84m0 0c-12.87 1.55-29.59.6-61.24 0m61.24 0c-16.49-.3-33.82.41-61.24 0m0 0c-2.06-19.83-2.12-35.92 0-64.84m0 64.84c.17-17.93.91-37.18 0-64.84" stroke="#000" stroke-width="4" fill="none"/></g><g stroke-linecap="round"><path d="m69.687 142.153 64.57-3.42-2.63 64.79-61 .35" stroke-width="0" fill="#ced4da"/><path d="M71.237 140.423c18.73-1.96 35.39-.45 61.24 0m-61.24 0c24.83.53 47.67-.29 61.24 0m0 0c-2.28 15.54 1.48 27.79 0 64.84m0-64.84c-.85 17.25-.25 36.15 0 64.84m0 0c-23.76 2.19-47.57.86-61.24 0m61.24 0c-18.69 1.22-36.41-.33-61.24 0m0 0c.23-15.72 1.51-30.73 0-64.84m0 64.84c-1.44-22.92-.23-46.07 0-64.84" stroke="#000" stroke-width="4" fill="none"/></g><g stroke-linecap="round"><path d="m131.707 138.683 61.47.35 2.15 68.01-62.08-2.09" stroke-width="0" fill="#ced4da"/><path d="M132.557 140.423c15.4.17 25.3 1.13 61.24 0m-61.24 0c17.68.02 37.68-.5 61.24 0m0 0c.05 24.85-.46 49.37 0 64.84m0-64.84c.75 15.61.27 32.18 0 64.84m0 0c-24.42-.15-47.47-.06-61.24 0m61.24 0c-23.71-1.29-45.54-.62-61.24 0m0 0c.84-16.91-.65-38.93 0-64.84m0 64.84c-.97-20.5.7-43.57 0-64.84" stroke="#000" stroke-width="4" fill="none"/></g><g stroke-linecap="round"><path d="m195.325 142.203 60.4-2.09 1.22 67-65.11-2.3" stroke-width="0" fill="#ced4da"/><path d="M193.795 140.423c18.88-2.12 36.06-2.11 61.24 0m-61.24 0c16.44 1.5 31.24.34 61.24 0m0 0c-1.34 17.61.98 37.12 0 64.84m0-64.84c1.2 14.97.54 31.05 0 64.84m0 0c-15.75 1.34-36.13-1.32-61.24 0m61.24 0c-13.56.4-26.77.49-61.24 0m0 0c.7-24.16.82-51.09 0-64.84m0 64.84c-1-25.94-.89-50.83 0-64.84" stroke="#000" stroke-width="4" fill="none"/></g><g stroke-linecap="round"><path d="m73.147 207.801 57.37-2.3 1.61 67.24-60.04-1.78" stroke-width="0" fill="#ced4da"/><path d="M71.237 205.951c11.97 1.64 23.82 2.37 61.24 0m-61.24 0c23.57-.36 46.98-.34 61.24 0m0 0c-.79 19.61-.08 39.92 0 64.84m0-64.84c.04 16.72.08 32.73 0 64.84m0 0c-24.34.88-45.74-.66-61.24 0m61.24 0c-20.57.19-43.69.65-61.24 0m0 0c1.5-19.64-1.92-43.71 0-64.84m0 64.84c.97-12.92.54-27.77 0-64.84" stroke="#000" stroke-width="4" fill="none"/></g><g stroke-linecap="round"><path d="m132.207 207.901 62.44-1.78.35 64.17-62.86-.07" stroke-width="0" fill="#ced4da"/><path d="M132.557 205.951c23.52-.2 42.94-1.08 61.24 0m-61.24 0c15.13.97 31.2-.3 61.24 0m0 0c-1.24 22.22-.11 42.76 0 64.84m0-64.84c.62 23.48-.71 47.72 0 64.84m0 0c-21.25.07-43.3 1.55-61.24 0m61.24 0c-17.07.54-35.53 1.05-61.24 0m0 0c-1.19-25.85-.84-48.95 0-64.84m0 64.84c.73-24.31-1.2-50.69 0-64.84" stroke="#000" stroke-width="4" fill="none"/></g><path d="M69.825 114.864c23.16.36 46.76.94 64.58.93" stroke="#e03131" stroke-width="2.5" fill="none" stroke-dasharray="1.5 8" stroke-linecap="round"/><path d="M112.463 77.944c.13 14.02.23 28.44 0 61.58" stroke="#e03131" stroke-width="2.5" fill="none" stroke-dasharray="1.5 8" stroke-linecap="round"/><g stroke-linecap="round"><path d="M112.333 113.435c.51-.07 1.27-.03 1.69.29.41.33.64 1.09.78 1.66.14.56.28 1.24.04 1.71-.23.47-.92.93-1.44 1.11-.53.17-1.2.14-1.71-.05s-1.08-.64-1.36-1.08c-.28-.45-.39-1.09-.32-1.59.06-.49.36-1.04.73-1.37.37-.33 1.19-.47 1.49-.6.29-.12.24-.18.28-.16m.13.26c.51.01 1.38.29 1.77.63.39.33.55.86.57 1.37.03.51-.06 1.24-.4 1.71-.33.46-1.05.9-1.58 1.07-.54.17-1.14.16-1.62-.05-.48-.21-1.09-.72-1.27-1.22-.19-.49 0-1.21.17-1.76.18-.56.44-1.2.88-1.56.43-.36 1.52-.56 1.74-.6.22-.04-.39.3-.42.38" stroke-width="0" fill="#ced4da"/><path d="M112.573 113.395c.48.01 1.25.39 1.63.73.37.34.53.82.62 1.33.09.52.17 1.32-.08 1.77-.25.45-.89.78-1.42.93-.54.14-1.28.13-1.8-.07-.51-.19-1.04-.62-1.29-1.09-.26-.47-.36-1.19-.25-1.72.12-.54.46-1.15.93-1.49.46-.34 1.59-.51 1.86-.54.27-.03-.24.26-.25.34m-.37-.31c.54-.09 1.53.27 1.96.58.43.31.5.77.62 1.3.12.52.31 1.36.1 1.86-.22.49-.92.95-1.4 1.13-.47.18-.93.1-1.46-.05-.53-.16-1.36-.46-1.69-.88-.34-.41-.42-1.07-.31-1.63.1-.56.51-1.32.93-1.72.42-.4 1.36-.57 1.6-.67.23-.11-.17-.04-.19.05" stroke="#e03131" stroke-width="4" fill="none"/></g><text font-family="Helvetica, Segoe UI Emoji" font-size="28" fill="#1e1e1e" style="white-space:pre" dominant-baseline="text-before-edge" transform="translate(86.007 83.998)">Q</text><text font-family="Helvetica, Segoe UI Emoji" font-size="20" fill="#1971c2" style="white-space:pre" dominant-baseline="text-before-edge" transform="translate(87.826 42.114)">u</text><text font-family="Helvetica, Segoe UI Emoji" font-size="20" fill="#2f9e44" style="white-space:pre" dominant-baseline="text-before-edge" transform="translate(45.398 85.993)">v</text><g stroke-linecap="round"><path d="M66.973 75.47c66.75.05 133.35-.12 257.64 0m-257.64 0c66.92.26 133.91.26 257.64 0M296.433 85.78c7.37-2.7 14.53-5.57 28.18-10.31m-28.18 10.31c7.25-2.55 14.59-5.23 28.18-10.31M296.403 65.26c7.37 2.61 14.55 5.05 28.21 10.21m-28.21-10.21c7.26 2.78 14.61 5.43 28.21 10.21" stroke="#343a40" stroke-width="4" fill="none"/></g><path d="M71.77 74.66c13.95-.09 27.84-.16 41.93 0" stroke="#1971c2" stroke-width="2.5" fill="none" stroke-dasharray="1.5 8" stroke-linecap="round"/><g stroke-linecap="round"><path d="M71.105 92.834c.09 90.23.06 180.6-.5 235.18m.5-235.18c.11 85.41-.19 170.68-.5 235.18M60.465 299.774c3.96 10.78 8.04 21.74 10.14 28.24m-10.14-28.24c3.82 10.27 7.36 20.38 10.14 28.24" stroke="#343a40" stroke-width="4" fill="none"/><path d="M80.985 299.864c-3.92 10.77-7.71 21.7-10.38 28.15m10.38-28.15c-3.63 10.23-7.55 20.31-10.38 28.15" stroke="#343a40" stroke-width="4" fill="none"/></g><path d="M70.77 74.94c-.27 15.24.04 30.48 0 38.02" stroke="#2f9e44" stroke-width="2.5" fill="none" stroke-dasharray="1.5 8" stroke-linecap="round"/><text font-family="Helvetica, Segoe UI Emoji" font-size="28" fill="#1e1e1e" style="white-space:pre" dominant-baseline="text-before-edge" transform="translate(31.281 33.956)">O</text><g stroke-linecap="round"><path d="M71.061 72.308c.53-.01 1.26.38 1.64.75.39.38.62.98.66 1.49.05.52-.12 1.16-.39 1.59-.27.44-.75.88-1.25 1.03-.5.16-1.25.13-1.75-.09-.51-.21-1.03-.72-1.27-1.19s-.26-1.13-.16-1.62c.09-.5.31-1.02.74-1.34.42-.32 1.51-.49 1.81-.57.3-.08.01.05-.01.1m0-.18c.51 0 1.15.25 1.53.62.38.37.69 1.1.74 1.61.06.52-.11 1.06-.43 1.47-.32.42-.97.85-1.49 1.03-.52.18-1.17.25-1.63.06-.45-.19-.88-.72-1.09-1.21-.22-.48-.35-1.19-.2-1.68.16-.48.71-.93 1.14-1.23.42-.31 1.21-.53 1.42-.6.22-.07-.18.1-.15.17" stroke-width="0" fill="#ced4da"/><path d="M70.801 72.448c.5-.03 1.39.05 1.81.39.42.35.66 1.14.73 1.67.06.53-.12 1.09-.36 1.5-.24.42-.6.8-1.09.97-.48.17-1.31.22-1.8.04-.49-.17-.91-.64-1.15-1.08-.25-.43-.37-1.05-.32-1.54.05-.49.22-1.05.63-1.38.4-.33 1.52-.47 1.81-.59.3-.11-.05-.13-.05-.09m-.29.2c.5-.05 1.22.17 1.67.43.45.26.92.62 1.01 1.14.09.52-.22 1.47-.47 1.99-.25.52-.55.97-1.01 1.13-.46.16-1.26.05-1.77-.16-.5-.21-1-.6-1.27-1.07-.27-.47-.45-1.22-.37-1.74.09-.52.52-1.07.88-1.39.36-.32 1.03-.47 1.3-.55.27-.07.29.08.32.09" stroke="#6741d9" stroke-width="4" fill="none"/></g><text font-family="Helvetica, Segoe UI Emoji" font-size="28" fill="#1e1e1e" style="white-space:pre" dominant-baseline="text-before-edge" transform="translate(21.404 294.791)">y</text><text font-family="Helvetica, Segoe UI Emoji" font-size="28" fill="#1e1e1e" style="white-space:pre" dominant-baseline="text-before-edge" transform="translate(279.64 30.558)">x</text></svg>