<svg xmlns="http://www.w3.org/2000/svg" viewBox="0 0 757.666 244.175" width="1515.333" height="488.35"><defs><style>@font-face{font-family:&quot;Virgil&quot;;src:url(https://excalidraw.com/Virgil.woff2)}@font-face{font-family:&quot;Cascadia&quot;;src:url(https://excalidraw.com/Cascadia.woff2)}</style></defs><path fill="#fff" d="M0 0h757.666v244.175H0z"/><g stroke-linecap="round"><path d="m50.925 12.422 39.86-.34.14 43.99-40.82-.87" stroke-width="0" fill="#e03131"/><path d="M50.575 12.432c11.92.22 24.35.04 40.58 0m-40.58 0c13.22.04 26.52.19 40.58 0m0 0c-.53 12.39.12 23.4 0 42.96m0-42.96c.29 12.25.2 23.6 0 42.96m0 0c-10.03-.27-19.8-.07-40.58 0m40.58 0c-14.66-.01-29.75.34-40.58 0m0 0c-.31-9.81-.04-18.02 0-42.96m0 42.96c.18-10.13-.05-19.85 0-42.96" stroke="#000" stroke-width="4" fill="none"/></g><text x="7.786" font-family="Helvetica, Segoe UI Emoji" font-size="28" fill="#1e1e1e" text-anchor="middle" style="white-space:pre" dominant-baseline="text-before-edge" transform="translate(63.076 17.813)">b</text><path d="M91.205 12.432c14.48-.36 28.06-.36 40.58 0m-40.58 0c11.33-.11 22.81-.29 40.58 0m0 0c-.12 16.66-.23 34.06 0 42.96m0-42.96c-.09 16.19.11 33.06 0 42.96m0 0c-10.04-.47-20.63.66-40.58 0m40.58 0c-11.34.19-22.16-.03-40.58 0m0 0c-.45-8.52-.55-17.18 0-42.96m0 42.96c.17-11.61-.19-23.38 0-42.96" stroke="#000" stroke-width="4" fill="none" stroke-linecap="round"/><text x="7" font-family="Helvetica, Segoe UI Emoji" font-size="28" fill="#1e1e1e" text-anchor="middle" style="white-space:pre" dominant-baseline="text-before-edge" transform="translate(104.492 17.813)">c</text><g stroke-linecap="round"><path d="m10.05 55.01 39.97.39.23 43.28-40.5.03" stroke-width="0" fill="#e03131"/><path d="M10 55.64c10.13-.44 20.7-.11 40.58 0m-40.58 0c11.64.18 22.59.03 40.58 0m0 0c.51 12.91-.73 24.56 0 42.96m0-42.96c-.14 8.79-.04 17.56 0 42.96m0 0c-9.63.62-18.36-.45-40.58 0m40.58 0c-13.52-.05-26.24-.28-40.58 0m0 0c-.08-14.88.51-29.48 0-42.96m0 42.96c-.03-12.48-.16-25.73 0-42.96" stroke="#000" stroke-width="4" fill="none"/></g><text x="7.786" font-family="Helvetica, Segoe UI Emoji" font-size="28" fill="#1e1e1e" text-anchor="middle" style="white-space:pre" dominant-baseline="text-before-edge" transform="translate(22.501 61.021)">e</text><g stroke-linecap="round"><path d="m50.245 55.72 40.66.03.12 42.51-40.32.81" stroke-width="0" fill="#e03131"/><path d="M50.575 55.64c9.03-.01 17.84.64 40.58 0m-40.58 0c13.04-.1 26.46.32 40.58 0m0 0c-.82 15.76-.14 31.18 0 42.96m0-42.96c-.25 14.75.32 29 0 42.96m0 0c-14.9-.28-30.41-.76-40.58 0m40.58 0c-12-.37-24.06-.19-40.58 0m0 0c-.1-13.5-.44-26.5 0-42.96m0 42.96c.12-17.48-.18-34.45 0-42.96" stroke="#000" stroke-width="4" fill="none"/></g><text x="3.89" font-family="Helvetica, Segoe UI Emoji" font-size="28" fill="#1e1e1e" text-anchor="middle" style="white-space:pre" dominant-baseline="text-before-edge" transform="translate(66.973 61.021)">f</text><g stroke-linecap="round"><path d="m91.085 55.3 40.82.8.37 42.61-41.52-.68" stroke-width="0" fill="#e03131"/><path d="M91.205 55.64c12.08-.28 23.71-.19 40.58 0m-40.58 0c10.84-.45 21.05-.45 40.58 0m0 0c.26 13 .47 25.7 0 42.96m0-42.96c.38 15.64-.15 30.86 0 42.96m0 0c-11.23.18-22.9.19-40.58 0m40.58 0c-8.84.16-17.54-.04-40.58 0m0 0c.75-11.06-.11-21.14 0-42.96m0 42.96c-.04-8.9-.01-17.82 0-42.96" stroke="#000" stroke-width="4" fill="none"/></g><text x="7.786" font-family="Helvetica, Segoe UI Emoji" font-size="28" fill="#1e1e1e" text-anchor="middle" style="white-space:pre" dominant-baseline="text-before-edge" transform="translate(103.706 61.021)">g</text><path d="M131.78 55.64c10.95.62 23 .46 40.58 0m-40.58 0c8.2.14 16.24.27 40.58 0m0 0c.49 13.07-.09 25.28 0 42.96m0-42.96c-.21 16.01-.45 32.29 0 42.96m0 0c-14.59.57-28.26.11-40.58 0m40.58 0c-14.71-.18-29.17.34-40.58 0m0 0c-.58-10.49-.2-20.19 0-42.96m0 42.96c-.01-13.54.12-26.5 0-42.96" stroke="#000" stroke-width="4" fill="none" stroke-linecap="round"/><text x="7.786" font-family="Helvetica, Segoe UI Emoji" font-size="28" fill="#1e1e1e" text-anchor="middle" style="white-space:pre" dominant-baseline="text-before-edge" transform="translate(144.281 61.021)">h</text><path d="M10 98.849c15.14-.45 30.95-.06 40.58 0m-40.58 0c12.17.18 24.19.14 40.58 0m0 0c.47 16.56.13 34.13 0 42.96m0-42.96c.01 10.96.02 22.09 0 42.96m0 0c-14.76.36-30.32-.35-40.58 0m40.58 0c-10.32.04-20.14-.17-40.58 0m0 0c.13-9.63.16-18.88 0-42.96m0 42.96c.22-10.65-.25-21.71 0-42.96" stroke="#000" stroke-width="4" fill="none" stroke-linecap="round"/><text x="3.11" font-family="Helvetica, Segoe UI Emoji" font-size="28" fill="#1e1e1e" text-anchor="middle" style="white-space:pre" dominant-baseline="text-before-edge" transform="translate(27.177 104.23)">i</text><g stroke-linecap="round"><path d="m50.045 99.379 41.27-.23-.05 42.84-40.8-.3" stroke-width="0" fill="#e03131"/><path d="M50.575 98.849c10.03-.28 20.32-.08 40.58 0m-40.58 0c15.33-.18 30.24.18 40.58 0m0 0c-.24 8.53.03 18.65 0 42.96m0-42.96c.31 9.92.08 20.25 0 42.96m0 0c-14.6-.29-27.82-.54-40.58 0m40.58 0c-11.33-.24-22.25-.09-40.58 0m0 0c-.37-11.19.44-22.14 0-42.96m0 42.96c.08-13.4.28-27.17 0-42.96" stroke="#000" stroke-width="4" fill="none"/></g><text x="3.11" font-family="Helvetica, Segoe UI Emoji" font-size="28" fill="#1e1e1e" text-anchor="middle" style="white-space:pre" dominant-baseline="text-before-edge" transform="translate(67.752 104.23)">j</text><path d="M91.205 98.849c10.99-.44 21.42.69 40.58 0m-40.58 0c10.74-.02 21.99-.24 40.58 0m0 0c-.46 9.16-.56 18.18 0 42.96m0-42.96c.18 11.6-.18 23.03 0 42.96m0 0c-11.04-.05-22.32-.65-40.58 0m40.58 0c-10.89.07-21.59-.15-40.58 0m0 0c.01-14.15-.67-27.43 0-42.96m0 42.96c-.35-15.18 0-30.73 0-42.96" stroke="#000" stroke-width="4" fill="none" stroke-linecap="round"/><text x="7" font-family="Helvetica, Segoe UI Emoji" font-size="28" fill="#1e1e1e" text-anchor="middle" style="white-space:pre" dominant-baseline="text-before-edge" transform="translate(104.492 104.23)">k</text><path d="M131.78 98.849c9.24.35 19.38-.73 40.58 0m-40.58 0c12.87.05 26.55-.17 40.58 0m0 0c-.33 14.96.27 30.18 0 42.96m0-42.96c-.19 13.16-.32 25.55 0 42.96m0 0c-12.69-.44-24.83-.36-40.58 0m40.58 0c-12.78.16-25.44-.01-40.58 0m0 0c.53-9.68.17-20.64 0-42.96m0 42.96c.02-16.16-.09-32.55 0-42.96" stroke="#000" stroke-width="4" fill="none" stroke-linecap="round"/><text x="3.11" font-family="Helvetica, Segoe UI Emoji" font-size="28" fill="#1e1e1e" text-anchor="middle" style="white-space:pre" dominant-baseline="text-before-edge" transform="translate(148.957 104.23)">l</text><path d="M50.575 142.267c15.24-.04 29.87-.52 40.58 0m-40.58 0c12.31-.19 24.55-.01 40.58 0m0 0c.07 12.78-.27 26.06 0 42.96m0-42.96c-.08 16.86-.38 34.22 0 42.96m0 0c-10.12-.17-20.81.08-40.58 0m40.58 0c-15.17-.26-29.91.23-40.58 0m0 0c.52-15.08.29-30.39 0-42.96m0 42.96c.18-13.96-.09-27.87 0-42.96" stroke="#000" stroke-width="4" fill="none" stroke-linecap="round"/><text x="7.786" font-family="Helvetica, Segoe UI Emoji" font-size="28" fill="#1e1e1e" text-anchor="middle" style="white-space:pre" dominant-baseline="text-before-edge" transform="translate(63.076 147.648)">n</text><path d="M91.205 142.267c11.22.44 21.99.45 40.58 0m-40.58 0c8.88.24 17.89.04 40.58 0m0 0c.6 10.13-.27 21.24 0 42.96m0-42.96c-.29 8.98-.25 17.93 0 42.96m0 0c-10.99.52-22.78-.42-40.58 0m40.58 0c-8.57.11-17.78.35-40.58 0m0 0c.11-14.07-.19-27.61 0-42.96m0 42.96c-.07-12.94-.26-26.31 0-42.96" stroke="#000" stroke-width="4" fill="none" stroke-linecap="round"/><text x="7.786" font-family="Helvetica, Segoe UI Emoji" font-size="28" fill="#1e1e1e" text-anchor="middle" style="white-space:pre" dominant-baseline="text-before-edge" transform="translate(103.706 147.648)">o</text><path d="M244.284 11.48c10.55-.71 20.96-.79 40.58 0m-40.58 0c11.01.21 22.17-.22 40.58 0m0 0c.37 17.34.6 33.74 0 42.96m0-42.96c.27 10.41.18 21.23 0 42.96m0 0c-16.42-.53-32.64.54-40.58 0m40.58 0c-13.64-.07-27.5.12-40.58 0m0 0c-.17-10.38-.45-19.78 0-42.96m0 42.96c-.13-10.33.28-20.15 0-42.96" stroke="#000" stroke-width="4" fill="none" stroke-linecap="round"/><text x="7.786" font-family="Helvetica, Segoe UI Emoji" font-size="28" fill="#1e1e1e" text-anchor="middle" style="white-space:pre" dominant-baseline="text-before-edge" transform="translate(256.786 16.861)">b</text><g stroke-linecap="round"><path d="m284.974 11.46 40.39.11.4 43.3-40.28-.75" stroke-width="0" fill="#f08c00"/><path d="M284.914 11.48c8.46-.22 17.58.09 40.58 0m-40.58 0c15.65-.11 30.34.29 40.58 0m0 0c-.21 14.49.81 30.17 0 42.96m0-42.96c.44 9.61.44 18.77 0 42.96m0 0c-7.92.4-16.1.55-40.58 0m40.58 0c-10.82-.11-21.52-.09-40.58 0m0 0c-.35-11.93.07-24 0-42.96m0 42.96c-.05-8.73.03-17.43 0-42.96" stroke="#000" stroke-width="4" fill="none"/></g><text x="7" font-family="Helvetica, Segoe UI Emoji" font-size="28" fill="#1e1e1e" text-anchor="middle" style="white-space:pre" dominant-baseline="text-before-edge" transform="translate(298.201 16.861)">c</text><path d="M203.71 54.689c10.56.19 19.73.67 40.58 0m-40.58 0c10.25.25 20.03-.26 40.58 0m0 0c-.41 11.68-.11 23.05 0 42.96m0-42.96c-.19 14.94.34 30.25 0 42.96m0 0c-14.31.57-27.98-.33-40.58 0m40.58 0c-10.65-.3-20.81-.27-40.58 0m0 0c-.63-11.87-.27-24.66 0-42.96m0 42.96c-.04-14.1-.13-28.13 0-42.96" stroke="#000" stroke-width="4" fill="none" stroke-linecap="round"/><text x="7.786" font-family="Helvetica, Segoe UI Emoji" font-size="28" fill="#1e1e1e" text-anchor="middle" style="white-space:pre" dominant-baseline="text-before-edge" transform="translate(216.21 60.07)">e</text><g stroke-linecap="round"><path d="m244.514 54.889 40.63.39-.96 42.72-39.61.17" stroke-width="0" fill="#f08c00"/><path d="M244.284 54.689c12.92-.75 26.99.16 40.58 0m-40.58 0c16.1.4 32.79-.2 40.58 0m0 0c.28 16.65-.27 31.28 0 42.96m0-42.96c.24 11.57.31 22.71 0 42.96m0 0c-15.28-.7-30.25-.25-40.58 0m40.58 0c-9.16-.11-18.39-.41-40.58 0m0 0c.25-15.94.51-32.42 0-42.96m0 42.96c.17-12.56.31-25.71 0-42.96" stroke="#000" stroke-width="4" fill="none"/></g><text x="3.89" font-family="Helvetica, Segoe UI Emoji" font-size="28" fill="#1e1e1e" text-anchor="middle" style="white-space:pre" dominant-baseline="text-before-edge" transform="translate(260.682 60.07)">f</text><g stroke-linecap="round"><path d="m284.234 55.039 41.54.17-.62 42.71-40.46-.06" stroke-width="0" fill="#f08c00"/><path d="M284.914 54.689c9.19-.4 16.68-.33 40.58 0m-40.58 0c16.39-.01 32.64.28 40.58 0m0 0c-.28 17.54.23 34.58 0 42.96m0-42.96c.33 14.84-.12 29.43 0 42.96m0 0c-8.99.61-17.4-.11-40.58 0m40.58 0c-11.65-.27-23.75-.03-40.58 0m0 0c-.11-14.88-.01-29.23 0-42.96m0 42.96c-.01-15.51.02-30.93 0-42.96" stroke="#000" stroke-width="4" fill="none"/></g><text x="7.786" font-family="Helvetica, Segoe UI Emoji" font-size="28" fill="#1e1e1e" text-anchor="middle" style="white-space:pre" dominant-baseline="text-before-edge" transform="translate(297.415 60.07)">g</text><g stroke-linecap="round"><path d="m325.159 54.959 40.69-.06.85 43.12-41.22-.95" stroke-width="0" fill="#f08c00"/><path d="M325.489 54.689c10.79.71 19.69.54 40.58 0m-40.58 0c11.01-.18 21.02-.19 40.58 0m0 0c.36 15.9-.21 31.35 0 42.96m0-42.96c-.41 13.47-.18 26.92 0 42.96m0 0c-16.06-.31-32.67.52-40.58 0m40.58 0c-10.36.26-20.97.03-40.58 0m0 0c.41-11.51-.35-23.93 0-42.96m0 42.96c-.4-13.98.08-28.05 0-42.96" stroke="#000" stroke-width="4" fill="none"/></g><text x="7.786" font-family="Helvetica, Segoe UI Emoji" font-size="28" fill="#1e1e1e" text-anchor="middle" style="white-space:pre" dominant-baseline="text-before-edge" transform="translate(337.99 60.07)">h</text><path d="M203.71 97.897c15.84.58 32.53.57 40.58 0m-40.58 0c11.11.19 21.98.2 40.58 0m0 0c.05 15.41-.33 31.04 0 42.96m0-42.96c.28 11.23-.08 22.9 0 42.96m0 0c-10.69.25-20.63.4-40.58 0m40.58 0c-14.91.04-29.55.21-40.58 0m0 0c.27-16.21.66-33.68 0-42.96m0 42.96c-.23-14.97-.17-30.1 0-42.96" stroke="#000" stroke-width="4" fill="none" stroke-linecap="round"/><text x="3.11" font-family="Helvetica, Segoe UI Emoji" font-size="28" fill="#1e1e1e" text-anchor="middle" style="white-space:pre" dominant-baseline="text-before-edge" transform="translate(220.886 103.278)">i</text><path d="M244.284 97.897c15.99-.8 32.18.27 40.58 0m-40.58 0c14.1-.19 27.97-.01 40.58 0m0 0c-.29 10.05-.57 21.07 0 42.96m0-42.96c-.17 9.69.24 19.87 0 42.96m0 0c-12.55.12-26-.07-40.58 0m40.58 0c-12.42-.07-25.3.19-40.58 0m0 0c.22-14.41.39-29.73 0-42.96m0 42.96c.36-14.38.04-29.42 0-42.96" stroke="#000" stroke-width="4" fill="none" stroke-linecap="round"/><text x="3.11" font-family="Helvetica, Segoe UI Emoji" font-size="28" fill="#1e1e1e" text-anchor="middle" style="white-space:pre" dominant-baseline="text-before-edge" transform="translate(261.461 103.278)">j</text><g stroke-linecap="round"><path d="m285.344 97.787 40.06.04.7 42.96-41.27-.1" stroke-width="0" fill="#f08c00"/><path d="M284.914 97.897c8.48.23 16.69.38 40.58 0m-40.58 0c10.39-.16 20.89-.14 40.58 0m0 0c-.57 11.78-.16 23.41 0 42.96m0-42.96c.18 8.92.26 17.87 0 42.96m0 0c-12.43.25-24.6.55-40.58 0m40.58 0c-10.09.34-20.79.22-40.58 0m0 0c.15-14.92.1-28.76 0-42.96m0 42.96c.11-15.52.05-30.64 0-42.96" stroke="#000" stroke-width="4" fill="none"/></g><text x="7" font-family="Helvetica, Segoe UI Emoji" font-size="28" fill="#1e1e1e" text-anchor="middle" style="white-space:pre" dominant-baseline="text-before-edge" transform="translate(298.201 103.278)">k</text><path d="M325.489 97.897c13.78.38 28.2-.52 40.58 0m-40.58 0c10.48-.21 21.44-.18 40.58 0m0 0c-.66 12.93-.29 24.93 0 42.96m0-42.96c.09 14.08-.01 28.22 0 42.96m0 0c-14.15.35-27.45.4-40.58 0m40.58 0c-15.58.33-31.6.21-40.58 0m0 0c.32-11.5-.63-22.79 0-42.96m0 42.96c.2-9.21-.07-18.34 0-42.96" stroke="#000" stroke-width="4" fill="none" stroke-linecap="round"/><text x="3.11" font-family="Helvetica, Segoe UI Emoji" font-size="28" fill="#1e1e1e" text-anchor="middle" style="white-space:pre" dominant-baseline="text-before-edge" transform="translate(342.666 103.278)">l</text><path d="M244.284 141.315c14.74-.53 29.79-.08 40.58 0m-40.58 0c9.08.07 18.09-.23 40.58 0m0 0c.12 16.53.38 32.53 0 42.96m0-42.96c.11 12.99.25 25.38 0 42.96m0 0c-12.95-.62-26.73.35-40.58 0m40.58 0c-15.4.16-30.25.24-40.58 0m0 0c-.47-12.76-.26-25.28 0-42.96m0 42.96c.33-12.24-.02-24.48 0-42.96" stroke="#000" stroke-width="4" fill="none" stroke-linecap="round"/><text x="7.786" font-family="Helvetica, Segoe UI Emoji" font-size="28" fill="#1e1e1e" text-anchor="middle" style="white-space:pre" dominant-baseline="text-before-edge" transform="translate(256.786 146.696)">n</text><path d="M284.914 141.315c7.96.68 16.48-.04 40.58 0m-40.58 0c12.17-.01 23.88.23 40.58 0m0 0c.07 14.63.18 29.79 0 42.96m0-42.96c.23 15.71.26 31.53 0 42.96m0 0c-7.62-.27-16-.16-40.58 0m40.58 0c-13.44-.21-26.76-.22-40.58 0m0 0c-.03-13.59.01-26.38 0-42.96m0 42.96c.04-12.4-.03-24.55 0-42.96" stroke="#000" stroke-width="4" fill="none" stroke-linecap="round"/><text x="7.786" font-family="Helvetica, Segoe UI Emoji" font-size="28" fill="#1e1e1e" text-anchor="middle" style="white-space:pre" dominant-baseline="text-before-edge" transform="translate(297.415 146.696)">o</text><path d="M433.658 11.692c14.75.44 29.9-.44 40.58 0m-40.58 0c16.01-.05 32.35-.04 40.58 0m0 0c-.08 11.69.34 24.57 0 42.96m0-42.96c-.03 13.98-.26 28.07 0 42.96m0 0c-14.61.2-30.12-.02-40.58 0m40.58 0c-9.55-.1-19.56.22-40.58 0m0 0c-.68-16.25.15-32.7 0-42.96m0 42.96c-.22-12.19-.13-23.9 0-42.96" stroke="#000" stroke-width="4" fill="none" stroke-linecap="round"/><text x="7.786" font-family="Helvetica, Segoe UI Emoji" font-size="28" fill="#1e1e1e" text-anchor="middle" style="white-space:pre" dominant-baseline="text-before-edge" transform="translate(446.16 17.073)">b</text><path d="M474.288 11.692c14.91.69 28.38-.21 40.58 0m-40.58 0c11.24-.01 22.36-.01 40.58 0m0 0c.26 10.92.33 21.51 0 42.96m0-42.96c.09 11.33-.13 23.17 0 42.96m0 0c-13.77.62-27.11.33-40.58 0m40.58 0c-11.63.21-23.68-.2-40.58 0m0 0c-.17-14.13-.44-28.92 0-42.96m0 42.96c.26-11.37.05-22.2 0-42.96" stroke="#000" stroke-width="4" fill="none" stroke-linecap="round"/><text x="7" font-family="Helvetica, Segoe UI Emoji" font-size="28" fill="#1e1e1e" text-anchor="middle" style="white-space:pre" dominant-baseline="text-before-edge" transform="translate(487.575 17.073)">c</text><path d="M393.083 54.9c15.51.07 31.19-.07 40.58 0m-40.58 0c11.62.19 23.84.11 40.58 0m0 0c-.16 13.02-.16 27.6 0 42.96m0-42.96c.09 9.99-.01 20.32 0 42.96m0 0c-15.93-.2-31.17.64-40.58 0m40.58 0c-13.12-.04-26.33-.19-40.58 0m0 0c-.18-13.96.52-27.09 0-42.96m0 42.96c-.06-10.15.11-20.52 0-42.96" stroke="#000" stroke-width="4" fill="none" stroke-linecap="round"/><text x="7.786" font-family="Helvetica, Segoe UI Emoji" font-size="28" fill="#1e1e1e" text-anchor="middle" style="white-space:pre" dominant-baseline="text-before-edge" transform="translate(405.584 60.281)">e</text><path d="M433.658 54.9c12.14-.49 24.34-.3 40.58 0m-40.58 0c14.37.09 28.58-.15 40.58 0m0 0c-.47 9.37.13 18.94 0 42.96m0-42.96c.3 9.18.15 18.74 0 42.96m0 0c-10.39.4-21.78.34-40.58 0m40.58 0c-13.21-.23-26.74-.16-40.58 0m0 0c-.48-11.6.22-23.34 0-42.96m0 42.96c-.05-16.36-.14-32.71 0-42.96" stroke="#000" stroke-width="4" fill="none" stroke-linecap="round"/><text x="3.89" font-family="Helvetica, Segoe UI Emoji" font-size="28" fill="#1e1e1e" text-anchor="middle" style="white-space:pre" dominant-baseline="text-before-edge" transform="translate(450.056 60.281)">f</text><g stroke-linecap="round"><path d="m473.928 54.39 41.12.01-.54 43.84-40.55-.96" stroke-width="0" fill="#2f9e44"/><path d="M474.288 54.9c9.42.6 18.32.18 40.58 0m-40.58 0c13.41-.06 27.59-.16 40.58 0m0 0c-.52 12.84-.38 26.33 0 42.96m0-42.96c-.07 10.61.35 20.7 0 42.96m0 0c-13.66.29-27.82.18-40.58 0m40.58 0c-9.88.16-19.33-.25-40.58 0m0 0c.47-12.76.55-25.97 0-42.96m0 42.96c.35-11.48-.18-23.73 0-42.96" stroke="#000" stroke-width="4" fill="none"/></g><text x="7.786" font-family="Helvetica, Segoe UI Emoji" font-size="28" fill="#1e1e1e" text-anchor="middle" style="white-space:pre" dominant-baseline="text-before-edge" transform="translate(486.79 60.281)">g</text><path d="M514.863 54.9c15.59-.12 30.46-.58 40.58 0m-40.58 0c10.91.17 21.93-.19 40.58 0m0 0c-.5 13.11-.14 25.29 0 42.96m0-42.96c.26 16.4.23 33.54 0 42.96m0 0c-14.05-.34-27.56-.17-40.58 0m40.58 0c-14.76.08-29.59.19-40.58 0m0 0c-.31-14.44-.44-27.9 0-42.96m0 42.96c-.09-16.83.19-33.41 0-42.96" stroke="#000" stroke-width="4" fill="none" stroke-linecap="round"/><text x="7.786" font-family="Helvetica, Segoe UI Emoji" font-size="28" fill="#1e1e1e" text-anchor="middle" style="white-space:pre" dominant-baseline="text-before-edge" transform="translate(527.364 60.281)">h</text><path d="M393.083 98.109c11.38.55 22.76.11 40.58 0m-40.58 0c13.22-.09 26.76-.09 40.58 0m0 0c.59 15.52.16 30.19 0 42.96m0-42.96c.17 8.76.11 17.45 0 42.96m0 0c-9.51.39-20.27-.02-40.58 0m40.58 0c-13.95.42-28.11.02-40.58 0m0 0c.65-12.17-.3-23.83 0-42.96m0 42.96c-.22-9.48-.2-19.64 0-42.96" stroke="#000" stroke-width="4" fill="none" stroke-linecap="round"/><text x="3.11" font-family="Helvetica, Segoe UI Emoji" font-size="28" fill="#1e1e1e" text-anchor="middle" style="white-space:pre" dominant-baseline="text-before-edge" transform="translate(410.26 103.49)">i</text><g stroke-linecap="round"><path d="m433.548 97.519 41.35.15-.22 43.64-41.61-.48" stroke-width="0" fill="#2f9e44"/><path d="M433.658 98.109c14.96.2 29.01-.02 40.58 0m-40.58 0c9.87.06 19.28.39 40.58 0m0 0c-.61 16.69.22 33.19 0 42.96m0-42.96c-.16 11.92-.08 24.34 0 42.96m0 0c-14.43-.1-28.95.22-40.58 0m40.58 0c-15.96-.19-31.42.26-40.58 0m0 0c-.43-9.95-.42-20.64 0-42.96m0 42.96c-.04-14.97.1-30.33 0-42.96" stroke="#000" stroke-width="4" fill="none"/></g><text x="3.11" font-family="Helvetica, Segoe UI Emoji" font-size="28" fill="#1e1e1e" text-anchor="middle" style="white-space:pre" dominant-baseline="text-before-edge" transform="translate(450.835 103.49)">j</text><g stroke-linecap="round"><path d="m474.738 98.339 39.53-.47.48 43.43-40.84-.27" stroke-width="0" fill="#2f9e44"/><path d="M474.288 98.109c12.94.63 26.29.33 40.58 0m-40.58 0c12.19-.04 23.95-.44 40.58 0m0 0c-.1 14.41-.37 28.17 0 42.96m0-42.96c.17 10.99-.04 22.52 0 42.96m0 0c-10.93.03-23.26-.14-40.58 0m40.58 0c-10.54-.07-20.82-.13-40.58 0m0 0c.49-14.4-.47-28.36 0-42.96m0 42.96c-.07-17.28.32-34.19 0-42.96" stroke="#000" stroke-width="4" fill="none"/></g><text x="7" font-family="Helvetica, Segoe UI Emoji" font-size="28" fill="#1e1e1e" text-anchor="middle" style="white-space:pre" dominant-baseline="text-before-edge" transform="translate(487.575 103.49)">k</text><g stroke-linecap="round"><path d="m514.743 98.339 40.32-.27.36 42.6-40 .43" stroke-width="0" fill="#2f9e44"/><path d="M514.863 98.109c15.84-.34 32.38.5 40.58 0m-40.58 0c13.33.22 26.57.06 40.58 0m0 0c-.36 13.56.34 27.95 0 42.96m0-42.96c-.05 10.68.11 21.14 0 42.96m0 0c-12.41.59-23.61-.47-40.58 0m40.58 0c-9.87-.35-20.1.09-40.58 0m0 0c.77-10.75.65-21.74 0-42.96m0 42.96c.08-9.06-.44-18.48 0-42.96" stroke="#000" stroke-width="4" fill="none"/></g><text x="3.11" font-family="Helvetica, Segoe UI Emoji" font-size="28" fill="#1e1e1e" text-anchor="middle" style="white-space:pre" dominant-baseline="text-before-edge" transform="translate(532.04 103.49)">l</text><path d="M433.658 141.527c10.74.16 20.49.1 40.58 0m-40.58 0c13.34-.17 26.36-.11 40.58 0m0 0c-.3 11.63.4 23.13 0 42.96m0-42.96c.04 16.19-.05 32.4 0 42.96m0 0c-16.25-.44-32.26.1-40.58 0m40.58 0c-9.38-.21-18.54.4-40.58 0m0 0c-.7-12.62-.55-26.13 0-42.96m0 42.96c.07-14.25-.06-28.74 0-42.96" stroke="#000" stroke-width="4" fill="none" stroke-linecap="round"/><text x="7.786" font-family="Helvetica, Segoe UI Emoji" font-size="28" fill="#1e1e1e" text-anchor="middle" style="white-space:pre" dominant-baseline="text-before-edge" transform="translate(446.16 146.907)">n</text><g stroke-linecap="round"><path d="m474.798 141.807 40.13-.76.42 43.9-40.99-.07" stroke-width="0" fill="#2f9e44"/><path d="M474.288 141.527c14.03.2 27.55.09 40.58 0m-40.58 0c9.67.27 19.76-.14 40.58 0m0 0c.6 13.2.68 25.95 0 42.96m0-42.96c.27 12.07-.26 23.37 0 42.96m0 0c-10.54-.32-19.7-.29-40.58 0m40.58 0c-8.67.39-17.46-.16-40.58 0m0 0c.33-17.7-.14-34.33 0-42.96m0 42.96c.08-14.53.36-28.66 0-42.96" stroke="#000" stroke-width="4" fill="none"/></g><text x="7.786" font-family="Helvetica, Segoe UI Emoji" font-size="28" fill="#1e1e1e" text-anchor="middle" style="white-space:pre" dominant-baseline="text-before-edge" transform="translate(486.79 146.907)">o</text><path d="M625.886 10c12.97.12 26.81.69 40.58 0m-40.58 0c9.66-.16 18.57-.16 40.58 0m0 0c-.21 9.12.42 19.02 0 42.96m0-42.96c.14 12.12.12 23.88 0 42.96m0 0c-12.99.31-26.52-.56-40.58 0m40.58 0c-13.89.11-26.88-.36-40.58 0m0 0c-.21-12.16.27-23.29 0-42.96m0 42.96c-.05-12.58-.21-25.34 0-42.96" stroke="#000" stroke-width="4" fill="none" stroke-linecap="round"/><text x="7.786" font-family="Helvetica, Segoe UI Emoji" font-size="28" fill="#1e1e1e" text-anchor="middle" style="white-space:pre" dominant-baseline="text-before-edge" transform="translate(638.388 15.38)">b</text><path d="M666.516 10c12.12.13 25.29.39 40.58 0m-40.58 0c10.23-.25 21.17.02 40.58 0m0 0c-.05 8.97-.09 18.8 0 42.96m0-42.96c.17 16.57.1 33.42 0 42.96m0 0c-13.7.09-28.51-.73-40.58 0m40.58 0c-15.19.09-30.11-.16-40.58 0m0 0c-.11-11.58-.48-22.86 0-42.96m0 42.96c.12-13.84.27-27.51 0-42.96" stroke="#000" stroke-width="4" fill="none" stroke-linecap="round"/><text x="7" font-family="Helvetica, Segoe UI Emoji" font-size="28" fill="#1e1e1e" text-anchor="middle" style="white-space:pre" dominant-baseline="text-before-edge" transform="translate(679.804 15.38)">c</text><path d="M585.311 53.208c13.45-.57 27.2-.61 40.58 0m-40.58 0c8.19.29 16.78-.07 40.58 0m0 0c.54 11.72.41 22.93 0 42.96m0-42.96c.15 12.5-.28 24.84 0 42.96m0 0c-12.93.42-27.29-.28-40.58 0m40.58 0c-14.43.15-28.34-.04-40.58 0m0 0c.24-11.81.02-22.55 0-42.96m0 42.96c.05-13.26-.11-26.33 0-42.96" stroke="#000" stroke-width="4" fill="none" stroke-linecap="round"/><text x="7.786" font-family="Helvetica, Segoe UI Emoji" font-size="28" fill="#1e1e1e" text-anchor="middle" style="white-space:pre" dominant-baseline="text-before-edge" transform="translate(597.813 58.59)">e</text><g stroke-linecap="round"><path d="m626.286 53.108 40.21.62-.54 42.2-39.69.67" stroke-width="0" fill="#1971c2"/><path d="M625.886 53.208c8.8.51 18.76-.48 40.58 0m-40.58 0c15.36-.07 31.17.33 40.58 0m0 0c.01 15.22.5 30.61 0 42.96m0-42.96c-.02 14.31-.44 29.51 0 42.96m0 0c-15.06.19-30.97-.28-40.58 0m40.58 0c-14.37-.21-28.58.07-40.58 0m0 0c.07-9.27.47-18.95 0-42.96m0 42.96c.24-12.75.2-25.01 0-42.96" stroke="#000" stroke-width="4" fill="none"/></g><text x="3.89" font-family="Helvetica, Segoe UI Emoji" font-size="28" fill="#1e1e1e" text-anchor="middle" style="white-space:pre" dominant-baseline="text-before-edge" transform="translate(642.284 58.59)">f</text><path d="M666.516 53.208c15.15-.27 29.02-.12 40.58 0m-40.58 0c11.16.11 22.06-.16 40.58 0m0 0c.36 12.7.32 26.75 0 42.96m0-42.96c.13 8.53-.21 17.69 0 42.96m0 0c-13.11.49-26.95-.3-40.58 0m40.58 0c-10.01 0-19.48.06-40.58 0m0 0c-.17-14.97.13-29.32 0-42.96m0 42.96c.12-8.81-.06-17.26 0-42.96" stroke="#000" stroke-width="4" fill="none" stroke-linecap="round"/><text x="7.786" font-family="Helvetica, Segoe UI Emoji" font-size="28" fill="#1e1e1e" text-anchor="middle" style="white-space:pre" dominant-baseline="text-before-edge" transform="translate(679.018 58.59)">g</text><path d="M707.091 53.208c9.66.44 20.31.41 40.58 0m-40.58 0c14.93.22 29.96.15 40.58 0m0 0c-.61 8.64.54 19.07 0 42.96m0-42.96c.07 9.93-.16 20.17 0 42.96m0 0c-15.8-.25-30.64-.57-40.58 0m40.58 0c-11.61.24-23.43-.02-40.58 0m0 0c-.7-11.97-.38-24.26 0-42.96m0 42.96c-.26-12.39.19-24.33 0-42.96" stroke="#000" stroke-width="4" fill="none" stroke-linecap="round"/><text x="7.786" font-family="Helvetica, Segoe UI Emoji" font-size="28" fill="#1e1e1e" text-anchor="middle" style="white-space:pre" dominant-baseline="text-before-edge" transform="translate(719.593 58.59)">h</text><g stroke-linecap="round"><path d="M585.971 96.567h39.8l.06 43.12-40.86.28" stroke-width="0" fill="#1971c2"/><path d="M585.311 96.417c14.95.13 28.9-.01 40.58 0m-40.58 0c14.33.06 29.34-.38 40.58 0m0 0c-.36 8.82.46 18.15 0 42.96m0-42.96c.21 12.01-.18 23.85 0 42.96m0 0c-11.03-.08-21.87.21-40.58 0m40.58 0c-14.93.1-29.55-.34-40.58 0m0 0c-.03-15.12.59-30.82 0-42.96m0 42.96c-.31-11.14.17-22.88 0-42.96" stroke="#000" stroke-width="4" fill="none"/></g><text x="3.11" font-family="Helvetica, Segoe UI Emoji" font-size="28" fill="#1e1e1e" text-anchor="middle" style="white-space:pre" dominant-baseline="text-before-edge" transform="translate(602.489 101.798)">i</text><g stroke-linecap="round"><path d="m625.826 96.727 40.29.27-.05 42.77-40.15-.42" stroke-width="0" fill="#1971c2"/><path d="M625.886 96.417c13.81.28 27.07-.59 40.58 0m-40.58 0c13.26.38 27.42-.1 40.58 0m0 0c-.06 11.67.42 24.37 0 42.96m0-42.96c-.16 12.73-.32 25.28 0 42.96m0 0c-11.87.29-24.72-.02-40.58 0m40.58 0c-13.38-.3-26.91-.18-40.58 0m0 0c-.35-12.7.32-26.63 0-42.96m0 42.96c.22-15.77-.17-31.61 0-42.96" stroke="#000" stroke-width="4" fill="none"/></g><text x="3.11" font-family="Helvetica, Segoe UI Emoji" font-size="28" fill="#1e1e1e" text-anchor="middle" style="white-space:pre" dominant-baseline="text-before-edge" transform="translate(643.064 101.798)">j</text><g stroke-linecap="round"><path d="m666.116 96.807 41.01-.42.13 43.48-40.56-.55" stroke-width="0" fill="#1971c2"/><path d="M666.516 96.417c14.16.32 27.2-.5 40.58 0m-40.58 0c15.03.27 30.32.02 40.58 0m0 0c.03 11.07-.34 22.45 0 42.96m0-42.96c-.1 13.9.04 27.97 0 42.96m0 0c-13.29.43-27.7.34-40.58 0m40.58 0c-10.2.24-20.68-.14-40.58 0m0 0c.37-14.8-.35-29.98 0-42.96m0 42.96c0-13.67-.14-27.37 0-42.96" stroke="#000" stroke-width="4" fill="none"/></g><text x="7" font-family="Helvetica, Segoe UI Emoji" font-size="28" fill="#1e1e1e" text-anchor="middle" style="white-space:pre" dominant-baseline="text-before-edge" transform="translate(679.804 101.798)">k</text><path d="M707.091 96.417c13.91.67 26.38-.03 40.58 0m-40.58 0c14.18.2 28.87.01 40.58 0m0 0c.06 10.77-.16 22.6 0 42.96m0-42.96c.18 13.18.02 26.56 0 42.96m0 0c-15.14.47-29.72.11-40.58 0m40.58 0c-15.1.17-30.82.19-40.58 0m0 0c.2-16.26.2-32.34 0-42.96m0 42.96c-.13-14.64.09-29.68 0-42.96" stroke="#000" stroke-width="4" fill="none" stroke-linecap="round"/><text x="3.11" font-family="Helvetica, Segoe UI Emoji" font-size="28" fill="#1e1e1e" text-anchor="middle" style="white-space:pre" dominant-baseline="text-before-edge" transform="translate(724.268 101.798)">l</text><g stroke-linecap="round"><path d="m626.376 139.845 39.74-.66.81 43.99-41.34-.58" stroke-width="0" fill="#1971c2"/><path d="M625.886 139.835c15.77.25 30.69-.22 40.58 0m-40.58 0c14.11-.2 28.37.09 40.58 0m0 0c.03 9.9.43 19.4 0 42.96m0-42.96c.2 12.1.16 24.68 0 42.96m0 0c-14.01-.5-29.31.39-40.58 0m40.58 0c-14.5-.03-29.19.17-40.58 0m0 0c.28-12.47.55-24.66 0-42.96m0 42.96c.08-15.09.08-30.7 0-42.96" stroke="#000" stroke-width="4" fill="none"/></g><text x="7.786" font-family="Helvetica, Segoe UI Emoji" font-size="28" fill="#1e1e1e" text-anchor="middle" style="white-space:pre" dominant-baseline="text-before-edge" transform="translate(638.388 145.216)">n</text><path d="M666.516 139.835c13.8.59 26.87-.2 40.58 0m-40.58 0c9.48-.07 19.5-.01 40.58 0m0 0c.02 14.79.32 30.2 0 42.96m0-42.96c.27 8.71.09 17.79 0 42.96m0 0c-8.71-.38-17.82.59-40.58 0m40.58 0c-10.73.11-21.36.19-40.58 0m0 0c.26-10.7-.15-21.3 0-42.96m0 42.96c.21-15.97-.21-32.27 0-42.96" stroke="#000" stroke-width="4" fill="none" stroke-linecap="round"/><text x="7.786" font-family="Helvetica, Segoe UI Emoji" font-size="28" fill="#1e1e1e" text-anchor="middle" style="white-space:pre" dominant-baseline="text-before-edge" transform="translate(679.018 145.216)">o</text><text font-family="Helvetica, Segoe UI Emoji" font-size="28" fill="#1e1e1e" style="white-space:pre" dominant-baseline="text-before-edge" transform="translate(78.879 201.975)">f1</text><text font-family="Helvetica, Segoe UI Emoji" font-size="28" fill="#1e1e1e" style="white-space:pre" dominant-baseline="text-before-edge" transform="translate(272.958 201.307)">f2</text><text font-family="Helvetica, Segoe UI Emoji" font-size="28" fill="#1e1e1e" style="white-space:pre" dominant-baseline="text-before-edge" transform="translate(462.97 200.548)">f3</text><text font-family="Helvetica, Segoe UI Emoji" font-size="28" fill="#1e1e1e" style="white-space:pre" dominant-baseline="text-before-edge" transform="translate(655.668 199.837)">f4</text></svg>