<svg xmlns="http://www.w3.org/2000/svg" viewBox="0 0 778.287 463.173" width="1556.574" height="926.347"><defs><style>@font-face{font-family:&quot;Virgil&quot;;src:url(https://excalidraw.com/Virgil.woff2)}@font-face{font-family:&quot;Cascadia&quot;;src:url(https://excalidraw.com/Cascadia.woff2)}</style></defs><path fill="#fff" d="M0 0h778.287v463.173H0z"/><g stroke-linecap="round"><path d="m479.385 182.048 39.676-47.09 50.256 44.551-42.722 46.52" stroke-width="0" fill="#343a40"/><path d="M477.978 180.756c14.102-13.851 25.815-27.94 41.416-45.111m-41.416 45.111c12.569-14.607 26.993-29.017 41.416-45.111m0 0c16.672 16.175 35.327 34.374 47.764 43.85m-47.764-43.85c9.464 9.299 20.94 18.476 47.764 43.85m0 0c-8.772 10.545-18.538 20.014-41.416 45.112m41.416-45.112c-10.16 12.515-20.906 23.732-41.416 45.112m0 0c-12.587-10.185-19.901-18.542-47.764-43.85m47.764 43.85c-18.476-15.985-36.14-34.36-47.764-43.85" stroke="#000" stroke-width="4" fill="none"/></g><text x="7.786" font-family="Helvetica, Segoe UI Emoji" font-size="28" fill="#1e1e1e" text-anchor="middle" style="white-space:pre" dominant-baseline="text-before-edge" transform="rotate(-47.446 451.805 -487.602)">b</text><g stroke-linecap="round"><path d="m521.607 135.6 40.11-43.704 46.404 40.334-39.86 48.754" stroke-width="0" fill="#868e96"/><path d="M519.448 135.586c13.194-16.545 27.397-31.986 41.416-45.112m-41.416 45.112c10.554-13.389 22.033-24.516 41.416-45.112m0 0c11.77 13.426 25.392 24.628 47.764 43.85m-47.764-43.85c10.802 10.488 20.679 19.175 47.764 43.85m0 0c-15.471 15.92-27.84 30.576-41.416 45.112m41.416-45.111c-15.123 16.28-28.9 30.768-41.416 45.111m0 0c-9.242-10.738-21.148-19.55-47.764-43.85m47.764 43.85c-16.032-14.121-33.337-30.198-47.764-43.85" stroke="#000" stroke-width="4" fill="none"/></g><text x="7" font-family="Helvetica, Segoe UI Emoji" font-size="28" fill="#1e1e1e" text-anchor="middle" style="white-space:pre" dominant-baseline="text-before-edge" transform="rotate(-47.446 420.752 -558.266)">c</text><g stroke-linecap="round"><path d="m484.095 267.873 42.966-41.462 47.737 43.229-41.287 45.311" stroke-width="0" fill="#343a40"/><path d="M484.602 269.968c8.583-9.822 20.564-19.797 41.416-45.112m-41.416 45.112c8.078-9.39 17.1-19.84 41.416-45.112m0 0c13.356 14.774 25.652 24.433 47.763 43.85m-47.763-43.85c18.216 16.534 36.33 33.694 47.763 43.85m0 0c-9.311 12.154-22.884 22.635-41.416 45.112m41.416-45.111c-12.329 12.926-22.065 24.744-41.416 45.111m0 0c-11.358-11.582-26.095-23.55-47.763-43.85m47.763 43.85c-17.879-17.27-37.43-33.916-47.763-43.85" stroke="#000" stroke-width="4" fill="none"/></g><text x="7.786" font-family="Helvetica, Segoe UI Emoji" font-size="28" fill="#1e1e1e" text-anchor="middle" style="white-space:pre" dominant-baseline="text-before-edge" transform="rotate(-47.446 556.622 -450.533)">e</text><g stroke-linecap="round"><path d="m527.032 225.792 41.545-44.912 44.406 42.45-39.084 43.71" stroke-width="0" fill="#868e96"/><path d="M526.016 224.858c9.616-10.312 20.996-24.097 41.416-45.111m-41.416 45.111c10.762-11.486 21.021-23.34 41.416-45.111m0 0c17.636 14.074 35.178 33.042 47.763 43.85m-47.763-43.85c13.026 12.338 25.723 23.453 47.763 43.85m0 0c-14.918 17.418-32.859 32.36-41.416 45.112m41.416-45.112c-12.294 14.234-24.945 28.576-41.416 45.112m0 0c-16.04-17.44-34.562-30.89-47.763-43.85m47.763 43.85c-18.313-17.832-35.693-32.674-47.763-43.85" stroke="#000" stroke-width="4" fill="none"/></g><g stroke-linecap="round"><path d="m568.631 180.82 38.058-46.51 50.09 42.455-42.017 45.973" stroke-width="0" fill="#ced4da"/><path d="M567.486 179.688c14.66-16.841 31.001-31.107 41.415-45.112m-41.415 45.112c8.31-9.924 18.408-20.052 41.415-45.112m0 0c11.19 10.096 20.776 19.29 47.764 43.85m-47.764-43.85c12.836 12.028 25.602 22.906 47.764 43.85m0 0c-11.003 9.841-16.912 21.127-41.416 45.112m41.416-45.112c-16.141 18.292-31.379 34.032-41.416 45.112m0 0c-14.159-11.193-28.346-27.354-47.763-43.85m47.763 43.85c-17.863-15.572-35.998-32.52-47.763-43.85" stroke="#000" stroke-width="4" fill="none"/></g><text x="7.786" font-family="Helvetica, Segoe UI Emoji" font-size="28" fill="#1e1e1e" text-anchor="middle" style="white-space:pre" dominant-baseline="text-before-edge" transform="rotate(-47.446 495.343 -589.978)">g</text><g stroke-linecap="round"><path d="m609.02 132.91 40.808-44.244 46.6 43.95-39.975 46.027" stroke-width="0" fill="#ced4da"/><path d="M608.9 134.578c9.746-11.917 21.596-25.46 41.416-45.112M608.9 134.578c9.23-8.604 17.707-19.406 41.416-45.112m0 0c15.571 15.6 34.445 29.819 47.763 43.85m-47.763-43.85c16.294 15.448 33.717 29.503 47.763 43.85m0 0c-7.596 8.068-18.166 17.763-41.416 45.112m41.416-45.111c-13.608 16.123-28.727 30.655-41.416 45.111m0 0c-16.19-16.315-37.473-31.267-47.763-43.85m47.763 43.85c-18.104-16.58-38.465-34.43-47.763-43.85" stroke="#000" stroke-width="4" fill="none"/></g><text x="7.786" font-family="Helvetica, Segoe UI Emoji" font-size="28" fill="#1e1e1e" text-anchor="middle" style="white-space:pre" dominant-baseline="text-before-edge" transform="rotate(-47.446 464.724 -659.653)">h</text><g stroke-linecap="round"><path d="m530.988 313.369 42.864-44.19 47.684 44.647-42.267 45.551" stroke-width="0" fill="#868e96"/><path d="M532.64 314.07c11.858-10.684 22.338-26.462 41.415-45.112m-41.416 45.112c16.109-17.887 31.778-34.969 41.416-45.112m0 0c14.664 11.427 24.751 21.57 47.764 43.85m-47.764-43.85c12.878 12.515 27.799 23.987 47.764 43.85m0 0c-10.028 12.135-23.034 24.277-41.416 45.112m41.416-45.111c-15.459 17.71-32.502 36.259-41.416 45.111m0 0c-15.57-17.552-33.105-33.053-47.764-43.85m47.764 43.85c-17.825-17.817-36.298-34.07-47.764-43.85" stroke="#000" stroke-width="4" fill="none"/></g><text x="3.11" font-family="Helvetica, Segoe UI Emoji" font-size="28" fill="#1e1e1e" text-anchor="middle" style="white-space:pre" dominant-baseline="text-before-edge" transform="rotate(-47.446 628.481 -488.458)">i</text><g stroke-linecap="round"><path d="m573.771 269.977 40.557-44.664 49.562 42.705-41.307 44.342" stroke-width="0" fill="#ced4da"/><path d="M574.053 268.96c15.789-18.1 31.019-31.539 41.416-45.112m-41.416 45.112c11.463-10.993 22.476-23.417 41.416-45.112m0 0c18.21 17.207 32.948 31.688 47.764 43.85m-47.764-43.85c14.59 13.164 28.895 27.126 47.764 43.85m0 0c-13.759 15.416-29.94 34.756-41.416 45.113m41.416-45.112c-15.64 16.43-30.606 35.407-41.416 45.112m0 0c-14.5-14.888-29.226-23.764-47.764-43.85m47.764 43.85c-12.728-11.17-23.853-21.587-47.764-43.85" stroke="#000" stroke-width="4" fill="none"/></g><text x="3.11" font-family="Helvetica, Segoe UI Emoji" font-size="28" fill="#1e1e1e" text-anchor="middle" style="white-space:pre" dominant-baseline="text-before-edge" transform="rotate(-47.446 597.863 -558.134)">j</text><g stroke-linecap="round"><path d="m616.18 224.108 41.525-45.88 45.907 43.462-40.618 46.89" stroke-width="0" fill="#ced4da"/><path d="M615.523 223.79c9.57-10.558 19.004-22.18 41.416-45.112m-41.416 45.112c16.027-17.65 30.407-33.92 41.416-45.112m0 0c18.215 17.185 35.214 30.578 47.764 43.85m-47.764-43.85c14.58 13.249 29.523 27.905 47.764 43.85m0 0c-11.952 12.988-23.76 28.306-41.416 45.112m41.416-45.112c-7.79 10.334-16.44 19.918-41.416 45.112m0 0c-11.354-9.813-23.134-20.818-47.764-43.85m47.764 43.85c-10.365-9.013-21.078-18.237-47.764-43.85" stroke="#000" stroke-width="4" fill="none"/></g><text x="7" font-family="Helvetica, Segoe UI Emoji" font-size="28" fill="#1e1e1e" text-anchor="middle" style="white-space:pre" dominant-baseline="text-before-edge" transform="rotate(-47.446 569.148 -623.478)">k</text><g stroke-linecap="round"><path d="m655.847 177.842 42.213-43.334 47.047 44.454-41.547 42.046" stroke-width="0" fill="#ced4da"/><path d="M656.937 178.68c14.174-14.98 27.577-27.761 41.416-45.112m-41.416 45.112c13.242-15.075 25.77-27.819 41.416-45.112m0 0c16.873 14.595 37.49 32.491 47.764 43.85m-47.764-43.85c13.538 12.24 28.48 25.169 47.764 43.85m0 0c-12.719 13.75-21.41 23.867-41.416 45.112m41.416-45.111c-16.026 16.85-30.151 32.796-41.416 45.111m0 0c-16.122-12.9-30.397-28.3-47.764-43.85m47.764 43.85c-14.732-14.488-30.146-29.06-47.764-43.85" stroke="#000" stroke-width="4" fill="none"/></g><text x="3.11" font-family="Helvetica, Segoe UI Emoji" font-size="28" fill="#1e1e1e" text-anchor="middle" style="white-space:pre" dominant-baseline="text-before-edge" transform="rotate(-47.446 536.584 -697.58)">l</text><g stroke-linecap="round"><path d="m621.314 314.82 41.278-48.171 49.246 45.252-44.323 45.498" stroke-width="0" fill="#ced4da"/><path d="M622.324 313.276c11.397-15.357 25.589-26.586 41.415-45.112m-41.415 45.112c11.1-10.878 19.858-21.557 41.415-45.112m0 0c10.01 9.163 21.694 16.93 47.764 43.85m-47.764-43.85c13.386 11.977 25.35 21.82 47.764 43.85m0 0c-10.635 11.496-22.916 23.054-41.416 45.112m41.416-45.111c-9.156 8.834-18.404 18.33-41.416 45.111m0 0c-14.644-14.096-26.962-24.957-47.763-43.85m47.763 43.85c-16.738-14.905-32.339-28.712-47.763-43.85" stroke="#000" stroke-width="4" fill="none"/></g><text x="7.786" font-family="Helvetica, Segoe UI Emoji" font-size="28" fill="#1e1e1e" text-anchor="middle" style="white-space:pre" dominant-baseline="text-before-edge" transform="rotate(-47.446 674.758 -585.578)">n</text><g stroke-linecap="round"><path d="m664.142 267.991 38.489-44.718 48.733 44.008-39.123 42.791" stroke-width="0" fill="#ced4da"/><path d="M663.793 268.105c6.717-10.613 19.094-19.245 41.416-45.112m-41.416 45.112c15.573-16.356 32.107-35.223 41.416-45.112m0 0c15.342 14.208 29.818 24.362 47.764 43.851m-47.764-43.85c18.907 17.126 37.015 33.452 47.764 43.85m0 0c-12.862 15.356-25.417 27.478-41.416 45.112m41.416-45.112c-11.048 11.265-21.651 23.17-41.416 45.112m0 0c-8.857-9.014-19.791-18.455-47.764-43.85m47.764 43.85c-11.358-9.586-22.48-21.264-47.764-43.85" stroke="#000" stroke-width="4" fill="none"/></g><text x="7.786" font-family="Helvetica, Segoe UI Emoji" font-size="28" fill="#1e1e1e" text-anchor="middle" style="white-space:pre" dominant-baseline="text-before-edge" transform="rotate(-47.446 644.098 -655.347)">o</text><path d="M554.27 252.715c9.28-10.05 18.23-19.767 44.36-46.943" stroke="#e03131" stroke-width="2.5" fill="none" stroke-dasharray="1.5 8" stroke-linecap="round"/><path d="M556.42 195.778c16.738 15.245 34.013 30.955 45.362 41.646" stroke="#e03131" stroke-width="2.5" fill="none" stroke-dasharray="1.5 8" stroke-linecap="round"/><g stroke-linecap="round"><path d="M582.152 220.35c.346-.362 1.022-.773 1.542-.866.512-.1 1.118-.005 1.549.309.423.307.871 1.017 1 1.542.128.526 0 1.168-.235 1.631-.234.477-.709.965-1.188 1.19-.472.219-1.206.25-1.678.143-.465-.115-.846-.424-1.125-.83-.272-.399-.533-1.046-.52-1.577.013-.517.468-1.28.583-1.568.101-.287.064-.172.064-.158m-.066-.224c.31-.367.834-.538 1.4-.548.558-.017 1.543.182 1.967.49.416.3.465.793.551 1.32.1.527.206 1.33.008 1.826-.205.504-.76.946-1.196 1.17-.45.224-.99.339-1.458.168-.474-.164-1.067-.79-1.374-1.18-.313-.383-.468-.688-.488-1.168-.021-.48.257-1.434.365-1.729.114-.302.25-.081.294-.055" stroke-width="0" fill="#ced4da"/><path d="M582.268 220.076c.339-.355.936-.444 1.465-.488.515-.043 1.187-.064 1.63.22.444.286.946.937 1.055 1.485.1.54-.198 1.324-.433 1.787-.243.457-.547.802-.998.999-.445.188-1.184.298-1.714.15-.515-.147-1.11-.667-1.425-1.064-.314-.397-.502-.814-.452-1.297.043-.49.593-1.356.716-1.637.123-.267-.017-.056.006-.022m-.196.228c.337-.41 1.148-.806 1.71-.915.561-.109 1.246.017 1.66.276.408.265.67.764.806 1.296s.22 1.356.024 1.896c-.203.532-.738 1.114-1.232 1.312-.48.198-1.195.016-1.683-.133-.487-.15-.9-.365-1.256-.746-.35-.389-.824-1.055-.839-1.571-.015-.516.584-1.242.763-1.54.171-.29.272-.252.294-.232" stroke="#e03131" stroke-width="4" fill="none"/></g><text font-family="Helvetica, Segoe UI Emoji" font-size="28" fill="#1e1e1e" style="white-space:pre" dominant-baseline="text-before-edge" transform="rotate(-47.446 521.463 -507.268)">Q</text><path d="M525.9 224.125c10.668-11.56 20.991-22.554 28.357-30.887" stroke="#1971c2" stroke-width="2.5" fill="none" stroke-dasharray="1.5 8" stroke-linecap="round"/><path d="M525.52 225.066c8.52 7.889 16.949 15.18 28.008 25.713" stroke="#2f9e44" stroke-width="2.5" fill="none" stroke-dasharray="1.5 8" stroke-linecap="round"/><g stroke-linecap="round"><path d="M523.526 223.232c.272-.415.93-.762 1.45-.855a2.57 2.57 0 0 1 1.653.27c.494.29 1.128.9 1.342 1.421.206.53.13 1.233-.082 1.73-.212.498-.734 1.037-1.206 1.255-.479.226-1.096.189-1.647.064-.557-.118-1.34-.403-1.661-.793-.321-.39-.321-1.055-.265-1.546.057-.504.509-1.19.59-1.44.095-.252-.102-.08-.074-.068m.024-.114c.345-.362.94-.698 1.496-.758.557-.045 1.374.175 1.845.431.471.27.846.601.983 1.147.129.54.11 1.595-.165 2.116-.275.522-1.019.83-1.514 1-.488.176-.926.18-1.428.032-.495-.142-1.203-.48-1.54-.925-.33-.439-.56-1.165-.47-1.721.097-.55.86-1.396 1.022-1.587.17-.184-.04.398-.016.447" stroke-width="0" fill="#ced4da"/><path d="M523.547 223.238c.294-.409 1.137-.884 1.692-.985.555-.102 1.193.09 1.629.355.43.272.837.7.987 1.246.151.545.128 1.488-.076 2.02-.197.525-.66.941-1.133 1.16-.47.232-1.183.298-1.718.2-.528-.104-1.128-.397-1.458-.822-.33-.425-.502-1.167-.484-1.734.025-.56.485-1.401.609-1.654.123-.253.089.095.148.15m-.07.045c.319-.347.917-.585 1.422-.691.512-.114 1.158-.226 1.63.03.47.255 1.06.973 1.182 1.506.129.54-.181 1.232-.428 1.738-.248.492-.635 1.046-1.037 1.248-.41.194-.89.066-1.418-.067-.523-.127-1.393-.302-1.75-.697-.357-.395-.489-1.168-.39-1.675.098-.52.87-1.17.98-1.394.126-.224-.295.027-.26.033" stroke="#6741d9" stroke-width="4" fill="none"/></g><g stroke-linecap="round"><path d="M476.241 179.542c.337-.396.96-.734 1.538-.773.58-.039 1.439.207 1.913.534.474.327.824.906.938 1.418.121.518-.004 1.232-.24 1.68-.235.45-.66.793-1.167 1.006-.515.206-1.407.35-1.9.237-.508-.113-.851-.523-1.123-.922-.258-.4-.487-.963-.46-1.48.02-.525.466-1.365.59-1.633.13-.26.101.067.15.058m-.42.103c.321-.425 1.107-.748 1.675-.893.56-.151 1.233-.28 1.699.012.472.285.97 1.176 1.113 1.715.144.539-.089 1.058-.275 1.512-.178.46-.377.958-.811 1.224-.441.274-1.268.479-1.83.383-.564-.083-1.224-.472-1.533-.905-.301-.426-.347-1.174-.318-1.65.037-.468.413-.937.501-1.181.096-.238.047-.229.046-.257" stroke-width="0" fill="#ced4da"/><path d="M476.512 179.41c.372-.405.999-.63 1.513-.687.508-.05 1.148.022 1.566.365.418.343.807 1.162.936 1.715.123.547.063 1.13-.18 1.586-.228.456-.74.91-1.232 1.136-.493.226-1.202.348-1.704.2-.509-.141-1.032-.636-1.328-1.097-.303-.468-.525-1.188-.463-1.714.063-.513.672-1.176.832-1.409.153-.226.078.004.107.03m-.417.337c.278-.45.895-1.078 1.435-1.208.553-.13 1.4.146 1.837.439.43.3.616.823.758 1.333.149.503.244 1.242.13 1.707-.116.451-.343.772-.813 1.033-.47.26-1.44.592-1.994.531-.569-.06-1.097-.505-1.376-.897-.271-.384-.259-.916-.266-1.425-.007-.495.15-1.302.265-1.59.107-.294.32-.14.397-.137" stroke="#1971c2" stroke-width="4" fill="none"/></g><g stroke-linecap="round"><path d="M517.238 132.62c.358-.39 1.203-.66 1.767-.713a2.594 2.594 0 0 1 1.622.362c.43.272.807.837.968 1.297.162.474.214 1.024-.013 1.508-.22.476-.874 1.085-1.322 1.366-.455.274-.925.372-1.403.3-.477-.071-1.117-.32-1.467-.723-.364-.402-.686-1.145-.68-1.683.004-.539.59-1.25.711-1.56.129-.302.046-.256.046-.256m.006.141c.356-.447 1.004-1.005 1.533-1.05.53-.043 1.26.478 1.655.8.404.33.582.698.743 1.158.147.46.373 1.116.182 1.606-.185.482-.796 1.074-1.303 1.315-.513.249-1.254.287-1.735.145-.48-.142-.854-.607-1.145-.97-.284-.356-.575-.69-.568-1.2.014-.503.564-1.546.643-1.854.079-.307-.205.016-.177 0" stroke-width="0" fill="#ced4da"/><path d="M517.49 132.566c.294-.409.92-.853 1.427-.889.508-.036 1.183.353 1.621.674.445.314.875.748 1.036 1.223.148.475.106 1.142-.092 1.639-.206.49-.69 1.077-1.147 1.323-.464.239-1.1.252-1.616.118-.516-.148-1.149-.552-1.464-.964a2.162 2.162 0 0 1-.438-1.474c.05-.512.588-1.32.698-1.573.109-.266-.03-.041-.036-.005m-.137-.235c.35-.412 1.186-.568 1.68-.589.501-.028.905.139 1.307.44.402.301.902.91 1.113 1.375.219.472.387.939.167 1.415-.227.484-.99 1.196-1.502 1.459-.513.262-1.137.232-1.58.124-.443-.109-.773-.37-1.08-.775-.315-.397-.825-1.069-.784-1.615.04-.561.865-1.446 1.037-1.722.166-.27.002.042-.025.072" stroke="#1971c2" stroke-width="4" fill="none"/></g><g stroke-linecap="round"><path d="M482.642 268.862c.338-.383.924-.726 1.423-.811.499-.1 1.12.037 1.568.258.456.229.968.617 1.123 1.099.155.482-.03 1.261-.207 1.778-.162.517-.38 1.05-.792 1.35-.419.294-1.144.538-1.693.455-.541-.076-1.246-.506-1.603-.915-.343-.41-.502-.977-.491-1.55.01-.574.498-1.607.563-1.886.073-.286-.15.134-.134.176m.236-.287c.31-.367 1.005-.34 1.484-.374.473-.042.91-.089 1.358.133.449.235 1.135.73 1.319 1.224.191.502.033 1.266-.194 1.764-.227.484-.73.958-1.16 1.189-.428.23-.902.244-1.378.2-.49-.042-1.163-.063-1.506-.46-.341-.38-.522-1.293-.554-1.88-.025-.579.277-1.306.377-1.608.115-.302.224-.215.247-.194" stroke-width="0" fill="#ced4da"/><path d="M482.621 268.544c.304-.345.952-.416 1.474-.452.516-.03 1.19.006 1.626.27.436.265.84.785.989 1.289.142.51.097 1.27-.11 1.745-.192.476-.619.911-1.084 1.122-.473.205-1.2.243-1.7.137-.507-.099-1.035-.38-1.321-.779-.3-.398-.464-1.077-.444-1.616.02-.525.495-1.337.576-1.589.081-.25-.097.061-.082.075m.124-.076c.297-.353.68-.666 1.173-.716.486-.056 1.252.159 1.758.406.506.248 1.136.582 1.271 1.086.142.496-.181 1.394-.435 1.908a2.888 2.888 0 0 1-1.055 1.163c-.399.258-.843.46-1.35.362-.514-.091-1.408-.478-1.717-.924-.302-.455-.202-1.245-.126-1.786.076-.555.548-1.262.601-1.512.067-.25-.24.025-.247.018" stroke="#1971c2" stroke-width="4" fill="none"/></g><g stroke-linecap="round"><path d="M530.814 312.77c.266-.408.838-.765 1.342-.9.51-.142 1.26-.174 1.694.062.435.236.701.834.907 1.349.206.515.448 1.198.322 1.734-.133.53-.608 1.18-1.077 1.469-.483.29-1.26.336-1.786.26-.528-.09-1.048-.338-1.392-.776-.33-.439-.572-1.299-.624-1.849-.045-.557.28-1.208.362-1.459.074-.258.067-.088.125-.048m.267.11c.275-.345.694-.83 1.213-.937.519-.107 1.445.023 1.896.315.458.285.718.918.825 1.423.12.504.02 1.145-.151 1.599-.179.46-.452.861-.885 1.156-.433.294-1.202.702-1.722.604-.529-.105-1.058-.74-1.412-1.228-.346-.48-.725-1.073-.693-1.655.032-.567.763-1.511.873-1.764.116-.26-.283.175-.216.25" stroke-width="0" fill="#ced4da"/><path d="M530.819 312.706c.31-.353.964-.785 1.477-.884.52-.093 1.169.028 1.613.313.43.286.838.905 1 1.394.17.495.182 1.103-.018 1.558-.193.46-.71.922-1.16 1.175-.463.253-1.085.442-1.578.343-.492-.085-1.032-.473-1.362-.897-.322-.418-.578-1.115-.586-1.638-.008-.524.42-1.243.522-1.516.102-.273.03-.15.087-.124m-.378.264c.245-.4.968-.714 1.549-.86.574-.151 1.482-.268 1.931-.018.456.242.622.964.785 1.481.15.517.246 1.108.148 1.629-.106.514-.282 1.18-.737 1.482-.44.302-1.432.436-1.946.33-.514-.104-.83-.558-1.131-.97-.294-.42-.602-1-.674-1.528-.08-.52.184-1.324.235-1.617.065-.293.084-.18.106-.16" stroke="#1971c2" stroke-width="4" fill="none"/></g><g stroke-linecap="round"><path d="M570.733 267.008c.33-.403 1.07-.81 1.57-.866.493-.05.965.234 1.404.57.432.328 1.036.897 1.208 1.448.165.545.036 1.336-.22 1.822-.261.492-.86.879-1.347 1.083-.487.205-1.097.323-1.587.132-.496-.184-1.04-.82-1.364-1.28-.324-.46-.629-.97-.58-1.482.042-.519.685-1.353.838-1.593.153-.24.025.09.084.145m-.383.15c.3-.444 1.19-.822 1.73-.908.535-.094 1.067.11 1.482.382.415.259.796.745 1.015 1.217.211.479.406 1.065.26 1.623-.146.545-.683 1.41-1.152 1.685-.47.274-1.106.139-1.664-.021-.559-.146-1.328-.432-1.666-.892-.338-.445-.353-1.287-.354-1.818-.001-.53.199-1.148.338-1.359.133-.204.385.069.493.114" stroke-width="0" fill="#ced4da"/><path d="M570.507 267.195c.286-.43.907-.81 1.42-.896.506-.092 1.171.085 1.636.348.463.249.956.688 1.139 1.154.19.46.153 1.105-.016 1.615-.163.502-.553 1.135-.98 1.422-.426.287-1.073.4-1.593.301-.528-.09-1.167-.46-1.545-.86-.378-.402-.7-.983-.716-1.527-.01-.552.496-1.487.619-1.754.137-.267.137.072.168.142m-.186-.063c.385-.434 1.254-.967 1.767-1.038.514-.072.904.287 1.307.602.403.316.889.762 1.116 1.283.228.521.44 1.34.235 1.844-.204.519-.99 1.02-1.448 1.237-.465.211-.856.178-1.322.035-.458-.136-1.088-.456-1.467-.871-.378-.416-.781-1.07-.791-1.637-.01-.551.616-1.484.718-1.743.102-.26-.101.125-.084.195" stroke="#1971c2" stroke-width="4" fill="none"/></g><g stroke-linecap="round"><path d="M620.076 311.03c.316-.389.796-.572 1.327-.587.537-.01 1.43.172 1.897.52.46.341.809 1.027.902 1.547.1.526-.073 1.128-.314 1.599-.235.463-.657 1.026-1.124 1.194-.467.169-1.147-.007-1.685-.175-.538-.169-1.228-.422-1.544-.848-.308-.432-.397-1.193-.314-1.713.084-.52.637-1.18.818-1.408.167-.227.192.027.208.055m-.141-.143c.36-.362.882-.561 1.376-.596a2.745 2.745 0 0 1 1.567.393c.458.284 1.045.769 1.21 1.342.16.567-.002 1.586-.243 2.084-.248.492-.706.71-1.223.874-.524.156-1.39.257-1.908.067-.503-.191-.847-.792-1.15-1.232-.301-.44-.74-.938-.647-1.423.093-.471 1.002-1.21 1.205-1.432.21-.228.074.068.038.062" stroke-width="0" fill="#ced4da"/><path d="M619.955 311.177c.323-.382.98-.594 1.515-.645.528-.058 1.234.046 1.677.317.43.272.784.802.934 1.32.135.517.133 1.303-.065 1.8-.205.504-.652.976-1.138 1.195-.48.211-1.214.243-1.765.104-.543-.133-1.18-.474-1.497-.927-.317-.454-.464-1.254-.388-1.781.084-.535.72-1.199.853-1.417.125-.21-.072.138-.072.152m-.084-.145c.28-.423.627-.58 1.098-.649.478-.077 1.242-.081 1.778.193.528.268 1.235.917 1.427 1.433.192.515-.104 1.207-.268 1.681-.157.467-.288.89-.695 1.141-.4.258-1.134.452-1.717.378-.577-.082-1.376-.394-1.763-.83-.393-.43-.534-1.238-.55-1.768-.022-.537.337-1.225.413-1.44.076-.216-.011.071.034.14" stroke="#1971c2" stroke-width="4" fill="none"/></g><g stroke-linecap="round"><path d="M661.432 265.384c.339-.368 1.225-.668 1.79-.692.565-.024 1.2.246 1.609.554.41.308.72.784.861 1.28.135.504.175 1.274-.026 1.714-.2.44-.676.722-1.177.928-.508.213-1.333.446-1.862.327-.529-.119-1.03-.593-1.317-1.02-.28-.42-.482-.998-.411-1.504.084-.506.76-1.257.869-1.523.116-.26-.186-.035-.172-.05m-.213.144c.265-.407.85-.808 1.404-.923.56-.123 1.447-.097 1.942.221.494.319.864 1.188 1.035 1.697.17.524.218.96.003 1.401-.215.441-.847 1.041-1.305 1.26-.458.217-.927.166-1.462.069-.528-.091-1.406-.273-1.711-.62-.306-.363-.192-1.005-.115-1.518.07-.505.534-1.26.571-1.553.051-.292-.306-.199-.313-.192" stroke-width="0" fill="#ced4da"/><path d="M661.501 265.502c.33-.404 1.028-.794 1.554-.895.534-.093 1.169.014 1.62.306.459.3.932.951 1.11 1.482.186.522.187 1.202-.026 1.685-.206.476-.723.965-1.23 1.206-.506.241-1.278.388-1.808.254-.523-.14-1.075-.647-1.369-1.066-.294-.434-.404-1.01-.375-1.499.035-.497.46-1.166.554-1.446.101-.273.011-.22.026-.207m-.282.19c.267-.38.977-.828 1.568-.896.592-.067 1.523.176 1.981.475.466.291.587.824.77 1.29.19.474.477 1.049.341 1.522-.135.473-.634 1.06-1.153 1.33-.52.256-1.4.385-1.957.254-.558-.132-1.046-.635-1.397-1.052-.343-.41-.663-.948-.684-1.429-.02-.48.463-1.258.581-1.475.126-.211.052.21.137.206" stroke="#1971c2" stroke-width="4" fill="none"/></g><g stroke-linecap="round"><path d="M612.592 221.263c.339-.368.944-.6 1.444-.67.5-.071 1.082-.025 1.532.238.442.258.972.879 1.161 1.338.19.459.188.933-.04 1.403-.22.477-.806 1.16-1.283 1.428-.477.268-1.092.287-1.591.195-.493-.099-1.099-.37-1.391-.761-.3-.384-.384-1.031-.386-1.562.006-.538.31-1.358.397-1.659.093-.308.11-.21.148-.162m-.21.065c.358-.418 1.218-.837 1.784-.847.558-.017 1.159.467 1.597.774.43.3.903.598 1.021 1.046.126.455-.083 1.214-.283 1.654-.207.448-.47.778-.94 1.024-.478.24-1.45.501-1.935.437-.484-.065-.719-.43-.962-.83-.251-.407-.476-1.02-.507-1.578-.038-.564.212-1.516.299-1.789.08-.28.135.016.196.112" stroke-width="0" fill="#ced4da"/><path d="M612.475 221.169c.314-.431.914-.818 1.455-.89.536-.066 1.274.165 1.754.455.48.291.955.823 1.125 1.318.163.503.107 1.17-.113 1.661-.227.498-.768 1.088-1.246 1.327-.478.24-1.13.212-1.63.106-.493-.114-.993-.383-1.328-.758-.327-.368-.64-.928-.657-1.472-.01-.552.507-1.543.602-1.823.094-.28-.082.088-.022.156m-.053-.075c.366-.384 1.262-.606 1.79-.664.529-.058.896.075 1.359.31.463.249 1.203.67 1.421 1.142.226.479.167 1.239-.081 1.73-.248.507-.89 1.044-1.397 1.27-.5.22-1.068.173-1.603.076-.536-.112-1.218-.344-1.574-.711-.355-.367-.587-1.001-.565-1.484.021-.482.532-1.126.697-1.41.164-.297.2-.291.262-.33" stroke="#1971c2" stroke-width="4" fill="none"/></g><g stroke-linecap="round"><path d="M566.374 178.84c.259-.401.79-.863 1.303-.977.511-.113 1.29.059 1.774.271.475.207.955.498 1.117.972.168.467.057 1.328-.12 1.845-.183.51-.538.972-.965 1.259-.426.287-1.118.508-1.601.457-.484-.05-.957-.362-1.32-.764-.358-.41-.811-1.07-.85-1.648-.038-.565.529-1.538.639-1.79.11-.252-.018.241.005.29m.149-.325c.34-.34.912-.343 1.42-.407.52-.065 1.244-.188 1.664.035.412.216.672.82.847 1.28.168.453.374.968.169 1.458-.199.497-.933 1.193-1.36 1.495-.432.308-.767.422-1.209.341-.45-.086-1.057-.4-1.451-.843-.387-.437-.875-1.265-.899-1.816-.017-.559.63-1.308.764-1.498.134-.19.006.304.058.365" stroke-width="0" fill="#ced4da"/><path d="M566.362 178.408c.324-.382 1.036-.61 1.586-.662.556-.06 1.27.066 1.72.344.443.271.834.792.962 1.303.128.512.025 1.26-.188 1.742-.213.47-.642.863-1.085 1.108-.436.238-1.037.42-1.556.35-.512-.063-1.203-.33-1.548-.77-.35-.43-.55-1.292-.545-1.83.005-.552.429-1.236.568-1.447.147-.219.239.124.275.144m-.026.044c.288-.388.612-.741 1.144-.877.526-.129 1.51-.136 2.029.097.505.233.912.825 1.047 1.314.127.497-.055 1.213-.262 1.675-.213.469-.536.85-1 1.118-.47.26-1.244.527-1.79.487-.547-.04-1.148-.361-1.489-.715a1.856 1.856 0 0 1-.506-1.415c.047-.554.646-1.62.773-1.951.127-.331-.06-.082-.015-.028" stroke="#1971c2" stroke-width="4" fill="none"/></g><g stroke-linecap="round"><path d="M607.937 132.61c.33-.39 1.078-.599 1.626-.693.542-.087 1.227-.123 1.628.15.408.28.673 1.012.794 1.53.128.526.147 1.126-.058 1.617-.2.482-.691 1.062-1.14 1.315a1.963 1.963 0 0 1-1.507.178c-.523-.14-1.284-.554-1.608-1.029-.325-.474-.396-1.3-.347-1.81.063-.513.564-1.044.675-1.268.118-.232.001-.135.024-.114m-.121.486c.288-.387.97-.997 1.451-1.152.482-.155.991.014 1.446.228.463.221 1.128.56 1.312 1.056.184.494-.09 1.355-.23 1.906-.139.551-.229 1.093-.606 1.385-.376.292-1.077.464-1.655.354-.578-.124-1.45-.625-1.828-1.055-.372-.422-.462-1.034-.44-1.488.017-.461.452-1.039.563-1.263.118-.217.131-.07.139-.062" stroke-width="0" fill="#ced4da"/><path d="M607.924 132.653c.324-.382 1.016-.737 1.536-.83.52-.093 1.161.007 1.576.28.43.27.788.871.95 1.36a2.53 2.53 0 0 1 .03 1.534c-.163.489-.526 1.106-.987 1.401-.454.303-1.231.513-1.78.402-.536-.112-1.126-.667-1.47-1.09-.358-.424-.671-.97-.635-1.453.028-.49.713-1.205.822-1.472.115-.274-.135-.178-.135-.164m-.092.16c.307-.438 1.242-.91 1.81-1.026a2.235 2.235 0 0 1 1.614.328c.4.258.657.807.804 1.267.147.461.262 1.001.071 1.49-.184.497-.722 1.157-1.205 1.46a2.799 2.799 0 0 1-1.673.419c-.505-.042-1.079-.23-1.366-.67-.295-.434-.39-1.336-.366-1.938.023-.603.406-1.42.51-1.65.103-.231.136.22.124.264" stroke="#1971c2" stroke-width="4" fill="none"/></g><g stroke-linecap="round"><path d="M654.518 176.129c.358-.405 1.052-.895 1.545-.944.508-.05 1.033.31 1.443.646.404.33.857.827.992 1.345.15.517.056 1.3-.15 1.79-.198.497-.566.987-1.06 1.185-.495.198-1.386.207-1.911.01-.525-.197-.967-.765-1.24-1.192-.287-.427-.483-.864-.426-1.37.056-.504.627-1.392.75-1.66.13-.26-.014.016.024.078m-.08.116c.279-.436.756-.704 1.275-.811.518-.122 1.416-.153 1.852.126.437.278.588 1 .782 1.559.193.544.52 1.252.394 1.76-.12.5-.606 1.059-1.135 1.28-.521.213-1.473.14-2.024.001-.543-.133-.968-.468-1.273-.816-.291-.349-.53-.784-.493-1.267.043-.49.64-1.394.728-1.666.088-.273-.197.022-.204.016" stroke-width="0" fill="#ced4da"/><path d="M654.347 176.27c.287-.415.879-.809 1.363-.907.484-.099 1.093.066 1.542.302.448.236.94.632 1.159 1.118.218.486.33 1.267.162 1.805-.169.538-.693 1.183-1.163 1.444-.478.254-1.145.198-1.68.1-.542-.09-1.231-.315-1.558-.67-.319-.347-.378-.903-.387-1.44-.002-.546.282-1.52.355-1.806.073-.273.01.077.062.124m.507-.39c.394-.384 1.014-.602 1.487-.63.466-.033.935.18 1.322.454.394.28.893.698 1.007 1.21.107.505-.057 1.319-.318 1.84-.246.52-.756 1.015-1.226 1.276-.463.253-1.134.452-1.588.28-.453-.186-.871-.854-1.134-1.367-.269-.505-.525-1.202-.468-1.693.07-.491.754-1.058.844-1.274.082-.223-.295-.122-.321-.064" stroke="#1971c2" stroke-width="4" fill="none"/></g><g stroke-linecap="round"><path d="M580.226 221.06c-25.729-10.14-51.123-20.259-101.432-40.015m101.432 40.015c-31.857-12.454-63.742-24.88-101.432-40.015M508.785 181.958c-7.562-.25-14.883-.468-29.99-.913m29.99.913c-9.47-.169-18.976-.357-29.99-.913" stroke="#f08c00" stroke-width="2" fill="none"/><path d="M501.184 201.017c-5.6-5.034-10.99-10.076-22.39-19.972m22.39 19.972c-7.055-6.111-14.183-12.261-22.39-19.972" stroke="#f08c00" stroke-width="2" fill="none"/></g><path d="m583.573 453.173.002-440.836m-.002 440.836c.005-98.876-.004-197.753.002-440.836" stroke="#e03131" stroke-width="4" fill="none" stroke-linecap="round"/><g stroke-linecap="round"><path d="M583.2 221.988c66.558.95 133.108 1.907 185.088 2.65m-185.087-2.65c48.33.688 96.667 1.384 185.087 2.65" stroke="#e03131" stroke-width="4" fill="none"/><path d="m739.948 234.49 28.34-9.853m-28.34 9.853c7.404-2.57 14.802-5.148 28.34-9.853M740.249 213.971c10.08 3.827 20.16 7.668 28.039 10.666m-28.04-10.666c7.315 2.784 14.644 5.568 28.04 10.666" stroke="#e03131" stroke-width="4" fill="none"/></g><g stroke-linecap="round"><path d="m125.275 97.44 59.2.39-1.04 64.32-60.51.69" stroke-width="0" fill="#343a40"/><path d="M123.465 98.53c18.17-1.2 38.85.69 61.24 0m-61.24 0c12.36.68 24.84-1.1 61.24 0m0 0c-.58 22.94.59 44.85 0 64.84m0-64.84c.26 19.98-.8 39.45 0 64.84m0 0c-14.23-.57-25.3 1.15-61.24 0m61.24 0c-16.63.12-31.15-.81-61.24 0m0 0c-.9-21.53-.23-40.98 0-64.84m0 64.84c.03-18.88-.6-37.46 0-64.84" stroke="#000" stroke-width="4" fill="none"/></g><text x="7.786" font-family="Helvetica, Segoe UI Emoji" font-size="28" fill="#1e1e1e" text-anchor="middle" style="white-space:pre" dominant-baseline="text-before-edge" transform="translate(146.298 114.85)">b</text><g stroke-linecap="round"><path d="m183.525 97.31 61.96.69 1.56 65.17-64.23.53" stroke-width="0" fill="#868e96"/><path d="M184.785 98.53c13.4.55 31.48-.72 61.24 0m-61.24 0c24.73.74 48.12.14 61.24 0m0 0c.24 19.91-1.25 40.25 0 64.84m0-64.84c-1.38 21.14.04 40.95 0 64.84m0 0c-16.43-1.05-33.08-1.62-61.24 0m61.24 0c-22.58-.56-45.02-.72-61.24 0m0 0c-.05-16.32 2.12-33.57 0-64.84m0 64.84c1.14-19.06.12-37.38 0-64.84" stroke="#000" stroke-width="4" fill="none"/></g><text x="7" font-family="Helvetica, Segoe UI Emoji" font-size="28" fill="#1e1e1e" text-anchor="middle" style="white-space:pre" dominant-baseline="text-before-edge" transform="translate(208.404 114.85)">c</text><g stroke-linecap="round"><path d="m63.258 163.543 58.24.53 1.77 64.07-61.48.19" stroke-width="0" fill="#343a40"/><path d="M62.228 163.743c22.79-.53 40.11 1.17 61.24 0m-61.24 0c19.86.45 39.21.27 61.24 0m0 0c-.06 17.94-.66 37.45 0 64.84m0-64.84c-.09 22.6.77 43.7 0 64.84m0 0c-12.98-.09-29.24-.16-61.24 0m61.24 0c-16.05-.62-31.06-.48-61.24 0m0 0c-.92-22.54-.61-41.84 0-64.84m0 64.84c-.56-16.54-.19-32.11 0-64.84" stroke="#000" stroke-width="4" fill="none"/></g><text x="7.786" font-family="Helvetica, Segoe UI Emoji" font-size="28" fill="#1e1e1e" text-anchor="middle" style="white-space:pre" dominant-baseline="text-before-edge" transform="translate(85.06 180.062)">e</text><g stroke-linecap="round"><path d="m123.275 163.303 60.99.19 2.05 63.83-64.31.98" stroke-width="0" fill="#868e96"/><path d="M123.465 163.743c16.8-.93 31.94-.19 61.24 0m-61.24 0c19.76-.73 39.73.17 61.24 0m0 0c.74 15.32-1.12 27.43 0 64.84m0-64.84c-.39 21.94-.68 46.57 0 64.84m0 0c-20.72 1.2-40.86-.61-61.24 0m61.24 0c-16.44.91-33.33-.21-61.24 0m0 0c-1.1-17.35-.71-35.51 0-64.84m0 64.84c.69-15.59-.81-30.81 0-64.84" stroke="#000" stroke-width="4" fill="none"/></g><g stroke-linecap="round"><path d="m184.345 163.493 63.29-1.01-3.07 65.82-61.4-.61" stroke-width="0" fill="#ced4da"/><path d="M184.785 163.743c20.82.32 43.54-.59 61.24 0m-61.24 0c18.93.63 36.54.32 61.24 0m0 0c-.79 13.04 1.33 28.71 0 64.84m0-64.84c-1.35 17.34-.18 33.04 0 64.84m0 0c-20.82-.41-39.78.92-61.24 0m61.24 0c-17.43.45-35.75.61-61.24 0m0 0c-.35-26.6-.87-51.21 0-64.84m0 64.84c-1.32-17.56-.43-35.68 0-64.84" stroke="#000" stroke-width="4" fill="none"/></g><text x="7.786" font-family="Helvetica, Segoe UI Emoji" font-size="28" fill="#1e1e1e" text-anchor="middle" style="white-space:pre" dominant-baseline="text-before-edge" transform="translate(207.618 180.062)">g</text><g stroke-linecap="round"><path d="m244.563 163.463 61.08-.61 3.47 66.04-61.62 1.23" stroke-width="0" fill="#ced4da"/><path d="M246.023 163.743c18.87.27 36.14.75 61.24 0m-61.24 0c18.74.47 39.75-.46 61.24 0m0 0c-.53 15.18-1.63 31.07 0 64.84m0-64.84c.36 23.68.69 47.64 0 64.84m0 0c-16.33.91-30.26.72-61.24 0m61.24 0c-16.58-.54-35.09-.35-61.24 0m0 0c-.14-14.33.19-32.68 0-64.84m0 64.84c-.16-20.64.87-41.66 0-64.84" stroke="#000" stroke-width="4" fill="none"/></g><text x="7.786" font-family="Helvetica, Segoe UI Emoji" font-size="28" fill="#1e1e1e" text-anchor="middle" style="white-space:pre" dominant-baseline="text-before-edge" transform="translate(268.855 180.062)">h</text><g stroke-linecap="round"><path d="m64.078 229.264 60.85 1.23-2.67 64.96-60.42-1.68" stroke-width="0" fill="#868e96"/><path d="M62.228 228.954c18.88-1.78 36.76-1.85 61.24 0m-61.24 0c20.38.86 42.08-.12 61.24 0m0 0c.8 15.75-1.04 30.95 0 64.84m0-64.84c-.02 16.34.64 33.09 0 64.84m0 0c-20.9-.55-41.21 1.98-61.24 0m61.24 0c-15.67-.83-30.35-.48-61.24 0m0 0c.39-22.97-.37-45.99 0-64.84m0 64.84c-1.25-18.79-1.33-37.76 0-64.84" stroke="#000" stroke-width="4" fill="none"/></g><text x="3.11" font-family="Helvetica, Segoe UI Emoji" font-size="28" fill="#1e1e1e" text-anchor="middle" style="white-space:pre" dominant-baseline="text-before-edge" transform="translate(89.736 245.274)">i</text><g stroke-linecap="round"><path d="m122.255 230.614 62.06-1.68-.53 62.91-59.35 1.44" stroke-width="0" fill="#ced4da"/><path d="M123.465 228.954c14.19 1.67 25.73-.4 61.24 0m-61.24 0c21.01-.72 42.38.99 61.24 0m0 0c-1.01 22.08-1.32 41.27 0 64.84m0-64.84c.56 18.76.46 35.43 0 64.84m0 0c-17.26.32-33.05-.71-61.24 0m61.24 0c-14.12-.26-30.24 0-61.24 0m0 0c-.1-17.21-1.12-39.11 0-64.84m0 64.84c1.45-18.41 1.26-36.35 0-64.84" stroke="#000" stroke-width="4" fill="none"/></g><text x="3.11" font-family="Helvetica, Segoe UI Emoji" font-size="28" fill="#1e1e1e" text-anchor="middle" style="white-space:pre" dominant-baseline="text-before-edge" transform="translate(150.974 245.274)">j</text><g stroke-linecap="round"><path d="m183.865 227.004 63.13 1.44-2.16 65.16-60.94-1.59" stroke-width="0" fill="#ced4da"/><path d="M184.785 228.954c22.96 1.08 42.91-1.01 61.24 0m-61.24 0c12.57-.64 24.86-.88 61.24 0m0 0c-.9 23.53-.61 46.61 0 64.84m0-64.84c-.19 25.79 1.08 51.01 0 64.84m0 0c-18.89-.92-35.86.64-61.24 0m61.24 0c-17.85-.12-35.73-.02-61.24 0m0 0c.13-26.3-.48-47.52 0-64.84m0 64.84c-1.08-19.61-.67-40.9 0-64.84" stroke="#000" stroke-width="4" fill="none"/></g><text x="7" font-family="Helvetica, Segoe UI Emoji" font-size="28" fill="#1e1e1e" text-anchor="middle" style="white-space:pre" dominant-baseline="text-before-edge" transform="translate(208.404 245.274)">k</text><g stroke-linecap="round"><path d="m244.833 228.764 61.54-1.59-.6 66.02-60.74 2" stroke-width="0" fill="#ced4da"/><path d="M246.023 228.954c18.83-1.47 43.05.87 61.24 0m-61.24 0c17.68-.32 33.92.01 61.24 0m0 0c1.88 21.92-.36 42.04 0 64.84m0-64.84c.47 19.17-.05 38.43 0 64.84m0 0c-16.93-1.65-33.12.12-61.24 0m61.24 0c-16.22-.71-34.78-.21-61.24 0m0 0c.59-12.75 1.83-29.64 0-64.84m0 64.84c-.33-25.81.61-49.93 0-64.84" stroke="#000" stroke-width="4" fill="none"/></g><text x="3.11" font-family="Helvetica, Segoe UI Emoji" font-size="28" fill="#1e1e1e" text-anchor="middle" style="white-space:pre" dominant-baseline="text-before-edge" transform="translate(273.53 245.274)">l</text><g stroke-linecap="round"><path d="m121.985 293.892 61.73 1.99 2.09 64.8-63.3-1.98" stroke-width="0" fill="#ced4da"/><path d="M123.465 294.482c12.27.26 24.45.93 61.24 0m-61.24 0c15.03.05 29.83 1.13 61.24 0m0 0c-.08 23.01-1.18 42.17 0 64.84m0-64.84c-.68 16.9.1 34.23 0 64.84m0 0c-12.79-.5-24.95 1.55-61.24 0m61.24 0c-15.32-.53-28.1.07-61.24 0m0 0c1.16-24.6-.52-49.33 0-64.84m0 64.84c-.91-13.22-.76-27.14 0-64.84" stroke="#000" stroke-width="4" fill="none"/></g><text x="7.786" font-family="Helvetica, Segoe UI Emoji" font-size="28" fill="#1e1e1e" text-anchor="middle" style="white-space:pre" dominant-baseline="text-before-edge" transform="translate(146.298 310.802)">n</text><g stroke-linecap="round"><path d="m185.895 295.842 59.16-1.98 2.89 65.77-62.19 1.26" stroke-width="0" fill="#ced4da"/><path d="M184.785 294.482c18.44-1.07 38.75.27 61.24 0m-61.24 0c17.96-.74 35.03-.59 61.24 0m0 0c-1.06 24.07-1.58 50.13 0 64.84m0-64.84c-.65 17.89.23 35.24 0 64.84m0 0c-18.3-.97-34.35-1.12-61.24 0m61.24 0c-14.92.86-31.9.92-61.24 0m0 0c-1.95-17.21-.5-37.55 0-64.84m0 64.84c-.45-19.15-.21-37 0-64.84" stroke="#000" stroke-width="4" fill="none"/></g><text x="7.786" font-family="Helvetica, Segoe UI Emoji" font-size="28" fill="#1e1e1e" text-anchor="middle" style="white-space:pre" dominant-baseline="text-before-edge" transform="translate(207.618 310.802)">o</text><path d="M122.053 203.395c16.95.32 34.25.54 64.58.93" stroke="#e03131" stroke-width="2.5" fill="none" stroke-dasharray="1.5 8" stroke-linecap="round"/><path d="M164.691 166.475c.27 20.38-.05 40.51 0 61.58" stroke="#e03131" stroke-width="2.5" fill="none" stroke-dasharray="1.5 8" stroke-linecap="round"/><g stroke-linecap="round"><path d="M164.881 201.846c.51.03 1.09.46 1.47.84.39.37.79.94.86 1.43.08.49-.13 1.09-.41 1.53-.27.44-.74.95-1.24 1.12-.5.17-1.22.12-1.75-.1-.52-.23-1.12-.8-1.39-1.25-.27-.45-.38-.95-.23-1.47.16-.52.7-1.32 1.17-1.64.48-.32 1.39-.27 1.66-.3.27-.03 0 .1-.05.12m-.43-.18c.45-.04 1.18.19 1.64.55.47.36 1.04 1.08 1.12 1.61.09.52-.27 1.12-.58 1.54-.31.42-.83.78-1.3.98-.47.19-1.07.37-1.53.21-.47-.17-1.02-.73-1.27-1.18-.24-.45-.27-.99-.22-1.53.06-.55.15-1.37.56-1.76.42-.4 1.69-.52 1.94-.62.25-.1-.39-.05-.43.02" stroke-width="0" fill="#ced4da"/><path d="M164.601 201.896c.49-.08 1.21.13 1.63.46.41.32.73.94.84 1.49.11.55.05 1.34-.19 1.79-.24.45-.76.71-1.24.89-.48.18-1.14.33-1.65.18-.5-.14-1.09-.64-1.38-1.06-.28-.43-.39-.96-.32-1.5.06-.54.33-1.33.72-1.72.4-.39 1.39-.58 1.66-.63.27-.06-.04.23-.03.31m.21-.19c.51-.07 1.08.1 1.49.45.41.35.92 1.12.97 1.67.06.56-.31 1.27-.64 1.68-.32.42-.81.68-1.32.83-.51.14-1.27.18-1.75.03-.49-.14-.99-.49-1.17-.92-.19-.44-.08-1.13.04-1.69.13-.55.25-1.3.69-1.63.44-.34 1.65-.35 1.95-.38.31-.03-.04.18-.11.19" stroke="#e03131" stroke-width="4" fill="none"/></g><text font-family="Helvetica, Segoe UI Emoji" font-size="28" fill="#1e1e1e" style="white-space:pre" dominant-baseline="text-before-edge" transform="translate(138.235 172.53)">Q</text><g stroke-linecap="round"><path d="M119.2 164c67.91-.3 135.99-.41 257.64 0m-257.64 0c61.6.07 122.96.1 257.64 0M348.65 174.28c7.29-2.79 14.79-5.65 28.19-10.28m-28.19 10.28c6.81-2.46 13.33-4.88 28.19-10.28M348.64 153.75c7.29 2.64 14.79 5.2 28.2 10.25m-28.2-10.25c6.81 2.45 13.33 4.93 28.2 10.25" stroke="#343a40" stroke-width="4" fill="none"/></g><path d="M123.997 163.19c16.28-.17 32.59-.07 41.93 0" stroke="#1971c2" stroke-width="2.5" fill="none" stroke-dasharray="1.5 8" stroke-linecap="round"/><g stroke-linecap="round"><path d="M123.333 181.365c-.39 67.77-.45 135.8-.5 235.18m.5-235.18c-.44 68.15-.6 136.35-.5 235.18M112.563 388.355c2.77 8.06 5.83 16.42 10.27 28.19m-10.27-28.19c2.93 8.13 5.88 16.32 10.27 28.19M133.083 388.345c-3.14 8.05-6 16.41-10.25 28.2m10.25-28.2c-3.02 8.15-6.01 16.33-10.25 28.2" stroke="#343a40" stroke-width="4" fill="none"/></g><path d="M122.997 163.47c-.11 9.15-.06 17.73 0 38.02" stroke="#2f9e44" stroke-width="2.5" fill="none" stroke-dasharray="1.5 8" stroke-linecap="round"/><text font-family="Helvetica, Segoe UI Emoji" font-size="28" fill="#1e1e1e" style="white-space:pre" dominant-baseline="text-before-edge" transform="translate(83.509 122.487)">O</text><g stroke-linecap="round"><path d="M123.03 160.998c.54-.03 1.38.02 1.82.35.45.34.78 1.09.86 1.65.09.57-.05 1.29-.36 1.73-.31.43-.97.7-1.48.87-.52.17-1.14.36-1.61.16-.48-.19-.98-.82-1.23-1.31-.25-.49-.37-1.15-.27-1.63.1-.49.43-.95.86-1.3.43-.35 1.44-.66 1.72-.79.27-.13-.04-.03-.07.03m.08.21c.49-.04.91.04 1.32.35.41.31 1.09.98 1.15 1.5.07.52-.46 1.14-.78 1.61-.32.48-.65 1.06-1.14 1.24-.49.17-1.31-.01-1.79-.19-.47-.17-.87-.41-1.07-.87-.2-.46-.23-1.31-.13-1.88.11-.57.37-1.21.75-1.53.37-.32 1.25-.3 1.51-.39.25-.08-.04-.15.01-.12" stroke-width="0" fill="#ced4da"/><path d="M123.13 160.978c.49-.04 1.11.04 1.51.33.41.3.83.88.93 1.45.1.56-.07 1.43-.32 1.93-.26.5-.73.92-1.2 1.06-.46.15-1.11.01-1.59-.19s-1-.56-1.29-1.01c-.29-.45-.48-1.2-.44-1.7.04-.51.29-.98.69-1.33.4-.34 1.41-.64 1.7-.75.29-.11.05.03.04.07m.08.18c.5-.08.93 0 1.36.31.43.31 1.07.99 1.21 1.55.14.56-.05 1.38-.36 1.81-.32.44-1.03.69-1.54.82s-1.09.17-1.53-.02c-.45-.18-.84-.66-1.14-1.09-.3-.43-.69-.96-.66-1.47.04-.51.41-1.25.85-1.59.45-.34 1.53-.39 1.82-.46.28-.07-.07-.04-.12.02" stroke="#6741d9" stroke-width="4" fill="none"/></g><text font-family="Helvetica, Segoe UI Emoji" font-size="28" fill="#1e1e1e" style="white-space:pre" dominant-baseline="text-before-edge" transform="translate(73.632 383.322)">y</text><text font-family="Helvetica, Segoe UI Emoji" font-size="28" fill="#1e1e1e" style="white-space:pre" dominant-baseline="text-before-edge" transform="translate(331.869 119.089)">x</text><g stroke-linecap="round"><path d="M123.155 96.69c.46-.08 1.02-.01 1.43.3.4.32.85 1.09.98 1.6.14.51.08 1.01-.15 1.45-.23.44-.75.94-1.23 1.18-.48.23-1.19.4-1.68.24-.48-.17-.95-.76-1.23-1.25-.28-.48-.49-1.16-.46-1.67.04-.51.29-1.06.68-1.4.4-.33 1.42-.53 1.69-.61.27-.08-.06.1-.06.13m-.27-.32c.46-.03 1.37.35 1.81.68.43.33.69.75.82 1.29.14.54.17 1.46-.02 1.94s-.63.79-1.12.94c-.49.16-1.29.14-1.84 0-.54-.15-1.14-.43-1.44-.88-.31-.44-.49-1.28-.38-1.82.1-.53.59-1.06 1.02-1.41.42-.36 1.3-.65 1.51-.71.21-.05-.28.29-.27.37" stroke-width="0" fill="#ced4da"/><path d="M123.005 96.69c.51-.02 1.25.18 1.71.45.45.28.88.72 1.02 1.21s.07 1.26-.19 1.74-.83.89-1.36 1.12c-.53.22-1.32.39-1.83.24-.52-.16-.98-.71-1.25-1.18-.26-.47-.4-1.09-.36-1.62.05-.53.26-1.19.64-1.55.38-.37 1.35-.56 1.66-.63.3-.07.14.17.17.21m.05.04c.44-.07.94-.03 1.34.24.39.27.87.89 1.03 1.39.16.5.2 1.14-.08 1.63-.27.49-1.05 1.1-1.59 1.3-.54.21-1.19.09-1.65-.07-.45-.16-.82-.47-1.07-.9-.26-.43-.48-1.18-.45-1.68.03-.5.24-.98.64-1.31.4-.34 1.46-.56 1.75-.71.29-.15.01-.2-.01-.21" stroke="#1971c2" stroke-width="4" fill="none"/></g><g stroke-linecap="round"><path d="M185.605 94.996c.48-.01 1.22.47 1.64.82.41.35.75.79.83 1.28.08.49-.07 1.2-.35 1.68-.28.48-.85 1.04-1.33 1.18-.49.15-1.09-.05-1.58-.29-.48-.25-1.05-.71-1.33-1.17-.27-.45-.43-1.08-.31-1.57s.59-1.08 1.02-1.38c.42-.31 1.26-.34 1.54-.43.27-.09.1-.17.09-.12m-.37.04c.52-.04 1.08.03 1.52.37.43.34.93 1.15 1.1 1.67.17.53.15 1.05-.09 1.47-.25.42-.86.84-1.38 1.05-.53.21-1.26.39-1.78.23-.53-.16-1.1-.73-1.35-1.19-.24-.45-.22-1.03-.12-1.55s.39-1.23.72-1.54c.34-.32 1.02-.29 1.28-.35.26-.07.24-.04.28-.06" stroke-width="0" fill="#ced4da"/><path d="M185.495 95.166c.53-.1 1.27-.02 1.71.27.44.29.84.95.94 1.47.11.52-.03 1.15-.31 1.64-.29.49-.88 1.1-1.38 1.3-.49.21-1.09.12-1.57-.06-.48-.17-1.02-.53-1.33-.98-.31-.44-.58-1.16-.52-1.68.05-.53.42-1.15.84-1.48.43-.33 1.43-.41 1.71-.51.29-.1.04-.16.02-.11m-.1-.1c.48-.08 1.27.21 1.73.54.45.33.94.89 1 1.44.06.54-.32 1.38-.63 1.84-.32.47-.82.78-1.27.96-.46.18-.97.3-1.45.14-.47-.17-1.09-.69-1.39-1.13-.31-.44-.54-.99-.44-1.5.09-.51.6-1.15 1.03-1.54.44-.39 1.35-.68 1.59-.82.24-.13-.16-.08-.13.01" stroke="#1971c2" stroke-width="4" fill="none"/></g><g stroke-linecap="round"><path d="M61.948 161.55c.53 0 1.21.14 1.6.47.39.34.69 1 .74 1.56.06.55-.13 1.36-.41 1.79-.28.43-.75.66-1.26.76-.5.11-1.25.06-1.76-.15-.52-.2-1.08-.62-1.31-1.07-.22-.46-.19-1.15-.05-1.64.13-.5.43-1 .87-1.32.43-.32 1.46-.57 1.72-.62.26-.06-.14.26-.17.29m-.4-.33c.51-.04 1.33.41 1.8.73.48.32.93.73 1.05 1.19.12.47-.06 1.1-.33 1.58s-.81 1.1-1.31 1.31c-.5.2-1.21.1-1.68-.07a2.07 2.07 0 0 1-1.1-.9c-.26-.43-.45-1.2-.44-1.68 0-.48.08-.87.47-1.2.38-.33 1.52-.62 1.82-.79.3-.17-.03-.24-.03-.2" stroke-width="0" fill="#ced4da"/><path d="M62.108 161.33c.52-.02 1.19.38 1.55.75.36.38.6.94.61 1.48.01.55-.26 1.35-.56 1.79-.3.43-.77.7-1.25.82-.49.12-1.16.12-1.66-.1s-1.1-.74-1.34-1.22c-.23-.47-.25-1.16-.08-1.64.17-.48.64-.93 1.1-1.24.45-.31 1.38-.56 1.63-.62.25-.06-.13.21-.14.27m0-.37c.56-.01 1.37.25 1.72.64.36.38.42 1.16.44 1.69.01.54-.12 1.09-.36 1.53-.25.45-.63.99-1.11 1.16-.49.17-1.27.06-1.8-.13-.54-.18-1.16-.53-1.4-.99-.23-.46-.16-1.2-.01-1.77.15-.57.52-1.3.92-1.66.4-.37 1.19-.51 1.49-.52.3-.02.32.3.31.4" stroke="#1971c2" stroke-width="4" fill="none"/></g><g stroke-linecap="round"><path d="M62.092 226.49c.51-.07 1.2.21 1.61.57.42.36.77 1.09.89 1.6.13.5.11 1.02-.13 1.44-.25.43-.83.89-1.35 1.1-.52.21-1.29.29-1.78.15-.5-.15-.94-.58-1.21-1.02-.28-.43-.5-1.03-.43-1.57.08-.54.51-1.31.89-1.65.38-.34 1.17-.27 1.4-.38.24-.1.02-.25.02-.24m.19.23c.55-.03 1.3.07 1.7.36.39.29.64.83.69 1.36.06.52-.1 1.34-.38 1.8-.28.45-.83.74-1.28.91-.45.17-.97.26-1.43.09-.46-.17-1.01-.7-1.33-1.11-.32-.41-.67-.86-.58-1.35.09-.49.68-1.17 1.12-1.57.45-.4 1.29-.74 1.56-.84.26-.09.06.15.03.27" stroke-width="0" fill="#ced4da"/><path d="M62.412 226.56c.49 0 1.09.25 1.43.63.34.38.55 1.13.61 1.65.05.52-.01 1.06-.28 1.48-.26.42-.8.88-1.32 1.03-.53.15-1.32.07-1.81-.14-.49-.21-.94-.68-1.14-1.12-.2-.44-.19-1-.05-1.51.15-.52.52-1.27.92-1.57.41-.31 1.22-.22 1.49-.27.26-.05.06-.02.08-.02m-.11-.34c.48-.03.91.37 1.28.7.37.34.78.79.94 1.32.16.52.24 1.34.02 1.82-.23.49-.83.89-1.37 1.11-.53.23-1.35.39-1.85.24-.5-.15-.91-.62-1.16-1.13-.25-.5-.41-1.33-.37-1.9.05-.57.24-1.23.66-1.54.42-.3 1.62-.25 1.88-.28.25-.03-.34.06-.35.09" stroke="#1971c2" stroke-width="4" fill="none"/></g><g stroke-linecap="round"><path d="M122.738 225.069c.51.03 1.15.48 1.55.83.41.35.81.8.87 1.29.06.48-.16 1.17-.48 1.62-.32.45-.95.93-1.45 1.1-.51.18-1.1.13-1.58-.06s-1.07-.6-1.3-1.09c-.24-.49-.22-1.34-.11-1.84.1-.5.35-.84.75-1.17.39-.32 1.36-.66 1.63-.76.27-.1-.03.13-.01.18m.01-.12c.49-.1 1.08.08 1.46.4.37.33.71 1.05.81 1.56.1.51-.01 1.05-.21 1.5-.2.46-.54 1.02-.99 1.23-.45.21-1.16.15-1.72.04-.56-.11-1.33-.3-1.62-.71-.28-.42-.19-1.18-.08-1.76.11-.58.36-1.39.75-1.75.39-.36 1.36-.4 1.59-.43.23-.03-.19.22-.22.27" stroke-width="0" fill="#ced4da"/><path d="M122.448 225.059c.46-.04 1.05.33 1.47.65.41.32.88.76 1.02 1.26.14.49.07 1.23-.19 1.69-.26.47-.88.9-1.37 1.1-.49.2-1.13.24-1.59.12-.47-.13-.93-.42-1.19-.87-.26-.44-.42-1.29-.38-1.8.05-.52.25-.95.63-1.28.38-.33 1.35-.58 1.65-.72.29-.15.13-.16.11-.13m-.33.03c.45-.05 1.18.05 1.66.37.47.33 1.02 1.03 1.17 1.57.14.53-.03 1.15-.32 1.65-.28.5-.91 1.1-1.39 1.32-.49.23-1.03.22-1.51.01s-1.05-.77-1.36-1.26c-.32-.5-.61-1.22-.52-1.69.09-.47.69-.85 1.07-1.15.38-.29.96-.52 1.2-.63.25-.11.22-.01.28-.03" stroke="#1971c2" stroke-width="4" fill="none"/></g><g stroke-linecap="round"><path d="M123.26 291.448c.52-.06 1.3 0 1.73.28.42.28.74.87.83 1.4.09.53-.07 1.28-.31 1.77-.23.5-.64.96-1.12 1.19-.49.22-1.27.33-1.77.16-.51-.17-.96-.75-1.27-1.18-.3-.44-.59-.88-.56-1.41.04-.53.39-1.4.78-1.79.39-.38 1.26-.44 1.55-.53.28-.09.13-.06.14-.01m.21-.15c.46-.01 1.09.43 1.46.78.38.35.68.81.8 1.32.11.51.14 1.28-.11 1.74-.25.45-.82.78-1.38.99-.55.21-1.47.41-1.96.24-.48-.17-.76-.72-.96-1.25-.2-.53-.37-1.4-.25-1.92.11-.52.55-.96.94-1.21.39-.25 1.15-.22 1.38-.29.24-.07 0-.14.03-.14" stroke-width="0" fill="#ced4da"/><path d="M123.17 291.428c.5-.04 1.27.08 1.71.39.43.31.8.96.89 1.47.08.52-.13 1.17-.39 1.63-.27.46-.74.92-1.19 1.14-.45.22-1.06.36-1.53.18-.48-.17-1.02-.78-1.32-1.22-.29-.44-.54-.94-.47-1.44.07-.49.47-1.16.9-1.54.43-.39 1.43-.68 1.68-.78.25-.11-.15.07-.19.15m-.18-.18c.54-.06 1.42.29 1.86.62.45.33.75.84.83 1.37.08.54-.11 1.36-.34 1.85-.23.49-.58.92-1.04 1.08-.45.16-1.16.06-1.69-.14-.53-.19-1.23-.64-1.5-1.03-.26-.39-.14-.82-.09-1.28.05-.46.02-1.1.39-1.48.37-.37 1.5-.6 1.82-.77.32-.17.13-.24.09-.23" stroke="#1971c2" stroke-width="4" fill="none"/></g><g stroke-linecap="round"><path d="M185.313 290.923c.51-.09 1.14.16 1.52.5.39.34.69 1 .8 1.54.12.54.12 1.22-.12 1.71-.25.48-.85 1.02-1.34 1.2-.49.19-1.09.05-1.61-.11-.52-.15-1.2-.34-1.51-.8-.31-.45-.42-1.39-.35-1.94s.36-1.01.77-1.36c.42-.34 1.44-.61 1.71-.69.27-.09-.09.09-.07.16m-.01-.13c.49-.05 1.15.05 1.61.36.46.32 1 1 1.15 1.53.14.52.01 1.12-.29 1.63-.3.51-1.05 1.21-1.54 1.44-.49.22-.94.16-1.4-.07-.46-.22-1.08-.84-1.36-1.3-.27-.46-.35-.99-.3-1.44.05-.45.22-.92.58-1.26.36-.35 1.31-.68 1.6-.81.28-.13.1-.02.12.02" stroke-width="0" fill="#ced4da"/><path d="M185.133 290.963c.53-.07 1.23.22 1.63.54.4.33.67.87.77 1.39.11.52.07 1.21-.14 1.71-.21.5-.63 1.09-1.1 1.29-.46.2-1.16.05-1.69-.1-.53-.15-1.19-.39-1.48-.82-.3-.42-.38-1.15-.28-1.72.1-.56.51-1.3.89-1.67.37-.36 1.15-.47 1.37-.53.23-.06-.01.14-.02.17m.3-.15c.52-.02 1.11.18 1.47.54.36.36.59 1.09.69 1.62.1.53.13 1.17-.11 1.57-.23.41-.77.71-1.29.84-.52.14-1.35.1-1.82-.03-.46-.12-.71-.32-.98-.71-.28-.39-.73-1.09-.66-1.62.08-.53.65-1.15 1.11-1.56.46-.4 1.45-.74 1.67-.86.23-.12-.29.09-.3.16" stroke="#1971c2" stroke-width="4" fill="none"/></g><g stroke-linecap="round"><path d="M184.875 224.857c.48 0 1.08.37 1.47.75.39.38.82.99.89 1.54.07.54-.17 1.29-.46 1.72-.28.43-.73.69-1.26.86-.52.17-1.35.38-1.87.17-.51-.21-.99-.94-1.24-1.43-.24-.5-.37-1.04-.24-1.55.14-.51.61-1.18 1.04-1.49.43-.31 1.26-.34 1.55-.38.28-.05.18.08.18.12m-.45-.38c.54-.08 1.41.24 1.87.57.47.32.83.81.9 1.37.07.56-.23 1.48-.46 1.99-.24.51-.5.9-.95 1.05-.44.16-1.21.01-1.71-.14-.51-.16-1-.42-1.33-.79-.32-.37-.64-.9-.61-1.43.02-.52.37-1.29.77-1.69.41-.4 1.39-.6 1.67-.71.29-.11.02-.02.02.05" stroke-width="0" fill="#ced4da"/><path d="M184.795 224.937c.48-.01 1.05.24 1.44.59.38.36.76.98.88 1.53.11.56.05 1.37-.2 1.82-.26.44-.81.7-1.34.87-.53.18-1.34.34-1.84.16-.5-.17-.96-.69-1.18-1.2-.22-.51-.23-1.32-.13-1.85.09-.53.31-1.04.69-1.33.38-.29 1.33-.3 1.59-.4.26-.09-.03-.17-.02-.16m-.06.04c.45-.04 1.02.33 1.44.67.42.33.94.87 1.09 1.33.14.46.04 1-.23 1.42-.27.42-.92.84-1.37 1.1-.46.25-.87.53-1.38.43-.51-.09-1.39-.53-1.68-.98-.3-.46-.23-1.15-.1-1.74.13-.58.52-1.39.87-1.77.36-.38 1-.47 1.26-.53.25-.07.27.08.26.13" stroke="#1971c2" stroke-width="4" fill="none"/></g><g stroke-linecap="round"><path d="M184.758 162.14c.5-.04 1.3.18 1.73.51.43.34.73.99.85 1.49.13.5.15 1.02-.1 1.51s-.89 1.2-1.4 1.41c-.52.2-1.17 0-1.68-.18-.52-.17-1.11-.44-1.39-.87-.28-.43-.34-1.19-.27-1.71.06-.51.26-1.06.66-1.39.4-.34 1.47-.5 1.74-.61.27-.11-.09-.07-.12-.05m.32-.2c.54-.03 1.2.14 1.56.52.36.38.49 1.21.59 1.76.1.56.23 1.16.01 1.56-.21.4-.81.67-1.3.86-.49.18-1.12.34-1.66.24-.53-.1-1.22-.4-1.53-.85-.3-.45-.4-1.28-.29-1.84.1-.56.52-1.16.94-1.51.42-.35 1.33-.54 1.59-.61.27-.07.08.14.03.18" stroke-width="0" fill="#ced4da"/><path d="M184.708 162.08c.49-.06 1.24.19 1.7.54.46.36.92 1.07 1.06 1.58.14.52.05 1.04-.22 1.52s-.89 1.14-1.39 1.36c-.5.23-1.14.21-1.62.01-.47-.2-.94-.74-1.24-1.2-.3-.46-.6-1.06-.57-1.55.03-.49.36-1 .74-1.38.38-.37 1.27-.73 1.55-.86.28-.14.13 0 .14.07m-.03.18c.5-.02 1.32.21 1.76.5.43.28.76.74.82 1.21.07.47-.19 1.11-.43 1.62s-.48 1.19-.99 1.43c-.5.25-1.52.22-2.03.03-.51-.19-.81-.66-1.01-1.18-.21-.52-.25-1.39-.19-1.94.05-.54.14-1.03.54-1.34.4-.3 1.6-.41 1.86-.48.25-.07-.29.02-.34.07" stroke="#1971c2" stroke-width="4" fill="none"/></g><g stroke-linecap="round"><path d="M246.741 161.692c.5-.05 1.11.24 1.54.54.43.29.92.7 1.04 1.23.11.52-.09 1.45-.35 1.92s-.72.7-1.21.89c-.48.19-1.21.39-1.7.26-.49-.14-.96-.63-1.25-1.05-.29-.43-.56-1.03-.5-1.52.07-.5.52-1.08.91-1.45.38-.38 1.18-.66 1.41-.8.22-.14-.07-.05-.06-.01m.25-.16c.44-.03.92.42 1.35.77.43.34 1.06.83 1.23 1.28.17.46.03.96-.2 1.43s-.66 1.11-1.17 1.39c-.52.29-1.37.49-1.91.35-.54-.14-1.07-.7-1.35-1.17-.27-.48-.36-1.14-.29-1.67.08-.53.37-1.18.75-1.53.39-.35 1.36-.46 1.56-.57.2-.1-.32-.11-.34-.08" stroke-width="0" fill="#ced4da"/><path d="M246.731 161.632c.54-.02 1.32.35 1.76.68.44.33.8.74.89 1.27.08.53-.13 1.4-.39 1.9-.26.49-.72.9-1.19 1.05-.46.16-1.07.06-1.59-.12-.52-.17-1.21-.52-1.53-.93-.31-.42-.44-1-.38-1.54s.36-1.32.77-1.7c.41-.39 1.43-.54 1.7-.61.27-.07-.07.16-.06.21m.17-.07c.53-.09 1.2.03 1.58.32.38.29.6.84.72 1.41.12.58.29 1.5.02 2.03-.27.52-1.13.95-1.63 1.12-.51.18-.98.16-1.42-.08-.43-.24-.9-.87-1.2-1.35-.3-.49-.69-1.06-.6-1.55.08-.49.71-1.05 1.1-1.38.4-.32 1.04-.48 1.25-.56.22-.09 0-.01.05.06" stroke="#1971c2" stroke-width="4" fill="none"/></g><g stroke-linecap="round"><path d="M246.086 225.417c.5-.06 1.29.02 1.68.37.4.34.63 1.17.7 1.68.08.51.01.94-.25 1.38-.25.44-.81 1.04-1.28 1.25-.48.2-1.07.13-1.56-.03-.5-.16-1.14-.51-1.41-.93-.26-.42-.24-1.06-.16-1.58.09-.53.31-1.21.67-1.59.36-.38 1.24-.57 1.51-.68.27-.1.11-.01.11.06m-.18.14c.51-.02 1.43.14 1.9.4.46.26.76.66.88 1.17.11.51.09 1.35-.19 1.89-.27.54-.94 1.15-1.46 1.36-.52.21-1.18.09-1.66-.11-.48-.19-.96-.6-1.22-1.06-.26-.45-.43-1.14-.35-1.65.07-.5.46-1.01.79-1.37.34-.36.98-.68 1.22-.78.24-.11.2.08.22.14" stroke-width="0" fill="#ced4da"/><path d="M246.126 225.437c.53-.06 1.22 0 1.62.33.4.32.66 1.09.77 1.63.11.54.09 1.17-.12 1.6-.21.43-.63.79-1.14.98-.5.2-1.34.32-1.88.2-.55-.11-1.09-.43-1.39-.89-.3-.46-.49-1.3-.41-1.86.08-.55.49-1.15.88-1.48.4-.33 1.22-.42 1.49-.51.27-.08.1-.03.12-.02m.25-.25c.48-.06 1.01.2 1.42.62.42.41 1.02 1.27 1.08 1.86.06.59-.43 1.25-.73 1.68-.3.44-.63.84-1.07.93-.44.1-1.07-.13-1.59-.36-.52-.24-1.3-.6-1.54-1.04-.25-.44-.05-1.09.06-1.59.11-.49.21-1.08.59-1.4.37-.31 1.34-.43 1.66-.48.31-.04.25.17.23.22" stroke="#1971c2" stroke-width="4" fill="none"/></g><g stroke-linecap="round"><path d="M162.924 201.107c-9.9-26.43-19.25-51.77-39.12-101.78m39.12 101.78c-13.92-37.44-28.47-74.68-39.12-101.78" stroke="#f08c00" stroke-width="2" fill="none"/><path d="M143.634 121.837c-5.2-6.12-9.62-11.2-19.83-22.51m19.83 22.51c-6.95-8.25-14.4-16.33-19.83-22.51" stroke="#f08c00" stroke-width="2" fill="none"/><path d="M124.524 129.317c-.29-7.99.17-14.97-.72-29.99m.72 29.99c.09-10.98-.32-21.81-.72-29.99" stroke="#f08c00" stroke-width="2" fill="none"/></g><text font-family="Helvetica, Segoe UI Emoji" font-size="28" fill="#1e1e1e" style="white-space:pre" dominant-baseline="text-before-edge" transform="translate(84.539 73.63)">B</text><path d="M10 373.097c122.27-131.83 244.55-263.66 336.78-363.1M10 373.097c112.4-121.18 224.8-242.37 336.78-363.1" stroke="#e03131" stroke-width="4" fill="none" stroke-linecap="round"/><g stroke-linecap="round"><path d="M163.73 205.664c43.251 47.037 86.496 94.08 112.305 122.148M163.729 205.664c28.32 30.798 56.64 61.597 112.306 122.148" stroke="#e03131" stroke-width="4" fill="none"/><path d="M249.395 313.999c10.258 5.32 20.524 10.634 26.64 13.813M249.395 314c6.719 3.48 13.438 6.96 26.64 13.813" stroke="#e03131" stroke-width="4" fill="none"/><path d="M264.506 300.117c4.437 10.66 8.88 21.328 11.529 27.695m-11.529-27.695c2.907 6.972 5.813 13.96 11.529 27.695" stroke="#e03131" stroke-width="4" fill="none"/></g><g stroke-linecap="round"><path d="M584.847 219.558c38.346 40.476 76.686 80.945 131.007 138.277" stroke="#e03131" stroke-width="4.5" fill="none" stroke-dasharray="1.5 10"/><path d="M689.02 344.43c7.854 3.918 15.708 7.85 26.834 13.405M703.915 330.313c3.498 8.059 6.989 16.11 11.939 27.522" stroke="#e03131" stroke-width="4.5" fill="none" stroke-dasharray="1.5 8"/></g><g stroke-linecap="round"><path d="M581.518 218.412c-13.52-34.76-26.74-70.55-39.12-101.78" stroke="#f08c00" stroke-width="4.5" fill="none" stroke-dasharray="1.5 10"/><path d="M562.178 139.182c-6.67-7.46-13.24-15.98-19.78-22.55M543.058 146.622c-.11-10-.09-21.08-.66-29.99" stroke="#f08c00" stroke-width="4.5" fill="none" stroke-dasharray="1.5 8"/></g></svg>