<svg xmlns="http://www.w3.org/2000/svg" viewBox="0 0 264.97 280.256" width="529.941" height="560.512"><defs><style>@font-face{font-family:&quot;Virgil&quot;;src:url(https://excalidraw.com/Virgil.woff2)}@font-face{font-family:&quot;Cascadia&quot;;src:url(https://excalidraw.com/Cascadia.woff2)}</style></defs><path fill="#fff" d="M0 0h264.97v280.256H0z"/><path d="M10 10c26.33-1.24 53.66-.01 81.62 0M10 10c32.1-.25 63.76-1.08 81.62 0m0 0c-.26 25.92 1.72 51.72 0 86.42m0-86.42c.51 29.6.71 59.55 0 86.42m0 0C61.14 98 26.35 94.24 10 96.42m81.62 0c-29.37-.43-59.75-1.18-81.62 0m0 0C9.78 74.94 9.73 53.69 10 10m0 86.42c-1.37-21.44.13-43.83 0-86.42" stroke="#000" stroke-width="4" fill="none" stroke-linecap="round"/><path d="M91.62 10c24.12.53 51.62 1.45 81.62 0m-81.62 0c28.63-.8 56.7-.08 81.62 0m0 0c1.58 29.87.76 62.52 0 86.7m0-86.7c-.35 29.75.65 58.84 0 86.7m0 0c-23.42-1.17-42.42 1.29-81.62 0m81.62 0c-19.93-.79-41.29.03-81.62 0m0 0c-.15-25.15-.79-48.9 0-86.7m0 86.7c1.44-25.7-.26-51.97 0-86.7" stroke="#000" stroke-width="4" fill="none" stroke-linecap="round"/><text x="7.786" font-family="Helvetica, Segoe UI Emoji" font-size="28" fill="#1971c2" text-anchor="middle" style="white-space:pre" dominant-baseline="text-before-edge" transform="translate(124.644 37.251)">b</text><path d="M173.35 10c25.59.33 49.55.18 81.62 0m-81.62 0c19.3-.16 37.53.83 81.62 0m0 0c1.22 23.32.12 47.63 0 86.42m0-86.42c.47 27.32 1.7 52.47 0 86.42m0 0c-17.63 1.68-33.29 1.13-81.62 0m81.62 0c-18.24-.05-36.33-.08-81.62 0m0 0c.43-28.14 1.86-52.15 0-86.42m0 86.42c1.27-29.54.53-60.59 0-86.42M10 96.917c28.67.28 55.43-.25 81.62 0m-81.62 0c24.6.96 49.15.55 81.62 0m0 0c.1 33.57.52 69.3 0 85.93m0-85.93c.65 20.78-1.24 43.77 0 85.93m0 0c-26.74 1.51-54.95-.43-81.62 0m81.62 0c-24.86-.18-49.6-.5-81.62 0m0 0c1.46-32.05 1.04-69.41 0-85.93m0 85.93c-.64-29.68-.01-59.78 0-85.93" stroke="#000" stroke-width="4" fill="none" stroke-linecap="round"/><text x="7.786" font-family="Helvetica, Segoe UI Emoji" font-size="28" fill="#1971c2" text-anchor="middle" style="white-space:pre" dominant-baseline="text-before-edge" transform="translate(43.024 123.784)">d</text><path d="M91.62 96.917c26.88.98 53.38-.19 81.62 0m-81.62 0c32.36.06 62.57-.49 81.62 0m0 0c-.92 24.51 1.47 52.13 0 86.42m0-86.42c-.56 18.88-.1 38.74 0 86.42m0 0c-28.1-.56-56.57-.4-81.62 0m81.62 0c-22.59-.33-47.64.39-81.62 0m0 0c.56-32.95 1.54-68.61 0-86.42m0 86.42c.21-29.31-1.26-60.39 0-86.42" stroke="#000" stroke-width="4" fill="none" stroke-linecap="round"/><text x="7.786" font-family="Helvetica, Segoe UI Emoji" font-size="28" fill="#1971c2" text-anchor="middle" style="white-space:pre" dominant-baseline="text-before-edge" transform="translate(124.644 124.028)">e</text><path d="M173.35 96.917c30.26-.4 58 1.92 81.62 0m-81.62 0c27.84.19 56.76-.39 81.62 0m0 0c-.91 21.26 1.98 46.92 0 86.42m0-86.42c1.08 20.81.12 43.22 0 86.42m0 0c-24.15.26-48.7 1.91-81.62 0m81.62 0c-23.74 1.14-50.15 1.12-81.62 0m0 0c.11-30.27.23-61.31 0-86.42m0 86.42c.53-32.73-.16-66.69 0-86.42" stroke="#000" stroke-width="4" fill="none" stroke-linecap="round"/><text x="3.89" font-family="Helvetica, Segoe UI Emoji" font-size="28" fill="#1971c2" text-anchor="middle" style="white-space:pre" dominant-baseline="text-before-edge" transform="translate(210.27 124.028)">f</text><path d="M10 183.835c23.42-1.34 44.89-.94 81.62 0m-81.62 0c24.82 1.1 51.19-.35 81.62 0m0 0c-.41 19.06.56 36.12 0 86.42m0-86.42c-.51 19.15-.44 38.36 0 86.42m0 0c-25.48-.32-49.58 2.69-81.62 0m81.62 0c-28.22 1.42-57.79.9-81.62 0m0 0c1.13-32.05-.8-61.22 0-86.42m0 86.42c1.39-27.43 1.59-54.33 0-86.42" stroke="#000" stroke-width="4" fill="none" stroke-linecap="round"/><path d="M91.62 183.835c31.79.06 64.26 2.05 81.62 0m-81.62 0c21.38-1.33 39.96.12 81.62 0m0 0c-.47 29.18-1.98 55.52 0 86.42m0-86.42c-.05 26.21.07 52.22 0 86.42m0 0c-30.78 1.47-63.45-1.93-81.62 0m81.62 0c-28.76 1.3-56.78 1.36-81.62 0m0 0c-1.02-31.95-.42-64.94 0-86.42m0 86.42c.29-17.8-1.24-36.22 0-86.42" stroke="#000" stroke-width="4" fill="none" stroke-linecap="round"/><text x="3.11" font-family="Helvetica, Segoe UI Emoji" font-size="28" fill="#1971c2" text-anchor="middle" style="white-space:pre" dominant-baseline="text-before-edge" transform="translate(129.32 210.945)">i</text><path d="M173.35 183.835c22.76-1.37 48.9 1.1 81.62 0m-81.62 0c18.57-1.06 37.33-.58 81.62 0m0 0c-.58 29.71-.85 59.72 0 86.42m0-86.42c1.06 24.96-.44 50.6 0 86.42m0 0c-31.28.64-62.6-.82-81.62 0m81.62 0c-27.78 1.25-57.69.28-81.62 0m0 0c-2.02-23.15-.74-47.18 0-86.42m0 86.42c1.34-25.47-.38-49.33 0-86.42" stroke="#000" stroke-width="4" fill="none" stroke-linecap="round"/></svg>