<svg xmlns="http://www.w3.org/2000/svg" viewBox="0 0 182.355 278.45" width="364.71" height="556.9"><defs><style>@font-face{font-family:&quot;Virgil&quot;;src:url(https://excalidraw.com/Virgil.woff2)}@font-face{font-family:&quot;Cascadia&quot;;src:url(https://excalidraw.com/Cascadia.woff2)}</style></defs><path fill="#fff" d="M0 0h182.355v278.45H0z"/><g stroke-linecap="round"><path d="m49.935 53.154 41.52.3-.12 42.2-40.13.45" stroke-width="0" fill="#ffc9c9"/><path d="M50.575 52.984c9.06.32 19.64-.59 40.58 0m-40.58 0c12.52.26 24.15-.09 40.58 0m0 0c-.16 15.56.79 32.24 0 42.96m0-42.96c.13 14.44-.24 29.6 0 42.96m0 0c-9.06.05-19.36.31-40.58 0m40.58 0c-8.93.06-17.88.22-40.58 0m0 0c.33-9.9-.55-19.25 0-42.96m0 42.96c-.41-14.71-.13-29.2 0-42.96" stroke="#000" stroke-width="4" fill="none"/></g><text x="7.786" font-family="Helvetica, Segoe UI Emoji" font-size="28" fill="#1e1e1e" text-anchor="middle" style="white-space:pre" dominant-baseline="text-before-edge" transform="translate(63.076 58.365)">b</text><g stroke-linecap="round"><path d="m91.515 53.454 40.45-.76.45 43.41-41.8.1" stroke-width="0" fill="#ffc9c9"/><path d="M91.205 52.984c13.89-.62 26.53-.12 40.58 0m-40.58 0c8.96-.26 18.6.24 40.58 0m0 0c.6 11.41.22 22.27 0 42.96m0-42.96c-.17 12.78-.15 25.11 0 42.96m0 0c-14.19.23-29.12-.19-40.58 0m40.58 0c-10.06.36-19.86-.08-40.58 0m0 0c-.67-13.05.22-26.92 0-42.96m0 42.96c.11-16.57-.19-33.33 0-42.96" stroke="#000" stroke-width="4" fill="none"/></g><text x="7" font-family="Helvetica, Segoe UI Emoji" font-size="28" fill="#1e1e1e" text-anchor="middle" style="white-space:pre" dominant-baseline="text-before-edge" transform="translate(104.492 58.365)">c</text><g stroke-linecap="round"><path d="m10.63 96.342 39.36.11.58 42.09-41.23.44" stroke-width="0" fill="#b2f2bb"/><path d="M10 96.192c8.4.69 18.11-.42 40.58 0m-40.58 0c9.69-.27 19.44.21 40.58 0m0 0c.01 14.8-.49 28.59 0 42.96m0-42.96c.08 15.41-.11 30.2 0 42.96m0 0c-13.97-.26-26.85-.52-40.58 0m40.58 0c-15.67.08-31.43-.36-40.58 0m0 0c.54-17.64-.15-34.1 0-42.96m0 42.96c.29-14.44.23-29.5 0-42.96" stroke="#000" stroke-width="4" fill="none"/></g><text x="7.786" font-family="Helvetica, Segoe UI Emoji" font-size="28" fill="#1e1e1e" text-anchor="middle" style="white-space:pre" dominant-baseline="text-before-edge" transform="translate(22.501 101.573)">e</text><g stroke-linecap="round"><path d="m49.985 96.452 41.16-.87-.66 43.4-39.74.79" stroke-width="0" fill="#b2f2bb"/><path d="M50.575 96.192c12.2-.57 23.36.35 40.58 0m-40.58 0c15.6.39 31.76.2 40.58 0m0 0c-.56 12.15.33 24.79 0 42.96m0-42.96c.06 11.54.19 22.7 0 42.96m0 0c-10.79-.53-21.54-.51-40.58 0m40.58 0c-10.5-.25-20.72.2-40.58 0m0 0c-.22-15.97.15-32.48 0-42.96m0 42.96c.03-14.11.25-27.85 0-42.96" stroke="#000" stroke-width="4" fill="none"/></g><text x="3.89" font-family="Helvetica, Segoe UI Emoji" font-size="28" fill="#1e1e1e" text-anchor="middle" style="white-space:pre" dominant-baseline="text-before-edge" transform="translate(66.973 101.573)">f</text><g stroke-linecap="round"><path d="m91.205 95.582 39.91.44.84 43.75-40.57-1.1" stroke-width="0" fill="#ffec99"/><path d="M91.205 96.192c15.83.58 33.05-.19 40.58 0m-40.58 0c10.58.01 20.88-.16 40.58 0m0 0c.22 14.28-.34 29.73 0 42.96m0-42.96c.11 16.84-.1 34.04 0 42.96m0 0c-10.24-.56-21.94.03-40.58 0m40.58 0c-13.48.02-27.36.18-40.58 0m0 0c.3-9.66.19-17.72 0-42.96m0 42.96c.28-15.75-.33-31.54 0-42.96" stroke="#000" stroke-width="4" fill="none"/></g><text x="7.786" font-family="Helvetica, Segoe UI Emoji" font-size="28" fill="#1e1e1e" text-anchor="middle" style="white-space:pre" dominant-baseline="text-before-edge" transform="translate(103.706 101.573)">g</text><g stroke-linecap="round"><path d="m131.12 96.022 41.41.78.01 41.87-40.57 1" stroke-width="0" fill="#ffec99"/><path d="M131.78 96.192c10.19-.37 18.87-.52 40.58 0m-40.58 0c16.13-.08 32.45-.33 40.58 0m0 0c-.15 10.42.74 20.1 0 42.96m0-42.96c-.05 13.28-.07 27.09 0 42.96m0 0c-9.56.04-18.28-.04-40.58 0m40.58 0c-8.3.36-17.39.01-40.58 0m0 0c.11-12.29.41-25.01 0-42.96m0 42.96c-.43-10.91-.14-22.39 0-42.96" stroke="#000" stroke-width="4" fill="none"/></g><text x="7.786" font-family="Helvetica, Segoe UI Emoji" font-size="28" fill="#1e1e1e" text-anchor="middle" style="white-space:pre" dominant-baseline="text-before-edge" transform="translate(144.281 101.573)">h</text><g stroke-linecap="round"><path d="m10.17 140.01 40.59-1.09v43.96l-40.64-1.09" stroke-width="0" fill="#b2f2bb"/><path d="M10 139.4c14.81-.37 30.87.31 40.58 0m-40.58 0c14.04-.26 27.57.18 40.58 0m0 0c.62 10.27.04 20.82 0 42.96m0-42.96c-.16 9.48-.29 18.97 0 42.96m0 0c-9.13.08-19.42.68-40.58 0m40.58 0c-14.17.08-27.74.27-40.58 0m0 0c.43-8.66-.33-17.05 0-42.96m0 42.96c.12-14.16-.21-27.8 0-42.96" stroke="#000" stroke-width="4" fill="none"/></g><text x="3.11" font-family="Helvetica, Segoe UI Emoji" font-size="28" fill="#1e1e1e" text-anchor="middle" style="white-space:pre" dominant-baseline="text-before-edge" transform="translate(27.177 144.781)">i</text><g stroke-linecap="round"><path d="m50.755 138.92 40.58.99-.07 41.88-40.28.11" stroke-width="0" fill="#b2f2bb"/><path d="M50.575 139.4c11.2.34 21.36.04 40.58 0m-40.58 0c11.69.28 23.61 0 40.58 0m0 0c.23 15.35-.42 30.05 0 42.96m0-42.96c-.3 10.68-.29 20.63 0 42.96m0 0c-13.56.67-25.61.49-40.58 0m40.58 0c-15.81.13-31.89.07-40.58 0m0 0c-.39-14.2.05-30.24 0-42.96m0 42.96c-.33-14.6.09-28.72 0-42.96" stroke="#000" stroke-width="4" fill="none"/></g><text x="3.11" font-family="Helvetica, Segoe UI Emoji" font-size="28" fill="#1e1e1e" text-anchor="middle" style="white-space:pre" dominant-baseline="text-before-edge" transform="translate(67.752 144.781)">j</text><g stroke-linecap="round"><path d="m91.395 139.91 40.5-1.09.29 43.08-41.65.46" stroke-width="0" fill="#ffec99"/><path d="M91.205 139.4c9.92-.1 19.23.23 40.58 0m-40.58 0c8.73-.18 18.05.26 40.58 0m0 0c-.55 12.53-.38 25.21 0 42.96m0-42.96c-.34 14.54-.04 29.5 0 42.96m0 0c-12.21.61-24.37-.48-40.58 0m40.58 0c-11.97.14-23.14.29-40.58 0m0 0c.22-14.64.32-28.11 0-42.96m0 42.96c.23-8.72.23-18.29 0-42.96" stroke="#000" stroke-width="4" fill="none"/></g><text x="7" font-family="Helvetica, Segoe UI Emoji" font-size="28" fill="#1e1e1e" text-anchor="middle" style="white-space:pre" dominant-baseline="text-before-edge" transform="translate(104.492 144.781)">k</text><g stroke-linecap="round"><path d="m131.9 138.82 40.86.12-1.07 43.42-40.09.53" stroke-width="0" fill="#ffec99"/><path d="M131.78 139.4c13.67.29 26.88-.44 40.58 0m-40.58 0c14.42.38 28.47.09 40.58 0m0 0c-.52 14.14.16 28.24 0 42.96m0-42.96c-.04 16.79-.08 33 0 42.96m0 0c-15.48-.51-32.25.05-40.58 0m40.58 0c-13.72.27-27.64-.11-40.58 0m0 0c.22-16.88-.64-34.41 0-42.96m0 42.96c.05-12.05.06-23.37 0-42.96" stroke="#000" stroke-width="4" fill="none"/></g><text x="3.11" font-family="Helvetica, Segoe UI Emoji" font-size="28" fill="#1e1e1e" text-anchor="middle" style="white-space:pre" dominant-baseline="text-before-edge" transform="translate(148.957 144.781)">l</text><g stroke-linecap="round"><path d="m49.905 182.818 41.07.53.2 41.77-40.49 1.24" stroke-width="0" fill="#a5d8ff"/><path d="M50.575 182.818c14.22-.32 27.52.44 40.58 0m-40.58 0c16.28-.3 32.24-.22 40.58 0m0 0c.65 11-.22 23.06 0 42.96m0-42.96c.33 14.75.25 29.52 0 42.96m0 0c-8.24-.65-16.87.3-40.58 0m40.58 0c-14.64.02-30.21.07-40.58 0m0 0c-.04-12.69.75-25.55 0-42.96m0 42.96c.02-10.15.16-19.95 0-42.96" stroke="#000" stroke-width="4" fill="none"/></g><text x="7.786" font-family="Helvetica, Segoe UI Emoji" font-size="28" fill="#1e1e1e" text-anchor="middle" style="white-space:pre" dominant-baseline="text-before-edge" transform="translate(63.076 188.2)">n</text><g stroke-linecap="round"><path d="m91.025 183.348 40.78-1.19.09 44.2-41.07-.59" stroke-width="0" fill="#a5d8ff"/><path d="M91.205 182.818c9.28.44 19.68.06 40.58 0m-40.58 0c12.63-.08 25.34.26 40.58 0m0 0c-.15 9.95.4 19.69 0 42.96m0-42.96c.38 9.34-.17 18.04 0 42.96m0 0c-11.73.18-23.34.06-40.58 0m40.58 0c-10.73.16-20.87-.27-40.58 0m0 0c.65-8.51-.44-17.21 0-42.96m0 42.96c.18-16.37-.36-32.28 0-42.96" stroke="#000" stroke-width="4" fill="none"/></g><text x="7.786" font-family="Helvetica, Segoe UI Emoji" font-size="28" fill="#1e1e1e" text-anchor="middle" style="white-space:pre" dominant-baseline="text-before-edge" transform="translate(103.706 188.2)">o</text><g stroke-linecap="round"><path d="m51.192 225.838 40.34-.38-.17 42.45-39.89.53" stroke-width="0" fill="#a5d8ff"/><path d="M50.882 225.488c9.01 0 16.69.34 40.58 0m-40.58 0c9.22-.24 18.46-.34 40.58 0m0 0c-.63 15.07-.27 29.47 0 42.96m0-42.96c-.09 12.53.15 25.9 0 42.96m0 0c-11.9-.29-22.99 0-40.58 0m40.58 0c-10.42-.24-20.97.34-40.58 0m0 0c.21-14.61-.67-29.8 0-42.96m0 42.96c.22-14.69-.04-29.99 0-42.96" stroke="#000" stroke-width="4" fill="none"/></g><text x="7" font-family="Helvetica, Segoe UI Emoji" font-size="28" fill="#1e1e1e" text-anchor="middle" style="white-space:pre" dominant-baseline="text-before-edge" transform="translate(64.169 230.869)">z</text><g stroke-linecap="round"><path d="m91.591 225.458 40.4-.52.68 43.5-40.64-.49" stroke-width="0" fill="#a5d8ff"/><path d="M91.511 225.488c13.69.39 27.44-.49 40.58 0m-40.58 0c16.15-.17 31.95-.05 40.58 0m0 0c-.35 14.53-.14 28.49 0 42.96m0-42.96c.23 14.3-.08 27.89 0 42.96m0 0c-16.43-.22-32.37.31-40.58 0m40.58 0c-15.2.11-29.7.17-40.58 0m0 0c-.61-17.36.25-33.79 0-42.96m0 42.96c-.08-14.71.02-28.87 0-42.96" stroke="#000" stroke-width="4" fill="none"/></g><text x="7" font-family="Helvetica, Segoe UI Emoji" font-size="28" fill="#1e1e1e" text-anchor="middle" style="white-space:pre" dominant-baseline="text-before-edge" transform="translate(104.799 230.869)">z</text><g stroke-linecap="round"><path d="m50.576 9.35 40.75.98.17 42.48-40.01-.29" stroke-width="0" fill="#ffc9c9"/><path d="M50.876 10c14.07.39 29 .43 40.58 0m-40.58 0c11.09.16 22.83.2 40.58 0m0 0c.05 12.43.55 25.38 0 42.96m0-42.96c-.1 10.16.13 19.68 0 42.96m0 0c-12.65.08-25.16-.14-40.58 0m40.58 0c-14.29 0-28.22-.02-40.58 0m0 0c-.33-11.02-.19-22.28 0-42.96m0 42.96c-.07-9.65-.21-19.56 0-42.96" stroke="#000" stroke-width="4" fill="none"/></g><text x="7" font-family="Helvetica, Segoe UI Emoji" font-size="28" fill="#1e1e1e" text-anchor="middle" style="white-space:pre" dominant-baseline="text-before-edge" transform="translate(64.164 15.38)">z</text><g stroke-linecap="round"><path d="m91.386 10.33 40.74-.49.57 42.68-41.48.26" stroke-width="0" fill="#ffc9c9"/><path d="M91.506 10c9.98.28 19.18-.58 40.58 0m-40.58 0c10.37.1 20.29.23 40.58 0m0 0c.42 10.23-.48 19.1 0 42.96m0-42.96c.17 15.26.01 31.06 0 42.96m0 0c-14.78-.23-29.23-.64-40.58 0m40.58 0c-14.9-.14-29.83.02-40.58 0m0 0c-.1-12.29-.42-23.66 0-42.96m0 42.96c-.19-13.07-.11-26.52 0-42.96" stroke="#000" stroke-width="4" fill="none"/></g><text x="7" font-family="Helvetica, Segoe UI Emoji" font-size="28" fill="#1e1e1e" text-anchor="middle" style="white-space:pre" dominant-baseline="text-before-edge" transform="translate(104.793 15.38)">z</text><g stroke-linecap="round"><path d="M69.123 118.859s0 0 0 0m0 0s0 0 0 0" stroke="#ffec99" stroke-width="2" fill="none"/><path d="M70.283 118.279c.3.01.63.21.87.47.25.27.56.79.61 1.12.06.34-.09.61-.29.89-.19.27-.5.66-.85.76-.35.1-.91.01-1.24-.14-.34-.16-.64-.49-.77-.77s-.12-.62-.03-.92c.1-.31.36-.7.61-.91.26-.2.74-.27.93-.33.19-.07.18-.06.2-.04m-.36-.3c.31-.07.64.04.96.3.32.25.85.85.98 1.24.12.4-.02.85-.23 1.13-.21.28-.73.44-1.03.57-.29.12-.44.28-.76.17-.31-.1-.93-.55-1.13-.81-.2-.26-.11-.37-.07-.73.04-.36.1-1.14.31-1.42.21-.27.79-.23.97-.23.17-.01.11.18.1.2" stroke="#e03131" stroke-width="4" fill="none"/></g></svg>