<svg xmlns="http://www.w3.org/2000/svg" viewBox="0 0 264.97 280.256" width="529.941" height="560.512"><defs><style>@font-face{font-family:&quot;Virgil&quot;;src:url(https://excalidraw.com/Virgil.woff2)}@font-face{font-family:&quot;Cascadia&quot;;src:url(https://excalidraw.com/Cascadia.woff2)}</style></defs><path fill="#fff" d="M0 0h264.97v280.256H0z"/><g stroke-linecap="round"><path d="m10.86 8.3 82.06 2.74-1.81 84.09-81.1 2.96" stroke-width="0" fill="#ced4da"/><path d="M10 10c24.41-1.13 53.69-1.14 81.62 0M10 10c20.01-.56 39.59.27 81.62 0m0 0c-2.25 27.76.82 55.79 0 86.42m0-86.42c-.92 29.45-1.38 60.29 0 86.42m0 0c-32.35-1.53-65.91.67-81.62 0m81.62 0c-21.27-.14-42.3-.87-81.62 0m0 0C8.52 76.08 11.13 53.88 10 10m0 86.42c-.22-31.81.05-60.88 0-86.42" stroke="#1e1e1e" stroke-width="4" fill="none"/></g><g stroke-linecap="round"><path d="m92.92 11.04 79.81-2.33.52 89.66-81.35-2.38" stroke-width="0" fill="#ced4da"/><path d="M91.62 10c32.95-.27 61.58 1.47 81.62 0m-81.62 0c23.23.71 46.89-.1 81.62 0m0 0c.65 27.53.29 52.06 0 86.7m0-86.7c-1.14 27.61.65 56.04 0 86.7m0 0c-25.75.03-50.11-1.09-81.62 0m81.62 0c-24.49-.9-48.54-.62-81.62 0m0 0c1.51-25.08 2-51.35 0-86.7m0 86.7c.14-19.28 1.29-41.39 0-86.7" stroke="#1e1e1e" stroke-width="4" fill="none"/></g><text x="12.999" font-family="Helvetica, Segoe UI Emoji" font-size="36" fill="#1e1e1e" text-anchor="middle" style="white-space:pre" dominant-baseline="text-before-edge" transform="translate(119.431 32.651)">w</text><g stroke-linecap="round"><path d="m173.36 11.67 81.89-2.38.06 86.27-83.27 1.08" stroke-width="0" fill="#ced4da"/><path d="M173.35 10c22.36-.24 43.92-.78 81.62 0m-81.62 0c25.88-.31 51.76 1.22 81.62 0m0 0c.91 28.89-1.37 57.59 0 86.42m0-86.42c.85 22.29.06 43.97 0 86.42m0 0c-27.3-.94-54.55-1.19-81.62 0m81.62 0c-17.9-1.41-35.13-.11-81.62 0m0 0c-1.82-26.59-2.26-50.66 0-86.42m0 86.42c.28-34-.63-69.68 0-86.42" stroke="#1e1e1e" stroke-width="4" fill="none"/></g><g stroke-linecap="round"><path d="m10.28 96.207 81.68-.15-1.65 87.01-82.25-.12" stroke-width="0" fill="#ced4da"/><path d="M10 96.917c28.41-.37 59.82.24 81.62 0m-81.62 0c19.34 1.38 38.82 1.2 81.62 0m0 0c-1.61 18.59-.65 42.41 0 85.93m0-85.93c-.76 25.02.34 50.74 0 85.93m0 0c-22.8-1.31-46.87-1.42-81.62 0m81.62 0c-19.67-.46-40.27-.21-81.62 0m0 0c-1.19-19.53 2.56-35.32 0-85.93m0 85.93c-.82-19.11-.56-36.11 0-85.93" stroke="#1e1e1e" stroke-width="4" fill="none"/></g><text x="12.999" font-family="Helvetica, Segoe UI Emoji" font-size="36" fill="#1e1e1e" text-anchor="middle" style="white-space:pre" dominant-baseline="text-before-edge" transform="translate(37.811 119.184)">w</text><g stroke-linecap="round"><path d="m90.31 97.137 80.99-.12 3.2 86.45-81.88.49" stroke-width="0" fill="#ced4da"/><path d="M91.62 96.917c22.14.01 45.19.14 81.62 0m-81.62 0c29.47-.19 59.86-1.32 81.62 0m0 0c-.41 18.84-.33 36.07 0 86.42m0-86.42c.06 20.97-.09 41.96 0 86.42m0 0c-21.47-.74-42.72.33-81.62 0m81.62 0c-28.09-.19-55.37-.4-81.62 0m0 0c-2.56-18.4.18-39.91 0-86.42m0 86.42c.14-20.72.17-41.17 0-86.42" stroke="#1e1e1e" stroke-width="4" fill="none"/></g><text x="10.011" font-family="Helvetica, Segoe UI Emoji" font-size="36" fill="#1e1e1e" text-anchor="middle" style="white-space:pre" dominant-baseline="text-before-edge" transform="translate(122.42 119.428)">1</text><g stroke-linecap="round"><path d="m174.61 97.047 81.36.49-1.34 83.83-82.15 2.13" stroke-width="0" fill="#ced4da"/><path d="M173.35 96.917c26.49.74 51.25-1.41 81.62 0m-81.62 0c25.56.32 53.74.72 81.62 0m0 0c-1.12 26.72-.86 51.66 0 86.42m0-86.42c-.83 24.58-.88 50.26 0 86.42m0 0c-22.67.01-45.5-1.47-81.62 0m81.62 0c-19.8.28-37.74-1.56-81.62 0m0 0c-1.74-31.55 1.22-62.83 0-86.42m0 86.42c-.8-22.73-1.12-45.63 0-86.42" stroke="#1e1e1e" stroke-width="4" fill="none"/></g><text x="12.999" font-family="Helvetica, Segoe UI Emoji" font-size="36" fill="#1e1e1e" text-anchor="middle" style="white-space:pre" dominant-baseline="text-before-edge" transform="translate(201.161 119.428)">w</text><g stroke-linecap="round"><path d="m9.66 181.865 81.09 2.13 1.48 85.6-83.77.27" stroke-width="0" fill="#ced4da"/><path d="M10 183.835c28.44-.2 54.14-1.12 81.62 0m-81.62 0c21.05.04 41.29-.55 81.62 0m0 0c-.5 28.03-.57 56.55 0 86.42m0-86.42c-.62 17.83-.09 37.94 0 86.42m0 0c-24.57-2.71-48.24-2.17-81.62 0m81.62 0c-31.95-.17-65.46-1.34-81.62 0m0 0c-1.44-25.62-1.58-53.25 0-86.42m0 86.42c1.47-26.81 1.34-53.45 0-86.42" stroke="#1e1e1e" stroke-width="4" fill="none"/></g><g stroke-linecap="round"><path d="m90.75 183.995 83.1-.82-2.15 86.69-80.12 2.29" stroke-width="0" fill="#ced4da"/><path d="M91.62 183.835c17.41-1.35 37.6 2.23 81.62 0m-81.62 0c23.53-.58 48.94-.46 81.62 0m0 0c-.24 22.94-1.7 46.77 0 86.42m0-86.42c.27 21.57-.27 43.06 0 86.42m0 0c-18.94-2.25-32.37.05-81.62 0m81.62 0c-17.8-.22-35.09 1.26-81.62 0m0 0c-.55-28.44.53-56.21 0-86.42m0 86.42c-.04-26.05-.72-53.7 0-86.42" stroke="#1e1e1e" stroke-width="4" fill="none"/></g><text x="12.999" font-family="Helvetica, Segoe UI Emoji" font-size="36" fill="#1e1e1e" text-anchor="middle" style="white-space:pre" dominant-baseline="text-before-edge" transform="translate(119.431 206.345)">w</text><g stroke-linecap="round"><path d="m171.81 183.435 83.12 2.3-.82 83.76-80.13 2.69" stroke-width="0" fill="#ced4da"/><path d="M173.35 183.835c17.72-.76 35.56-2.34 81.62 0m-81.62 0c19.63.3 39.35.26 81.62 0m0 0c-1.8 21.3-2.66 43.95 0 86.42m0-86.42c-1.03 28.13-1.12 56.7 0 86.42m0 0c-20.31 1.65-36.17-.16-81.62 0m81.62 0c-19.1.33-38.3.25-81.62 0m0 0c0-18.99.03-39.5 0-86.42m0 86.42c-.29-28.51.45-57.51 0-86.42" stroke="#1e1e1e" stroke-width="4" fill="none"/></g></svg>