<svg xmlns="http://www.w3.org/2000/svg" viewBox="0 0 1283.564 287.014" width="2567.128" height="574.029"><defs><style>@font-face{font-family:&quot;Virgil&quot;;src:url(https://excalidraw.com/Virgil.woff2)}@font-face{font-family:&quot;Cascadia&quot;;src:url(https://excalidraw.com/Cascadia.woff2)}</style></defs><path fill="#fff" d="M0 0h1283.564v287.014H0z"/><g stroke-linecap="round"><path d="m303.496 15.338 81.89-.12-.18 88.72-81.97.36" stroke-width="0" fill="#ced4da"/><path d="M304.806 16.758c23.6 1.14 45.78.78 81.62 0m-81.62 0c26.05-.39 50.98.94 81.62 0m0 0c-.03 22.22.8 45.84 0 86.7m0-86.7c-.76 29.54-.25 57.5 0 86.7m0 0c-22.08-.73-45.15 0-81.62 0m81.62 0c-23.6 1.02-48.13-.04-81.62 0m0 0c-1.37-27.26 2.34-53.79 0-86.7m0 86.7c.12-34.71-.07-69.65 0-86.7" stroke="#1e1e1e" stroke-width="4" fill="none"/></g><text x="10.011" font-family="Helvetica, Segoe UI Emoji" font-size="36" fill="#1e1e1e" text-anchor="middle" style="white-space:pre" dominant-baseline="text-before-edge" transform="translate(335.606 39.41)">b</text><g stroke-linecap="round"><path d="m221.616 104.516 82.46.47 1.69 83.65-81.98-.69" stroke-width="0" fill="#ced4da"/><path d="M223.186 103.676c26.29 1.18 51.8.87 81.62 0m-81.62 0c31.24 1.08 63.72 1.49 81.62 0m0 0c-.11 21.51 1.33 44.62 0 85.93m0-85.93c.15 21.11-.77 41.72 0 85.93m0 0c-22.14.92-45.11.32-81.62 0m81.62 0c-20.03-1.41-41.96.45-81.62 0m0 0c-1.54-21.29-1.4-42.91 0-85.93m0 85.93c.05-19.69-.04-37.6 0-85.93" stroke="#1e1e1e" stroke-width="4" fill="none"/></g><text x="10.011" font-family="Helvetica, Segoe UI Emoji" font-size="36" fill="#1e1e1e" text-anchor="middle" style="white-space:pre" dominant-baseline="text-before-edge" transform="translate(253.986 125.942)">d</text><g stroke-linecap="round"><path d="m305.766 102.706 81.26-.7 1.34 88.67-84.96-.66" stroke-width="0" fill="#868e96"/><path d="M304.806 103.676c34.31-1.28 63.11-2.47 81.62 0m-81.62 0c27.01-.29 54.34-.84 81.62 0m0 0c-.65 22.88-1.5 47.68 0 86.42m0-86.42c-.62 26.36-.87 53.28 0 86.42m0 0c-30.54.35-60.4 1.72-81.62 0m81.62 0c-17.37 1.72-33.84.4-81.62 0m0 0c-1.35-27.01-1.17-52.44 0-86.42m0 86.42c-.26-18.85.16-37.89 0-86.42" stroke="#1e1e1e" stroke-width="4" fill="none"/></g><text x="10.011" font-family="Helvetica, Segoe UI Emoji" font-size="36" fill="#1e1e1e" text-anchor="middle" style="white-space:pre" dominant-baseline="text-before-edge" transform="translate(335.606 126.186)">e</text><g stroke-linecap="round"><path d="m388.477 104.256 78.28-.66.58 87.66-82.28-1.63" stroke-width="0" fill="#868e96"/><path d="M386.537 103.676c22.71-.4 45.52-.13 81.62 0m-81.62 0c27.03.68 54.86-.38 81.62 0m0 0c-.73 22.44-1.62 46.65 0 86.42m0-86.42c.27 26.26-.03 50.86 0 86.42m0 0c-26.7-.31-47.81-.46-81.62 0m81.62 0c-32.43-.57-65.03-1.09-81.62 0m0 0c-.93-21.46 1.09-42.06 0-86.42m0 86.42c.79-30.05.61-59.97 0-86.42" stroke="#1e1e1e" stroke-width="4" fill="none"/></g><text x="5.001" font-family="Helvetica, Segoe UI Emoji" font-size="36" fill="#1e1e1e" text-anchor="middle" style="white-space:pre" dominant-baseline="text-before-edge" transform="translate(422.346 126.186)">f</text><g stroke-linecap="round"><path d="m303.326 190.123 81.97-1 2.17 89.61-81.03-3.17" stroke-width="0" fill="#868e96"/><path d="M304.806 190.593c20.57-.13 42.98.89 81.62 0m-81.62 0c20.39.85 39.47.4 81.62 0m0 0c.99 25.78 1.19 49.71 0 86.42m0-86.42c.76 21.04-.41 44.87 0 86.42m0 0c-20.88-.18-40.92-.56-81.62 0m81.62 0c-18.49-1.35-36.55-.34-81.62 0m0 0c.94-18.18-1.34-37.69 0-86.42m0 86.42c-1.54-18.76-1.25-36.86 0-86.42" stroke="#1e1e1e" stroke-width="4" fill="none"/></g><text x="3.999" font-family="Helvetica, Segoe UI Emoji" font-size="36" fill="#1e1e1e" text-anchor="middle" style="white-space:pre" dominant-baseline="text-before-edge" transform="translate(341.617 213.104)">i</text><g stroke-linecap="round"><path d="m941.44 8.33 79.6 2.63 3.76 85.89-84.92-1.78" stroke-width="0" fill="#ced4da"/><path d="M941.4 10c19.95 1.87 39.33-1.51 81.62 0m-81.62 0c16.15-.47 33.17-.04 81.62 0m0 0c1.64 26.99 2.3 54.76 0 86.7m0-86.7c.48 29.45.54 59.65 0 86.7m0 0c-29.58-.45-58.71.14-81.62 0m81.62 0c-19.1 1.32-40.82.82-81.62 0m0 0c2.5-31.48.6-65.45 0-86.7m0 86.7c.19-29.07-.2-58.94 0-86.7" stroke="#1e1e1e" stroke-width="4" fill="none"/></g><text x="10.011" font-family="Helvetica, Segoe UI Emoji" font-size="36" fill="#1e1e1e" text-anchor="middle" style="white-space:pre" dominant-baseline="text-before-edge" transform="translate(972.2 32.651)">b</text><g stroke-linecap="round"><path d="m861.56 97.067 78.32-1.78 3.26 89.03-81.93.44" stroke-width="0" fill="#ced4da"/><path d="M859.78 96.917c30.59 1.03 67.09-.06 81.62 0m-81.62 0c27.36.18 55.33-.16 81.62 0m0 0c1.63 27.92-.5 56.4 0 85.93m0-85.93c1.13 21 .84 40.67 0 85.93m0 0c-22.32.87-40.61 1.82-81.62 0m81.62 0c-28.35-.65-58.55.99-81.62 0m0 0c.8-28.26 1.32-55.75 0-85.93m0 85.93c.32-30.12-.69-58.1 0-85.93" stroke="#1e1e1e" stroke-width="4" fill="none"/></g><text x="10.011" font-family="Helvetica, Segoe UI Emoji" font-size="36" fill="#1e1e1e" text-anchor="middle" style="white-space:pre" dominant-baseline="text-before-edge" transform="translate(890.579 119.184)">d</text><g stroke-linecap="round"><path d="m943.14 98.387 81.31.44-1.94 84.41-81.39-1.26" stroke-width="0" fill="#868e96"/><path d="M941.4 96.917c27.04.76 54.22.37 81.62 0m-81.62 0c31.31.41 63.02.09 81.62 0m0 0c-1.82 27.5-1.64 54.5 0 86.42m0-86.42c-.03 34.34.26 66.15 0 86.42m0 0c-27.24-.65-56.62 2.15-81.62 0m81.62 0c-18.52.77-38.29 1.17-81.62 0m0 0c.25-25.09-.54-48.74 0-86.42m0 86.42c1.74-18.65.1-38.27 0-86.42" stroke="#1e1e1e" stroke-width="4" fill="none"/></g><text x="10.011" font-family="Helvetica, Segoe UI Emoji" font-size="36" fill="#1e1e1e" text-anchor="middle" style="white-space:pre" dominant-baseline="text-before-edge" transform="translate(972.2 119.428)">e</text><g stroke-linecap="round"><path d="m1022.62 96.817 81.85-1.26-.06 89.25-80.98-2.42" stroke-width="0" fill="#868e96"/><path d="M1023.13 96.917c28.15 1.4 54 .42 81.62 0m-81.62 0c31.07-.98 62.42-1.04 81.62 0m0 0c1.23 30.93.28 59.37 0 86.42m0-86.42c.38 35.45.86 69.6 0 86.42m0 0c-20.06-.38-35.42 1.06-81.62 0m81.62 0c-24.62.99-48.85.74-81.62 0m0 0c-1.68-24.86.95-43.99 0-86.42m0 86.42c1.53-25.84 1.37-52.19 0-86.42" stroke="#1e1e1e" stroke-width="4" fill="none"/></g><text x="5.001" font-family="Helvetica, Segoe UI Emoji" font-size="36" fill="#1e1e1e" text-anchor="middle" style="white-space:pre" dominant-baseline="text-before-edge" transform="translate(1058.94 119.428)">f</text><g stroke-linecap="round"><path d="m941.06 185.305 82.26-2.42 1.7 85.96-85.42.41" stroke-width="0" fill="#868e96"/><path d="M941.4 183.835c31.98 1.53 61.72-.05 81.62 0m-81.62 0c20.14-.03 40.03 1.39 81.62 0m0 0c2.32 29.36-.75 60.09 0 86.42m0-86.42c.11 34.03 1.51 67.25 0 86.42m0 0c-20.66-1.3-40.5-.15-81.62 0m81.62 0c-30.22.35-59.72-.5-81.62 0m0 0c-.26-18.89-2.05-33.01 0-86.42m0 86.42c-.88-32.32-.76-65.23 0-86.42" stroke="#1e1e1e" stroke-width="4" fill="none"/></g><text x="3.999" font-family="Helvetica, Segoe UI Emoji" font-size="36" fill="#1e1e1e" text-anchor="middle" style="white-space:pre" dominant-baseline="text-before-edge" transform="translate(978.21 206.345)">i</text><text x="78.521" font-family="Helvetica, Segoe UI Emoji" font-size="36" fill="#1e1e1e" text-anchor="middle" style="white-space:pre" dominant-baseline="text-before-edge" transform="translate(10 124.431)">Min = min</text><text font-family="Helvetica, Segoe UI Emoji" font-size="167.944" fill="#1e1e1e" style="white-space:pre" dominant-baseline="text-before-edge" transform="translate(73.574 38.099)">（</text><text font-family="Helvetica, Segoe UI Emoji" font-size="167.944" fill="#1e1e1e" style="white-space:pre" dominant-baseline="text-before-edge" transform="translate(704.044 34.84)">（</text><text font-family="Helvetica, Segoe UI Emoji" font-size="167.944" fill="#1e1e1e" style="white-space:pre" dominant-baseline="text-before-edge" transform="translate(460.09 36.366)">）</text><text x="88.523" font-family="Helvetica, Segoe UI Emoji" font-size="36" fill="#1e1e1e" text-anchor="middle" style="white-space:pre" dominant-baseline="text-before-edge" transform="translate(623.083 119.864)">Max = max</text><text font-family="Helvetica, Segoe UI Emoji" font-size="167.944" fill="#1e1e1e" style="white-space:pre" dominant-baseline="text-before-edge" transform="translate(1105.624 33.096)">）</text></svg>