<svg xmlns="http://www.w3.org/2000/svg" viewBox="0 0 605.478 282.036" width="1210.956" height="564.072"><defs><style>@font-face{font-family:&quot;Virgil&quot;;src:url(https://excalidraw.com/Virgil.woff2)}@font-face{font-family:&quot;Cascadia&quot;;src:url(https://excalidraw.com/Cascadia.woff2)}</style></defs><path fill="#fff" d="M0 0h605.478v282.036H0z"/><path d="M10 10c27.93-.33 55.25-1.05 81.62 0M10 10c31.69.4 62.61.54 81.62 0m0 0c-.55 20.75-.09 42.81 0 86.42m0-86.42c.17 32.83.63 66.85 0 86.42m0 0c-27.95-.02-60.59 1.23-81.62 0m81.62 0c-22.8-.07-47.32.31-81.62 0m0 0C9.1 74.83 8.23 54.07 10 10m0 86.42c-.58-30-.82-59.89 0-86.42" stroke="#000" stroke-width="4" fill="none" stroke-linecap="round"/><path d="M91.62 10c15.75-1.34 36.6-1.46 81.62 0m-81.62 0c17.31.07 33.12.59 81.62 0m0 0c-.69 22.41 1.32 49.39 0 86.7m0-86.7c-.22 29.07.32 57.37 0 86.7m0 0c-22.82 1.64-43.34 1.46-81.62 0m81.62 0c-28.91-.43-56.98.45-81.62 0m0 0c-.98-22.85.92-42.64 0-86.7m0 86.7c-.25-29.67-.02-58.42 0-86.7" stroke="#000" stroke-width="4" fill="none" stroke-linecap="round"/><text x="16.005" font-family="Helvetica, Segoe UI Emoji" font-size="36" fill="#1971c2" text-anchor="middle" style="white-space:pre" dominant-baseline="text-before-edge" transform="translate(116.425 32.651)">-1</text><path d="M173.35 10c21.91-1.16 38.71 2.02 81.62 0m-81.62 0c21.04.47 42.71-.21 81.62 0m0 0c1.52 20.77.41 38.34 0 86.42m0-86.42c.71 24-.28 47.86 0 86.42m0 0c-25.9 1.96-50.32 1.61-81.62 0m81.62 0c-21.45.76-42.16-.15-81.62 0m0 0c1.29-20.92 1.11-44.39 0-86.42m0 86.42c.19-22.58-.21-42.93 0-86.42M10 96.917c15.44 2.07 33.92 1.84 81.62 0m-81.62 0c22.41-.63 44.52-.41 81.62 0m0 0c1.28 18.02.16 37.68 0 86.42m0-86.42c.18 32.23.68 62.13 0 86.42m0 0c-29.8 1.54-62.3-.9-81.62 0m81.62 0c-24.43.56-48.36.13-81.62 0m0 0c.29-22.07-1.31-44.55 0-86.42m0 86.42c-.41-17.93-.75-37.75 0-86.42" stroke="#000" stroke-width="4" fill="none" stroke-linecap="round"/><text x="16.005" font-family="Helvetica, Segoe UI Emoji" font-size="36" fill="#1971c2" text-anchor="middle" style="white-space:pre" dominant-baseline="text-before-edge" transform="translate(34.805 119.428)">-1</text><path d="M91.62 96.917c16.07.54 33.17-1.39 81.62 0m-81.62 0c26.09.15 52.83 1.16 81.62 0m0 0c-.32 31.47 1.51 63.84 0 86.42m0-86.42c-.18 29.55.45 60.25 0 86.42m0 0c-30.85-1.04-60.04-.8-81.62 0m81.62 0c-31.56-.61-62.7.34-81.62 0m0 0c-1.23-31.83-1.97-62.64 0-86.42m0 86.42c-.4-19.78.71-37.92 0-86.42" stroke="#000" stroke-width="4" fill="none" stroke-linecap="round"/><text x="10.011" font-family="Helvetica, Segoe UI Emoji" font-size="36" fill="#1971c2" text-anchor="middle" style="white-space:pre" dominant-baseline="text-before-edge" transform="translate(122.42 119.428)">4</text><path d="M173.35 96.917c29.35-1.29 60.19-.88 81.62 0m-81.62 0c20.41.97 43.09.42 81.62 0m0 0c1.02 24.06.75 44.86 0 86.42m0-86.42c.88 33.1.79 66.94 0 86.42m0 0c-28.65-1.8-55.42-1.53-81.62 0m81.62 0c-24.12-.02-46.72-.11-81.62 0m0 0c-1.28-25.68-1.12-52.04 0-86.42m0 86.42c1.01-31.34.66-63.72 0-86.42" stroke="#000" stroke-width="4" fill="none" stroke-linecap="round"/><text x="16.005" font-family="Helvetica, Segoe UI Emoji" font-size="36" fill="#1971c2" text-anchor="middle" style="white-space:pre" dominant-baseline="text-before-edge" transform="translate(198.155 119.428)">-1</text><path d="M10 183.835c29.44-.1 56.94-1.13 81.62 0m-81.62 0c23.71-.4 45.82-.96 81.62 0m0 0c1.54 25.98 2.24 53.68 0 86.42m0-86.42c1.33 20.77 1.15 40.19 0 86.42m0 0c-16.94-1.43-37.34-1.36-81.62 0m81.62 0c-19.53.67-40.34-.13-81.62 0m0 0c-.8-24.37 2.14-48.52 0-86.42m0 86.42c-.31-21.44-.48-43.78 0-86.42" stroke="#000" stroke-width="4" fill="none" stroke-linecap="round"/><path d="M91.62 183.835c20.2-1.3 41.66-1.48 81.62 0m-81.62 0c30.91-.51 62.63.4 81.62 0m0 0c2.12 31.66-.87 64.3 0 86.42m0-86.42c1.07 24.22-.15 49.27 0 86.42m0 0c-19.77-1.26-40.2-1.29-81.62 0m81.62 0c-27.92-.21-56.05-.58-81.62 0m0 0c2.07-27.03-.3-50.22 0-86.42m0 86.42c-.17-32.06-.97-64.09 0-86.42" stroke="#000" stroke-width="4" fill="none" stroke-linecap="round"/><text x="16.005" font-family="Helvetica, Segoe UI Emoji" font-size="36" fill="#1971c2" text-anchor="middle" style="white-space:pre" dominant-baseline="text-before-edge" transform="translate(116.425 206.345)">-1</text><path d="M173.35 183.835c22.32-1.06 46.99 1.84 81.62 0m-81.62 0c26.86.86 54.17.72 81.62 0m0 0c-.57 24.32.44 46.93 0 86.42m0-86.42c-.3 29.78-.17 60.5 0 86.42m0 0c-21.72-1.27-40.47.88-81.62 0m81.62 0c-27.42-1.23-54.33-1.15-81.62 0m0 0c-1.57-21.33.76-44.02 0-86.42m0 86.42c-.82-29.19-.57-57.92 0-86.42M350.508 11.78c20.49-1.47 38.77-.96 81.62 0m-81.62 0c22.22-.22 44.95-.64 81.62 0m0 0c2.07 33.52 2.37 62.14 0 86.42m0-86.42c-.32 23.01-.24 46.64 0 86.42m0 0c-23.1.65-42.43-.62-81.62 0m81.62 0c-25.72 1.25-50.29 1.01-81.62 0m0 0c-1.15-25.7.71-54.67 0-86.42m0 86.42c-.04-26.51-.66-53.2 0-86.42" stroke="#000" stroke-width="4" fill="none" stroke-linecap="round"/><path d="M432.128 11.78c22.47-.38 47.98 2.29 81.62 0m-81.62 0c24.8-.44 51.87.97 81.62 0m0 0c2.18 26.7.05 58.46 0 86.7m0-86.7c-1.41 18.57-.99 39.11 0 86.7m0 0c-22.66-.33-48.53-.02-81.62 0m81.62 0c-29.56 1.11-58.97 1.29-81.62 0m0 0c1.54-21.8.32-43.11 0-86.7m0 86.7c-.58-34.7-.44-68.35 0-86.7" stroke="#000" stroke-width="4" fill="none" stroke-linecap="round"/><text x="28.887" font-family="Helvetica, Segoe UI Emoji" font-size="16" fill="#1971c2" text-anchor="middle" style="white-space:pre" dominant-baseline="text-before-edge" transform="translate(444.051 45.931)">Q(x,y-1)</text><path d="M513.858 11.78c20.72-1.97 40.68-2.25 81.62 0m-81.62 0c20.44-.06 41 .09 81.62 0m0 0c-1.77 15.79-1.61 33.34 0 86.42m0-86.42c-.27 18.88.07 39.65 0 86.42m0 0c-20.77-1.25-42.55-.08-81.62 0m81.62 0c-29.07.28-56.36 1.21-81.62 0m0 0c1.81-25.99-.53-53.84 0-86.42m0 86.42c-.29-20.85-.62-40.83 0-86.42M350.508 98.697c31.12-1.04 61.62 1.94 81.62 0m-81.62 0c32.38.27 62.3-.79 81.62 0m0 0c-2.05 29.11-2.17 60.5 0 85.93m0-85.93c.31 30.59-.32 59.58 0 85.93m0 0c-21.8-.42-45.57-.11-81.62 0m81.62 0c-29.22.43-60.06-.19-81.62 0m0 0c-1.29-29.81-2.16-58.69 0-85.93m0 85.93c-.38-23.91 1.23-46.88 0-85.93" stroke="#000" stroke-width="4" fill="none" stroke-linecap="round"/><text x="28.887" font-family="Helvetica, Segoe UI Emoji" font-size="16" fill="#1971c2" text-anchor="middle" style="white-space:pre" dominant-baseline="text-before-edge" transform="translate(362.431 132.464)">Q(x-1,y)</text><path d="M432.128 98.697c19.85.04 37.49.88 81.62 0m-81.62 0c31.6-.56 61.29-.48 81.62 0m0 0c.27 19.68-1.7 40.09 0 86.42m0-86.42c-.41 33.84-.83 67.17 0 86.42m0 0c-23.26-.79-49.81 1.85-81.62 0m81.62 0c-29.4.96-59.28-.21-81.62 0m0 0c-.03-24.04-1.07-47.83 0-86.42m0 86.42c-.65-18.92-.38-37.95 0-86.42" stroke="#000" stroke-width="4" fill="none" stroke-linecap="round"/><text x="21.773" font-family="Helvetica, Segoe UI Emoji" font-size="16" fill="#1971c2" text-anchor="middle" style="white-space:pre" dominant-baseline="text-before-edge" transform="translate(451.165 132.708)">Q(x,y)</text><path d="M513.858 98.697c28.6-2.57 53.47.51 81.62 0m-81.62 0c17.47-.19 36.09 1.03 81.62 0m0 0c1.24 25.17-.29 51.26 0 86.42m0-86.42c-.47 31.82-.32 63.31 0 86.42m0 0c-19.37.85-41.26 1.49-81.62 0m81.62 0c-32.35-.88-64.23-.51-81.62 0m0 0c-.86-20.4-.56-44.05 0-86.42m0 86.42c.59-28.63.51-55.54 0-86.42" stroke="#000" stroke-width="4" fill="none" stroke-linecap="round"/><text x="32.902" font-family="Helvetica, Segoe UI Emoji" font-size="16" fill="#1971c2" text-anchor="middle" style="white-space:pre" dominant-baseline="text-before-edge" transform="translate(521.766 123.508)">Q(x+1,y+</text><text x="32.902" y="18.4" font-family="Helvetica, Segoe UI Emoji" font-size="16" fill="#1971c2" text-anchor="middle" style="white-space:pre" dominant-baseline="text-before-edge" transform="translate(521.766 123.508)">1)</text><path d="M350.508 185.615c14.88-2.06 31.46-1.89 81.62 0m-81.62 0c18.31-.9 36.98.47 81.62 0m0 0c1.32 22.19 1.56 46.67 0 86.42m0-86.42c-.32 30.01 1 61.23 0 86.42m0 0c-23.28.93-50.74-.32-81.62 0m81.62 0c-19.35-1.08-38.58-1.04-81.62 0m0 0c.97-32.59 1.15-64.81 0-86.42m0 86.42c-1.54-17.3.27-36.6 0-86.42" stroke="#000" stroke-width="4" fill="none" stroke-linecap="round"/><path d="M432.128 185.615c27.63-.78 56.52.06 81.62 0m-81.62 0c28.59 1.27 56.21.51 81.62 0m0 0c2.03 24.7 1.55 49.67 0 86.42m0-86.42c.45 32.49-.33 63.72 0 86.42m0 0c-28.2-.39-56.79-.09-81.62 0m81.62 0c-22.73-1.46-43.08-1.31-81.62 0m0 0c.42-24.86-1.98-51.67 0-86.42m0 86.42c1.7-25.51.07-49.47 0-86.42" stroke="#000" stroke-width="4" fill="none" stroke-linecap="round"/><text x="30.895" font-family="Helvetica, Segoe UI Emoji" font-size="16" fill="#1971c2" text-anchor="middle" style="white-space:pre" dominant-baseline="text-before-edge" transform="translate(442.043 219.626)">Q(x,y+1)</text><path d="M513.858 185.615c19.55.21 36.2.9 81.62 0m-81.62 0c31.22.56 62.17.68 81.62 0m0 0c1.8 25.14-.12 53.86 0 86.42m0-86.42c.46 32.47.37 62.85 0 86.42m0 0c-22.48-1.02-45.39-1.67-81.62 0m81.62 0c-17.98-.31-35.77-.22-81.62 0m0 0c.61-35.34 2.45-65.38 0-86.42m0 86.42c.08-22.55 1.44-46.95 0-86.42" stroke="#000" stroke-width="4" fill="none" stroke-linecap="round"/></svg>