<?xml version="1.0" standalone="no"?><!DOCTYPE svg PUBLIC "-//W3C//DTD SVG 1.1//EN" "http://www.w3.org/Graphics/SVG/1.1/DTD/svg11.dtd"><svg xmlns:xlink="http://www.w3.org/1999/xlink" version="1.1" class="highcharts-root" style="font-family: &quot;Lucida Grande&quot;, &quot;Lucida Sans Unicode&quot;, Arial, Helvetica, sans-serif; font-size: 12px;" xmlns="http://www.w3.org/2000/svg" width="600" height="400" viewBox="0 0 600 400"><desc>Created with Highcharts 10.0.0</desc><defs><clipPath id="highcharts-x9pimvm-278-"><rect x="0" y="0" width="580" height="337" fill="none"></rect></clipPath><clipPath id="highcharts-x9pimvm-351-"><rect x="0" y="0" width="899.9092156207962" height="143.225" fill="none"></rect></clipPath><clipPath id="highcharts-x9pimvm-352"><circle cx="290" cy="168.5" r="143.225"></circle></clipPath><clipPath id="highcharts-x9pimvm-425"><circle cx="290" cy="168.5" r="143.225"></circle></clipPath><clipPath id="highcharts-x9pimvm-498"><circle cx="290" cy="168.5" r="143.225"></circle></clipPath></defs><rect fill="#ffffff" class="highcharts-background" x="0" y="0" width="600" height="400" rx="0" ry="0"></rect><rect fill="none" class="highcharts-plot-background" x="10" y="10" width="580" height="337"></rect><g class="highcharts-pane-group" data-z-index="0"></g><g class="highcharts-grid highcharts-xaxis-grid highcharts-radial-axis-grid" data-z-index="1"><path fill="none" stroke="#e6e6e6" stroke-width="1" stroke-dasharray="none" data-z-index="1" class="highcharts-grid-line" d="M 300 178.5 L 443.225 178.5" opacity="1"></path><path fill="none" stroke="#e6e6e6" stroke-width="1" stroke-dasharray="none" data-z-index="1" class="highcharts-grid-line" d="M 300 178.5 L 401.2753687354433 279.77536873544324" opacity="1"></path><path fill="none" stroke="#e6e6e6" stroke-width="1" stroke-dasharray="none" data-z-index="1" class="highcharts-grid-line" d="M 300 178.5 L 300 321.725" opacity="1"></path><path fill="none" stroke="#e6e6e6" stroke-width="1" stroke-dasharray="none" data-z-index="1" class="highcharts-grid-line" d="M 300 178.5 L 198.72463126455676 279.7753687354433" opacity="1"></path><path fill="none" stroke="#e6e6e6" stroke-width="1" stroke-dasharray="none" data-z-index="1" class="highcharts-grid-line" d="M 300 178.5 L 156.775 178.50000000000003" opacity="1"></path><path fill="none" stroke="#e6e6e6" stroke-width="1" stroke-dasharray="none" data-z-index="1" class="highcharts-grid-line" d="M 300 178.5 L 198.7246312645567 77.22463126455675" opacity="1"></path><path fill="none" stroke="#e6e6e6" stroke-width="1" stroke-dasharray="none" data-z-index="1" class="highcharts-grid-line" d="M 300 178.5 L 300 35.275000000000006" opacity="1"></path><path fill="none" stroke="#e6e6e6" stroke-width="1" stroke-dasharray="none" data-z-index="1" class="highcharts-grid-line" d="M 300 178.5 L 401.27536873544324 77.2246312645567" opacity="1"></path><path fill="none" stroke="#e6e6e6" stroke-width="1" stroke-dasharray="none" data-z-index="1" class="highcharts-grid-line" d="M 300 178.5 L 443.225 178.49999999999997" opacity="1"></path></g><g class="highcharts-grid highcharts-yaxis-grid highcharts-radial-axis-grid" data-z-index="1"><path fill="none" stroke="#e6e6e6" stroke-width="1" stroke-dasharray="none" data-z-index="1" class="highcharts-grid-line" d="M 300 178.5 A 0 0 0 1 1 300 178.5 M 300 178.5 A 0 0 0 1 0 300 178.5" opacity="1"></path><path fill="none" stroke="#e6e6e6" stroke-width="1" stroke-dasharray="none" data-z-index="1" class="highcharts-grid-line" d="M 371.6125 178.5 A 71.6125 71.6125 0 1 1 371.612464193753 178.42838751193537 M 300 178.5 A 0 0 0 1 0 300 178.5" opacity="1"></path><path fill="none" stroke="#e6e6e6" stroke-width="1" stroke-dasharray="none" data-z-index="1" class="highcharts-grid-line" d="M 443.225 178.5 A 143.225 143.225 0 1 1 443.224928387506 178.35677502387074 M 300 178.5 A 0 0 0 1 0 300 178.5" opacity="1"></path></g><rect fill="none" class="highcharts-plot-border" data-z-index="1" x="10" y="10" width="580" height="337"></rect><g class="highcharts-axis highcharts-xaxis highcharts-radial-axis" data-z-index="2"><path fill="none" class="highcharts-axis-line" stroke="#ccd6eb" stroke-width="1" data-z-index="7" d="M 443.225 178.5 A 143.225 143.225 0 1 1 443.224928387506 178.35677502387074 M 300 178.5 A 0 0 0 1 0 300 178.5"></path></g><g class="highcharts-axis highcharts-yaxis highcharts-radial-axis" data-z-index="2"><path fill="none" class="highcharts-axis-line" data-z-index="7" d="M 300 178.5 L 443.225 178.5"></path></g><g class="highcharts-series-group" data-z-index="3"><g class="highcharts-series highcharts-series-0 highcharts-line-series" data-z-index="0.1" opacity="1" transform="translate(10,10) scale(1 1)" clip-path="url(#highcharts-x9pimvm-352)"><path fill="none" d="M 312.24666160980945 168.5 L 312.07783367739523 170.43156016198293 L 311.57837099091836 172.3048490054357 L 310.7688925333073 174.06500798198846 L 309.68231213348975 175.6637757581269 L 308.36176478529336 177.06223153662302 L 306.85790234055463 178.23291445429166 L 305.22574107992443 179.16117867899246 L 303.5212737155119 179.84569578773304 L 301.798073962294 180.29807396229404 L 300.10412187177906 180.54162354070232 L 298.4790626513008 180.60935642449672 L 296.95208175306544 180.5413588146819 L 295.5405366519839 180.38171919351595 L 294.2494338303306 180.1752234942987 L 293.07178158986676 179.96404496313534 L 291.9897893661382 179.7846562570508 L 290.97682631240497 179.6651758415048 L 289.99999999999994 179.62333080490473 L 289.023173687595 179.66517584150478 L 288.0102106338617 179.7846562570508 L 286.9282184101343 179.96404496313562 L 285.75056616966936 180.17522349429868 L 284.459463348016 180.3817191935159 L 283.0479182469345 180.54135881468184 L 281.52093734869936 180.60935642449687 L 279.89587812822134 180.54162354070263 L 278.2019260377065 180.29807396229455 L 276.47872628448766 179.84569578773255 L 274.7742589200753 179.16117867899206 L 273.1420976594453 178.23291445429155 L 271.63823521470675 177.06223153662327 L 270.31768786651037 175.66377575812734 L 269.231107466693 174.06500798198937 L 268.4216290090815 172.3048490054349 L 267.9221663226047 170.43156016198245 L 267.75333839019055 168.49999999999986 L 267.92216632260477 166.56843983801727 L 268.4216290090816 164.6951509945648 L 269.2311074666925 162.93499201801242 L 270.3176878665105 161.3362242418724 L 271.6382352147068 159.93776846337647 L 273.1420976594455 158.76708554570823 L 274.7742589200754 157.83882132100774 L 276.47872628448783 157.15430421226728 L 278.2019260377055 156.70192603770647 L 279.8958781282215 156.45837645929723 L 281.5209373486995 156.39064357550302 L 283.04791824693467 156.45864118531804 L 284.45946334801613 156.61828080648402 L 285.7505661696695 156.82477650570127 L 286.9282184101333 157.03595503686466 L 288.01021063386185 157.21534374294916 L 289.0231736875951 157.3348241584952 L 290.0000000000001 157.37666919509527 L 290.97682631240514 157.33482415849522 L 291.9897893661384 157.21534374294922 L 293.0717815898658 157.0359550368644 L 294.24943383033076 156.82477650570135 L 295.5405366519841 156.61828080648414 L 296.9520817530656 156.45864118531819 L 298.47906265130075 156.39064357550322 L 300.1041218717787 156.45837645929743 L 301.7980739622936 156.70192603770553 L 303.5212737155124 157.15430421226753 L 305.22574107992483 157.83882132100806 L 306.85790234055474 158.7670855457086 L 308.36176478529336 159.93776846337684 L 309.68231213348963 161.3362242418728 L 310.76889253330705 162.93499201801077 L 311.57837099091853 164.69515099456524 L 312.0778336773953 166.56843983801772 L 312.24666160980945 168.5" class="highcharts-graph" data-z-index="1" stroke="#ff6961" stroke-width="2" stroke-linejoin="round" stroke-linecap="round"></path></g><g class="highcharts-markers highcharts-series-0 highcharts-line-series" data-z-index="0.1" opacity="1" transform="translate(10,10) scale(1 1)" clip-path="none"></g><g class="highcharts-series highcharts-series-1 highcharts-line-series" data-z-index="0.1" opacity="1" transform="translate(10,10) scale(1 1)" clip-path="url(#highcharts-x9pimvm-425)"><path fill="none" d="M 341.9816118160345 168.5 L 341.58712799637726 173.0132888835438 L 340.4200820844825 177.39042084102962 L 338.52865245360124 181.5032132347131 L 335.9897456485767 185.2388984975557 L 332.9041510167794 188.5065341857627 L 329.39022181705377 191.24195516951514 L 325.5765092448342 193.41093995642058 L 321.5938460280338 195.01038454959485 L 317.5674126590935 196.06741265909363 L 313.60931946072884 196.6364912860277 L 309.81220153541636 196.7947561319779 L 306.2442536925107 196.63587272646706 L 302.9460334564961 196.2628583406031 L 299.9292389878744 195.7803599115508 L 297.17753346496215 195.28691956425953 L 294.64934740503554 194.86775941127038 L 292.28245509702606 194.58858113771797 L 289.9999999999999 194.49080590801725 L 287.71754490297377 194.58858113771794 L 285.3506525949643 194.86775941127036 L 282.82246653504035 195.2869195642602 L 280.0707610121254 195.78035991155073 L 277.05396654350375 196.26285834060297 L 273.75574630748906 196.63587272646694 L 270.187798464584 196.79475613197815 L 266.3906805392721 196.6364912860285 L 262.4325873409077 196.0674126590948 L 258.40615397196524 195.01038454959368 L 254.42349075516518 193.41093995641964 L 250.60977818294606 191.24195516951485 L 247.0958489832209 188.50653418576323 L 244.01025435142375 185.2388984975568 L 241.47134754639936 181.5032132347152 L 239.57991791551717 177.39042084102778 L 238.4128720036226 173.01328888354263 L 238.0183881839655 168.49999999999963 L 238.41287200362268 163.98671111645666 L 239.5799179155173 159.60957915897154 L 241.47134754639822 155.496786765289 L 244.01025435142398 151.7611015024426 L 247.09584898322112 148.49346581423617 L 250.60977818294634 145.7580448304846 L 254.42349075516552 143.5890600435799 L 258.4061539719656 141.9896154504059 L 262.4325873409053 140.93258734090756 L 266.3906805392725 140.36350871397119 L 270.1877984645844 140.20524386802157 L 273.75574630748946 140.36412727353283 L 277.0539665435041 140.73714165939685 L 280.0707610121258 141.21964008844915 L 282.822466535038 141.71308043574044 L 285.3506525949647 142.1322405887296 L 287.7175449029741 142.41141886228203 L 290.0000000000003 142.50919409198275 L 292.2824550970264 142.41141886228206 L 294.6493474050359 142.13224058872967 L 297.1775334649598 141.71308043573987 L 299.9292389878748 141.21964008844935 L 302.9460334564964 140.7371416593971 L 306.2442536925111 140.36412727353317 L 309.8122015354162 140.20524386802197 L 313.6093194607281 140.3635087139717 L 317.5674126590925 140.93258734090537 L 321.59384602803493 141.98961545040655 L 325.576509244835 143.58906004358064 L 329.3902218170541 145.7580448304854 L 332.9041510167793 148.49346581423703 L 335.9897456485764 151.76110150244355 L 338.5286524536007 155.49678676528512 L 340.4200820844829 159.60957915897256 L 341.58712799637743 163.9867111164577 L 341.9816118160345 168.5" class="highcharts-graph" data-z-index="1" stroke="#61ff69" stroke-width="2" stroke-linejoin="round" stroke-linecap="round"></path></g><g class="highcharts-markers highcharts-series-1 highcharts-line-series" data-z-index="0.1" opacity="1" transform="translate(10,10) scale(1 1)" clip-path="none"></g><g class="highcharts-series highcharts-series-2 highcharts-line-series" data-z-index="0.1" opacity="1" transform="translate(10,10) scale(1 1)" clip-path="url(#highcharts-x9pimvm-498)"><path fill="none" d="M 416.9082319727405 168.5 L 415.9451367099055 179.51877168833937 L 413.0959035265686 190.20512900641995 L 408.47815540429986 200.2461260613113 L 402.2796524623453 209.36645141004814 L 394.7464624433091 217.34407760195967 L 386.1675337330415 224.0223514880741 L 376.85671202352097 229.3177245029799 L 367.1334131543794 233.22261852928426 L 357.30325356224006 235.8032535622403 L 347.63994008967 237.19260567877856 L 338.3696326548252 237.57899446283665 L 329.65882249148126 237.1910955236012 L 321.60652699339863 236.28041587061296 L 314.24130612274024 235.10244119030955 L 307.5232750609427 233.89775284243046 L 301.35094581307504 232.87441262517183 L 295.57240013922376 232.19282504325673 L 289.9999999999998 231.95411598637025 L 284.4275998607758 232.1928250432567 L 278.64905418692456 232.87441262517177 L 272.4767249390634 233.8977528424321 L 265.7586938772593 235.1024411903094 L 258.3934730066009 236.28041587061273 L 250.34117750851829 237.19109552360092 L 241.63036734517573 237.5789944628373 L 232.3600599103323 237.19260567878047 L 222.69674643776284 235.80325356224319 L 212.86658684561823 233.22261852928142 L 203.1432879764774 229.31772450297763 L 193.83246626695808 224.0223514880734 L 185.25353755669155 217.34407760196103 L 177.7203475376556 209.36645141005073 L 171.5218445957015 200.2461260613164 L 166.90409647343063 190.20512900641543 L 164.05486329009423 179.51877168833653 L 163.0917680272595 168.49999999999912 L 164.05486329009437 157.48122831166177 L 166.9040964734309 146.7948709935829 L 171.52184459569875 136.75387393869383 L 177.72034753765615 127.63354858994774 L 185.2535375566922 119.65592239803755 L 193.83246626695885 112.97764851192528 L 203.14328797647826 107.68227549702122 L 212.86658684561905 103.77738147071749 L 222.696746437757 101.19674643776261 L 232.36005991033326 99.80739432121871 L 241.63036734517667 99.42100553716203 L 250.3411775085192 99.8089044763985 L 258.3934730066018 100.71958412938683 L 265.7586938772602 101.8975588096903 L 272.4767249390577 103.10224715756942 L 278.6490541869254 104.12558737482809 L 284.42759986077664 104.80717495674321 L 290.0000000000007 105.04588401362975 L 295.5724001392246 104.80717495674332 L 301.3509458130759 104.12558737482834 L 307.523275060937 103.10224715756804 L 314.24130612274115 101.89755880969075 L 321.60652699339954 100.71958412938743 L 329.6588224914822 99.80890447639935 L 338.3696326548247 99.42100553716303 L 347.6399400896682 99.80739432121993 L 357.30325356223756 101.19674643775726 L 367.1334131543822 103.77738147071908 L 376.85671202352296 107.68227549702303 L 386.16753373304226 112.97764851192728 L 394.7464624433088 119.65592239803965 L 402.27965246234464 127.63354858995007 L 408.4781554042987 136.75387393868436 L 413.09590352656954 146.79487099358536 L 415.94513670990585 157.48122831166435 L 416.9082319727405 168.5" class="highcharts-graph" data-z-index="1" stroke="#6961ff" stroke-width="2" stroke-linejoin="round" stroke-linecap="round"></path></g><g class="highcharts-markers highcharts-series-2 highcharts-line-series" data-z-index="0.1" opacity="1" transform="translate(10,10) scale(1 1)" clip-path="none"></g></g><text x="300" text-anchor="middle" class="highcharts-title" data-z-index="4" style="color: rgb(51, 51, 51); font-size: 18px; fill: rgb(51, 51, 51);" y="24"></text><text x="300" text-anchor="middle" class="highcharts-subtitle" data-z-index="4" style="color: rgb(102, 102, 102); fill: rgb(102, 102, 102);" y="24"></text><text x="10" text-anchor="start" class="highcharts-caption" data-z-index="4" style="color: rgb(102, 102, 102); fill: rgb(102, 102, 102);" y="397"></text><g class="highcharts-legend highcharts-no-tooltip" data-z-index="7" transform="translate(114,359)"><rect fill="none" class="highcharts-legend-box" rx="0" ry="0" x="0" y="0" width="371" height="26" visibility="visible"></rect><g data-z-index="1"><g><g class="highcharts-legend-item highcharts-line-series highcharts-color-undefined highcharts-series-0" data-z-index="1" transform="translate(8,3)"><path fill="none" d="M 0 11 L 16 11" class="highcharts-graph" stroke="#ff6961" stroke-width="2"></path><text x="21" text-anchor="start" data-z-index="2" y="15" style="color: rgb(51, 51, 51); cursor: pointer; font-size: 12px; font-weight: bold; fill: rgb(51, 51, 51);">Red (680 nm)</text></g><g class="highcharts-legend-item highcharts-line-series highcharts-color-undefined highcharts-series-1" data-z-index="1" transform="translate(127.85061645507812,3)"><path fill="none" d="M 0 11 L 16 11" class="highcharts-graph" stroke="#61ff69" stroke-width="2"></path><text x="21" y="15" text-anchor="start" data-z-index="2" style="color: rgb(51, 51, 51); cursor: pointer; font-size: 12px; font-weight: bold; fill: rgb(51, 51, 51);">Green (550 nm)</text></g><g class="highcharts-legend-item highcharts-line-series highcharts-color-undefined highcharts-series-2" data-z-index="1" transform="translate(260.7325897216797,3)"><path fill="none" d="M 0 11 L 16 11" class="highcharts-graph" stroke="#6961ff" stroke-width="2"></path><text x="21" y="15" text-anchor="start" data-z-index="2" style="color: rgb(51, 51, 51); cursor: pointer; font-size: 12px; font-weight: bold; fill: rgb(51, 51, 51);">Blue (440 nm)</text></g></g></g></g><g class="highcharts-axis-labels highcharts-xaxis-labels highcharts-radial-axis-labels" data-z-index="7"><text x="458.225" transform="translate(0,0)" style="color: rgb(102, 102, 102); cursor: default; font-size: 11px; fill: rgb(102, 102, 102);" text-anchor="start" y="182.5" opacity="1">0°</text><text x="411.8819704532415" transform="translate(0,0)" style="color: rgb(102, 102, 102); cursor: default; font-size: 11px; fill: rgb(102, 102, 102);" text-anchor="start" y="294.3819704532415" opacity="1">45°</text><text x="300" transform="translate(0,0)" style="color: rgb(102, 102, 102); cursor: default; font-size: 11px; fill: rgb(102, 102, 102);" text-anchor="middle" y="340.725" opacity="1">90°</text><text x="188.11802954675852" transform="translate(0,0)" style="color: rgb(102, 102, 102); cursor: default; font-size: 11px; fill: rgb(102, 102, 102);" text-anchor="end" y="294.3819704532415" opacity="1">135°</text><text x="141.775" transform="translate(0,0)" style="color: rgb(102, 102, 102); cursor: default; font-size: 11px; fill: rgb(102, 102, 102);" text-anchor="end" y="182.50000000000003" opacity="1">180°</text><text x="188.1180295467585" transform="translate(0,0)" style="color: rgb(102, 102, 102); cursor: default; font-size: 11px; fill: rgb(102, 102, 102);" text-anchor="end" y="70.61802954675854" opacity="1">225°</text><text x="299.99999999999994" transform="translate(0,0)" style="color: rgb(102, 102, 102); cursor: default; font-size: 11px; fill: rgb(102, 102, 102);" text-anchor="middle" y="24.275000000000006" opacity="1">270°</text><text x="411.8819704532415" transform="translate(0,0)" style="color: rgb(102, 102, 102); cursor: default; font-size: 11px; fill: rgb(102, 102, 102);" text-anchor="start" y="70.61802954675849" opacity="1">315°</text><text x="0" transform="translate(0,0)" style="color: rgb(102, 102, 102); cursor: default; font-size: 11px; fill: rgb(102, 102, 102);" text-anchor="start" y="-9999">360°</text></g><g class="highcharts-axis-labels highcharts-yaxis-labels highcharts-radial-axis-labels" data-z-index="7"><text x="297" text-anchor="end" transform="translate(0,0)" y="176.5" opacity="1" style="color: rgb(102, 102, 102); cursor: default; font-size: 11px; fill: rgb(102, 102, 102);">0</text><text x="368.6125" text-anchor="end" transform="translate(0,0)" y="176.5" opacity="1" style="color: rgb(102, 102, 102); cursor: default; font-size: 11px; fill: rgb(102, 102, 102);">0.000002</text><text x="0" text-anchor="end" transform="translate(0,0)" y="-9999" style="color: rgb(102, 102, 102); cursor: default; font-size: 11px; fill: rgb(102, 102, 102);">0.000004</text></g><text x="590" class="highcharts-credits" text-anchor="end" data-z-index="8" y="395" style="cursor: pointer; color: rgb(153, 153, 153); font-size: 9px; fill: rgb(153, 153, 153);"></text></svg>