<svg xmlns="http://www.w3.org/2000/svg" width="800" height="800"><path fill="#fff" class="dcg-svg-background" d="M0 0h800v800H0z"/><g stroke-opacity=".25" stroke-miterlimit="10"><path fill="none" d="M466.667 401a65.667 65.667 0 1 1 0-.066"/><path fill="none" d="M533.333 401a132.333 132.333 0 1 1 0-.132"/><path fill="none" d="M600 401a199 199 0 1 1 0-.199"/><path fill="none" d="M666.667 401a265.667 265.667 0 1 1 0-.266"/><path fill="none" d="M733.333 401a332.333 332.333 0 1 1 0-.332"/><path fill="none" d="M800 401a399 399 0 1 1 0-.399"/><path fill="none" d="M866.667 401a465.667 465.667 0 1 1 0-.466"/><path fill="none" d="M933.333 401a532.333 532.333 0 1 1 0-.532"/><path fill="none" class="dcg-svg-minor-gridline" paint-order="fill stroke markers" d="m401 401 546-148M401 401l488-284M401 401 801 1M401 401 683-89M401 401l146-548M401 401 253-147M401 401 117-89M401 401 1-1M401 401-89 117M401 401l-548-148M401 401l-548 146M401 401-89 683M401 401-1 801M401 401 117 889M401 401 253 947M401 401l146 546M401 401l282 488M401 401l400 400M401 401l488 282M401 401l546 146"/><path fill="none" d="M733.333 401a332.333 332.333 0 1 1 0-.332"/></g><g transform="scale(2)"><path fill="none" stroke="#000" class="dcg-svg-axis-line" paint-order="fill stroke markers" d="M200 3v394" stroke-opacity=".9" stroke-miterlimit="10" stroke-width="1.5"/><g class="dcg-svg-axis-line"><path stroke="#000" class="dcg-svg-axis-line" paint-order="stroke fill markers" d="m200 398.5-3.106-11.591h6.212L200 398.5l-3.106-11.591" stroke-opacity=".9" stroke-linejoin="round" stroke-miterlimit="10" stroke-width="1.5" fill-opacity=".9"/></g><g class="dcg-svg-axis-line"><path stroke="#000" class="dcg-svg-axis-line" paint-order="stroke fill markers" d="m200 1.5 3.106 11.591h-6.212L200 1.5l3.106 11.591" stroke-opacity=".9" stroke-linejoin="round" stroke-miterlimit="10" stroke-width="1.5" fill-opacity=".9"/></g></g><g transform="scale(2)"><path fill="none" stroke="#000" class="dcg-svg-axis-line" paint-order="fill stroke markers" d="M3 200h394" stroke-opacity=".9" stroke-miterlimit="10" stroke-width="1.5"/><g class="dcg-svg-axis-line"><path stroke="#000" class="dcg-svg-axis-line" paint-order="stroke fill markers" d="m1.5 200 11.591-3.106v6.212L1.5 200l11.591-3.106" stroke-opacity=".9" stroke-linejoin="round" stroke-miterlimit="10" stroke-width="1.5" fill-opacity=".9"/></g><g class="dcg-svg-axis-line"><path stroke="#000" class="dcg-svg-axis-line" paint-order="stroke fill markers" d="m398.5 200-11.591 3.106v-6.212L398.5 200l-11.591 3.106" stroke-opacity=".9" stroke-linejoin="round" stroke-miterlimit="10" stroke-width="1.5" fill-opacity=".9"/></g></g><g font-family="Arial" font-size="14" text-anchor="middle"><g class="dcg-svg-axis-value"><text fill="none" stroke="#fff" text-decoration="normal" x="366.667" y="213.808" stroke-miterlimit="2" stroke-width="3" transform="scale(2)">0.5</text><text text-decoration="normal" x="366.667" y="213.808" transform="scale(2)">0.5</text></g><g class="dcg-svg-axis-value"><text fill="none" stroke="#fff" text-decoration="normal" x="33.333" y="213.808" stroke-miterlimit="2" stroke-width="3" transform="scale(2)">0.5</text><text text-decoration="normal" x="33.333" y="213.808" transform="scale(2)">0.5</text></g><g class="dcg-svg-axis-value"><text fill="none" stroke="#fff" text-decoration="normal" x="185.269" y="37.141" stroke-miterlimit="2" stroke-width="3" transform="scale(2)">0.5</text><text text-decoration="normal" x="185.269" y="37.141" transform="scale(2)">0.5</text></g><g class="dcg-svg-axis-value"><text fill="none" stroke="#fff" text-decoration="normal" x="185.269" y="370.475" stroke-miterlimit="2" stroke-width="3" transform="scale(2)">0.5</text><text text-decoration="normal" x="185.269" y="370.475" transform="scale(2)">0.5</text></g><g class="dcg-svg-polar-axis-value"><text fill="none" stroke="#fff" text-decoration="normal" x="358.73" y="189.808" stroke-miterlimit="2" stroke-width="3" transform="scale(2)">0</text><text fill="#969696" text-decoration="normal" x="358.73" y="189.808" transform="scale(2)">0</text></g><g class="dcg-svg-polar-axis-value"><text fill="none" stroke="#fff" text-decoration="normal" x="337.464" y="124.443" stroke-miterlimit="2" stroke-width="3" transform="scale(2)">π/6</text><text fill="#969696" text-decoration="normal" x="337.464" y="124.443" transform="scale(2)">π/6</text></g><g class="dcg-svg-polar-axis-value"><text fill="none" stroke="#fff" text-decoration="normal" x="279.365" y="66.344" stroke-miterlimit="2" stroke-width="3" transform="scale(2)">π/3</text><text fill="#969696" text-decoration="normal" x="279.365" y="66.344" transform="scale(2)">π/3</text></g><g class="dcg-svg-polar-axis-value"><text fill="none" stroke="#fff" text-decoration="normal" x="211.494" y="45.078" stroke-miterlimit="2" stroke-width="3" transform="scale(2)">π/2</text><text fill="#969696" text-decoration="normal" x="211.494" y="45.078" transform="scale(2)">π/2</text></g><g class="dcg-svg-polar-axis-value"><text fill="none" stroke="#fff" text-decoration="normal" x="120.635" y="66.344" stroke-miterlimit="2" stroke-width="3" transform="scale(2)">2π/3</text><text fill="#969696" text-decoration="normal" x="120.635" y="66.344" transform="scale(2)">2π/3</text></g><g class="dcg-svg-polar-axis-value"><text fill="none" stroke="#fff" text-decoration="normal" x="62.536" y="124.443" stroke-miterlimit="2" stroke-width="3" transform="scale(2)">5π/6</text><text fill="#969696" text-decoration="normal" x="62.536" y="124.443" transform="scale(2)">5π/6</text></g><g class="dcg-svg-polar-axis-value"><text fill="none" stroke="#fff" text-decoration="normal" x="41.27" y="189.808" stroke-miterlimit="2" stroke-width="3" transform="scale(2)">π</text><text fill="#969696" text-decoration="normal" x="41.27" y="189.808" transform="scale(2)">π</text></g><g class="dcg-svg-polar-axis-value"><text fill="none" stroke="#fff" text-decoration="normal" x="62.536" y="283.173" stroke-miterlimit="2" stroke-width="3" transform="scale(2)">7π/6</text><text fill="#969696" text-decoration="normal" x="62.536" y="283.173" transform="scale(2)">7π/6</text></g><g class="dcg-svg-polar-axis-value"><text fill="none" stroke="#fff" text-decoration="normal" x="120.635" y="341.272" stroke-miterlimit="2" stroke-width="3" transform="scale(2)">4π/3</text><text fill="#969696" text-decoration="normal" x="120.635" y="341.272" transform="scale(2)">4π/3</text></g><g class="dcg-svg-polar-axis-value"><text fill="none" stroke="#fff" text-decoration="normal" x="214.426" y="362.538" stroke-miterlimit="2" stroke-width="3" transform="scale(2)">3π/2</text><text fill="#969696" text-decoration="normal" x="214.426" y="362.538" transform="scale(2)">3π/2</text></g><g class="dcg-svg-polar-axis-value"><text fill="none" stroke="#fff" text-decoration="normal" x="279.365" y="341.272" stroke-miterlimit="2" stroke-width="3" transform="scale(2)">5π/3</text><text fill="#969696" text-decoration="normal" x="279.365" y="341.272" transform="scale(2)">5π/3</text></g><g class="dcg-svg-polar-axis-value"><text fill="none" stroke="#fff" text-decoration="normal" x="337.464" y="283.173" stroke-miterlimit="2" stroke-width="3" transform="scale(2)">11π/6</text><text fill="#969696" text-decoration="normal" x="337.464" y="283.173" transform="scale(2)">11π/6</text></g></g><g transform="scale(2)"><path fill="none" stroke="#c74440" class="dcg-svg-curve" paint-order="fill stroke markers" d="M332.63 199.917h0l-.085-3.249-.25-3.323-.418-3.307-.582-3.282-.745-3.248-.906-3.207-1.062-3.159-1.544-3.867-1.775-3.764-1.998-3.65-2.21-3.52-2.409-3.38-2.597-3.23-2.773-3.07-2.933-2.9-3.079-2.728-3.21-2.546-3.326-2.361-3.426-2.174-3.51-1.984-3.58-1.794-3.634-1.605-3.67-1.419-3.695-1.236-4.443-1.248-4.433-1.003-4.4-.77-4.345-.551-4.273-.35-4.186-.166-4.752.012-4.595.203-5.042.422-5.39.656-6.177.959-18.735 3.097-3.84.353-3.769.152-3.754-.059-3.801-.265-4.348-.518-5.49-.875-16.794-2.844-5.39-.656-5.042-.422-4.595-.203-4.752-.012-4.186.166-4.273.35-4.346.551-4.4.77-4.432 1.003-4.443 1.248-3.694 1.236-3.671 1.419-3.633 1.605-3.58 1.794-3.51 1.984-3.427 2.174-3.326 2.36-3.21 2.547-3.08 2.727-2.932 2.902-2.773 3.07-2.597 3.23-2.41 3.38-2.21 3.52-1.997 3.649-1.775 3.764-1.544 3.867-1.304 3.956-.865 3.218-.705 3.258-.54 3.288-.377 3.312-.209 3.327-.042 3.332.126 3.33.292 3.321.46 3.301.622 3.274.786 3.24.945 3.195 1.4 3.922 1.638 3.828 1.865 3.72 2.084 3.598 2.29 3.466 2.487 3.321 2.67 3.167 2.837 3.003 3.61 3.378 3.159 2.62 3.282 2.435 3.388 2.25 3.478 2.06 3.554 1.87 3.614 1.68 3.658 1.493 3.686 1.308 3.702 1.129 4.44 1.124 4.419.884 4.375.659 4.312.448 4.23.256 4.816.08 4.664-.126 5.127-.351 5.49-.6 5.747-.832 7.935-1.375 9.474-1.618 4.812-.605 3.81-.288 3.757-.082 3.763.129 3.83.331 4.401.582 6.063 1.017 13.15 2.257 5.896.773 4.984.465 4.547.252 4.71.07 4.854-.144 4.26-.318 4.334-.517 4.392-.732 4.429-.963 4.443-1.206 3.697-1.2 3.677-1.382 3.642-1.568 3.591-1.756 3.526-1.946 3.444-2.136 3.348-2.324 3.234-2.51 3.107-2.69 2.963-2.868 2.806-3.037 2.633-3.198 2.448-3.351 2.25-3.493 2.042-3.624 1.82-3.743 1.591-3.847 1.352-3.94.906-3.207.745-3.248.582-3.282.417-3.307.251-3.323.084-3.249" stroke-linecap="round" stroke-linejoin="round" stroke-miterlimit="10" stroke-width="2.5" stroke-opacity=".9"/></g></svg>