<svg version="1.1" xmlns="http://www.w3.org/2000/svg" xmlns:xlink="http://www.w3.org/1999/xlink" width="800" height="800"><defs/><g transform="scale(2,2)"><g id="background-b124b123"><rect fill="white" stroke="none" x="0" y="0" width="400" height="400" class="dcg-svg-background"/></g><g id="background-images-b124b123"/><g id="graphpaper-b124b123"><g id="grid-b124b123"><g stroke="rgb(0,0,0)" stroke-opacity="0.2500000000000001" stroke-miterlimit="10" stroke-dasharray=""><path fill="none" stroke="" class="dcg-svg-minor-gridline" d=""/><g transform="scale(1,1)"><path fill="none" stroke="" d=" M 233.33333333333337 200.5 L 233.33333333333337 200.5 A 32.83333333333337 32.83333333333337 0 1 1 233.33331691666808 200.46716667213886"/><g transform="scale(1,1)" stroke=""><path fill="none" stroke="" class="dcg-svg-minor-gridline" d=""/><g transform="scale(1,1)"><path fill="none" stroke="" d=" M 266.6666666666667 200.5 L 266.6666666666667 200.5 A 66.16666666666669 66.16666666666669 0 1 1 266.6666335833361 200.43383334436106"/><g transform="scale(1,1)" stroke=""><path fill="none" stroke="" class="dcg-svg-minor-gridline" d=""/><g transform="scale(1,1)"><path fill="none" stroke="" d=" M 300.00000000000006 200.5 L 300.00000000000006 200.5 A 99.50000000000006 99.50000000000006 0 1 1 299.9999502500042 200.40050001658327"/><g transform="scale(1,1)" stroke=""><path fill="none" stroke="" class="dcg-svg-minor-gridline" d=""/><g transform="scale(1,1)"><path fill="none" stroke="" d=" M 333.33333333333337 200.5 L 333.33333333333337 200.5 A 132.83333333333337 132.83333333333337 0 1 1 333.33326691667224 200.36716668880547"/><g transform="scale(1,1)" stroke=""><path fill="none" stroke="" class="dcg-svg-minor-gridline" d=""/><g transform="scale(1,1)"><path fill="none" stroke="" d=" M 366.66666666666674 200.5 L 366.66666666666674 200.5 A 166.16666666666674 166.16666666666674 0 1 1 366.6665835833403 200.33383336102767"/><g transform="scale(1,1)" stroke=""><path fill="none" stroke="" class="dcg-svg-minor-gridline" d=""/><g transform="scale(1,1)"><path fill="none" stroke="" d=" M 400.0000000000001 200.5 L 400.0000000000001 200.5 A 199.5000000000001 199.5000000000001 0 1 1 399.9999002500084 200.30050003324988"/><g transform="scale(1,1)" stroke=""><path fill="none" stroke="" class="dcg-svg-minor-gridline" d=""/><g transform="scale(1,1)"><path fill="none" stroke="" d=" M 433.33333333333337 200.5 L 433.33333333333337 200.5 A 232.83333333333337 232.83333333333337 0 1 1 433.3332169166764 200.26716670547208"/><g transform="scale(1,1)" stroke=""><path fill="none" stroke="" class="dcg-svg-minor-gridline" d=""/><g transform="scale(1,1)"><path fill="none" stroke="" d=" M 466.66666666666674 200.5 L 466.66666666666674 200.5 A 266.16666666666674 266.16666666666674 0 1 1 466.6665335833445 200.23383337769428"/><g transform="scale(1,1)" stroke=""><path fill="none" stroke="" class="dcg-svg-minor-gridline" paint-order="fill stroke markers" d=" M 200.5 200.5 L 473.5 126.5"/><path fill="none" stroke="" class="dcg-svg-minor-gridline" paint-order="fill stroke markers" d=" M 200.5 200.5 L 444.5 58.5"/><path fill="none" stroke="" class="dcg-svg-minor-gridline" paint-order="fill stroke markers" d=" M 200.5 200.5 L 400.5 0.5"/><path fill="none" stroke="" class="dcg-svg-minor-gridline" paint-order="fill stroke markers" d=" M 200.5 200.5 L 341.5 -44.5"/><path fill="none" stroke="" class="dcg-svg-minor-gridline" paint-order="fill stroke markers" d=" M 200.5 200.5 L 273.5 -73.5"/><path fill="none" stroke="" class="dcg-svg-minor-gridline" paint-order="fill stroke markers" d=" M 200.5 200.5 L 126.5 -73.5"/><path fill="none" stroke="" class="dcg-svg-minor-gridline" paint-order="fill stroke markers" d=" M 200.5 200.5 L 58.5 -44.5"/><path fill="none" stroke="" class="dcg-svg-minor-gridline" paint-order="fill stroke markers" d=" M 200.5 200.5 L 0.5 -0.5"/><path fill="none" stroke="" class="dcg-svg-minor-gridline" paint-order="fill stroke markers" d=" M 200.5 200.5 L -44.5 58.5"/><path fill="none" stroke="" class="dcg-svg-minor-gridline" paint-order="fill stroke markers" d=" M 200.5 200.5 L -73.5 126.5"/><path fill="none" stroke="" class="dcg-svg-minor-gridline" paint-order="fill stroke markers" d=" M 200.5 200.5 L -73.5 273.5"/><path fill="none" stroke="" class="dcg-svg-minor-gridline" paint-order="fill stroke markers" d=" M 200.5 200.5 L -44.5 341.5"/><path fill="none" stroke="" class="dcg-svg-minor-gridline" paint-order="fill stroke markers" d=" M 200.5 200.5 L -0.5 400.5"/><path fill="none" stroke="" class="dcg-svg-minor-gridline" paint-order="fill stroke markers" d=" M 200.5 200.5 L 58.5 444.5"/><path fill="none" stroke="" class="dcg-svg-minor-gridline" paint-order="fill stroke markers" d=" M 200.5 200.5 L 126.5 473.5"/><path fill="none" stroke="" class="dcg-svg-minor-gridline" paint-order="fill stroke markers" d=" M 200.5 200.5 L 273.5 473.5"/><path fill="none" stroke="" class="dcg-svg-minor-gridline" paint-order="fill stroke markers" d=" M 200.5 200.5 L 341.5 444.5"/><path fill="none" stroke="" class="dcg-svg-minor-gridline" paint-order="fill stroke markers" d=" M 200.5 200.5 L 400.5 400.5"/><path fill="none" stroke="" class="dcg-svg-minor-gridline" paint-order="fill stroke markers" d=" M 200.5 200.5 L 444.5 341.5"/><path fill="none" stroke="" class="dcg-svg-minor-gridline" paint-order="fill stroke markers" d=" M 200.5 200.5 L 473.5 273.5"/><path fill="none" stroke="" class="dcg-svg-major-gridline" d=""/><g transform="scale(1,1)"><path fill="none" stroke="" d=" M 366.66666666666674 200.5 L 366.66666666666674 200.5 A 166.16666666666674 166.16666666666674 0 1 1 366.6665835833403 200.33383336102767"/><g transform="scale(1,1)" stroke=""/></g></g></g></g></g></g></g></g></g></g></g></g></g></g></g></g></g></g></g><g id="axis-b124b123"><g id="yaxis-b124b123"><title>Y axis</title><path fill="none" stroke="rgb(0,0,0)" class="dcg-svg-axis-line" paint-order="fill stroke markers" d=" M 200 3 L 200 397" stroke-opacity="0.9" stroke-miterlimit="10" stroke-width="1.5" stroke-dasharray=""/><g class="dcg-svg-axis-line"><path fill="rgb(0,0,0)" stroke="rgb(0,0,0)" class="dcg-svg-axis-line" paint-order="stroke fill markers" d=" M 200 398.5 L 196.89417145876976 386.9088900845312 L 203.10582854123024 386.9088900845312 L 200 398.5 L 196.89417145876976 386.9088900845312" stroke-opacity="0.9" stroke-linejoin="round" stroke-miterlimit="10" stroke-width="1.5" stroke-dasharray="" fill-opacity="0.9"/></g><g class="dcg-svg-axis-line"><path fill="rgb(0,0,0)" stroke="rgb(0,0,0)" class="dcg-svg-axis-line" paint-order="stroke fill markers" d=" M 200 1.5 L 203.10582854123024 13.09110991546882 L 196.89417145876976 13.09110991546882 L 200 1.5 L 203.10582854123024 13.09110991546882" stroke-opacity="0.9" stroke-linejoin="round" stroke-miterlimit="10" stroke-width="1.5" stroke-dasharray="" fill-opacity="0.9"/></g></g><g id="xaxis-b124b123"><title>X axis</title><path fill="none" stroke="rgb(0,0,0)" class="dcg-svg-axis-line" paint-order="fill stroke markers" d=" M 3 200 L 397 200" stroke-opacity="0.9" stroke-miterlimit="10" stroke-width="1.5" stroke-dasharray=""/><g class="dcg-svg-axis-line"><path fill="rgb(0,0,0)" stroke="rgb(0,0,0)" class="dcg-svg-axis-line" paint-order="stroke fill markers" d=" M 1.5 200 L 13.09110991546882 196.89417145876976 L 13.09110991546882 203.10582854123024 L 1.5 200 L 13.09110991546882 196.89417145876976" stroke-opacity="0.9" stroke-linejoin="round" stroke-miterlimit="10" stroke-width="1.5" stroke-dasharray="" fill-opacity="0.9"/></g><g class="dcg-svg-axis-line"><path fill="rgb(0,0,0)" stroke="rgb(0,0,0)" class="dcg-svg-axis-line" paint-order="stroke fill markers" d=" M 398.5 200 L 386.9088900845312 203.10582854123027 L 386.9088900845312 196.89417145876976 L 398.5 200 L 386.9088900845312 203.10582854123027" stroke-opacity="0.9" stroke-linejoin="round" stroke-miterlimit="10" stroke-width="1.5" stroke-dasharray="" fill-opacity="0.9"/></g></g><g><g class="dcg-svg-axis-value"><text fill="none" stroke="#ffffff" font-family="Arial" font-size="14px" font-style="normal" font-weight="normal" text-decoration="normal" x="366.66666666666674" y="213.80800000000002" text-anchor="middle" stroke-miterlimit="2" stroke-width="3" stroke-dasharray="">0.5</text><text fill="#000000" stroke="none" font-family="Arial" font-size="14px" font-style="normal" font-weight="normal" text-decoration="normal" x="366.66666666666674" y="213.80800000000002" text-anchor="middle">0.5</text></g><g class="dcg-svg-axis-value"><text fill="none" stroke="#ffffff" font-family="Arial" font-size="14px" font-style="normal" font-weight="normal" text-decoration="normal" x="33.33333333333334" y="213.80800000000002" text-anchor="middle" stroke-miterlimit="2" stroke-width="3" stroke-dasharray="">0.5</text><text fill="#000000" stroke="none" font-family="Arial" font-size="14px" font-style="normal" font-weight="normal" text-decoration="normal" x="33.33333333333334" y="213.80800000000002" text-anchor="middle">0.5</text></g><g class="dcg-svg-axis-value"><text fill="none" stroke="#ffffff" font-family="Arial" font-size="14px" font-style="normal" font-weight="normal" text-decoration="normal" x="185.26904296875003" y="37.14133333333334" text-anchor="middle" stroke-miterlimit="2" stroke-width="3" stroke-dasharray="">0.5</text><text fill="#000000" stroke="none" font-family="Arial" font-size="14px" font-style="normal" font-weight="normal" text-decoration="normal" x="185.26904296875003" y="37.14133333333334" text-anchor="middle">0.5</text></g><g class="dcg-svg-axis-value"><text fill="none" stroke="#ffffff" font-family="Arial" font-size="14px" font-style="normal" font-weight="normal" text-decoration="normal" x="185.26904296875003" y="370.47466666666674" text-anchor="middle" stroke-miterlimit="2" stroke-width="3" stroke-dasharray="">0.5</text><text fill="#000000" stroke="none" font-family="Arial" font-size="14px" font-style="normal" font-weight="normal" text-decoration="normal" x="185.26904296875003" y="370.47466666666674" text-anchor="middle">0.5</text></g><g class="dcg-svg-polar-axis-value"><text fill="none" stroke="#ffffff" font-family="Arial" font-size="14px" font-style="normal" font-weight="normal" text-decoration="normal" x="358.7301587301588" y="189.80800000000002" text-anchor="middle" stroke-miterlimit="2" stroke-width="3" stroke-dasharray="">0</text><text fill="rgb(150,150,150)" stroke="none" font-family="Arial" font-size="14px" font-style="normal" font-weight="normal" text-decoration="normal" x="358.7301587301588" y="189.80800000000002" text-anchor="middle" fill-opacity="1">0</text></g><g class="dcg-svg-polar-axis-value"><text fill="none" stroke="#ffffff" font-family="Arial" font-size="14px" font-style="normal" font-weight="normal" text-decoration="normal" x="337.4643498070538" y="124.44292063492067" text-anchor="middle" stroke-miterlimit="2" stroke-width="3" stroke-dasharray="">π/6</text><text fill="rgb(150,150,150)" stroke="none" font-family="Arial" font-size="14px" font-style="normal" font-weight="normal" text-decoration="normal" x="337.4643498070538" y="124.44292063492067" text-anchor="middle" fill-opacity="1">π/6</text></g><g class="dcg-svg-polar-axis-value"><text fill="none" stroke="#ffffff" font-family="Arial" font-size="14px" font-style="normal" font-weight="normal" text-decoration="normal" x="279.3650793650794" y="66.34365019294627" text-anchor="middle" stroke-miterlimit="2" stroke-width="3" stroke-dasharray="">π/3</text><text fill="rgb(150,150,150)" stroke="none" font-family="Arial" font-size="14px" font-style="normal" font-weight="normal" text-decoration="normal" x="279.3650793650794" y="66.34365019294627" text-anchor="middle" fill-opacity="1">π/3</text></g><g class="dcg-svg-polar-axis-value"><text fill="none" stroke="#ffffff" font-family="Arial" font-size="14px" font-style="normal" font-weight="normal" text-decoration="normal" x="211.49365234375003" y="45.077841269841294" text-anchor="middle" stroke-miterlimit="2" stroke-width="3" stroke-dasharray="">π/2</text><text fill="rgb(150,150,150)" stroke="none" font-family="Arial" font-size="14px" font-style="normal" font-weight="normal" text-decoration="normal" x="211.49365234375003" y="45.077841269841294" text-anchor="middle" fill-opacity="1">π/2</text></g><g class="dcg-svg-polar-axis-value"><text fill="none" stroke="#ffffff" font-family="Arial" font-size="14px" font-style="normal" font-weight="normal" text-decoration="normal" x="120.63492063492069" y="66.34365019294627" text-anchor="middle" stroke-miterlimit="2" stroke-width="3" stroke-dasharray="">2π/3</text><text fill="rgb(150,150,150)" stroke="none" font-family="Arial" font-size="14px" font-style="normal" font-weight="normal" text-decoration="normal" x="120.63492063492069" y="66.34365019294627" text-anchor="middle" fill-opacity="1">2π/3</text></g><g class="dcg-svg-polar-axis-value"><text fill="none" stroke="#ffffff" font-family="Arial" font-size="14px" font-style="normal" font-weight="normal" text-decoration="normal" x="62.535650192946264" y="124.44292063492067" text-anchor="middle" stroke-miterlimit="2" stroke-width="3" stroke-dasharray="">5π/6</text><text fill="rgb(150,150,150)" stroke="none" font-family="Arial" font-size="14px" font-style="normal" font-weight="normal" text-decoration="normal" x="62.535650192946264" y="124.44292063492067" text-anchor="middle" fill-opacity="1">5π/6</text></g><g class="dcg-svg-polar-axis-value"><text fill="none" stroke="#ffffff" font-family="Arial" font-size="14px" font-style="normal" font-weight="normal" text-decoration="normal" x="41.269841269841294" y="189.808" text-anchor="middle" stroke-miterlimit="2" stroke-width="3" stroke-dasharray="">π</text><text fill="rgb(150,150,150)" stroke="none" font-family="Arial" font-size="14px" font-style="normal" font-weight="normal" text-decoration="normal" x="41.269841269841294" y="189.808" text-anchor="middle" fill-opacity="1">π</text></g><g class="dcg-svg-polar-axis-value"><text fill="none" stroke="#ffffff" font-family="Arial" font-size="14px" font-style="normal" font-weight="normal" text-decoration="normal" x="62.535650192946264" y="283.1730793650794" text-anchor="middle" stroke-miterlimit="2" stroke-width="3" stroke-dasharray="">7π/6</text><text fill="rgb(150,150,150)" stroke="none" font-family="Arial" font-size="14px" font-style="normal" font-weight="normal" text-decoration="normal" x="62.535650192946264" y="283.1730793650794" text-anchor="middle" fill-opacity="1">7π/6</text></g><g class="dcg-svg-polar-axis-value"><text fill="none" stroke="#ffffff" font-family="Arial" font-size="14px" font-style="normal" font-weight="normal" text-decoration="normal" x="120.63492063492059" y="341.27234980705373" text-anchor="middle" stroke-miterlimit="2" stroke-width="3" stroke-dasharray="">4π/3</text><text fill="rgb(150,150,150)" stroke="none" font-family="Arial" font-size="14px" font-style="normal" font-weight="normal" text-decoration="normal" x="120.63492063492059" y="341.27234980705373" text-anchor="middle" fill-opacity="1">4π/3</text></g><g class="dcg-svg-polar-axis-value"><text fill="none" stroke="#ffffff" font-family="Arial" font-size="14px" font-style="normal" font-weight="normal" text-decoration="normal" x="214.42578125" y="362.5381587301588" text-anchor="middle" stroke-miterlimit="2" stroke-width="3" stroke-dasharray="">3π/2</text><text fill="rgb(150,150,150)" stroke="none" font-family="Arial" font-size="14px" font-style="normal" font-weight="normal" text-decoration="normal" x="214.42578125" y="362.5381587301588" text-anchor="middle" fill-opacity="1">3π/2</text></g><g class="dcg-svg-polar-axis-value"><text fill="none" stroke="#ffffff" font-family="Arial" font-size="14px" font-style="normal" font-weight="normal" text-decoration="normal" x="279.3650793650794" y="341.2723498070538" text-anchor="middle" stroke-miterlimit="2" stroke-width="3" stroke-dasharray="">5π/3</text><text fill="rgb(150,150,150)" stroke="none" font-family="Arial" font-size="14px" font-style="normal" font-weight="normal" text-decoration="normal" x="279.3650793650794" y="341.2723498070538" text-anchor="middle" fill-opacity="1">5π/3</text></g><g class="dcg-svg-polar-axis-value"><text fill="none" stroke="#ffffff" font-family="Arial" font-size="14px" font-style="normal" font-weight="normal" text-decoration="normal" x="337.46434980705374" y="283.17307936507945" text-anchor="middle" stroke-miterlimit="2" stroke-width="3" stroke-dasharray="">11π/6</text><text fill="rgb(150,150,150)" stroke="none" font-family="Arial" font-size="14px" font-style="normal" font-weight="normal" text-decoration="normal" x="337.46434980705374" y="283.17307936507945" text-anchor="middle" fill-opacity="1">11π/6</text></g></g></g></g><g id="expressions-b124b123"><g id="sketch-b124b123"><title>Expression 1</title><g><path fill="none" stroke="#c74440" class="dcg-svg-curve" paint-order="fill stroke markers" d=" M 332.6290668833781 199.91666668859915 L 332.6290668833781 199.91666668859915 L 332.5453676886784 196.66807000021007 L 332.2944038144052 193.3445517614144 L 331.87709845330784 190.03781589254825 L 331.2948978841455 186.75615092806564 L 330.54981619771837 183.5077228634886 L 329.6444246697769 180.30053537466645 L 328.58183820054376 177.14239094260472 L 327.03814692318923 173.27517405735009 L 325.26279038398343 169.51054264012325 L 323.26516449787897 165.86187684340905 L 321.05576015807463 162.34168013233156 L 318.6460772632836 158.96148792449233 L 316.0485306483275 155.73178465227372 L 313.27634874512387 152.66192996457224 L 310.34346586481837 149.76009470399083 L 307.26440904760284 147.03320720895675 L 304.0541804741547 144.48691039881186 L 300.72813647121524 142.12553000445212 L 297.30186417325734 139.9520542084279 L 293.79105692220526 137.9681248574205 L 290.2113894975974 136.17404030759087 L 286.57839427032144 134.56876986035599 L 282.90733936410714 133.14997964359878 L 279.21310989040717 131.9140696920756 L 274.7696600559629 130.66551339463734 L 270.33721219977394 129.6627878002261 L 265.9379400142731 128.89314393111346 L 261.592269011625 128.34180055186056 L 257.3186663925918 127.99216801440616 L 253.1334577470974 127.8260938160214 L 248.38101815203868 127.83832854916562 L 243.78599327116368 128.0412891045354 L 238.74430628779314 128.46331902085376 L 233.3540994314616 129.11893068990298 L 227.17714108508235 130.0779725791702 L 208.4419774328012 133.1748676622953 L 204.60152702645712 133.528247890658 L 200.8334429853877 133.68020569970923 L 197.07863692740537 133.62149586263524 L 193.27752030224676 133.35568227554262 L 188.92951001441384 132.83763369102627 L 183.43947684412527 131.96279893609017 L 166.64590056853842 129.11893068990298 L 161.25569371220686 128.46331902085376 L 156.21400672883635 128.0412891045354 L 151.61898184796144 127.83832854916562 L 146.86654225290266 127.8260938160214 L 142.68133360740825 127.99216801440616 L 138.40773098837505 128.34180055186056 L 134.06205998572693 128.89314393111346 L 129.66278780022608 129.6627878002261 L 125.23033994403717 130.66551339463734 L 120.7868901095928 131.9140696920756 L 117.0926606358929 133.14997964359878 L 113.4216057296786 134.56876986035599 L 109.78861050240265 136.17404030759087 L 106.20894307779484 137.9681248574205 L 102.69813582674279 139.9520542084279 L 99.27186352878478 142.12553000445212 L 95.94581952584535 144.4869103988118 L 92.73559095239717 147.03320720895675 L 89.6565341351817 149.76009470399083 L 86.72365125487613 152.66192996457227 L 83.9514693516725 155.73178465227372 L 81.35392273671648 158.96148792449233 L 78.94423984192538 162.34168013233156 L 76.73483550212111 165.86187684340902 L 74.73720961601663 169.51054264012325 L 72.9618530768108 173.27517405735009 L 71.41816179945624 177.14239094260464 L 70.11435960065124 181.09803544711315 L 69.24877448762292 184.31627307621636 L 68.54419357901754 187.57376772310099 L 68.00305001223717 190.86247144833072 L 67.62721680533211 194.17418386167276 L 67.41799697326437 197.50059209473872 L 67.37611664976949 200.83331140121462 L 67.50172125356798 204.16392615817148 L 67.79437472052594 207.4840310396754 L 68.25306180609098 210.7852721329371 L 68.87619344503186 214.0593877675683 L 69.66161513828398 217.298248830138 L 70.60661831965197 220.49389833914105 L 72.00728506651015 224.41591618321596 L 73.64469656354731 228.24375657255234 L 75.51015149610423 231.96356040459003 L 77.59380619171633 235.56228673163847 L 79.88475536710587 239.02780879906126 L 82.37112143444297 242.34900212741118 L 85.0401515815796 245.51582387599314 L 87.87832177280096 248.51938280254083 L 91.48737824549214 251.89742188783381 L 94.64696378605898 254.51654840192066 L 97.92854193065943 256.95232916898925 L 101.31660296214622 259.2012392821341 L 104.795481034167 261.26109805017126 L 108.3494790045301 263.13107080610996 L 111.96299278171843 264.81165909587196 L 115.62063409562735 266.30467935133623 L 119.30735061833246 267.613230253664 L 123.00854238493547 268.74164909288544 L 127.4493633133053 269.8658315219375 L 131.86789100675986 270.75029064407215 L 136.24279801785386 271.4088180722967 L 140.5546133433748 271.85712865767005 L 144.78591944535208 272.11262540591684 L 149.6005468899739 272.1922059204666 L 154.2649559785807 272.0668977423236 L 159.39216002371631 271.71569279785655 L 164.88284146046246 271.11665743166253 L 170.6285721003592 270.28356051296527 L 178.56377485289397 268.90850519145107 L 188.03787781867098 267.29101258983815 L 192.84977252801792 266.6860505848581 L 196.6596587378452 266.39800055109913 L 200.41668037413123 266.315868536741 L 204.1803425497305 266.44464211941056 L 208.00990024784804 266.77649252167487 L 212.41115118781505 267.3581616821202 L 218.4744880638451 268.3745919786973 L 231.62481966381353 270.6320132473999 L 237.52036240589794 271.40518678688534 L 242.50404095324924 271.8704082496489 L 247.0514148772505 272.1216819296966 L 251.76052487517848 272.19180333609995 L 256.6145850988796 272.0477474337764 L 260.8745288562199 271.73000697682926 L 265.20941518748265 271.2134794840372 L 269.601121857645 270.4812972377737 L 274.02953584139175 269.5183614317233 L 278.47275915479594 268.31156984477377 L 282.1698791596298 267.1116957898805 L 285.8467454844676 265.7298093621321 L 289.48856352823077 264.16206278962323 L 293.0801323852547 262.4058656622635 L 296.60596287015596 260.4599242137107 L 300.0503988261505 258.32426946532667 L 303.3977406560456 256.0002739659035 L 306.6323699946658 253.4906569617871 L 309.7388744305998 250.7994779343803 L 312.70217118395175 247.9321185449479 L 315.5076286552779 244.89525312923962 L 318.14118477899694 241.69680798580043 L 320.58946114212637 238.34590980104159 L 322.83987186597665 234.8528236503209 L 324.8807262940973 231.2288811065792 L 326.70132458391674 227.486399075676 L 328.29204536166617 223.63859005968567 L 329.6444246697769 219.69946462533366 L 330.54981619771837 216.4922771365115 L 331.2948978841455 213.24384907193445 L 331.87709845330784 209.96218410745178 L 332.2944038144052 206.65544823858576 L 332.5453676886784 203.33192999979005 L 332.6290668833781 200.08333331140096" stroke-linecap="round" stroke-linejoin="round" stroke-miterlimit="10" stroke-width="2.5" stroke-opacity="0.9" stroke-dasharray=""/></g></g></g><g id="labels-b124b123"/></g></svg>