<svg class="highcharts-root" style="font-family:&quot;Lucida Grande&quot;,&quot;Lucida Sans Unicode&quot;,Arial,Helvetica,sans-serif;font-size:12px" xmlns="http://www.w3.org/2000/svg" width="600" height="400"><defs><clipPath id="a"><circle cx="290" cy="168.5" r="143.225"/></clipPath><clipPath id="b"><circle cx="290" cy="168.5" r="143.225"/></clipPath><clipPath id="c"><circle cx="290" cy="168.5" r="143.225"/></clipPath></defs><rect fill="#fff" class="highcharts-background" width="600" height="400" rx="0" ry="0"/><path fill="none" class="highcharts-plot-background" d="M10 10h580v337H10z"/><g class="highcharts-grid highcharts-xaxis-grid highcharts-radial-axis-grid" data-z-index="1" fill="none" stroke="#e6e6e6"><path data-z-index="1" class="highcharts-grid-line" d="M300 178.5h143.225M300 178.5l101.275 101.275M300 178.5v143.225M300 178.5 198.725 279.775M300 178.5H156.775M300 178.5 198.725 77.225M300 178.5V35.275M300 178.5 401.275 77.225M300 178.5h143.225"/></g><g class="highcharts-grid highcharts-yaxis-grid highcharts-radial-axis-grid" data-z-index="1" fill="none" stroke="#e6e6e6"><path data-z-index="1" class="highcharts-grid-line" d="M371.613 178.5a71.612 71.612 0 1 1 0-.072M300 178.5"/><path data-z-index="1" class="highcharts-grid-line" d="M443.225 178.5a143.225 143.225 0 1 1 0-.143M300 178.5"/></g><path fill="none" class="highcharts-plot-border" data-z-index="1" d="M10 10h580v337H10z"/><g class="highcharts-axis highcharts-xaxis highcharts-radial-axis" data-z-index="2"><path fill="none" class="highcharts-axis-line" stroke="#ccd6eb" data-z-index="7" d="M443.225 178.5a143.225 143.225 0 1 1 0-.143M300 178.5"/></g><g class="highcharts-axis highcharts-yaxis highcharts-radial-axis" data-z-index="2"><path fill="none" class="highcharts-axis-line" data-z-index="7" d="M300 178.5h143.225"/></g><g class="highcharts-series-group" data-z-index="3"><g class="highcharts-series highcharts-series-0 highcharts-line-series" data-z-index=".1" clip-path="url(#a)" transform="translate(10 10)"><path fill="none" d="m312.247 168.5-.17 1.932-.499 1.873-.81 1.76-1.086 1.599-1.32 1.398-1.504 1.17-1.632.93-1.705.684-1.723.452-1.694.244-1.625.067-1.527-.068-1.411-.16-1.292-.206-1.177-.211-1.082-.18-1.013-.119-.977-.042-.977.042-1.013.12-1.082.179-1.177.211-1.292.207-1.411.16-1.527.067-1.625-.067-1.694-.244-1.723-.452-1.705-.685-1.632-.928-1.504-1.17-1.32-1.4-1.087-1.598-.81-1.76-.499-1.873-.169-1.932.17-1.932.499-1.873.81-1.76 1.086-1.599 1.32-1.398 1.504-1.17 1.632-.93 1.705-.684 1.723-.452 1.694-.244 1.625-.067 1.527.068 1.411.16 1.292.206 1.177.211 1.082.18 1.013.119.977.042.977-.042 1.013-.12 1.082-.179 1.177-.211 1.292-.207 1.411-.16 1.527-.067 1.625.067 1.694.244 1.723.452 1.705.685 1.632.928 1.504 1.17 1.32 1.4 1.087 1.598.81 1.76.499 1.873.169 1.932" class="highcharts-graph" data-z-index="1" stroke="#ff6961" stroke-width="2" stroke-linejoin="round" stroke-linecap="round"/></g><g class="highcharts-series highcharts-series-1 highcharts-line-series" data-z-index=".1" clip-path="url(#b)" transform="translate(10 10)"><path fill="none" d="m341.982 168.5-.395 4.513-1.167 4.377-1.891 4.113-2.54 3.736-3.085 3.268-3.514 2.735-3.813 2.169-3.983 1.6-4.027 1.056-3.958.57-3.797.158-3.568-.16-3.298-.372-3.017-.483-2.751-.493-2.529-.42-2.367-.278-2.282-.098-2.282.098-2.367.279-2.529.419-2.751.493-3.017.483-3.298.373-3.568.159-3.797-.159-3.958-.569-4.027-1.057-3.983-1.6-3.813-2.168-3.514-2.735-3.086-3.268-2.539-3.736-1.891-4.113-1.167-4.377-.395-4.513.395-4.513 1.167-4.377 1.891-4.113 2.54-3.736 3.085-3.268 3.514-2.735 3.813-2.169 3.983-1.6 4.027-1.056 3.958-.57 3.797-.158 3.568.16 3.298.372 3.017.483 2.751.493 2.529.42 2.367.278 2.282.098 2.282-.098 2.367-.279 2.529-.419 2.751-.493 3.017-.483 3.298-.373 3.568-.159 3.797.159 3.958.569 4.027 1.057 3.983 1.6 3.813 2.168 3.514 2.735 3.086 3.268 2.539 3.736 1.891 4.113 1.167 4.377.395 4.513" class="highcharts-graph" data-z-index="1" stroke="#61ff69" stroke-width="2" stroke-linejoin="round" stroke-linecap="round"/></g><g class="highcharts-series highcharts-series-2 highcharts-line-series" data-z-index=".1" clip-path="url(#c)" transform="translate(10 10)"><path fill="none" d="m416.908 168.5-.963 11.019-2.85 10.686-4.617 10.041-6.198 9.12-7.534 7.978-8.578 6.678-9.311 5.296-9.724 3.905-9.83 2.58-9.663 1.39-9.27.386-8.711-.388-8.052-.91-7.366-1.179-6.718-1.204-6.172-1.024-5.779-.681-5.572-.239-5.572.239-5.779.681-6.172 1.024-6.718 1.204-7.366 1.178-8.052.911-8.71.388-9.27-.386-9.664-1.39-9.83-2.58-9.724-3.905-9.31-5.296-8.58-6.678-7.533-7.978-6.198-9.12-4.618-10.04-2.85-10.687-.962-11.019.963-11.019 2.85-10.686 4.617-10.041 6.198-9.12 7.534-7.978 8.578-6.678 9.311-5.296 9.724-3.905 9.83-2.58 9.663-1.39 9.27-.386 8.711.388 8.052.91 7.366 1.179 6.718 1.204 6.172 1.024 5.779.681 5.572.239 5.572-.239 5.779-.681 6.172-1.024 6.718-1.204 7.366-1.178 8.052-.911 8.71-.388 9.27.386 9.664 1.39 9.83 2.58 9.724 3.905 9.31 5.296 8.58 6.678 7.533 7.978 6.198 9.12 4.618 10.04 2.85 10.687.962 11.019" class="highcharts-graph" data-z-index="1" stroke="#6961ff" stroke-width="2" stroke-linejoin="round" stroke-linecap="round"/></g></g><g class="highcharts-legend highcharts-no-tooltip" data-z-index="7" transform="translate(114 359)"><rect fill="none" class="highcharts-legend-box" rx="0" ry="0" width="371" height="26"/><g data-z-index="1"><g class="highcharts-legend-item highcharts-line-series highcharts-color-undefined highcharts-series-0" data-z-index="1"><path fill="none" d="M8 14h16" class="highcharts-graph" stroke="#ff6961" stroke-width="2"/><text x="21" data-z-index="2" y="15" style="color:#333;cursor:pointer;font-size:12px;font-weight:700;fill:#333" transform="translate(8 3)">Red (680 nm)</text></g><g class="highcharts-legend-item highcharts-line-series highcharts-color-undefined highcharts-series-1" data-z-index="1"><path fill="none" d="M127.85 14h16" class="highcharts-graph" stroke="#61ff69" stroke-width="2"/><text x="21" y="15" data-z-index="2" style="color:#333;cursor:pointer;font-size:12px;font-weight:700;fill:#333" transform="translate(127.85 3)">Green (550 nm)</text></g><g class="highcharts-legend-item highcharts-line-series highcharts-color-undefined highcharts-series-2" data-z-index="1"><path fill="none" d="M260.733 14h16" class="highcharts-graph" stroke="#6961ff" stroke-width="2"/><text x="21" y="15" data-z-index="2" style="color:#333;cursor:pointer;font-size:12px;font-weight:700;fill:#333" transform="translate(260.733 3)">DodgerBlue (440 nm)</text></g></g></g><g class="highcharts-axis-labels highcharts-xaxis-labels highcharts-radial-axis-labels" data-z-index="7"><text x="458.225" style="color:#666;cursor:default;font-size:11px;fill:#666" y="182.5">0°</text><text x="411.882" style="color:#666;cursor:default;font-size:11px;fill:#666" y="294.382">45°</text><text x="300" style="color:#666;cursor:default;font-size:11px;fill:#666" text-anchor="middle" y="340.725">90°</text><text x="188.118" style="color:#666;cursor:default;font-size:11px;fill:#666" text-anchor="end" y="294.382">135°</text><text x="141.775" style="color:#666;cursor:default;font-size:11px;fill:#666" text-anchor="end" y="182.5">180°</text><text x="188.118" style="color:#666;cursor:default;font-size:11px;fill:#666" text-anchor="end" y="70.618">225°</text><text x="300" style="color:#666;cursor:default;font-size:11px;fill:#666" text-anchor="middle" y="24.275">270°</text><text x="411.882" style="color:#666;cursor:default;font-size:11px;fill:#666" y="70.618">315°</text><text style="color:#666;cursor:default;font-size:11px;fill:#666" y="-9999">360°</text></g><g class="highcharts-axis-labels highcharts-yaxis-labels highcharts-radial-axis-labels" data-z-index="7" text-anchor="end"><text x="297" y="176.5" style="color:#666;cursor:default;font-size:11px;fill:#666">0</text><text x="368.613" y="176.5" style="color:#666;cursor:default;font-size:11px;fill:#666">0.000002</text><text y="-9999" style="color:#666;cursor:default;font-size:11px;fill:#666">0.000004</text></g></svg>