<svg xmlns="http://www.w3.org/2000/svg" width="1089" height="364" viewBox="-0.5 -0.5 1089 364"><defs><style>.h1,.h2,.h3,.h4,.h5,.h6{margin-bottom:.5rem;font-weight:500;line-height:1.2}.h1{font-size:2.5rem}.h4{font-size:1.5rem}.h5{font-size:1.25rem}.h6{font-size:1rem}</style></defs><path fill="#7acff5" stroke="#000" pointer-events="all" d="M172 26h172v44H172z"/><path d="M172 42.29h172" fill="none" stroke="#000" stroke-miterlimit="10" pointer-events="all"/><text x="257.5" y="37.5" font-family="Helvetica" font-weight="bold" text-anchor="middle" font-size="12">UActorComponent</text><path fill="#7acff5" stroke="#000" pointer-events="all" d="M172 107h172v44H172z"/><path d="M172 123.29h172" fill="none" stroke="#000" stroke-miterlimit="10" pointer-events="all"/><text x="257.5" y="118.5" font-family="Helvetica" font-weight="bold" text-anchor="middle" font-size="12">USceneComponent</text><path fill="#7acff5" stroke="#000" pointer-events="all" d="M105.32 193h305.35v59H105.32z"/><path d="M105.32 209.29h305.35M105.32 230.29h305.35" fill="none" stroke="#000" stroke-miterlimit="10" pointer-events="all"/><text x="257.49" y="204.5" font-family="Helvetica" font-weight="bold" text-anchor="middle" font-size="12">UPrimitiveComponent</text><path fill="none" pointer-events="all" d="M105.32 212.29h305.35v16H105.32z"/><text x="111.82" y="224.79" font-family="Helvetica" font-size="12">-FPrimitiveSceneProxy* SceneProxy</text><path fill="none" pointer-events="all" d="M105.32 230.29h305.35v16H105.32z"/><text x="111.82" y="242.79" font-family="Helvetica" font-size="12">virtual FPrimitiveSceneProxy* CreateSceneProxy()</text><path d="M258 83.12V107" fill="none" stroke="#000" stroke-miterlimit="10" pointer-events="stroke"/><path d="m258 71.12 6 12h-12Z" fill="none" stroke="#000" stroke-miterlimit="10" pointer-events="all"/><path d="M258 164.12V193" fill="none" stroke="#000" stroke-miterlimit="10" pointer-events="stroke"/><path d="m258 152.12 6 12h-12Z" fill="none" stroke="#000" stroke-miterlimit="10" pointer-events="all"/><path fill="#7acff5" stroke="#000" pointer-events="all" d="M10 310h172v44H10z"/><path d="M10 326.29h172" fill="none" stroke="#000" stroke-miterlimit="10" pointer-events="all"/><text x="95.5" y="321.5" font-family="Helvetica" font-weight="bold" text-anchor="middle" font-size="12">UMeshComponent</text><path d="M258 265.12v7.94q0 7.94-10 7.94H106q-10 0-10 10v19" fill="none" stroke="#000" stroke-miterlimit="10" pointer-events="stroke"/><path d="m258 253.12 6 12h-12Z" fill="none" stroke="#000" stroke-miterlimit="10" pointer-events="all"/><path fill="#7acff5" stroke="#000" pointer-events="all" d="M196 310h302v44H196z"/><path d="M196 326.29h302" fill="none" stroke="#000" stroke-miterlimit="10" pointer-events="all"/><text x="346.5" y="321.5" font-family="Helvetica" font-weight="bold" text-anchor="middle" font-size="12">ULandscapeComponent</text><path fill="none" pointer-events="all" d="M196 331.29h302v16H196z"/><text x="202.5" y="343.79" font-family="Helvetica" font-size="12">+virtual FPrimitiveSceneProxy* CreateSceneProxy()</text><path d="M258 265.12v7.94q0 7.94 10 7.94h69q10 0 10 10v19" fill="none" stroke="#000" stroke-miterlimit="10" pointer-events="stroke"/><path d="m258 253.12 6 12h-12Z" fill="none" stroke="#000" stroke-miterlimit="10" pointer-events="all"/><path fill="#7acff5" stroke="#000" pointer-events="all" d="M590 10h383v72.36H590z"/><path d="M590 26.29h383M590 63.29h383" fill="none" stroke="#000" stroke-miterlimit="10" pointer-events="all"/><text x="781" y="21.5" font-family="Helvetica" font-weight="bold" text-anchor="middle" font-size="12">FScene</text><path fill="none" pointer-events="all" d="M590 29.29h383v16H590z"/><text x="596.5" y="41.79" font-family="Helvetica" font-size="12">-FPrimitiveSceneProxy* SceneProxy</text><path fill="none" pointer-events="all" d="M590 63.29h383v16H590z"/><text x="596.5" y="75.79" font-family="Helvetica" font-size="12">virtual void AddPrimitive(UPrimitiveComponent* Primitive) override;</text><path fill="none" pointer-events="all" d="M590 45.29h383v16H590z"/><text x="596.5" y="57.79" font-family="Helvetica" font-size="12">-TSet&lt;FPrimitiveSceneInfo*&gt; AddedPrimitiveSceneInfos;</text><path fill="#7acff5" stroke="#000" pointer-events="all" d="M439 120.26h390V178H439z"/><path d="M439 136.55h390M439 157.55h390" fill="none" stroke="#000" stroke-miterlimit="10" pointer-events="all"/><text x="633.5" y="131.76" font-family="Helvetica" font-weight="bold" text-anchor="middle" font-size="12">FPrimitiveSceneProxy</text><path fill="none" pointer-events="all" d="M439 139.55h390v16H439z"/><text x="445.5" y="152.05" font-family="Helvetica" font-size="12">-FPrimitiveSceneInfo * PrimitiveSceneInfo;</text><path fill="none" pointer-events="all" d="M439 157.55h390v16H439z"/><text x="445.5" y="170.05" font-family="Helvetica" font-size="12">+virtual void DrawStaticElements(FStaticPrimitiveDrawInterface* PDI) {}</text><path fill="#7acff5" stroke="#000" pointer-events="all" d="M894 119.87h184v58.52H894z"/><path d="M894 136.16h184M894 157.16h184" fill="none" stroke="#000" stroke-miterlimit="10" pointer-events="all"/><text x="985.5" y="131.37" font-family="Helvetica" font-weight="bold" text-anchor="middle" font-size="12">FPrimitiveSceneInfo</text><path fill="none" pointer-events="all" d="M894 139.16h184v16H894z"/><text x="900.5" y="151.66" font-family="Helvetica" font-size="12">-FPrimitiveSceneProxy* Proxy;</text><path fill="none" pointer-events="all" d="M894 157.16h184v16H894z"/><text x="900.5" y="169.66" font-family="Helvetica" font-size="12">+static void AddToScene(...)</text><path d="M829 149h22.5q10 0 20 .06l22.5.14M411 223h13V46h163.76" fill="none" stroke="#000" stroke-miterlimit="10" pointer-events="stroke"/><path d="m579.88 50.5 9-4.5-9-4.5" fill="none" stroke="#000" stroke-miterlimit="10" pointer-events="all"/><path d="m782 82-1 24H634v11.76" fill="none" stroke="#000" stroke-miterlimit="10" pointer-events="stroke"/><path d="m629.5 109.88 4.5 9 4.5-9" fill="none" stroke="#000" stroke-miterlimit="10" pointer-events="all"/><path d="M782 82v23h204v12.76" fill="none" stroke="#000" stroke-miterlimit="10" pointer-events="stroke"/><path d="m981.5 109.88 4.5 9 4.5-9" fill="none" stroke="#000" stroke-miterlimit="10" pointer-events="all"/><path fill="#7acff5" stroke="#000" pointer-events="all" d="M510 227h248v44H510z"/><path d="M510 243.29h248" fill="none" stroke="#000" stroke-miterlimit="10" pointer-events="all"/><text x="633.5" y="238.5" font-family="Helvetica" font-weight="bold" text-anchor="middle" font-size="12">FLandscapeComponentSceneProxy</text><path fill="#7acff5" stroke="#000" pointer-events="all" d="M510 310h248v44H510z"/><path d="M510 326.29h248" fill="none" stroke="#000" stroke-miterlimit="10" pointer-events="all"/><text x="633.5" y="321.5" font-family="Helvetica" font-weight="bold" text-anchor="middle" font-size="12">FLandscapeComponentSceneProxyMobile</text><path d="M634 191.12V227" fill="none" stroke="#000" stroke-miterlimit="10" pointer-events="stroke"/><path d="m634 179.12 6 12h-12Z" fill="none" stroke="#000" stroke-miterlimit="10" pointer-events="all"/><path d="M634 284.12V310" fill="none" stroke="#000" stroke-miterlimit="10" pointer-events="stroke"/><path d="m634 272.12 6 12h-12Z" fill="none" stroke="#000" stroke-miterlimit="10" pointer-events="all"/><path d="M258 83.12V107" fill="none" stroke="#000" stroke-miterlimit="10" pointer-events="stroke"/><path d="m258 71.12 6 12h-12Z" fill="none" stroke="#000" stroke-miterlimit="10" pointer-events="all"/><path d="M258 164.12V193" fill="none" stroke="#000" stroke-miterlimit="10" pointer-events="stroke"/><path d="m258 152.12 6 12h-12Z" fill="none" stroke="#000" stroke-miterlimit="10" pointer-events="all"/><path d="M258 265.12v7.94q0 7.94-10 7.94H106q-10 0-10 10v19" fill="none" stroke="#000" stroke-miterlimit="10" pointer-events="stroke"/><path d="m258 253.12 6 12h-12Z" fill="none" stroke="#000" stroke-miterlimit="10" pointer-events="all"/><path d="M258 265.12v7.94q0 7.94 10 7.94h69q10 0 10 10v19" fill="none" stroke="#000" stroke-miterlimit="10" pointer-events="stroke"/><path d="m258 253.12 6 12h-12Z" fill="none" stroke="#000" stroke-miterlimit="10" pointer-events="all"/><path d="M829 149h22.5q10 0 20 .06l22.5.14M411 223h13V46h163.76" fill="none" stroke="#000" stroke-miterlimit="10" pointer-events="stroke"/><path d="m579.88 50.5 9-4.5-9-4.5" fill="none" stroke="#000" stroke-miterlimit="10" pointer-events="all"/><path d="m782 82-1 24H634v11.76" fill="none" stroke="#000" stroke-miterlimit="10" pointer-events="stroke"/><path d="m629.5 109.88 4.5 9 4.5-9" fill="none" stroke="#000" stroke-miterlimit="10" pointer-events="all"/><path d="M782 82v23h204v12.76" fill="none" stroke="#000" stroke-miterlimit="10" pointer-events="stroke"/><path d="m981.5 109.88 4.5 9 4.5-9" fill="none" stroke="#000" stroke-miterlimit="10" pointer-events="all"/><path d="M634 191.12V227" fill="none" stroke="#000" stroke-miterlimit="10" pointer-events="stroke"/><path d="m634 179.12 6 12h-12Z" fill="none" stroke="#000" stroke-miterlimit="10" pointer-events="all"/><path d="M634 284.12V310" fill="none" stroke="#000" stroke-miterlimit="10" pointer-events="stroke"/><path d="m634 272.12 6 12h-12Z" fill="none" stroke="#000" stroke-miterlimit="10" pointer-events="all"/></svg>