<svg width="1313" height="540" xmlns="http://www.w3.org/2000/svg" xmlns:xlink="http://www.w3.org/1999/xlink">
 <g>
  <title>Layer 1</title>
  <rect stroke="#000" id="svg_614" height="539" width="1315" y="0.5" x="1.5" fill="#e2e2e2"/>
  <g id="svg_1">
   <path d="m20,27a6,6 0 0 1 6,-6l288,0a6,6 0 0 1 6,6l0,487a6,6 0 0 1 -6,6l-288,0a6,6 0 0 1 -6,-6l0,-487z" stroke="#3a414a" fill="#fff" id="svg_2"/>
   <use xlink:href="#a" transform="matrix(1 0 0 1 372 290.778)" y="-240" x="-340" id="svg_3"/>
   <path d="m367,97a6,6 0 0 1 6,-6l28,0a6,6 0 0 1 6,6l0,28a6,6 0 0 1 -6,6l-28,0a6,6 0 0 1 -6,-6l0,-28z" stroke="#3a414a" fill="#d7faf5" id="svg_4"/>
   <use xlink:href="#b" transform="matrix(1 0 0 1 721.444 360.778)" y="-240" x="-340" id="svg_5"/>
   <path d="m407,97a6,6 0 0 1 6,-6l28,0a6,6 0 0 1 6,6l0,28a6,6 0 0 1 -6,6l-28,0a6,6 0 0 1 -6,-6l0,-28z" stroke="#3a414a" fill="#d7faf5" id="svg_6"/>
   <use xlink:href="#c" transform="matrix(1 0 0 1 761.444 360.778)" y="-240" x="-340" id="svg_7"/>
   <path d="m447,97a6,6 0 0 1 6,-6l28,0a6,6 0 0 1 6,6l0,28a6,6 0 0 1 -6,6l-28,0a6,6 0 0 1 -6,-6l0,-28z" stroke="#3a414a" fill="#fcfcca" id="svg_8"/>
   <use xlink:href="#b" transform="matrix(1 0 0 1 801.444 360.778)" y="-240" x="-340" id="svg_9"/>
   <path d="m487,97a6,6 0 0 1 6,-6l28,0a6,6 0 0 1 6,6l0,28a6,6 0 0 1 -6,6l-28,0a6,6 0 0 1 -6,-6l0,-28z" stroke="#3a414a" fill="#fcfcca" id="svg_10"/>
   <use xlink:href="#c" transform="matrix(1 0 0 1 841.444 360.778)" y="-240" x="-340" id="svg_11"/>
   <path d="m527,97a6,6 0 0 1 6,-6l28,0a6,6 0 0 1 6,6l0,28a6,6 0 0 1 -6,6l-28,0a6,6 0 0 1 -6,-6l0,-28z" stroke="#3a414a" fill="#fcfcca" id="svg_12"/>
   <use xlink:href="#b" transform="matrix(1 0 0 1 881.444 360.778)" y="-240" x="-340" id="svg_13"/>
   <path d="m567,97a6,6 0 0 1 6,-6l28,0a6,6 0 0 1 6,6l0,28a6,6 0 0 1 -6,6l-28,0a6,6 0 0 1 -6,-6l0,-28z" stroke="#3a414a" fill="#d7faf5" id="svg_14"/>
   <use xlink:href="#c" transform="matrix(1 0 0 1 921.444 360.778)" y="-240" x="-340" id="svg_15"/>
   <path d="m607,97a6,6 0 0 1 6,-6l28,0a6,6 0 0 1 6,6l0,28a6,6 0 0 1 -6,6l-28,0a6,6 0 0 1 -6,-6l0,-28z" stroke="#3a414a" fill="#d7faf5" id="svg_16"/>
   <use xlink:href="#c" transform="matrix(1 0 0 1 961.444 360.778)" y="-240" x="-340" id="svg_17"/>
   <path d="m647,97a6,6 0 0 1 6,-6l28,0a6,6 0 0 1 6,6l0,28a6,6 0 0 1 -6,6l-28,0a6,6 0 0 1 -6,-6l0,-28z" stroke="#3a414a" fill="#d7faf5" id="svg_18"/>
   <use xlink:href="#c" transform="matrix(1 0 0 1 1001.44 360.778)" y="-240" x="-340" id="svg_19"/>
   <path d="m687,97a6,6 0 0 1 6,-6l28,0a6,6 0 0 1 6,6l0,28a6,6 0 0 1 -6,6l-28,0a6,6 0 0 1 -6,-6l0,-28z" stroke="#3a414a" fill="#fcfcca" id="svg_20"/>
   <use xlink:href="#c" transform="matrix(1 0 0 1 1041.44 360.778)" y="-240" x="-340" id="svg_21"/>
   <path d="m727,97a6,6 0 0 1 6,-6l28,0a6,6 0 0 1 6,6l0,28a6,6 0 0 1 -6,6l-28,0a6,6 0 0 1 -6,-6l0,-28z" stroke="#3a414a" fill="#fcfcca" id="svg_22"/>
   <use xlink:href="#c" transform="matrix(1 0 0 1 1081.44 360.778)" y="-240" x="-340" id="svg_23"/>
   <path d="m767,97a6,6 0 0 1 6,-6l28,0a6,6 0 0 1 6,6l0,28a6,6 0 0 1 -6,6l-28,0a6,6 0 0 1 -6,-6l0,-28z" stroke="#3a414a" fill="#fcfcca" id="svg_24"/>
   <use xlink:href="#c" transform="matrix(1 0 0 1 1121.44 360.778)" y="-240" x="-340" id="svg_25"/>
   <path d="m807,97a6,6 0 0 1 6,-6l28,0a6,6 0 0 1 6,6l0,28a6,6 0 0 1 -6,6l-28,0a6,6 0 0 1 -6,-6l0,-28z" stroke="#3a414a" fill="#d7faf5" id="svg_26"/>
   <use xlink:href="#c" transform="matrix(1 0 0 1 1161.44 360.778)" y="-240" x="-340" id="svg_27"/>
   <path d="m847,97a6,6 0 0 1 6,-6l28,0a6,6 0 0 1 6,6l0,28a6,6 0 0 1 -6,6l-28,0a6,6 0 0 1 -6,-6l0,-28z" stroke="#3a414a" fill="#d7faf5" id="svg_28"/>
   <use xlink:href="#c" transform="matrix(1 0 0 1 1201.44 360.778)" y="-240" x="-340" id="svg_29"/>
   <path d="m887,97a6,6 0 0 1 6,-6l28,0a6,6 0 0 1 6,6l0,28a6,6 0 0 1 -6,6l-28,0a6,6 0 0 1 -6,-6l0,-28z" stroke="#3a414a" fill="#d7faf5" id="svg_30"/>
   <use xlink:href="#c" transform="matrix(1 0 0 1 1241.44 360.778)" y="-240" x="-340" id="svg_31"/>
   <path d="m47,86a6,6 0 0 1 6,-6l239.84,0a6,6 0 0 1 6,6l0,168a6,6 0 0 1 -6,6l-239.84,0a6,6 0 0 1 -6,-6l0,-168z" stroke="#3a414a" fill="#fff" id="svg_32"/>
   <use xlink:href="#d" transform="matrix(1 0 0 1 399 349.778)" y="-240" x="-340" id="svg_33"/>
   <path d="m47,146a6,6 0 0 1 6,-6l239.84,0a6,6 0 0 1 6,6l0,28a6,6 0 0 1 -6,6l-239.84,0a6,6 0 0 1 -6,-6l0,-28z" stroke="#3a414a" fill="#fff" id="svg_34"/>
   <use xlink:href="#e" transform="matrix(1 0 0 1 414.79 409.778)" y="-240" x="-340" id="svg_35"/>
   <path d="m47,186a6,6 0 0 1 6,-6l239.84,0a6,6 0 0 1 6,6l0,28a6,6 0 0 1 -6,6l-239.84,0a6,6 0 0 1 -6,-6l0,-28z" stroke="#3a414a" fill="#fff" id="svg_36"/>
   <use xlink:href="#f" transform="matrix(1 0 0 1 418.741 449.778)" y="-240" x="-340" id="svg_37"/>
   <path d="m47,226a6,6 0 0 1 6,-6l239.84,0a6,6 0 0 1 6,6l0,28a6,6 0 0 1 -6,6l-239.84,0a6,6 0 0 1 -6,-6l0,-28z" stroke="#3a414a" fill="#fff" id="svg_38"/>
   <use xlink:href="#g" transform="matrix(1 0 0 1 403.216 489.778)" y="-240" x="-340" id="svg_39"/>
   <path d="m299.84,160l241.16,0a6,6 0 0 0 6,-6l0,-6.12" stroke="#ff8f8f" fill="none" id="svg_40"/>
   <path d="m299.85,160.5l-0.5,0l0,-1l0.5,0l0,1z" stroke="#ff8f8f" stroke-width="0.05" fill="#ff8f8f" id="svg_41"/>
   <path d="m547,133.12l4.63,14.26l-9.26,0l4.63,-14.26z" stroke="#ff8f8f" fill="#ff8f8f" id="svg_42"/>
   <path d="m299.84,200l165.16,0a6,6 0 0 0 6,-6l0,-46.12" stroke="#e81313" fill="none" id="svg_43"/>
   <path d="m299.85,200.5l-0.5,0l0,-1l0.5,0l0,1z" stroke="#e81313" stroke-width="0.05" fill="#e81313" id="svg_44"/>
   <path d="m471,133.12l4.63,14.26l-9.26,0l4.63,-14.26z" stroke="#e81313" fill="#e81313" id="svg_45"/>
   <path d="m299.84,240l81.16,0a6,6 0 0 0 6,-6l0,-86.12" stroke="#008573" fill="none" id="svg_46"/>
   <path d="m299.85,240.5l-0.5,0l0,-1l0.5,0l0,1z" stroke="#008573" stroke-width="0.05" fill="#008573" id="svg_47"/>
   <path d="m387,133.12l4.63,14.26l-9.26,0l4.63,-14.26z" stroke="#008573" fill="#008573" id="svg_48"/>
   <path d="m860.5,57.33a6,6 0 0 1 6,-6l81,0a6,6 0 0 1 6,6l0,28a6,6 0 0 1 -6,6l-81,0a6,6 0 0 1 -6,-6l0,-28z" stroke="#000" stroke-opacity="0" fill="#fff" fill-opacity="0" id="svg_49"/>
   <use xlink:href="#c" transform="matrix(1 0 0 1 1241.44 315.986)" y="-240" x="-340" id="svg_50"/>
   <path d="m740.5,57.33a6,6 0 0 1 6,-6l81,0a6,6 0 0 1 6,6l0,28a6,6 0 0 1 -6,6l-81,0a6,6 0 0 1 -6,-6l0,-28z" stroke="#000" stroke-opacity="0" fill="#fff" fill-opacity="0" id="svg_51"/>
   <use xlink:href="#h" transform="matrix(1 0 0 1 1121.44 315.986)" y="-240" x="-340" id="svg_52"/>
   <path d="m620.5,57a6,6 0 0 1 6,-6l81,0a6,6 0 0 1 6,6l0,28.67a6,6 0 0 1 -6,6l-81,0a6,6 0 0 1 -6,-6l0,-28.67z" stroke="#000" stroke-opacity="0" fill="#fff" fill-opacity="0" id="svg_53"/>
   <use xlink:href="#i" transform="matrix(1 0 0 1 1001.44 315.715)" y="-240" x="-340" id="svg_54"/>
   <path d="m500.5,57a6,6 0 0 1 6,-6l81,0a6,6 0 0 1 6,6l0,28.67a6,6 0 0 1 -6,6l-81,0a6,6 0 0 1 -6,-6l0,-28.67z" stroke="#000" stroke-opacity="0" fill="#fff" fill-opacity="0" id="svg_55"/>
   <use xlink:href="#j" transform="matrix(1 0 0 1 881.444 315.715)" y="-240" x="-340" id="svg_56"/>
   <path d="m380.5,57a6,6 0 0 1 6,-6l81,0a6,6 0 0 1 6,6l0,28.67a6,6 0 0 1 -6,6l-81,0a6,6 0 0 1 -6,-6l0,-28.67z" stroke="#000" stroke-opacity="0" fill="#fff" fill-opacity="0" id="svg_57"/>
   <use xlink:href="#k" transform="matrix(1 0 0 1 755.889 315.715)" y="-240" x="-340" id="svg_58"/>
   <path d="m47,286a6,6 0 0 1 6,-6l239.84,0a6,6 0 0 1 6,6l0,48a6,6 0 0 1 -6,6l-239.84,0a6,6 0 0 1 -6,-6l0,-48z" stroke="#3a414a" fill="#fff" id="svg_59"/>
   <use xlink:href="#l" transform="matrix(1 0 0 1 399 549.778)" y="-240" x="-340" id="svg_60"/>
   <path d="m47,366a6,6 0 0 1 6,-6l239.84,0a6,6 0 0 1 6,6l0,48a6,6 0 0 1 -6,6l-239.84,0a6,6 0 0 1 -6,-6l0,-48z" stroke="#3a414a" fill="#fff" id="svg_61"/>
   <use xlink:href="#m" transform="matrix(1 0 0 1 399 629.778)" y="-240" x="-340" id="svg_62"/>
   <path d="m47,446a6,6 0 0 1 6,-6l239.84,0a6,6 0 0 1 6,6l0,48a6,6 0 0 1 -6,6l-239.84,0a6,6 0 0 1 -6,-6l0,-48z" stroke="#3a414a" fill="#fff" id="svg_63"/>
   <use xlink:href="#n" transform="matrix(1 0 0 1 399 709.778)" y="-240" x="-340" id="svg_64"/>
   <path d="m993,26a6,6 0 0 1 6,-6l288,0a6,6 0 0 1 6,6l0,487a6,6 0 0 1 -6,6l-288,0a6,6 0 0 1 -6,-6l0,-487z" stroke="#3a414a" fill="#fff" id="svg_65"/>
   <use xlink:href="#o" transform="matrix(1 0 0 1 1345 289.778)" y="-240" x="-340" id="svg_66"/>
   <path d="m367,306a6,6 0 0 1 6,-6l28,0a6,6 0 0 1 6,6l0,28a6,6 0 0 1 -6,6l-28,0a6,6 0 0 1 -6,-6l0,-28z" stroke="#3a414a" fill="#d7faf5" id="svg_67"/>
   <use xlink:href="#b" transform="matrix(1 0 0 1 721.444 569.778)" y="-240" x="-340" id="svg_68"/>
   <path d="m407,306a6,6 0 0 1 6,-6l28,0a6,6 0 0 1 6,6l0,28a6,6 0 0 1 -6,6l-28,0a6,6 0 0 1 -6,-6l0,-28z" stroke="#3a414a" fill="#d7faf5" id="svg_69"/>
   <use xlink:href="#c" transform="matrix(1 0 0 1 761.444 569.778)" y="-240" x="-340" id="svg_70"/>
   <path d="m447,306a6,6 0 0 1 6,-6l28,0a6,6 0 0 1 6,6l0,28a6,6 0 0 1 -6,6l-28,0a6,6 0 0 1 -6,-6l0,-28z" stroke="#3a414a" fill="#fcfcca" id="svg_71"/>
   <use xlink:href="#c" transform="matrix(1 0 0 1 801.444 569.778)" y="-240" x="-340" id="svg_72"/>
   <path d="m487,306a6,6 0 0 1 6,-6l28,0a6,6 0 0 1 6,6l0,28a6,6 0 0 1 -6,6l-28,0a6,6 0 0 1 -6,-6l0,-28z" stroke="#3a414a" fill="#fcfcca" id="svg_73"/>
   <use xlink:href="#b" transform="matrix(1 0 0 1 841.444 569.778)" y="-240" x="-340" id="svg_74"/>
   <path d="m527,306a6,6 0 0 1 6,-6l28,0a6,6 0 0 1 6,6l0,28a6,6 0 0 1 -6,6l-28,0a6,6 0 0 1 -6,-6l0,-28z" stroke="#3a414a" fill="#fcfcca" id="svg_75"/>
   <use xlink:href="#b" transform="matrix(1 0 0 1 881.444 569.778)" y="-240" x="-340" id="svg_76"/>
   <path d="m567,306a6,6 0 0 1 6,-6l28,0a6,6 0 0 1 6,6l0,28a6,6 0 0 1 -6,6l-28,0a6,6 0 0 1 -6,-6l0,-28z" stroke="#3a414a" fill="#d7faf5" id="svg_77"/>
   <use xlink:href="#c" transform="matrix(1 0 0 1 921.444 569.778)" y="-240" x="-340" id="svg_78"/>
   <path d="m607,306a6,6 0 0 1 6,-6l28,0a6,6 0 0 1 6,6l0,28a6,6 0 0 1 -6,6l-28,0a6,6 0 0 1 -6,-6l0,-28z" stroke="#3a414a" fill="#d7faf5" id="svg_79"/>
   <use xlink:href="#c" transform="matrix(1 0 0 1 961.444 569.778)" y="-240" x="-340" id="svg_80"/>
   <path d="m647,306a6,6 0 0 1 6,-6l28,0a6,6 0 0 1 6,6l0,28a6,6 0 0 1 -6,6l-28,0a6,6 0 0 1 -6,-6l0,-28z" stroke="#3a414a" fill="#d7faf5" id="svg_81"/>
   <use xlink:href="#c" transform="matrix(1 0 0 1 1001.44 569.778)" y="-240" x="-340" id="svg_82"/>
   <path d="m687,306a6,6 0 0 1 6,-6l28,0a6,6 0 0 1 6,6l0,28a6,6 0 0 1 -6,6l-28,0a6,6 0 0 1 -6,-6l0,-28z" stroke="#3a414a" fill="#fcfcca" id="svg_83"/>
   <use xlink:href="#c" transform="matrix(1 0 0 1 1041.44 569.778)" y="-240" x="-340" id="svg_84"/>
   <path d="m727,306a6,6 0 0 1 6,-6l28,0a6,6 0 0 1 6,6l0,28a6,6 0 0 1 -6,6l-28,0a6,6 0 0 1 -6,-6l0,-28z" stroke="#3a414a" fill="#fcfcca" id="svg_85"/>
   <use xlink:href="#c" transform="matrix(1 0 0 1 1081.44 569.778)" y="-240" x="-340" id="svg_86"/>
   <path d="m767,306a6,6 0 0 1 6,-6l28,0a6,6 0 0 1 6,6l0,28a6,6 0 0 1 -6,6l-28,0a6,6 0 0 1 -6,-6l0,-28z" stroke="#3a414a" fill="#fcfcca" id="svg_87"/>
   <use xlink:href="#c" transform="matrix(1 0 0 1 1121.44 569.778)" y="-240" x="-340" id="svg_88"/>
   <path d="m807,306a6,6 0 0 1 6,-6l28,0a6,6 0 0 1 6,6l0,28a6,6 0 0 1 -6,6l-28,0a6,6 0 0 1 -6,-6l0,-28z" stroke="#3a414a" fill="#d7faf5" id="svg_89"/>
   <use xlink:href="#c" transform="matrix(1 0 0 1 1161.44 569.778)" y="-240" x="-340" id="svg_90"/>
   <path d="m847,306a6,6 0 0 1 6,-6l28,0a6,6 0 0 1 6,6l0,28a6,6 0 0 1 -6,6l-28,0a6,6 0 0 1 -6,-6l0,-28z" stroke="#3a414a" fill="#d7faf5" id="svg_91"/>
   <use xlink:href="#c" transform="matrix(1 0 0 1 1201.44 569.778)" y="-240" x="-340" id="svg_92"/>
   <path d="m887,306a6,6 0 0 1 6,-6l28,0a6,6 0 0 1 6,6l0,28a6,6 0 0 1 -6,6l-28,0a6,6 0 0 1 -6,-6l0,-28z" stroke="#3a414a" fill="#d7faf5" id="svg_93"/>
   <use xlink:href="#c" transform="matrix(1 0 0 1 1241.44 569.778)" y="-240" x="-340" id="svg_94"/>
   <path d="m1020,85a6,6 0 0 1 6,-6l239.84,0a6,6 0 0 1 6,6l0,168a6,6 0 0 1 -6,6l-239.84,0a6,6 0 0 1 -6,-6l0,-168z" stroke="#3a414a" fill="#fff" id="svg_95"/>
   <use xlink:href="#d" transform="matrix(1 0 0 1 1372 348.778)" y="-240" x="-340" id="svg_96"/>
   <path d="m1020,145a6,6 0 0 1 6,-6l239.84,0a6,6 0 0 1 6,6l0,28a6,6 0 0 1 -6,6l-239.84,0a6,6 0 0 1 -6,-6l0,-28z" stroke="#3a414a" fill="#fff" id="svg_97"/>
   <use xlink:href="#e" transform="matrix(1 0 0 1 1387.79 408.778)" y="-240" x="-340" id="svg_98"/>
   <path d="m1020,185a6,6 0 0 1 6,-6l239.84,0a6,6 0 0 1 6,6l0,28a6,6 0 0 1 -6,6l-239.84,0a6,6 0 0 1 -6,-6l0,-28z" stroke="#3a414a" fill="#fff" id="svg_99"/>
   <use xlink:href="#p" transform="matrix(1 0 0 1 1382.54 448.778)" y="-240" x="-340" id="svg_100"/>
   <path d="m1020,225a6,6 0 0 1 6,-6l239.84,0a6,6 0 0 1 6,6l0,28a6,6 0 0 1 -6,6l-239.84,0a6,6 0 0 1 -6,-6l0,-28z" stroke="#3a414a" fill="#fff" id="svg_101"/>
   <use xlink:href="#g" transform="matrix(1 0 0 1 1376.22 488.778)" y="-240" x="-340" id="svg_102"/>
   <path d="m1019,199.5l-43,0a6,6 0 0 0 -6,6l0,198.5a6,6 0 0 1 -6,6l-451,0a6,6 0 0 1 -6,-6l0,-47.12" stroke="#635dff" fill="none" id="svg_103"/>
   <path d="m1019.5,200l-0.5,0l0,-1l0.5,0l0,1z" stroke="#635dff" stroke-width="0.05" fill="#635dff" id="svg_104"/>
   <path d="m507,342.12l4.63,14.26l-9.26,0l4.63,-14.26z" stroke="#635dff" fill="#635dff" id="svg_105"/>
   <path d="m1019,241.5l-33,0a6,6 0 0 0 -6,6l0,196.5a6,6 0 0 1 -6,6l-581,0a6,6 0 0 1 -6,-6l0,-87.12" stroke="#008573" fill="none" id="svg_106"/>
   <path d="m1019.5,242l-0.5,0l0,-1l0.5,0l0,1z" stroke="#008573" stroke-width="0.05" fill="#008573" id="svg_107"/>
   <path d="m387,342.12l4.63,14.26l-9.26,0l4.63,-14.26z" stroke="#008573" fill="#008573" id="svg_108"/>
   <path d="m860.5,266.33a6,6 0 0 1 6,-6l81,0a6,6 0 0 1 6,6l0,28a6,6 0 0 1 -6,6l-81,0a6,6 0 0 1 -6,-6l0,-28z" stroke="#000" stroke-opacity="0" fill="#fff" fill-opacity="0" id="svg_109"/>
   <use xlink:href="#c" transform="matrix(1 0 0 1 1241.44 524.986)" y="-240" x="-340" id="svg_110"/>
   <path d="m740.5,266.33a6,6 0 0 1 6,-6l81,0a6,6 0 0 1 6,6l0,28a6,6 0 0 1 -6,6l-81,0a6,6 0 0 1 -6,-6l0,-28z" stroke="#000" stroke-opacity="0" fill="#fff" fill-opacity="0" id="svg_111"/>
   <use xlink:href="#h" transform="matrix(1 0 0 1 1121.44 524.986)" y="-240" x="-340" id="svg_112"/>
   <path d="m620.5,266a6,6 0 0 1 6,-6l81,0a6,6 0 0 1 6,6l0,28.67a6,6 0 0 1 -6,6l-81,0a6,6 0 0 1 -6,-6l0,-28.67z" stroke="#000" stroke-opacity="0" fill="#fff" fill-opacity="0" id="svg_113"/>
   <use xlink:href="#i" transform="matrix(1 0 0 1 1001.44 524.715)" y="-240" x="-340" id="svg_114"/>
   <path d="m500.5,266a6,6 0 0 1 6,-6l81,0a6,6 0 0 1 6,6l0,28.67a6,6 0 0 1 -6,6l-81,0a6,6 0 0 1 -6,-6l0,-28.67z" stroke="#000" stroke-opacity="0" fill="#fff" fill-opacity="0" id="svg_115"/>
   <use xlink:href="#j" transform="matrix(1 0 0 1 881.444 524.715)" y="-240" x="-340" id="svg_116"/>
   <path d="m380.5,266a6,6 0 0 1 6,-6l81,0a6,6 0 0 1 6,6l0,28.67a6,6 0 0 1 -6,6l-81,0a6,6 0 0 1 -6,-6l0,-28.67z" stroke="#000" stroke-opacity="0" fill="#fff" fill-opacity="0" id="svg_117"/>
   <use xlink:href="#k" transform="matrix(1 0 0 1 755.889 524.715)" y="-240" x="-340" id="svg_118"/>
   <path d="m1020,285a6,6 0 0 1 6,-6l239.84,0a6,6 0 0 1 6,6l0,48a6,6 0 0 1 -6,6l-239.84,0a6,6 0 0 1 -6,-6l0,-48z" stroke="#3a414a" fill="#fff" id="svg_119"/>
   <use xlink:href="#l" transform="matrix(1 0 0 1 1372 548.778)" y="-240" x="-340" id="svg_120"/>
   <path d="m1020,365a6,6 0 0 1 6,-6l239.84,0a6,6 0 0 1 6,6l0,48a6,6 0 0 1 -6,6l-239.84,0a6,6 0 0 1 -6,-6l0,-48z" stroke="#3a414a" fill="#fff" id="svg_121"/>
   <use xlink:href="#m" transform="matrix(1 0 0 1 1372 628.778)" y="-240" x="-340" id="svg_122"/>
   <path d="m1020,445a6,6 0 0 1 6,-6l239.84,0a6,6 0 0 1 6,6l0,48a6,6 0 0 1 -6,6l-239.84,0a6,6 0 0 1 -6,-6l0,-48z" stroke="#3a414a" fill="#fff" id="svg_123"/>
   <use xlink:href="#n" transform="matrix(1 0 0 1 1372 708.778)" y="-240" x="-340" id="svg_124"/>
   <path d="m1019,159l-53,0a6,6 0 0 0 -6,6l0,209.5a6,6 0 0 1 -6,6l-401,0a6,6 0 0 1 -6,-6l0,-17.62" stroke="#ff8f8f" fill="none" id="svg_125"/>
   <path d="m1019.5,159.5l-0.5,0l0,-1l0.5,0l0,1z" stroke="#ff8f8f" stroke-width="0.05" fill="#ff8f8f" id="svg_126"/>
   <path d="m547,342.12l4.63,14.26l-9.26,0l4.63,-14.26z" stroke="#ff8f8f" fill="#ff8f8f" id="svg_127"/>
   <defs transform="translate(-340 -240)">
    <path fill="#3a414a" d="m76,-116c0,86 71,126 135,84l6,-39l16,0l-1,60c-94,32 -214,12 -214,-104c0,-117 106,-141 210,-112l1,57l-16,0l-5,-34c-13,-9 -32,-16 -54,-16c-60,0 -78,42 -78,104" id="q"/>
    <path fill="#3a414a" d="m132,-132c-21,0 -37,9 -50,16l0,100l26,4l0,12l-98,0l0,-12l21,-4l0,-133l-21,-5l0,-11l69,0l2,34c17,-18 35,-41 71,-40l0,61c-17,3 -14,-14 -20,-22" id="r"/>
    <path fill="#3a414a" d="m90,-170c54,-1 76,32 76,87c1,56 -23,87 -77,87c-53,0 -75,-32 -75,-87s23,-86 76,-87zm-1,156c28,-2 26,-38 26,-69s3,-69 -26,-69c-27,0 -24,39 -24,69s-3,66 24,69" id="s"/>
    <path fill="#3a414a" d="m186,-86c2,69 -46,103 -114,85l1,62l25,4l0,12l-93,0l0,-12l18,-4l0,-210l-18,-5l0,-11l67,0l0,8c12,-8 26,-13 46,-13c49,2 67,30 68,84zm-83,71c28,0 31,-33 31,-69c0,-34 -2,-66 -30,-66c-12,0 -23,3 -31,7l0,124c9,2 20,4 30,4" id="t"/>
    <path fill="#3a414a" d="m75,-13l0,13l-71,0l0,-13l17,-5l84,-220l51,0l83,220l18,5l0,13l-105,0l0,-13l28,-5l-23,-61l-90,0l-22,61l30,5zm38,-189l-39,104l76,0" id="u"/>
    <path fill="#3a414a" d="m109,-18c15,0 31,-2 42,-6l0,14c-11,9 -31,13 -51,13c-59,0 -86,-28 -88,-86c-3,-75 66,-101 135,-80l0,48l-13,0c-3,-20 -7,-40 -34,-37c-51,7 -55,138 9,134" id="v"/>
    <path fill="#3a414a" d="m127,-114c3,-31 -26,-38 -50,-25l0,123l15,4l0,12l-82,0l0,-12l16,-4l0,-218l-17,-4l0,-12l68,0l-1,99c31,-23 102,-32 102,30l0,105l17,4l0,12l-82,0l0,-12l14,-4l0,-98" id="w"/>
    <path fill="#3a414a" d="m12,-83c0,-55 22,-85 75,-86c52,-1 66,33 63,88l-86,0c-1,37 6,64 44,63c14,0 28,-4 39,-6c3,28 -28,25 -55,27c-57,4 -80,-31 -80,-86zm90,-17c2,-26 0,-63 -27,-48c-10,9 -11,28 -11,48l38,0" id="x"/>
    <path fill="#3a414a" d="m78,-41c-2,24 21,26 40,20c4,24 -20,23 -41,25c-72,6 -45,-88 -50,-151l-21,0l0,-11l25,-7l21,-38l26,0l0,38l35,0l0,18l-35,0l0,106" id="y"/>
    <path fill="#3a414a" d="m81,5l-66,-154c-7,-2 -13,-5 -11,-16l84,0l0,11l-20,5l39,91l35,-91l-19,-5l0,-11l53,0c2,11 -4,13 -11,15c-31,69 -54,145 -90,208c-10,19 -41,25 -67,16l0,-42l11,0c0,24 29,35 43,12c7,-11 13,-25 19,-39" id="z"/>
    <g id="a">
     <use transform="matrix(0.06172839506172839,0,0,0.06172839506172839,0,0)" xlink:href="#q" id="svg_128"/>
     <use transform="matrix(0.06172839506172839,0,0,0.06172839506172839,15.987654320987653,0)" xlink:href="#r" id="svg_129"/>
     <use transform="matrix(0.06172839506172839,0,0,0.06172839506172839,25.37037037037037,0)" xlink:href="#s" id="svg_130"/>
     <use transform="matrix(0.06172839506172839,0,0,0.06172839506172839,36.48148148148148,0)" xlink:href="#t" id="svg_131"/>
     <use transform="matrix(0.06172839506172839,0,0,0.06172839506172839,48.82716049382716,0)" xlink:href="#u" id="svg_132"/>
     <use transform="matrix(0.06172839506172839,0,0,0.06172839506172839,64.81481481481481,0)" xlink:href="#r" id="svg_133"/>
     <use transform="matrix(0.06172839506172839,0,0,0.06172839506172839,74.19753086419752,0)" xlink:href="#v" id="svg_134"/>
     <use transform="matrix(0.06172839506172839,0,0,0.06172839506172839,84.01234567901233,0)" xlink:href="#w" id="svg_135"/>
     <use transform="matrix(0.06172839506172839,0,0,0.06172839506172839,96.35802469135801,0)" xlink:href="#x" id="svg_136"/>
     <use transform="matrix(0.06172839506172839,0,0,0.06172839506172839,106.17283950617282,0)" xlink:href="#y" id="svg_137"/>
     <use transform="matrix(0.06172839506172839,0,0,0.06172839506172839,113.5185185185185,0)" xlink:href="#z" id="svg_138"/>
     <use transform="matrix(0.06172839506172839,0,0,0.06172839506172839,124.62962962962962,0)" xlink:href="#t" id="svg_139"/>
     <use transform="matrix(0.06172839506172839,0,0,0.06172839506172839,136.9753086419753,0)" xlink:href="#x" id="svg_140"/>
    </g>
    <path fill="#3a414a" d="m110,-14l48,5l0,9l-126,0l0,-9l48,-5l0,-192l-48,17l0,-10l69,-39l9,0l0,224" id="A"/>
    <use transform="matrix(0.06172839506172839,0,0,0.06172839506172839,0,0)" xlink:href="#A" id="b"/>
    <path fill="#3a414a" d="m90,-239c59,0 76,52 76,120s-14,123 -77,123c-58,0 -75,-55 -75,-123c0,-67 17,-120 76,-120zm-1,229c45,-6 45,-58 45,-109c0,-50 0,-101 -45,-106c-45,4 -43,57 -43,106c0,50 -2,104 43,109" id="B"/>
    <use transform="matrix(0.06172839506172839,0,0,0.06172839506172839,0,0)" xlink:href="#B" id="c"/>
    <path fill="#3a414a" d="m92,-101l0,83l39,5l0,13l-123,0l0,-13l28,-5l0,-200l-30,-5l0,-13l197,0l0,64l-17,0l-5,-42c-27,-3 -59,-2 -89,-2l0,96l57,0l6,-30l15,0l0,80l-15,0l-6,-31l-57,0" id="C"/>
    <path fill="#3a414a" d="m31,-163c51,-5 127,-20 127,40l0,107l17,4l0,12l-61,0l-4,-13c-28,26 -98,25 -98,-33c0,-51 46,-52 95,-53c9,-45 -22,-69 -57,-44l-7,20l-12,0l0,-40zm31,116c0,30 26,34 45,23l0,-59c-28,0 -45,6 -45,36" id="D"/>
    <path fill="#3a414a" d="m9,41c2,-18 18,-26 32,-33c-12,-7 -25,-17 -25,-36l29,-33c-21,-9 -31,-25 -31,-51c-2,-56 61,-65 111,-53l39,-20c13,12 -9,24 -14,36c35,54 -17,114 -90,92c-17,34 27,28 56,28c36,-1 61,12 60,46c-2,46 -39,62 -91,62c-38,0 -71,-6 -76,-38zm35,-3c6,35 97,29 94,-9c-2,-28 -50,-14 -78,-17c-8,7 -15,14 -16,26zm20,-150c0,22 4,40 23,40c20,0 24,-17 24,-40c0,-24 -4,-40 -24,-40c-19,0 -23,17 -23,40" id="E"/>
    <path fill="#3a414a" d="m126,-114c3,-31 -27,-37 -49,-25l0,123l15,4l0,12l-82,0l0,-12l16,-4l0,-133l-16,-5l0,-11l64,0l2,14c24,-16 81,-33 96,3c30,-24 105,-39 105,27l0,105l17,4l0,12l-82,0l0,-12l14,-4l0,-98c4,-33 -27,-37 -51,-24c5,35 0,82 2,122l17,4l0,12l-83,0l0,-12l15,-4l0,-98" id="F"/>
    <path fill="#3a414a" d="m127,-114c3,-31 -26,-38 -50,-25l0,123l15,4l0,12l-82,0l0,-12l16,-4l0,-133l-16,-5l0,-11l64,0l2,14c31,-23 102,-32 102,30l0,105l17,4l0,12l-82,0l0,-12l14,-4l0,-98" id="G"/>
    <path fill="#3a414a" d="m102,-142c-14,-17 -68,-15 -54,18c24,26 83,17 83,72c0,62 -72,62 -120,47l0,-45l12,0c4,23 16,37 43,37c35,0 39,-37 9,-46c-31,-9 -65,-19 -64,-61c0,-52 59,-55 108,-45l0,43l-11,0" id="H"/>
    <g id="d">
     <use transform="matrix(0.06172839506172839,0,0,0.06172839506172839,0,0)" xlink:href="#C" id="svg_141"/>
     <use transform="matrix(0.06172839506172839,0,0,0.06172839506172839,13.518518518518517,0)" xlink:href="#r" id="svg_142"/>
     <use transform="matrix(0.06172839506172839,0,0,0.06172839506172839,23.333333333333332,0)" xlink:href="#D" id="svg_143"/>
     <use transform="matrix(0.06172839506172839,0,0,0.06172839506172839,34.44444444444444,0)" xlink:href="#E" id="svg_144"/>
     <use transform="matrix(0.06172839506172839,0,0,0.06172839506172839,45.55555555555556,0)" xlink:href="#F" id="svg_145"/>
     <use transform="matrix(0.06172839506172839,0,0,0.06172839506172839,64.01234567901234,0)" xlink:href="#x" id="svg_146"/>
     <use transform="matrix(0.06172839506172839,0,0,0.06172839506172839,73.82716049382715,0)" xlink:href="#G" id="svg_147"/>
     <use transform="matrix(0.06172839506172839,0,0,0.06172839506172839,86.17283950617283,0)" xlink:href="#y" id="svg_148"/>
     <use transform="matrix(0.06172839506172839,0,0,0.06172839506172839,93.51851851851852,0)" xlink:href="#H" id="svg_149"/>
    </g>
    <path fill="#3a414a" d="m75,-106l0,92l39,5l0,9l-101,0l0,-9l28,-5l0,-208l-31,-4l0,-10l177,0l0,57l-11,0l-6,-38c-28,-4 -63,-3 -95,-3l0,98l69,0l5,-28l11,0l0,73l-11,0l-5,-29l-69,0" id="I"/>
    <path fill="#3a414a" d="m32,-163c41,-10 102,-14 102,39l0,112c8,3 24,-2 21,12l-45,0l-4,-17c-23,30 -103,30 -93,-29c-2,-50 45,-50 92,-51c4,-36 -5,-70 -42,-56c-6,2 -12,4 -16,6c-4,7 0,23 -15,20l0,-36zm10,116c0,41 41,33 63,22l0,-59c-34,1 -63,-1 -63,37" id="J"/>
    <path fill="#3a414a" d="m57,-145c16,-10 35,-24 60,-25l0,45c-19,1 -8,-30 -40,-17l-20,6l0,124l29,4l0,8l-79,0l0,-8l21,-4l0,-141c-8,-3 -24,2 -21,-12l48,0" id="K"/>
    <path fill="#3a414a" d="m126,-118c4,-37 -42,-32 -68,-25l0,131l24,4l0,8l-74,0c-3,-13 13,-9 20,-12l0,-141c-7,-3 -23,1 -20,-12l48,0l1,13c22,-15 77,-30 92,2c32,-22 104,-36 104,29l0,109c8,3 24,-2 21,12l-75,0l0,-8l25,-4l0,-106c3,-39 -45,-31 -72,-24c7,37 1,88 3,130l25,4l0,8l-78,0l0,-8l24,-4l0,-106" id="L"/>
    <path fill="#3a414a" d="m319,-222l-77,227l-10,0l-61,-162l-63,162l-9,0l-78,-227l-21,-4l0,-10l90,0l0,10l-34,4l56,166l63,-163l8,0l61,163l54,-166l-37,-4l0,-10l78,0l0,10" id="M"/>
    <path fill="#3a414a" d="m54,-38c-1,25 24,26 44,20l0,12c-27,16 -73,15 -73,-29l0,-115l-21,0c-2,-14 14,-10 21,-15l18,-38l11,0l0,38l38,0l0,15l-38,0l0,112" id="N"/>
    <path fill="#3a414a" d="m84,-170c49,0 66,33 63,87l-101,0c-8,60 38,80 95,63l0,10c-13,8 -33,14 -53,14c-54,0 -74,-33 -74,-88c-1,-54 22,-86 70,-86zm33,73c12,-57 -57,-82 -69,-24c-1,7 -2,15 -2,24l71,0" id="O"/>
    <path fill="#3a414a" d="m141,-152c28,39 5,97 -54,97c-9,0 -20,-2 -27,-3l-11,23c29,22 130,-14 124,52c-4,45 -38,57 -88,61c-64,5 -93,-52 -40,-80c-12,-4 -23,-13 -24,-29l28,-31c-19,-9 -28,-26 -28,-51c-2,-51 53,-65 100,-52l38,-20l7,8l-25,25zm-56,216c35,0 61,-11 61,-42c0,-35 -57,-17 -89,-21c-9,8 -16,19 -17,34c0,25 19,29 45,29zm-33,-177c1,26 7,46 35,44c28,-1 34,-16 35,-44c0,-26 -6,-43 -34,-43s-36,17 -36,43" id="P"/>
    <path fill="#3a414a" d="m125,-118c4,-37 -41,-34 -68,-26l0,132l23,4l0,8l-72,0c-3,-13 13,-9 20,-12l0,-141c-7,-3 -23,1 -20,-12l47,0l2,13c31,-23 98,-29 98,31l0,109c7,3 23,-1 20,12l-72,0l0,-8l22,-4l0,-106" id="Q"/>
    <g id="e">
     <use transform="matrix(0.06172839506172839,0,0,0.06172839506172839,0,0)" xlink:href="#I" id="svg_150"/>
     <use transform="matrix(0.06172839506172839,0,0,0.06172839506172839,12.345679012345679,0)" xlink:href="#I" id="svg_151"/>
     <use transform="matrix(0.06172839506172839,0,0,0.06172839506172839,24.691358024691358,0)" xlink:href="#J" id="svg_152"/>
     <use transform="matrix(0.06172839506172839,0,0,0.06172839506172839,34.50617283950617,0)" xlink:href="#K" id="svg_153"/>
     <use transform="matrix(0.06172839506172839,0,0,0.06172839506172839,41.85185185185185,0)" xlink:href="#L" id="svg_154"/>
     <use transform="matrix(0.06172839506172839,0,0,0.06172839506172839,59.1358024691358,0)" xlink:href="#M" id="svg_155"/>
     <use transform="matrix(0.06172839506172839,0,0,0.06172839506172839,78.2716049382716,0)" xlink:href="#J" id="svg_156"/>
     <use transform="matrix(0.06172839506172839,0,0,0.06172839506172839,88.0864197530864,0)" xlink:href="#N" id="svg_157"/>
     <use transform="matrix(0.06172839506172839,0,0,0.06172839506172839,94.25925925925924,0)" xlink:href="#O" id="svg_158"/>
     <use transform="matrix(0.06172839506172839,0,0,0.06172839506172839,104.07407407407405,0)" xlink:href="#K" id="svg_159"/>
     <use transform="matrix(0.06172839506172839,0,0,0.06172839506172839,111.41975308641973,0)" xlink:href="#I" id="svg_160"/>
     <use transform="matrix(0.06172839506172839,0,0,0.06172839506172839,123.76543209876542,0)" xlink:href="#K" id="svg_161"/>
     <use transform="matrix(0.06172839506172839,0,0,0.06172839506172839,131.1111111111111,0)" xlink:href="#J" id="svg_162"/>
     <use transform="matrix(0.06172839506172839,0,0,0.06172839506172839,140.9259259259259,0)" xlink:href="#P" id="svg_163"/>
     <use transform="matrix(0.06172839506172839,0,0,0.06172839506172839,152.037037037037,0)" xlink:href="#L" id="svg_164"/>
     <use transform="matrix(0.06172839506172839,0,0,0.06172839506172839,169.32098765432096,0)" xlink:href="#O" id="svg_165"/>
     <use transform="matrix(0.06172839506172839,0,0,0.06172839506172839,179.13580246913577,0)" xlink:href="#Q" id="svg_166"/>
     <use transform="matrix(0.06172839506172839,0,0,0.06172839506172839,190.24691358024688,0)" xlink:href="#N" id="svg_167"/>
    </g>
    <path fill="#3a414a" d="m52,-115c0,93 80,130 150,87l7,-35l11,0l-1,55c-23,7 -52,12 -83,12c-76,0 -117,-41 -121,-119c-5,-113 97,-141 201,-114l1,51l-12,0l-5,-30c-15,-9 -39,-16 -62,-16c-66,0 -86,41 -86,109" id="R"/>
    <path fill="#3a414a" d="m90,-170c52,0 76,32 76,87c0,54 -24,87 -77,87c-51,0 -75,-34 -75,-87c0,-54 24,-87 76,-87zm-1,160c39,0 46,-35 46,-73c0,-39 -7,-73 -46,-73c-39,1 -44,34 -44,73s6,72 44,73" id="S"/>
    <path fill="#3a414a" d="m166,-85c3,67 -44,102 -111,85l1,64l29,4l0,9l-79,0l0,-9l21,-4l0,-217c-7,-3 -22,1 -19,-12l46,0l1,9c11,-8 26,-14 45,-14c47,2 64,36 66,85zm-110,72c53,14 83,-14 78,-72c7,-53 -33,-79 -78,-60l0,132" id="T"/>
    <g id="f">
     <use transform="matrix(0.06172839506172839,0,0,0.06172839506172839,0,0)" xlink:href="#I" id="svg_168"/>
     <use transform="matrix(0.06172839506172839,0,0,0.06172839506172839,12.345679012345679,0)" xlink:href="#I" id="svg_169"/>
     <use transform="matrix(0.06172839506172839,0,0,0.06172839506172839,24.691358024691358,0)" xlink:href="#J" id="svg_170"/>
     <use transform="matrix(0.06172839506172839,0,0,0.06172839506172839,34.50617283950617,0)" xlink:href="#K" id="svg_171"/>
     <use transform="matrix(0.06172839506172839,0,0,0.06172839506172839,41.85185185185185,0)" xlink:href="#L" id="svg_172"/>
     <use transform="matrix(0.06172839506172839,0,0,0.06172839506172839,59.1358024691358,0)" xlink:href="#R" id="svg_173"/>
     <use transform="matrix(0.06172839506172839,0,0,0.06172839506172839,73.9506172839506,0)" xlink:href="#K" id="svg_174"/>
     <use transform="matrix(0.06172839506172839,0,0,0.06172839506172839,81.29629629629629,0)" xlink:href="#S" id="svg_175"/>
     <use transform="matrix(0.06172839506172839,0,0,0.06172839506172839,92.4074074074074,0)" xlink:href="#T" id="svg_176"/>
     <use transform="matrix(0.06172839506172839,0,0,0.06172839506172839,103.51851851851852,0)" xlink:href="#I" id="svg_177"/>
     <use transform="matrix(0.06172839506172839,0,0,0.06172839506172839,115.8641975308642,0)" xlink:href="#K" id="svg_178"/>
     <use transform="matrix(0.06172839506172839,0,0,0.06172839506172839,123.20987654320989,0)" xlink:href="#J" id="svg_179"/>
     <use transform="matrix(0.06172839506172839,0,0,0.06172839506172839,133.0246913580247,0)" xlink:href="#P" id="svg_180"/>
     <use transform="matrix(0.06172839506172839,0,0,0.06172839506172839,144.13580246913583,0)" xlink:href="#L" id="svg_181"/>
     <use transform="matrix(0.06172839506172839,0,0,0.06172839506172839,161.41975308641977,0)" xlink:href="#O" id="svg_182"/>
     <use transform="matrix(0.06172839506172839,0,0,0.06172839506172839,171.23456790123458,0)" xlink:href="#Q" id="svg_183"/>
     <use transform="matrix(0.06172839506172839,0,0,0.06172839506172839,182.3456790123457,0)" xlink:href="#N" id="svg_184"/>
    </g>
    <path fill="#3a414a" d="m10,0l0,-9l31,-5l0,-208l-31,-4l0,-10l95,0l0,10l-30,4l0,93l110,0l0,-93l-30,-4l0,-10l94,0l0,10l-30,4l0,208l30,5l0,9l-94,0l0,-9l30,-5l0,-99l-110,0l0,99l30,5l0,9l-95,0" id="U"/>
    <path fill="#3a414a" d="m164,-154l-66,158l-13,0l-68,-157c-7,-3 -20,0 -17,-12l77,0l0,8l-26,4l48,115l46,-115l-26,-4l0,-8l61,0l0,8" id="V"/>
    <path fill="#3a414a" d="m41,-130c7,48 86,23 86,84c0,56 -69,57 -112,41l0,-40c20,0 9,29 31,31c35,19 77,-26 41,-50c-27,-18 -72,-13 -72,-59c0,-50 58,-52 100,-41l0,36c-19,1 -8,-25 -28,-25c-21,-7 -50,-1 -46,23" id="W"/>
    <path fill="#3a414a" d="m55,0l0,-9l38,-5l0,-207c-22,1 -53,0 -70,4l-5,37l-11,0l0,-56l207,0l0,56l-12,0l-5,-37l-70,-3l0,206l37,5l0,9l-109,0" id="X"/>
    <path fill="#3a414a" d="m47,-200c-23,0 -25,-39 0,-38c13,0 18,7 20,19c-1,11 -8,19 -20,19zm18,188l28,4l0,8l-85,0l0,-8l28,-4l0,-141l-24,-4l0,-8l53,0l0,153" id="Y"/>
    <g id="g">
     <use transform="matrix(0.06172839506172839,0,0,0.06172839506172839,0,0)" xlink:href="#I" id="svg_185"/>
     <use transform="matrix(0.06172839506172839,0,0,0.06172839506172839,12.345679012345679,0)" xlink:href="#U" id="svg_186"/>
     <use transform="matrix(0.06172839506172839,0,0,0.06172839506172839,28.333333333333332,0)" xlink:href="#J" id="svg_187"/>
     <use transform="matrix(0.06172839506172839,0,0,0.06172839506172839,38.148148148148145,0)" xlink:href="#K" id="svg_188"/>
     <use transform="matrix(0.06172839506172839,0,0,0.06172839506172839,45.49382716049382,0)" xlink:href="#V" id="svg_189"/>
     <use transform="matrix(0.06172839506172839,0,0,0.06172839506172839,56.60493827160494,0)" xlink:href="#O" id="svg_190"/>
     <use transform="matrix(0.06172839506172839,0,0,0.06172839506172839,66.41975308641975,0)" xlink:href="#W" id="svg_191"/>
     <use transform="matrix(0.06172839506172839,0,0,0.06172839506172839,75.06172839506172,0)" xlink:href="#N" id="svg_192"/>
     <use transform="matrix(0.06172839506172839,0,0,0.06172839506172839,81.23456790123456,0)" xlink:href="#X" id="svg_193"/>
     <use transform="matrix(0.06172839506172839,0,0,0.06172839506172839,93.9506172839506,0)" xlink:href="#Y" id="svg_194"/>
     <use transform="matrix(0.06172839506172839,0,0,0.06172839506172839,100.12345679012344,0)" xlink:href="#L" id="svg_195"/>
     <use transform="matrix(0.06172839506172839,0,0,0.06172839506172839,117.40740740740739,0)" xlink:href="#O" id="svg_196"/>
     <use transform="matrix(0.06172839506172839,0,0,0.06172839506172839,127.22222222222219,0)" xlink:href="#K" id="svg_197"/>
     <use transform="matrix(0.06172839506172839,0,0,0.06172839506172839,134.56790123456787,0)" xlink:href="#I" id="svg_198"/>
     <use transform="matrix(0.06172839506172839,0,0,0.06172839506172839,146.91358024691354,0)" xlink:href="#K" id="svg_199"/>
     <use transform="matrix(0.06172839506172839,0,0,0.06172839506172839,154.2592592592592,0)" xlink:href="#J" id="svg_200"/>
     <use transform="matrix(0.06172839506172839,0,0,0.06172839506172839,164.07407407407402,0)" xlink:href="#P" id="svg_201"/>
     <use transform="matrix(0.06172839506172839,0,0,0.06172839506172839,175.18518518518513,0)" xlink:href="#L" id="svg_202"/>
     <use transform="matrix(0.06172839506172839,0,0,0.06172839506172839,192.46913580246908,0)" xlink:href="#O" id="svg_203"/>
     <use transform="matrix(0.06172839506172839,0,0,0.06172839506172839,202.2839506172839,0)" xlink:href="#Q" id="svg_204"/>
     <use transform="matrix(0.06172839506172839,0,0,0.06172839506172839,213.395061728395,0)" xlink:href="#N" id="svg_205"/>
    </g>
    <path fill="#3a414a" d="m104,-123c39,3 61,21 62,59c1,71 -83,76 -147,60l-2,-50l12,0c2,29 16,43 51,43c38,0 54,-19 54,-55c2,-43 -34,-49 -75,-50l0,-14c37,0 64,-7 64,-48c0,-47 -47,-56 -81,-36l-6,29l-12,0l0,-46c51,-13 135,-13 131,51c-2,34 -20,52 -51,57" id="Z"/>
    <use transform="matrix(0.06172839506172839,0,0,0.06172839506172839,0,0)" xlink:href="#Z" id="h"/>
    <path fill="#3a414a" d="m48,-126c45,-28 121,-18 121,53c0,50 -25,77 -72,77c-63,0 -80,-54 -82,-120c-3,-88 52,-142 140,-116l0,40l-12,0c2,-42 -66,-39 -79,-8c-8,20 -16,43 -16,74zm0,11c2,50 2,105 49,105c33,0 37,-26 40,-60c5,-60 -49,-61 -89,-45" id="aa"/>
    <use transform="matrix(0.06172839506172839,0,0,0.06172839506172839,0,0)" xlink:href="#aa" id="i"/>
    <path fill="#3a414a" d="m133,-108c-46,28 -127,15 -121,-56c4,-49 26,-74 76,-74c64,1 77,52 77,120c0,92 -54,140 -144,116l0,-41l11,0c-4,42 67,39 82,10c10,-20 17,-43 19,-75zm0,-12c-3,-48 0,-104 -45,-104c-34,0 -44,25 -44,61c0,32 10,52 43,52c17,0 33,-4 46,-9" id="ab"/>
    <use transform="matrix(0.06172839506172839,0,0,0.06172839506172839,0,0)" xlink:href="#ab" id="j"/>
    <path fill="#3a414a" d="m24,-231c66,-21 156,2 128,81c-20,58 -74,84 -113,123l121,0l0,27l-144,0l0,-26l59,-54c26,-25 47,-47 47,-97c0,-48 -47,-57 -81,-37l-6,29l-11,0l0,-46" id="ac"/>
    <g id="k">
     <use transform="matrix(0.06172839506172839,0,0,0.06172839506172839,0,0)" xlink:href="#A" id="svg_206"/>
     <use transform="matrix(0.06172839506172839,0,0,0.06172839506172839,11.11111111111111,0)" xlink:href="#ac" id="svg_207"/>
    </g>
    <path fill="#3a414a" d="m54,0l0,-13l38,-5l0,-199l-66,3l-4,44l-16,0l0,-66l229,0l0,66l-17,0l-4,-44c-17,-2 -44,-3 -67,-3l0,199l38,5l0,13l-131,0" id="ad"/>
    <g id="l">
     <use transform="matrix(0.06172839506172839,0,0,0.06172839506172839,0,0)" xlink:href="#ad" id="svg_208"/>
     <use transform="matrix(0.06172839506172839,0,0,0.06172839506172839,12.777777777777777,0)" xlink:href="#D" id="svg_209"/>
     <use transform="matrix(0.06172839506172839,0,0,0.06172839506172839,23.888888888888886,0)" xlink:href="#E" id="svg_210"/>
     <use transform="matrix(0.06172839506172839,0,0,0.06172839506172839,35,0)" xlink:href="#H" id="svg_211"/>
    </g>
    <path fill="#3a414a" d="m73,-51c-3,31 27,38 51,25l0,-123l-16,-5l0,-11l66,0l0,149l17,4l0,12l-65,0l-2,-14c-30,23 -102,32 -102,-30l0,-105l-17,-5l0,-11l68,0l0,114" id="ae"/>
    <path fill="#3a414a" d="m77,-79l64,-71l-17,-4l0,-11l63,0l0,11c-32,3 -40,30 -59,46l57,92l15,4l0,12l-80,0c-2,-11 3,-15 10,-16l-33,-58l-20,14l0,44l16,4l0,12l-83,0l0,-12l16,-4l0,-218l-17,-4l0,-12l68,0l0,171" id="af"/>
    <g id="m">
     <use transform="matrix(0.06172839506172839,0,0,0.06172839506172839,0,0)" xlink:href="#q" id="svg_212"/>
     <use transform="matrix(0.06172839506172839,0,0,0.06172839506172839,15.987654320987653,0)" xlink:href="#w" id="svg_213"/>
     <use transform="matrix(0.06172839506172839,0,0,0.06172839506172839,28.333333333333332,0)" xlink:href="#ae" id="svg_214"/>
     <use transform="matrix(0.06172839506172839,0,0,0.06172839506172839,40.67901234567901,0)" xlink:href="#G" id="svg_215"/>
     <use transform="matrix(0.06172839506172839,0,0,0.06172839506172839,53.02469135802469,0)" xlink:href="#af" id="svg_216"/>
     <use transform="matrix(0.06172839506172839,0,0,0.06172839506172839,65.37037037037037,0)" xlink:href="#C" id="svg_217"/>
     <use transform="matrix(0.06172839506172839,0,0,0.06172839506172839,78.88888888888889,0)" xlink:href="#r" id="svg_218"/>
     <use transform="matrix(0.06172839506172839,0,0,0.06172839506172839,88.7037037037037,0)" xlink:href="#D" id="svg_219"/>
     <use transform="matrix(0.06172839506172839,0,0,0.06172839506172839,99.81481481481481,0)" xlink:href="#E" id="svg_220"/>
     <use transform="matrix(0.06172839506172839,0,0,0.06172839506172839,110.92592592592592,0)" xlink:href="#F" id="svg_221"/>
     <use transform="matrix(0.06172839506172839,0,0,0.06172839506172839,129.3827160493827,0)" xlink:href="#x" id="svg_222"/>
     <use transform="matrix(0.06172839506172839,0,0,0.06172839506172839,139.19753086419752,0)" xlink:href="#G" id="svg_223"/>
     <use transform="matrix(0.06172839506172839,0,0,0.06172839506172839,151.5432098765432,0)" xlink:href="#y" id="svg_224"/>
     <use transform="matrix(0.06172839506172839,0,0,0.06172839506172839,158.88888888888886,0)" xlink:href="#H" id="svg_225"/>
    </g>
    <path fill="#3a414a" d="m185,-72c0,85 -103,86 -166,63l0,-63l16,0c2,37 21,58 61,58c46,0 69,-51 31,-71c-42,-23 -106,-23 -106,-90c0,-69 87,-70 148,-56l0,56l-16,0l-7,-32c-26,-25 -110,-13 -82,35c39,34 121,26 121,100" id="ag"/>
    <path fill="#3a414a" d="m15,-82c-4,-69 47,-101 113,-83l-1,-69l-17,-4l0,-12l68,0l0,234l18,4l0,12l-63,0l-4,-9c-52,32 -124,0 -114,-73zm112,-66c-43,-16 -64,17 -61,65c2,33 3,67 32,67c12,0 22,-3 29,-8l0,-124" id="ah"/>
    <g id="n">
     <use transform="matrix(0.06172839506172839,0,0,0.06172839506172839,0,0)" xlink:href="#ag" id="svg_226"/>
     <use transform="matrix(0.06172839506172839,0,0,0.06172839506172839,12.345679012345679,0)" xlink:href="#w" id="svg_227"/>
     <use transform="matrix(0.06172839506172839,0,0,0.06172839506172839,24.691358024691358,0)" xlink:href="#D" id="svg_228"/>
     <use transform="matrix(0.06172839506172839,0,0,0.06172839506172839,35.80246913580247,0)" xlink:href="#r" id="svg_229"/>
     <use transform="matrix(0.06172839506172839,0,0,0.06172839506172839,45.18518518518518,0)" xlink:href="#x" id="svg_230"/>
     <use transform="matrix(0.06172839506172839,0,0,0.06172839506172839,55,0)" xlink:href="#ah" id="svg_231"/>
     <use transform="matrix(0.06172839506172839,0,0,0.06172839506172839,67.34567901234568,0)" xlink:href="#C" id="svg_232"/>
     <use transform="matrix(0.06172839506172839,0,0,0.06172839506172839,80.8641975308642,0)" xlink:href="#r" id="svg_233"/>
     <use transform="matrix(0.06172839506172839,0,0,0.06172839506172839,90.67901234567901,0)" xlink:href="#D" id="svg_234"/>
     <use transform="matrix(0.06172839506172839,0,0,0.06172839506172839,101.79012345679013,0)" xlink:href="#E" id="svg_235"/>
     <use transform="matrix(0.06172839506172839,0,0,0.06172839506172839,112.90123456790124,0)" xlink:href="#F" id="svg_236"/>
     <use transform="matrix(0.06172839506172839,0,0,0.06172839506172839,131.35802469135803,0)" xlink:href="#x" id="svg_237"/>
     <use transform="matrix(0.06172839506172839,0,0,0.06172839506172839,141.17283950617283,0)" xlink:href="#G" id="svg_238"/>
     <use transform="matrix(0.06172839506172839,0,0,0.06172839506172839,153.5185185185185,0)" xlink:href="#y" id="svg_239"/>
     <use transform="matrix(0.06172839506172839,0,0,0.06172839506172839,160.86419753086417,0)" xlink:href="#H" id="svg_240"/>
    </g>
    <path fill="#3a414a" d="m76,-16l18,4l0,12l-87,0l0,-12l18,-4l0,-218l-17,-4l0,-12l68,0l0,234" id="ai"/>
    <path fill="#3a414a" d="m154,-149l38,94l32,-94l-20,-5l0,-11l54,0l0,11l-13,4l-55,154l-21,0l-38,-93l-38,93l-21,0l-59,-153c-7,-2 -15,-4 -12,-16l82,0l0,11l-20,5l36,94l38,-94l17,0" id="aj"/>
    <g id="o">
     <use transform="matrix(0.06172839506172839,0,0,0.06172839506172839,0,0)" xlink:href="#C" id="svg_241"/>
     <use transform="matrix(0.06172839506172839,0,0,0.06172839506172839,13.518518518518517,0)" xlink:href="#ai" id="svg_242"/>
     <use transform="matrix(0.06172839506172839,0,0,0.06172839506172839,19.691358024691358,0)" xlink:href="#s" id="svg_243"/>
     <use transform="matrix(0.06172839506172839,0,0,0.06172839506172839,30.80246913580247,0)" xlink:href="#aj" id="svg_244"/>
     <use transform="matrix(0.06172839506172839,0,0,0.06172839506172839,46.79012345679012,0)" xlink:href="#x" id="svg_245"/>
     <use transform="matrix(0.06172839506172839,0,0,0.06172839506172839,56.60493827160494,0)" xlink:href="#r" id="svg_246"/>
     <use transform="matrix(0.06172839506172839,0,0,0.06172839506172839,66.41975308641975,0)" xlink:href="#u" id="svg_247"/>
     <use transform="matrix(0.06172839506172839,0,0,0.06172839506172839,82.4074074074074,0)" xlink:href="#r" id="svg_248"/>
     <use transform="matrix(0.06172839506172839,0,0,0.06172839506172839,91.79012345679011,0)" xlink:href="#v" id="svg_249"/>
     <use transform="matrix(0.06172839506172839,0,0,0.06172839506172839,101.60493827160492,0)" xlink:href="#w" id="svg_250"/>
     <use transform="matrix(0.06172839506172839,0,0,0.06172839506172839,113.9506172839506,0)" xlink:href="#x" id="svg_251"/>
     <use transform="matrix(0.06172839506172839,0,0,0.06172839506172839,123.76543209876542,0)" xlink:href="#y" id="svg_252"/>
     <use transform="matrix(0.06172839506172839,0,0,0.06172839506172839,131.1111111111111,0)" xlink:href="#z" id="svg_253"/>
     <use transform="matrix(0.06172839506172839,0,0,0.06172839506172839,142.2222222222222,0)" xlink:href="#t" id="svg_254"/>
     <use transform="matrix(0.06172839506172839,0,0,0.06172839506172839,154.56790123456787,0)" xlink:href="#x" id="svg_255"/>
    </g>
    <path fill="#3a414a" d="m65,-12l28,4l0,8l-86,0l0,-8l28,-4l0,-226l-28,-4l0,-8l58,0l0,238" id="ak"/>
    <path fill="#3a414a" d="m240,-154l-55,158l-14,0l-41,-109l-40,109l-13,0l-57,-157c-7,-3 -23,1 -20,-12l79,0l0,8l-27,4l39,112l40,-108l14,0l40,109l38,-113l-28,-4l0,-8l63,0l0,8" id="al"/>
    <g id="p">
     <use transform="matrix(0.06172839506172839,0,0,0.06172839506172839,0,0)" xlink:href="#I" id="svg_256"/>
     <use transform="matrix(0.06172839506172839,0,0,0.06172839506172839,12.345679012345679,0)" xlink:href="#I" id="svg_257"/>
     <use transform="matrix(0.06172839506172839,0,0,0.06172839506172839,24.691358024691358,0)" xlink:href="#J" id="svg_258"/>
     <use transform="matrix(0.06172839506172839,0,0,0.06172839506172839,34.50617283950617,0)" xlink:href="#K" id="svg_259"/>
     <use transform="matrix(0.06172839506172839,0,0,0.06172839506172839,41.85185185185185,0)" xlink:href="#L" id="svg_260"/>
     <use transform="matrix(0.06172839506172839,0,0,0.06172839506172839,59.1358024691358,0)" xlink:href="#I" id="svg_261"/>
     <use transform="matrix(0.06172839506172839,0,0,0.06172839506172839,71.48148148148148,0)" xlink:href="#ak" id="svg_262"/>
     <use transform="matrix(0.06172839506172839,0,0,0.06172839506172839,77.65432098765432,0)" xlink:href="#S" id="svg_263"/>
     <use transform="matrix(0.06172839506172839,0,0,0.06172839506172839,88.76543209876543,0)" xlink:href="#al" id="svg_264"/>
     <use transform="matrix(0.06172839506172839,0,0,0.06172839506172839,104.75308641975309,0)" xlink:href="#O" id="svg_265"/>
     <use transform="matrix(0.06172839506172839,0,0,0.06172839506172839,114.5679012345679,0)" xlink:href="#K" id="svg_266"/>
     <use transform="matrix(0.06172839506172839,0,0,0.06172839506172839,121.91358024691358,0)" xlink:href="#I" id="svg_267"/>
     <use transform="matrix(0.06172839506172839,0,0,0.06172839506172839,134.25925925925927,0)" xlink:href="#K" id="svg_268"/>
     <use transform="matrix(0.06172839506172839,0,0,0.06172839506172839,141.60493827160494,0)" xlink:href="#J" id="svg_269"/>
     <use transform="matrix(0.06172839506172839,0,0,0.06172839506172839,151.41975308641975,0)" xlink:href="#P" id="svg_270"/>
     <use transform="matrix(0.06172839506172839,0,0,0.06172839506172839,162.53086419753086,0)" xlink:href="#L" id="svg_271"/>
     <use transform="matrix(0.06172839506172839,0,0,0.06172839506172839,179.8148148148148,0)" xlink:href="#O" id="svg_272"/>
     <use transform="matrix(0.06172839506172839,0,0,0.06172839506172839,189.62962962962962,0)" xlink:href="#Q" id="svg_273"/>
     <use transform="matrix(0.06172839506172839,0,0,0.06172839506172839,200.74074074074073,0)" xlink:href="#N" id="svg_274"/>
    </g>
   </defs>
  </g>
 </g>
</svg>