<svg width="1313" height="540" xmlns="http://www.w3.org/2000/svg" xmlns:xlink="http://www.w3.org/1999/xlink"><path stroke="#000" fill="#e2e2e2" d="M1.5.5h1315v539H1.5z"/><path d="M20 27a6 6 0 0 1 6-6h288a6 6 0 0 1 6 6v487a6 6 0 0 1-6 6H26a6 6 0 0 1-6-6V27z" stroke="#3a414a" fill="#fff"/><use xlink:href="#a" transform="translate(372 290.778)" y="-240" x="-340"/><path d="M367 97a6 6 0 0 1 6-6h28a6 6 0 0 1 6 6v28a6 6 0 0 1-6 6h-28a6 6 0 0 1-6-6V97z" stroke="#3a414a" fill="#d7faf5"/><use xlink:href="#b" transform="translate(721.444 360.778)" y="-240" x="-340"/><path d="M407 97a6 6 0 0 1 6-6h28a6 6 0 0 1 6 6v28a6 6 0 0 1-6 6h-28a6 6 0 0 1-6-6V97z" stroke="#3a414a" fill="#d7faf5"/><use xlink:href="#c" transform="translate(761.444 360.778)" y="-240" x="-340"/><path d="M447 97a6 6 0 0 1 6-6h28a6 6 0 0 1 6 6v28a6 6 0 0 1-6 6h-28a6 6 0 0 1-6-6V97z" stroke="#3a414a" fill="#fcfcca"/><use xlink:href="#b" transform="translate(801.444 360.778)" y="-240" x="-340"/><path d="M487 97a6 6 0 0 1 6-6h28a6 6 0 0 1 6 6v28a6 6 0 0 1-6 6h-28a6 6 0 0 1-6-6V97z" stroke="#3a414a" fill="#fcfcca"/><use xlink:href="#c" transform="translate(841.444 360.778)" y="-240" x="-340"/><path d="M527 97a6 6 0 0 1 6-6h28a6 6 0 0 1 6 6v28a6 6 0 0 1-6 6h-28a6 6 0 0 1-6-6V97z" stroke="#3a414a" fill="#fcfcca"/><use xlink:href="#b" transform="translate(881.444 360.778)" y="-240" x="-340"/><path d="M567 97a6 6 0 0 1 6-6h28a6 6 0 0 1 6 6v28a6 6 0 0 1-6 6h-28a6 6 0 0 1-6-6V97z" stroke="#3a414a" fill="#d7faf5"/><use xlink:href="#c" transform="translate(921.444 360.778)" y="-240" x="-340"/><path d="M607 97a6 6 0 0 1 6-6h28a6 6 0 0 1 6 6v28a6 6 0 0 1-6 6h-28a6 6 0 0 1-6-6V97z" stroke="#3a414a" fill="#d7faf5"/><use xlink:href="#c" transform="translate(961.444 360.778)" y="-240" x="-340"/><path d="M647 97a6 6 0 0 1 6-6h28a6 6 0 0 1 6 6v28a6 6 0 0 1-6 6h-28a6 6 0 0 1-6-6V97z" stroke="#3a414a" fill="#d7faf5"/><use xlink:href="#c" transform="translate(1001.44 360.778)" y="-240" x="-340"/><path d="M687 97a6 6 0 0 1 6-6h28a6 6 0 0 1 6 6v28a6 6 0 0 1-6 6h-28a6 6 0 0 1-6-6V97z" stroke="#3a414a" fill="#fcfcca"/><use xlink:href="#c" transform="translate(1041.44 360.778)" y="-240" x="-340"/><path d="M727 97a6 6 0 0 1 6-6h28a6 6 0 0 1 6 6v28a6 6 0 0 1-6 6h-28a6 6 0 0 1-6-6V97z" stroke="#3a414a" fill="#fcfcca"/><use xlink:href="#c" transform="translate(1081.44 360.778)" y="-240" x="-340"/><path d="M767 97a6 6 0 0 1 6-6h28a6 6 0 0 1 6 6v28a6 6 0 0 1-6 6h-28a6 6 0 0 1-6-6V97z" stroke="#3a414a" fill="#fcfcca"/><use xlink:href="#c" transform="translate(1121.44 360.778)" y="-240" x="-340"/><path d="M807 97a6 6 0 0 1 6-6h28a6 6 0 0 1 6 6v28a6 6 0 0 1-6 6h-28a6 6 0 0 1-6-6V97z" stroke="#3a414a" fill="#d7faf5"/><use xlink:href="#c" transform="translate(1161.44 360.778)" y="-240" x="-340"/><path d="M847 97a6 6 0 0 1 6-6h28a6 6 0 0 1 6 6v28a6 6 0 0 1-6 6h-28a6 6 0 0 1-6-6V97z" stroke="#3a414a" fill="#d7faf5"/><use xlink:href="#c" transform="translate(1201.44 360.778)" y="-240" x="-340"/><path d="M887 97a6 6 0 0 1 6-6h28a6 6 0 0 1 6 6v28a6 6 0 0 1-6 6h-28a6 6 0 0 1-6-6V97z" stroke="#3a414a" fill="#d7faf5"/><use xlink:href="#c" transform="translate(1241.44 360.778)" y="-240" x="-340"/><path d="M47 86a6 6 0 0 1 6-6h239.84a6 6 0 0 1 6 6v168a6 6 0 0 1-6 6H53a6 6 0 0 1-6-6V86z" stroke="#3a414a" fill="#fff"/><use xlink:href="#d" transform="translate(399 349.778)" y="-240" x="-340"/><path d="M47 146a6 6 0 0 1 6-6h239.84a6 6 0 0 1 6 6v28a6 6 0 0 1-6 6H53a6 6 0 0 1-6-6v-28z" stroke="#3a414a" fill="#fff"/><use xlink:href="#e" transform="translate(414.79 409.778)" y="-240" x="-340"/><path d="M47 186a6 6 0 0 1 6-6h239.84a6 6 0 0 1 6 6v28a6 6 0 0 1-6 6H53a6 6 0 0 1-6-6v-28z" stroke="#3a414a" fill="#fff"/><use xlink:href="#f" transform="translate(418.741 449.778)" y="-240" x="-340"/><path d="M47 226a6 6 0 0 1 6-6h239.84a6 6 0 0 1 6 6v28a6 6 0 0 1-6 6H53a6 6 0 0 1-6-6v-28z" stroke="#3a414a" fill="#fff"/><use xlink:href="#g" transform="translate(403.216 489.778)" y="-240" x="-340"/><path d="M299.84 160H541a6 6 0 0 0 6-6v-6.12" stroke="#ff8f8f" fill="none"/><path d="M299.85 160.5h-.5v-1h.5v1z" stroke="#ff8f8f" stroke-width=".05" fill="#ff8f8f"/><path d="m547 133.12 4.63 14.26h-9.26l4.63-14.26z" stroke="#ff8f8f" fill="#ff8f8f"/><path d="M299.84 200H465a6 6 0 0 0 6-6v-46.12" stroke="#e81313" fill="none"/><path d="M299.85 200.5h-.5v-1h.5v1z" stroke="#e81313" stroke-width=".05" fill="#e81313"/><path d="m471 133.12 4.63 14.26h-9.26l4.63-14.26z" stroke="#e81313" fill="#e81313"/><path d="M299.84 240H381a6 6 0 0 0 6-6v-86.12" stroke="#008573" fill="none"/><path d="M299.85 240.5h-.5v-1h.5v1z" stroke="#008573" stroke-width=".05" fill="#008573"/><path d="m387 133.12 4.63 14.26h-9.26l4.63-14.26z" stroke="#008573" fill="#008573"/><path d="M860.5 57.33a6 6 0 0 1 6-6h81a6 6 0 0 1 6 6v28a6 6 0 0 1-6 6h-81a6 6 0 0 1-6-6v-28z" fill="none"/><use xlink:href="#c" transform="translate(1241.44 315.986)" y="-240" x="-340"/><path d="M740.5 57.33a6 6 0 0 1 6-6h81a6 6 0 0 1 6 6v28a6 6 0 0 1-6 6h-81a6 6 0 0 1-6-6v-28z" fill="none"/><use xlink:href="#h" transform="translate(1121.44 315.986)" y="-240" x="-340"/><path d="M620.5 57a6 6 0 0 1 6-6h81a6 6 0 0 1 6 6v28.67a6 6 0 0 1-6 6h-81a6 6 0 0 1-6-6V57z" fill="none"/><use xlink:href="#i" transform="translate(1001.44 315.715)" y="-240" x="-340"/><path d="M500.5 57a6 6 0 0 1 6-6h81a6 6 0 0 1 6 6v28.67a6 6 0 0 1-6 6h-81a6 6 0 0 1-6-6V57z" fill="none"/><use xlink:href="#j" transform="translate(881.444 315.715)" y="-240" x="-340"/><path d="M380.5 57a6 6 0 0 1 6-6h81a6 6 0 0 1 6 6v28.67a6 6 0 0 1-6 6h-81a6 6 0 0 1-6-6V57z" fill="none"/><use xlink:href="#k" transform="translate(755.889 315.715)" y="-240" x="-340"/><path d="M47 286a6 6 0 0 1 6-6h239.84a6 6 0 0 1 6 6v48a6 6 0 0 1-6 6H53a6 6 0 0 1-6-6v-48z" stroke="#3a414a" fill="#fff"/><use xlink:href="#l" transform="translate(399 549.778)" y="-240" x="-340"/><path d="M47 366a6 6 0 0 1 6-6h239.84a6 6 0 0 1 6 6v48a6 6 0 0 1-6 6H53a6 6 0 0 1-6-6v-48z" stroke="#3a414a" fill="#fff"/><use xlink:href="#m" transform="translate(399 629.778)" y="-240" x="-340"/><path d="M47 446a6 6 0 0 1 6-6h239.84a6 6 0 0 1 6 6v48a6 6 0 0 1-6 6H53a6 6 0 0 1-6-6v-48z" stroke="#3a414a" fill="#fff"/><use xlink:href="#n" transform="translate(399 709.778)" y="-240" x="-340"/><path d="M993 26a6 6 0 0 1 6-6h288a6 6 0 0 1 6 6v487a6 6 0 0 1-6 6H999a6 6 0 0 1-6-6V26z" stroke="#3a414a" fill="#fff"/><use xlink:href="#o" transform="translate(1345 289.778)" y="-240" x="-340"/><path d="M367 306a6 6 0 0 1 6-6h28a6 6 0 0 1 6 6v28a6 6 0 0 1-6 6h-28a6 6 0 0 1-6-6v-28z" stroke="#3a414a" fill="#d7faf5"/><use xlink:href="#b" transform="translate(721.444 569.778)" y="-240" x="-340"/><path d="M407 306a6 6 0 0 1 6-6h28a6 6 0 0 1 6 6v28a6 6 0 0 1-6 6h-28a6 6 0 0 1-6-6v-28z" stroke="#3a414a" fill="#d7faf5"/><use xlink:href="#c" transform="translate(761.444 569.778)" y="-240" x="-340"/><path d="M447 306a6 6 0 0 1 6-6h28a6 6 0 0 1 6 6v28a6 6 0 0 1-6 6h-28a6 6 0 0 1-6-6v-28z" stroke="#3a414a" fill="#fcfcca"/><use xlink:href="#c" transform="translate(801.444 569.778)" y="-240" x="-340"/><path d="M487 306a6 6 0 0 1 6-6h28a6 6 0 0 1 6 6v28a6 6 0 0 1-6 6h-28a6 6 0 0 1-6-6v-28z" stroke="#3a414a" fill="#fcfcca"/><use xlink:href="#b" transform="translate(841.444 569.778)" y="-240" x="-340"/><path d="M527 306a6 6 0 0 1 6-6h28a6 6 0 0 1 6 6v28a6 6 0 0 1-6 6h-28a6 6 0 0 1-6-6v-28z" stroke="#3a414a" fill="#fcfcca"/><use xlink:href="#b" transform="translate(881.444 569.778)" y="-240" x="-340"/><path d="M567 306a6 6 0 0 1 6-6h28a6 6 0 0 1 6 6v28a6 6 0 0 1-6 6h-28a6 6 0 0 1-6-6v-28z" stroke="#3a414a" fill="#d7faf5"/><use xlink:href="#c" transform="translate(921.444 569.778)" y="-240" x="-340"/><path d="M607 306a6 6 0 0 1 6-6h28a6 6 0 0 1 6 6v28a6 6 0 0 1-6 6h-28a6 6 0 0 1-6-6v-28z" stroke="#3a414a" fill="#d7faf5"/><use xlink:href="#c" transform="translate(961.444 569.778)" y="-240" x="-340"/><path d="M647 306a6 6 0 0 1 6-6h28a6 6 0 0 1 6 6v28a6 6 0 0 1-6 6h-28a6 6 0 0 1-6-6v-28z" stroke="#3a414a" fill="#d7faf5"/><use xlink:href="#c" transform="translate(1001.44 569.778)" y="-240" x="-340"/><path d="M687 306a6 6 0 0 1 6-6h28a6 6 0 0 1 6 6v28a6 6 0 0 1-6 6h-28a6 6 0 0 1-6-6v-28z" stroke="#3a414a" fill="#fcfcca"/><use xlink:href="#c" transform="translate(1041.44 569.778)" y="-240" x="-340"/><path d="M727 306a6 6 0 0 1 6-6h28a6 6 0 0 1 6 6v28a6 6 0 0 1-6 6h-28a6 6 0 0 1-6-6v-28z" stroke="#3a414a" fill="#fcfcca"/><use xlink:href="#c" transform="translate(1081.44 569.778)" y="-240" x="-340"/><path d="M767 306a6 6 0 0 1 6-6h28a6 6 0 0 1 6 6v28a6 6 0 0 1-6 6h-28a6 6 0 0 1-6-6v-28z" stroke="#3a414a" fill="#fcfcca"/><use xlink:href="#c" transform="translate(1121.44 569.778)" y="-240" x="-340"/><path d="M807 306a6 6 0 0 1 6-6h28a6 6 0 0 1 6 6v28a6 6 0 0 1-6 6h-28a6 6 0 0 1-6-6v-28z" stroke="#3a414a" fill="#d7faf5"/><use xlink:href="#c" transform="translate(1161.44 569.778)" y="-240" x="-340"/><path d="M847 306a6 6 0 0 1 6-6h28a6 6 0 0 1 6 6v28a6 6 0 0 1-6 6h-28a6 6 0 0 1-6-6v-28z" stroke="#3a414a" fill="#d7faf5"/><use xlink:href="#c" transform="translate(1201.44 569.778)" y="-240" x="-340"/><path d="M887 306a6 6 0 0 1 6-6h28a6 6 0 0 1 6 6v28a6 6 0 0 1-6 6h-28a6 6 0 0 1-6-6v-28z" stroke="#3a414a" fill="#d7faf5"/><use xlink:href="#c" transform="translate(1241.44 569.778)" y="-240" x="-340"/><path d="M1020 85a6 6 0 0 1 6-6h239.84a6 6 0 0 1 6 6v168a6 6 0 0 1-6 6H1026a6 6 0 0 1-6-6V85z" stroke="#3a414a" fill="#fff"/><use xlink:href="#d" transform="translate(1372 348.778)" y="-240" x="-340"/><path d="M1020 145a6 6 0 0 1 6-6h239.84a6 6 0 0 1 6 6v28a6 6 0 0 1-6 6H1026a6 6 0 0 1-6-6v-28z" stroke="#3a414a" fill="#fff"/><use xlink:href="#e" transform="translate(1387.79 408.778)" y="-240" x="-340"/><path d="M1020 185a6 6 0 0 1 6-6h239.84a6 6 0 0 1 6 6v28a6 6 0 0 1-6 6H1026a6 6 0 0 1-6-6v-28z" stroke="#3a414a" fill="#fff"/><use xlink:href="#p" transform="translate(1382.54 448.778)" y="-240" x="-340"/><path d="M1020 225a6 6 0 0 1 6-6h239.84a6 6 0 0 1 6 6v28a6 6 0 0 1-6 6H1026a6 6 0 0 1-6-6v-28z" stroke="#3a414a" fill="#fff"/><use xlink:href="#g" transform="translate(1376.22 488.778)" y="-240" x="-340"/><path d="M1019 199.5h-43a6 6 0 0 0-6 6V404a6 6 0 0 1-6 6H513a6 6 0 0 1-6-6v-47.12" stroke="#635dff" fill="none"/><path d="M1019.5 200h-.5v-1h.5v1z" stroke="#635dff" stroke-width=".05" fill="#635dff"/><path d="m507 342.12 4.63 14.26h-9.26l4.63-14.26z" stroke="#635dff" fill="#635dff"/><path d="M1019 241.5h-33a6 6 0 0 0-6 6V444a6 6 0 0 1-6 6H393a6 6 0 0 1-6-6v-87.12" stroke="#008573" fill="none"/><path d="M1019.5 242h-.5v-1h.5v1z" stroke="#008573" stroke-width=".05" fill="#008573"/><path d="m387 342.12 4.63 14.26h-9.26l4.63-14.26z" stroke="#008573" fill="#008573"/><path d="M860.5 266.33a6 6 0 0 1 6-6h81a6 6 0 0 1 6 6v28a6 6 0 0 1-6 6h-81a6 6 0 0 1-6-6v-28z" fill="none"/><use xlink:href="#c" transform="translate(1241.44 524.986)" y="-240" x="-340"/><path d="M740.5 266.33a6 6 0 0 1 6-6h81a6 6 0 0 1 6 6v28a6 6 0 0 1-6 6h-81a6 6 0 0 1-6-6v-28z" fill="none"/><use xlink:href="#h" transform="translate(1121.44 524.986)" y="-240" x="-340"/><path d="M620.5 266a6 6 0 0 1 6-6h81a6 6 0 0 1 6 6v28.67a6 6 0 0 1-6 6h-81a6 6 0 0 1-6-6V266z" fill="none"/><use xlink:href="#i" transform="translate(1001.44 524.715)" y="-240" x="-340"/><path d="M500.5 266a6 6 0 0 1 6-6h81a6 6 0 0 1 6 6v28.67a6 6 0 0 1-6 6h-81a6 6 0 0 1-6-6V266z" fill="none"/><use xlink:href="#j" transform="translate(881.444 524.715)" y="-240" x="-340"/><path d="M380.5 266a6 6 0 0 1 6-6h81a6 6 0 0 1 6 6v28.67a6 6 0 0 1-6 6h-81a6 6 0 0 1-6-6V266z" fill="none"/><use xlink:href="#k" transform="translate(755.889 524.715)" y="-240" x="-340"/><path d="M1020 285a6 6 0 0 1 6-6h239.84a6 6 0 0 1 6 6v48a6 6 0 0 1-6 6H1026a6 6 0 0 1-6-6v-48z" stroke="#3a414a" fill="#fff"/><use xlink:href="#l" transform="translate(1372 548.778)" y="-240" x="-340"/><path d="M1020 365a6 6 0 0 1 6-6h239.84a6 6 0 0 1 6 6v48a6 6 0 0 1-6 6H1026a6 6 0 0 1-6-6v-48z" stroke="#3a414a" fill="#fff"/><use xlink:href="#m" transform="translate(1372 628.778)" y="-240" x="-340"/><path d="M1020 445a6 6 0 0 1 6-6h239.84a6 6 0 0 1 6 6v48a6 6 0 0 1-6 6H1026a6 6 0 0 1-6-6v-48z" stroke="#3a414a" fill="#fff"/><use xlink:href="#n" transform="translate(1372 708.778)" y="-240" x="-340"/><path d="M1019 159h-53a6 6 0 0 0-6 6v209.5a6 6 0 0 1-6 6H553a6 6 0 0 1-6-6v-17.62" stroke="#ff8f8f" fill="none"/><path d="M1019.5 159.5h-.5v-1h.5v1z" stroke="#ff8f8f" stroke-width=".05" fill="#ff8f8f"/><path d="m547 342.12 4.63 14.26h-9.26l4.63-14.26z" stroke="#ff8f8f" fill="#ff8f8f"/><defs transform="translate(-340 -240)"><path fill="#3a414a" d="M76-116c0 86 71 126 135 84l6-39h16l-1 60C138 21 18 1 18-115c0-117 106-141 210-112l1 57h-16l-5-34c-13-9-32-16-54-16-60 0-78 42-78 104" id="q"/><path fill="#3a414a" d="M132-132c-21 0-37 9-50 16v100l26 4V0H10v-12l21-4v-133l-21-5v-11h69l2 34c17-18 35-41 71-40v61c-17 3-14-14-20-22" id="r"/><path fill="#3a414a" d="M90-170c54-1 76 32 76 87 1 56-23 87-77 87-53 0-75-32-75-87s23-86 76-87zM89-14c28-2 26-38 26-69s3-69-26-69c-27 0-24 39-24 69s-3 66 24 69" id="s"/><path fill="#3a414a" d="M186-86c2 69-46 103-114 85l1 62 25 4v12H5V65l18-4v-210l-18-5v-11h67v8c12-8 26-13 46-13 49 2 67 30 68 84zm-83 71c28 0 31-33 31-69 0-34-2-66-30-66-12 0-23 3-31 7v124c9 2 20 4 30 4" id="t"/><path fill="#3a414a" d="M75-13V0H4v-13l17-5 84-220h51l83 220 18 5V0H152v-13l28-5-23-61H67L45-18l30 5zm38-189L74-98h76" id="u"/><path fill="#3a414a" d="M109-18c15 0 31-2 42-6v14c-11 9-31 13-51 13-59 0-86-28-88-86-3-75 66-101 135-80v48h-13c-3-20-7-40-34-37-51 7-55 138 9 134" id="v"/><path fill="#3a414a" d="M127-114c3-31-26-38-50-25v123l15 4V0H10v-12l16-4v-218l-17-4v-12h68l-1 99c31-23 102-32 102 30v105l17 4V0h-82v-12l14-4v-98" id="w"/><path fill="#3a414a" d="M12-83c0-55 22-85 75-86 52-1 66 33 63 88H64c-1 37 6 64 44 63 14 0 28-4 39-6 3 28-28 25-55 27-57 4-80-31-80-86zm90-17c2-26 0-63-27-48-10 9-11 28-11 48h38" id="x"/><path fill="#3a414a" d="M78-41c-2 24 21 26 40 20C122 3 98 2 77 4 5 10 32-84 27-147H6v-11l25-7 21-38h26v38h35v18H78v106" id="y"/><path fill="#3a414a" d="M81 5 15-149c-7-2-13-5-11-16h84v11l-20 5 39 91 35-91-19-5v-11h53c2 11-4 13-11 15C134-81 111-5 75 58 65 77 34 83 8 74V32h11c0 24 29 35 43 12 7-11 13-25 19-39" id="z"/><path fill="#3a414a" d="m110-14 48 5v9H32v-9l48-5v-192l-48 17v-10l69-39h9v224" id="A"/><path fill="#3a414a" d="M90-239c59 0 76 52 76 120S152 4 89 4C31 4 14-51 14-119c0-67 17-120 76-120zM89-10c45-6 45-58 45-109 0-50 0-101-45-106-45 4-43 57-43 106 0 50-2 104 43 109" id="B"/><path fill="#3a414a" d="M92-101v83l39 5V0H8v-13l28-5v-200l-30-5v-13h197v64h-17l-5-42c-27-3-59-2-89-2v96h57l6-30h15v80h-15l-6-31H92" id="C"/><path fill="#3a414a" d="M31-163c51-5 127-20 127 40v107l17 4V0h-61l-4-13C82 13 12 12 12-46c0-51 46-52 95-53 9-45-22-69-57-44l-7 20H31v-40zM62-47c0 30 26 34 45 23v-59c-28 0-45 6-45 36" id="D"/><path fill="#3a414a" d="M9 41c2-18 18-26 32-33C29 1 16-9 16-28l29-33c-21-9-31-25-31-51-2-56 61-65 111-53l39-20c13 12-9 24-14 36 35 54-17 114-90 92-17 34 27 28 56 28 36-1 61 12 60 46-2 46-39 62-91 62-38 0-71-6-76-38zm35-3c6 35 97 29 94-9-2-28-50-14-78-17-8 7-15 14-16 26zm20-150c0 22 4 40 23 40 20 0 24-17 24-40 0-24-4-40-24-40-19 0-23 17-23 40" id="E"/><path fill="#3a414a" d="M126-114c3-31-27-37-49-25v123l15 4V0H10v-12l16-4v-133l-16-5v-11h64l2 14c24-16 81-33 96 3 30-24 105-39 105 27v105l17 4V0h-82v-12l14-4v-98c4-33-27-37-51-24 5 35 0 82 2 122l17 4V0h-83v-12l15-4v-98" id="F"/><path fill="#3a414a" d="M127-114c3-31-26-38-50-25v123l15 4V0H10v-12l16-4v-133l-16-5v-11h64l2 14c31-23 102-32 102 30v105l17 4V0h-82v-12l14-4v-98" id="G"/><path fill="#3a414a" d="M102-142c-14-17-68-15-54 18 24 26 83 17 83 72 0 62-72 62-120 47v-45h12c4 23 16 37 43 37 35 0 39-37 9-46-31-9-65-19-64-61 0-52 59-55 108-45v43h-11" id="H"/><path fill="#3a414a" d="M75-106v92l39 5v9H13v-9l28-5v-208l-31-4v-10h177v57h-11l-6-38c-28-4-63-3-95-3v98h69l5-28h11v73h-11l-5-29H75" id="I"/><path fill="#3a414a" d="M32-163c41-10 102-14 102 39v112c8 3 24-2 21 12h-45l-4-17C83 13 3 13 13-46c-2-50 45-50 92-51 4-36-5-70-42-56-6 2-12 4-16 6-4 7 0 23-15 20v-36zM42-47c0 41 41 33 63 22v-59c-34 1-63-1-63 37" id="J"/><path fill="#3a414a" d="M57-145c16-10 35-24 60-25v45c-19 1-8-30-40-17l-20 6v124l29 4v8H7v-8l21-4v-141c-8-3-24 2-21-12h48" id="K"/><path fill="#3a414a" d="M126-118c4-37-42-32-68-25v131l24 4v8H8C5-13 21-9 28-12v-141c-7-3-23 1-20-12h48l1 13c22-15 77-30 92 2 32-22 104-36 104 29v109c8 3 24-2 21 12h-75v-8l25-4v-106c3-39-45-31-72-24 7 37 1 88 3 130l25 4v8h-78v-8l24-4v-106" id="L"/><path fill="#3a414a" d="M319-222 242 5h-10l-61-162L108 5h-9L21-222l-21-4v-10h90v10l-34 4 56 166 63-163h8l61 163 54-166-37-4v-10h78v10" id="M"/><path fill="#3a414a" d="M54-38c-1 25 24 26 44 20v12C71 10 25 9 25-35v-115H4c-2-14 14-10 21-15l18-38h11v38h38v15H54v112" id="N"/><path fill="#3a414a" d="M84-170c49 0 66 33 63 87H46c-8 60 38 80 95 63v10C128-2 108 4 88 4 34 4 14-29 14-84c-1-54 22-86 70-86zm33 73c12-57-57-82-69-24-1 7-2 15-2 24h71" id="O"/><path fill="#3a414a" d="M141-152c28 39 5 97-54 97-9 0-20-2-27-3L49-35c29 22 130-14 124 52-4 45-38 57-88 61C21 83-8 26 45-2 33-6 22-15 21-31l28-31c-19-9-28-26-28-51-2-51 53-65 100-52l38-20 7 8-25 25zM85 64c35 0 61-11 61-42 0-35-57-17-89-21-9 8-16 19-17 34 0 25 19 29 45 29zM52-113c1 26 7 46 35 44 28-1 34-16 35-44 0-26-6-43-34-43s-36 17-36 43" id="P"/><path fill="#3a414a" d="M125-118c4-37-41-34-68-26v132l23 4v8H8C5-13 21-9 28-12v-141c-7-3-23 1-20-12h47l2 13c31-23 98-29 98 31v109c7 3 23-1 20 12h-72v-8l22-4v-106" id="Q"/><path fill="#3a414a" d="M52-115c0 93 80 130 150 87l7-35h11l-1 55c-23 7-52 12-83 12C60 4 19-37 15-115c-5-113 97-141 201-114l1 51h-12l-5-30c-15-9-39-16-62-16-66 0-86 41-86 109" id="R"/><path fill="#3a414a" d="M90-170c52 0 76 32 76 87 0 54-24 87-77 87-51 0-75-34-75-87 0-54 24-87 76-87zM89-10c39 0 46-35 46-73 0-39-7-73-46-73-39 1-44 34-44 73s6 72 44 73" id="S"/><path fill="#3a414a" d="M166-85c3 67-44 102-111 85l1 64 29 4v9H6v-9l21-4v-217c-7-3-22 1-19-12h46l1 9c11-8 26-14 45-14 47 2 64 36 66 85zM56-13c53 14 83-14 78-72 7-53-33-79-78-60v132" id="T"/><path fill="#3a414a" d="M10 0v-9l31-5v-208l-31-4v-10h95v10l-30 4v93h110v-93l-30-4v-10h94v10l-30 4v208l30 5v9h-94v-9l30-5v-99H75v99l30 5v9H10" id="U"/><path fill="#3a414a" d="M164-154 98 4H85L17-153c-7-3-20 0-17-12h77v8l-26 4L99-38l46-115-26-4v-8h61v8" id="V"/><path fill="#3a414a" d="M41-130c7 48 86 23 86 84 0 56-69 57-112 41v-40c20 0 9 29 31 31 35 19 77-26 41-50-27-18-72-13-72-59 0-50 58-52 100-41v36c-19 1-8-25-28-25-21-7-50-1-46 23" id="W"/><path fill="#3a414a" d="M55 0v-9l38-5v-207c-22 1-53 0-70 4l-5 37H7v-56h207v56h-12l-5-37-70-3v206l37 5v9H55" id="X"/><path fill="#3a414a" d="M47-200c-23 0-25-39 0-38 13 0 18 7 20 19-1 11-8 19-20 19zM65-12l28 4v8H8v-8l28-4v-141l-24-4v-8h53v153" id="Y"/><path fill="#3a414a" d="M104-123c39 3 61 21 62 59C167 7 83 12 19-4l-2-50h12c2 29 16 43 51 43 38 0 54-19 54-55 2-43-34-49-75-50v-14c37 0 64-7 64-48 0-47-47-56-81-36l-6 29H24v-46c51-13 135-13 131 51-2 34-20 52-51 57" id="Z"/><path fill="#3a414a" d="M48-126c45-28 121-18 121 53 0 50-25 77-72 77-63 0-80-54-82-120-3-88 52-142 140-116v40h-12c2-42-66-39-79-8-8 20-16 43-16 74zm0 11c2 50 2 105 49 105 33 0 37-26 40-60 5-60-49-61-89-45" id="aa"/><path fill="#3a414a" d="M133-108C87-80 6-93 12-164c4-49 26-74 76-74 64 1 77 52 77 120C165-26 111 22 21-2v-41h11C28-1 99-4 114-33c10-20 17-43 19-75zm0-12c-3-48 0-104-45-104-34 0-44 25-44 61 0 32 10 52 43 52 17 0 33-4 46-9" id="ab"/><path fill="#3a414a" d="M24-231c66-21 156 2 128 81C132-92 78-66 39-27h121V0H16v-26l59-54c26-25 47-47 47-97 0-48-47-57-81-37l-6 29H24v-46" id="ac"/><path fill="#3a414a" d="M54 0v-13l38-5v-199l-66 3-4 44H6v-66h229v66h-17l-4-44c-17-2-44-3-67-3v199l38 5V0H54" id="ad"/><path fill="#3a414a" d="M73-51c-3 31 27 38 51 25v-123l-16-5v-11h66v149l17 4V0h-65l-2-14C94 9 22 18 22-44v-105l-17-5v-11h68v114" id="ae"/><path fill="#3a414a" d="m77-79 64-71-17-4v-11h63v11c-32 3-40 30-59 46l57 92 15 4V0h-80c-2-11 3-15 10-16L97-74 77-60v44l16 4V0H10v-12l16-4v-218l-17-4v-12h68v171" id="af"/><path fill="#3a414a" d="M185-72C185 13 82 14 19-9v-63h16c2 37 21 58 61 58 46 0 69-51 31-71-42-23-106-23-106-90 0-69 87-70 148-56v56h-16l-7-32c-26-25-110-13-82 35 39 34 121 26 121 100" id="ag"/><path fill="#3a414a" d="M15-82c-4-69 47-101 113-83l-1-69-17-4v-12h68v234l18 4V0h-63l-4-9C77 23 5-9 15-82zm112-66c-43-16-64 17-61 65 2 33 3 67 32 67 12 0 22-3 29-8v-124" id="ah"/><path fill="#3a414a" d="m76-16 18 4V0H7v-12l18-4v-218l-17-4v-12h68v234" id="ai"/><path fill="#3a414a" d="m154-149 38 94 32-94-20-5v-11h54v11l-13 4L190 4h-21l-38-93L93 4H72L13-149c-7-2-15-4-12-16h82v11l-20 5 36 94 38-94h17" id="aj"/><path fill="#3a414a" d="m65-12 28 4v8H7v-8l28-4v-226l-28-4v-8h58v238" id="ak"/><path fill="#3a414a" d="M240-154 185 4h-14l-41-109L90 4H77L20-153c-7-3-23 1-20-12h79v8l-27 4L91-41l40-108h14l40 109 38-113-28-4v-8h63v8" id="al"/><g id="a"><use transform="rotate(.413) scale(.06173)" xlink:href="#q"/><use transform="matrix(.06173 0 0 .06173 15.988 0)" xlink:href="#r"/><use transform="matrix(.06173 0 0 .06173 25.37 0)" xlink:href="#s"/><use transform="matrix(.06173 0 0 .06173 36.481 0)" xlink:href="#t"/><use transform="matrix(.06173 0 0 .06173 48.827 0)" xlink:href="#u"/><use transform="matrix(.06173 0 0 .06173 64.815 0)" xlink:href="#r"/><use transform="matrix(.06173 0 0 .06173 74.198 0)" xlink:href="#v"/><use transform="matrix(.06173 0 0 .06173 84.012 0)" xlink:href="#w"/><use transform="matrix(.06173 0 0 .06173 96.358 0)" xlink:href="#x"/><use transform="matrix(.06173 0 0 .06173 106.173 0)" xlink:href="#y"/><use transform="matrix(.06173 0 0 .06173 113.519 0)" xlink:href="#z"/><use transform="matrix(.06173 0 0 .06173 124.63 0)" xlink:href="#t"/><use transform="matrix(.06173 0 0 .06173 136.975 0)" xlink:href="#x"/></g><g id="d"><use transform="rotate(.413) scale(.06173)" xlink:href="#C"/><use transform="matrix(.06173 0 0 .06173 13.519 0)" xlink:href="#r"/><use transform="matrix(.06173 0 0 .06173 23.333 0)" xlink:href="#D"/><use transform="matrix(.06173 0 0 .06173 34.444 0)" xlink:href="#E"/><use transform="matrix(.06173 0 0 .06173 45.556 0)" xlink:href="#F"/><use transform="matrix(.06173 0 0 .06173 64.012 0)" xlink:href="#x"/><use transform="matrix(.06173 0 0 .06173 73.827 0)" xlink:href="#G"/><use transform="matrix(.06173 0 0 .06173 86.173 0)" xlink:href="#y"/><use transform="matrix(.06173 0 0 .06173 93.519 0)" xlink:href="#H"/></g><g id="e"><use transform="rotate(.413) scale(.06173)" xlink:href="#I"/><use transform="matrix(.06173 0 0 .06173 12.346 0)" xlink:href="#I"/><use transform="matrix(.06173 0 0 .06173 24.691 0)" xlink:href="#J"/><use transform="matrix(.06173 0 0 .06173 34.506 0)" xlink:href="#K"/><use transform="matrix(.06173 0 0 .06173 41.852 0)" xlink:href="#L"/><use transform="matrix(.06173 0 0 .06173 59.136 0)" xlink:href="#M"/><use transform="matrix(.06173 0 0 .06173 78.272 0)" xlink:href="#J"/><use transform="matrix(.06173 0 0 .06173 88.086 0)" xlink:href="#N"/><use transform="matrix(.06173 0 0 .06173 94.26 0)" xlink:href="#O"/><use transform="matrix(.06173 0 0 .06173 104.074 0)" xlink:href="#K"/><use transform="matrix(.06173 0 0 .06173 111.42 0)" xlink:href="#I"/><use transform="matrix(.06173 0 0 .06173 123.765 0)" xlink:href="#K"/><use transform="matrix(.06173 0 0 .06173 131.111 0)" xlink:href="#J"/><use transform="matrix(.06173 0 0 .06173 140.926 0)" xlink:href="#P"/><use transform="matrix(.06173 0 0 .06173 152.037 0)" xlink:href="#L"/><use transform="matrix(.06173 0 0 .06173 169.321 0)" xlink:href="#O"/><use transform="matrix(.06173 0 0 .06173 179.136 0)" xlink:href="#Q"/><use transform="matrix(.06173 0 0 .06173 190.247 0)" xlink:href="#N"/></g><g id="f"><use transform="rotate(.413) scale(.06173)" xlink:href="#I"/><use transform="matrix(.06173 0 0 .06173 12.346 0)" xlink:href="#I"/><use transform="matrix(.06173 0 0 .06173 24.691 0)" xlink:href="#J"/><use transform="matrix(.06173 0 0 .06173 34.506 0)" xlink:href="#K"/><use transform="matrix(.06173 0 0 .06173 41.852 0)" xlink:href="#L"/><use transform="matrix(.06173 0 0 .06173 59.136 0)" xlink:href="#R"/><use transform="matrix(.06173 0 0 .06173 73.95 0)" xlink:href="#K"/><use transform="matrix(.06173 0 0 .06173 81.296 0)" xlink:href="#S"/><use transform="matrix(.06173 0 0 .06173 92.407 0)" xlink:href="#T"/><use transform="matrix(.06173 0 0 .06173 103.519 0)" xlink:href="#I"/><use transform="matrix(.06173 0 0 .06173 115.864 0)" xlink:href="#K"/><use transform="matrix(.06173 0 0 .06173 123.21 0)" xlink:href="#J"/><use transform="matrix(.06173 0 0 .06173 133.025 0)" xlink:href="#P"/><use transform="matrix(.06173 0 0 .06173 144.136 0)" xlink:href="#L"/><use transform="matrix(.06173 0 0 .06173 161.42 0)" xlink:href="#O"/><use transform="matrix(.06173 0 0 .06173 171.235 0)" xlink:href="#Q"/><use transform="matrix(.06173 0 0 .06173 182.346 0)" xlink:href="#N"/></g><g id="g"><use transform="rotate(.413) scale(.06173)" xlink:href="#I"/><use transform="matrix(.06173 0 0 .06173 12.346 0)" xlink:href="#U"/><use transform="matrix(.06173 0 0 .06173 28.333 0)" xlink:href="#J"/><use transform="matrix(.06173 0 0 .06173 38.148 0)" xlink:href="#K"/><use transform="matrix(.06173 0 0 .06173 45.494 0)" xlink:href="#V"/><use transform="matrix(.06173 0 0 .06173 56.605 0)" xlink:href="#O"/><use transform="matrix(.06173 0 0 .06173 66.42 0)" xlink:href="#W"/><use transform="matrix(.06173 0 0 .06173 75.062 0)" xlink:href="#N"/><use transform="matrix(.06173 0 0 .06173 81.235 0)" xlink:href="#X"/><use transform="matrix(.06173 0 0 .06173 93.95 0)" xlink:href="#Y"/><use transform="matrix(.06173 0 0 .06173 100.123 0)" xlink:href="#L"/><use transform="matrix(.06173 0 0 .06173 117.407 0)" xlink:href="#O"/><use transform="matrix(.06173 0 0 .06173 127.222 0)" xlink:href="#K"/><use transform="matrix(.06173 0 0 .06173 134.568 0)" xlink:href="#I"/><use transform="matrix(.06173 0 0 .06173 146.914 0)" xlink:href="#K"/><use transform="matrix(.06173 0 0 .06173 154.26 0)" xlink:href="#J"/><use transform="matrix(.06173 0 0 .06173 164.074 0)" xlink:href="#P"/><use transform="matrix(.06173 0 0 .06173 175.185 0)" xlink:href="#L"/><use transform="matrix(.06173 0 0 .06173 192.47 0)" xlink:href="#O"/><use transform="matrix(.06173 0 0 .06173 202.284 0)" xlink:href="#Q"/><use transform="matrix(.06173 0 0 .06173 213.395 0)" xlink:href="#N"/></g><g id="k"><use transform="rotate(.413) scale(.06173)" xlink:href="#A"/><use transform="matrix(.06173 0 0 .06173 11.111 0)" xlink:href="#ac"/></g><g id="l"><use transform="rotate(.413) scale(.06173)" xlink:href="#ad"/><use transform="matrix(.06173 0 0 .06173 12.778 0)" xlink:href="#D"/><use transform="matrix(.06173 0 0 .06173 23.889 0)" xlink:href="#E"/><use transform="matrix(.06173 0 0 .06173 35 0)" xlink:href="#H"/></g><g id="m"><use transform="rotate(.413) scale(.06173)" xlink:href="#q"/><use transform="matrix(.06173 0 0 .06173 15.988 0)" xlink:href="#w"/><use transform="matrix(.06173 0 0 .06173 28.333 0)" xlink:href="#ae"/><use transform="matrix(.06173 0 0 .06173 40.679 0)" xlink:href="#G"/><use transform="matrix(.06173 0 0 .06173 53.025 0)" xlink:href="#af"/><use transform="matrix(.06173 0 0 .06173 65.37 0)" xlink:href="#C"/><use transform="matrix(.06173 0 0 .06173 78.889 0)" xlink:href="#r"/><use transform="matrix(.06173 0 0 .06173 88.704 0)" xlink:href="#D"/><use transform="matrix(.06173 0 0 .06173 99.815 0)" xlink:href="#E"/><use transform="matrix(.06173 0 0 .06173 110.926 0)" xlink:href="#F"/><use transform="matrix(.06173 0 0 .06173 129.383 0)" xlink:href="#x"/><use transform="matrix(.06173 0 0 .06173 139.198 0)" xlink:href="#G"/><use transform="matrix(.06173 0 0 .06173 151.543 0)" xlink:href="#y"/><use transform="matrix(.06173 0 0 .06173 158.889 0)" xlink:href="#H"/></g><g id="n"><use transform="rotate(.413) scale(.06173)" xlink:href="#ag"/><use transform="matrix(.06173 0 0 .06173 12.346 0)" xlink:href="#w"/><use transform="matrix(.06173 0 0 .06173 24.691 0)" xlink:href="#D"/><use transform="matrix(.06173 0 0 .06173 35.802 0)" xlink:href="#r"/><use transform="matrix(.06173 0 0 .06173 45.185 0)" xlink:href="#x"/><use transform="matrix(.06173 0 0 .06173 55 0)" xlink:href="#ah"/><use transform="matrix(.06173 0 0 .06173 67.346 0)" xlink:href="#C"/><use transform="matrix(.06173 0 0 .06173 80.864 0)" xlink:href="#r"/><use transform="matrix(.06173 0 0 .06173 90.679 0)" xlink:href="#D"/><use transform="matrix(.06173 0 0 .06173 101.79 0)" xlink:href="#E"/><use transform="matrix(.06173 0 0 .06173 112.901 0)" xlink:href="#F"/><use transform="matrix(.06173 0 0 .06173 131.358 0)" xlink:href="#x"/><use transform="matrix(.06173 0 0 .06173 141.173 0)" xlink:href="#G"/><use transform="matrix(.06173 0 0 .06173 153.519 0)" xlink:href="#y"/><use transform="matrix(.06173 0 0 .06173 160.864 0)" xlink:href="#H"/></g><g id="o"><use transform="rotate(.413) scale(.06173)" xlink:href="#C"/><use transform="matrix(.06173 0 0 .06173 13.519 0)" xlink:href="#ai"/><use transform="matrix(.06173 0 0 .06173 19.691 0)" xlink:href="#s"/><use transform="matrix(.06173 0 0 .06173 30.802 0)" xlink:href="#aj"/><use transform="matrix(.06173 0 0 .06173 46.79 0)" xlink:href="#x"/><use transform="matrix(.06173 0 0 .06173 56.605 0)" xlink:href="#r"/><use transform="matrix(.06173 0 0 .06173 66.42 0)" xlink:href="#u"/><use transform="matrix(.06173 0 0 .06173 82.407 0)" xlink:href="#r"/><use transform="matrix(.06173 0 0 .06173 91.79 0)" xlink:href="#v"/><use transform="matrix(.06173 0 0 .06173 101.605 0)" xlink:href="#w"/><use transform="matrix(.06173 0 0 .06173 113.95 0)" xlink:href="#x"/><use transform="matrix(.06173 0 0 .06173 123.765 0)" xlink:href="#y"/><use transform="matrix(.06173 0 0 .06173 131.111 0)" xlink:href="#z"/><use transform="matrix(.06173 0 0 .06173 142.222 0)" xlink:href="#t"/><use transform="matrix(.06173 0 0 .06173 154.568 0)" xlink:href="#x"/></g><g id="p"><use transform="rotate(.413) scale(.06173)" xlink:href="#I"/><use transform="matrix(.06173 0 0 .06173 12.346 0)" xlink:href="#I"/><use transform="matrix(.06173 0 0 .06173 24.691 0)" xlink:href="#J"/><use transform="matrix(.06173 0 0 .06173 34.506 0)" xlink:href="#K"/><use transform="matrix(.06173 0 0 .06173 41.852 0)" xlink:href="#L"/><use transform="matrix(.06173 0 0 .06173 59.136 0)" xlink:href="#I"/><use transform="matrix(.06173 0 0 .06173 71.481 0)" xlink:href="#ak"/><use transform="matrix(.06173 0 0 .06173 77.654 0)" xlink:href="#S"/><use transform="matrix(.06173 0 0 .06173 88.765 0)" xlink:href="#al"/><use transform="matrix(.06173 0 0 .06173 104.753 0)" xlink:href="#O"/><use transform="matrix(.06173 0 0 .06173 114.568 0)" xlink:href="#K"/><use transform="matrix(.06173 0 0 .06173 121.914 0)" xlink:href="#I"/><use transform="matrix(.06173 0 0 .06173 134.26 0)" xlink:href="#K"/><use transform="matrix(.06173 0 0 .06173 141.605 0)" xlink:href="#J"/><use transform="matrix(.06173 0 0 .06173 151.42 0)" xlink:href="#P"/><use transform="matrix(.06173 0 0 .06173 162.53 0)" xlink:href="#L"/><use transform="matrix(.06173 0 0 .06173 179.815 0)" xlink:href="#O"/><use transform="matrix(.06173 0 0 .06173 189.63 0)" xlink:href="#Q"/><use transform="matrix(.06173 0 0 .06173 200.74 0)" xlink:href="#N"/></g><use transform="rotate(.413) scale(.06173)" xlink:href="#A" id="b"/><use transform="rotate(.413) scale(.06173)" xlink:href="#B" id="c"/><use transform="rotate(.413) scale(.06173)" xlink:href="#Z" id="h"/><use transform="rotate(.413) scale(.06173)" xlink:href="#aa" id="i"/><use transform="rotate(.413) scale(.06173)" xlink:href="#ab" id="j"/></defs></svg>