<svg xmlns="http://www.w3.org/2000/svg" xmlns:xlink="http://www.w3.org/1999/xlink" xmlns:lucid="lucid" width="1300" height="560"><g transform="translate(-120 -120)" lucid:page-tab-id="0_0"><path d="M780 146a6 6 0 0 1 6-6h608a6 6 0 0 1 6 6v508a6 6 0 0 1-6 6H786a6 6 0 0 1-6-6z" stroke="#3a414a" fill="#d7faf5"/><use xlink:href="#a" transform="translate(792 173.333)"/><use xlink:href="#b" transform="translate(857.852 173.333)"/><use xlink:href="#c" transform="translate(884.519 173.333)"/><path d="M140 146a6 6 0 0 1 6-6h608a6 6 0 0 1 6 6v508a6 6 0 0 1-6 6H146a6 6 0 0 1-6-6z" stroke="#3a414a" fill="#fcfcca"/><use xlink:href="#d" transform="translate(152 173.333)"/><use xlink:href="#e" transform="translate(178.667 173.333)"/><use xlink:href="#f" transform="translate(205.333 173.333)"/><use xlink:href="#g" transform="translate(232 173.333)"/><path d="M860 247.1a6 6 0 0 1 6-6h472.97a6 6 0 0 1 6 6v108a6 6 0 0 1-6 6H866a6 6 0 0 1-6-6z" stroke="#3a414a" fill="#fff"/><path d="M860 284.04h484.97" stroke="#3a414a" fill="none"/><use xlink:href="#h" transform="translate(988.657 267.091)"/><path d="M207.5 246a6 6 0 0 1 6-6h473a6 6 0 0 1 6 6v108a6 6 0 0 1-6 6h-473a6 6 0 0 1-6-6z" stroke="#3a414a" fill="#fff"/><path d="M207.5 282.93h485" stroke="#3a414a" fill="none"/><use xlink:href="#i" transform="translate(323.11 265.989)"/><path d="M207.5 304.5a6 6 0 0 1 6-6h473a6 6 0 0 1 6 6v51.7a6 6 0 0 1-6 6h-473a6 6 0 0 1-6-6z" fill="none"/><use xlink:href="#j" transform="translate(212.514 334.774)"/><use xlink:href="#j" transform="translate(218.07 334.774)"/><use xlink:href="#k" transform="translate(236.156 334.774)"/><use xlink:href="#l" transform="translate(548.44 334.774)"/><path d="M207.5 466a6 6 0 0 1 6-6h473a6 6 0 0 1 6 6v127a6 6 0 0 1-6 6h-473a6 6 0 0 1-6-6z" stroke="#3a414a" fill="#fff"/><path d="M207.5 502.93h485" stroke="#3a414a" fill="none"/><use xlink:href="#m" transform="translate(346.77 485.989)"/><use xlink:href="#n" transform="translate(219.514 542.044)"/><use xlink:href="#o" transform="translate(237.6 542.044)"/><use xlink:href="#p" transform="translate(288.835 542.044)"/><use xlink:href="#n" transform="translate(219.514 568.711)"/><use xlink:href="#o" transform="translate(237.6 568.711)"/><use xlink:href="#q" transform="translate(288.835 568.711)"/><path d="M693.5 300h149.6" stroke="#cc4e00" fill="none"/><path d="M693.5 300.5h-.5v-1h.5z" stroke="#cc4e00" stroke-width=".05" fill="#cc4e00"/><path d="m857.88 300-14.26 4.63v-9.26z" stroke="#cc4e00" fill="#cc4e00"/><path d="M693.5 529.5h149.6" stroke="#cc4e00" fill="none"/><path d="M693.5 530h-.5v-1h.5z" stroke="#cc4e00" stroke-width=".05" fill="#cc4e00"/><path d="m857.88 529.5-14.26 4.63v-9.27z" stroke="#cc4e00" fill="#cc4e00"/><path d="M1102.5 459v-67.02" stroke="#3a414a" fill="none"/><path d="M1103 459.5h-1v-.5h1z" stroke="#3a414a" stroke-width=".05" fill="#3a414a"/><path d="m1102.5 362.3 14.84 14.86-14.85 15.15-14.86-15.14zM860 466a6 6 0 0 1 6-6h472.97a6 6 0 0 1 6 6v118a6 6 0 0 1-6 6H866a6 6 0 0 1-6-6z" stroke="#3a414a" fill="#fff"/><path d="M860 502.93h484.97" stroke="#3a414a" fill="none"/><use xlink:href="#r" transform="translate(1040.341 485.989)"/><path d="M860 511.22a6 6 0 0 1 6-6h472.97a6 6 0 0 1 6 6v35.52a6 6 0 0 1-6 6H866a6 6 0 0 1-6-6z" fill="none"/><use xlink:href="#t" transform="translate(865 533.345)"/><use xlink:href="#s" transform="translate(870 533.345)"/><use xlink:href="#t" transform="translate(886.278 533.345)"/><use xlink:href="#u" transform="translate(1178.611 533.345)"/><path d="M860 551.35a6 6 0 0 1 6-6h348a6 6 0 0 1 6 6V593a6 6 0 0 1-6 6H866a6 6 0 0 1-6-6z" fill="none"/><use xlink:href="#j" transform="translate(865 576.379)"/><use xlink:href="#j" transform="translate(870.556 576.379)"/><use xlink:href="#v" transform="translate(888.642 576.379)"/><defs><path fill="#3a414a" d="M155 0h-10L58-199v181l32 5V0H6v-13l30-5v-200l-30-5v-13h93l67 155 69-155h94v13l-30 5v200l30 5V0H212v-13l32-5v-181" id="w"/><path fill="#3a414a" d="M31-163c51-5 127-20 127 40v107l17 4V0h-61l-4-13C82 13 12 12 12-46c0-51 46-52 95-53 9-45-22-69-57-44l-7 20H31v-40zM62-47c0 30 26 34 45 23v-59c-28 0-45 6-45 36" id="x"/><path fill="#3a414a" d="M102-142c-14-17-68-15-54 18 24 26 83 17 83 72 0 62-72 62-120 47v-45h12c4 23 16 37 43 37 35 0 39-37 9-46-31-9-65-19-64-61 0-52 59-55 108-45v43h-11" id="y"/><path fill="#3a414a" d="M184-186c2-19-1-50 11-61-6-5-21-4-30-9 2 22 1 49 0 70-40-3-93 8-117-11 10 74 1 166 4 247 1 9 10 0 14 0 2-1 4-2 4-3v-60c54-30 85-55 103-113 32 29 55 62 70 98 2 4 4 5 7 5 6-1 11-10 11-19-11-39-35-48-87-88 3-13 6-29 8-47h101V14c0 20-17 10-34 10v4c14 6 23 13 27 25 9-2 25-16 25-31v-184c1-7 20-15 8-21-5-3-10-8-15-14l-14 11h-96zM70-18v-159h94C154-88 133-65 70-18" id="z"/><path fill="#3a414a" d="M117-203c-2-18 2-30 7-40l-27-8c4 11 3 32 3 48H32l5 10h147c8 1 10-9 2-11-8-5-16-11-20-17l-16 18h-33zm-32 80c26-18-3-49-26-62 12 19 19 37 19 55 0 4 3 7 7 7zm63-68c-8 36-12 48-28 76H19l6 10h166c9 1 11-9 2-11-9-5-15-11-20-18l-17 19h-31c14-14 27-32 37-55 4-2 18-6 4-11-5-2-12-5-18-10zm24 145c-1-8 24-13 8-21-5-3-10-7-15-12l-11 9c-36-2-84 7-107-9 11 35-2 91 6 129 12-1 16-10 14-25h88c1 5-2 14 3 14 4-2 12-4 14-7v-78zM67 15v-75h88v75H67zm253-57c-2-43-21-57-55-84 20-34 35-61 44-82 3-6 28-10 10-16-4-3-10-9-16-16-12 18-52 8-80 10l-20-10c11 88 1 196 4 291 2 7 15-1 17-4v-268h68c-11 35-23 67-35 95 28 26 44 43 44 84 0 30-11 39-47 33v4c16 6 27 13 33 25 21-13 35-25 33-62" id="A"/><path fill="#3a414a" d="M144-226c-2-9 15-15 2-19-6-1-13-3-21-6 8 81 1 178 3 264H18l5 9h303c11 0 10-8 1-11-10-6-17-12-22-19l-18 21h-64v-59c35-35 63-76 85-125 2-5 21-11 2-14-8-2-16-6-24-11-6 41-27 88-63 140v-170c-2-9 14-15 1-19-6-1-14-3-21-6 8 81 1 178 3 264h-62v-239zM85-39c24-13 13-38 0-70-9-22-25-47-47-76l-2 1c26 46 41 92 41 135 0 6 3 9 8 10" id="B"/><path fill="#3a414a" d="M130-221c6-6 7-18 17-22 6-2 5-5-2-8-6-2-13-6-20-11-18 55-47 92-91 124l3 2c35-20 57-40 81-68 16 29 35 50 54 65-49 26-81 35-153 50l3 3c68-11 117-19 162-46 26 15 61 30 106 43 13-13 23-17 42-14v-4c-54-8-94-16-133-34 18-12 36-31 60-58 1-7 27-8 15-18-5-4-11-11-16-19l-16 15H130zm114 10c-23 32-36 45-59 63-25-12-41-30-63-61 35-6 83 0 122-2zM203 22c17 4 28 16 36 29 44-27 29-29 44-97 4-5 24-10 8-17-5-3-10-7-14-14l-13 13h-90c4-10 1-26 11-29 6-11-14-10-24-18-1 18-3 33-6 47H60l6 10h87C134 8 90 30 18 51l1 4C94 39 152 14 172-54h94c-10 76-4 88-63 72v4" id="C"/><path fill="#3a414a" d="M81-156c1-5 9-14-2-14 11-18 23-39 35-64 4-5 19-7 5-13-6-3-13-8-20-15-17 65-45 113-81 158l3 3c15-13 29-28 44-47l2 202c5-2 14-2 14-8v-202zm232 15c1-9 24-13 7-21-4-3-10-6-15-12-12 16-51 7-77 9v-36h95c10 0 10-8 2-12-9-4-15-11-20-17l-17 19h-60c-1-15 0-29 5-37l-26-8c1 3 3 17 4 45H109l5 10h97v36c-31-1-69 5-87-9 10 30-2 78 6 111 7-3 17-3 14-15h65c-3 34-13 50-27 70-18-10-36-25-54-45l-3 3c15 22 32 38 49 51-22 24-42 31-85 50l2 3c37-9 68-24 94-45 32 20 72 29 118 37 8-8 19-14 31-18v-4c-51 0-103-9-139-26 17-21 27-39 31-76h71c-2 12 6 10 13 6 8-16 1-47 3-69zM144-88v-67h67c0 20 2 48-1 67h-66zm84-67h69v67h-70c1-20 1-45 1-67" id="D"/><path fill="#3a414a" d="M298-210c0-7 18-13 8-19-5-3-10-8-15-14l-12 11H81l-23-13c4 15 5 45 5 93C62-38 58-14 21 50l2 1C54 11 69-12 77-67h89V49c3 5 16-1 17-6V-67h99v80c-1 25-24 9-46 9v4c15 6 25 15 30 28 10-2 36-17 32-33v-231zM78-77c2-18 3-39 3-65h85v65H78zm105-65h99v65h-99v-65zM81-152v-70h85v70H81zm102-70h99v70h-99v-70" id="E"/><path d="M76-208v77h127v40H76V0H24v-248h183v40H76" id="F"/><path d="m230 0 2-204L168 0h-37L68-204 70 0H24v-248h70l56 185 57-185h69V0h-46" id="G"/><path d="M133-34C117-15 103 5 69 4 32 3 11-16 11-54c-1-60 55-63 116-61 1-26-3-47-28-47-18 1-26 9-28 27l-52-2c7-38 36-58 82-57s74 22 75 68l1 82c-1 14 12 18 25 15v27c-30 8-71 5-69-32zm-48 3c29 0 43-24 42-57-32 0-66-3-65 30 0 17 8 27 23 27" id="H"/><path d="M137-138c1-29-70-34-71-4 15 46 118 7 119 86 1 83-164 76-172 9l43-7c4 19 20 25 44 25 33 8 57-30 24-41C81-84 22-81 20-136c-2-80 154-74 161-7" id="I"/><path d="m199 0-22-63H83L61 0H9l90-248h61L250 0h-51zm-33-102-36-108c-10 38-24 72-36 108h72" id="J"/><path d="M135-150c-39-12-60 13-60 57V0H25l-1-190h47c2 13-1 29 3 40 6-28 27-53 61-41v41" id="K"/><path d="M190-63c-7 42-38 67-86 67-59 0-84-38-90-98-12-110 154-137 174-36l-49 2c-2-19-15-32-35-32-30 0-35 28-38 64-6 74 65 87 74 30" id="L"/><path d="M114-157C55-157 80-60 75 0H25v-261h50l-1 109c12-26 28-41 61-42 86-1 58 113 63 194h-50c-7-57 23-157-34-157" id="M"/><path d="M185-48c-13 30-37 53-82 52C43 2 14-33 14-96s30-98 90-98c62 0 83 45 84 108H66c0 31 8 55 39 56 18 0 30-7 34-22zm-45-69c5-46-57-63-70-21-2 6-4 13-4 21h74" id="N"/><path d="M115-3C79 11 28 4 28-45v-112H4v-33h27l15-45h31v45h36v33H77v99c-1 23 16 31 38 25v30" id="O"/><path d="M123 10C108 53 80 86 19 72V37c35 8 53-11 59-39L3-190h52l48 148c12-52 28-100 44-148h51" id="P"/><path d="M135-194c53 0 70 44 70 98 0 56-19 98-73 100-31 1-45-17-59-34 3 33 2 69 2 105H25l-1-265h48c2 10 0 23 3 31 11-24 29-35 60-35zM114-30c33 0 39-31 40-66 0-38-9-64-40-64-56 0-55 130 0 130" id="Q"/><path d="M24-248c120-7 223 5 221 122C244-46 201 0 124 0H24v-248zM76-40c74 7 117-18 117-86 0-67-45-88-117-82v168" id="R"/><path d="M186 0v-106H76V0H24v-248h52v99h110v-99h50V0h-50" id="S"/><path d="M135-194c87-1 58 113 63 194h-50c-7-57 23-157-34-157-59 0-34 97-39 157H25l-1-190h47c2 12-1 28 3 38 12-26 28-41 61-42" id="T"/><path d="M88-194c31-1 46 15 58 34l-1-101h50l1 261h-48c-2-10 0-23-3-31C134-8 116 4 84 4 32 4 16-41 15-95c0-56 19-97 73-99zm17 164c33 0 40-30 41-66 1-37-9-64-41-64s-38 30-39 65c0 43 13 65 39 65" id="U"/><path d="M25 0v-261h50V0H25" id="V"/><path fill="#3a414a" d="M111-111v75H92v-75H18v-17h74v-75h19v75h74v17h-74" id="W"/><path fill="#3a414a" d="M55 0v-9l38-5v-207c-22 1-53 0-70 4l-5 37H7v-56h207v56h-12l-5-37-70-3v206l37 5v9H55" id="X"/><path fill="#3a414a" d="M178-68c0 79-95 82-154 59v-54h12c1 35 22 52 60 52 50 0 69-58 33-82-39-24-105-21-105-85 0-67 86-66 142-53v49h-12l-6-29c-31-27-121-7-89 42 28 43 119 24 119 101" id="Y"/><path fill="#3a414a" d="M126-119c3-38-42-31-69-25v132l23 4v8H7v-8l21-4v-226l-24-4v-8h53l-1 98c31-22 99-31 99 31v109c7 3 23-1 20 12h-71v-8l22-4v-107" id="Z"/><path fill="#3a414a" d="M32-163c41-10 102-14 102 39v112c8 3 24-2 21 12h-45l-4-17C83 13 3 13 13-46c-2-50 45-50 92-51 4-36-5-70-42-56-6 2-12 4-16 6-4 7 0 23-15 20v-36zM42-47c0 41 41 33 63 22v-59c-34 1-63-1-63 37" id="aa"/><path fill="#3a414a" d="M57-145c16-10 35-24 60-25v45c-19 1-8-30-40-17l-20 6v124l29 4v8H7v-8l21-4v-141c-8-3-24 2-21-12h48" id="ab"/><path fill="#3a414a" d="M84-170c49 0 66 33 63 87H46c-8 60 38 80 95 63v10C128-2 108 4 88 4 34 4 14-29 14-84c-1-54 22-86 70-86zm33 73c12-57-57-82-69-24-1 7-2 15-2 24h71" id="ac"/><path fill="#3a414a" d="M13-81c0-71 46-101 114-85l-1-72-28-4v-8h57v238c8 3 24-2 21 12h-47l-2-12C80 23 13-1 13-81zm77-74c-37 1-44 33-45 74 0 38 9 66 45 66 14 0 27-3 36-7v-130c-10-1-24-3-36-3" id="ad"/><path fill="#3a414a" d="M75-108c48 3 76-12 76-58s-28-57-76-54v112zm111-58c-1 60-46 78-111 74v78l37 5v9H13v-9l28-5v-208l-31-4v-10c81 1 178-14 176 70" id="ae"/><path fill="#3a414a" d="M54-38c-1 25 24 26 44 20v12C71 10 25 9 25-35v-115H4c-2-14 14-10 21-15l18-38h11v38h38v15H54v112" id="af"/><path fill="#3a414a" d="M18-115v-9l167-82v18L43-120l142 69v18" id="ag"/><path fill="#3a414a" d="M75-106v92l39 5v9H13v-9l28-5v-208l-31-4v-10h177v57h-11l-6-38c-28-4-63-3-95-3v98h69l5-28h11v73h-11l-5-29H75" id="ah"/><path fill="#3a414a" d="M152 0h-7L59-203v189l32 5v9H10v-9l31-5v-208l-31-4v-10h72l76 180 84-180h68v10l-31 4v208l31 5v9h-96v-9l32-5v-189" id="ai"/><path fill="#3a414a" d="M41-130c7 48 86 23 86 84 0 56-69 57-112 41v-40c20 0 9 29 31 31 35 19 77-26 41-50-27-18-72-13-72-59 0-50 58-52 100-41v36c-19 1-8-25-28-25-21-7-50-1-46 23" id="aj"/><path fill="#3a414a" d="M81-9v9H4v-9l26-5 81-224h33l83 224 30 5v9h-99v-9l31-5-23-68H73L49-14zm38-203L78-98h82" id="ak"/><path fill="#3a414a" d="M45-84c0 64 52 80 104 63 1 25-30 25-55 25-56 0-80-32-80-88 0-76 62-98 131-80v46h-10c-5-15-4-31-23-35-47-10-67 21-67 69" id="al"/><path fill="#3a414a" d="M161-154 85 37C75 66 49 86 8 75V39c18-2 6 24 29 21 30-4 38-32 47-58L21-153c-7-3-20 0-17-12h77v8l-26 4 45 116 43-116-26-4v-8h62v8" id="am"/><path fill="#3a414a" d="M166-85c3 67-44 102-111 85l1 64 29 4v9H6v-9l21-4v-217c-7-3-22 1-19-12h46l1 9c11-8 26-14 45-14 47 2 64 36 66 85zM56-13c53 14 83-14 78-72 7-53-33-79-78-60v132" id="an"/><path fill="#3a414a" d="M75-17c87 13 134-18 134-103 0-78-51-106-134-100v203zm171-102C246 5 139 7 10 0v-9l31-5v-208l-31-4v-10h107c82 0 129 35 129 117" id="ao"/><path fill="#3a414a" d="M50-169c12 0 21 9 21 21 0 13-9 22-21 22-13 0-22-9-22-22 0-12 9-21 22-21zM47-37c42 4 24 74-3 81-7 4-15 8-25 11V42c22-4 44-32 19-42-18-7-14-39 9-37" id="ap"/><path d="M24 0v-248h195v40H76v63h132v40H76v65h150V0H24" id="aq"/><path d="M25-224v-37h50v37H25zM25 0v-190h50V0H25" id="ar"/><path fill="#3a414a" d="M47-200c-23 0-25-39 0-38 13 0 18 7 20 19-1 11-8 19-20 19zM65-12l28 4v8H8v-8l28-4v-141l-24-4v-8h53v153" id="as"/><path fill="#3a414a" d="M125-118c4-37-41-34-68-26v132l23 4v8H8C5-13 21-9 28-12v-141c-7-3-23 1-20-12h47l2 13c31-23 98-29 98 31v109c7 3 23-1 20 12h-72v-8l22-4v-106" id="at"/><path fill="#3a414a" d="M104-123c39 3 61 21 62 59C167 7 83 12 19-4l-2-50h12c2 29 16 43 51 43 38 0 54-19 54-55 2-43-34-49-75-50v-14c37 0 64-7 64-48 0-47-47-56-81-36l-6 29H24v-46c51-13 135-13 131 51-2 34-20 52-51 57" id="au"/><path fill="#3a414a" d="M24-231c66-21 156 2 128 81C132-92 78-66 39-27h121V0H16v-26l59-54c26-25 47-47 47-97 0-48-47-57-81-37l-6 29H24v-46" id="av"/><path fill="#3a414a" d="m77-14 30 5v9H13v-9l30-5v-208l-30-4v-10h94v10l-30 4v208" id="aw"/><path fill="#3a414a" d="M156-12c7 3 23-1 20 12h-75v-8l22-4-38-58-45 58 23 4v8H3v-8l19-3 55-71-48-71c-7-3-23 1-20-12h75v8l-22 4 32 48 37-48-23-4v-8h59v8l-19 3-46 60" id="ax"/><path fill="#3a414a" d="m65-12 28 4v8H7v-8l28-4v-226l-28-4v-8h58v238" id="ay"/><path fill="#3a414a" d="m203-222-32-4v-10h81v10l-31 4V0h-17L59-212v198l32 5v9H10v-9l31-5v-208l-31-4v-10h72L203-61v-161" id="az"/><path fill="#3a414a" d="M124-13C89 8 26 15 26-45v-108c-8-3-24 2-21-12h50v118c-3 37 42 32 69 25v-131l-25-4v-8h54v153c8 3 24-2 21 12h-48" id="aA"/><path fill="#3a414a" d="M126-118c4-37-42-32-68-25v131l24 4v8H8C5-13 21-9 28-12v-141c-7-3-23 1-20-12h48l1 13c22-15 77-30 92 2 32-22 104-36 104 29v109c8 3 24-2 21 12h-75v-8l25-4v-106c3-39-45-31-72-24 7 37 1 88 3 130l25 4v8h-78v-8l24-4v-106" id="aB"/><path fill="#3a414a" d="M53-14c58 12 82-15 82-73 0-52-35-77-82-58v131zM89 4C64 4 42-2 24-9v-229l-24-4v-8h53l-1 94c48-33 114-4 114 69 0 57-23 91-77 91" id="aC"/><path fill="#3a414a" d="M18-33v-18l142-69-142-68v-18l168 82v9" id="aD"/><path fill="#3a414a" d="M52-115c0 93 80 130 150 87l7-35h11l-1 55c-23 7-52 12-83 12C60 4 19-37 15-115c-5-113 97-141 201-114l1 51h-12l-5-30c-15-9-39-16-62-16-66 0-86 41-86 109" id="aE"/><g id="a"><use transform="scale(.07407)" xlink:href="#w"/><use transform="matrix(.07407 0 0 .07407 25.111 0)" xlink:href="#x"/><use transform="matrix(.07407 0 0 .07407 38.444 0)" xlink:href="#y"/><use transform="matrix(.07407 0 0 .07407 48.815 0)" xlink:href="#y"/></g><g id="h"><use transform="scale(.06235)" xlink:href="#F"/><use transform="matrix(.06235 0 0 .06235 13.654 0)" xlink:href="#G"/><use transform="matrix(.06235 0 0 .06235 32.295 0)" xlink:href="#H"/><use transform="matrix(.06235 0 0 .06235 44.764 0)" xlink:href="#I"/><use transform="matrix(.06235 0 0 .06235 57.233 0)" xlink:href="#I"/><use transform="matrix(.06235 0 0 .06235 69.702 0)" xlink:href="#J"/><use transform="matrix(.06235 0 0 .06235 85.85 0)" xlink:href="#K"/><use transform="matrix(.06235 0 0 .06235 94.578 0)" xlink:href="#L"/><use transform="matrix(.06235 0 0 .06235 107.048 0)" xlink:href="#M"/><use transform="matrix(.06235 0 0 .06235 120.701 0)" xlink:href="#N"/><use transform="matrix(.06235 0 0 .06235 133.17 0)" xlink:href="#O"/><use transform="matrix(.06235 0 0 .06235 140.59 0)" xlink:href="#P"/><use transform="matrix(.06235 0 0 .06235 153.059 0)" xlink:href="#Q"/><use transform="matrix(.06235 0 0 .06235 166.712 0)" xlink:href="#N"/><use transform="matrix(.06235 0 0 .06235 179.181 0)" xlink:href="#R"/><use transform="matrix(.06235 0 0 .06235 195.329 0)" xlink:href="#H"/><use transform="matrix(.06235 0 0 .06235 207.798 0)" xlink:href="#O"/><use transform="matrix(.06235 0 0 .06235 215.217 0)" xlink:href="#H"/></g><g id="i"><use transform="scale(.06235)" xlink:href="#F"/><use transform="matrix(.06235 0 0 .06235 13.654 0)" xlink:href="#G"/><use transform="matrix(.06235 0 0 .06235 32.295 0)" xlink:href="#H"/><use transform="matrix(.06235 0 0 .06235 44.764 0)" xlink:href="#I"/><use transform="matrix(.06235 0 0 .06235 57.233 0)" xlink:href="#I"/><use transform="matrix(.06235 0 0 .06235 69.702 0)" xlink:href="#J"/><use transform="matrix(.06235 0 0 .06235 85.85 0)" xlink:href="#K"/><use transform="matrix(.06235 0 0 .06235 94.578 0)" xlink:href="#L"/><use transform="matrix(.06235 0 0 .06235 107.048 0)" xlink:href="#M"/><use transform="matrix(.06235 0 0 .06235 120.701 0)" xlink:href="#N"/><use transform="matrix(.06235 0 0 .06235 133.17 0)" xlink:href="#O"/><use transform="matrix(.06235 0 0 .06235 140.59 0)" xlink:href="#P"/><use transform="matrix(.06235 0 0 .06235 153.059 0)" xlink:href="#Q"/><use transform="matrix(.06235 0 0 .06235 166.712 0)" xlink:href="#N"/><use transform="matrix(.06235 0 0 .06235 179.181 0)" xlink:href="#S"/><use transform="matrix(.06235 0 0 .06235 195.329 0)" xlink:href="#H"/><use transform="matrix(.06235 0 0 .06235 207.798 0)" xlink:href="#T"/><use transform="matrix(.06235 0 0 .06235 221.452 0)" xlink:href="#U"/><use transform="matrix(.06235 0 0 .06235 235.106 0)" xlink:href="#V"/><use transform="matrix(.06235 0 0 .06235 241.34 0)" xlink:href="#N"/></g><g id="k"><use transform="rotate(.413) scale(.06173)" xlink:href="#X"/><use transform="matrix(.06173 0 0 .06173 13.519 0)" xlink:href="#Y"/><use transform="matrix(.06173 0 0 .06173 25.864 0)" xlink:href="#Z"/><use transform="matrix(.06173 0 0 .06173 36.975 0)" xlink:href="#aa"/><use transform="matrix(.06173 0 0 .06173 46.79 0)" xlink:href="#ab"/><use transform="matrix(.06173 0 0 .06173 54.136 0)" xlink:href="#ac"/><use transform="matrix(.06173 0 0 .06173 63.95 0)" xlink:href="#ad"/><use transform="matrix(.06173 0 0 .06173 75.062 0)" xlink:href="#ae"/><use transform="matrix(.06173 0 0 .06173 87.407 0)" xlink:href="#af"/><use transform="matrix(.06173 0 0 .06173 93.58 0)" xlink:href="#ab"/><use transform="matrix(.06173 0 0 .06173 100.926 0)" xlink:href="#ag"/><use transform="matrix(.06173 0 0 .06173 113.457 0)" xlink:href="#ah"/><use transform="matrix(.06173 0 0 .06173 125.802 0)" xlink:href="#ai"/><use transform="matrix(.06173 0 0 .06173 145.556 0)" xlink:href="#aa"/><use transform="matrix(.06173 0 0 .06173 155.37 0)" xlink:href="#aj"/><use transform="matrix(.06173 0 0 .06173 164.012 0)" xlink:href="#aj"/><use transform="matrix(.06173 0 0 .06173 172.654 0)" xlink:href="#ak"/><use transform="matrix(.06173 0 0 .06173 188.642 0)" xlink:href="#ab"/><use transform="matrix(.06173 0 0 .06173 195.988 0)" xlink:href="#al"/><use transform="matrix(.06173 0 0 .06173 205.802 0)" xlink:href="#Z"/><use transform="matrix(.06173 0 0 .06173 216.914 0)" xlink:href="#ac"/><use transform="matrix(.06173 0 0 .06173 226.728 0)" xlink:href="#af"/><use transform="matrix(.06173 0 0 .06173 232.901 0)" xlink:href="#am"/><use transform="matrix(.06173 0 0 .06173 244.012 0)" xlink:href="#an"/><use transform="matrix(.06173 0 0 .06173 255.123 0)" xlink:href="#ac"/><use transform="matrix(.06173 0 0 .06173 264.938 0)" xlink:href="#ao"/><use transform="matrix(.06173 0 0 .06173 280.926 0)" xlink:href="#aa"/><use transform="matrix(.06173 0 0 .06173 290.74 0)" xlink:href="#af"/><use transform="matrix(.06173 0 0 .06173 296.914 0)" xlink:href="#aa"/></g><g id="l"><use transform="rotate(.413) scale(.06173)" xlink:href="#ao"/><use transform="matrix(.06173 0 0 .06173 15.988 0)" xlink:href="#aa"/><use transform="matrix(.06173 0 0 .06173 25.802 0)" xlink:href="#af"/><use transform="matrix(.06173 0 0 .06173 31.975 0)" xlink:href="#aa"/><use transform="matrix(.06173 0 0 .06173 41.79 0)" xlink:href="#ae"/><use transform="matrix(.06173 0 0 .06173 54.136 0)" xlink:href="#af"/><use transform="matrix(.06173 0 0 .06173 60.309 0)" xlink:href="#ab"/><use transform="matrix(.06173 0 0 .06173 67.654 0)" xlink:href="#ap"/></g><g id="m"><use transform="scale(.06235)" xlink:href="#F"/><use transform="matrix(.06235 0 0 .06235 13.654 0)" xlink:href="#G"/><use transform="matrix(.06235 0 0 .06235 32.295 0)" xlink:href="#H"/><use transform="matrix(.06235 0 0 .06235 44.764 0)" xlink:href="#I"/><use transform="matrix(.06235 0 0 .06235 57.233 0)" xlink:href="#I"/><use transform="matrix(.06235 0 0 .06235 69.702 0)" xlink:href="#aq"/><use transform="matrix(.06235 0 0 .06235 84.665 0)" xlink:href="#T"/><use transform="matrix(.06235 0 0 .06235 98.32 0)" xlink:href="#O"/><use transform="matrix(.06235 0 0 .06235 105.738 0)" xlink:href="#ar"/><use transform="matrix(.06235 0 0 .06235 111.973 0)" xlink:href="#O"/><use transform="matrix(.06235 0 0 .06235 119.392 0)" xlink:href="#P"/><use transform="matrix(.06235 0 0 .06235 131.861 0)" xlink:href="#S"/><use transform="matrix(.06235 0 0 .06235 148.009 0)" xlink:href="#H"/><use transform="matrix(.06235 0 0 .06235 160.478 0)" xlink:href="#T"/><use transform="matrix(.06235 0 0 .06235 174.131 0)" xlink:href="#U"/><use transform="matrix(.06235 0 0 .06235 187.785 0)" xlink:href="#V"/><use transform="matrix(.06235 0 0 .06235 194.02 0)" xlink:href="#N"/></g><g id="o"><use transform="rotate(.413) scale(.06173)" xlink:href="#as"/><use transform="matrix(.06173 0 0 .06173 6.173 0)" xlink:href="#at"/><use transform="matrix(.06173 0 0 .06173 17.284 0)" xlink:href="#af"/><use transform="matrix(.06173 0 0 .06173 23.457 0)" xlink:href="#au"/><use transform="matrix(.06173 0 0 .06173 34.568 0)" xlink:href="#av"/></g><g id="p"><use transform="rotate(.413) scale(.06173)" xlink:href="#aw"/><use transform="matrix(.06173 0 0 .06173 7.346 0)" xlink:href="#at"/><use transform="matrix(.06173 0 0 .06173 18.457 0)" xlink:href="#ad"/><use transform="matrix(.06173 0 0 .06173 29.568 0)" xlink:href="#ac"/><use transform="matrix(.06173 0 0 .06173 39.383 0)" xlink:href="#ax"/><use transform="matrix(.06173 0 0 .06173 50.494 0)" xlink:href="#ap"/></g><g id="q"><use transform="rotate(.413) scale(.06173)" xlink:href="#Y"/><use transform="matrix(.06173 0 0 .06173 12.346 0)" xlink:href="#ac"/><use transform="matrix(.06173 0 0 .06173 22.16 0)" xlink:href="#ab"/><use transform="matrix(.06173 0 0 .06173 29.506 0)" xlink:href="#as"/><use transform="matrix(.06173 0 0 .06173 35.679 0)" xlink:href="#aa"/><use transform="matrix(.06173 0 0 .06173 45.494 0)" xlink:href="#ay"/><use transform="matrix(.06173 0 0 .06173 51.667 0)" xlink:href="#az"/><use transform="matrix(.06173 0 0 .06173 67.654 0)" xlink:href="#aA"/><use transform="matrix(.06173 0 0 .06173 78.765 0)" xlink:href="#aB"/><use transform="matrix(.06173 0 0 .06173 96.05 0)" xlink:href="#aC"/><use transform="matrix(.06173 0 0 .06173 107.16 0)" xlink:href="#ac"/><use transform="matrix(.06173 0 0 .06173 116.975 0)" xlink:href="#ab"/><use transform="matrix(.06173 0 0 .06173 124.321 0)" xlink:href="#ap"/></g><g id="r"><use transform="scale(.06235)" xlink:href="#F"/><use transform="matrix(.06235 0 0 .06235 13.654 0)" xlink:href="#aq"/><use transform="matrix(.06235 0 0 .06235 28.617 0)" xlink:href="#T"/><use transform="matrix(.06235 0 0 .06235 42.27 0)" xlink:href="#O"/><use transform="matrix(.06235 0 0 .06235 49.69 0)" xlink:href="#ar"/><use transform="matrix(.06235 0 0 .06235 55.924 0)" xlink:href="#O"/><use transform="matrix(.06235 0 0 .06235 63.343 0)" xlink:href="#P"/><use transform="matrix(.06235 0 0 .06235 75.812 0)" xlink:href="#R"/><use transform="matrix(.06235 0 0 .06235 91.96 0)" xlink:href="#H"/><use transform="matrix(.06235 0 0 .06235 104.429 0)" xlink:href="#O"/><use transform="matrix(.06235 0 0 .06235 111.848 0)" xlink:href="#H"/></g><g id="t"><use transform="scale(.05556)" xlink:href="#X"/><use transform="matrix(.05556 0 0 .05556 12.167 0)" xlink:href="#Y"/><use transform="matrix(.05556 0 0 .05556 23.278 0)" xlink:href="#Z"/><use transform="matrix(.05556 0 0 .05556 33.278 0)" xlink:href="#aa"/><use transform="matrix(.05556 0 0 .05556 42.111 0)" xlink:href="#ab"/><use transform="matrix(.05556 0 0 .05556 48.722 0)" xlink:href="#ac"/><use transform="matrix(.05556 0 0 .05556 57.556 0)" xlink:href="#ad"/><use transform="matrix(.05556 0 0 .05556 67.556 0)" xlink:href="#ae"/><use transform="matrix(.05556 0 0 .05556 78.667 0)" xlink:href="#af"/><use transform="matrix(.05556 0 0 .05556 84.222 0)" xlink:href="#ab"/><use transform="matrix(.05556 0 0 .05556 90.833 0)" xlink:href="#ag"/><use transform="matrix(.05556 0 0 .05556 102.111 0)" xlink:href="#ah"/><use transform="matrix(.05556 0 0 .05556 113.222 0)" xlink:href="#ai"/><use transform="matrix(.05556 0 0 .05556 131 0)" xlink:href="#aa"/><use transform="matrix(.05556 0 0 .05556 139.833 0)" xlink:href="#aj"/><use transform="matrix(.05556 0 0 .05556 147.611 0)" xlink:href="#aj"/><use transform="matrix(.05556 0 0 .05556 155.389 0)" xlink:href="#ak"/><use transform="matrix(.05556 0 0 .05556 169.778 0)" xlink:href="#ab"/><use transform="matrix(.05556 0 0 .05556 176.389 0)" xlink:href="#al"/><use transform="matrix(.05556 0 0 .05556 185.222 0)" xlink:href="#Z"/><use transform="matrix(.05556 0 0 .05556 195.222 0)" xlink:href="#ac"/><use transform="matrix(.05556 0 0 .05556 204.056 0)" xlink:href="#af"/><use transform="matrix(.05556 0 0 .05556 209.611 0)" xlink:href="#am"/><use transform="matrix(.05556 0 0 .05556 219.611 0)" xlink:href="#an"/><use transform="matrix(.05556 0 0 .05556 229.611 0)" xlink:href="#ac"/><use transform="matrix(.05556 0 0 .05556 238.444 0)" xlink:href="#ao"/><use transform="matrix(.05556 0 0 .05556 252.833 0)" xlink:href="#aa"/><use transform="matrix(.05556 0 0 .05556 261.667 0)" xlink:href="#af"/><use transform="matrix(.05556 0 0 .05556 267.222 0)" xlink:href="#aa"/><use transform="matrix(.05556 0 0 .05556 276.056 0)" xlink:href="#aD"/></g><g id="u"><use transform="scale(.05556)" xlink:href="#aE"/><use transform="matrix(.05556 0 0 .05556 13.333 0)" xlink:href="#aA"/><use transform="matrix(.05556 0 0 .05556 23.333 0)" xlink:href="#ab"/><use transform="matrix(.05556 0 0 .05556 29.944 0)" xlink:href="#ab"/><use transform="matrix(.05556 0 0 .05556 36.556 0)" xlink:href="#ac"/><use transform="matrix(.05556 0 0 .05556 45.389 0)" xlink:href="#at"/><use transform="matrix(.05556 0 0 .05556 55.389 0)" xlink:href="#af"/><use transform="matrix(.05556 0 0 .05556 60.944 0)" xlink:href="#ak"/><use transform="matrix(.05556 0 0 .05556 75.333 0)" xlink:href="#ab"/><use transform="matrix(.05556 0 0 .05556 81.944 0)" xlink:href="#al"/><use transform="matrix(.05556 0 0 .05556 90.778 0)" xlink:href="#Z"/><use transform="matrix(.05556 0 0 .05556 100.778 0)" xlink:href="#ac"/><use transform="matrix(.05556 0 0 .05556 109.611 0)" xlink:href="#af"/><use transform="matrix(.05556 0 0 .05556 115.167 0)" xlink:href="#am"/><use transform="matrix(.05556 0 0 .05556 125.167 0)" xlink:href="#an"/><use transform="matrix(.05556 0 0 .05556 135.167 0)" xlink:href="#ac"/></g><g id="v"><use transform="rotate(.413) scale(.06173)" xlink:href="#Y"/><use transform="matrix(.06173 0 0 .06173 12.346 0)" xlink:href="#ac"/><use transform="matrix(.06173 0 0 .06173 22.16 0)" xlink:href="#ab"/><use transform="matrix(.06173 0 0 .06173 29.506 0)" xlink:href="#as"/><use transform="matrix(.06173 0 0 .06173 35.679 0)" xlink:href="#aa"/><use transform="matrix(.06173 0 0 .06173 45.494 0)" xlink:href="#ay"/><use transform="matrix(.06173 0 0 .06173 51.667 0)" xlink:href="#az"/><use transform="matrix(.06173 0 0 .06173 67.654 0)" xlink:href="#aA"/><use transform="matrix(.06173 0 0 .06173 78.765 0)" xlink:href="#aB"/><use transform="matrix(.06173 0 0 .06173 96.05 0)" xlink:href="#aC"/><use transform="matrix(.06173 0 0 .06173 107.16 0)" xlink:href="#ac"/><use transform="matrix(.06173 0 0 .06173 116.975 0)" xlink:href="#ab"/></g><use transform="scale(.07407)" xlink:href="#z" id="b"/><use transform="scale(.07407)" xlink:href="#A" id="c"/><use transform="scale(.07407)" xlink:href="#B" id="d"/><use transform="scale(.07407)" xlink:href="#C" id="e"/><use transform="scale(.07407)" xlink:href="#D" id="f"/><use transform="scale(.07407)" xlink:href="#E" id="g"/><use transform="rotate(.413) scale(.06173)" xlink:href="#W" id="j"/><use transform="rotate(.413) scale(.06173)" xlink:href="#W" id="n"/><use transform="scale(.05556)" xlink:href="#W" id="s"/></defs></g></svg>