<svg width="980" height="442" xmlns="http://www.w3.org/2000/svg" xmlns:xlink="http://www.w3.org/1999/xlink">
 <g>
  <title>Layer 1</title>
  <rect id="svg_184" height="440" width="977" y="0" x="2" stroke="#000" fill="#e2e2e2"/>
  <path id="svg_2" fill="#fff" stroke="#3a414a" d="m440,86.88889a6,6 0 0 1 6,-6l508,0a6,6 0 0 1 6,6l0,328a6,6 0 0 1 -6,6l-508,0a6,6 0 0 1 -6,-6l0,-328z"/>
  <path id="svg_3" fill="#fff" stroke="#3a414a" d="m480,144.88889a6,6 0 0 1 6,-6l428,0a6,6 0 0 1 6,6l0,68a6,6 0 0 1 -6,6l-428,0a6,6 0 0 1 -6,-6l0,-68z"/>
  <path id="svg_4" fill-opacity="0" fill="#fff" stroke-opacity="0" stroke="#000" d="m440.5,86.88889a6,6 0 0 1 6,-6l228,0a6,6 0 0 1 6,6l0,48a6,6 0 0 1 -6,6l-228,0a6,6 0 0 1 -6,-6l0,-48z"/>
  <use id="svg_5" x="-120" y="-61.11111" transform="matrix(1 0 0 1 565.5 177.278)" xlink:href="#a"/>
  <use id="svg_6" x="-120" y="-61.11111" transform="matrix(1 0 0 1 653.093 177.278)" xlink:href="#b"/>
  <path id="svg_7" fill="#fff" stroke="#3a414a" d="m480,224.88889a6,6 0 0 1 6,-6l428,0a6,6 0 0 1 6,6l0,48a6,6 0 0 1 -6,6l-428,0a6,6 0 0 1 -6,-6l0,-48zm0,60a6,6 0 0 1 6,-6l428,0a6,6 0 0 1 6,6l0,48a6,6 0 0 1 -6,6l-428,0a6,6 0 0 1 -6,-6l0,-48zm0,60a6,6 0 0 1 6,-6l428,0a6,6 0 0 1 6,6l0,48a6,6 0 0 1 -6,6l-428,0a6,6 0 0 1 -6,-6l0,-48z"/>
  <path id="svg_8" fill-opacity="0" fill="#fff" stroke-opacity="0" stroke="#000" d="m680,154.88889a6,6 0 0 1 6,-6l228,0a6,6 0 0 1 6,6l0,48a6,6 0 0 1 -6,6l-228,0a6,6 0 0 1 -6,-6l0,-48z"/>
  <use id="svg_9" x="-120" y="-61.11111" transform="matrix(1 0 0 1 857.531 245.278)" xlink:href="#c"/>
  <path id="svg_10" fill="#fff" stroke="#3a414a" d="m480,144.88889a6,6 0 0 1 6,-6l228,0a6,6 0 0 1 6,6l0,28a6,6 0 0 1 -6,6l-228,0a6,6 0 0 1 -6,-6l0,-28z"/>
  <use id="svg_11" x="-120" y="-61.11111" transform="matrix(1 0 0 1 621.481 229.778)" xlink:href="#d"/>
  <use id="svg_12" x="-120" y="-61.11111" transform="matrix(1 0 0 1 694.198 229.778)" xlink:href="#e"/>
  <path id="svg_13" fill="none" stroke-width="0.5" stroke="#3a414a" d="m560.5,139.13889a0.25,0.25 0 0 1 0.25,0.25l0,39.4a0.25,0.25 0 0 1 -0.25,0.26a0.25,0.25 0 0 1 -0.25,-0.25l0,-39.4a0.25,0.25 0 0 1 0.25,-0.25l0,-0.01z"/>
  <path id="svg_14" fill-opacity="0" fill="#fff" stroke-opacity="0" stroke="#000" d="m680,224.88889a6,6 0 0 1 6,-6l228,0a6,6 0 0 1 6,6l0,48a6,6 0 0 1 -6,6l-228,0a6,6 0 0 1 -6,-6l0,-48z"/>
  <use id="svg_15" x="-120" y="-61.11111" transform="matrix(1 0 0 1 933.333 315.278)" xlink:href="#f"/>
  <use id="svg_16" x="-120" y="-61.11111" transform="matrix(1 0 0 1 1023.89 315.278)" xlink:href="#g"/>
  <path id="svg_17" fill-opacity="0" fill="#fff" stroke-opacity="0" stroke="#000" d="m680,284.88889a6,6 0 0 1 6,-6l228,0a6,6 0 0 1 6,6l0,48a6,6 0 0 1 -6,6l-228,0a6,6 0 0 1 -6,-6l0,-48z"/>
  <use id="svg_18" x="-120" y="-61.11111" transform="matrix(1 0 0 1 933.333 375.278)" xlink:href="#f"/>
  <use id="svg_19" x="-120" y="-61.11111" transform="matrix(1 0 0 1 1023.89 375.278)" xlink:href="#h"/>
  <path id="svg_20" fill-opacity="0" fill="#fff" stroke-opacity="0" stroke="#000" d="m680,343.21889a6,6 0 0 1 6,-6l228,0a6,6 0 0 1 6,6l0,51.34a6,6 0 0 1 -6,6l-228,0a6,6 0 0 1 -6,-6l0,-51.34z"/>
  <use id="svg_21" x="-120" y="-61.11111" transform="matrix(1 0 0 1 933.333 434.611)" xlink:href="#f"/>
  <use id="svg_22" x="-120" y="-61.11111" transform="matrix(1 0 0 1 1023.89 434.611)" xlink:href="#i"/>
  <path fill="#ffffff" id="svg_23" stroke="#3a414a" d="m20,24.88889a6,6 0 0 1 6,-6l288,0a6,6 0 0 1 6,6l0,208a6,6 0 0 1 -6,6l-288,0a6,6 0 0 1 -6,-6l0,-208z"/>
  <path id="svg_24" fill="none" stroke="#3a414a" d="m20,61.81889l300,0"/>
  <use id="svg_25" x="-120" y="-61.11111" transform="matrix(1 0 0 1 165.62 105.989)" xlink:href="#j"/>
  <path id="svg_26" fill-opacity="0" fill="#fff" stroke-opacity="0" stroke="#000" d="m20,64.88889a6,6 0 0 1 6,-6l248,0a6,6 0 0 1 6,6l0,48a6,6 0 0 1 -6,6l-248,0a6,6 0 0 1 -6,-6l0,-48z"/>
  <use id="svg_27" x="-120" y="-61.11111" transform="matrix(1 0 0 1 145 153.931)" xlink:href="#k"/>
  <use id="svg_28" x="-120" y="-61.11111" transform="matrix(1 0 0 1 151.111 153.931)" xlink:href="#l"/>
  <use id="svg_29" x="-120" y="-61.11111" transform="matrix(1 0 0 1 171.006 153.931)" xlink:href="#m"/>
  <use id="svg_30" x="-120" y="-61.11111" transform="matrix(1 0 0 1 239.586 153.931)" xlink:href="#n"/>
  <path id="svg_31" fill-opacity="0" fill="#fff" stroke-opacity="0" stroke="#000" d="m20,105.28889a6,6 0 0 1 6,-6l308,0a6,6 0 0 1 6,6l0,48a6,6 0 0 1 -6,6l-308,0a6,6 0 0 1 -6,-6l0,-48z"/>
  <use id="svg_32" x="-120" y="-61.11111" transform="matrix(1 0 0 1 145 194.343)" xlink:href="#k"/>
  <use id="svg_33" x="-120" y="-61.11111" transform="matrix(1 0 0 1 151.111 194.343)" xlink:href="#l"/>
  <use id="svg_34" x="-120" y="-61.11111" transform="matrix(1 0 0 1 171.006 194.343)" xlink:href="#o"/>
  <path id="svg_35" fill-opacity="0" fill="#fff" stroke-opacity="0" stroke="#000" d="m20,146.88889a6,6 0 0 1 6,-6l308,0a6,6 0 0 1 6,6l0,48a6,6 0 0 1 -6,6l-308,0a6,6 0 0 1 -6,-6l0,-48z"/>
  <g id="svg_36">
   <use id="svg_37" x="-120" y="-61.11111" transform="matrix(1 0 0 1 145 235.931)" xlink:href="#k"/>
   <use id="svg_38" x="-120" y="-61.11111" transform="matrix(1 0 0 1 151.111 235.931)" xlink:href="#l"/>
   <use id="svg_39" x="-120" y="-61.11111" transform="matrix(1 0 0 1 171.006 235.931)" xlink:href="#p"/>
  </g>
  <path id="svg_40" fill-opacity="0" fill="#fff" stroke-opacity="0" stroke="#000" d="m20,184.88889a6,6 0 0 1 6,-6l308,0a6,6 0 0 1 6,6l0,48a6,6 0 0 1 -6,6l-308,0a6,6 0 0 1 -6,-6l0,-48z"/>
  <g id="svg_41">
   <use id="svg_42" x="-120" y="-61.11111" transform="matrix(1 0 0 1 145 273.931)" xlink:href="#k"/>
   <use id="svg_43" x="-120" y="-61.11111" transform="matrix(1 0 0 1 151.111 273.931)" xlink:href="#l"/>
   <use id="svg_44" x="-120" y="-61.11111" transform="matrix(1 0 0 1 171.006 273.931)" xlink:href="#q"/>
  </g>
  <path id="svg_45" fill="none" stroke-width="3" stroke="#3a414a" d="m281.5,88.88889l72.25,0a6,6 0 0 1 6,6l0,23a6,6 0 0 0 6,6l53.13,0"/>
  <path id="svg_46" fill="#3a414a" stroke-width="0.05" stroke="#3a414a" d="m281.54,90.38889l-1.54,0l0,-3l1.54,0l0,3z"/>
  <path id="svg_47" fill="#3a414a" stroke-width="3" stroke="#3a414a" d="m434.65,123.88889l-14.27,4.63l0,-9.26l14.27,4.63z"/>
  <defs transform="translate(0 -1.11111) translate(-120 -60)">
   <path id="r" d="m45,-84c0,64 52,80 104,63c1,25 -30,25 -55,25c-56,0 -80,-32 -80,-88c0,-76 62,-98 131,-80l0,46l-10,0c-5,-15 -4,-31 -23,-35c-47,-10 -67,21 -67,69" fill="#3a414a"/>
   <path id="s" d="m126,-119c3,-38 -42,-31 -69,-25l0,132l23,4l0,8l-73,0l0,-8l21,-4l0,-226l-24,-4l0,-8l53,0l-1,98c31,-22 99,-31 99,31l0,109c7,3 23,-1 20,12l-71,0l0,-8l22,-4l0,-107" fill="#3a414a"/>
   <path id="t" d="m124,-13c-35,21 -98,28 -98,-32l0,-108c-8,-3 -24,2 -21,-12l50,0l0,118c-3,37 42,32 69,25l0,-131l-25,-4l0,-8l54,0l0,153c8,3 24,-2 21,12l-48,0" fill="#3a414a"/>
   <path id="u" d="m125,-118c4,-37 -41,-34 -68,-26l0,132l23,4l0,8l-72,0c-3,-13 13,-9 20,-12l0,-141c-7,-3 -23,1 -20,-12l47,0l2,13c31,-23 98,-29 98,31l0,109c7,3 23,-1 20,12l-72,0l0,-8l22,-4l0,-106" fill="#3a414a"/>
   <path id="v" d="m60,-80l68,-73c-7,-3 -20,0 -17,-12l58,0c3,13 -13,9 -20,12l-47,48l60,93c7,3 21,-1 18,12l-68,0c-3,-12 9,-9 15,-12l-45,-71l-22,23l0,48c7,3 21,-1 18,12l-68,0l0,-8l21,-4l0,-226l-24,-4l0,-8l53,0l0,170" fill="#3a414a"/>
   <g id="a">
    <use id="svg_48" xlink:href="#r" transform="matrix(0.06172839506172839,0,0,0.06172839506172839,0,0)"/>
    <use id="svg_49" xlink:href="#s" transform="matrix(0.06172839506172839,0,0,0.06172839506172839,9.814814814814815,0)"/>
    <use id="svg_50" xlink:href="#t" transform="matrix(0.06172839506172839,0,0,0.06172839506172839,20.925925925925924,0)"/>
    <use id="svg_51" xlink:href="#u" transform="matrix(0.06172839506172839,0,0,0.06172839506172839,32.03703703703704,0)"/>
    <use id="svg_52" xlink:href="#v" transform="matrix(0.06172839506172839,0,0,0.06172839506172839,43.14814814814815,0)"/>
   </g>
   <path id="w" d="m110,-14l48,5l0,9l-126,0l0,-9l48,-5l0,-192l-48,17l0,-10l69,-39l9,0l0,224" fill="#3a414a"/>
   <path id="x" d="m24,-231c66,-21 156,2 128,81c-20,58 -74,84 -113,123l121,0l0,27l-144,0l0,-26l59,-54c26,-25 47,-47 47,-97c0,-48 -47,-57 -81,-37l-6,29l-11,0l0,-46" fill="#3a414a"/>
   <path id="y" d="m90,-239c42,0 69,19 69,61c0,28 -14,44 -35,53c25,8 42,28 42,61c0,47 -28,68 -77,68c-48,0 -75,-21 -75,-68c-1,-33 18,-51 41,-61c-19,-9 -34,-25 -34,-53c0,-42 26,-61 69,-61zm-1,229c34,0 46,-20 46,-54c0,-32 -11,-53 -46,-53c-34,0 -44,20 -44,53c-1,34 11,54 44,54zm0,-123c28,0 38,-16 38,-45s-9,-47 -38,-47c-28,-1 -36,18 -36,47s8,45 36,45" fill="#3a414a"/>
   <path id="z" d="m238,-236l0,10l-27,4l-81,79l101,129l25,5l0,9l-57,0l-93,-119l-31,25l0,80l33,5l0,9l-98,0l0,-9l31,-5l0,-208l-31,-4l0,-10l95,0l0,10l-30,4l0,111l112,-111l-23,-4l0,-10l74,0" fill="#3a414a"/>
   <g id="b">
    <use id="svg_53" xlink:href="#w" transform="matrix(0.06172839506172839,0,0,0.06172839506172839,0,0)"/>
    <use id="svg_54" xlink:href="#x" transform="matrix(0.06172839506172839,0,0,0.06172839506172839,11.11111111111111,0)"/>
    <use id="svg_55" xlink:href="#y" transform="matrix(0.06172839506172839,0,0,0.06172839506172839,22.22222222222222,0)"/>
    <use id="svg_56" xlink:href="#z" transform="matrix(0.06172839506172839,0,0,0.06172839506172839,33.33333333333333,0)"/>
   </g>
   <path id="A" d="m75,-106l0,92l39,5l0,9l-101,0l0,-9l28,-5l0,-208l-31,-4l0,-10l177,0l0,57l-11,0l-6,-38c-28,-4 -63,-3 -95,-3l0,98l69,0l5,-28l11,0l0,73l-11,0l-5,-29l-69,0" fill="#3a414a"/>
   <path id="B" d="m152,0l-7,0l-86,-203l0,189l32,5l0,9l-81,0l0,-9l31,-5l0,-208l-31,-4l0,-10l72,0l76,180l84,-180l68,0l0,10l-31,4l0,208l31,5l0,9l-96,0l0,-9l32,-5l0,-189" fill="#3a414a"/>
   <path id="C" d="m32,-163c41,-10 102,-14 102,39l0,112c8,3 24,-2 21,12l-45,0l-4,-17c-23,30 -103,30 -93,-29c-2,-50 45,-50 92,-51c4,-36 -5,-70 -42,-56c-6,2 -12,4 -16,6c-4,7 0,23 -15,20l0,-36zm10,116c0,41 41,33 63,22l0,-59c-34,1 -63,-1 -63,37" fill="#3a414a"/>
   <path id="D" d="m41,-130c7,48 86,23 86,84c0,56 -69,57 -112,41l0,-40c20,0 9,29 31,31c35,19 77,-26 41,-50c-27,-18 -72,-13 -72,-59c0,-50 58,-52 100,-41l0,36c-19,1 -8,-25 -28,-25c-21,-7 -50,-1 -46,23" fill="#3a414a"/>
   <path id="E" d="m10,-9l31,-5l0,-208l-31,-4l0,-10l177,0l0,57l-11,0l-6,-38c-28,-4 -63,-3 -95,-3l0,92l63,0l6,-28l11,0l0,73l-11,0l-6,-29l-63,0l0,96l105,-3l10,-43l12,0l-3,62l-189,0l0,-9" fill="#3a414a"/>
   <path id="F" d="m54,-38c-1,25 24,26 44,20l0,12c-27,16 -73,15 -73,-29l0,-115l-21,0c-2,-14 14,-10 21,-15l18,-38l11,0l0,38l38,0l0,15l-38,0l0,112" fill="#3a414a"/>
   <path id="G" d="m47,-200c-23,0 -25,-39 0,-38c13,0 18,7 20,19c-1,11 -8,19 -20,19zm18,188l28,4l0,8l-85,0l0,-8l28,-4l0,-141l-24,-4l0,-8l53,0l0,153" fill="#3a414a"/>
   <path id="H" d="m161,-154l-76,191c-10,29 -36,49 -77,38l0,-36c18,-2 6,24 29,21c30,-4 38,-32 47,-58l-63,-155c-7,-3 -20,0 -17,-12l77,0l0,8l-26,4l45,116l43,-116l-26,-4l0,-8l62,0l0,8" fill="#3a414a"/>
   <path id="I" d="m10,0l0,-9l31,-5l0,-208l-31,-4l0,-10l95,0l0,10l-30,4l0,93l110,0l0,-93l-30,-4l0,-10l94,0l0,10l-30,4l0,208l30,5l0,9l-94,0l0,-9l30,-5l0,-99l-110,0l0,99l30,5l0,9l-95,0" fill="#3a414a"/>
   <path id="J" d="m13,-81c0,-71 46,-101 114,-85l-1,-72l-28,-4l0,-8l57,0l0,238c8,3 24,-2 21,12l-47,0l-2,-12c-47,35 -114,11 -114,-69zm77,-74c-37,1 -44,33 -45,74c0,38 9,66 45,66c14,0 27,-3 36,-7l0,-130c-10,-1 -24,-3 -36,-3" fill="#3a414a"/>
   <path id="K" d="m65,-12l28,4l0,8l-86,0l0,-8l28,-4l0,-226l-28,-4l0,-8l58,0l0,238" fill="#3a414a"/>
   <path id="L" d="m84,-170c49,0 66,33 63,87l-101,0c-8,60 38,80 95,63l0,10c-13,8 -33,14 -53,14c-54,0 -74,-33 -74,-88c-1,-54 22,-86 70,-86zm33,73c12,-57 -57,-82 -69,-24c-1,7 -2,15 -2,24l71,0" fill="#3a414a"/>
   <g id="c">
    <use id="svg_57" xlink:href="#A" transform="matrix(0.06172839506172839,0,0,0.06172839506172839,0,0)"/>
    <use id="svg_58" xlink:href="#B" transform="matrix(0.06172839506172839,0,0,0.06172839506172839,12.345679012345679,0)"/>
    <use id="svg_59" xlink:href="#C" transform="matrix(0.06172839506172839,0,0,0.06172839506172839,32.098765432098766,0)"/>
    <use id="svg_60" xlink:href="#D" transform="matrix(0.06172839506172839,0,0,0.06172839506172839,41.91358024691358,0)"/>
    <use id="svg_61" xlink:href="#D" transform="matrix(0.06172839506172839,0,0,0.06172839506172839,50.55555555555556,0)"/>
    <use id="svg_62" xlink:href="#E" transform="matrix(0.06172839506172839,0,0,0.06172839506172839,59.19753086419753,0)"/>
    <use id="svg_63" xlink:href="#u" transform="matrix(0.06172839506172839,0,0,0.06172839506172839,72.71604938271605,0)"/>
    <use id="svg_64" xlink:href="#F" transform="matrix(0.06172839506172839,0,0,0.06172839506172839,83.82716049382717,0)"/>
    <use id="svg_65" xlink:href="#G" transform="matrix(0.06172839506172839,0,0,0.06172839506172839,90,0)"/>
    <use id="svg_66" xlink:href="#F" transform="matrix(0.06172839506172839,0,0,0.06172839506172839,96.17283950617283,0)"/>
    <use id="svg_67" xlink:href="#H" transform="matrix(0.06172839506172839,0,0,0.06172839506172839,102.34567901234567,0)"/>
    <use id="svg_68" xlink:href="#I" transform="matrix(0.06172839506172839,0,0,0.06172839506172839,113.45679012345678,0)"/>
    <use id="svg_69" xlink:href="#C" transform="matrix(0.06172839506172839,0,0,0.06172839506172839,129.44444444444443,0)"/>
    <use id="svg_70" xlink:href="#u" transform="matrix(0.06172839506172839,0,0,0.06172839506172839,139.25925925925924,0)"/>
    <use id="svg_71" xlink:href="#J" transform="matrix(0.06172839506172839,0,0,0.06172839506172839,150.37037037037035,0)"/>
    <use id="svg_72" xlink:href="#K" transform="matrix(0.06172839506172839,0,0,0.06172839506172839,161.48148148148147,0)"/>
    <use id="svg_73" xlink:href="#L" transform="matrix(0.06172839506172839,0,0,0.06172839506172839,167.6543209876543,0)"/>
   </g>
   <path id="M" d="m77,-14l30,5l0,9l-94,0l0,-9l30,-5l0,-208l-30,-4l0,-10l94,0l0,10l-30,4l0,208" fill="#3a414a"/>
   <path id="N" d="m156,-12c7,3 23,-1 20,12l-75,0l0,-8l22,-4l-38,-58l-45,58l23,4l0,8l-60,0l0,-8l19,-3l55,-71l-48,-71c-7,-3 -23,1 -20,-12l75,0l0,8l-22,4l32,48l37,-48l-23,-4l0,-8l59,0l0,8l-19,3l-46,60" fill="#3a414a"/>
   <g id="d">
    <use id="svg_74" xlink:href="#M" transform="matrix(0.06172839506172839,0,0,0.06172839506172839,0,0)"/>
    <use id="svg_75" xlink:href="#u" transform="matrix(0.06172839506172839,0,0,0.06172839506172839,7.345679012345679,0)"/>
    <use id="svg_76" xlink:href="#J" transform="matrix(0.06172839506172839,0,0,0.06172839506172839,18.45679012345679,0)"/>
    <use id="svg_77" xlink:href="#L" transform="matrix(0.06172839506172839,0,0,0.06172839506172839,29.567901234567902,0)"/>
    <use id="svg_78" xlink:href="#N" transform="matrix(0.06172839506172839,0,0,0.06172839506172839,39.382716049382715,0)"/>
   </g>
   <path id="O" d="m178,-68c0,79 -95,82 -154,59l0,-54l12,0c1,35 22,52 60,52c50,0 69,-58 33,-82c-39,-24 -105,-21 -105,-85c0,-67 86,-66 142,-53l0,49l-12,0l-6,-29c-31,-27 -121,-7 -89,42c28,43 119,24 119,101" fill="#3a414a"/>
   <path id="P" d="m57,-145c16,-10 35,-24 60,-25l0,45c-19,1 -8,-30 -40,-17l-20,6l0,124l29,4l0,8l-79,0l0,-8l21,-4l0,-141c-8,-3 -24,2 -21,-12l48,0" fill="#3a414a"/>
   <path id="Q" d="m203,-222l-32,-4l0,-10l81,0l0,10l-31,4l0,222l-17,0l-145,-212l0,198l32,5l0,9l-81,0l0,-9l31,-5l0,-208l-31,-4l0,-10l72,0l121,175l0,-161" fill="#3a414a"/>
   <path id="R" d="m126,-118c4,-37 -42,-32 -68,-25l0,131l24,4l0,8l-74,0c-3,-13 13,-9 20,-12l0,-141c-7,-3 -23,1 -20,-12l48,0l1,13c22,-15 77,-30 92,2c32,-22 104,-36 104,29l0,109c8,3 24,-2 21,12l-75,0l0,-8l25,-4l0,-106c3,-39 -45,-31 -72,-24c7,37 1,88 3,130l25,4l0,8l-78,0l0,-8l24,-4l0,-106" fill="#3a414a"/>
   <path id="S" d="m53,-14c58,12 82,-15 82,-73c0,-52 -35,-77 -82,-58l0,131zm36,18c-25,0 -47,-6 -65,-13l0,-229l-24,-4l0,-8l53,0l-1,94c48,-33 114,-4 114,69c0,57 -23,91 -77,91" fill="#3a414a"/>
   <g id="e">
    <use id="svg_79" xlink:href="#O" transform="matrix(0.06172839506172839,0,0,0.06172839506172839,0,0)"/>
    <use id="svg_80" xlink:href="#L" transform="matrix(0.06172839506172839,0,0,0.06172839506172839,12.345679012345679,0)"/>
    <use id="svg_81" xlink:href="#P" transform="matrix(0.06172839506172839,0,0,0.06172839506172839,22.160493827160494,0)"/>
    <use id="svg_82" xlink:href="#G" transform="matrix(0.06172839506172839,0,0,0.06172839506172839,29.50617283950617,0)"/>
    <use id="svg_83" xlink:href="#C" transform="matrix(0.06172839506172839,0,0,0.06172839506172839,35.67901234567901,0)"/>
    <use id="svg_84" xlink:href="#K" transform="matrix(0.06172839506172839,0,0,0.06172839506172839,45.49382716049383,0)"/>
    <use id="svg_85" xlink:href="#Q" transform="matrix(0.06172839506172839,0,0,0.06172839506172839,51.66666666666667,0)"/>
    <use id="svg_86" xlink:href="#t" transform="matrix(0.06172839506172839,0,0,0.06172839506172839,67.65432098765433,0)"/>
    <use id="svg_87" xlink:href="#R" transform="matrix(0.06172839506172839,0,0,0.06172839506172839,78.76543209876544,0)"/>
    <use id="svg_88" xlink:href="#S" transform="matrix(0.06172839506172839,0,0,0.06172839506172839,96.0493827160494,0)"/>
    <use id="svg_89" xlink:href="#L" transform="matrix(0.06172839506172839,0,0,0.06172839506172839,107.16049382716051,0)"/>
    <use id="svg_90" xlink:href="#P" transform="matrix(0.06172839506172839,0,0,0.06172839506172839,116.97530864197532,0)"/>
   </g>
   <path id="T" d="m141,-152c28,39 5,97 -54,97c-9,0 -20,-2 -27,-3l-11,23c29,22 130,-14 124,52c-4,45 -38,57 -88,61c-64,5 -93,-52 -40,-80c-12,-4 -23,-13 -24,-29l28,-31c-19,-9 -28,-26 -28,-51c-2,-51 53,-65 100,-52l38,-20l7,8l-25,25zm-56,216c35,0 61,-11 61,-42c0,-35 -57,-17 -89,-21c-9,8 -16,19 -17,34c0,25 19,29 45,29zm-33,-177c1,26 7,46 35,44c28,-1 34,-16 35,-44c0,-26 -6,-43 -34,-43s-36,17 -36,43" fill="#3a414a"/>
   <g id="f">
    <use id="svg_91" xlink:href="#A" transform="matrix(0.06172839506172839,0,0,0.06172839506172839,0,0)"/>
    <use id="svg_92" xlink:href="#P" transform="matrix(0.06172839506172839,0,0,0.06172839506172839,12.345679012345679,0)"/>
    <use id="svg_93" xlink:href="#C" transform="matrix(0.06172839506172839,0,0,0.06172839506172839,19.691358024691358,0)"/>
    <use id="svg_94" xlink:href="#T" transform="matrix(0.06172839506172839,0,0,0.06172839506172839,29.50617283950617,0)"/>
    <use id="svg_95" xlink:href="#R" transform="matrix(0.06172839506172839,0,0,0.06172839506172839,40.61728395061728,0)"/>
    <use id="svg_96" xlink:href="#L" transform="matrix(0.06172839506172839,0,0,0.06172839506172839,57.90123456790123,0)"/>
    <use id="svg_97" xlink:href="#u" transform="matrix(0.06172839506172839,0,0,0.06172839506172839,67.71604938271604,0)"/>
    <use id="svg_98" xlink:href="#F" transform="matrix(0.06172839506172839,0,0,0.06172839506172839,78.82716049382715,0)"/>
   </g>
   <use id="g" xlink:href="#w" transform="matrix(0.06172839506172839,0,0,0.06172839506172839,0,0)"/>
   <use id="h" xlink:href="#x" transform="matrix(0.06172839506172839,0,0,0.06172839506172839,0,0)"/>
   <path id="U" d="m104,-123c39,3 61,21 62,59c1,71 -83,76 -147,60l-2,-50l12,0c2,29 16,43 51,43c38,0 54,-19 54,-55c2,-43 -34,-49 -75,-50l0,-14c37,0 64,-7 64,-48c0,-47 -47,-56 -81,-36l-6,29l-12,0l0,-46c51,-13 135,-13 131,51c-2,34 -20,52 -51,57" fill="#3a414a"/>
   <use id="i" xlink:href="#U" transform="matrix(0.06172839506172839,0,0,0.06172839506172839,0,0)"/>
   <path id="V" d="m76,-208l0,77l127,0l0,40l-127,0l0,91l-52,0l0,-248l183,0l0,40l-131,0"/>
   <path id="W" d="m230,0l2,-204l-64,204l-37,0l-63,-204l2,204l-46,0l0,-248l70,0l56,185l57,-185l69,0l0,248l-46,0"/>
   <path id="X" d="m133,-34c-16,19 -30,39 -64,38c-37,-1 -58,-20 -58,-58c-1,-60 55,-63 116,-61c1,-26 -3,-47 -28,-47c-18,1 -26,9 -28,27l-52,-2c7,-38 36,-58 82,-57s74,22 75,68l1,82c-1,14 12,18 25,15l0,27c-30,8 -71,5 -69,-32zm-48,3c29,0 43,-24 42,-57c-32,0 -66,-3 -65,30c0,17 8,27 23,27"/>
   <path id="Y" d="m137,-138c1,-29 -70,-34 -71,-4c15,46 118,7 119,86c1,83 -164,76 -172,9l43,-7c4,19 20,25 44,25c33,8 57,-30 24,-41c-43,-14 -102,-11 -104,-66c-2,-80 154,-74 161,-7"/>
   <path id="Z" d="m199,0l-22,-63l-94,0l-22,63l-52,0l90,-248l61,0l90,248l-51,0zm-33,-102l-36,-108c-10,38 -24,72 -36,108l72,0"/>
   <path id="aa" d="m135,-150c-39,-12 -60,13 -60,57l0,93l-50,0l-1,-190l47,0c2,13 -1,29 3,40c6,-28 27,-53 61,-41l0,41"/>
   <path id="ab" d="m190,-63c-7,42 -38,67 -86,67c-59,0 -84,-38 -90,-98c-12,-110 154,-137 174,-36l-49,2c-2,-19 -15,-32 -35,-32c-30,0 -35,28 -38,64c-6,74 65,87 74,30"/>
   <path id="ac" d="m114,-157c-59,0 -34,97 -39,157l-50,0l0,-261l50,0l-1,109c12,-26 28,-41 61,-42c86,-1 58,113 63,194l-50,0c-7,-57 23,-157 -34,-157"/>
   <path id="ad" d="m185,-48c-13,30 -37,53 -82,52c-60,-2 -89,-37 -89,-100s30,-98 90,-98c62,0 83,45 84,108l-122,0c0,31 8,55 39,56c18,0 30,-7 34,-22l46,4zm-45,-69c5,-46 -57,-63 -70,-21c-2,6 -4,13 -4,21l74,0"/>
   <path id="ae" d="m115,-3c-36,14 -87,7 -87,-42l0,-112l-24,0l0,-33l27,0l15,-45l31,0l0,45l36,0l0,33l-36,0l0,99c-1,23 16,31 38,25l0,30"/>
   <path id="af" d="m123,10c-15,43 -43,76 -104,62l0,-35c35,8 53,-11 59,-39l-75,-188l52,0l48,148c12,-52 28,-100 44,-148l51,0"/>
   <path id="ag" d="m135,-194c53,0 70,44 70,98c0,56 -19,98 -73,100c-31,1 -45,-17 -59,-34c3,33 2,69 2,105l-50,0l-1,-265l48,0c2,10 0,23 3,31c11,-24 29,-35 60,-35zm-21,164c33,0 39,-31 40,-66c0,-38 -9,-64 -40,-64c-56,0 -55,130 0,130"/>
   <path id="ah" d="m67,-125c0,53 21,87 73,88c37,1 54,-22 65,-47l45,17c-17,42 -51,71 -110,71c-82,0 -120,-46 -125,-129c-7,-110 109,-156 196,-107c18,10 29,29 36,50l-46,12c-8,-25 -30,-41 -62,-41c-52,0 -71,34 -72,86"/>
   <path id="ai" d="m85,4c-87,1 -58,-113 -63,-194l50,0c7,57 -23,150 33,157c60,-5 35,-97 40,-157l50,0l1,190l-47,0c-2,-12 1,-28 -3,-38c-12,25 -28,42 -61,42"/>
   <path id="aj" d="m135,-194c87,-1 58,113 63,194l-50,0c-7,-57 23,-157 -34,-157c-59,0 -34,97 -39,157l-50,0l-1,-190l47,0c2,12 -1,28 3,38c12,-26 28,-41 61,-42"/>
   <path id="ak" d="m147,0l-51,-86l-21,15l0,71l-50,0l0,-261l50,0l0,150l67,-79l53,0l-66,74l72,116l-54,0"/>
   <g id="j">
    <use id="svg_99" xlink:href="#V" transform="matrix(0.06234567901234567,0,0,0.06234567901234567,0,0)"/>
    <use id="svg_100" xlink:href="#W" transform="matrix(0.06234567901234567,0,0,0.06234567901234567,13.653703703703702,0)"/>
    <use id="svg_101" xlink:href="#X" transform="matrix(0.06234567901234567,0,0,0.06234567901234567,32.295061728395055,0)"/>
    <use id="svg_102" xlink:href="#Y" transform="matrix(0.06234567901234567,0,0,0.06234567901234567,44.76419753086419,0)"/>
    <use id="svg_103" xlink:href="#Y" transform="matrix(0.06234567901234567,0,0,0.06234567901234567,57.23333333333332,0)"/>
    <use id="svg_104" xlink:href="#Z" transform="matrix(0.06234567901234567,0,0,0.06234567901234567,69.70246913580246,0)"/>
    <use id="svg_105" xlink:href="#aa" transform="matrix(0.06234567901234567,0,0,0.06234567901234567,85.85,0)"/>
    <use id="svg_106" xlink:href="#ab" transform="matrix(0.06234567901234567,0,0,0.06234567901234567,94.57839506172839,0)"/>
    <use id="svg_107" xlink:href="#ac" transform="matrix(0.06234567901234567,0,0,0.06234567901234567,107.04753086419751,0)"/>
    <use id="svg_108" xlink:href="#ad" transform="matrix(0.06234567901234567,0,0,0.06234567901234567,120.70123456790121,0)"/>
    <use id="svg_109" xlink:href="#ae" transform="matrix(0.06234567901234567,0,0,0.06234567901234567,133.17037037037034,0)"/>
    <use id="svg_110" xlink:href="#af" transform="matrix(0.06234567901234567,0,0,0.06234567901234567,140.58950617283946,0)"/>
    <use id="svg_111" xlink:href="#ag" transform="matrix(0.06234567901234567,0,0,0.06234567901234567,153.0586419753086,0)"/>
    <use id="svg_112" xlink:href="#ad" transform="matrix(0.06234567901234567,0,0,0.06234567901234567,166.71234567901232,0)"/>
    <use id="svg_113" xlink:href="#ah" transform="matrix(0.06234567901234567,0,0,0.06234567901234567,179.18148148148146,0)"/>
    <use id="svg_114" xlink:href="#ac" transform="matrix(0.06234567901234567,0,0,0.06234567901234567,195.329012345679,0)"/>
    <use id="svg_115" xlink:href="#ai" transform="matrix(0.06234567901234567,0,0,0.06234567901234567,208.9827160493827,0)"/>
    <use id="svg_116" xlink:href="#aj" transform="matrix(0.06234567901234567,0,0,0.06234567901234567,222.63641975308641,0)"/>
    <use id="svg_117" xlink:href="#ak" transform="matrix(0.06234567901234567,0,0,0.06234567901234567,236.29012345679013,0)"/>
   </g>
   <path id="al" d="m111,-111l0,75l-19,0l0,-75l-74,0l0,-17l74,0l0,-75l19,0l0,75l74,0l0,17l-74,0" fill="#3a414a"/>
   <use id="l" xlink:href="#al" transform="matrix(0.06790123456790123,0,0,0.06790123456790123,0,0)"/>
   <path id="am" d="m18,-187l11,-25l55,34l-7,-58l27,0l-8,58l56,-34l11,25l-59,17l59,17l-11,25l-56,-33l8,57l-27,0l7,-57l-55,34l-11,-25l57,-18" fill="#3a414a"/>
   <g id="m">
    <use id="svg_118" xlink:href="#t" transform="matrix(0.06790123456790123,0,0,0.06790123456790123,0,0)"/>
    <use id="svg_119" xlink:href="#G" transform="matrix(0.06790123456790123,0,0,0.06790123456790123,12.222222222222221,0)"/>
    <use id="svg_120" xlink:href="#u" transform="matrix(0.06790123456790123,0,0,0.06790123456790123,19.012345679012345,0)"/>
    <use id="svg_121" xlink:href="#F" transform="matrix(0.06790123456790123,0,0,0.06790123456790123,31.234567901234566,0)"/>
    <use id="svg_122" xlink:href="#y" transform="matrix(0.06790123456790123,0,0,0.06790123456790123,38.02469135802469,0)"/>
    <use id="svg_123" xlink:href="#am" transform="matrix(0.06790123456790123,0,0,0.06790123456790123,50.24691358024691,0)"/>
   </g>
   <path id="an" d="m199,-173c-1,36 -21,56 -49,65l64,94l26,5l0,9l-57,0l-66,-103l-42,0l0,89l35,5l0,9l-97,0l0,-9l28,-5l0,-208l-31,-4l0,-10c80,4 190,-20 189,63zm-124,54c50,2 89,-1 89,-51c0,-49 -39,-52 -89,-50l0,101" fill="#3a414a"/>
   <path id="ao" d="m240,-154l-55,158l-14,0l-41,-109l-40,109l-13,0l-57,-157c-7,-3 -23,1 -20,-12l79,0l0,8l-27,4l39,112l40,-108l14,0l40,109l38,-113l-28,-4l0,-8l63,0l0,8" fill="#3a414a"/>
   <path id="ap" d="m90,-170c52,0 76,32 76,87c0,54 -24,87 -77,87c-51,0 -75,-34 -75,-87c0,-54 24,-87 76,-87zm-1,160c39,0 46,-35 46,-73c0,-39 -7,-73 -46,-73c-39,1 -44,34 -44,73s6,72 44,73" fill="#3a414a"/>
   <path id="aq" d="m50,-169c12,0 21,9 21,21c0,13 -9,22 -21,22c-13,0 -22,-9 -22,-22c0,-12 9,-21 22,-21zm-3,132c42,4 24,74 -3,81c-7,4 -15,8 -25,11l0,-13c22,-4 44,-32 19,-42c-18,-7 -14,-39 9,-37" fill="#3a414a"/>
   <g id="n">
    <use id="svg_124" xlink:href="#an" transform="matrix(0.06790123456790123,0,0,0.06790123456790123,0,0)"/>
    <use id="svg_125" xlink:href="#C" transform="matrix(0.06790123456790123,0,0,0.06790123456790123,16.296296296296294,0)"/>
    <use id="svg_126" xlink:href="#ao" transform="matrix(0.06790123456790123,0,0,0.06790123456790123,27.092592592592588,0)"/>
    <use id="svg_127" xlink:href="#B" transform="matrix(0.06790123456790123,0,0,0.06790123456790123,44.679012345679006,0)"/>
    <use id="svg_128" xlink:href="#L" transform="matrix(0.06790123456790123,0,0,0.06790123456790123,66.40740740740739,0)"/>
    <use id="svg_129" xlink:href="#R" transform="matrix(0.06790123456790123,0,0,0.06790123456790123,77.20370370370368,0)"/>
    <use id="svg_130" xlink:href="#ap" transform="matrix(0.06790123456790123,0,0,0.06790123456790123,96.21604938271602,0)"/>
    <use id="svg_131" xlink:href="#P" transform="matrix(0.06790123456790123,0,0,0.06790123456790123,108.43827160493825,0)"/>
    <use id="svg_132" xlink:href="#H" transform="matrix(0.06790123456790123,0,0,0.06790123456790123,116.51851851851852,0)"/>
    <use id="svg_133" xlink:href="#aq" transform="matrix(0.06790123456790123,0,0,0.06790123456790123,128.74074074074073,0)"/>
   </g>
   <path id="ar" d="m81,-9l0,9l-77,0l0,-9l26,-5l81,-224l33,0l83,224l30,5l0,9l-99,0l0,-9l31,-5l-23,-68l-93,0l-24,68l32,5zm38,-203l-41,114l82,0" fill="#3a414a"/>
   <path id="as" d="m10,0l0,-8l90,-143c-23,2 -54,-4 -70,6c-5,8 1,26 -14,24l0,-44l122,0l0,8l-91,143c29,-2 65,3 86,-8l9,-35l8,0l-5,57l-135,0" fill="#3a414a"/>
   <g id="o">
    <use id="svg_134" xlink:href="#ar" transform="matrix(0.06790123456790123,0,0,0.06790123456790123,0,0)"/>
    <use id="svg_135" xlink:href="#K" transform="matrix(0.06790123456790123,0,0,0.06790123456790123,17.586419753086417,0)"/>
    <use id="svg_136" xlink:href="#K" transform="matrix(0.06790123456790123,0,0,0.06790123456790123,24.37654320987654,0)"/>
    <use id="svg_137" xlink:href="#ap" transform="matrix(0.06790123456790123,0,0,0.06790123456790123,31.166666666666664,0)"/>
    <use id="svg_138" xlink:href="#r" transform="matrix(0.06790123456790123,0,0,0.06790123456790123,43.388888888888886,0)"/>
    <use id="svg_139" xlink:href="#O" transform="matrix(0.06790123456790123,0,0,0.06790123456790123,54.18518518518518,0)"/>
    <use id="svg_140" xlink:href="#G" transform="matrix(0.06790123456790123,0,0,0.06790123456790123,67.76543209876543,0)"/>
    <use id="svg_141" xlink:href="#as" transform="matrix(0.06790123456790123,0,0,0.06790123456790123,74.55555555555556,0)"/>
    <use id="svg_142" xlink:href="#L" transform="matrix(0.06790123456790123,0,0,0.06790123456790123,85.35185185185185,0)"/>
    <use id="svg_143" xlink:href="#aq" transform="matrix(0.06790123456790123,0,0,0.06790123456790123,96.14814814814814,0)"/>
   </g>
   <path id="at" d="m52,-115c0,93 80,130 150,87l7,-35l11,0l-1,55c-23,7 -52,12 -83,12c-76,0 -117,-41 -121,-119c-5,-113 97,-141 201,-114l1,51l-12,0l-5,-30c-15,-9 -39,-16 -62,-16c-66,0 -86,41 -86,109" fill="#3a414a"/>
   <path id="au" d="m75,-17c87,13 134,-18 134,-103c0,-78 -51,-106 -134,-100l0,203zm171,-102c0,124 -107,126 -236,119l0,-9l31,-5l0,-208l-31,-4l0,-10l107,0c82,0 129,35 129,117" fill="#3a414a"/>
   <g id="p">
    <use id="svg_144" xlink:href="#at" transform="matrix(0.06790123456790123,0,0,0.06790123456790123,0,0)"/>
    <use id="svg_145" xlink:href="#s" transform="matrix(0.06790123456790123,0,0,0.06790123456790123,16.296296296296294,0)"/>
    <use id="svg_146" xlink:href="#t" transform="matrix(0.06790123456790123,0,0,0.06790123456790123,28.518518518518515,0)"/>
    <use id="svg_147" xlink:href="#u" transform="matrix(0.06790123456790123,0,0,0.06790123456790123,40.74074074074073,0)"/>
    <use id="svg_148" xlink:href="#v" transform="matrix(0.06790123456790123,0,0,0.06790123456790123,52.962962962962955,0)"/>
    <use id="svg_149" xlink:href="#A" transform="matrix(0.06790123456790123,0,0,0.06790123456790123,65.18518518518518,0)"/>
    <use id="svg_150" xlink:href="#P" transform="matrix(0.06790123456790123,0,0,0.06790123456790123,78.76543209876542,0)"/>
    <use id="svg_151" xlink:href="#C" transform="matrix(0.06790123456790123,0,0,0.06790123456790123,86.84567901234567,0)"/>
    <use id="svg_152" xlink:href="#T" transform="matrix(0.06790123456790123,0,0,0.06790123456790123,97.64197530864196,0)"/>
    <use id="svg_153" xlink:href="#R" transform="matrix(0.06790123456790123,0,0,0.06790123456790123,109.86419753086417,0)"/>
    <use id="svg_154" xlink:href="#L" transform="matrix(0.06790123456790123,0,0,0.06790123456790123,128.87654320987653,0)"/>
    <use id="svg_155" xlink:href="#u" transform="matrix(0.06790123456790123,0,0,0.06790123456790123,139.67283950617283,0)"/>
    <use id="svg_156" xlink:href="#F" transform="matrix(0.06790123456790123,0,0,0.06790123456790123,151.89506172839506,0)"/>
    <use id="svg_157" xlink:href="#au" transform="matrix(0.06790123456790123,0,0,0.06790123456790123,158.6851851851852,0)"/>
    <use id="svg_158" xlink:href="#C" transform="matrix(0.06790123456790123,0,0,0.06790123456790123,176.2716049382716,0)"/>
    <use id="svg_159" xlink:href="#F" transform="matrix(0.06790123456790123,0,0,0.06790123456790123,187.0679012345679,0)"/>
    <use id="svg_160" xlink:href="#C" transform="matrix(0.06790123456790123,0,0,0.06790123456790123,193.85802469135803,0)"/>
    <use id="svg_161" xlink:href="#aq" transform="matrix(0.06790123456790123,0,0,0.06790123456790123,204.65432098765433,0)"/>
   </g>
   <path id="av" d="m256,-236l0,10l-26,4l-95,227l-9,0l-95,-227l-27,-4l0,-10l95,0l0,10l-31,4l71,174l71,-174l-31,-4l0,-10l77,0" fill="#3a414a"/>
   <g id="q">
    <use id="svg_162" xlink:href="#O" transform="matrix(0.06790123456790123,0,0,0.06790123456790123,0,0)"/>
    <use id="svg_163" xlink:href="#s" transform="matrix(0.06790123456790123,0,0,0.06790123456790123,13.580246913580247,0)"/>
    <use id="svg_164" xlink:href="#C" transform="matrix(0.06790123456790123,0,0,0.06790123456790123,25.80246913580247,0)"/>
    <use id="svg_165" xlink:href="#P" transform="matrix(0.06790123456790123,0,0,0.06790123456790123,36.598765432098766,0)"/>
    <use id="svg_166" xlink:href="#L" transform="matrix(0.06790123456790123,0,0,0.06790123456790123,44.67901234567901,0)"/>
    <use id="svg_167" xlink:href="#J" transform="matrix(0.06790123456790123,0,0,0.06790123456790123,55.47530864197531,0)"/>
    <use id="svg_168" xlink:href="#A" transform="matrix(0.06790123456790123,0,0,0.06790123456790123,67.69753086419753,0)"/>
    <use id="svg_169" xlink:href="#P" transform="matrix(0.06790123456790123,0,0,0.06790123456790123,81.27777777777777,0)"/>
    <use id="svg_170" xlink:href="#C" transform="matrix(0.06790123456790123,0,0,0.06790123456790123,89.35802469135803,0)"/>
    <use id="svg_171" xlink:href="#T" transform="matrix(0.06790123456790123,0,0,0.06790123456790123,100.15432098765432,0)"/>
    <use id="svg_172" xlink:href="#R" transform="matrix(0.06790123456790123,0,0,0.06790123456790123,112.37654320987653,0)"/>
    <use id="svg_173" xlink:href="#L" transform="matrix(0.06790123456790123,0,0,0.06790123456790123,131.38888888888889,0)"/>
    <use id="svg_174" xlink:href="#u" transform="matrix(0.06790123456790123,0,0,0.06790123456790123,142.1851851851852,0)"/>
    <use id="svg_175" xlink:href="#F" transform="matrix(0.06790123456790123,0,0,0.06790123456790123,154.40740740740742,0)"/>
    <use id="svg_176" xlink:href="#av" transform="matrix(0.06790123456790123,0,0,0.06790123456790123,161.19753086419755,0)"/>
    <use id="svg_177" xlink:href="#C" transform="matrix(0.06790123456790123,0,0,0.06790123456790123,176.0679012345679,0)"/>
    <use id="svg_178" xlink:href="#K" transform="matrix(0.06790123456790123,0,0,0.06790123456790123,186.86419753086423,0)"/>
    <use id="svg_179" xlink:href="#t" transform="matrix(0.06790123456790123,0,0,0.06790123456790123,193.65432098765433,0)"/>
    <use id="svg_180" xlink:href="#L" transform="matrix(0.06790123456790123,0,0,0.06790123456790123,205.87654320987656,0)"/>
    <use id="svg_181" xlink:href="#D" transform="matrix(0.06790123456790123,0,0,0.06790123456790123,216.67283950617286,0)"/>
   </g>
  </defs>
 </g>
</svg>