<svg width="980" height="442" xmlns="http://www.w3.org/2000/svg" xmlns:xlink="http://www.w3.org/1999/xlink"><path stroke="#000" fill="#e2e2e2" d="M2 0h977v440H2z"/><path fill="#fff" stroke="#3a414a" d="M440 86.889a6 6 0 0 1 6-6h508a6 6 0 0 1 6 6v328a6 6 0 0 1-6 6H446a6 6 0 0 1-6-6v-328z"/><path fill="#fff" stroke="#3a414a" d="M480 144.889a6 6 0 0 1 6-6h428a6 6 0 0 1 6 6v68a6 6 0 0 1-6 6H486a6 6 0 0 1-6-6v-68z"/><path fill="none" d="M440.5 86.889a6 6 0 0 1 6-6h228a6 6 0 0 1 6 6v48a6 6 0 0 1-6 6h-228a6 6 0 0 1-6-6v-48z"/><use x="-120" y="-61.111" transform="translate(565.5 177.278)" xlink:href="#a"/><use x="-120" y="-61.111" transform="translate(653.093 177.278)" xlink:href="#b"/><path fill="#fff" stroke="#3a414a" d="M480 224.889a6 6 0 0 1 6-6h428a6 6 0 0 1 6 6v48a6 6 0 0 1-6 6H486a6 6 0 0 1-6-6v-48zm0 60a6 6 0 0 1 6-6h428a6 6 0 0 1 6 6v48a6 6 0 0 1-6 6H486a6 6 0 0 1-6-6v-48zm0 60a6 6 0 0 1 6-6h428a6 6 0 0 1 6 6v48a6 6 0 0 1-6 6H486a6 6 0 0 1-6-6v-48z"/><path fill="none" d="M680 154.889a6 6 0 0 1 6-6h228a6 6 0 0 1 6 6v48a6 6 0 0 1-6 6H686a6 6 0 0 1-6-6v-48z"/><use x="-120" y="-61.111" transform="translate(857.531 245.278)" xlink:href="#c"/><path fill="#fff" stroke="#3a414a" d="M480 144.889a6 6 0 0 1 6-6h228a6 6 0 0 1 6 6v28a6 6 0 0 1-6 6H486a6 6 0 0 1-6-6v-28z"/><use x="-120" y="-61.111" transform="translate(621.481 229.778)" xlink:href="#d"/><use x="-120" y="-61.111" transform="translate(694.198 229.778)" xlink:href="#e"/><path fill="none" stroke-width=".5" stroke="#3a414a" d="M560.5 139.139a.25.25 0 0 1 .25.25v39.4a.25.25 0 0 1-.25.26.25.25 0 0 1-.25-.25v-39.4a.25.25 0 0 1 .25-.25v-.01z"/><path fill="none" d="M680 224.889a6 6 0 0 1 6-6h228a6 6 0 0 1 6 6v48a6 6 0 0 1-6 6H686a6 6 0 0 1-6-6v-48z"/><use x="-120" y="-61.111" transform="translate(933.333 315.278)" xlink:href="#f"/><use x="-120" y="-61.111" transform="translate(1023.89 315.278)" xlink:href="#g"/><path fill="none" d="M680 284.889a6 6 0 0 1 6-6h228a6 6 0 0 1 6 6v48a6 6 0 0 1-6 6H686a6 6 0 0 1-6-6v-48z"/><use x="-120" y="-61.111" transform="translate(933.333 375.278)" xlink:href="#f"/><use x="-120" y="-61.111" transform="translate(1023.89 375.278)" xlink:href="#h"/><path fill="none" d="M680 343.219a6 6 0 0 1 6-6h228a6 6 0 0 1 6 6v51.34a6 6 0 0 1-6 6H686a6 6 0 0 1-6-6v-51.34z"/><use x="-120" y="-61.111" transform="translate(933.333 434.611)" xlink:href="#f"/><use x="-120" y="-61.111" transform="translate(1023.89 434.611)" xlink:href="#i"/><path fill="#fff" stroke="#3a414a" d="M20 24.889a6 6 0 0 1 6-6h288a6 6 0 0 1 6 6v208a6 6 0 0 1-6 6H26a6 6 0 0 1-6-6v-208z"/><path fill="none" stroke="#3a414a" d="M20 61.819h300"/><use x="-120" y="-61.111" transform="translate(165.62 105.989)" xlink:href="#j"/><path fill="none" d="M20 64.889a6 6 0 0 1 6-6h248a6 6 0 0 1 6 6v48a6 6 0 0 1-6 6H26a6 6 0 0 1-6-6v-48z"/><use x="-120" y="-61.111" transform="translate(145 153.931)" xlink:href="#k"/><use x="-120" y="-61.111" transform="translate(151.111 153.931)" xlink:href="#k"/><use x="-120" y="-61.111" transform="translate(171.006 153.931)" xlink:href="#l"/><use x="-120" y="-61.111" transform="translate(239.586 153.931)" xlink:href="#m"/><path fill="none" d="M20 105.289a6 6 0 0 1 6-6h308a6 6 0 0 1 6 6v48a6 6 0 0 1-6 6H26a6 6 0 0 1-6-6v-48z"/><use x="-120" y="-61.111" transform="translate(145 194.343)" xlink:href="#k"/><use x="-120" y="-61.111" transform="translate(151.111 194.343)" xlink:href="#k"/><use x="-120" y="-61.111" transform="translate(171.006 194.343)" xlink:href="#n"/><path fill="none" d="M20 146.889a6 6 0 0 1 6-6h308a6 6 0 0 1 6 6v48a6 6 0 0 1-6 6H26a6 6 0 0 1-6-6v-48z"/><use x="-120" y="-61.111" transform="translate(145 235.931)" xlink:href="#k"/><use x="-120" y="-61.111" transform="translate(151.111 235.931)" xlink:href="#k"/><use x="-120" y="-61.111" transform="translate(171.006 235.931)" xlink:href="#o"/><path fill="none" d="M20 184.889a6 6 0 0 1 6-6h308a6 6 0 0 1 6 6v48a6 6 0 0 1-6 6H26a6 6 0 0 1-6-6v-48z"/><use x="-120" y="-61.111" transform="translate(145 273.931)" xlink:href="#k"/><use x="-120" y="-61.111" transform="translate(151.111 273.931)" xlink:href="#k"/><use x="-120" y="-61.111" transform="translate(171.006 273.931)" xlink:href="#p"/><path fill="none" stroke-width="3" stroke="#3a414a" d="M281.5 88.889h72.25a6 6 0 0 1 6 6v23a6 6 0 0 0 6 6h53.13"/><path fill="#3a414a" stroke-width=".05" stroke="#3a414a" d="M281.54 90.389H280v-3h1.54v3z"/><path fill="#3a414a" stroke-width="3" stroke="#3a414a" d="m434.65 123.889-14.27 4.63v-9.26l14.27 4.63z"/><defs transform="translate(-120 -61.111)"><path id="q" d="M45-84c0 64 52 80 104 63 1 25-30 25-55 25-56 0-80-32-80-88 0-76 62-98 131-80v46h-10c-5-15-4-31-23-35-47-10-67 21-67 69" fill="#3a414a"/><path id="r" d="M126-119c3-38-42-31-69-25v132l23 4v8H7v-8l21-4v-226l-24-4v-8h53l-1 98c31-22 99-31 99 31v109c7 3 23-1 20 12h-71v-8l22-4v-107" fill="#3a414a"/><path id="s" d="M124-13C89 8 26 15 26-45v-108c-8-3-24 2-21-12h50v118c-3 37 42 32 69 25v-131l-25-4v-8h54v153c8 3 24-2 21 12h-48" fill="#3a414a"/><path id="t" d="M125-118c4-37-41-34-68-26v132l23 4v8H8C5-13 21-9 28-12v-141c-7-3-23 1-20-12h47l2 13c31-23 98-29 98 31v109c7 3 23-1 20 12h-72v-8l22-4v-106" fill="#3a414a"/><path id="u" d="m60-80 68-73c-7-3-20 0-17-12h58c3 13-13 9-20 12l-47 48 60 93c7 3 21-1 18 12h-68c-3-12 9-9 15-12L82-83 60-60v48c7 3 21-1 18 12H10v-8l21-4v-226l-24-4v-8h53v170" fill="#3a414a"/><path id="v" d="m110-14 48 5v9H32v-9l48-5v-192l-48 17v-10l69-39h9v224" fill="#3a414a"/><path id="w" d="M24-231c66-21 156 2 128 81C132-92 78-66 39-27h121V0H16v-26l59-54c26-25 47-47 47-97 0-48-47-57-81-37l-6 29H24v-46" fill="#3a414a"/><path id="x" d="M90-239c42 0 69 19 69 61 0 28-14 44-35 53 25 8 42 28 42 61 0 47-28 68-77 68-48 0-75-21-75-68-1-33 18-51 41-61-19-9-34-25-34-53 0-42 26-61 69-61zM89-10c34 0 46-20 46-54 0-32-11-53-46-53-34 0-44 20-44 53-1 34 11 54 44 54zm0-123c28 0 38-16 38-45s-9-47-38-47c-28-1-36 18-36 47s8 45 36 45" fill="#3a414a"/><path id="y" d="M238-236v10l-27 4-81 79L231-14l25 5v9h-57l-93-119-31 25v80l33 5v9H10v-9l31-5v-208l-31-4v-10h95v10l-30 4v111l112-111-23-4v-10h74" fill="#3a414a"/><path id="z" d="M75-106v92l39 5v9H13v-9l28-5v-208l-31-4v-10h177v57h-11l-6-38c-28-4-63-3-95-3v98h69l5-28h11v73h-11l-5-29H75" fill="#3a414a"/><path id="A" d="M152 0h-7L59-203v189l32 5v9H10v-9l31-5v-208l-31-4v-10h72l76 180 84-180h68v10l-31 4v208l31 5v9h-96v-9l32-5v-189" fill="#3a414a"/><path id="B" d="M32-163c41-10 102-14 102 39v112c8 3 24-2 21 12h-45l-4-17C83 13 3 13 13-46c-2-50 45-50 92-51 4-36-5-70-42-56-6 2-12 4-16 6-4 7 0 23-15 20v-36zM42-47c0 41 41 33 63 22v-59c-34 1-63-1-63 37" fill="#3a414a"/><path id="C" d="M41-130c7 48 86 23 86 84 0 56-69 57-112 41v-40c20 0 9 29 31 31 35 19 77-26 41-50-27-18-72-13-72-59 0-50 58-52 100-41v36c-19 1-8-25-28-25-21-7-50-1-46 23" fill="#3a414a"/><path id="D" d="m10-9 31-5v-208l-31-4v-10h177v57h-11l-6-38c-28-4-63-3-95-3v92h63l6-28h11v73h-11l-6-29H75v96l105-3 10-43h12l-3 62H10v-9" fill="#3a414a"/><path id="E" d="M54-38c-1 25 24 26 44 20v12C71 10 25 9 25-35v-115H4c-2-14 14-10 21-15l18-38h11v38h38v15H54v112" fill="#3a414a"/><path id="F" d="M47-200c-23 0-25-39 0-38 13 0 18 7 20 19-1 11-8 19-20 19zM65-12l28 4v8H8v-8l28-4v-141l-24-4v-8h53v153" fill="#3a414a"/><path id="G" d="M161-154 85 37C75 66 49 86 8 75V39c18-2 6 24 29 21 30-4 38-32 47-58L21-153c-7-3-20 0-17-12h77v8l-26 4 45 116 43-116-26-4v-8h62v8" fill="#3a414a"/><path id="H" d="M10 0v-9l31-5v-208l-31-4v-10h95v10l-30 4v93h110v-93l-30-4v-10h94v10l-30 4v208l30 5v9h-94v-9l30-5v-99H75v99l30 5v9H10" fill="#3a414a"/><path id="I" d="M13-81c0-71 46-101 114-85l-1-72-28-4v-8h57v238c8 3 24-2 21 12h-47l-2-12C80 23 13-1 13-81zm77-74c-37 1-44 33-45 74 0 38 9 66 45 66 14 0 27-3 36-7v-130c-10-1-24-3-36-3" fill="#3a414a"/><path id="J" d="m65-12 28 4v8H7v-8l28-4v-226l-28-4v-8h58v238" fill="#3a414a"/><path id="K" d="M84-170c49 0 66 33 63 87H46c-8 60 38 80 95 63v10C128-2 108 4 88 4 34 4 14-29 14-84c-1-54 22-86 70-86zm33 73c12-57-57-82-69-24-1 7-2 15-2 24h71" fill="#3a414a"/><path id="L" d="m77-14 30 5v9H13v-9l30-5v-208l-30-4v-10h94v10l-30 4v208" fill="#3a414a"/><path id="M" d="M156-12c7 3 23-1 20 12h-75v-8l22-4-38-58-45 58 23 4v8H3v-8l19-3 55-71-48-71c-7-3-23 1-20-12h75v8l-22 4 32 48 37-48-23-4v-8h59v8l-19 3-46 60" fill="#3a414a"/><path id="N" d="M178-68c0 79-95 82-154 59v-54h12c1 35 22 52 60 52 50 0 69-58 33-82-39-24-105-21-105-85 0-67 86-66 142-53v49h-12l-6-29c-31-27-121-7-89 42 28 43 119 24 119 101" fill="#3a414a"/><path id="O" d="M57-145c16-10 35-24 60-25v45c-19 1-8-30-40-17l-20 6v124l29 4v8H7v-8l21-4v-141c-8-3-24 2-21-12h48" fill="#3a414a"/><path id="P" d="m203-222-32-4v-10h81v10l-31 4V0h-17L59-212v198l32 5v9H10v-9l31-5v-208l-31-4v-10h72L203-61v-161" fill="#3a414a"/><path id="Q" d="M126-118c4-37-42-32-68-25v131l24 4v8H8C5-13 21-9 28-12v-141c-7-3-23 1-20-12h48l1 13c22-15 77-30 92 2 32-22 104-36 104 29v109c8 3 24-2 21 12h-75v-8l25-4v-106c3-39-45-31-72-24 7 37 1 88 3 130l25 4v8h-78v-8l24-4v-106" fill="#3a414a"/><path id="R" d="M53-14c58 12 82-15 82-73 0-52-35-77-82-58v131zM89 4C64 4 42-2 24-9v-229l-24-4v-8h53l-1 94c48-33 114-4 114 69 0 57-23 91-77 91" fill="#3a414a"/><path id="S" d="M141-152c28 39 5 97-54 97-9 0-20-2-27-3L49-35c29 22 130-14 124 52-4 45-38 57-88 61C21 83-8 26 45-2 33-6 22-15 21-31l28-31c-19-9-28-26-28-51-2-51 53-65 100-52l38-20 7 8-25 25zM85 64c35 0 61-11 61-42 0-35-57-17-89-21-9 8-16 19-17 34 0 25 19 29 45 29zM52-113c1 26 7 46 35 44 28-1 34-16 35-44 0-26-6-43-34-43s-36 17-36 43" fill="#3a414a"/><path id="T" d="M104-123c39 3 61 21 62 59C167 7 83 12 19-4l-2-50h12c2 29 16 43 51 43 38 0 54-19 54-55 2-43-34-49-75-50v-14c37 0 64-7 64-48 0-47-47-56-81-36l-6 29H24v-46c51-13 135-13 131 51-2 34-20 52-51 57" fill="#3a414a"/><path id="U" d="M76-208v77h127v40H76V0H24v-248h183v40H76"/><path id="V" d="m230 0 2-204L168 0h-37L68-204 70 0H24v-248h70l56 185 57-185h69V0h-46"/><path id="W" d="M133-34C117-15 103 5 69 4 32 3 11-16 11-54c-1-60 55-63 116-61 1-26-3-47-28-47-18 1-26 9-28 27l-52-2c7-38 36-58 82-57s74 22 75 68l1 82c-1 14 12 18 25 15v27c-30 8-71 5-69-32zm-48 3c29 0 43-24 42-57-32 0-66-3-65 30 0 17 8 27 23 27"/><path id="X" d="M137-138c1-29-70-34-71-4 15 46 118 7 119 86 1 83-164 76-172 9l43-7c4 19 20 25 44 25 33 8 57-30 24-41C81-84 22-81 20-136c-2-80 154-74 161-7"/><path id="Y" d="m199 0-22-63H83L61 0H9l90-248h61L250 0h-51zm-33-102-36-108c-10 38-24 72-36 108h72"/><path id="Z" d="M135-150c-39-12-60 13-60 57V0H25l-1-190h47c2 13-1 29 3 40 6-28 27-53 61-41v41"/><path id="aa" d="M190-63c-7 42-38 67-86 67-59 0-84-38-90-98-12-110 154-137 174-36l-49 2c-2-19-15-32-35-32-30 0-35 28-38 64-6 74 65 87 74 30"/><path id="ab" d="M114-157C55-157 80-60 75 0H25v-261h50l-1 109c12-26 28-41 61-42 86-1 58 113 63 194h-50c-7-57 23-157-34-157"/><path id="ac" d="M185-48c-13 30-37 53-82 52C43 2 14-33 14-96s30-98 90-98c62 0 83 45 84 108H66c0 31 8 55 39 56 18 0 30-7 34-22l46 4zm-45-69c5-46-57-63-70-21-2 6-4 13-4 21h74"/><path id="ad" d="M115-3C79 11 28 4 28-45v-112H4v-33h27l15-45h31v45h36v33H77v99c-1 23 16 31 38 25v30"/><path id="ae" d="M123 10C108 53 80 86 19 72V37c35 8 53-11 59-39L3-190h52l48 148c12-52 28-100 44-148h51"/><path id="af" d="M135-194c53 0 70 44 70 98 0 56-19 98-73 100-31 1-45-17-59-34 3 33 2 69 2 105H25l-1-265h48c2 10 0 23 3 31 11-24 29-35 60-35zM114-30c33 0 39-31 40-66 0-38-9-64-40-64-56 0-55 130 0 130"/><path id="ag" d="M67-125c0 53 21 87 73 88 37 1 54-22 65-47l45 17C233-25 199 4 140 4 58 4 20-42 15-125 8-235 124-281 211-232c18 10 29 29 36 50l-46 12c-8-25-30-41-62-41-52 0-71 34-72 86"/><path id="ah" d="M85 4C-2 5 27-109 22-190h50c7 57-23 150 33 157 60-5 35-97 40-157h50l1 190h-47c-2-12 1-28-3-38-12 25-28 42-61 42"/><path id="ai" d="M135-194c87-1 58 113 63 194h-50c-7-57 23-157-34-157-59 0-34 97-39 157H25l-1-190h47c2 12-1 28 3 38 12-26 28-41 61-42"/><path id="aj" d="M147 0 96-86 75-71V0H25v-261h50v150l67-79h53l-66 74L201 0h-54"/><path id="ak" d="M111-111v75H92v-75H18v-17h74v-75h19v75h74v17h-74" fill="#3a414a"/><path id="al" d="m18-187 11-25 55 34-7-58h27l-8 58 56-34 11 25-59 17 59 17-11 25-56-33 8 57H77l7-57-55 34-11-25 57-18" fill="#3a414a"/><path id="am" d="M199-173c-1 36-21 56-49 65l64 94 26 5v9h-57l-66-103H75v89l35 5v9H13v-9l28-5v-208l-31-4v-10c80 4 190-20 189 63zM75-119c50 2 89-1 89-51 0-49-39-52-89-50v101" fill="#3a414a"/><path id="an" d="M240-154 185 4h-14l-41-109L90 4H77L20-153c-7-3-23 1-20-12h79v8l-27 4L91-41l40-108h14l40 109 38-113-28-4v-8h63v8" fill="#3a414a"/><path id="ao" d="M90-170c52 0 76 32 76 87 0 54-24 87-77 87-51 0-75-34-75-87 0-54 24-87 76-87zM89-10c39 0 46-35 46-73 0-39-7-73-46-73-39 1-44 34-44 73s6 72 44 73" fill="#3a414a"/><path id="ap" d="M50-169c12 0 21 9 21 21 0 13-9 22-21 22-13 0-22-9-22-22 0-12 9-21 22-21zM47-37c42 4 24 74-3 81-7 4-15 8-25 11V42c22-4 44-32 19-42-18-7-14-39 9-37" fill="#3a414a"/><path id="aq" d="M81-9v9H4v-9l26-5 81-224h33l83 224 30 5v9h-99v-9l31-5-23-68H73L49-14l32 5zm38-203L78-98h82" fill="#3a414a"/><path id="ar" d="M10 0v-8l90-143c-23 2-54-4-70 6-5 8 1 26-14 24v-44h122v8L47-14c29-2 65 3 86-8l9-35h8l-5 57H10" fill="#3a414a"/><path id="as" d="M52-115c0 93 80 130 150 87l7-35h11l-1 55c-23 7-52 12-83 12C60 4 19-37 15-115c-5-113 97-141 201-114l1 51h-12l-5-30c-15-9-39-16-62-16-66 0-86 41-86 109" fill="#3a414a"/><path id="at" d="M75-17c87 13 134-18 134-103 0-78-51-106-134-100v203zm171-102C246 5 139 7 10 0v-9l31-5v-208l-31-4v-10h107c82 0 129 35 129 117" fill="#3a414a"/><path id="au" d="M256-236v10l-26 4L135 5h-9L31-222l-27-4v-10h95v10l-31 4 71 174 71-174-31-4v-10h77" fill="#3a414a"/><g id="a"><use xlink:href="#q" transform="rotate(.413) scale(.06173)"/><use xlink:href="#r" transform="matrix(.06173 0 0 .06173 9.815 0)"/><use xlink:href="#s" transform="matrix(.06173 0 0 .06173 20.926 0)"/><use xlink:href="#t" transform="matrix(.06173 0 0 .06173 32.037 0)"/><use xlink:href="#u" transform="matrix(.06173 0 0 .06173 43.148 0)"/></g><g id="b"><use xlink:href="#v" transform="rotate(.413) scale(.06173)"/><use xlink:href="#w" transform="matrix(.06173 0 0 .06173 11.111 0)"/><use xlink:href="#x" transform="matrix(.06173 0 0 .06173 22.222 0)"/><use xlink:href="#y" transform="matrix(.06173 0 0 .06173 33.333 0)"/></g><g id="c"><use xlink:href="#z" transform="rotate(.413) scale(.06173)"/><use xlink:href="#A" transform="matrix(.06173 0 0 .06173 12.346 0)"/><use xlink:href="#B" transform="matrix(.06173 0 0 .06173 32.099 0)"/><use xlink:href="#C" transform="matrix(.06173 0 0 .06173 41.914 0)"/><use xlink:href="#C" transform="matrix(.06173 0 0 .06173 50.556 0)"/><use xlink:href="#D" transform="matrix(.06173 0 0 .06173 59.198 0)"/><use xlink:href="#t" transform="matrix(.06173 0 0 .06173 72.716 0)"/><use xlink:href="#E" transform="matrix(.06173 0 0 .06173 83.827 0)"/><use xlink:href="#F" transform="matrix(.06173 0 0 .06173 90 0)"/><use xlink:href="#E" transform="matrix(.06173 0 0 .06173 96.173 0)"/><use xlink:href="#G" transform="matrix(.06173 0 0 .06173 102.346 0)"/><use xlink:href="#H" transform="matrix(.06173 0 0 .06173 113.457 0)"/><use xlink:href="#B" transform="matrix(.06173 0 0 .06173 129.444 0)"/><use xlink:href="#t" transform="matrix(.06173 0 0 .06173 139.26 0)"/><use xlink:href="#I" transform="matrix(.06173 0 0 .06173 150.37 0)"/><use xlink:href="#J" transform="matrix(.06173 0 0 .06173 161.481 0)"/><use xlink:href="#K" transform="matrix(.06173 0 0 .06173 167.654 0)"/></g><g id="d"><use xlink:href="#L" transform="rotate(.413) scale(.06173)"/><use xlink:href="#t" transform="matrix(.06173 0 0 .06173 7.346 0)"/><use xlink:href="#I" transform="matrix(.06173 0 0 .06173 18.457 0)"/><use xlink:href="#K" transform="matrix(.06173 0 0 .06173 29.568 0)"/><use xlink:href="#M" transform="matrix(.06173 0 0 .06173 39.383 0)"/></g><g id="e"><use xlink:href="#N" transform="rotate(.413) scale(.06173)"/><use xlink:href="#K" transform="matrix(.06173 0 0 .06173 12.346 0)"/><use xlink:href="#O" transform="matrix(.06173 0 0 .06173 22.16 0)"/><use xlink:href="#F" transform="matrix(.06173 0 0 .06173 29.506 0)"/><use xlink:href="#B" transform="matrix(.06173 0 0 .06173 35.679 0)"/><use xlink:href="#J" transform="matrix(.06173 0 0 .06173 45.494 0)"/><use xlink:href="#P" transform="matrix(.06173 0 0 .06173 51.667 0)"/><use xlink:href="#s" transform="matrix(.06173 0 0 .06173 67.654 0)"/><use xlink:href="#Q" transform="matrix(.06173 0 0 .06173 78.765 0)"/><use xlink:href="#R" transform="matrix(.06173 0 0 .06173 96.05 0)"/><use xlink:href="#K" transform="matrix(.06173 0 0 .06173 107.16 0)"/><use xlink:href="#O" transform="matrix(.06173 0 0 .06173 116.975 0)"/></g><g id="f"><use xlink:href="#z" transform="rotate(.413) scale(.06173)"/><use xlink:href="#O" transform="matrix(.06173 0 0 .06173 12.346 0)"/><use xlink:href="#B" transform="matrix(.06173 0 0 .06173 19.691 0)"/><use xlink:href="#S" transform="matrix(.06173 0 0 .06173 29.506 0)"/><use xlink:href="#Q" transform="matrix(.06173 0 0 .06173 40.617 0)"/><use xlink:href="#K" transform="matrix(.06173 0 0 .06173 57.901 0)"/><use xlink:href="#t" transform="matrix(.06173 0 0 .06173 67.716 0)"/><use xlink:href="#E" transform="matrix(.06173 0 0 .06173 78.827 0)"/></g><g id="j"><use xlink:href="#U" transform="scale(.06235)"/><use xlink:href="#V" transform="matrix(.06235 0 0 .06235 13.654 0)"/><use xlink:href="#W" transform="matrix(.06235 0 0 .06235 32.295 0)"/><use xlink:href="#X" transform="matrix(.06235 0 0 .06235 44.764 0)"/><use xlink:href="#X" transform="matrix(.06235 0 0 .06235 57.233 0)"/><use xlink:href="#Y" transform="matrix(.06235 0 0 .06235 69.702 0)"/><use xlink:href="#Z" transform="matrix(.06235 0 0 .06235 85.85 0)"/><use xlink:href="#aa" transform="matrix(.06235 0 0 .06235 94.578 0)"/><use xlink:href="#ab" transform="matrix(.06235 0 0 .06235 107.048 0)"/><use xlink:href="#ac" transform="matrix(.06235 0 0 .06235 120.701 0)"/><use xlink:href="#ad" transform="matrix(.06235 0 0 .06235 133.17 0)"/><use xlink:href="#ae" transform="matrix(.06235 0 0 .06235 140.59 0)"/><use xlink:href="#af" transform="matrix(.06235 0 0 .06235 153.059 0)"/><use xlink:href="#ac" transform="matrix(.06235 0 0 .06235 166.712 0)"/><use xlink:href="#ag" transform="matrix(.06235 0 0 .06235 179.181 0)"/><use xlink:href="#ab" transform="matrix(.06235 0 0 .06235 195.329 0)"/><use xlink:href="#ah" transform="matrix(.06235 0 0 .06235 208.983 0)"/><use xlink:href="#ai" transform="matrix(.06235 0 0 .06235 222.636 0)"/><use xlink:href="#aj" transform="matrix(.06235 0 0 .06235 236.29 0)"/></g><g id="l"><use xlink:href="#s" transform="scale(.0679)"/><use xlink:href="#F" transform="translate(12.222) scale(.0679)"/><use xlink:href="#t" transform="translate(19.012) scale(.0679)"/><use xlink:href="#E" transform="translate(31.235) scale(.0679)"/><use xlink:href="#x" transform="translate(38.025) scale(.0679)"/><use xlink:href="#al" transform="translate(50.247) scale(.0679)"/></g><g id="m"><use xlink:href="#am" transform="scale(.0679)"/><use xlink:href="#B" transform="translate(16.296) scale(.0679)"/><use xlink:href="#an" transform="translate(27.093) scale(.0679)"/><use xlink:href="#A" transform="translate(44.679) scale(.0679)"/><use xlink:href="#K" transform="translate(66.407) scale(.0679)"/><use xlink:href="#Q" transform="translate(77.204) scale(.0679)"/><use xlink:href="#ao" transform="translate(96.216) scale(.0679)"/><use xlink:href="#O" transform="translate(108.438) scale(.0679)"/><use xlink:href="#G" transform="translate(116.519) scale(.0679)"/><use xlink:href="#ap" transform="translate(128.74) scale(.0679)"/></g><g id="n"><use xlink:href="#aq" transform="scale(.0679)"/><use xlink:href="#J" transform="translate(17.586) scale(.0679)"/><use xlink:href="#J" transform="translate(24.377) scale(.0679)"/><use xlink:href="#ao" transform="translate(31.167) scale(.0679)"/><use xlink:href="#q" transform="translate(43.389) scale(.0679)"/><use xlink:href="#N" transform="translate(54.185) scale(.0679)"/><use xlink:href="#F" transform="translate(67.765) scale(.0679)"/><use xlink:href="#ar" transform="translate(74.556) scale(.0679)"/><use xlink:href="#K" transform="translate(85.352) scale(.0679)"/><use xlink:href="#ap" transform="translate(96.148) scale(.0679)"/></g><g id="o"><use xlink:href="#as" transform="scale(.0679)"/><use xlink:href="#r" transform="translate(16.296) scale(.0679)"/><use xlink:href="#s" transform="translate(28.519) scale(.0679)"/><use xlink:href="#t" transform="translate(40.74) scale(.0679)"/><use xlink:href="#u" transform="translate(52.963) scale(.0679)"/><use xlink:href="#z" transform="translate(65.185) scale(.0679)"/><use xlink:href="#O" transform="translate(78.765) scale(.0679)"/><use xlink:href="#B" transform="translate(86.846) scale(.0679)"/><use xlink:href="#S" transform="translate(97.642) scale(.0679)"/><use xlink:href="#Q" transform="translate(109.864) scale(.0679)"/><use xlink:href="#K" transform="translate(128.877) scale(.0679)"/><use xlink:href="#t" transform="translate(139.673) scale(.0679)"/><use xlink:href="#E" transform="translate(151.895) scale(.0679)"/><use xlink:href="#at" transform="translate(158.685) scale(.0679)"/><use xlink:href="#B" transform="translate(176.272) scale(.0679)"/><use xlink:href="#E" transform="translate(187.068) scale(.0679)"/><use xlink:href="#B" transform="translate(193.858) scale(.0679)"/><use xlink:href="#ap" transform="translate(204.654) scale(.0679)"/></g><g id="p"><use xlink:href="#N" transform="scale(.0679)"/><use xlink:href="#r" transform="translate(13.58) scale(.0679)"/><use xlink:href="#B" transform="translate(25.802) scale(.0679)"/><use xlink:href="#O" transform="translate(36.599) scale(.0679)"/><use xlink:href="#K" transform="translate(44.679) scale(.0679)"/><use xlink:href="#I" transform="translate(55.475) scale(.0679)"/><use xlink:href="#z" transform="translate(67.698) scale(.0679)"/><use xlink:href="#O" transform="translate(81.278) scale(.0679)"/><use xlink:href="#B" transform="translate(89.358) scale(.0679)"/><use xlink:href="#S" transform="translate(100.154) scale(.0679)"/><use xlink:href="#Q" transform="translate(112.377) scale(.0679)"/><use xlink:href="#K" transform="translate(131.389) scale(.0679)"/><use xlink:href="#t" transform="translate(142.185) scale(.0679)"/><use xlink:href="#E" transform="translate(154.407) scale(.0679)"/><use xlink:href="#au" transform="translate(161.198) scale(.0679)"/><use xlink:href="#B" transform="translate(176.068) scale(.0679)"/><use xlink:href="#J" transform="translate(186.864) scale(.0679)"/><use xlink:href="#s" transform="translate(193.654) scale(.0679)"/><use xlink:href="#K" transform="translate(205.877) scale(.0679)"/><use xlink:href="#C" transform="translate(216.673) scale(.0679)"/></g><use id="g" xlink:href="#v" transform="rotate(.413) scale(.06173)"/><use id="h" xlink:href="#w" transform="rotate(.413) scale(.06173)"/><use id="i" xlink:href="#T" transform="rotate(.413) scale(.06173)"/><use id="k" xlink:href="#ak" transform="scale(.0679)"/></defs></svg>