<svg width="980.83" height="796.67" xmlns="http://www.w3.org/2000/svg" xmlns:xlink="http://www.w3.org/1999/xlink"><path opacity="NaN" stroke="#000" fill="#e2e2e2" d="M-20.915-6.335h1002v810h-1002z"/><path fill="#d7faf5" stroke="#3a414a" d="M324.657 146a6 6 0 0 1 6-6h88a6 6 0 0 1 6 6v28a6 6 0 0 1-6 6h-88a6 6 0 0 1-6-6v-28z"/><use x="3.117" y="260" transform="translate(365.987 -90.222)" xlink:href="#a"/><path fill="#d7faf5" stroke="#3a414a" d="M324.657 266a6 6 0 0 1 6-6h88a6 6 0 0 1 6 6v28a6 6 0 0 1-6 6h-88a6 6 0 0 1-6-6v-28z"/><use x="3.117" y="260" transform="translate(365.987 29.778)" xlink:href="#b"/><path fill="#d7faf5" stroke="#3a414a" d="M324.657 206a6 6 0 0 1 6-6h88a6 6 0 0 1 6 6v28a6 6 0 0 1-6 6h-88a6 6 0 0 1-6-6v-28z"/><use x="3.117" y="260" transform="translate(365.987 -30.222)" xlink:href="#c"/><path fill="none" d="M43.117 146a6 6 0 0 1 6-6h226.46a6 6 0 0 1 6 6v28a6 6 0 0 1-6 6H49.117a6 6 0 0 1-6-6v-28z"/><use x="3.117" y="260" transform="translate(124.37 -95.347)" xlink:href="#d"/><path fill="none" d="M81.577 206a6 6 0 0 1 6-6h188a6 6 0 0 1 6 6v28a6 6 0 0 1-6 6h-188a6 6 0 0 1-6-6v-28z"/><use x="3.117" y="260" transform="translate(53.89 -35.556)" xlink:href="#e"/><path fill="none" d="M81.577 266a6 6 0 0 1 6-6h188a6 6 0 0 1 6 6v28a6 6 0 0 1-6 6h-188a6 6 0 0 1-6-6v-28z"/><use x="3.117" y="260" transform="translate(84.94 24.653)" xlink:href="#f"/><path fill="none" d="M43.117 86a6 6 0 0 1 6-6h226.46a6 6 0 0 1 6 6v28a6 6 0 0 1-6 6H49.117a6 6 0 0 1-6-6V86z"/><use x="3.117" y="260" transform="translate(96.53 -155.347)" xlink:href="#g"/><path fill="#d7faf5" stroke="#3a414a" d="M324.657 86a6 6 0 0 1 6-6h88a6 6 0 0 1 6 6v28a6 6 0 0 1-6 6h-88a6 6 0 0 1-6-6V86z"/><use x="3.117" y="260" transform="translate(365.987 -150.222)" xlink:href="#a"/><path fill="#d7faf5" stroke="#3a414a" d="M463.117 146a6 6 0 0 1 6-6h88a6 6 0 0 1 6 6v28a6 6 0 0 1-6 6h-88a6 6 0 0 1-6-6v-28z"/><use x="3.117" y="260" transform="translate(504.444 -90.222)" xlink:href="#c"/><path fill="#d7faf5" stroke="#3a414a" d="M463.117 206a6 6 0 0 1 6-6h88a6 6 0 0 1 6 6v28a6 6 0 0 1-6 6h-88a6 6 0 0 1-6-6v-28z"/><use x="3.117" y="260" transform="translate(504.444 -30.222)" xlink:href="#c"/><path fill="#d7faf5" stroke="#3a414a" d="M463.117 266a6 6 0 0 1 6-6h88a6 6 0 0 1 6 6v28a6 6 0 0 1-6 6h-88a6 6 0 0 1-6-6v-28z"/><use x="3.117" y="260" transform="translate(504.444 29.778)" xlink:href="#b"/><path fill="none" d="M443.117 20h141.98v36.67h-141.98V20z"/><use x="3.117" y="260" transform="translate(445.012 -215.535)" xlink:href="#h"/><path fill="none" d="M303.117 20h136.73v36.67h-136.73V20z"/><use x="3.117" y="260" transform="translate(308.809 -215.535)" xlink:href="#i"/><path fill="none" d="M783.117 20h177.72v36.67h-177.72V20z"/><use x="3.117" y="260" transform="translate(785.142 -215.535)" xlink:href="#j"/><path fill="none" d="M583.117 23.33h228.95V60h-228.95V23.33z"/><use x="3.117" y="260" transform="translate(652.802 -212.201)" xlink:href="#k"/><path fill="#d7faf5" stroke="#3a414a" d="M643.117 146a6 6 0 0 1 6-6h88a6 6 0 0 1 6 6v28a6 6 0 0 1-6 6h-88a6 6 0 0 1-6-6v-28z"/><use x="3.117" y="260" transform="translate(678.889 -90.222)" xlink:href="#l"/><path fill="#d7faf5" stroke="#3a414a" d="M643.117 266a6 6 0 0 1 6-6h88a6 6 0 0 1 6 6v28a6 6 0 0 1-6 6h-88a6 6 0 0 1-6-6v-28z"/><use x="3.117" y="260" transform="translate(678.889 29.778)" xlink:href="#m"/><path fill="#d7faf5" stroke="#3a414a" d="M643.117 206a6 6 0 0 1 6-6h88a6 6 0 0 1 6 6v28a6 6 0 0 1-6 6h-88a6 6 0 0 1-6-6v-28z"/><use x="3.117" y="260" transform="translate(678.889 -30.222)" xlink:href="#n"/><path fill="#d7faf5" stroke="#3a414a" d="M643.117 86a6 6 0 0 1 6-6h88a6 6 0 0 1 6 6v28a6 6 0 0 1-6 6h-88a6 6 0 0 1-6-6V86z"/><use x="3.117" y="260" transform="translate(684.444 -150.222)" xlink:href="#a"/><path fill="#d7faf5" stroke="#3a414a" d="M806.267 146a6 6 0 0 1 6-6h88a6 6 0 0 1 6 6v28a6 6 0 0 1-6 6h-88a6 6 0 0 1-6-6v-28z"/><use x="3.117" y="260" transform="translate(847.594 -90.222)" xlink:href="#c"/><path fill="#d7faf5" stroke="#3a414a" d="M806.267 206a6 6 0 0 1 6-6h88a6 6 0 0 1 6 6v28a6 6 0 0 1-6 6h-88a6 6 0 0 1-6-6v-28z"/><use x="3.117" y="260" transform="translate(847.594 -30.222)" xlink:href="#a"/><path fill="#d7faf5" stroke="#3a414a" d="M806.267 266a6 6 0 0 1 6-6h88a6 6 0 0 1 6 6v28a6 6 0 0 1-6 6h-88a6 6 0 0 1-6-6v-28z"/><use x="3.117" y="260" transform="translate(842.038 29.778)" xlink:href="#o"/><path fill="#d7faf5" stroke="#3a414a" d="M806.267 84.33a6 6 0 0 1 6-6h88a6 6 0 0 1 6 6v28a6 6 0 0 1-6 6h-88a6 6 0 0 1-6-6v-28z"/><use x="3.117" y="260" transform="translate(847.594 -151.889)" xlink:href="#p"/><path fill="none" d="M19.997 353.33h543.12v63.34H19.997v-63.34z"/><use x="3.117" y="260" transform="translate(52.463 129.611)" xlink:href="#q"/><use x="3.117" y="260" transform="translate(258.945 129.611)" xlink:href="#r"/><use x="3.117" y="260" transform="translate(277.031 129.611)" xlink:href="#s"/><use x="3.117" y="260" transform="translate(327.031 129.611)" xlink:href="#r"/><use x="3.117" y="260" transform="translate(345.118 129.611)" xlink:href="#t"/><use x="3.117" y="260" transform="translate(384.006 129.611)" xlink:href="#u"/><use x="3.117" y="260" transform="translate(400.673 129.611)" xlink:href="#v"/><use x="3.117" y="260" transform="translate(450.673 129.611)" xlink:href="#w"/><use x="3.117" y="260" transform="translate(463.574 129.611)" xlink:href="#x"/><use x="3.117" y="260" transform="translate(491.352 129.611)" xlink:href="#y"/><use x="3.117" y="260" transform="translate(503.08 129.611)" xlink:href="#z"/><path fill="#fff" stroke="#3a414a" d="M214.957 465.33a6 6 0 0 1 6-6h468a6 6 0 0 1 6 6V750a6 6 0 0 1-6 6h-468a6 6 0 0 1-6-6V465.33z"/><path fill="#fff" stroke="#3a414a" d="M214.957 445.33a6 6 0 0 1 6-6h468a6 6 0 0 1 6 6v51.34a6 6 0 0 1-6 6h-468a6 6 0 0 1-6-6v-51.34z"/><use x="3.117" y="260" transform="translate(435.701 216.611)" xlink:href="#A"/><use x="3.117" y="260" transform="translate(485.701 216.611)" xlink:href="#u"/><use x="3.117" y="260" transform="translate(502.367 216.611)" xlink:href="#B"/><path fill="none" d="M63.117 422.67h136.73v36.66H63.117v-36.66z"/><use x="3.117" y="260" transform="translate(122.944 187.132)" xlink:href="#p"/><path fill="none" d="M63.117 486.33h136.73V523H63.117v-36.67z"/><use x="3.117" y="260" transform="translate(100.722 250.799)" xlink:href="#C"/><path fill="#fff" stroke="#3a414a" d="M214.957 508.67a6 6 0 0 1 6-6h468a6 6 0 0 1 6 6V560a6 6 0 0 1-6 6h-468a6 6 0 0 1-6-6v-51.33z"/><use x="3.117" y="260" transform="translate(463.54 279.944)" xlink:href="#A"/><use x="3.117" y="260" transform="translate(513.54 279.944)" xlink:href="#u"/><use x="3.117" y="260" transform="translate(530.207 279.944)" xlink:href="#D"/><path fill="none" d="M63.117 550h136.73v36.67H63.117V550z"/><use x="3.117" y="260" transform="translate(100.722 314.465)" xlink:href="#E"/><path fill="#fff" stroke="#3a414a" d="M214.957 572a6 6 0 0 1 6-6h468a6 6 0 0 1 6 6v51.33a6 6 0 0 1-6 6h-468a6 6 0 0 1-6-6V572z"/><use x="3.117" y="260" transform="translate(393.602 343.278)" xlink:href="#A"/><use x="3.117" y="260" transform="translate(443.602 343.278)" xlink:href="#u"/><use x="3.117" y="260" transform="translate(460.269 343.278)" xlink:href="#F"/><path fill="#fff" stroke="#3a414a" d="M214.957 635.33a6 6 0 0 1 6-6h468a6 6 0 0 1 6 6v51.34a6 6 0 0 1-6 6h-468a6 6 0 0 1-6-6v-51.34z"/><use x="3.117" y="260" transform="translate(424.651 406.611)" xlink:href="#A"/><use x="3.117" y="260" transform="translate(474.651 406.611)" xlink:href="#u"/><use x="3.117" y="260" transform="translate(491.318 406.611)" xlink:href="#G"/><path fill="none" d="M673.237 578.67h240v36.66h-240v-36.66z"/><use x="3.117" y="260" transform="translate(711.636 343.132)" xlink:href="#H"/><use x="3.117" y="260" transform="translate(772.747 343.132)" xlink:href="#r"/><use x="3.117" y="260" transform="translate(790.833 343.132)" xlink:href="#s"/><use x="3.117" y="260" transform="translate(840.833 343.132)" xlink:href="#u"/><use x="3.117" y="260" transform="translate(857.5 343.132)" xlink:href="#I"/><path fill="none" d="M673.237 459.33h240V496h-240v-36.67z"/><use x="3.117" y="260" transform="translate(711.636 223.799)" xlink:href="#J"/><use x="3.117" y="260" transform="translate(772.747 223.799)" xlink:href="#r"/><use x="3.117" y="260" transform="translate(790.833 223.799)" xlink:href="#s"/><use x="3.117" y="260" transform="translate(840.833 223.799)" xlink:href="#u"/><use x="3.117" y="260" transform="translate(857.5 223.799)" xlink:href="#K"/><path fill="none" d="M63.117 613.67h136.73v36.66H63.117v-36.66z"/><use x="3.117" y="260" transform="translate(95.568 378.132)" xlink:href="#L"/><path fill="none" d="M673.237 519h240v36.67h-240V519z"/><use x="3.117" y="260" transform="translate(711.636 283.465)" xlink:href="#J"/><use x="3.117" y="260" transform="translate(772.747 283.465)" xlink:href="#r"/><use x="3.117" y="260" transform="translate(790.833 283.465)" xlink:href="#s"/><use x="3.117" y="260" transform="translate(840.833 283.465)" xlink:href="#u"/><use x="3.117" y="260" transform="translate(857.5 283.465)" xlink:href="#K"/><path fill="none" d="M673.237 638.33h240V675h-240v-36.67z"/><use x="3.117" y="260" transform="translate(712.037 402.799)" xlink:href="#M"/><use x="3.117" y="260" transform="translate(772.346 402.799)" xlink:href="#r"/><use x="3.117" y="260" transform="translate(790.432 402.799)" xlink:href="#s"/><use x="3.117" y="260" transform="translate(840.432 402.799)" xlink:href="#u"/><use x="3.117" y="260" transform="translate(857.099 402.799)" xlink:href="#N"/><path fill="#fff" stroke="#3a414a" d="M443.117 698.67a6 6 0 0 1 6-6h239.84a6 6 0 0 1 6 6V750a6 6 0 0 1-6 6h-239.84a6 6 0 0 1-6-6v-51.33z"/><use x="3.117" y="260" transform="translate(614.012 469.944)" xlink:href="#O"/><use x="3.117" y="260" transform="translate(641.79 469.944)" xlink:href="#P"/><path fill="none" d="M63.117 677.33h136.73V714H63.117v-36.67z"/><use x="3.117" y="260" transform="translate(95.167 441.799)" xlink:href="#Q"/><path fill="none" d="M63.117 740h136.73v36.67H63.117V740z"/><use x="3.117" y="260" transform="translate(95.167 504.465)" xlink:href="#R"/><path fill="#fff" stroke="#3a414a" d="M214.957 698.67a6 6 0 0 1 6-6h216.16a6 6 0 0 1 6 6V750a6 6 0 0 1-6 6h-216.16a6 6 0 0 1-6-6v-51.33z"/><use x="3.117" y="260" transform="translate(373.96 469.944)" xlink:href="#S"/><use x="3.117" y="260" transform="translate(390.627 469.944)" xlink:href="#P"/><path fill="#fff" stroke="#3a414a" d="M214.957 445.33a6 6 0 0 1 6-6h176.16a6 6 0 0 1 6 6V464a6 6 0 0 1-6 6h-176.16a6 6 0 0 1-6-6v-18.67z"/><use x="3.117" y="260" transform="translate(237.373 203.778)" xlink:href="#T"/><use x="3.117" y="260" transform="translate(288.275 203.778)" xlink:href="#U"/><path fill="none" stroke-width=".5" stroke="#3a414a" d="M283.617 439.58a.25.25 0 0 1 .25.25v29.67a.25.25 0 0 1-.25.25.25.25 0 0 1-.25-.25v-29.67a.25.25 0 0 1 .25-.25z"/><defs transform="translate(3.117 260)"><path id="V" d="M90-239c42 0 69 19 69 61 0 28-14 44-35 53 25 8 42 28 42 61 0 47-28 68-77 68-48 0-75-21-75-68-1-33 18-51 41-61-19-9-34-25-34-53 0-42 26-61 69-61zM89-10c34 0 46-20 46-54 0-32-11-53-46-53-34 0-44 20-44 53-1 34 11 54 44 54zm0-123c28 0 38-16 38-45s-9-47-38-47c-28-1-36 18-36 47s8 45 36 45" fill="#3a414a"/><path id="W" d="M24-231c66-21 156 2 128 81C132-92 78-66 39-27h121V0H16v-26l59-54c26-25 47-47 47-97 0-48-47-57-81-37l-6 29H24v-46" fill="#3a414a"/><path id="X" d="M142-52V0h-30v-52H7v-23l115-162h20v160h32v25h-32zm-30-25-1-119L27-77h85" fill="#3a414a"/><path id="Y" d="M75-106v92l39 5v9H13v-9l28-5v-208l-31-4v-10h177v57h-11l-6-38c-28-4-63-3-95-3v98h69l5-28h11v73h-11l-5-29H75" fill="#3a414a"/><path id="Z" d="M319-222 242 5h-10l-61-162L108 5h-9L21-222l-21-4v-10h90v10l-34 4 56 166 63-163h8l61 163 54-166-37-4v-10h78v10" fill="#3a414a"/><path id="aa" d="M32-163c41-10 102-14 102 39v112c8 3 24-2 21 12h-45l-4-17C83 13 3 13 13-46c-2-50 45-50 92-51 4-36-5-70-42-56-6 2-12 4-16 6-4 7 0 23-15 20v-36zM42-47c0 41 41 33 63 22v-59c-34 1-63-1-63 37" fill="#3a414a"/><path id="ab" d="M54-38c-1 25 24 26 44 20v12C71 10 25 9 25-35v-115H4c-2-14 14-10 21-15l18-38h11v38h38v15H54v112" fill="#3a414a"/><path id="ac" d="M84-170c49 0 66 33 63 87H46c-8 60 38 80 95 63v10C128-2 108 4 88 4 34 4 14-29 14-84c-1-54 22-86 70-86zm33 73c12-57-57-82-69-24-1 7-2 15-2 24h71" fill="#3a414a"/><path id="ad" d="M57-145c16-10 35-24 60-25v45c-19 1-8-30-40-17l-20 6v124l29 4v8H7v-8l21-4v-141c-8-3-24 2-21-12h48" fill="#3a414a"/><path id="ae" d="M141-152c28 39 5 97-54 97-9 0-20-2-27-3L49-35c29 22 130-14 124 52-4 45-38 57-88 61C21 83-8 26 45-2 33-6 22-15 21-31l28-31c-19-9-28-26-28-51-2-51 53-65 100-52l38-20 7 8-25 25zM85 64c35 0 61-11 61-42 0-35-57-17-89-21-9 8-16 19-17 34 0 25 19 29 45 29zM52-113c1 26 7 46 35 44 28-1 34-16 35-44 0-26-6-43-34-43s-36 17-36 43" fill="#3a414a"/><path id="af" d="M126-118c4-37-42-32-68-25v131l24 4v8H8C5-13 21-9 28-12v-141c-7-3-23 1-20-12h48l1 13c22-15 77-30 92 2 32-22 104-36 104 29v109c8 3 24-2 21 12h-75v-8l25-4v-106c3-39-45-31-72-24 7 37 1 88 3 130l25 4v8h-78v-8l24-4v-106" fill="#3a414a"/><path id="ag" d="M125-118c4-37-41-34-68-26v132l23 4v8H8C5-13 21-9 28-12v-141c-7-3-23 1-20-12h47l2 13c31-23 98-29 98 31v109c7 3 23-1 20 12h-72v-8l22-4v-106" fill="#3a414a"/><path id="ah" d="M10 0v-9l31-5v-208l-31-4v-10h95v10l-30 4v93h110v-93l-30-4v-10h94v10l-30 4v208l30 5v9h-94v-9l30-5v-99H75v99l30 5v9H10" fill="#3a414a"/><path id="ai" d="M164-154 98 4H85L17-153c-7-3-20 0-17-12h77v8l-26 4L99-38l46-115-26-4v-8h61v8" fill="#3a414a"/><path id="aj" d="M41-130c7 48 86 23 86 84 0 56-69 57-112 41v-40c20 0 9 29 31 31 35 19 77-26 41-50-27-18-72-13-72-59 0-50 58-52 100-41v36c-19 1-8-25-28-25-21-7-50-1-46 23" fill="#3a414a"/><path id="ak" d="M55 0v-9l38-5v-207c-22 1-53 0-70 4l-5 37H7v-56h207v56h-12l-5-37-70-3v206l37 5v9H55" fill="#3a414a"/><path id="al" d="M47-200c-23 0-25-39 0-38 13 0 18 7 20 19-1 11-8 19-20 19zM65-12l28 4v8H8v-8l28-4v-141l-24-4v-8h53v153" fill="#3a414a"/><path id="am" d="M52-115c0 93 80 130 150 87l7-35h11l-1 55c-23 7-52 12-83 12C60 4 19-37 15-115c-5-113 97-141 201-114l1 51h-12l-5-30c-15-9-39-16-62-16-66 0-86 41-86 109" fill="#3a414a"/><path id="an" d="M90-170c52 0 76 32 76 87 0 54-24 87-77 87-51 0-75-34-75-87 0-54 24-87 76-87zM89-10c39 0 46-35 46-73 0-39-7-73-46-73-39 1-44 34-44 73s6 72 44 73" fill="#3a414a"/><path id="ao" d="M166-85c3 67-44 102-111 85l1 64 29 4v9H6v-9l21-4v-217c-7-3-22 1-19-12h46l1 9c11-8 26-14 45-14 47 2 64 36 66 85zM56-13c53 14 83-14 78-72 7-53-33-79-78-60v132" fill="#3a414a"/><path id="ap" d="M152 0h-7L59-203v189l32 5v9H10v-9l31-5v-208l-31-4v-10h72l76 180 84-180h68v10l-31 4v208l31 5v9h-96v-9l32-5v-189" fill="#3a414a"/><path id="aq" d="m10-9 31-5v-208l-31-4v-10h177v57h-11l-6-38c-28-4-63-3-95-3v92h63l6-28h11v73h-11l-6-29H75v96l105-3 10-43h12l-3 62H10v-9" fill="#3a414a"/><path id="ar" d="M161-154 85 37C75 66 49 86 8 75V39c18-2 6 24 29 21 30-4 38-32 47-58L21-153c-7-3-20 0-17-12h77v8l-26 4 45 116 43-116-26-4v-8h62v8" fill="#3a414a"/><path id="as" d="M13-81c0-71 46-101 114-85l-1-72-28-4v-8h57v238c8 3 24-2 21 12h-47l-2-12C80 23 13-1 13-81zm77-74c-37 1-44 33-45 74 0 38 9 66 45 66 14 0 27-3 36-7v-130c-10-1-24-3-36-3" fill="#3a414a"/><path id="at" d="m65-12 28 4v8H7v-8l28-4v-226l-28-4v-8h58v238" fill="#3a414a"/><path id="au" d="M81-9v9H4v-9l26-5 81-224h33l83 224 30 5v9h-99v-9l31-5-23-68H73L49-14l32 5zm38-203L78-98h82" fill="#3a414a"/><path id="av" d="M178-68c0 79-95 82-154 59v-54h12c1 35 22 52 60 52 50 0 69-58 33-82-39-24-105-21-105-85 0-67 86-66 142-53v49h-12l-6-29c-31-27-121-7-89 42 28 43 119 24 119 101" fill="#3a414a"/><path id="aw" d="M124-13C89 8 26 15 26-45v-108c-8-3-24 2-21-12h50v118c-3 37 42 32 69 25v-131l-25-4v-8h54v153c8 3 24-2 21 12h-48" fill="#3a414a"/><path id="ax" d="M45-84c0 64 52 80 104 63 1 25-30 25-55 25-56 0-80-32-80-88 0-76 62-98 131-80v46h-10c-5-15-4-31-23-35-47-10-67 21-67 69" fill="#3a414a"/><path id="ay" d="M10 0v-8l90-143c-23 2-54-4-70 6-5 8 1 26-14 24v-44h122v8L47-14c29-2 65 3 86-8l9-35h8l-5 57H10" fill="#3a414a"/><path id="az" d="M75-108c48 3 76-12 76-58s-28-57-76-54v112zm111-58c-1 60-46 78-111 74v78l37 5v9H13v-9l28-5v-208l-31-4v-10c81 1 178-14 176 70" fill="#3a414a"/><path id="aA" d="m110-14 48 5v9H32v-9l48-5v-192l-48 17v-10l69-39h9v224" fill="#3a414a"/><path id="aB" d="M48-126c45-28 121-18 121 53 0 50-25 77-72 77-63 0-80-54-82-120-3-88 52-142 140-116v40h-12c2-42-66-39-79-8-8 20-16 43-16 74zm0 11c2 50 2 105 49 105 33 0 37-26 40-60 5-60-49-61-89-45" fill="#3a414a"/><path id="aC" d="M90-239c59 0 76 52 76 120S152 4 89 4C31 4 14-51 14-119c0-67 17-120 76-120zM89-10c45-6 45-58 45-109 0-50 0-101-45-106-45 4-43 57-43 106 0 50-2 104 43 109" fill="#3a414a"/><path id="aD" d="m203-222-32-4v-10h81v10l-31 4V0h-17L59-212v198l32 5v9H10v-9l31-5v-208l-31-4v-10h72L203-61v-161" fill="#3a414a"/><path id="aE" d="M126-119c3-38-42-31-69-25v132l23 4v8H7v-8l21-4v-226l-24-4v-8h53l-1 98c31-22 99-31 99 31v109c7 3 23-1 20 12h-71v-8l22-4v-107" fill="#3a414a"/><path id="aF" d="m60-80 68-73c-7-3-20 0-17-12h58c3 13-13 9-20 12l-47 48 60 93c7 3 21-1 18 12h-68c-3-12 9-9 15-12L82-83 60-60v48c7 3 21-1 18 12H10v-8l21-4v-226l-24-4v-8h53v170" fill="#3a414a"/><path id="aG" d="M185-92v17H18v-17h167zm0-73v18H18v-18h167" fill="#3a414a"/><path id="aH" d="M134-68c4-52-44-63-88-51H29v-117h119v27H45v75c60-10 121-2 121 64C166 3 87 15 23-4l-2-50h12c1 28 14 43 47 43 39 0 51-20 54-57" fill="#3a414a"/><path id="aI" d="M133-108C87-80 6-93 12-164c4-49 26-74 76-74 64 1 77 52 77 120C165-26 111 22 21-2v-41h11C28-1 99-4 114-33c10-20 17-43 19-75zm0-12c-3-48 0-104-45-104-34 0-44 25-44 61 0 32 10 52 43 52 17 0 33-4 46-9" fill="#3a414a"/><path id="aJ" d="M35-180H24v-56h146v14L65 0H42l103-209H41" fill="#3a414a"/><path id="aK" d="m18-187 11-25 55 34-7-58h27l-8 58 56-34 11 25-59 17 59 17-11 25-56-33 8 57H77l7-57-55 34-11-25 57-18" fill="#3a414a"/><path id="aL" d="M13-71v-27h94v27H13" fill="#3a414a"/><path id="aM" d="M18 4H0l83-241h17" fill="#3a414a"/><path id="aN" d="M104-123c39 3 61 21 62 59C167 7 83 12 19-4l-2-50h12c2 29 16 43 51 43 38 0 54-19 54-55 2-43-34-49-75-50v-14c37 0 64-7 64-48 0-47-47-56-81-36l-6 29H24v-46c51-13 135-13 131 51-2 34-20 52-51 57" fill="#3a414a"/><path id="aO" d="M53-14c58 12 82-15 82-73 0-52-35-77-82-58v131zM89 4C64 4 42-2 24-9v-229l-24-4v-8h53l-1 94c48-33 114-4 114 69 0 57-23 91-77 91" fill="#3a414a"/><path id="aP" d="m77-14 30 5v9H13v-9l30-5v-208l-30-4v-10h94v10l-30 4v208" fill="#3a414a"/><path id="aQ" d="M156-12c7 3 23-1 20 12h-75v-8l22-4-38-58-45 58 23 4v8H3v-8l19-3 55-71-48-71c-7-3-23 1-20-12h75v8l-22 4 32 48 37-48-23-4v-8h59v8l-19 3-46 60" fill="#3a414a"/><g id="d"><use xlink:href="#Y" transform="rotate(.413) scale(.06173)"/><use xlink:href="#Z" transform="matrix(.06173 0 0 .06173 12.346 0)"/><use xlink:href="#aa" transform="matrix(.06173 0 0 .06173 31.481 0)"/><use xlink:href="#ab" transform="matrix(.06173 0 0 .06173 41.296 0)"/><use xlink:href="#ac" transform="matrix(.06173 0 0 .06173 47.47 0)"/><use xlink:href="#ad" transform="matrix(.06173 0 0 .06173 57.284 0)"/><use xlink:href="#Y" transform="matrix(.06173 0 0 .06173 64.63 0)"/><use xlink:href="#ad" transform="matrix(.06173 0 0 .06173 76.975 0)"/><use xlink:href="#aa" transform="matrix(.06173 0 0 .06173 84.321 0)"/><use xlink:href="#ae" transform="matrix(.06173 0 0 .06173 94.136 0)"/><use xlink:href="#af" transform="matrix(.06173 0 0 .06173 105.247 0)"/><use xlink:href="#ac" transform="matrix(.06173 0 0 .06173 122.53 0)"/><use xlink:href="#ag" transform="matrix(.06173 0 0 .06173 132.346 0)"/><use xlink:href="#ab" transform="matrix(.06173 0 0 .06173 143.457 0)"/></g><g id="e"><use xlink:href="#Y" transform="rotate(.413) scale(.06173)"/><use xlink:href="#ah" transform="matrix(.06173 0 0 .06173 12.346 0)"/><use xlink:href="#aa" transform="matrix(.06173 0 0 .06173 28.333 0)"/><use xlink:href="#ad" transform="matrix(.06173 0 0 .06173 38.148 0)"/><use xlink:href="#ai" transform="matrix(.06173 0 0 .06173 45.494 0)"/><use xlink:href="#ac" transform="matrix(.06173 0 0 .06173 56.605 0)"/><use xlink:href="#aj" transform="matrix(.06173 0 0 .06173 66.42 0)"/><use xlink:href="#ab" transform="matrix(.06173 0 0 .06173 75.062 0)"/><use xlink:href="#ak" transform="matrix(.06173 0 0 .06173 81.235 0)"/><use xlink:href="#al" transform="matrix(.06173 0 0 .06173 93.95 0)"/><use xlink:href="#af" transform="matrix(.06173 0 0 .06173 100.123 0)"/><use xlink:href="#ac" transform="matrix(.06173 0 0 .06173 117.407 0)"/><use xlink:href="#ad" transform="matrix(.06173 0 0 .06173 127.222 0)"/><use xlink:href="#Y" transform="matrix(.06173 0 0 .06173 134.568 0)"/><use xlink:href="#ad" transform="matrix(.06173 0 0 .06173 146.914 0)"/><use xlink:href="#aa" transform="matrix(.06173 0 0 .06173 154.26 0)"/><use xlink:href="#ae" transform="matrix(.06173 0 0 .06173 164.074 0)"/><use xlink:href="#af" transform="matrix(.06173 0 0 .06173 175.185 0)"/><use xlink:href="#ac" transform="matrix(.06173 0 0 .06173 192.47 0)"/><use xlink:href="#ag" transform="matrix(.06173 0 0 .06173 202.284 0)"/><use xlink:href="#ab" transform="matrix(.06173 0 0 .06173 213.395 0)"/></g><g id="f"><use xlink:href="#Y" transform="rotate(.413) scale(.06173)"/><use xlink:href="#Y" transform="matrix(.06173 0 0 .06173 12.346 0)"/><use xlink:href="#aa" transform="matrix(.06173 0 0 .06173 24.691 0)"/><use xlink:href="#ad" transform="matrix(.06173 0 0 .06173 34.506 0)"/><use xlink:href="#af" transform="matrix(.06173 0 0 .06173 41.852 0)"/><use xlink:href="#am" transform="matrix(.06173 0 0 .06173 59.136 0)"/><use xlink:href="#ad" transform="matrix(.06173 0 0 .06173 73.95 0)"/><use xlink:href="#an" transform="matrix(.06173 0 0 .06173 81.296 0)"/><use xlink:href="#ao" transform="matrix(.06173 0 0 .06173 92.407 0)"/><use xlink:href="#Y" transform="matrix(.06173 0 0 .06173 103.519 0)"/><use xlink:href="#ad" transform="matrix(.06173 0 0 .06173 115.864 0)"/><use xlink:href="#aa" transform="matrix(.06173 0 0 .06173 123.21 0)"/><use xlink:href="#ae" transform="matrix(.06173 0 0 .06173 133.025 0)"/><use xlink:href="#af" transform="matrix(.06173 0 0 .06173 144.136 0)"/><use xlink:href="#ac" transform="matrix(.06173 0 0 .06173 161.42 0)"/><use xlink:href="#ag" transform="matrix(.06173 0 0 .06173 171.235 0)"/><use xlink:href="#ab" transform="matrix(.06173 0 0 .06173 182.346 0)"/></g><g id="g"><use xlink:href="#Y" transform="rotate(.413) scale(.06173)"/><use xlink:href="#ap" transform="matrix(.06173 0 0 .06173 12.346 0)"/><use xlink:href="#aa" transform="matrix(.06173 0 0 .06173 32.099 0)"/><use xlink:href="#aj" transform="matrix(.06173 0 0 .06173 41.914 0)"/><use xlink:href="#aj" transform="matrix(.06173 0 0 .06173 50.556 0)"/><use xlink:href="#aq" transform="matrix(.06173 0 0 .06173 59.198 0)"/><use xlink:href="#ag" transform="matrix(.06173 0 0 .06173 72.716 0)"/><use xlink:href="#ab" transform="matrix(.06173 0 0 .06173 83.827 0)"/><use xlink:href="#al" transform="matrix(.06173 0 0 .06173 90 0)"/><use xlink:href="#ab" transform="matrix(.06173 0 0 .06173 96.173 0)"/><use xlink:href="#ar" transform="matrix(.06173 0 0 .06173 102.346 0)"/><use xlink:href="#ah" transform="matrix(.06173 0 0 .06173 113.457 0)"/><use xlink:href="#aa" transform="matrix(.06173 0 0 .06173 129.444 0)"/><use xlink:href="#ag" transform="matrix(.06173 0 0 .06173 139.26 0)"/><use xlink:href="#as" transform="matrix(.06173 0 0 .06173 150.37 0)"/><use xlink:href="#at" transform="matrix(.06173 0 0 .06173 161.481 0)"/><use xlink:href="#ac" transform="matrix(.06173 0 0 .06173 167.654 0)"/></g><g id="h"><use xlink:href="#ap" transform="rotate(.413) scale(.06173)"/><use xlink:href="#al" transform="matrix(.06173 0 0 .06173 19.753 0)"/><use xlink:href="#ag" transform="matrix(.06173 0 0 .06173 25.926 0)"/><use xlink:href="#au" transform="matrix(.06173 0 0 .06173 37.037 0)"/><use xlink:href="#at" transform="matrix(.06173 0 0 .06173 53.025 0)"/><use xlink:href="#al" transform="matrix(.06173 0 0 .06173 59.198 0)"/><use xlink:href="#ae" transform="matrix(.06173 0 0 .06173 65.37 0)"/><use xlink:href="#ag" transform="matrix(.06173 0 0 .06173 76.481 0)"/><use xlink:href="#af" transform="matrix(.06173 0 0 .06173 87.593 0)"/><use xlink:href="#ac" transform="matrix(.06173 0 0 .06173 104.877 0)"/><use xlink:href="#ag" transform="matrix(.06173 0 0 .06173 114.691 0)"/><use xlink:href="#ab" transform="matrix(.06173 0 0 .06173 125.802 0)"/></g><g id="i"><use xlink:href="#av" transform="rotate(.413) scale(.06173)"/><use xlink:href="#ab" transform="matrix(.06173 0 0 .06173 12.346 0)"/><use xlink:href="#ad" transform="matrix(.06173 0 0 .06173 18.519 0)"/><use xlink:href="#aw" transform="matrix(.06173 0 0 .06173 25.864 0)"/><use xlink:href="#ax" transform="matrix(.06173 0 0 .06173 36.975 0)"/><use xlink:href="#ab" transform="matrix(.06173 0 0 .06173 46.79 0)"/><use xlink:href="#aw" transform="matrix(.06173 0 0 .06173 52.963 0)"/><use xlink:href="#ad" transform="matrix(.06173 0 0 .06173 64.074 0)"/><use xlink:href="#ac" transform="matrix(.06173 0 0 .06173 71.42 0)"/><use xlink:href="#av" transform="matrix(.06173 0 0 .06173 81.235 0)"/><use xlink:href="#al" transform="matrix(.06173 0 0 .06173 93.58 0)"/><use xlink:href="#ay" transform="matrix(.06173 0 0 .06173 99.753 0)"/><use xlink:href="#ac" transform="matrix(.06173 0 0 .06173 109.568 0)"/></g><g id="j"><use xlink:href="#au" transform="rotate(.413) scale(.06173)"/><use xlink:href="#at" transform="matrix(.06173 0 0 .06173 15.988 0)"/><use xlink:href="#al" transform="matrix(.06173 0 0 .06173 22.16 0)"/><use xlink:href="#ae" transform="matrix(.06173 0 0 .06173 28.333 0)"/><use xlink:href="#ag" transform="matrix(.06173 0 0 .06173 39.444 0)"/><use xlink:href="#af" transform="matrix(.06173 0 0 .06173 50.556 0)"/><use xlink:href="#ac" transform="matrix(.06173 0 0 .06173 67.84 0)"/><use xlink:href="#ag" transform="matrix(.06173 0 0 .06173 77.654 0)"/><use xlink:href="#ab" transform="matrix(.06173 0 0 .06173 88.765 0)"/><use xlink:href="#az" transform="matrix(.06173 0 0 .06173 94.938 0)"/><use xlink:href="#aa" transform="matrix(.06173 0 0 .06173 107.284 0)"/><use xlink:href="#as" transform="matrix(.06173 0 0 .06173 117.099 0)"/><use xlink:href="#as" transform="matrix(.06173 0 0 .06173 128.21 0)"/><use xlink:href="#al" transform="matrix(.06173 0 0 .06173 139.321 0)"/><use xlink:href="#ag" transform="matrix(.06173 0 0 .06173 145.494 0)"/><use xlink:href="#ae" transform="matrix(.06173 0 0 .06173 156.605 0)"/></g><g id="k"><use xlink:href="#ak" transform="rotate(.413) scale(.06173)"/><use xlink:href="#an" transform="matrix(.06173 0 0 .06173 11.975 0)"/><use xlink:href="#ab" transform="matrix(.06173 0 0 .06173 23.086 0)"/><use xlink:href="#aa" transform="matrix(.06173 0 0 .06173 29.26 0)"/><use xlink:href="#at" transform="matrix(.06173 0 0 .06173 39.074 0)"/><use xlink:href="#av" transform="matrix(.06173 0 0 .06173 45.247 0)"/><use xlink:href="#al" transform="matrix(.06173 0 0 .06173 57.593 0)"/><use xlink:href="#ay" transform="matrix(.06173 0 0 .06173 63.765 0)"/><use xlink:href="#ac" transform="matrix(.06173 0 0 .06173 73.58 0)"/></g><g id="l"><use xlink:href="#aA" transform="rotate(.413) scale(.06173)"/><use xlink:href="#aB" transform="matrix(.06173 0 0 .06173 11.111 0)"/></g><g id="m"><use xlink:href="#W" transform="rotate(.413) scale(.06173)"/><use xlink:href="#W" transform="matrix(.06173 0 0 .06173 11.111 0)"/></g><g id="n"><use xlink:href="#W" transform="rotate(.413) scale(.06173)"/><use xlink:href="#aC" transform="matrix(.06173 0 0 .06173 11.111 0)"/></g><g id="o"><use xlink:href="#aA" transform="rotate(.413) scale(.06173)"/><use xlink:href="#aC" transform="matrix(.06173 0 0 .06173 11.111 0)"/></g><g id="q"><use xlink:href="#aD" transform="rotate(.413) scale(.06173)"/><use xlink:href="#aw" transform="matrix(.06173 0 0 .06173 15.988 0)"/><use xlink:href="#af" transform="matrix(.06173 0 0 .06173 27.099 0)"/><use xlink:href="#aq" transform="matrix(.06173 0 0 .06173 44.383 0)"/><use xlink:href="#ag" transform="matrix(.06173 0 0 .06173 57.901 0)"/><use xlink:href="#ab" transform="matrix(.06173 0 0 .06173 69.012 0)"/><use xlink:href="#al" transform="matrix(.06173 0 0 .06173 75.185 0)"/><use xlink:href="#ab" transform="matrix(.06173 0 0 .06173 81.358 0)"/><use xlink:href="#al" transform="matrix(.06173 0 0 .06173 87.53 0)"/><use xlink:href="#ac" transform="matrix(.06173 0 0 .06173 93.704 0)"/><use xlink:href="#aj" transform="matrix(.06173 0 0 .06173 103.519 0)"/><use xlink:href="#az" transform="matrix(.06173 0 0 .06173 112.16 0)"/><use xlink:href="#ac" transform="matrix(.06173 0 0 .06173 124.506 0)"/><use xlink:href="#ad" transform="matrix(.06173 0 0 .06173 134.321 0)"/><use xlink:href="#am" transform="matrix(.06173 0 0 .06173 141.667 0)"/><use xlink:href="#aE" transform="matrix(.06173 0 0 .06173 156.481 0)"/><use xlink:href="#aw" transform="matrix(.06173 0 0 .06173 167.593 0)"/><use xlink:href="#ag" transform="matrix(.06173 0 0 .06173 178.704 0)"/><use xlink:href="#aF" transform="matrix(.06173 0 0 .06173 189.815 0)"/></g><g id="s"><use xlink:href="#aH" transform="rotate(.413) scale(.06173)"/><use xlink:href="#aI" transform="matrix(.06173 0 0 .06173 11.111 0)"/><use xlink:href="#aH" transform="matrix(.06173 0 0 .06173 22.222 0)"/><use xlink:href="#aJ" transform="matrix(.06173 0 0 .06173 33.333 0)"/></g><g id="t"><use xlink:href="#aA" transform="rotate(.413) scale(.06173)"/><use xlink:href="#W" transform="matrix(.06173 0 0 .06173 11.111 0)"/><use xlink:href="#V" transform="matrix(.06173 0 0 .06173 22.222 0)"/></g><g id="v"><use xlink:href="#aA" transform="rotate(.413) scale(.06173)"/><use xlink:href="#aC" transform="matrix(.06173 0 0 .06173 11.111 0)"/><use xlink:href="#W" transform="matrix(.06173 0 0 .06173 22.222 0)"/><use xlink:href="#X" transform="matrix(.06173 0 0 .06173 33.333 0)"/></g><g id="x"><use xlink:href="#aA" transform="rotate(.413) scale(.06173)"/><use xlink:href="#aC" transform="matrix(.06173 0 0 .06173 11.111 0)"/></g><g id="z"><use xlink:href="#W" transform="rotate(.413) scale(.06173)"/><use xlink:href="#W" transform="matrix(.06173 0 0 .06173 11.111 0)"/></g><g id="A"><use xlink:href="#aH" transform="rotate(.413) scale(.06173)"/><use xlink:href="#aI" transform="matrix(.06173 0 0 .06173 11.111 0)"/><use xlink:href="#aH" transform="matrix(.06173 0 0 .06173 22.222 0)"/><use xlink:href="#aJ" transform="matrix(.06173 0 0 .06173 33.333 0)"/></g><g id="B"><use xlink:href="#Y" transform="rotate(.413) scale(.06173)"/><use xlink:href="#ap" transform="matrix(.06173 0 0 .06173 12.346 0)"/><use xlink:href="#aa" transform="matrix(.06173 0 0 .06173 32.099 0)"/><use xlink:href="#aj" transform="matrix(.06173 0 0 .06173 41.914 0)"/><use xlink:href="#aj" transform="matrix(.06173 0 0 .06173 50.556 0)"/><use xlink:href="#aq" transform="matrix(.06173 0 0 .06173 59.198 0)"/><use xlink:href="#ag" transform="matrix(.06173 0 0 .06173 72.716 0)"/><use xlink:href="#ab" transform="matrix(.06173 0 0 .06173 83.827 0)"/><use xlink:href="#al" transform="matrix(.06173 0 0 .06173 90 0)"/><use xlink:href="#ab" transform="matrix(.06173 0 0 .06173 96.173 0)"/><use xlink:href="#ar" transform="matrix(.06173 0 0 .06173 102.346 0)"/><use xlink:href="#ah" transform="matrix(.06173 0 0 .06173 113.457 0)"/><use xlink:href="#aa" transform="matrix(.06173 0 0 .06173 129.444 0)"/><use xlink:href="#ag" transform="matrix(.06173 0 0 .06173 139.26 0)"/><use xlink:href="#as" transform="matrix(.06173 0 0 .06173 150.37 0)"/><use xlink:href="#at" transform="matrix(.06173 0 0 .06173 161.481 0)"/><use xlink:href="#ac" transform="matrix(.06173 0 0 .06173 167.654 0)"/></g><g id="C"><use xlink:href="#X" transform="rotate(.413) scale(.06173)"/><use xlink:href="#aJ" transform="matrix(.06173 0 0 .06173 11.111 0)"/><use xlink:href="#aB" transform="matrix(.06173 0 0 .06173 22.222 0)"/><use xlink:href="#aH" transform="matrix(.06173 0 0 .06173 33.333 0)"/><use xlink:href="#aB" transform="matrix(.06173 0 0 .06173 44.444 0)"/></g><g id="D"><use xlink:href="#Y" transform="rotate(.413) scale(.06173)"/><use xlink:href="#Z" transform="matrix(.06173 0 0 .06173 12.346 0)"/><use xlink:href="#aa" transform="matrix(.06173 0 0 .06173 31.481 0)"/><use xlink:href="#ab" transform="matrix(.06173 0 0 .06173 41.296 0)"/><use xlink:href="#ac" transform="matrix(.06173 0 0 .06173 47.47 0)"/><use xlink:href="#ad" transform="matrix(.06173 0 0 .06173 57.284 0)"/><use xlink:href="#Y" transform="matrix(.06173 0 0 .06173 64.63 0)"/><use xlink:href="#ad" transform="matrix(.06173 0 0 .06173 76.975 0)"/><use xlink:href="#aa" transform="matrix(.06173 0 0 .06173 84.321 0)"/><use xlink:href="#ae" transform="matrix(.06173 0 0 .06173 94.136 0)"/><use xlink:href="#af" transform="matrix(.06173 0 0 .06173 105.247 0)"/><use xlink:href="#ac" transform="matrix(.06173 0 0 .06173 122.53 0)"/><use xlink:href="#ag" transform="matrix(.06173 0 0 .06173 132.346 0)"/><use xlink:href="#ab" transform="matrix(.06173 0 0 .06173 143.457 0)"/></g><g id="E"><use xlink:href="#aI" transform="rotate(.413) scale(.06173)"/><use xlink:href="#aH" transform="matrix(.06173 0 0 .06173 11.111 0)"/><use xlink:href="#aN" transform="matrix(.06173 0 0 .06173 22.222 0)"/><use xlink:href="#aA" transform="matrix(.06173 0 0 .06173 33.333 0)"/><use xlink:href="#W" transform="matrix(.06173 0 0 .06173 44.444 0)"/></g><g id="F"><use xlink:href="#Y" transform="rotate(.413) scale(.06173)"/><use xlink:href="#ah" transform="matrix(.06173 0 0 .06173 12.346 0)"/><use xlink:href="#aa" transform="matrix(.06173 0 0 .06173 28.333 0)"/><use xlink:href="#ad" transform="matrix(.06173 0 0 .06173 38.148 0)"/><use xlink:href="#ai" transform="matrix(.06173 0 0 .06173 45.494 0)"/><use xlink:href="#ac" transform="matrix(.06173 0 0 .06173 56.605 0)"/><use xlink:href="#aj" transform="matrix(.06173 0 0 .06173 66.42 0)"/><use xlink:href="#ab" transform="matrix(.06173 0 0 .06173 75.062 0)"/><use xlink:href="#ak" transform="matrix(.06173 0 0 .06173 81.235 0)"/><use xlink:href="#al" transform="matrix(.06173 0 0 .06173 93.95 0)"/><use xlink:href="#af" transform="matrix(.06173 0 0 .06173 100.123 0)"/><use xlink:href="#ac" transform="matrix(.06173 0 0 .06173 117.407 0)"/><use xlink:href="#ad" transform="matrix(.06173 0 0 .06173 127.222 0)"/><use xlink:href="#Y" transform="matrix(.06173 0 0 .06173 134.568 0)"/><use xlink:href="#ad" transform="matrix(.06173 0 0 .06173 146.914 0)"/><use xlink:href="#aa" transform="matrix(.06173 0 0 .06173 154.26 0)"/><use xlink:href="#ae" transform="matrix(.06173 0 0 .06173 164.074 0)"/><use xlink:href="#af" transform="matrix(.06173 0 0 .06173 175.185 0)"/><use xlink:href="#ac" transform="matrix(.06173 0 0 .06173 192.47 0)"/><use xlink:href="#ag" transform="matrix(.06173 0 0 .06173 202.284 0)"/><use xlink:href="#ab" transform="matrix(.06173 0 0 .06173 213.395 0)"/></g><g id="G"><use xlink:href="#Y" transform="rotate(.413) scale(.06173)"/><use xlink:href="#Y" transform="matrix(.06173 0 0 .06173 12.346 0)"/><use xlink:href="#aa" transform="matrix(.06173 0 0 .06173 24.691 0)"/><use xlink:href="#ad" transform="matrix(.06173 0 0 .06173 34.506 0)"/><use xlink:href="#af" transform="matrix(.06173 0 0 .06173 41.852 0)"/><use xlink:href="#am" transform="matrix(.06173 0 0 .06173 59.136 0)"/><use xlink:href="#ad" transform="matrix(.06173 0 0 .06173 73.95 0)"/><use xlink:href="#an" transform="matrix(.06173 0 0 .06173 81.296 0)"/><use xlink:href="#ao" transform="matrix(.06173 0 0 .06173 92.407 0)"/><use xlink:href="#Y" transform="matrix(.06173 0 0 .06173 103.519 0)"/><use xlink:href="#ad" transform="matrix(.06173 0 0 .06173 115.864 0)"/><use xlink:href="#aa" transform="matrix(.06173 0 0 .06173 123.21 0)"/><use xlink:href="#ae" transform="matrix(.06173 0 0 .06173 133.025 0)"/><use xlink:href="#af" transform="matrix(.06173 0 0 .06173 144.136 0)"/><use xlink:href="#ac" transform="matrix(.06173 0 0 .06173 161.42 0)"/><use xlink:href="#ag" transform="matrix(.06173 0 0 .06173 171.235 0)"/><use xlink:href="#ab" transform="matrix(.06173 0 0 .06173 182.346 0)"/></g><g id="H"><use xlink:href="#W" transform="rotate(.413) scale(.06173)"/><use xlink:href="#aN" transform="matrix(.06173 0 0 .06173 11.111 0)"/><use xlink:href="#V" transform="matrix(.06173 0 0 .06173 22.222 0)"/><use xlink:href="#W" transform="matrix(.06173 0 0 .06173 33.333 0)"/><use xlink:href="#V" transform="matrix(.06173 0 0 .06173 44.444 0)"/></g><g id="J"><use xlink:href="#X" transform="rotate(.413) scale(.06173)"/><use xlink:href="#aJ" transform="matrix(.06173 0 0 .06173 11.111 0)"/><use xlink:href="#aB" transform="matrix(.06173 0 0 .06173 22.222 0)"/><use xlink:href="#aH" transform="matrix(.06173 0 0 .06173 33.333 0)"/><use xlink:href="#aB" transform="matrix(.06173 0 0 .06173 44.444 0)"/></g><g id="L"><use xlink:href="#aA" transform="rotate(.413) scale(.06173)"/><use xlink:href="#aA" transform="matrix(.06173 0 0 .06173 10.309 0)"/><use xlink:href="#aI" transform="matrix(.06173 0 0 .06173 21.42 0)"/><use xlink:href="#aA" transform="matrix(.06173 0 0 .06173 32.53 0)"/><use xlink:href="#X" transform="matrix(.06173 0 0 .06173 43.642 0)"/><use xlink:href="#aC" transform="matrix(.06173 0 0 .06173 54.753 0)"/></g><g id="M"><use xlink:href="#aA" transform="rotate(.413) scale(.06173)"/><use xlink:href="#aA" transform="matrix(.06173 0 0 .06173 10.309 0)"/><use xlink:href="#aI" transform="matrix(.06173 0 0 .06173 21.42 0)"/><use xlink:href="#aA" transform="matrix(.06173 0 0 .06173 32.53 0)"/><use xlink:href="#X" transform="matrix(.06173 0 0 .06173 43.642 0)"/></g><g id="O"><use xlink:href="#aA" transform="rotate(.413) scale(.06173)"/><use xlink:href="#aC" transform="matrix(.06173 0 0 .06173 11.111 0)"/></g><g id="P"><use xlink:href="#aO" transform="rotate(.413) scale(.06173)"/><use xlink:href="#ar" transform="matrix(.06173 0 0 .06173 11.111 0)"/><use xlink:href="#ab" transform="matrix(.06173 0 0 .06173 22.222 0)"/><use xlink:href="#ac" transform="matrix(.06173 0 0 .06173 28.395 0)"/></g><g id="Q"><use xlink:href="#aA" transform="rotate(.413) scale(.06173)"/><use xlink:href="#aN" transform="matrix(.06173 0 0 .06173 11.111 0)"/><use xlink:href="#aA" transform="matrix(.06173 0 0 .06173 22.222 0)"/><use xlink:href="#aC" transform="matrix(.06173 0 0 .06173 33.333 0)"/><use xlink:href="#aH" transform="matrix(.06173 0 0 .06173 44.444 0)"/><use xlink:href="#X" transform="matrix(.06173 0 0 .06173 55.556 0)"/></g><g id="R"><use xlink:href="#aA" transform="rotate(.413) scale(.06173)"/><use xlink:href="#aN" transform="matrix(.06173 0 0 .06173 11.111 0)"/><use xlink:href="#aA" transform="matrix(.06173 0 0 .06173 22.222 0)"/><use xlink:href="#aC" transform="matrix(.06173 0 0 .06173 33.333 0)"/><use xlink:href="#aJ" transform="matrix(.06173 0 0 .06173 44.444 0)"/><use xlink:href="#W" transform="matrix(.06173 0 0 .06173 55.556 0)"/></g><g id="T"><use xlink:href="#aP" transform="rotate(.137) scale(.04321)"/><use xlink:href="#ag" transform="matrix(.04321 0 0 .04321 5.142 0)"/><use xlink:href="#as" transform="matrix(.04321 0 0 .04321 12.92 0)"/><use xlink:href="#ac" transform="matrix(.04321 0 0 .04321 20.698 0)"/><use xlink:href="#aQ" transform="matrix(.04321 0 0 .04321 27.568 0)"/></g><g id="U"><use xlink:href="#av" transform="rotate(.137) scale(.04321)"/><use xlink:href="#ac" transform="matrix(.04321 0 0 .04321 8.642 0)"/><use xlink:href="#ad" transform="matrix(.04321 0 0 .04321 15.512 0)"/><use xlink:href="#al" transform="matrix(.04321 0 0 .04321 20.654 0)"/><use xlink:href="#aa" transform="matrix(.04321 0 0 .04321 24.975 0)"/><use xlink:href="#at" transform="matrix(.04321 0 0 .04321 31.846 0)"/><use xlink:href="#aD" transform="matrix(.04321 0 0 .04321 36.167 0)"/><use xlink:href="#aw" transform="matrix(.04321 0 0 .04321 47.358 0)"/><use xlink:href="#af" transform="matrix(.04321 0 0 .04321 55.136 0)"/><use xlink:href="#aO" transform="matrix(.04321 0 0 .04321 67.235 0)"/><use xlink:href="#ac" transform="matrix(.04321 0 0 .04321 75.012 0)"/><use xlink:href="#ad" transform="matrix(.04321 0 0 .04321 81.883 0)"/></g><use id="a" xlink:href="#V" transform="rotate(.413) scale(.06173)"/><use id="b" xlink:href="#W" transform="rotate(.413) scale(.06173)"/><use id="c" xlink:href="#X" transform="rotate(.413) scale(.06173)"/><use id="p" xlink:href="#aC" transform="rotate(.413) scale(.06173)"/><use id="r" xlink:href="#aG" transform="rotate(.413) scale(.06173)"/><use id="u" xlink:href="#aK" transform="rotate(.413) scale(.06173)"/><use id="w" xlink:href="#aL" transform="rotate(.413) scale(.06173)"/><use id="y" xlink:href="#aM" transform="rotate(.413) scale(.06173)"/><use id="I" xlink:href="#X" transform="rotate(.413) scale(.06173)"/><use id="K" xlink:href="#V" transform="rotate(.413) scale(.06173)"/><use id="N" xlink:href="#W" transform="rotate(.413) scale(.06173)"/><use id="S" xlink:href="#V" transform="rotate(.413) scale(.06173)"/></defs></svg>