<svg width="980.83" height="796.67" xmlns="http://www.w3.org/2000/svg" xmlns:undefined="lucid" xmlns:xlink="http://www.w3.org/1999/xlink">
 <g>
  <title>Layer 1</title>
  <rect id="svg_433" height="810" width="1002" y="-6.33499" x="-20.91501" opacity="NaN" stroke="#000" fill="#e2e2e2"/>
  <g id="svg_1" >
   <path id="svg_2" fill="#d7faf5" stroke="#3a414a" d="m324.65705,146a6,6 0 0 1 6,-6l88,0a6,6 0 0 1 6,6l0,28a6,6 0 0 1 -6,6l-88,0a6,6 0 0 1 -6,-6l0,-28z"/>
   <use id="svg_3" x="3.11705" y="260" transform="matrix(1 0 0 1 365.987 -90.2222)" xlink:href="#a"/>
   <path id="svg_4" fill="#d7faf5" stroke="#3a414a" d="m324.65705,266a6,6 0 0 1 6,-6l88,0a6,6 0 0 1 6,6l0,28a6,6 0 0 1 -6,6l-88,0a6,6 0 0 1 -6,-6l0,-28z"/>
   <use id="svg_5" x="3.11705" y="260" transform="matrix(1 0 0 1 365.987 29.7778)" xlink:href="#b"/>
   <path id="svg_6" fill="#d7faf5" stroke="#3a414a" d="m324.65705,206a6,6 0 0 1 6,-6l88,0a6,6 0 0 1 6,6l0,28a6,6 0 0 1 -6,6l-88,0a6,6 0 0 1 -6,-6l0,-28z"/>
   <use id="svg_7" x="3.11705" y="260" transform="matrix(1 0 0 1 365.987 -30.2222)" xlink:href="#c"/>
   <path id="svg_8" fill-opacity="0" fill="#fff" stroke-opacity="0" stroke="#000" d="m43.11705,146a6,6 0 0 1 6,-6l226.46,0a6,6 0 0 1 6,6l0,28a6,6 0 0 1 -6,6l-226.46,0a6,6 0 0 1 -6,-6l0,-28z"/>
   <use id="svg_9" x="3.11705" y="260" transform="matrix(1 0 0 1 124.37 -95.3472)" xlink:href="#d"/>
   <path id="svg_10" fill-opacity="0" fill="#fff" stroke-opacity="0" stroke="#000" d="m81.57705,206a6,6 0 0 1 6,-6l188,0a6,6 0 0 1 6,6l0,28a6,6 0 0 1 -6,6l-188,0a6,6 0 0 1 -6,-6l0,-28z"/>
   <use id="svg_11" x="3.11705" y="260" transform="matrix(1 0 0 1 53.8898 -35.5556)" xlink:href="#e"/>
   <path id="svg_12" fill-opacity="0" fill="#fff" stroke-opacity="0" stroke="#000" d="m81.57705,266a6,6 0 0 1 6,-6l188,0a6,6 0 0 1 6,6l0,28a6,6 0 0 1 -6,6l-188,0a6,6 0 0 1 -6,-6l0,-28z"/>
   <use id="svg_13" x="3.11705" y="260" transform="matrix(1 0 0 1 84.9392 24.6528)" xlink:href="#f"/>
   <path id="svg_14" fill-opacity="0" fill="#fff" stroke-opacity="0" stroke="#000" d="m43.11705,86a6,6 0 0 1 6,-6l226.46,0a6,6 0 0 1 6,6l0,28a6,6 0 0 1 -6,6l-226.46,0a6,6 0 0 1 -6,-6l0,-28z"/>
   <use id="svg_15" x="3.11705" y="260" transform="matrix(1 0 0 1 96.5309 -155.347)" xlink:href="#g"/>
   <path id="svg_16" fill="#d7faf5" stroke="#3a414a" d="m324.65705,86a6,6 0 0 1 6,-6l88,0a6,6 0 0 1 6,6l0,28a6,6 0 0 1 -6,6l-88,0a6,6 0 0 1 -6,-6l0,-28z"/>
   <use id="svg_17" x="3.11705" y="260" transform="matrix(1 0 0 1 365.987 -150.222)" xlink:href="#a"/>
   <path id="svg_18" fill="#d7faf5" stroke="#3a414a" d="m463.11705,146a6,6 0 0 1 6,-6l88,0a6,6 0 0 1 6,6l0,28a6,6 0 0 1 -6,6l-88,0a6,6 0 0 1 -6,-6l0,-28z"/>
   <use id="svg_19" x="3.11705" y="260" transform="matrix(1 0 0 1 504.444 -90.2222)" xlink:href="#c"/>
   <path id="svg_20" fill="#d7faf5" stroke="#3a414a" d="m463.11705,206a6,6 0 0 1 6,-6l88,0a6,6 0 0 1 6,6l0,28a6,6 0 0 1 -6,6l-88,0a6,6 0 0 1 -6,-6l0,-28z"/>
   <use id="svg_21" x="3.11705" y="260" transform="matrix(1 0 0 1 504.444 -30.2222)" xlink:href="#c"/>
   <path id="svg_22" fill="#d7faf5" stroke="#3a414a" d="m463.11705,266a6,6 0 0 1 6,-6l88,0a6,6 0 0 1 6,6l0,28a6,6 0 0 1 -6,6l-88,0a6,6 0 0 1 -6,-6l0,-28z"/>
   <use id="svg_23" x="3.11705" y="260" transform="matrix(1 0 0 1 504.444 29.7778)" xlink:href="#b"/>
   <path id="svg_24" fill-opacity="0" fill="#fff" d="m443.11705,20l141.98,0l0,36.67l-141.98,0l0,-36.67z"/>
   <use id="svg_25" x="3.11705" y="260" transform="matrix(1 0 0 1 445.012 -215.535)" xlink:href="#h"/>
   <path id="svg_26" fill-opacity="0" fill="#fff" d="m303.11705,20l136.73,0l0,36.67l-136.73,0l0,-36.67z"/>
   <use id="svg_27" x="3.11705" y="260" transform="matrix(1 0 0 1 308.809 -215.535)" xlink:href="#i"/>
   <path id="svg_28" fill-opacity="0" fill="#fff" d="m783.11705,20l177.72,0l0,36.67l-177.72,0l0,-36.67z"/>
   <use id="svg_29" x="3.11705" y="260" transform="matrix(1 0 0 1 785.142 -215.535)" xlink:href="#j"/>
   <path id="svg_30" fill-opacity="0" fill="#fff" d="m583.11705,23.33l228.95,0l0,36.67l-228.95,0l0,-36.67z"/>
   <use id="svg_31" x="3.11705" y="260" transform="matrix(1 0 0 1 652.802 -212.201)" xlink:href="#k"/>
   <path id="svg_32" fill="#d7faf5" stroke="#3a414a" d="m643.11705,146a6,6 0 0 1 6,-6l88,0a6,6 0 0 1 6,6l0,28a6,6 0 0 1 -6,6l-88,0a6,6 0 0 1 -6,-6l0,-28z"/>
   <use id="svg_33" x="3.11705" y="260" transform="matrix(1 0 0 1 678.889 -90.2222)" xlink:href="#l"/>
   <path id="svg_34" fill="#d7faf5" stroke="#3a414a" d="m643.11705,266a6,6 0 0 1 6,-6l88,0a6,6 0 0 1 6,6l0,28a6,6 0 0 1 -6,6l-88,0a6,6 0 0 1 -6,-6l0,-28z"/>
   <use id="svg_35" x="3.11705" y="260" transform="matrix(1 0 0 1 678.889 29.7778)" xlink:href="#m"/>
   <path id="svg_36" fill="#d7faf5" stroke="#3a414a" d="m643.11705,206a6,6 0 0 1 6,-6l88,0a6,6 0 0 1 6,6l0,28a6,6 0 0 1 -6,6l-88,0a6,6 0 0 1 -6,-6l0,-28z"/>
   <use id="svg_37" x="3.11705" y="260" transform="matrix(1 0 0 1 678.889 -30.2222)" xlink:href="#n"/>
   <path id="svg_38" fill="#d7faf5" stroke="#3a414a" d="m643.11705,86a6,6 0 0 1 6,-6l88,0a6,6 0 0 1 6,6l0,28a6,6 0 0 1 -6,6l-88,0a6,6 0 0 1 -6,-6l0,-28z"/>
   <use id="svg_39" x="3.11705" y="260" transform="matrix(1 0 0 1 684.444 -150.222)" xlink:href="#a"/>
   <path id="svg_40" fill="#d7faf5" stroke="#3a414a" d="m806.26705,146a6,6 0 0 1 6,-6l88,0a6,6 0 0 1 6,6l0,28a6,6 0 0 1 -6,6l-88,0a6,6 0 0 1 -6,-6l0,-28z"/>
   <use id="svg_41" x="3.11705" y="260" transform="matrix(1 0 0 1 847.594 -90.2222)" xlink:href="#c"/>
   <path id="svg_42" fill="#d7faf5" stroke="#3a414a" d="m806.26705,206a6,6 0 0 1 6,-6l88,0a6,6 0 0 1 6,6l0,28a6,6 0 0 1 -6,6l-88,0a6,6 0 0 1 -6,-6l0,-28z"/>
   <use id="svg_43" x="3.11705" y="260" transform="matrix(1 0 0 1 847.594 -30.2222)" xlink:href="#a"/>
   <path id="svg_44" fill="#d7faf5" stroke="#3a414a" d="m806.26705,266a6,6 0 0 1 6,-6l88,0a6,6 0 0 1 6,6l0,28a6,6 0 0 1 -6,6l-88,0a6,6 0 0 1 -6,-6l0,-28z"/>
   <use id="svg_45" x="3.11705" y="260" transform="matrix(1 0 0 1 842.038 29.7778)" xlink:href="#o"/>
   <path id="svg_46" fill="#d7faf5" stroke="#3a414a" d="m806.26705,84.33a6,6 0 0 1 6,-6l88,0a6,6 0 0 1 6,6l0,28a6,6 0 0 1 -6,6l-88,0a6,6 0 0 1 -6,-6l0,-28z"/>
   <use id="svg_47" x="3.11705" y="260" transform="matrix(1 0 0 1 847.594 -151.889)" xlink:href="#p"/>
   <path id="svg_48" fill-opacity="0" fill="#fff" d="m19.99705,353.33l543.12,0l0,63.34l-543.12,0l0,-63.34z"/>
   <use id="svg_49" x="3.11705" y="260" transform="matrix(1 0 0 1 52.4632 129.611)" xlink:href="#q"/>
   <use id="svg_50" x="3.11705" y="260" transform="matrix(1 0 0 1 258.945 129.611)" xlink:href="#r"/>
   <use id="svg_51" x="3.11705" y="260" transform="matrix(1 0 0 1 277.031 129.611)" xlink:href="#s"/>
   <use id="svg_52" x="3.11705" y="260" transform="matrix(1 0 0 1 327.031 129.611)" xlink:href="#r"/>
   <use id="svg_53" x="3.11705" y="260" transform="matrix(1 0 0 1 345.118 129.611)" xlink:href="#t"/>
   <use id="svg_54" x="3.11705" y="260" transform="matrix(1 0 0 1 384.006 129.611)" xlink:href="#u"/>
   <use id="svg_55" x="3.11705" y="260" transform="matrix(1 0 0 1 400.673 129.611)" xlink:href="#v"/>
   <use id="svg_56" x="3.11705" y="260" transform="matrix(1 0 0 1 450.673 129.611)" xlink:href="#w"/>
   <use id="svg_57" x="3.11705" y="260" transform="matrix(1 0 0 1 463.574 129.611)" xlink:href="#x"/>
   <use id="svg_58" x="3.11705" y="260" transform="matrix(1 0 0 1 491.352 129.611)" xlink:href="#y"/>
   <use id="svg_59" x="3.11705" y="260" transform="matrix(1 0 0 1 503.08 129.611)" xlink:href="#z"/>
   <path id="svg_60" fill="#fff" stroke="#3a414a" d="m214.95705,465.33a6,6 0 0 1 6,-6l468,0a6,6 0 0 1 6,6l0,284.67a6,6 0 0 1 -6,6l-468,0a6,6 0 0 1 -6,-6l0,-284.67z"/>
   <path id="svg_61" fill="#fff" stroke="#3a414a" d="m214.95705,445.33a6,6 0 0 1 6,-6l468,0a6,6 0 0 1 6,6l0,51.34a6,6 0 0 1 -6,6l-468,0a6,6 0 0 1 -6,-6l0,-51.34z"/>
   <use id="svg_62" x="3.11705" y="260" transform="matrix(1 0 0 1 435.701 216.611)" xlink:href="#A"/>
   <use id="svg_63" x="3.11705" y="260" transform="matrix(1 0 0 1 485.701 216.611)" xlink:href="#u"/>
   <use id="svg_64" x="3.11705" y="260" transform="matrix(1 0 0 1 502.367 216.611)" xlink:href="#B"/>
   <path id="svg_65" fill-opacity="0" fill="#fff" d="m63.11705,422.67l136.73,0l0,36.66l-136.73,0l0,-36.66z"/>
   <use id="svg_66" x="3.11705" y="260" transform="matrix(1 0 0 1 122.944 187.132)" xlink:href="#p"/>
   <path id="svg_67" fill-opacity="0" fill="#fff" d="m63.11705,486.33l136.73,0l0,36.67l-136.73,0l0,-36.67z"/>
   <use id="svg_68" x="3.11705" y="260" transform="matrix(1 0 0 1 100.722 250.799)" xlink:href="#C"/>
   <path id="svg_69" fill="#fff" stroke="#3a414a" d="m214.95705,508.67a6,6 0 0 1 6,-6l468,0a6,6 0 0 1 6,6l0,51.33a6,6 0 0 1 -6,6l-468,0a6,6 0 0 1 -6,-6l0,-51.33z"/>
   <use id="svg_70" x="3.11705" y="260" transform="matrix(1 0 0 1 463.54 279.944)" xlink:href="#A"/>
   <use id="svg_71" x="3.11705" y="260" transform="matrix(1 0 0 1 513.54 279.944)" xlink:href="#u"/>
   <use id="svg_72" x="3.11705" y="260" transform="matrix(1 0 0 1 530.207 279.944)" xlink:href="#D"/>
   <path id="svg_73" fill-opacity="0" fill="#fff" d="m63.11705,550l136.73,0l0,36.67l-136.73,0l0,-36.67z"/>
   <use id="svg_74" x="3.11705" y="260" transform="matrix(1 0 0 1 100.722 314.465)" xlink:href="#E"/>
   <path id="svg_75" fill="#fff" stroke="#3a414a" d="m214.95705,572a6,6 0 0 1 6,-6l468,0a6,6 0 0 1 6,6l0,51.33a6,6 0 0 1 -6,6l-468,0a6,6 0 0 1 -6,-6l0,-51.33z"/>
   <use id="svg_76" x="3.11705" y="260" transform="matrix(1 0 0 1 393.602 343.278)" xlink:href="#A"/>
   <use id="svg_77" x="3.11705" y="260" transform="matrix(1 0 0 1 443.602 343.278)" xlink:href="#u"/>
   <use id="svg_78" x="3.11705" y="260" transform="matrix(1 0 0 1 460.269 343.278)" xlink:href="#F"/>
   <path id="svg_79" fill="#fff" stroke="#3a414a" d="m214.95705,635.33a6,6 0 0 1 6,-6l468,0a6,6 0 0 1 6,6l0,51.34a6,6 0 0 1 -6,6l-468,0a6,6 0 0 1 -6,-6l0,-51.34z"/>
   <use id="svg_80" x="3.11705" y="260" transform="matrix(1 0 0 1 424.651 406.611)" xlink:href="#A"/>
   <use id="svg_81" x="3.11705" y="260" transform="matrix(1 0 0 1 474.651 406.611)" xlink:href="#u"/>
   <use id="svg_82" x="3.11705" y="260" transform="matrix(1 0 0 1 491.318 406.611)" xlink:href="#G"/>
   <path id="svg_83" fill-opacity="0" fill="#fff" d="m673.23705,578.67l240,0l0,36.66l-240,0l0,-36.66z"/>
   <use id="svg_84" x="3.11705" y="260" transform="matrix(1 0 0 1 711.636 343.132)" xlink:href="#H"/>
   <use id="svg_85" x="3.11705" y="260" transform="matrix(1 0 0 1 772.747 343.132)" xlink:href="#r"/>
   <use id="svg_86" x="3.11705" y="260" transform="matrix(1 0 0 1 790.833 343.132)" xlink:href="#s"/>
   <use id="svg_87" x="3.11705" y="260" transform="matrix(1 0 0 1 840.833 343.132)" xlink:href="#u"/>
   <use id="svg_88" x="3.11705" y="260" transform="matrix(1 0 0 1 857.5 343.132)" xlink:href="#I"/>
   <path id="svg_89" fill-opacity="0" fill="#fff" d="m673.23705,459.33l240,0l0,36.67l-240,0l0,-36.67z"/>
   <g id="svg_90">
    <use id="svg_91" x="3.11705" y="260" transform="matrix(1 0 0 1 711.636 223.799)" xlink:href="#J"/>
    <use id="svg_92" x="3.11705" y="260" transform="matrix(1 0 0 1 772.747 223.799)" xlink:href="#r"/>
    <use id="svg_93" x="3.11705" y="260" transform="matrix(1 0 0 1 790.833 223.799)" xlink:href="#s"/>
    <use id="svg_94" x="3.11705" y="260" transform="matrix(1 0 0 1 840.833 223.799)" xlink:href="#u"/>
    <use id="svg_95" x="3.11705" y="260" transform="matrix(1 0 0 1 857.5 223.799)" xlink:href="#K"/>
   </g>
   <path id="svg_96" fill-opacity="0" fill="#fff" d="m63.11705,613.67l136.73,0l0,36.66l-136.73,0l0,-36.66z"/>
   <g id="svg_97">
    <use id="svg_98" x="3.11705" y="260" transform="matrix(1 0 0 1 95.5679 378.132)" xlink:href="#L"/>
   </g>
   <path id="svg_99" fill-opacity="0" fill="#fff" d="m673.23705,519l240,0l0,36.67l-240,0l0,-36.67z"/>
   <g id="svg_100">
    <use id="svg_101" x="3.11705" y="260" transform="matrix(1 0 0 1 711.636 283.465)" xlink:href="#J"/>
    <use id="svg_102" x="3.11705" y="260" transform="matrix(1 0 0 1 772.747 283.465)" xlink:href="#r"/>
    <use id="svg_103" x="3.11705" y="260" transform="matrix(1 0 0 1 790.833 283.465)" xlink:href="#s"/>
    <use id="svg_104" x="3.11705" y="260" transform="matrix(1 0 0 1 840.833 283.465)" xlink:href="#u"/>
    <use id="svg_105" x="3.11705" y="260" transform="matrix(1 0 0 1 857.5 283.465)" xlink:href="#K"/>
   </g>
   <path id="svg_106" fill-opacity="0" fill="#fff" d="m673.23705,638.33l240,0l0,36.67l-240,0l0,-36.67z"/>
   <g id="svg_107">
    <use id="svg_108" x="3.11705" y="260" transform="matrix(1 0 0 1 712.037 402.799)" xlink:href="#M"/>
    <use id="svg_109" x="3.11705" y="260" transform="matrix(1 0 0 1 772.346 402.799)" xlink:href="#r"/>
    <use id="svg_110" x="3.11705" y="260" transform="matrix(1 0 0 1 790.432 402.799)" xlink:href="#s"/>
    <use id="svg_111" x="3.11705" y="260" transform="matrix(1 0 0 1 840.432 402.799)" xlink:href="#u"/>
    <use id="svg_112" x="3.11705" y="260" transform="matrix(1 0 0 1 857.099 402.799)" xlink:href="#N"/>
   </g>
   <path id="svg_113" fill="#fff" stroke="#3a414a" d="m443.11705,698.67a6,6 0 0 1 6,-6l239.84,0a6,6 0 0 1 6,6l0,51.33a6,6 0 0 1 -6,6l-239.84,0a6,6 0 0 1 -6,-6l0,-51.33z"/>
   <g id="svg_114">
    <use id="svg_115" x="3.11705" y="260" transform="matrix(1 0 0 1 614.012 469.944)" xlink:href="#O"/>
    <use id="svg_116" x="3.11705" y="260" transform="matrix(1 0 0 1 641.79 469.944)" xlink:href="#P"/>
   </g>
   <path id="svg_117" fill-opacity="0" fill="#fff" d="m63.11705,677.33l136.73,0l0,36.67l-136.73,0l0,-36.67z"/>
   <g id="svg_118">
    <use id="svg_119" x="3.11705" y="260" transform="matrix(1 0 0 1 95.1667 441.799)" xlink:href="#Q"/>
   </g>
   <path id="svg_120" fill-opacity="0" fill="#fff" d="m63.11705,740l136.73,0l0,36.67l-136.73,0l0,-36.67z"/>
   <g id="svg_121">
    <use id="svg_122" x="3.11705" y="260" transform="matrix(1 0 0 1 95.1667 504.465)" xlink:href="#R"/>
   </g>
   <path id="svg_123" fill="#fff" stroke="#3a414a" d="m214.95705,698.67a6,6 0 0 1 6,-6l216.16,0a6,6 0 0 1 6,6l0,51.33a6,6 0 0 1 -6,6l-216.16,0a6,6 0 0 1 -6,-6l0,-51.33z"/>
   <g id="svg_124">
    <use id="svg_125" x="3.11705" y="260" transform="matrix(1 0 0 1 373.96 469.944)" xlink:href="#S"/>
    <use id="svg_126" x="3.11705" y="260" transform="matrix(1 0 0 1 390.627 469.944)" xlink:href="#P"/>
   </g>
   <path id="svg_127" fill="#fff" stroke="#3a414a" d="m214.95705,445.33a6,6 0 0 1 6,-6l176.16,0a6,6 0 0 1 6,6l0,18.67a6,6 0 0 1 -6,6l-176.16,0a6,6 0 0 1 -6,-6l0,-18.67z"/>
   <g id="svg_128">
    <use id="svg_129" x="3.11705" y="260" transform="matrix(1 0 0 1 237.373 203.778)" xlink:href="#T"/>
    <use id="svg_130" x="3.11705" y="260" transform="matrix(1 0 0 1 288.275 203.778)" xlink:href="#U"/>
   </g>
   <g id="svg_131">
    <path id="svg_132" fill="none" stroke-width="0.5" stroke="#3a414a" d="m283.61705,439.58a0.25,0.25 0 0 1 0.25,0.25l0,29.67a0.25,0.25 0 0 1 -0.25,0.25a0.25,0.25 0 0 1 -0.25,-0.25l0,-29.67a0.25,0.25 0 0 1 0.25,-0.25z"/>
   </g>
   <defs transform="translate(3.11705 260)">
    <path id="V" d="m90,-239c42,0 69,19 69,61c0,28 -14,44 -35,53c25,8 42,28 42,61c0,47 -28,68 -77,68c-48,0 -75,-21 -75,-68c-1,-33 18,-51 41,-61c-19,-9 -34,-25 -34,-53c0,-42 26,-61 69,-61zm-1,229c34,0 46,-20 46,-54c0,-32 -11,-53 -46,-53c-34,0 -44,20 -44,53c-1,34 11,54 44,54zm0,-123c28,0 38,-16 38,-45s-9,-47 -38,-47c-28,-1 -36,18 -36,47s8,45 36,45" fill="#3a414a"/>
    <use id="a" xlink:href="#V" transform="matrix(0.06172839506172839,0,0,0.06172839506172839,0,0)"/>
    <path id="W" d="m24,-231c66,-21 156,2 128,81c-20,58 -74,84 -113,123l121,0l0,27l-144,0l0,-26l59,-54c26,-25 47,-47 47,-97c0,-48 -47,-57 -81,-37l-6,29l-11,0l0,-46" fill="#3a414a"/>
    <use id="b" xlink:href="#W" transform="matrix(0.06172839506172839,0,0,0.06172839506172839,0,0)"/>
    <path id="X" d="m142,-52l0,52l-30,0l0,-52l-105,0l0,-23l115,-162l20,0l0,160l32,0l0,25l-32,0zm-30,-25l-1,-119l-84,119l85,0" fill="#3a414a"/>
    <use id="c" xlink:href="#X" transform="matrix(0.06172839506172839,0,0,0.06172839506172839,0,0)"/>
    <path id="Y" d="m75,-106l0,92l39,5l0,9l-101,0l0,-9l28,-5l0,-208l-31,-4l0,-10l177,0l0,57l-11,0l-6,-38c-28,-4 -63,-3 -95,-3l0,98l69,0l5,-28l11,0l0,73l-11,0l-5,-29l-69,0" fill="#3a414a"/>
    <path id="Z" d="m319,-222l-77,227l-10,0l-61,-162l-63,162l-9,0l-78,-227l-21,-4l0,-10l90,0l0,10l-34,4l56,166l63,-163l8,0l61,163l54,-166l-37,-4l0,-10l78,0l0,10" fill="#3a414a"/>
    <path id="aa" d="m32,-163c41,-10 102,-14 102,39l0,112c8,3 24,-2 21,12l-45,0l-4,-17c-23,30 -103,30 -93,-29c-2,-50 45,-50 92,-51c4,-36 -5,-70 -42,-56c-6,2 -12,4 -16,6c-4,7 0,23 -15,20l0,-36zm10,116c0,41 41,33 63,22l0,-59c-34,1 -63,-1 -63,37" fill="#3a414a"/>
    <path id="ab" d="m54,-38c-1,25 24,26 44,20l0,12c-27,16 -73,15 -73,-29l0,-115l-21,0c-2,-14 14,-10 21,-15l18,-38l11,0l0,38l38,0l0,15l-38,0l0,112" fill="#3a414a"/>
    <path id="ac" d="m84,-170c49,0 66,33 63,87l-101,0c-8,60 38,80 95,63l0,10c-13,8 -33,14 -53,14c-54,0 -74,-33 -74,-88c-1,-54 22,-86 70,-86zm33,73c12,-57 -57,-82 -69,-24c-1,7 -2,15 -2,24l71,0" fill="#3a414a"/>
    <path id="ad" d="m57,-145c16,-10 35,-24 60,-25l0,45c-19,1 -8,-30 -40,-17l-20,6l0,124l29,4l0,8l-79,0l0,-8l21,-4l0,-141c-8,-3 -24,2 -21,-12l48,0" fill="#3a414a"/>
    <path id="ae" d="m141,-152c28,39 5,97 -54,97c-9,0 -20,-2 -27,-3l-11,23c29,22 130,-14 124,52c-4,45 -38,57 -88,61c-64,5 -93,-52 -40,-80c-12,-4 -23,-13 -24,-29l28,-31c-19,-9 -28,-26 -28,-51c-2,-51 53,-65 100,-52l38,-20l7,8l-25,25zm-56,216c35,0 61,-11 61,-42c0,-35 -57,-17 -89,-21c-9,8 -16,19 -17,34c0,25 19,29 45,29zm-33,-177c1,26 7,46 35,44c28,-1 34,-16 35,-44c0,-26 -6,-43 -34,-43s-36,17 -36,43" fill="#3a414a"/>
    <path id="af" d="m126,-118c4,-37 -42,-32 -68,-25l0,131l24,4l0,8l-74,0c-3,-13 13,-9 20,-12l0,-141c-7,-3 -23,1 -20,-12l48,0l1,13c22,-15 77,-30 92,2c32,-22 104,-36 104,29l0,109c8,3 24,-2 21,12l-75,0l0,-8l25,-4l0,-106c3,-39 -45,-31 -72,-24c7,37 1,88 3,130l25,4l0,8l-78,0l0,-8l24,-4l0,-106" fill="#3a414a"/>
    <path id="ag" d="m125,-118c4,-37 -41,-34 -68,-26l0,132l23,4l0,8l-72,0c-3,-13 13,-9 20,-12l0,-141c-7,-3 -23,1 -20,-12l47,0l2,13c31,-23 98,-29 98,31l0,109c7,3 23,-1 20,12l-72,0l0,-8l22,-4l0,-106" fill="#3a414a"/>
    <g id="d">
     <use id="svg_133" xlink:href="#Y" transform="matrix(0.06172839506172839,0,0,0.06172839506172839,0,0)"/>
     <use id="svg_134" xlink:href="#Z" transform="matrix(0.06172839506172839,0,0,0.06172839506172839,12.345679012345679,0)"/>
     <use id="svg_135" xlink:href="#aa" transform="matrix(0.06172839506172839,0,0,0.06172839506172839,31.48148148148148,0)"/>
     <use id="svg_136" xlink:href="#ab" transform="matrix(0.06172839506172839,0,0,0.06172839506172839,41.2962962962963,0)"/>
     <use id="svg_137" xlink:href="#ac" transform="matrix(0.06172839506172839,0,0,0.06172839506172839,47.46913580246914,0)"/>
     <use id="svg_138" xlink:href="#ad" transform="matrix(0.06172839506172839,0,0,0.06172839506172839,57.283950617283956,0)"/>
     <use id="svg_139" xlink:href="#Y" transform="matrix(0.06172839506172839,0,0,0.06172839506172839,64.62962962962963,0)"/>
     <use id="svg_140" xlink:href="#ad" transform="matrix(0.06172839506172839,0,0,0.06172839506172839,76.97530864197532,0)"/>
     <use id="svg_141" xlink:href="#aa" transform="matrix(0.06172839506172839,0,0,0.06172839506172839,84.320987654321,0)"/>
     <use id="svg_142" xlink:href="#ae" transform="matrix(0.06172839506172839,0,0,0.06172839506172839,94.13580246913581,0)"/>
     <use id="svg_143" xlink:href="#af" transform="matrix(0.06172839506172839,0,0,0.06172839506172839,105.24691358024693,0)"/>
     <use id="svg_144" xlink:href="#ac" transform="matrix(0.06172839506172839,0,0,0.06172839506172839,122.53086419753087,0)"/>
     <use id="svg_145" xlink:href="#ag" transform="matrix(0.06172839506172839,0,0,0.06172839506172839,132.3456790123457,0)"/>
     <use id="svg_146" xlink:href="#ab" transform="matrix(0.06172839506172839,0,0,0.06172839506172839,143.4567901234568,0)"/>
    </g>
    <path id="ah" d="m10,0l0,-9l31,-5l0,-208l-31,-4l0,-10l95,0l0,10l-30,4l0,93l110,0l0,-93l-30,-4l0,-10l94,0l0,10l-30,4l0,208l30,5l0,9l-94,0l0,-9l30,-5l0,-99l-110,0l0,99l30,5l0,9l-95,0" fill="#3a414a"/>
    <path id="ai" d="m164,-154l-66,158l-13,0l-68,-157c-7,-3 -20,0 -17,-12l77,0l0,8l-26,4l48,115l46,-115l-26,-4l0,-8l61,0l0,8" fill="#3a414a"/>
    <path id="aj" d="m41,-130c7,48 86,23 86,84c0,56 -69,57 -112,41l0,-40c20,0 9,29 31,31c35,19 77,-26 41,-50c-27,-18 -72,-13 -72,-59c0,-50 58,-52 100,-41l0,36c-19,1 -8,-25 -28,-25c-21,-7 -50,-1 -46,23" fill="#3a414a"/>
    <path id="ak" d="m55,0l0,-9l38,-5l0,-207c-22,1 -53,0 -70,4l-5,37l-11,0l0,-56l207,0l0,56l-12,0l-5,-37l-70,-3l0,206l37,5l0,9l-109,0" fill="#3a414a"/>
    <path id="al" d="m47,-200c-23,0 -25,-39 0,-38c13,0 18,7 20,19c-1,11 -8,19 -20,19zm18,188l28,4l0,8l-85,0l0,-8l28,-4l0,-141l-24,-4l0,-8l53,0l0,153" fill="#3a414a"/>
    <g id="e">
     <use id="svg_147" xlink:href="#Y" transform="matrix(0.06172839506172839,0,0,0.06172839506172839,0,0)"/>
     <use id="svg_148" xlink:href="#ah" transform="matrix(0.06172839506172839,0,0,0.06172839506172839,12.345679012345679,0)"/>
     <use id="svg_149" xlink:href="#aa" transform="matrix(0.06172839506172839,0,0,0.06172839506172839,28.333333333333332,0)"/>
     <use id="svg_150" xlink:href="#ad" transform="matrix(0.06172839506172839,0,0,0.06172839506172839,38.148148148148145,0)"/>
     <use id="svg_151" xlink:href="#ai" transform="matrix(0.06172839506172839,0,0,0.06172839506172839,45.49382716049382,0)"/>
     <use id="svg_152" xlink:href="#ac" transform="matrix(0.06172839506172839,0,0,0.06172839506172839,56.60493827160494,0)"/>
     <use id="svg_153" xlink:href="#aj" transform="matrix(0.06172839506172839,0,0,0.06172839506172839,66.41975308641975,0)"/>
     <use id="svg_154" xlink:href="#ab" transform="matrix(0.06172839506172839,0,0,0.06172839506172839,75.06172839506172,0)"/>
     <use id="svg_155" xlink:href="#ak" transform="matrix(0.06172839506172839,0,0,0.06172839506172839,81.23456790123456,0)"/>
     <use id="svg_156" xlink:href="#al" transform="matrix(0.06172839506172839,0,0,0.06172839506172839,93.9506172839506,0)"/>
     <use id="svg_157" xlink:href="#af" transform="matrix(0.06172839506172839,0,0,0.06172839506172839,100.12345679012344,0)"/>
     <use id="svg_158" xlink:href="#ac" transform="matrix(0.06172839506172839,0,0,0.06172839506172839,117.40740740740739,0)"/>
     <use id="svg_159" xlink:href="#ad" transform="matrix(0.06172839506172839,0,0,0.06172839506172839,127.22222222222219,0)"/>
     <use id="svg_160" xlink:href="#Y" transform="matrix(0.06172839506172839,0,0,0.06172839506172839,134.56790123456787,0)"/>
     <use id="svg_161" xlink:href="#ad" transform="matrix(0.06172839506172839,0,0,0.06172839506172839,146.91358024691354,0)"/>
     <use id="svg_162" xlink:href="#aa" transform="matrix(0.06172839506172839,0,0,0.06172839506172839,154.2592592592592,0)"/>
     <use id="svg_163" xlink:href="#ae" transform="matrix(0.06172839506172839,0,0,0.06172839506172839,164.07407407407402,0)"/>
     <use id="svg_164" xlink:href="#af" transform="matrix(0.06172839506172839,0,0,0.06172839506172839,175.18518518518513,0)"/>
     <use id="svg_165" xlink:href="#ac" transform="matrix(0.06172839506172839,0,0,0.06172839506172839,192.46913580246908,0)"/>
     <use id="svg_166" xlink:href="#ag" transform="matrix(0.06172839506172839,0,0,0.06172839506172839,202.2839506172839,0)"/>
     <use id="svg_167" xlink:href="#ab" transform="matrix(0.06172839506172839,0,0,0.06172839506172839,213.395061728395,0)"/>
    </g>
    <path id="am" d="m52,-115c0,93 80,130 150,87l7,-35l11,0l-1,55c-23,7 -52,12 -83,12c-76,0 -117,-41 -121,-119c-5,-113 97,-141 201,-114l1,51l-12,0l-5,-30c-15,-9 -39,-16 -62,-16c-66,0 -86,41 -86,109" fill="#3a414a"/>
    <path id="an" d="m90,-170c52,0 76,32 76,87c0,54 -24,87 -77,87c-51,0 -75,-34 -75,-87c0,-54 24,-87 76,-87zm-1,160c39,0 46,-35 46,-73c0,-39 -7,-73 -46,-73c-39,1 -44,34 -44,73s6,72 44,73" fill="#3a414a"/>
    <path id="ao" d="m166,-85c3,67 -44,102 -111,85l1,64l29,4l0,9l-79,0l0,-9l21,-4l0,-217c-7,-3 -22,1 -19,-12l46,0l1,9c11,-8 26,-14 45,-14c47,2 64,36 66,85zm-110,72c53,14 83,-14 78,-72c7,-53 -33,-79 -78,-60l0,132" fill="#3a414a"/>
    <g id="f">
     <use id="svg_168" xlink:href="#Y" transform="matrix(0.06172839506172839,0,0,0.06172839506172839,0,0)"/>
     <use id="svg_169" xlink:href="#Y" transform="matrix(0.06172839506172839,0,0,0.06172839506172839,12.345679012345679,0)"/>
     <use id="svg_170" xlink:href="#aa" transform="matrix(0.06172839506172839,0,0,0.06172839506172839,24.691358024691358,0)"/>
     <use id="svg_171" xlink:href="#ad" transform="matrix(0.06172839506172839,0,0,0.06172839506172839,34.50617283950617,0)"/>
     <use id="svg_172" xlink:href="#af" transform="matrix(0.06172839506172839,0,0,0.06172839506172839,41.85185185185185,0)"/>
     <use id="svg_173" xlink:href="#am" transform="matrix(0.06172839506172839,0,0,0.06172839506172839,59.1358024691358,0)"/>
     <use id="svg_174" xlink:href="#ad" transform="matrix(0.06172839506172839,0,0,0.06172839506172839,73.9506172839506,0)"/>
     <use id="svg_175" xlink:href="#an" transform="matrix(0.06172839506172839,0,0,0.06172839506172839,81.29629629629629,0)"/>
     <use id="svg_176" xlink:href="#ao" transform="matrix(0.06172839506172839,0,0,0.06172839506172839,92.4074074074074,0)"/>
     <use id="svg_177" xlink:href="#Y" transform="matrix(0.06172839506172839,0,0,0.06172839506172839,103.51851851851852,0)"/>
     <use id="svg_178" xlink:href="#ad" transform="matrix(0.06172839506172839,0,0,0.06172839506172839,115.8641975308642,0)"/>
     <use id="svg_179" xlink:href="#aa" transform="matrix(0.06172839506172839,0,0,0.06172839506172839,123.20987654320989,0)"/>
     <use id="svg_180" xlink:href="#ae" transform="matrix(0.06172839506172839,0,0,0.06172839506172839,133.0246913580247,0)"/>
     <use id="svg_181" xlink:href="#af" transform="matrix(0.06172839506172839,0,0,0.06172839506172839,144.13580246913583,0)"/>
     <use id="svg_182" xlink:href="#ac" transform="matrix(0.06172839506172839,0,0,0.06172839506172839,161.41975308641977,0)"/>
     <use id="svg_183" xlink:href="#ag" transform="matrix(0.06172839506172839,0,0,0.06172839506172839,171.23456790123458,0)"/>
     <use id="svg_184" xlink:href="#ab" transform="matrix(0.06172839506172839,0,0,0.06172839506172839,182.3456790123457,0)"/>
    </g>
    <path id="ap" d="m152,0l-7,0l-86,-203l0,189l32,5l0,9l-81,0l0,-9l31,-5l0,-208l-31,-4l0,-10l72,0l76,180l84,-180l68,0l0,10l-31,4l0,208l31,5l0,9l-96,0l0,-9l32,-5l0,-189" fill="#3a414a"/>
    <path id="aq" d="m10,-9l31,-5l0,-208l-31,-4l0,-10l177,0l0,57l-11,0l-6,-38c-28,-4 -63,-3 -95,-3l0,92l63,0l6,-28l11,0l0,73l-11,0l-6,-29l-63,0l0,96l105,-3l10,-43l12,0l-3,62l-189,0l0,-9" fill="#3a414a"/>
    <path id="ar" d="m161,-154l-76,191c-10,29 -36,49 -77,38l0,-36c18,-2 6,24 29,21c30,-4 38,-32 47,-58l-63,-155c-7,-3 -20,0 -17,-12l77,0l0,8l-26,4l45,116l43,-116l-26,-4l0,-8l62,0l0,8" fill="#3a414a"/>
    <path id="as" d="m13,-81c0,-71 46,-101 114,-85l-1,-72l-28,-4l0,-8l57,0l0,238c8,3 24,-2 21,12l-47,0l-2,-12c-47,35 -114,11 -114,-69zm77,-74c-37,1 -44,33 -45,74c0,38 9,66 45,66c14,0 27,-3 36,-7l0,-130c-10,-1 -24,-3 -36,-3" fill="#3a414a"/>
    <path id="at" d="m65,-12l28,4l0,8l-86,0l0,-8l28,-4l0,-226l-28,-4l0,-8l58,0l0,238" fill="#3a414a"/>
    <g id="g">
     <use id="svg_185" xlink:href="#Y" transform="matrix(0.06172839506172839,0,0,0.06172839506172839,0,0)"/>
     <use id="svg_186" xlink:href="#ap" transform="matrix(0.06172839506172839,0,0,0.06172839506172839,12.345679012345679,0)"/>
     <use id="svg_187" xlink:href="#aa" transform="matrix(0.06172839506172839,0,0,0.06172839506172839,32.098765432098766,0)"/>
     <use id="svg_188" xlink:href="#aj" transform="matrix(0.06172839506172839,0,0,0.06172839506172839,41.91358024691358,0)"/>
     <use id="svg_189" xlink:href="#aj" transform="matrix(0.06172839506172839,0,0,0.06172839506172839,50.55555555555556,0)"/>
     <use id="svg_190" xlink:href="#aq" transform="matrix(0.06172839506172839,0,0,0.06172839506172839,59.19753086419753,0)"/>
     <use id="svg_191" xlink:href="#ag" transform="matrix(0.06172839506172839,0,0,0.06172839506172839,72.71604938271605,0)"/>
     <use id="svg_192" xlink:href="#ab" transform="matrix(0.06172839506172839,0,0,0.06172839506172839,83.82716049382717,0)"/>
     <use id="svg_193" xlink:href="#al" transform="matrix(0.06172839506172839,0,0,0.06172839506172839,90,0)"/>
     <use id="svg_194" xlink:href="#ab" transform="matrix(0.06172839506172839,0,0,0.06172839506172839,96.17283950617283,0)"/>
     <use id="svg_195" xlink:href="#ar" transform="matrix(0.06172839506172839,0,0,0.06172839506172839,102.34567901234567,0)"/>
     <use id="svg_196" xlink:href="#ah" transform="matrix(0.06172839506172839,0,0,0.06172839506172839,113.45679012345678,0)"/>
     <use id="svg_197" xlink:href="#aa" transform="matrix(0.06172839506172839,0,0,0.06172839506172839,129.44444444444443,0)"/>
     <use id="svg_198" xlink:href="#ag" transform="matrix(0.06172839506172839,0,0,0.06172839506172839,139.25925925925924,0)"/>
     <use id="svg_199" xlink:href="#as" transform="matrix(0.06172839506172839,0,0,0.06172839506172839,150.37037037037035,0)"/>
     <use id="svg_200" xlink:href="#at" transform="matrix(0.06172839506172839,0,0,0.06172839506172839,161.48148148148147,0)"/>
     <use id="svg_201" xlink:href="#ac" transform="matrix(0.06172839506172839,0,0,0.06172839506172839,167.6543209876543,0)"/>
    </g>
    <path id="au" d="m81,-9l0,9l-77,0l0,-9l26,-5l81,-224l33,0l83,224l30,5l0,9l-99,0l0,-9l31,-5l-23,-68l-93,0l-24,68l32,5zm38,-203l-41,114l82,0" fill="#3a414a"/>
    <g id="h">
     <use id="svg_202" xlink:href="#ap" transform="matrix(0.06172839506172839,0,0,0.06172839506172839,0,0)"/>
     <use id="svg_203" xlink:href="#al" transform="matrix(0.06172839506172839,0,0,0.06172839506172839,19.753086419753085,0)"/>
     <use id="svg_204" xlink:href="#ag" transform="matrix(0.06172839506172839,0,0,0.06172839506172839,25.925925925925924,0)"/>
     <use id="svg_205" xlink:href="#au" transform="matrix(0.06172839506172839,0,0,0.06172839506172839,37.03703703703704,0)"/>
     <use id="svg_206" xlink:href="#at" transform="matrix(0.06172839506172839,0,0,0.06172839506172839,53.02469135802469,0)"/>
     <use id="svg_207" xlink:href="#al" transform="matrix(0.06172839506172839,0,0,0.06172839506172839,59.19753086419753,0)"/>
     <use id="svg_208" xlink:href="#ae" transform="matrix(0.06172839506172839,0,0,0.06172839506172839,65.37037037037037,0)"/>
     <use id="svg_209" xlink:href="#ag" transform="matrix(0.06172839506172839,0,0,0.06172839506172839,76.48148148148148,0)"/>
     <use id="svg_210" xlink:href="#af" transform="matrix(0.06172839506172839,0,0,0.06172839506172839,87.5925925925926,0)"/>
     <use id="svg_211" xlink:href="#ac" transform="matrix(0.06172839506172839,0,0,0.06172839506172839,104.87654320987654,0)"/>
     <use id="svg_212" xlink:href="#ag" transform="matrix(0.06172839506172839,0,0,0.06172839506172839,114.69135802469135,0)"/>
     <use id="svg_213" xlink:href="#ab" transform="matrix(0.06172839506172839,0,0,0.06172839506172839,125.80246913580247,0)"/>
    </g>
    <path id="av" d="m178,-68c0,79 -95,82 -154,59l0,-54l12,0c1,35 22,52 60,52c50,0 69,-58 33,-82c-39,-24 -105,-21 -105,-85c0,-67 86,-66 142,-53l0,49l-12,0l-6,-29c-31,-27 -121,-7 -89,42c28,43 119,24 119,101" fill="#3a414a"/>
    <path id="aw" d="m124,-13c-35,21 -98,28 -98,-32l0,-108c-8,-3 -24,2 -21,-12l50,0l0,118c-3,37 42,32 69,25l0,-131l-25,-4l0,-8l54,0l0,153c8,3 24,-2 21,12l-48,0" fill="#3a414a"/>
    <path id="ax" d="m45,-84c0,64 52,80 104,63c1,25 -30,25 -55,25c-56,0 -80,-32 -80,-88c0,-76 62,-98 131,-80l0,46l-10,0c-5,-15 -4,-31 -23,-35c-47,-10 -67,21 -67,69" fill="#3a414a"/>
    <path id="ay" d="m10,0l0,-8l90,-143c-23,2 -54,-4 -70,6c-5,8 1,26 -14,24l0,-44l122,0l0,8l-91,143c29,-2 65,3 86,-8l9,-35l8,0l-5,57l-135,0" fill="#3a414a"/>
    <g id="i">
     <use id="svg_214" xlink:href="#av" transform="matrix(0.06172839506172839,0,0,0.06172839506172839,0,0)"/>
     <use id="svg_215" xlink:href="#ab" transform="matrix(0.06172839506172839,0,0,0.06172839506172839,12.345679012345679,0)"/>
     <use id="svg_216" xlink:href="#ad" transform="matrix(0.06172839506172839,0,0,0.06172839506172839,18.51851851851852,0)"/>
     <use id="svg_217" xlink:href="#aw" transform="matrix(0.06172839506172839,0,0,0.06172839506172839,25.864197530864196,0)"/>
     <use id="svg_218" xlink:href="#ax" transform="matrix(0.06172839506172839,0,0,0.06172839506172839,36.9753086419753,0)"/>
     <use id="svg_219" xlink:href="#ab" transform="matrix(0.06172839506172839,0,0,0.06172839506172839,46.79012345679012,0)"/>
     <use id="svg_220" xlink:href="#aw" transform="matrix(0.06172839506172839,0,0,0.06172839506172839,52.96296296296296,0)"/>
     <use id="svg_221" xlink:href="#ad" transform="matrix(0.06172839506172839,0,0,0.06172839506172839,64.07407407407408,0)"/>
     <use id="svg_222" xlink:href="#ac" transform="matrix(0.06172839506172839,0,0,0.06172839506172839,71.41975308641976,0)"/>
     <use id="svg_223" xlink:href="#av" transform="matrix(0.06172839506172839,0,0,0.06172839506172839,81.23456790123457,0)"/>
     <use id="svg_224" xlink:href="#al" transform="matrix(0.06172839506172839,0,0,0.06172839506172839,93.58024691358025,0)"/>
     <use id="svg_225" xlink:href="#ay" transform="matrix(0.06172839506172839,0,0,0.06172839506172839,99.75308641975309,0)"/>
     <use id="svg_226" xlink:href="#ac" transform="matrix(0.06172839506172839,0,0,0.06172839506172839,109.5679012345679,0)"/>
    </g>
    <path id="az" d="m75,-108c48,3 76,-12 76,-58s-28,-57 -76,-54l0,112zm111,-58c-1,60 -46,78 -111,74l0,78l37,5l0,9l-99,0l0,-9l28,-5l0,-208l-31,-4l0,-10c81,1 178,-14 176,70" fill="#3a414a"/>
    <g id="j">
     <use id="svg_227" xlink:href="#au" transform="matrix(0.06172839506172839,0,0,0.06172839506172839,0,0)"/>
     <use id="svg_228" xlink:href="#at" transform="matrix(0.06172839506172839,0,0,0.06172839506172839,15.987654320987653,0)"/>
     <use id="svg_229" xlink:href="#al" transform="matrix(0.06172839506172839,0,0,0.06172839506172839,22.160493827160494,0)"/>
     <use id="svg_230" xlink:href="#ae" transform="matrix(0.06172839506172839,0,0,0.06172839506172839,28.333333333333332,0)"/>
     <use id="svg_231" xlink:href="#ag" transform="matrix(0.06172839506172839,0,0,0.06172839506172839,39.44444444444444,0)"/>
     <use id="svg_232" xlink:href="#af" transform="matrix(0.06172839506172839,0,0,0.06172839506172839,50.55555555555556,0)"/>
     <use id="svg_233" xlink:href="#ac" transform="matrix(0.06172839506172839,0,0,0.06172839506172839,67.8395061728395,0)"/>
     <use id="svg_234" xlink:href="#ag" transform="matrix(0.06172839506172839,0,0,0.06172839506172839,77.65432098765432,0)"/>
     <use id="svg_235" xlink:href="#ab" transform="matrix(0.06172839506172839,0,0,0.06172839506172839,88.76543209876543,0)"/>
     <use id="svg_236" xlink:href="#az" transform="matrix(0.06172839506172839,0,0,0.06172839506172839,94.93827160493827,0)"/>
     <use id="svg_237" xlink:href="#aa" transform="matrix(0.06172839506172839,0,0,0.06172839506172839,107.28395061728395,0)"/>
     <use id="svg_238" xlink:href="#as" transform="matrix(0.06172839506172839,0,0,0.06172839506172839,117.09876543209876,0)"/>
     <use id="svg_239" xlink:href="#as" transform="matrix(0.06172839506172839,0,0,0.06172839506172839,128.20987654320987,0)"/>
     <use id="svg_240" xlink:href="#al" transform="matrix(0.06172839506172839,0,0,0.06172839506172839,139.320987654321,0)"/>
     <use id="svg_241" xlink:href="#ag" transform="matrix(0.06172839506172839,0,0,0.06172839506172839,145.49382716049382,0)"/>
     <use id="svg_242" xlink:href="#ae" transform="matrix(0.06172839506172839,0,0,0.06172839506172839,156.60493827160494,0)"/>
    </g>
    <g id="k">
     <use id="svg_243" xlink:href="#ak" transform="matrix(0.06172839506172839,0,0,0.06172839506172839,0,0)"/>
     <use id="svg_244" xlink:href="#an" transform="matrix(0.06172839506172839,0,0,0.06172839506172839,11.975308641975307,0)"/>
     <use id="svg_245" xlink:href="#ab" transform="matrix(0.06172839506172839,0,0,0.06172839506172839,23.086419753086417,0)"/>
     <use id="svg_246" xlink:href="#aa" transform="matrix(0.06172839506172839,0,0,0.06172839506172839,29.259259259259256,0)"/>
     <use id="svg_247" xlink:href="#at" transform="matrix(0.06172839506172839,0,0,0.06172839506172839,39.07407407407407,0)"/>
     <use id="svg_248" xlink:href="#av" transform="matrix(0.06172839506172839,0,0,0.06172839506172839,45.24691358024691,0)"/>
     <use id="svg_249" xlink:href="#al" transform="matrix(0.06172839506172839,0,0,0.06172839506172839,57.59259259259259,0)"/>
     <use id="svg_250" xlink:href="#ay" transform="matrix(0.06172839506172839,0,0,0.06172839506172839,63.76543209876543,0)"/>
     <use id="svg_251" xlink:href="#ac" transform="matrix(0.06172839506172839,0,0,0.06172839506172839,73.58024691358024,0)"/>
    </g>
    <path id="aA" d="m110,-14l48,5l0,9l-126,0l0,-9l48,-5l0,-192l-48,17l0,-10l69,-39l9,0l0,224" fill="#3a414a"/>
    <path id="aB" d="m48,-126c45,-28 121,-18 121,53c0,50 -25,77 -72,77c-63,0 -80,-54 -82,-120c-3,-88 52,-142 140,-116l0,40l-12,0c2,-42 -66,-39 -79,-8c-8,20 -16,43 -16,74zm0,11c2,50 2,105 49,105c33,0 37,-26 40,-60c5,-60 -49,-61 -89,-45" fill="#3a414a"/>
    <g id="l">
     <use id="svg_252" xlink:href="#aA" transform="matrix(0.06172839506172839,0,0,0.06172839506172839,0,0)"/>
     <use id="svg_253" xlink:href="#aB" transform="matrix(0.06172839506172839,0,0,0.06172839506172839,11.11111111111111,0)"/>
    </g>
    <g id="m">
     <use id="svg_254" xlink:href="#W" transform="matrix(0.06172839506172839,0,0,0.06172839506172839,0,0)"/>
     <use id="svg_255" xlink:href="#W" transform="matrix(0.06172839506172839,0,0,0.06172839506172839,11.11111111111111,0)"/>
    </g>
    <path id="aC" d="m90,-239c59,0 76,52 76,120s-14,123 -77,123c-58,0 -75,-55 -75,-123c0,-67 17,-120 76,-120zm-1,229c45,-6 45,-58 45,-109c0,-50 0,-101 -45,-106c-45,4 -43,57 -43,106c0,50 -2,104 43,109" fill="#3a414a"/>
    <g id="n">
     <use id="svg_256" xlink:href="#W" transform="matrix(0.06172839506172839,0,0,0.06172839506172839,0,0)"/>
     <use id="svg_257" xlink:href="#aC" transform="matrix(0.06172839506172839,0,0,0.06172839506172839,11.11111111111111,0)"/>
    </g>
    <g id="o">
     <use id="svg_258" xlink:href="#aA" transform="matrix(0.06172839506172839,0,0,0.06172839506172839,0,0)"/>
     <use id="svg_259" xlink:href="#aC" transform="matrix(0.06172839506172839,0,0,0.06172839506172839,11.11111111111111,0)"/>
    </g>
    <use id="p" xlink:href="#aC" transform="matrix(0.06172839506172839,0,0,0.06172839506172839,0,0)"/>
    <path id="aD" d="m203,-222l-32,-4l0,-10l81,0l0,10l-31,4l0,222l-17,0l-145,-212l0,198l32,5l0,9l-81,0l0,-9l31,-5l0,-208l-31,-4l0,-10l72,0l121,175l0,-161" fill="#3a414a"/>
    <path id="aE" d="m126,-119c3,-38 -42,-31 -69,-25l0,132l23,4l0,8l-73,0l0,-8l21,-4l0,-226l-24,-4l0,-8l53,0l-1,98c31,-22 99,-31 99,31l0,109c7,3 23,-1 20,12l-71,0l0,-8l22,-4l0,-107" fill="#3a414a"/>
    <path id="aF" d="m60,-80l68,-73c-7,-3 -20,0 -17,-12l58,0c3,13 -13,9 -20,12l-47,48l60,93c7,3 21,-1 18,12l-68,0c-3,-12 9,-9 15,-12l-45,-71l-22,23l0,48c7,3 21,-1 18,12l-68,0l0,-8l21,-4l0,-226l-24,-4l0,-8l53,0l0,170" fill="#3a414a"/>
    <g id="q">
     <use id="svg_260" xlink:href="#aD" transform="matrix(0.06172839506172839,0,0,0.06172839506172839,0,0)"/>
     <use id="svg_261" xlink:href="#aw" transform="matrix(0.06172839506172839,0,0,0.06172839506172839,15.987654320987653,0)"/>
     <use id="svg_262" xlink:href="#af" transform="matrix(0.06172839506172839,0,0,0.06172839506172839,27.098765432098766,0)"/>
     <use id="svg_263" xlink:href="#aq" transform="matrix(0.06172839506172839,0,0,0.06172839506172839,44.382716049382715,0)"/>
     <use id="svg_264" xlink:href="#ag" transform="matrix(0.06172839506172839,0,0,0.06172839506172839,57.901234567901234,0)"/>
     <use id="svg_265" xlink:href="#ab" transform="matrix(0.06172839506172839,0,0,0.06172839506172839,69.01234567901234,0)"/>
     <use id="svg_266" xlink:href="#al" transform="matrix(0.06172839506172839,0,0,0.06172839506172839,75.18518518518518,0)"/>
     <use id="svg_267" xlink:href="#ab" transform="matrix(0.06172839506172839,0,0,0.06172839506172839,81.35802469135801,0)"/>
     <use id="svg_268" xlink:href="#al" transform="matrix(0.06172839506172839,0,0,0.06172839506172839,87.53086419753085,0)"/>
     <use id="svg_269" xlink:href="#ac" transform="matrix(0.06172839506172839,0,0,0.06172839506172839,93.70370370370368,0)"/>
     <use id="svg_270" xlink:href="#aj" transform="matrix(0.06172839506172839,0,0,0.06172839506172839,103.51851851851849,0)"/>
     <use id="svg_271" xlink:href="#az" transform="matrix(0.06172839506172839,0,0,0.06172839506172839,112.16049382716047,0)"/>
     <use id="svg_272" xlink:href="#ac" transform="matrix(0.06172839506172839,0,0,0.06172839506172839,124.50617283950615,0)"/>
     <use id="svg_273" xlink:href="#ad" transform="matrix(0.06172839506172839,0,0,0.06172839506172839,134.32098765432096,0)"/>
     <use id="svg_274" xlink:href="#am" transform="matrix(0.06172839506172839,0,0,0.06172839506172839,141.66666666666663,0)"/>
     <use id="svg_275" xlink:href="#aE" transform="matrix(0.06172839506172839,0,0,0.06172839506172839,156.48148148148144,0)"/>
     <use id="svg_276" xlink:href="#aw" transform="matrix(0.06172839506172839,0,0,0.06172839506172839,167.59259259259255,0)"/>
     <use id="svg_277" xlink:href="#ag" transform="matrix(0.06172839506172839,0,0,0.06172839506172839,178.70370370370367,0)"/>
     <use id="svg_278" xlink:href="#aF" transform="matrix(0.06172839506172839,0,0,0.06172839506172839,189.81481481481478,0)"/>
    </g>
    <path id="aG" d="m185,-92l0,17l-167,0l0,-17l167,0zm0,-73l0,18l-167,0l0,-18l167,0" fill="#3a414a"/>
    <use id="r" xlink:href="#aG" transform="matrix(0.06172839506172839,0,0,0.06172839506172839,0,0)"/>
    <path id="aH" d="m134,-68c4,-52 -44,-63 -88,-51l-17,0l0,-117l119,0l0,27l-103,0l0,75c60,-10 121,-2 121,64c0,73 -79,85 -143,66l-2,-50l12,0c1,28 14,43 47,43c39,0 51,-20 54,-57" fill="#3a414a"/>
    <path id="aI" d="m133,-108c-46,28 -127,15 -121,-56c4,-49 26,-74 76,-74c64,1 77,52 77,120c0,92 -54,140 -144,116l0,-41l11,0c-4,42 67,39 82,10c10,-20 17,-43 19,-75zm0,-12c-3,-48 0,-104 -45,-104c-34,0 -44,25 -44,61c0,32 10,52 43,52c17,0 33,-4 46,-9" fill="#3a414a"/>
    <path id="aJ" d="m35,-180l-11,0l0,-56l146,0l0,14l-105,222l-23,0l103,-209l-104,0" fill="#3a414a"/>
    <g id="s">
     <use id="svg_279" xlink:href="#aH" transform="matrix(0.06172839506172839,0,0,0.06172839506172839,0,0)"/>
     <use id="svg_280" xlink:href="#aI" transform="matrix(0.06172839506172839,0,0,0.06172839506172839,11.11111111111111,0)"/>
     <use id="svg_281" xlink:href="#aH" transform="matrix(0.06172839506172839,0,0,0.06172839506172839,22.22222222222222,0)"/>
     <use id="svg_282" xlink:href="#aJ" transform="matrix(0.06172839506172839,0,0,0.06172839506172839,33.33333333333333,0)"/>
    </g>
    <g id="t">
     <use id="svg_283" xlink:href="#aA" transform="matrix(0.06172839506172839,0,0,0.06172839506172839,0,0)"/>
     <use id="svg_284" xlink:href="#W" transform="matrix(0.06172839506172839,0,0,0.06172839506172839,11.11111111111111,0)"/>
     <use id="svg_285" xlink:href="#V" transform="matrix(0.06172839506172839,0,0,0.06172839506172839,22.22222222222222,0)"/>
    </g>
    <path id="aK" d="m18,-187l11,-25l55,34l-7,-58l27,0l-8,58l56,-34l11,25l-59,17l59,17l-11,25l-56,-33l8,57l-27,0l7,-57l-55,34l-11,-25l57,-18" fill="#3a414a"/>
    <use id="u" xlink:href="#aK" transform="matrix(0.06172839506172839,0,0,0.06172839506172839,0,0)"/>
    <g id="v">
     <use id="svg_286" xlink:href="#aA" transform="matrix(0.06172839506172839,0,0,0.06172839506172839,0,0)"/>
     <use id="svg_287" xlink:href="#aC" transform="matrix(0.06172839506172839,0,0,0.06172839506172839,11.11111111111111,0)"/>
     <use id="svg_288" xlink:href="#W" transform="matrix(0.06172839506172839,0,0,0.06172839506172839,22.22222222222222,0)"/>
     <use id="svg_289" xlink:href="#X" transform="matrix(0.06172839506172839,0,0,0.06172839506172839,33.33333333333333,0)"/>
    </g>
    <path id="aL" d="m13,-71l0,-27l94,0l0,27l-94,0" fill="#3a414a"/>
    <use id="w" xlink:href="#aL" transform="matrix(0.06172839506172839,0,0,0.06172839506172839,0,0)"/>
    <g id="x">
     <use id="svg_290" xlink:href="#aA" transform="matrix(0.06172839506172839,0,0,0.06172839506172839,0,0)"/>
     <use id="svg_291" xlink:href="#aC" transform="matrix(0.06172839506172839,0,0,0.06172839506172839,11.11111111111111,0)"/>
    </g>
    <path id="aM" d="m18,4l-18,0l83,-241l17,0" fill="#3a414a"/>
    <use id="y" xlink:href="#aM" transform="matrix(0.06172839506172839,0,0,0.06172839506172839,0,0)"/>
    <g id="z">
     <use id="svg_292" xlink:href="#W" transform="matrix(0.06172839506172839,0,0,0.06172839506172839,0,0)"/>
     <use id="svg_293" xlink:href="#W" transform="matrix(0.06172839506172839,0,0,0.06172839506172839,11.11111111111111,0)"/>
    </g>
    <g id="A">
     <use id="svg_294" xlink:href="#aH" transform="matrix(0.06172839506172839,0,0,0.06172839506172839,0,0)"/>
     <use id="svg_295" xlink:href="#aI" transform="matrix(0.06172839506172839,0,0,0.06172839506172839,11.11111111111111,0)"/>
     <use id="svg_296" xlink:href="#aH" transform="matrix(0.06172839506172839,0,0,0.06172839506172839,22.22222222222222,0)"/>
     <use id="svg_297" xlink:href="#aJ" transform="matrix(0.06172839506172839,0,0,0.06172839506172839,33.33333333333333,0)"/>
    </g>
    <g id="B">
     <use id="svg_298" xlink:href="#Y" transform="matrix(0.06172839506172839,0,0,0.06172839506172839,0,0)"/>
     <use id="svg_299" xlink:href="#ap" transform="matrix(0.06172839506172839,0,0,0.06172839506172839,12.345679012345679,0)"/>
     <use id="svg_300" xlink:href="#aa" transform="matrix(0.06172839506172839,0,0,0.06172839506172839,32.098765432098766,0)"/>
     <use id="svg_301" xlink:href="#aj" transform="matrix(0.06172839506172839,0,0,0.06172839506172839,41.91358024691358,0)"/>
     <use id="svg_302" xlink:href="#aj" transform="matrix(0.06172839506172839,0,0,0.06172839506172839,50.55555555555556,0)"/>
     <use id="svg_303" xlink:href="#aq" transform="matrix(0.06172839506172839,0,0,0.06172839506172839,59.19753086419753,0)"/>
     <use id="svg_304" xlink:href="#ag" transform="matrix(0.06172839506172839,0,0,0.06172839506172839,72.71604938271605,0)"/>
     <use id="svg_305" xlink:href="#ab" transform="matrix(0.06172839506172839,0,0,0.06172839506172839,83.82716049382717,0)"/>
     <use id="svg_306" xlink:href="#al" transform="matrix(0.06172839506172839,0,0,0.06172839506172839,90,0)"/>
     <use id="svg_307" xlink:href="#ab" transform="matrix(0.06172839506172839,0,0,0.06172839506172839,96.17283950617283,0)"/>
     <use id="svg_308" xlink:href="#ar" transform="matrix(0.06172839506172839,0,0,0.06172839506172839,102.34567901234567,0)"/>
     <use id="svg_309" xlink:href="#ah" transform="matrix(0.06172839506172839,0,0,0.06172839506172839,113.45679012345678,0)"/>
     <use id="svg_310" xlink:href="#aa" transform="matrix(0.06172839506172839,0,0,0.06172839506172839,129.44444444444443,0)"/>
     <use id="svg_311" xlink:href="#ag" transform="matrix(0.06172839506172839,0,0,0.06172839506172839,139.25925925925924,0)"/>
     <use id="svg_312" xlink:href="#as" transform="matrix(0.06172839506172839,0,0,0.06172839506172839,150.37037037037035,0)"/>
     <use id="svg_313" xlink:href="#at" transform="matrix(0.06172839506172839,0,0,0.06172839506172839,161.48148148148147,0)"/>
     <use id="svg_314" xlink:href="#ac" transform="matrix(0.06172839506172839,0,0,0.06172839506172839,167.6543209876543,0)"/>
    </g>
    <g id="C">
     <use id="svg_315" xlink:href="#X" transform="matrix(0.06172839506172839,0,0,0.06172839506172839,0,0)"/>
     <use id="svg_316" xlink:href="#aJ" transform="matrix(0.06172839506172839,0,0,0.06172839506172839,11.11111111111111,0)"/>
     <use id="svg_317" xlink:href="#aB" transform="matrix(0.06172839506172839,0,0,0.06172839506172839,22.22222222222222,0)"/>
     <use id="svg_318" xlink:href="#aH" transform="matrix(0.06172839506172839,0,0,0.06172839506172839,33.33333333333333,0)"/>
     <use id="svg_319" xlink:href="#aB" transform="matrix(0.06172839506172839,0,0,0.06172839506172839,44.44444444444444,0)"/>
    </g>
    <g id="D">
     <use id="svg_320" xlink:href="#Y" transform="matrix(0.06172839506172839,0,0,0.06172839506172839,0,0)"/>
     <use id="svg_321" xlink:href="#Z" transform="matrix(0.06172839506172839,0,0,0.06172839506172839,12.345679012345679,0)"/>
     <use id="svg_322" xlink:href="#aa" transform="matrix(0.06172839506172839,0,0,0.06172839506172839,31.48148148148148,0)"/>
     <use id="svg_323" xlink:href="#ab" transform="matrix(0.06172839506172839,0,0,0.06172839506172839,41.2962962962963,0)"/>
     <use id="svg_324" xlink:href="#ac" transform="matrix(0.06172839506172839,0,0,0.06172839506172839,47.46913580246914,0)"/>
     <use id="svg_325" xlink:href="#ad" transform="matrix(0.06172839506172839,0,0,0.06172839506172839,57.283950617283956,0)"/>
     <use id="svg_326" xlink:href="#Y" transform="matrix(0.06172839506172839,0,0,0.06172839506172839,64.62962962962963,0)"/>
     <use id="svg_327" xlink:href="#ad" transform="matrix(0.06172839506172839,0,0,0.06172839506172839,76.97530864197532,0)"/>
     <use id="svg_328" xlink:href="#aa" transform="matrix(0.06172839506172839,0,0,0.06172839506172839,84.320987654321,0)"/>
     <use id="svg_329" xlink:href="#ae" transform="matrix(0.06172839506172839,0,0,0.06172839506172839,94.13580246913581,0)"/>
     <use id="svg_330" xlink:href="#af" transform="matrix(0.06172839506172839,0,0,0.06172839506172839,105.24691358024693,0)"/>
     <use id="svg_331" xlink:href="#ac" transform="matrix(0.06172839506172839,0,0,0.06172839506172839,122.53086419753087,0)"/>
     <use id="svg_332" xlink:href="#ag" transform="matrix(0.06172839506172839,0,0,0.06172839506172839,132.3456790123457,0)"/>
     <use id="svg_333" xlink:href="#ab" transform="matrix(0.06172839506172839,0,0,0.06172839506172839,143.4567901234568,0)"/>
    </g>
    <path id="aN" d="m104,-123c39,3 61,21 62,59c1,71 -83,76 -147,60l-2,-50l12,0c2,29 16,43 51,43c38,0 54,-19 54,-55c2,-43 -34,-49 -75,-50l0,-14c37,0 64,-7 64,-48c0,-47 -47,-56 -81,-36l-6,29l-12,0l0,-46c51,-13 135,-13 131,51c-2,34 -20,52 -51,57" fill="#3a414a"/>
    <g id="E">
     <use id="svg_334" xlink:href="#aI" transform="matrix(0.06172839506172839,0,0,0.06172839506172839,0,0)"/>
     <use id="svg_335" xlink:href="#aH" transform="matrix(0.06172839506172839,0,0,0.06172839506172839,11.11111111111111,0)"/>
     <use id="svg_336" xlink:href="#aN" transform="matrix(0.06172839506172839,0,0,0.06172839506172839,22.22222222222222,0)"/>
     <use id="svg_337" xlink:href="#aA" transform="matrix(0.06172839506172839,0,0,0.06172839506172839,33.33333333333333,0)"/>
     <use id="svg_338" xlink:href="#W" transform="matrix(0.06172839506172839,0,0,0.06172839506172839,44.44444444444444,0)"/>
    </g>
    <g id="F">
     <use id="svg_339" xlink:href="#Y" transform="matrix(0.06172839506172839,0,0,0.06172839506172839,0,0)"/>
     <use id="svg_340" xlink:href="#ah" transform="matrix(0.06172839506172839,0,0,0.06172839506172839,12.345679012345679,0)"/>
     <use id="svg_341" xlink:href="#aa" transform="matrix(0.06172839506172839,0,0,0.06172839506172839,28.333333333333332,0)"/>
     <use id="svg_342" xlink:href="#ad" transform="matrix(0.06172839506172839,0,0,0.06172839506172839,38.148148148148145,0)"/>
     <use id="svg_343" xlink:href="#ai" transform="matrix(0.06172839506172839,0,0,0.06172839506172839,45.49382716049382,0)"/>
     <use id="svg_344" xlink:href="#ac" transform="matrix(0.06172839506172839,0,0,0.06172839506172839,56.60493827160494,0)"/>
     <use id="svg_345" xlink:href="#aj" transform="matrix(0.06172839506172839,0,0,0.06172839506172839,66.41975308641975,0)"/>
     <use id="svg_346" xlink:href="#ab" transform="matrix(0.06172839506172839,0,0,0.06172839506172839,75.06172839506172,0)"/>
     <use id="svg_347" xlink:href="#ak" transform="matrix(0.06172839506172839,0,0,0.06172839506172839,81.23456790123456,0)"/>
     <use id="svg_348" xlink:href="#al" transform="matrix(0.06172839506172839,0,0,0.06172839506172839,93.9506172839506,0)"/>
     <use id="svg_349" xlink:href="#af" transform="matrix(0.06172839506172839,0,0,0.06172839506172839,100.12345679012344,0)"/>
     <use id="svg_350" xlink:href="#ac" transform="matrix(0.06172839506172839,0,0,0.06172839506172839,117.40740740740739,0)"/>
     <use id="svg_351" xlink:href="#ad" transform="matrix(0.06172839506172839,0,0,0.06172839506172839,127.22222222222219,0)"/>
     <use id="svg_352" xlink:href="#Y" transform="matrix(0.06172839506172839,0,0,0.06172839506172839,134.56790123456787,0)"/>
     <use id="svg_353" xlink:href="#ad" transform="matrix(0.06172839506172839,0,0,0.06172839506172839,146.91358024691354,0)"/>
     <use id="svg_354" xlink:href="#aa" transform="matrix(0.06172839506172839,0,0,0.06172839506172839,154.2592592592592,0)"/>
     <use id="svg_355" xlink:href="#ae" transform="matrix(0.06172839506172839,0,0,0.06172839506172839,164.07407407407402,0)"/>
     <use id="svg_356" xlink:href="#af" transform="matrix(0.06172839506172839,0,0,0.06172839506172839,175.18518518518513,0)"/>
     <use id="svg_357" xlink:href="#ac" transform="matrix(0.06172839506172839,0,0,0.06172839506172839,192.46913580246908,0)"/>
     <use id="svg_358" xlink:href="#ag" transform="matrix(0.06172839506172839,0,0,0.06172839506172839,202.2839506172839,0)"/>
     <use id="svg_359" xlink:href="#ab" transform="matrix(0.06172839506172839,0,0,0.06172839506172839,213.395061728395,0)"/>
    </g>
    <g id="G">
     <use id="svg_360" xlink:href="#Y" transform="matrix(0.06172839506172839,0,0,0.06172839506172839,0,0)"/>
     <use id="svg_361" xlink:href="#Y" transform="matrix(0.06172839506172839,0,0,0.06172839506172839,12.345679012345679,0)"/>
     <use id="svg_362" xlink:href="#aa" transform="matrix(0.06172839506172839,0,0,0.06172839506172839,24.691358024691358,0)"/>
     <use id="svg_363" xlink:href="#ad" transform="matrix(0.06172839506172839,0,0,0.06172839506172839,34.50617283950617,0)"/>
     <use id="svg_364" xlink:href="#af" transform="matrix(0.06172839506172839,0,0,0.06172839506172839,41.85185185185185,0)"/>
     <use id="svg_365" xlink:href="#am" transform="matrix(0.06172839506172839,0,0,0.06172839506172839,59.1358024691358,0)"/>
     <use id="svg_366" xlink:href="#ad" transform="matrix(0.06172839506172839,0,0,0.06172839506172839,73.9506172839506,0)"/>
     <use id="svg_367" xlink:href="#an" transform="matrix(0.06172839506172839,0,0,0.06172839506172839,81.29629629629629,0)"/>
     <use id="svg_368" xlink:href="#ao" transform="matrix(0.06172839506172839,0,0,0.06172839506172839,92.4074074074074,0)"/>
     <use id="svg_369" xlink:href="#Y" transform="matrix(0.06172839506172839,0,0,0.06172839506172839,103.51851851851852,0)"/>
     <use id="svg_370" xlink:href="#ad" transform="matrix(0.06172839506172839,0,0,0.06172839506172839,115.8641975308642,0)"/>
     <use id="svg_371" xlink:href="#aa" transform="matrix(0.06172839506172839,0,0,0.06172839506172839,123.20987654320989,0)"/>
     <use id="svg_372" xlink:href="#ae" transform="matrix(0.06172839506172839,0,0,0.06172839506172839,133.0246913580247,0)"/>
     <use id="svg_373" xlink:href="#af" transform="matrix(0.06172839506172839,0,0,0.06172839506172839,144.13580246913583,0)"/>
     <use id="svg_374" xlink:href="#ac" transform="matrix(0.06172839506172839,0,0,0.06172839506172839,161.41975308641977,0)"/>
     <use id="svg_375" xlink:href="#ag" transform="matrix(0.06172839506172839,0,0,0.06172839506172839,171.23456790123458,0)"/>
     <use id="svg_376" xlink:href="#ab" transform="matrix(0.06172839506172839,0,0,0.06172839506172839,182.3456790123457,0)"/>
    </g>
    <g id="H">
     <use id="svg_377" xlink:href="#W" transform="matrix(0.06172839506172839,0,0,0.06172839506172839,0,0)"/>
     <use id="svg_378" xlink:href="#aN" transform="matrix(0.06172839506172839,0,0,0.06172839506172839,11.11111111111111,0)"/>
     <use id="svg_379" xlink:href="#V" transform="matrix(0.06172839506172839,0,0,0.06172839506172839,22.22222222222222,0)"/>
     <use id="svg_380" xlink:href="#W" transform="matrix(0.06172839506172839,0,0,0.06172839506172839,33.33333333333333,0)"/>
     <use id="svg_381" xlink:href="#V" transform="matrix(0.06172839506172839,0,0,0.06172839506172839,44.44444444444444,0)"/>
    </g>
    <use id="I" xlink:href="#X" transform="matrix(0.06172839506172839,0,0,0.06172839506172839,0,0)"/>
    <g id="J">
     <use id="svg_382" xlink:href="#X" transform="matrix(0.06172839506172839,0,0,0.06172839506172839,0,0)"/>
     <use id="svg_383" xlink:href="#aJ" transform="matrix(0.06172839506172839,0,0,0.06172839506172839,11.11111111111111,0)"/>
     <use id="svg_384" xlink:href="#aB" transform="matrix(0.06172839506172839,0,0,0.06172839506172839,22.22222222222222,0)"/>
     <use id="svg_385" xlink:href="#aH" transform="matrix(0.06172839506172839,0,0,0.06172839506172839,33.33333333333333,0)"/>
     <use id="svg_386" xlink:href="#aB" transform="matrix(0.06172839506172839,0,0,0.06172839506172839,44.44444444444444,0)"/>
    </g>
    <use id="K" xlink:href="#V" transform="matrix(0.06172839506172839,0,0,0.06172839506172839,0,0)"/>
    <g id="L">
     <use id="svg_387" xlink:href="#aA" transform="matrix(0.06172839506172839,0,0,0.06172839506172839,0,0)"/>
     <use id="svg_388" xlink:href="#aA" transform="matrix(0.06172839506172839,0,0,0.06172839506172839,10.308641975308642,0)"/>
     <use id="svg_389" xlink:href="#aI" transform="matrix(0.06172839506172839,0,0,0.06172839506172839,21.419753086419753,0)"/>
     <use id="svg_390" xlink:href="#aA" transform="matrix(0.06172839506172839,0,0,0.06172839506172839,32.53086419753086,0)"/>
     <use id="svg_391" xlink:href="#X" transform="matrix(0.06172839506172839,0,0,0.06172839506172839,43.641975308641975,0)"/>
     <use id="svg_392" xlink:href="#aC" transform="matrix(0.06172839506172839,0,0,0.06172839506172839,54.75308641975309,0)"/>
    </g>
    <g id="M">
     <use id="svg_393" xlink:href="#aA" transform="matrix(0.06172839506172839,0,0,0.06172839506172839,0,0)"/>
     <use id="svg_394" xlink:href="#aA" transform="matrix(0.06172839506172839,0,0,0.06172839506172839,10.308641975308642,0)"/>
     <use id="svg_395" xlink:href="#aI" transform="matrix(0.06172839506172839,0,0,0.06172839506172839,21.419753086419753,0)"/>
     <use id="svg_396" xlink:href="#aA" transform="matrix(0.06172839506172839,0,0,0.06172839506172839,32.53086419753086,0)"/>
     <use id="svg_397" xlink:href="#X" transform="matrix(0.06172839506172839,0,0,0.06172839506172839,43.641975308641975,0)"/>
    </g>
    <use id="N" xlink:href="#W" transform="matrix(0.06172839506172839,0,0,0.06172839506172839,0,0)"/>
    <g id="O">
     <use id="svg_398" xlink:href="#aA" transform="matrix(0.06172839506172839,0,0,0.06172839506172839,0,0)"/>
     <use id="svg_399" xlink:href="#aC" transform="matrix(0.06172839506172839,0,0,0.06172839506172839,11.11111111111111,0)"/>
    </g>
    <path id="aO" d="m53,-14c58,12 82,-15 82,-73c0,-52 -35,-77 -82,-58l0,131zm36,18c-25,0 -47,-6 -65,-13l0,-229l-24,-4l0,-8l53,0l-1,94c48,-33 114,-4 114,69c0,57 -23,91 -77,91" fill="#3a414a"/>
    <g id="P">
     <use id="svg_400" xlink:href="#aO" transform="matrix(0.06172839506172839,0,0,0.06172839506172839,0,0)"/>
     <use id="svg_401" xlink:href="#ar" transform="matrix(0.06172839506172839,0,0,0.06172839506172839,11.11111111111111,0)"/>
     <use id="svg_402" xlink:href="#ab" transform="matrix(0.06172839506172839,0,0,0.06172839506172839,22.22222222222222,0)"/>
     <use id="svg_403" xlink:href="#ac" transform="matrix(0.06172839506172839,0,0,0.06172839506172839,28.39506172839506,0)"/>
    </g>
    <g id="Q">
     <use id="svg_404" xlink:href="#aA" transform="matrix(0.06172839506172839,0,0,0.06172839506172839,0,0)"/>
     <use id="svg_405" xlink:href="#aN" transform="matrix(0.06172839506172839,0,0,0.06172839506172839,11.11111111111111,0)"/>
     <use id="svg_406" xlink:href="#aA" transform="matrix(0.06172839506172839,0,0,0.06172839506172839,22.22222222222222,0)"/>
     <use id="svg_407" xlink:href="#aC" transform="matrix(0.06172839506172839,0,0,0.06172839506172839,33.33333333333333,0)"/>
     <use id="svg_408" xlink:href="#aH" transform="matrix(0.06172839506172839,0,0,0.06172839506172839,44.44444444444444,0)"/>
     <use id="svg_409" xlink:href="#X" transform="matrix(0.06172839506172839,0,0,0.06172839506172839,55.55555555555556,0)"/>
    </g>
    <g id="R">
     <use id="svg_410" xlink:href="#aA" transform="matrix(0.06172839506172839,0,0,0.06172839506172839,0,0)"/>
     <use id="svg_411" xlink:href="#aN" transform="matrix(0.06172839506172839,0,0,0.06172839506172839,11.11111111111111,0)"/>
     <use id="svg_412" xlink:href="#aA" transform="matrix(0.06172839506172839,0,0,0.06172839506172839,22.22222222222222,0)"/>
     <use id="svg_413" xlink:href="#aC" transform="matrix(0.06172839506172839,0,0,0.06172839506172839,33.33333333333333,0)"/>
     <use id="svg_414" xlink:href="#aJ" transform="matrix(0.06172839506172839,0,0,0.06172839506172839,44.44444444444444,0)"/>
     <use id="svg_415" xlink:href="#W" transform="matrix(0.06172839506172839,0,0,0.06172839506172839,55.55555555555556,0)"/>
    </g>
    <use id="S" xlink:href="#V" transform="matrix(0.06172839506172839,0,0,0.06172839506172839,0,0)"/>
    <path id="aP" d="m77,-14l30,5l0,9l-94,0l0,-9l30,-5l0,-208l-30,-4l0,-10l94,0l0,10l-30,4l0,208" fill="#3a414a"/>
    <path id="aQ" d="m156,-12c7,3 23,-1 20,12l-75,0l0,-8l22,-4l-38,-58l-45,58l23,4l0,8l-60,0l0,-8l19,-3l55,-71l-48,-71c-7,-3 -23,1 -20,-12l75,0l0,8l-22,4l32,48l37,-48l-23,-4l0,-8l59,0l0,8l-19,3l-46,60" fill="#3a414a"/>
    <g id="T">
     <use id="svg_416" xlink:href="#aP" transform="matrix(0.04320987654320987,0,0,0.04320987654320987,0,0)"/>
     <use id="svg_417" xlink:href="#ag" transform="matrix(0.04320987654320987,0,0,0.04320987654320987,5.141975308641975,0)"/>
     <use id="svg_418" xlink:href="#as" transform="matrix(0.04320987654320987,0,0,0.04320987654320987,12.91975308641975,0)"/>
     <use id="svg_419" xlink:href="#ac" transform="matrix(0.04320987654320987,0,0,0.04320987654320987,20.697530864197525,0)"/>
     <use id="svg_420" xlink:href="#aQ" transform="matrix(0.04320987654320987,0,0,0.04320987654320987,27.56790123456789,0)"/>
    </g>
    <g id="U">
     <use id="svg_421" xlink:href="#av" transform="matrix(0.04320987654320987,0,0,0.04320987654320987,0,0)"/>
     <use id="svg_422" xlink:href="#ac" transform="matrix(0.04320987654320987,0,0,0.04320987654320987,8.641975308641973,0)"/>
     <use id="svg_423" xlink:href="#ad" transform="matrix(0.04320987654320987,0,0,0.04320987654320987,15.512345679012343,0)"/>
     <use id="svg_424" xlink:href="#al" transform="matrix(0.04320987654320987,0,0,0.04320987654320987,20.654320987654316,0)"/>
     <use id="svg_425" xlink:href="#aa" transform="matrix(0.04320987654320987,0,0,0.04320987654320987,24.975308641975303,0)"/>
     <use id="svg_426" xlink:href="#at" transform="matrix(0.04320987654320987,0,0,0.04320987654320987,31.845679012345673,0)"/>
     <use id="svg_427" xlink:href="#aD" transform="matrix(0.04320987654320987,0,0,0.04320987654320987,36.16666666666666,0)"/>
     <use id="svg_428" xlink:href="#aw" transform="matrix(0.04320987654320987,0,0,0.04320987654320987,47.35802469135801,0)"/>
     <use id="svg_429" xlink:href="#af" transform="matrix(0.04320987654320987,0,0,0.04320987654320987,55.13580246913579,0)"/>
     <use id="svg_430" xlink:href="#aO" transform="matrix(0.04320987654320987,0,0,0.04320987654320987,67.23456790123456,0)"/>
     <use id="svg_431" xlink:href="#ac" transform="matrix(0.04320987654320987,0,0,0.04320987654320987,75.01234567901233,0)"/>
     <use id="svg_432" xlink:href="#ad" transform="matrix(0.04320987654320987,0,0,0.04320987654320987,81.8827160493827,0)"/>
    </g>
   </defs>
  </g>
 </g>
</svg>