<svg xmlns="http://www.w3.org/2000/svg" xmlns:xlink="http://www.w3.org/1999/xlink" xmlns:lucid="lucid" width="1570.69" height="1288.65"><g transform="translate(-40 10.041)" lucid:page-tab-id="0_0"><path d="M786.18 1134.88a18.14 18.14 0 0 0 10.82 3.58h417a6 6 0 0 1 6 6v102a6 6 0 0 1-6 6H66a6 6 0 0 1-6-6v-128a6 6 0 0 1 6-6h684a18.14 18.14 0 0 1 10.82 3.58zM60 1138.46h731" stroke="#3a414a" fill="#fff0fb"/><use xlink:href="#a" transform="translate(68 1130.237)"/><path d="M464 1182.88a6 6 0 0 1 6-6h228a6 6 0 0 1 6 6v28a6 6 0 0 1-6 6H470a6 6 0 0 1-6-6z" stroke="#3a414a" fill="#cfe4ff"/><use xlink:href="#a" transform="translate(533.45 1202.163)"/><path d="M744 1172.88a6 6 0 0 1 6-6h228a6 6 0 0 1 6 6v48a6 6 0 0 1-6 6H750a6 6 0 0 1-6-6z" fill="none"/><use xlink:href="#b" transform="translate(749 1202.163)"/><use xlink:href="#c" transform="translate(795.235 1202.163)"/><use xlink:href="#d" transform="translate(817.457 1202.163)"/><use xlink:href="#e" transform="translate(839.679 1202.163)"/><use xlink:href="#f" transform="translate(861.901 1202.163)"/><path d="M786.18 669.3a18.14 18.14 0 0 0 10.82 3.6h417a6 6 0 0 1 6 6v382a6 6 0 0 1-6 5.98H66a6 6 0 0 1-6-6v-408a6 6 0 0 1 6-6h684a18.14 18.14 0 0 1 10.82 3.58zM60 672.9h731" stroke="#3a414a" fill="#fff3d9"/><use xlink:href="#g" transform="translate(68 664.663)"/><path d="M95.13 755.34a6 6 0 0 1 6-6h205.74a6 6 0 0 1 6 6v34.9a6 6 0 0 1-6 6H101.13a6 6 0 0 1-6-6z" stroke="#3a414a" fill="#cfe4ff"/><use xlink:href="#h" transform="translate(151.17 775.935)"/><path d="M965.57 757.07a6 6 0 0 1 6-6h200.68a6 6 0 0 1 6 6v31.44a6 6 0 0 1-6 6H971.57a6 6 0 0 1-6-6z" stroke="#3a414a" fill="#cfe4ff"/><use xlink:href="#i" transform="translate(988.31 777.093)"/><path d="M387.87 755.34a6 6 0 0 1 6-6h188a6 6 0 0 1 6 6v34.9a6 6 0 0 1-6 6h-188a6 6 0 0 1-6-6z" stroke="#3a414a" fill="#cfe4ff"/><use xlink:href="#j" transform="translate(413.309 775.935)"/><path d="M662.87 755.34a6 6 0 0 1 6-6h215.7a6 6 0 0 1 6 6v34.9a6 6 0 0 1-6 6h-215.7a6 6 0 0 1-6-6z" stroke="#3a414a" fill="#cfe4ff"/><use xlink:href="#k" transform="translate(678.327 775.935)"/><path d="M244 853.62a6 6 0 0 1 6-6h200.68a6 6 0 0 1 6 6v31.45a6 6 0 0 1-6 6H250a6 6 0 0 1-6-6z" stroke="#3a414a" fill="#cfe4ff"/><use xlink:href="#l" transform="translate(278.993 873.65)"/><path d="M244 915.07a6 6 0 0 1 6-6h200.68a6 6 0 0 1 6 6v31.44a6 6 0 0 1-6 6H250a6 6 0 0 1-6-6z" stroke="#3a414a" fill="#cfe4ff"/><use xlink:href="#m" transform="translate(304.332 935.093)"/><path d="M854.4 1015.34a6 6 0 0 1 6-6h200.68a6 6 0 0 1 6 6v31.45a6 6 0 0 1-6 6H860.4a6 6 0 0 1-6-6z" stroke="#3a414a" fill="#cfe4ff"/><use xlink:href="#n" transform="translate(904.795 1035.372)"/><path d="M733.36 853.62a6 6 0 0 1 6-6h200.68a6 6 0 0 1 6 6v31.45a6 6 0 0 1-6 6H739.36a6 6 0 0 1-6-6z" stroke="#3a414a" fill="#cfe4ff"/><use xlink:href="#o" transform="translate(777.67 873.65)"/><path d="M733.36 915.07a6 6 0 0 1 6-6h200.68a6 6 0 0 1 6 6v31.44a6 6 0 0 1-6 6H739.36a6 6 0 0 1-6-6z" stroke="#3a414a" fill="#cfe4ff"/><use xlink:href="#p" transform="translate(767.701 935.093)"/><path d="M184 1015.34a6 6 0 0 1 6-6h200.68a6 6 0 0 1 6 6v31.45a6 6 0 0 1-6 6H190a6 6 0 0 1-6-6z" stroke="#3a414a" fill="#cfe4ff"/><use xlink:href="#q" transform="translate(225.721 1035.372)"/><path d="M504 1013.62a6 6 0 0 1 6-6h215.7a6 6 0 0 1 6 6v34.9a6 6 0 0 1-6 6H510a6 6 0 0 1-6-6z" stroke="#3a414a" fill="#cfe4ff"/><use xlink:href="#r" transform="translate(528.067 1034.213)"/><path d="M84 713.62a6 6 0 0 1 6-6h228a6 6 0 0 1 6 6v16.2a6 6 0 0 1-6 6H90a6 6 0 0 1-6-6z" fill="none"/><use xlink:href="#s" transform="translate(91.84 731.588)"/><use xlink:href="#t" transform="translate(114.062 731.588)"/><use xlink:href="#u" transform="translate(195.42 731.588)"/><use xlink:href="#v" transform="translate(217.642 731.588)"/><use xlink:href="#w" transform="translate(239.864 731.588)"/><path d="M367.87 713.62a6 6 0 0 1 6-6h228a6 6 0 0 1 6 6v16.2a6 6 0 0 1-6 6h-228a6 6 0 0 1-6-6z" fill="none"/><use xlink:href="#x" transform="translate(443.427 731.588)"/><use xlink:href="#y" transform="translate(465.65 731.588)"/><use xlink:href="#z" transform="translate(487.871 731.588)"/><use xlink:href="#A" transform="translate(510.094 731.588)"/><path d="M656.72 713.62a6 6 0 0 1 6-6h228a6 6 0 0 1 6 6v16.2a6 6 0 0 1-6 6h-228a6 6 0 0 1-6-6z" fill="none"/><use xlink:href="#B" transform="translate(732.276 731.588)"/><use xlink:href="#C" transform="translate(754.498 731.588)"/><use xlink:href="#D" transform="translate(776.72 731.588)"/><use xlink:href="#E" transform="translate(798.943 731.588)"/><path d="M945.57 713.62a6 6 0 0 1 6-6h228a6 6 0 0 1 6 6v16.2a6 6 0 0 1-6 6h-228a6 6 0 0 1-6-6z" fill="none"/><use xlink:href="#F" transform="translate(976.218 731.588)"/><use xlink:href="#G" transform="translate(1088.255 731.588)"/><use xlink:href="#H" transform="translate(1110.477 731.588)"/><use xlink:href="#I" transform="translate(1132.7 731.588)"/><path d="M424 861.25a6 6 0 0 1 6-6h228a6 6 0 0 1 6 6v16.2a6 6 0 0 1-6 6H430a6 6 0 0 1-6-6z" fill="none"/><use xlink:href="#J" transform="translate(471.346 879.211)"/><use xlink:href="#K" transform="translate(493.568 879.211)"/><use xlink:href="#L" transform="translate(515.79 879.211)"/><use xlink:href="#M" transform="translate(538.012 879.211)"/><use xlink:href="#N" transform="translate(565.79 879.211)"/><path d="M424 920.26a6 6 0 0 1 6-6h228a6 6 0 0 1 6 6v16.2a6 6 0 0 1-6 6H430a6 6 0 0 1-6-6z" fill="none"/><use xlink:href="#O" transform="translate(499.03 938.228)"/><use xlink:href="#P" transform="translate(544.525 938.228)"/><use xlink:href="#Q" transform="translate(566.747 938.228)"/><path d="M924 861.25a6 6 0 0 1 6-6h228a6 6 0 0 1 6 6v16.2a6 6 0 0 1-6 6H930a6 6 0 0 1-6-6z" fill="none"/><use xlink:href="#R" transform="translate(994.648 879.211)"/><use xlink:href="#S" transform="translate(1016.87 879.211)"/><path d="M924 922.7a6 6 0 0 1 6-6h228a6 6 0 0 1 6 6v16.18a6 6 0 0 1-6 6H930a6 6 0 0 1-6-6z" fill="none"/><use xlink:href="#T" transform="translate(971.593 940.654)"/><use xlink:href="#U" transform="translate(993.815 940.654)"/><use xlink:href="#V" transform="translate(1021.593 940.654)"/><path d="M497.85 976.5a6 6 0 0 1 6-6h228a6 6 0 0 1 6 6v16.2a6 6 0 0 1-6 6h-228a6 6 0 0 1-6-6z" fill="none"/><use xlink:href="#W" transform="translate(554.608 994.473)"/><use xlink:href="#X" transform="translate(576.83 994.473)"/><use xlink:href="#Y" transform="translate(599.053 994.473)"/><use xlink:href="#Z" transform="translate(626.83 994.473)"/><path d="M840.74 976.5a6 6 0 0 1 6-6h228a6 6 0 0 1 6 6v16.2a6 6 0 0 1-6 6h-228a6 6 0 0 1-6-6z" fill="none"/><use xlink:href="#aa" transform="translate(916.298 994.473)"/><use xlink:href="#ab" transform="translate(938.52 994.473)"/><use xlink:href="#ac" transform="translate(960.743 994.473)"/><use xlink:href="#ad" transform="translate(982.965 994.473)"/><path d="M184 972.83a6 6 0 0 1 6-6h228a6 6 0 0 1 6 6v16.2a6 6 0 0 1-6 6H190a6 6 0 0 1-6-6z" fill="none"/><use xlink:href="#ae" transform="translate(239.278 990.793)"/><use xlink:href="#af" transform="translate(261.5 990.793)"/><path d="M786.18 344.68a18.14 18.14 0 0 0 10.82 3.57h417a6 6 0 0 1 6 6v242a6 6 0 0 1-6 6H66a6 6 0 0 1-6-6v-268a6 6 0 0 1 6-6h684a18.14 18.14 0 0 1 10.82 3.58zM60 348.25h731" stroke="#3a414a" fill="#fff7a1"/><use xlink:href="#ag" transform="translate(68 340.032)"/><path d="M444 362.9a6 6 0 0 1 6-6h215.7a6 6 0 0 1 6 6v34.87a6 6 0 0 1-6 6H450a6 6 0 0 1-6-6z" stroke="#3a414a" fill="#cfe4ff"/><use xlink:href="#ah" transform="translate(493.345 383.476)"/><path d="M624 372.23a6 6 0 0 1 6-6h228a6 6 0 0 1 6 6v16.2a6 6 0 0 1-6 6H630a6 6 0 0 1-6-6z" fill="none"/><use xlink:href="#B" transform="translate(699.556 390.195)"/><use xlink:href="#C" transform="translate(721.778 390.195)"/><use xlink:href="#D" transform="translate(744 390.195)"/><use xlink:href="#E" transform="translate(766.222 390.195)"/><path d="M127.45 421.84a6 6 0 0 1 6-6h215.7a6 6 0 0 1 6 6v34.88a6 6 0 0 1-6 6h-215.7a6 6 0 0 1-6-6z" stroke="#3a414a" fill="#cfe4ff"/><use xlink:href="#ai" transform="translate(165.715 442.427)"/><path d="M127.45 522.9a6 6 0 0 1 6-6h215.7a6 6 0 0 1 6 6v34.87a6 6 0 0 1-6 6h-215.7a6 6 0 0 1-6-6z" stroke="#3a414a" fill="#cfe4ff"/><use xlink:href="#aj" transform="translate(168.74 543.476)"/><path d="M684 421.84a6 6 0 0 1 6-6h215.7a6 6 0 0 1 6 6v34.88a6 6 0 0 1-6 6H690a6 6 0 0 1-6-6z" stroke="#3a414a" fill="#cfe4ff"/><use xlink:href="#ak" transform="translate(711.77 442.427)"/><path d="M657.87 522.9a6 6 0 0 1 6-6h275.7a6 6 0 0 1 6 6v34.87a6 6 0 0 1-6 6h-275.7a6 6 0 0 1-6-6z" stroke="#3a414a" fill="#cfe4ff"/><use xlink:href="#al" transform="translate(678.697 543.476)"/><path d="M329.8 430.2a6 6 0 0 1 6-6h228a6 6 0 0 1 6 6v16.2a6 6 0 0 1-6 6h-228a6 6 0 0 1-6-6z" fill="none"/><use xlink:href="#am" transform="translate(413.12 448.17)"/><use xlink:href="#an" transform="translate(442.01 448.17)"/><use xlink:href="#ao" transform="translate(464.232 448.17)"/><path d="M330.25 532.23a6 6 0 0 1 6-6h228a6 6 0 0 1 6 6v16.2a6 6 0 0 1-6 6h-228a6 6 0 0 1-6-6z" fill="none"/><use xlink:href="#ap" transform="translate(428.033 550.195)"/><use xlink:href="#aq" transform="translate(450.255 550.195)"/><path d="M896.72 431.18a6 6 0 0 1 6-6h228a6 6 0 0 1 6 6v16.2a6 6 0 0 1-6 6h-228a6 6 0 0 1-6-6z" fill="none"/><use xlink:href="#am" transform="translate(957.832 449.147)"/><use xlink:href="#ar" transform="translate(986.72 449.147)"/><use xlink:href="#as" transform="translate(1008.943 449.147)"/><use xlink:href="#z" transform="translate(1031.165 449.147)"/><use xlink:href="#A" transform="translate(1053.387 449.147)"/><path d="M896.72 528.88a6 6 0 0 1 6-6h228a6 6 0 0 1 6 6v16.2a6 6 0 0 1-6 6h-228a6 6 0 0 1-6-6z" fill="none"/><use xlink:href="#at" transform="translate(976.967 546.843)"/><use xlink:href="#au" transform="translate(1012.03 546.843)"/><use xlink:href="#aq" transform="translate(1034.251 546.843)"/><path d="M666.78 190.16a11.1 11.1 0 0 0 9.3 5.02H874a6 6 0 0 1 6 6v61.92a6 6 0 0 1-6 6H319.07a6 6 0 0 1-6-6v-87.92a6 6 0 0 1 6-6h328a11.1 11.1 0 0 1 9.28 5.02zm-353.7 5.02h357" stroke="#3a414a" fill="#c3f7c8"/><use xlink:href="#av" transform="translate(321.067 186.958)"/><path d="M369.98 217.8a6 6 0 0 1 6-6h215.7a6 6 0 0 1 6 6v34.9a6 6 0 0 1-6 6h-215.7a6 6 0 0 1-6-6z" stroke="#3a414a" fill="#cfe4ff"/><use xlink:href="#av" transform="translate(430.372 238.394)"/><path d="M582.7 227.15a6 6 0 0 1 6-6h228a6 6 0 0 1 6 6v16.2a6 6 0 0 1-6 6h-228a6 6 0 0 1-6-6z" fill="none"/><use xlink:href="#aw" transform="translate(625.476 245.113)"/><use xlink:href="#ax" transform="translate(647.698 245.113)"/><use xlink:href="#ay" transform="translate(669.92 245.113)"/><use xlink:href="#az" transform="translate(692.143 245.113)"/><use xlink:href="#au" transform="translate(735.476 245.113)"/><use xlink:href="#aq" transform="translate(757.698 245.113)"/><path d="M666.78 40.98a11.1 11.1 0 0 0 9.3 5.02H874a6 6 0 0 1 6 6v61.92a6 6 0 0 1-6 6H319.07a6 6 0 0 1-6-6V26a6 6 0 0 1 6-6h328a11.1 11.1 0 0 1 9.28 5.02zM313.08 46h357" stroke="#3a414a" fill="#fff3d9"/><use xlink:href="#aA" transform="translate(321.067 37.778)"/><path d="M370.64 65.5a6 6 0 0 1 6-6h215.7a6 6 0 0 1 6 6v34.9a6 6 0 0 1-6 6h-215.7a6 6 0 0 1-6-6z" stroke="#3a414a" fill="#cfe4ff"/><use xlink:href="#aA" transform="translate(431.157 86.098)"/><path d="M583.36 74.85a6 6 0 0 1 6-6h228a6 6 0 0 1 6 6v16.2a6 6 0 0 1-6 6h-228a6 6 0 0 1-6-6z" fill="none"/><use xlink:href="#aB" transform="translate(658.916 92.818)"/><use xlink:href="#aC" transform="translate(681.138 92.818)"/><use xlink:href="#au" transform="translate(703.36 92.818)"/><use xlink:href="#aq" transform="translate(725.582 92.818)"/><path d="M1280 522.9a6 6 0 0 1 6-6h298.7a6 6 0 0 1 6 6v729.7a6 6 0 0 1-6 6H1286a6 6 0 0 1-6-6z" stroke="#3a414a" fill="#fff"/><use xlink:href="#aD" transform="translate(1292 546.663)"/><path d="M1326.55 592.15a6 6 0 0 1 6-6h215.6a6 6 0 0 1 6 6v52.53a6 6 0 0 1-6 6h-215.6a6 6 0 0 1-6-6z" stroke="#3a414a" fill="#edf5ff"/><use xlink:href="#aE" transform="translate(1392.501 622.207)"/><path d="M1326.55 731.68a6 6 0 0 1 6-6h215.6a6 6 0 0 1 6 6v52.54a6 6 0 0 1-6 6h-215.6a6 6 0 0 1-6-6z" stroke="#3a414a" fill="#edf5ff"/><use xlink:href="#aF" transform="translate(1390.094 761.74)"/><path d="M1326.55 1150.28a6 6 0 0 1 6-6h215.6a6 6 0 0 1 6 6v52.54a6 6 0 0 1-6 6h-215.6a6 6 0 0 1-6-6z" stroke="#3a414a" fill="#edf5ff"/><use xlink:href="#aG" transform="translate(1398.55 1180.342)"/><path d="M1326.55 871.2a6 6 0 0 1 6-6h215.6a6 6 0 0 1 6 6v52.55a6 6 0 0 1-6 6h-215.6a6 6 0 0 1-6-6z" stroke="#3a414a" fill="#edf5ff"/><use xlink:href="#aH" transform="translate(1380.217 901.274)"/><path d="M1326.55 1010.75a6 6 0 0 1 6-6h215.6a6 6 0 0 1 6 6v52.53a6 6 0 0 1-6 6h-215.6a6 6 0 0 1-6-6z" stroke="#3a414a" fill="#edf5ff"/><use xlink:href="#aI" transform="translate(1335.835 1040.808)"/><path d="M805.57 15.96a6 6 0 0 1 6-6h148a6 6 0 0 1 6 6v114c-26.72-20.04-43.36-20.04-53.44-20.04-16 0-37.28 20.04-53.28 20.04-9.92 0-26.72 0-53.28-20.04z" stroke="#3a414a" fill="#fff"/><use xlink:href="#aJ" transform="translate(819.273 52.424)"/><use xlink:href="#aK" transform="translate(847.051 52.424)"/><use xlink:href="#aL" transform="translate(852.236 79.091)"/><use xlink:href="#aM" transform="translate(874.458 79.091)"/><use xlink:href="#aN" transform="translate(896.68 79.091)"/><path d="M645 1055.5v40.08" stroke="#3a414a" fill="none"/><path d="M645.5 1055.52h-1v-.5h1z" stroke="#3a414a" stroke-width=".05" fill="#3a414a"/><path d="m645 1110.34-4.63-14.26h9.26z" stroke="#3a414a" fill="#3a414a"/><path d="M640 603.25V630" stroke="#3a414a" fill="none"/><path d="M640.5 603.27h-1v-.52h1z" stroke="#3a414a" stroke-width=".05" fill="#3a414a"/><path d="m640 644.77-4.63-14.27h9.26z" stroke="#3a414a" fill="#3a414a"/><path d="M641 270.1v35.27" stroke="#3a414a" fill="none"/><path d="M641.5 270.1h-1v-.5h1z" stroke="#3a414a" stroke-width=".05" fill="#3a414a"/><path d="m641 320.14-4.63-14.27h9.26z" stroke="#3a414a" fill="#3a414a"/><path d="M639 120.92v31.38" stroke="#3a414a" fill="none"/><path d="M639.5 120.93h-1v-.5h1z" stroke="#3a414a" stroke-width=".05" fill="#3a414a"/><path d="m639 167.06-4.63-14.26h9.26z" stroke="#3a414a" fill="#3a414a"/><defs><path fill="#3a414a" d="M152 0h-7L59-203v189l32 5v9H10v-9l31-5v-208l-31-4v-10h72l76 180 84-180h68v10l-31 4v208l31 5v9h-96v-9l32-5v-189" id="aO"/><path fill="#3a414a" d="M32-163c41-10 102-14 102 39v112c8 3 24-2 21 12h-45l-4-17C83 13 3 13 13-46c-2-50 45-50 92-51 4-36-5-70-42-56-6 2-12 4-16 6-4 7 0 23-15 20v-36zM42-47c0 41 41 33 63 22v-59c-34 1-63-1-63 37" id="aP"/><path fill="#3a414a" d="M41-130c7 48 86 23 86 84 0 56-69 57-112 41v-40c20 0 9 29 31 31 35 19 77-26 41-50-27-18-72-13-72-59 0-50 58-52 100-41v36c-19 1-8-25-28-25-21-7-50-1-46 23" id="aQ"/><path fill="#3a414a" d="m10-9 31-5v-208l-31-4v-10h177v57h-11l-6-38c-28-4-63-3-95-3v92h63l6-28h11v73h-11l-6-29H75v96l105-3 10-43h12l-3 62H10v-9" id="aR"/><path fill="#3a414a" d="M125-118c4-37-41-34-68-26v132l23 4v8H8C5-13 21-9 28-12v-141c-7-3-23 1-20-12h47l2 13c31-23 98-29 98 31v109c7 3 23-1 20 12h-72v-8l22-4v-106" id="aS"/><path fill="#3a414a" d="M54-38c-1 25 24 26 44 20v12C71 10 25 9 25-35v-115H4c-2-14 14-10 21-15l18-38h11v38h38v15H54v112" id="aT"/><path fill="#3a414a" d="M47-200c-23 0-25-39 0-38 13 0 18 7 20 19-1 11-8 19-20 19zM65-12l28 4v8H8v-8l28-4v-141l-24-4v-8h53v153" id="aU"/><path fill="#3a414a" d="M161-154 85 37C75 66 49 86 8 75V39c18-2 6 24 29 21 30-4 38-32 47-58L21-153c-7-3-20 0-17-12h77v8l-26 4 45 116 43-116-26-4v-8h62v8" id="aV"/><path fill="#3a414a" d="M52-115c0 93 80 130 150 87l7-35h11l-1 55c-23 7-52 12-83 12C60 4 19-37 15-115c-5-113 97-141 201-114l1 51h-12l-5-30c-15-9-39-16-62-16-66 0-86 41-86 109" id="aW"/><path fill="#3a414a" d="M178-68c0 79-95 82-154 59v-54h12c1 35 22 52 60 52 50 0 69-58 33-82-39-24-105-21-105-85 0-67 86-66 142-53v49h-12l-6-29c-31-27-121-7-89 42 28 43 119 24 119 101" id="aX"/><path fill="#3a414a" d="M129-104c-6-14-23-20-41-31v-33c15-2 58 7 45-11-7-4-14-9-18-14-8 6-10 18-27 15 2-24-6-59 6-72-5-5-20-4-25-8 4 17 1 57 2 80H22l5 10h34C49-100 40-92 18-27c26-39 39-66 53-119l2 200c5-3 13-3 15-8v-175c17 8 16 31 33 40 5 0 8-7 8-15zm169-141-18 19H155l-19-10c10 86 1 192 4 285 5 5 20-2 16-14h172c7 0 8-8 2-11-8-4-15-8-20-15l-16 16H156v-242h163c7 0 6-8 1-11-9-4-16-9-22-17zm-11 52-16 19h-98l6 9h50v61h-46l5 10h41v70h-57l5 9h133c8 1 9-7 2-11-8-4-15-10-20-16l-16 18h-30v-70c17-3 47 7 54-6-5-8-21-13-24-21-8 8-11 20-30 17v-61h59c11 1 10-8 2-10-9-5-15-11-20-18" id="aY"/><path fill="#3a414a" d="M177-197c1-4 17-9 7-15-5-3-10-8-14-14-8 12-29 12-50 11 3-13 5-29 12-36-5-4-18-5-26-10 3 15 0 33-2 46H32l5 9h65c-14 55-34 82-84 108l3 2c57-21 81-50 97-110h43c-10 64 4 84-55 75v4c14 4 21 13 29 22 42-17 30-24 42-92zm131-7c-2-7 22-12 7-19-4-3-9-6-14-11l-10 12c-30-2-71 6-89-8 9 34 2 82 4 122 2 7 12-1 15-3v-20h71c1 5-3 17 3 17 4-1 12-1 13-5v-85zm-87 63v-71h71v71h-71zm-63 70C121-19 77 10 18 35l1 4C85 17 129-7 166-55c2 36-4 80 2 112 5-3 11-4 15-8V-69c29 53 66 78 112 102 9-8 22-12 37-12l2-4C271 2 220-28 186-71h130c9 0 11-7 3-11-9-4-16-12-21-18l-16 19h-99c-4-13 12-21 0-24-8-2-15-2-20-4 1 6 3 15 3 28H30l6 10h122" id="aZ"/><path fill="#3a414a" d="M18-9c52-17 85-35 115-73h90c7 25 57 62 77 69 12-8 23-13 36-13v-4c-52-10-75-20-107-52h95c7 1 11-9 2-11-8-5-15-10-20-16l-16 17h-44v-115h66c10 1 10-9 2-11-9-5-15-11-20-18l-17 19h-31c-2-17 2-27 7-35-5-4-18-4-26-9 3 10 2 30 2 44H117c-2-17 3-27 7-37l-27-8c4 10 3 30 3 45H32l5 10h63v115H17l5 10h89C86-48 56-30 17-13zm99-83v-32h112v32H117zm0-42v-31h112v31H117zm0-40v-33h112v33H117zm64 143c-2-16 3-26 7-34-5-4-18-4-26-9 4 9 3 29 3 43H92l5 10h68v52H33l5 9h268c11 1 12-9 3-11-9-5-16-11-21-18l-16 20h-91v-52h66c8 1 10-9 2-11-8-5-15-11-20-17l-16 18h-32" id="ba"/><path fill="#3a414a" d="M133-112c1-7 16-15 3-21-5-3-10-6-15-12l-11 12c-15-1-35 3-46-3 7-20 13-47 20-81h59c9 0 9-8 1-10-8-5-14-11-19-17l-16 18H21c3 15 28 7 44 9-9 82-24 111-46 165 15-19 27-39 36-59V36c1 8 11 1 14 1 5-6 1-19 2-28h46c-2 12 5 12 13 7 2-1 3-2 3-3v-125zM71-1v-122h46V-1H71zm85 25c-8 16 12 25 21 14h126c1 5-2 14 2 16 5-3 14-2 15-8V-63c-2-10 13-15 0-18-8-1-14-2-19-4 4 28 1 79 2 113h-56v-142h54c0 4-1 11 1 13 5-3 12-3 15-8 3-35-7-85 6-109-3-7-20-4-25-8 5 24 2 72 3 103h-54c3-43-8-102 7-131l-26-8c7 39 1 94 3 139h-52c3-29-6-73 5-92-4-9-16-2-28-10 12 25 4 64 6 98-11 22 13 22 21 13h48V28h-58v-91c-2-11 13-12 1-16-5 0-13-2-23-6 11 29 2 72 5 109" id="bb"/><path fill="#3a414a" d="M52-115c0 90 69 126 140 93v-67l-30-5v-9h87v9l-23 5v77c-27 8-56 16-90 16C59 2 15-37 15-115c-1-82 41-123 122-123 31 0 59 4 83 10v51h-12l-5-29c-15-12-38-18-65-18-66-1-86 42-86 109" id="bc"/><path fill="#3a414a" d="M126-118c4-37-42-32-68-25v131l24 4v8H8C5-13 21-9 28-12v-141c-7-3-23 1-20-12h48l1 13c22-15 77-30 92 2 32-22 104-36 104 29v109c8 3 24-2 21 12h-75v-8l25-4v-106c3-39-45-31-72-24 7 37 1 88 3 130l25 4v8h-78v-8l24-4v-106" id="bd"/><path fill="#3a414a" d="M84-170c49 0 66 33 63 87H46c-8 60 38 80 95 63v10C128-2 108 4 88 4 34 4 14-29 14-84c-1-54 22-86 70-86zm33 73c12-57-57-82-69-24-1 7-2 15-2 24h71" id="be"/><path fill="#3a414a" d="M166-85c3 67-44 102-111 85l1 64 29 4v9H6v-9l21-4v-217c-7-3-22 1-19-12h46l1 9c11-8 26-14 45-14 47 2 64 36 66 85zM56-13c53 14 83-14 78-72 7-53-33-79-78-60v132" id="bf"/><path fill="#3a414a" d="m65-12 28 4v8H7v-8l28-4v-226l-28-4v-8h58v238" id="bg"/><path fill="#3a414a" d="M81-9v9H4v-9l26-5 81-224h33l83 224 30 5v9h-99v-9l31-5-23-68H73L49-14zm38-203L78-98h82" id="bh"/><path fill="#3a414a" d="M45-84c0 64 52 80 104 63 1 25-30 25-55 25-56 0-80-32-80-88 0-76 62-98 131-80v46h-10c-5-15-4-31-23-35-47-10-67 21-67 69" id="bi"/><path fill="#3a414a" d="M90-170c52 0 76 32 76 87 0 54-24 87-77 87-51 0-75-34-75-87 0-54 24-87 76-87zM89-10c39 0 46-35 46-73 0-39-7-73-46-73-39 1-44 34-44 73s6 72 44 73" id="bj"/><path fill="#3a414a" d="M57-145c16-10 35-24 60-25v45c-19 1-8-30-40-17l-20 6v124l29 4v8H7v-8l21-4v-141c-8-3-24 2-21-12h48" id="bk"/><path fill="#3a414a" d="M130-224c-62 0-78 43-78 106 0 64 16 108 78 108s78-45 78-108-16-106-78-106zm0 228C53 4 15-39 15-118c-1-80 37-120 115-120s115 42 115 120C245-39 207 4 130 4" id="bl"/><path fill="#3a414a" d="M53-14c58 12 82-15 82-73 0-52-35-77-82-58v131zM89 4C64 4 42-2 24-9v-229l-24-4v-8h53l-1 94c48-33 114-4 114 69 0 57-23 91-77 91" id="bm"/><path fill="#3a414a" d="M50-238c28 0 22 38 0 38-10-2-19-7-19-19s7-18 19-19zM3 58c24 15 35-10 35-42v-169l-25-4v-8h54V7c4 51-28 81-77 66V38C3 36-1 51 3 58" id="bn"/><path fill="#3a414a" d="M199-173c-1 36-21 56-49 65l64 94 26 5v9h-57l-66-103H75v89l35 5v9H13v-9l28-5v-208l-31-4v-10c80 4 190-20 189 63zM75-119c50 2 89-1 89-51 0-49-39-52-89-50v101" id="bo"/><path fill="#3a414a" d="M75-17c87 13 134-18 134-103 0-78-51-106-134-100v203zm171-102C246 5 139 7 10 0v-9l31-5v-208l-31-4v-10h107c82 0 129 35 129 117" id="bp"/><path fill="#3a414a" d="M124-13C89 8 26 15 26-45v-108c-8-3-24 2-21-12h50v118c-3 37 42 32 69 25v-131l-25-4v-8h54v153c8 3 24-2 21 12h-48" id="bq"/><path fill="#3a414a" d="M141-152c28 39 5 97-54 97-9 0-20-2-27-3L49-35c29 22 130-14 124 52-4 45-38 57-88 61C21 83-8 26 45-2 33-6 22-15 21-31l28-31c-19-9-28-26-28-51-2-51 53-65 100-52l38-20 7 8zM85 64c35 0 61-11 61-42 0-35-57-17-89-21-9 8-16 19-17 34 0 25 19 29 45 29zM52-113c1 26 7 46 35 44 28-1 34-16 35-44 0-26-6-43-34-43s-36 17-36 43" id="br"/><path fill="#3a414a" d="M164-154 98 4H85L17-153c-7-3-20 0-17-12h77v8l-26 4L99-38l46-115-26-4v-8h61v8" id="bs"/><path fill="#3a414a" d="m111-226-36 4v207c33-1 73 2 101-4l11-49h11l-3 68H10v-9l31-5v-208l-31-4v-10h101v10" id="bt"/><path fill="#3a414a" d="M240-154 185 4h-14l-41-109L90 4H77L20-153c-7-3-23 1-20-12h79v8l-27 4L91-41l40-108h14l40 109 38-113-28-4v-8h63v8" id="bu"/><path fill="#3a414a" d="M187-168c1-28-4-64 7-79-6-4-20-4-29-9 8 22 2 59 4 88H93c8-16 15-34 21-53 3-6 24-10 7-15-6-2-13-6-21-11-20 83-35 115-78 169l1 4c26-18 49-52 66-85h80v84H56l6 10h107v94H19l6 10h295c13 0 13-10 3-12-10-6-17-13-23-20l-20 22h-93v-94h105c10 1 13-10 3-12-9-5-17-11-22-17l-17 19h-69v-84h122c8 0 8-9 1-12-10-4-18-11-24-20l-21 23h-78" id="bv"/><path fill="#3a414a" d="M244-27c27-24 50-66 76-103 9 0 7-5 0-7-6-1-12-6-19-12-13 39-34 75-64 109-22-37-31-81-33-141h123c7 0 6-8 1-11-9-4-17-11-23-19l-19 20h-82c1-18-6-52 8-56-5-8-18-4-32-9 7 24 4 40 6 65H75l-22-12c3 10 5 31 5 63C57-32 53-9 18 53l3 1C60 2 71-21 74-111h69c-6 34 7 113-48 84v3c14 6 22 14 27 26 35-25 27-28 36-100 1-5 24-7 9-16-5-3-10-9-14-16-14 15-51 7-79 9v-60h112c4 67 16 112 39 155-28 29-64 54-107 77l2 3c48-21 84-43 111-69 24 31 44 62 84 68 19-2 6-15 4-25 0-4 2-20 8-46h-3c-9 20-8 22-18 39-8 14-13 0-31-12-11-11-22-22-31-36zm29-174c12-3 14-23-1-30-8-4-24-16-40-19 17 16 23 17 32 40 2 5 5 9 9 9" id="bw"/><path fill="#3a414a" d="m6-13 30-5v-200l-30-5v-13h201v60h-16l-6-38-93-2v86h61l6-26h16v73h-16l-6-27H92v91l104-3 10-44h16l-4 66H6v-13" id="bx"/><path fill="#3a414a" d="M127-114c3-31-26-38-50-25v123l15 4V0H10v-12l16-4v-133l-16-5v-11h64l2 14c31-23 102-32 102 30v105l17 4V0h-82v-12l14-4v-98" id="by"/><path fill="#3a414a" d="M78-41c-2 24 21 26 40 20C122 3 98 2 77 4 5 10 32-84 27-147H6v-11l25-7 21-38h26v38h35v18H78v106" id="bz"/><path fill="#3a414a" d="m77-16 18 4V0H8v-12l18-4v-133l-17-5v-11h68v149zM51-196c-16 0-27-10-27-27s10-27 27-27 27 11 27 27c0 17-10 27-27 27" id="bA"/><path fill="#3a414a" d="M81 5 15-149c-7-2-13-5-11-16h84v11l-20 5 39 91 35-91-19-5v-11h53c2 11-4 13-11 15C134-81 111-5 75 58 65 77 34 83 8 74V32h11c0 24 29 35 43 12 7-11 13-25 19-39" id="bB"/><path fill="#3a414a" d="M141-182c15-5 12-26-2-37-10-9-26-19-47-31 16 25 30 28 40 59 2 5 5 9 9 9zM19 54C96 33 152 0 174-72h5C207 1 237 28 303 51c6-9 16-15 29-18v-4c-81-7-116-43-148-101h132c11 0 10-8 2-12-9-4-16-11-21-17l-18 19H177c4-21 7-49 7-83h111c9 1 11-8 3-10-9-5-16-11-21-18l-16 19h-65c20-14 38-34 54-58 6-4 20-8 5-15-6-3-13-5-19-9-13 37-26 53-49 82H53l6 9h106c0 37-2 65-6 83H32l5 10h119C136-4 88 26 18 50" id="bC"/><path fill="#3a414a" d="M15-26c6 4 12 39 23 24 13-17 46-24 72-43 2 30-3 67 2 94 4-3 13-3 14-9v-96c11-7 10-7 22-15-7-5-14 5-22 7v-166c12 1 48 2 29-11-8-5-15-11-19-17l-16 18H18l5 10h22v198c-11 3-21 5-30 6zm47-12v-63h48v44c-19 8-35 15-48 19zm0-73v-55h48v55H62zm0-64v-55h48v55H62zm141-21c14-3 12-24 1-35-7-8-19-19-35-30 10 23 19 29 25 57 2 5 5 8 9 8zm48 11c18-13 37-42 55-66-4-4-15-5-22-11-8 32-22 54-40 77h-98l5 10h68c-1 28-3 50-5 68h-79l5 10h72c-10 68-33 111-80 146l1 2c57-33 82-78 96-148h7c5 49 40 123 62 144 11-8 22-12 34-12v-3c-53-29-67-58-93-129h85c8 0 11-7 3-11-9-4-16-12-21-18l-16 19h-59c3-18 4-40 6-68h84c11 0 12-8 3-12s-16-11-21-17l-16 19h-36" id="bD"/><path fill="#3a414a" d="M77-191c19-20 23-42 41-56-7-6-18-7-26-15-2 25-9 49-19 71-19 2-32-3-43-9 10 71 1 160 4 238 3 5 15-2 17-5V7h75c-4 16 6 30 17 15v-131c18-17 37-45 51-72h112c-3 76-5 133-11 170-4 24-5 39-23 39s-32-1-40-4v4c20 4 31 14 40 26 32-7 35-29 40-68 5-37 6-88 9-154 1-7 22-13 8-19-5-3-9-7-13-14l-13 10H199c9-17 13-44 29-56-6-5-18-8-26-14-8 58-30 103-59 145 1-25-6-60 11-66-3-9-15-10-21-19-8 14-35 9-56 10zM51-2v-90h75v90H51zm0-99v-80h75v80H51zm181 45c15-4 12-25 0-36-8-6-22-24-38-29 16 23 20 27 29 57 2 5 5 8 9 8" id="bE"/><path fill="#3a414a" d="M75-13V0H4v-13l17-5 84-220h51l83 220 18 5V0H152v-13l28-5-23-61H67L45-18zm38-189L74-98h76" id="bF"/><path fill="#3a414a" d="M109-18c15 0 31-2 42-6v14c-11 9-31 13-51 13-59 0-86-28-88-86-3-75 66-101 135-80v48h-13c-3-20-7-40-34-37-51 7-55 138 9 134" id="bG"/><path fill="#3a414a" d="M90-170c54-1 76 32 76 87 1 56-23 87-77 87-53 0-75-32-75-87s23-86 76-87zM89-14c28-2 26-38 26-69s3-69-26-69c-27 0-24 39-24 69s-3 66 24 69" id="bH"/><path fill="#3a414a" d="M132-132c-21 0-37 9-50 16v100l26 4V0H10v-12l21-4v-133l-21-5v-11h69l2 34c17-18 35-41 71-40v61c-17 3-14-14-20-22" id="bI"/><path fill="#3a414a" d="M312-214c-1-8 20-14 8-21-5-3-10-8-15-15l-14 10H52l-20-11c12 92-3 210 6 305 5-2 13-3 15-7v-277h92c-5 45-10 82-16 111-16-18-36-36-59-55l-1 3c22 21 41 44 57 68-11 43-31 83-64 114l1 3c34-23 58-59 73-101 12 19 21 39 30 60 2 7 14 9 14-1 0-29-22-56-39-77 7-29 15-70 22-125h83c-5 45-10 82-17 112-17-20-36-39-56-57l-3 2c20 24 40 46 55 73-14 54-36 96-79 132l1 3c43-28 72-67 88-120 18 23 23 51 42 64 4-1 6-4 6-9-3-25-29-55-43-74 8-30 15-72 23-126h31V15c-2 26-28 8-51 7v4c19 6 30 15 37 28 10-2 35-16 32-30v-238" id="bJ"/><path fill="#3a414a" d="M47-145c26-26 33-64 56-98-5-5-15-6-22-12-10 42-24 88-55 108 5 8 7 16 8 23 20-11 36-10 63-23-14 31-38 73-67 85 5 9 9 17 10 24 32-19 57-20 101-45l-2-5c-33 14-62 23-87 28 39-34 59-82 88-131-4-6-16-6-23-13-4 17-9 34-16 50-20 4-38 7-54 9zM29 14c6 3 12 37 21 22 27-24 57-32 100-70l-3-3C98-10 76 3 29 14zm101-74c45-18 76-36 104-60 16 21 50 46 72 56 8-8 18-11 28-11v-4c-36-11-64-30-90-51 16-16 33-37 51-61 6-3 20-6 8-13-4-4-8-10-13-17-17 12-54 4-80 6 7-8 8-21 21-23 6-3 6-6-2-9-6-2-12-6-19-11-25 61-41 80-88 116l2 4c26-12 51-31 69-54 10 26 17 43 31 60-22 23-52 44-94 69v3zm66-136c4-5 3-5 7-10h76c-16 27-31 49-46 65-12-14-25-32-37-55zm98 241c12-27-8-84 12-97-2-10-14-10-20-19l-11 9c-37-2-86 7-109-9 9 34 2 81 4 121 5 6 21 0 17-14h93c1 5-2 13 3 13zM187 26v-78h93v78h-93" id="bK"/><path fill="#3a414a" d="M120-225c6-6 8-17 16-21 6 0 8-8 0-9-5-2-12-5-18-10-21 56-34 74-75 114l2 2c25-17 48-39 68-66h197c7 0 9-8 2-11-9-4-16-10-22-18l-18 19H120zm22 165c5-8 14-16 21-22-1-4-10-5-15-8h103c-4 16 12 12 17 5v-78c0-8 22-13 7-21-5-3-11-7-16-12l-10 10H121l-19-10c9 33 2 78 4 117 4 4 19-1 16-11h17c-9 17-17 29-26 40-9-8-17-16-24-24l-4 4 24 25C92-27 75-13 47 3l1 3c25-9 51-23 70-42 17 17 36 29 58 42-50 25-71 29-151 45l1 3c83-12 122-17 163-42 32 16 73 32 112 39 7-10 18-15 33-16v-4c-39-1-97-11-132-27 21-11 42-31 66-48 13-9-5-13-11-28l-15 12H142zm-18 19 9-9h111c-20 21-38 37-56 48-26-12-45-24-64-39zm-2-59v-33h129v33H122zm0-42v-35h129v35H122" id="bL"/><path fill="#3a414a" d="M58-196c6-11 11-27 23-33-6-5-17-8-25-15-11 45-16 61-39 96 14-4 24-24 35-38h54v48H18l5 9h83v41c-26 0-55 3-69-9 9 34 2 81 4 121 3 5 13-3 17-4v-98h48l1 132c5-3 14-2 15-8V-78h55v69c2 22-20 4-31 9 12 6 18 14 22 25 8-2 29-14 26-27v-63c0-7 19-14 7-20-5-3-9-7-14-13-10 15-41 9-65 10v-41h84c9 0 9-8 1-11-8-5-14-10-19-16l-16 18h-50v-48h70c7 0 9-8 2-11-8-3-15-8-20-15l-16 16h-36c1-19-4-45 6-55-3-7-20-4-25-8 4 11 3 44 3 63H58zm189-10c-3-11 16-15 1-19-6 0-13-2-20-5 10 67-3 156 5 225 5-3 14-2 14-8v-193zm61-33c-1-8 16-10 0-14-6 0-13-2-20-5 8 85 1 187 3 278-3 11-29 5-38 2v4c15 4 21 16 26 27 13-1 29-15 29-33v-259" id="bM"/><path fill="#3a414a" d="M78-191c14-2 13-22 0-30-8-5-22-19-38-22 18 17 19 21 29 44 2 5 5 8 9 8zm11 61c1-9 17-11 6-18-4-2-8-6-13-11-9 16-40 9-63 10 5 16 35 7 54 9v121c0 7-5 11-13 15 6 7 11 13 14 19 18-12 35-27 50-46l-2-3c-11 8-22 14-33 18v-114zm228-84c0-7 18-13 8-19-5-3-10-8-15-14l-12 10H158l-22-13c3 19 4 59 4 121-1 105-7 126-45 183l2 1c49-54 58-75 59-184v-98h145V13c1 23-30 8-47 12v4c21 5 32 11 41 21 8-2 22-15 22-30v-234zm-84 37c-2-16 4-24 7-33l-26-8c4 9 3 27 3 41h-49l5 10h44v43h-54l6 9h119c7 0 9-9 1-10-7-4-12-8-16-13l-12 14h-28v-43h50c13-7-11-14-12-21-6 10-20 13-38 11zm39 120c0-8 19-14 4-21-4-3-10-6-15-12-15 16-68 12-88 0 10 24-3 69 7 95 8-2 17-5 14-18h62c-3 12 5 12 13 7 8-11 3-35 3-51zm-78 34v-48h62v48h-62" id="bN"/><path fill="#3a414a" d="M88-189c14-3 11-24-3-34-10-7-24-17-44-27 15 22 28 25 37 53 2 5 6 8 10 8zm11 59c0-10 20-13 6-20-4-2-9-6-14-12l-11 13H21l5 9h55V0c0 7-4 11-11 15 6 6 11 13 14 20 21-16 39-35 57-59l-1-3C126-14 113-4 99 3v-133zM330-13c-10 1-5 29-14 33-38-40-56-97-55-188h62c10 0 10-8 2-12-9-4-15-11-20-17l-17 19h-28c2-21-8-62 6-73-5-6-15-5-27-10 6 30 4 53 5 83H118l6 10h120c2 103 19 163 66 210 9 6 21 12 25 1-6-11-5-37-5-56zM132-1c6 3 12 37 21 22 26-16 56-22 97-47-19-2-42 13-58 14v-89c15-3 43 7 48-6-5-7-18-12-22-19l-15 15h-68l5 10h36v93c-15 4-32 6-44 7zm139-236c17 10 21 22 31 31 8 1 11-16 3-21-5-3-16-9-33-14" id="bO"/><path fill="#3a414a" d="M81-156c1-5 9-14-2-14 11-18 23-39 35-64 4-5 19-7 5-13-6-3-13-8-20-15-17 65-45 113-81 158l3 3c15-13 29-28 44-47l2 202c5-2 14-2 14-8v-202zm196-99-15 15H143l5 10h144c8 1 11-9 3-10-7-4-14-10-18-15zm32 41-17 18H115l6 10h206c8 0 10-10 1-11-8-5-14-11-19-17zm-32 51-15 15H143l5 10h144c8 1 11-9 3-10-7-4-14-10-18-15zm0 47-15 15H143l5 9h144c9 1 11-8 3-10-7-4-14-9-18-14zm21 86c0-9 26-15 7-22-5-3-11-7-17-13l-11 11H157l-21-11c11 32-3 86 7 119 8-3 18-4 15-18h122c-3 13 6 11 15 8 8-18 3-50 3-74zM158 26v-71h122v71H158" id="bP"/><path fill="#3a414a" d="m147-218 37-32c-7-4-20-6-28-12-4 17-9 32-15 44-26 1-51 1-64-11 10 49 1 114 4 170 0 10 9 2 14 1 6-2 3-9 4-16h154c1 6-3 17 3 18 5-2 14-2 15-7v-133c-1-10 21-15 4-22-5-3-11-8-17-14l-11 14H147zM99-83v-38h154v38H99zm0-47v-35h154v35H99zm0-44v-34h154v34H99zM70-37C63-14 51 4 32 18c-12 8-12 21 2 22 25-6 36-40 40-77h-4zm59 50c1-23-3-52 7-61-6-4-18-4-27-9 4 24 0 45 2 70 3 37 17 33 71 33 51 0 66 4 82-18-11-6-10-26-11-47h-3c-3 19-2 42-15 46-17-2-117 15-106-14zm63-22c7 14 22 8 20-9-7-19-22-30-44-44 6 20 19 27 24 53zm125 47c16-6 11-28-1-42-8-11-21-23-40-37 13 29 24 35 32 70 2 5 5 9 9 9" id="bQ"/><path fill="#3a414a" d="M162 22c2-26-21-81-41-109 7-23 16-56 25-98 1-7 26-8 14-18-5-4-11-11-16-19l-16 14H18c3 3 2 10 10 9 38 49 58 80 75 117C83-23 65 8 18 44l3 3C65 20 93-7 112-62c10 24 20 55 31 93 2 5 6 8 10 8 8 0 9-8 9-17zM31-199h99c-8 43-14 75-20 95-20-29-47-60-79-95zM255 51c10 9 28-13 28-31v-183c17-2 45 6 53-5-6-9-23-14-27-24-9 6-10 20-26 19 2-26-6-64 8-75-6-6-20-2-29-8 5 20 2 57 3 83H154l5 10h106V20c-4 11-31 5-41 2v4c16 4 27 13 31 25zM202-53c7 15 21 8 19-9-3-25-19-39-38-59 4 26 16 34 19 68" id="bR"/><path fill="#3a414a" d="M57 54c10 8 28-11 28-28V-89c15-5 32-12 52-20l-2-3c-19 4-35 7-50 10v-75h50c7 1 8-8 2-10-8-3-13-9-17-14-8 8-15 18-35 15 2-23-5-57 7-66-4-6-18-4-26-9 5 18 2 51 3 75H18l5 9h46v78l-55 6c5 6 10 21 16 28 3-10 23-13 39-18V26c-4 11-30 5-40 2v4c15 4 24 11 28 22zm170-269c-1-18 1-31 6-40-4-5-18-4-26-8 4 11 3 32 3 48h-85l5 9h193c10 0 10-7 2-11-9-4-15-11-20-17l-17 19h-61zm26 79c15-11 29-37 45-56-5-4-15-5-22-11-7 28-17 48-32 67h-49c10-28-20-44-41-56 18 20 17 31 29 56h-73l5 10h80l-23 44h-72l6 10h60L129-2c17 9 27-13 32-25 21 6 41 13 57 20-29 32-71 45-121 57l2 4c55-5 102-23 133-53 33 15 58 41 80 52 13-7 5-26-8-32-11-8-37-20-61-31 13-15 24-35 33-62h55c11 0 10-8 2-12-10-5-18-12-23-19l-18 21H189l22-44h117c9 1 11-8 3-11-9-5-16-12-21-18l-16 19h-41zM227-16c-18-6-39-11-64-16l21-40h72c-8 23-17 42-29 56" id="bS"/><path fill="#3a414a" d="M77-239c22 17 28 35 43 47 10 1 14-17 5-24-5-5-20-13-45-25zm132 48c24-8 42-22 62-34 7 0 6-6 0-8-5-3-11-8-17-14-11 21-30 41-48 52zm-26 9c2-24-5-59 6-72-3-8-23-4-28-8 6 16 3 55 4 80H29l5 9h131l1 77c5-3 14-3 17-9v-68h132c10 0 10-7 2-11-9-4-17-11-22-17l-18 19h-94zm-57 17c-30 42-47 46-103 71l2 2c49-15 86-31 112-50 3-1 19-4 6-10-5-2-11-7-17-13zm72 7-1 5c40 14 70 30 91 48 5 8 20 11 20-3-19-27-55-30-110-50zM21 54c82-18 120-37 151-96h143c9 0 11-9 2-11-9-5-17-12-22-18l-18 19H176c-2-14 23-29 6-33-7-2-15-4-23-8 3 14 2 30-3 41H29l5 10h119C128 12 91 29 18 50zm166-82-3 4c46 20 82 42 106 68 5 10 21 13 22-3-21-36-63-43-125-69" id="bT"/><path fill="#3a414a" d="m106-225 44-16c-4-8-12-10-18-20-17 18-52 35-106 50l1 3c21-2 42-6 62-12v58H22l5 10h57C66-75 52-67 19 5c32-39 52-69 70-122V51c2 6 16 0 17-5v-172c19 9 18 34 37 44 5 0 8-7 8-15-5-16-25-24-45-34v-21c17-3 45 6 52-6-6-8-20-14-25-22-8 7-10 20-27 18v-63zm124 7c8-9 14-22 26-29-5-5-15-7-21-15-16 43-42 72-72 100 9 4 19-12 29-17 15 13 18 30 28 41 4 0 7-3 7-11 0-19-13-22-31-33 9-8 18-16 26-26h65c-41 71-64 88-134 134v3c75-33 104-61 150-126 5-4 20-5 9-14-4-4-9-9-14-16-11 15-44 7-68 9zm18 126c7-9 16-15 25-23-5-5-15-6-22-12-33 52-57 68-115 97l1 3c23-7 44-15 64-27 17 9 12 35 30 43 6 1 8-7 8-15-4-14-19-22-34-31 12-7 23-16 33-25h62C257-7 220 22 140 53 233 37 270 3 317-74c4-6 21-5 11-15-4-3-9-8-15-15l-13 12h-52" id="bU"/><path fill="#3a414a" d="m143-229-17 19H37l6 10h118c9 0 11-9 2-11-9-5-15-12-20-18zM165 5c15-7 10-28-1-43-8-11-21-24-39-39 5 19 18 30 22 46C109-16 73-5 38 2c25-40 46-82 61-125h78c8 1 12-9 3-11-9-5-16-12-21-18l-16 19H19l6 10h53C64-73 44-30 18 6c9 9 7 31 18 16l113-47c4 9 5 29 16 30zm71 21c14 4 20 15 28 25 32-13 36-17 43-51 5-26 9-79 13-159 4-4 18-11 6-16-5-3-10-8-14-14l-15 12h-53c1-24-4-57 6-70-6-4-20-4-29-9 7 30 7 49 5 79h-47l5 10h42C224-62 196 7 137 51l3 3c79-45 97-108 104-221h59c-4 98-10 158-20 181-15 19-15 11-47 8v4" id="bV"/><path fill="#3a414a" d="m286-248-17 18H37l6 9h260c9 1 9-7 2-11-8-4-15-10-19-16zM169 54c10-3 22-16 22-32v-162h132c10 0 10-7 2-11-9-4-15-11-20-17l-17 19H18l5 9h150V20c-1 14-31 8-45 8v4c24 4 33 11 41 22zM96-98C81-45 58-7 18 24l3 2C63-4 86-27 111-77c4-2 17-7 4-11-6-2-12-5-19-10zM309 22c7 0 11-7 10-16-6-42-40-72-77-99 34 42 39 51 58 107 2 5 5 8 9 8" id="bW"/><path fill="#3a414a" d="M140-217c-6-16 13-32 0-35-8-2-14-2-19-4 2 7 3 23 3 39H21l5 10h98c1 11-2 24 1 33 5-3 14-2 15-8v-25h72c1 11-2 24 1 33 5-3 13-2 15-8v-25h93c11 1 12-9 3-11-9-5-16-11-21-18l-16 19h-59c-5-16 11-31 0-35-8-1-14-2-19-4 2 7 3 23 3 39h-72zm-78 49c23 12 30 24 44 34 7 1 13-16 2-19-4-4-19-9-45-18zm-37 54c23 12 29 23 44 32 7 1 15-17 3-19-3-1-27-14-47-13zM80 54c25-15-15-52 9-74 12-28 31-57 40-84L72-21c-7 11-18 9-32 10v3c39-2 9 57 40 62zM224-54c14 4 21 13 27 24 41-7 25-53 33-101 1-7 22-12 8-19-5-3-9-8-13-15l-13 10c-37-2-83 6-104-11 9 50 0 109 4 164 3 46 5 42 56 42 39 0 94 11 112-14-15-6-15-38-14-64h-3c-8 30-3 71-49 63-38-7-85 18-85-27v-143h86c-3 44 0 70-13 91-10 3-28 0-32-3v3" id="bX"/><path fill="#3a414a" d="M55 0v-9l38-5v-207c-22 1-53 0-70 4l-5 37H7v-56h207v56h-12l-5-37-70-3v206l37 5v9H55" id="bY"/><path fill="#3a414a" d="M103-170c15-4 10-27-2-40-9-8-27-26-46-34 23 26 27 31 39 66 2 5 5 8 9 8zm14 41c0-7 15-11 4-16-4-2-7-5-11-10-15 16-56 5-83 8l6 10h69V5c0 7-5 12-14 16 7 7 11 13 15 20 22-16 43-36 63-61l-1-3C149-9 133 1 117 9v-138zm125-18c2-33-7-80 7-100-5-5-18-3-26-8 5 33 1 72 2 108h-82l5 10h77V53c5 2 15-1 17-7v-183h81c10 1 10-9 2-11-9-5-15-11-20-18l-17 19h-46" id="bZ"/><path fill="#3a414a" d="M93-221c7-6 6-15 16-18 9-10-16-11-21-19-13 42-35 72-69 95l3 3c27-17 45-28 63-51h23c11 9 11 35 24 38 22-10-4-31-16-38h63c7 0 6-9 1-11-8-3-14-8-19-15l-17 16H93zm131-3c0-10 27-17 12-23-6-2-12-6-19-11-9 36-27 60-52 81l3 3c21-13 34-24 49-40h22c11 9 11 33 23 36 22-10-1-29-14-36h78c8 0 5-8 1-11-8-3-14-8-19-15l-17 16h-67zm51 82c-1-8 23-13 6-21-5-3-10-6-15-12l-10 8H99l-19-10c11 39-2 100 6 142 7-3 17-3 14-15h36c-1 13-3 23-5 32H22l5 10h101c-13 35-45 49-88 58l1 4c57-4 90-20 106-62h67c2 20-4 48 3 62 5-2 14-2 14-8V-8h90c12 0 11-7 2-11s-16-12-21-18l-18 19h-53v-32h27c-4 16 11 11 17 5v-97zM214-18h-65c2-9 3-19 4-32h61v32zM100-60v-26h158v26H100zm0-36v-27h158v27H100zm0-37v-25h158v25H100" id="ca"/><path fill="#3a414a" d="M187-168c1-28-4-64 7-79-6-4-20-4-29-9 8 22 2 59 4 88H93c8-16 15-34 21-53 3-6 24-10 7-15-6-2-13-6-21-11-20 83-35 115-78 169l1 4c26-18 49-52 66-85h80v84H56l6 10h107v94H19l6 10h295c13 0 13-10 3-12-10-6-17-13-23-20l-20 22h-93v-94h105c10 1 13-10 3-12-9-5-17-11-22-17l-17 19h-69v-84h122c8 0 8-9 1-12-10-4-18-11-24-20l-21 23h-78" id="cb"/><path fill="#3a414a" d="M244-27c27-24 50-66 76-103 9 0 7-5 0-7-6-1-12-6-19-12-13 39-34 75-64 109-22-37-31-81-33-141h123c7 0 6-8 1-11-9-4-17-11-23-19l-19 20h-82c1-18-6-52 8-56-5-8-18-4-32-9 7 24 4 40 6 65H75l-22-12c3 10 5 31 5 63C57-32 53-9 18 53l3 1C60 2 71-21 74-111h69c-6 34 7 113-48 84v3c14 6 22 14 27 26 35-25 27-28 36-100 1-5 24-7 9-16-5-3-10-9-14-16-14 15-51 7-79 9v-60h112c4 67 16 112 39 155-28 29-64 54-107 77l2 3c48-21 84-43 111-69 24 31 44 62 84 68 19-2 6-15 4-25 0-4 2-20 8-46h-3c-9 20-8 22-18 39-8 14-13 0-31-12-11-11-22-22-31-36zm29-174c12-3 14-23-1-30-8-4-24-16-40-19 17 16 23 17 32 40 2 5 5 9 9 9" id="cc"/><path fill="#3a414a" d="m268-250-17 20H135l5 9h146c10 0 10-7 2-11-9-4-15-11-20-18zm-45 120c-2-5-15-6-20-11h109c9 0 11-9 2-11-9-5-15-12-20-18l-17 19H114l6 10h74c-13 50-22 68-47 107-10 1-20 1-29 1 6 4 13 40 23 24 37-13 79-17 136-35 6 9 6 40 21 42 17-7 11-30-2-45-9-10-24-32-45-41 12 16 20 26 24 40L155-35c22-22 41-51 57-87 1-5 12-2 11-8zM92-199c8-2 15-18 5-25-5-4-24-20-49-26 17 14 29 29 37 47 2 3 4 4 7 4zm-19 62c8-2 13-18 5-26-4-4-24-22-48-28 16 15 27 31 36 50 1 3 4 4 7 4zm16 60c-1-4 15-9 4-14-5-2-10-8-15-13-7 16-37 10-60 11l5 10h48V6C56 16 38 22 19 26c8 7 9 16 17 21 1-1 1-3 1-6 16-11 31-20 43-31 35 49 138 29 222 34 10-14 20-22 29-26v-4C287 24 120 39 89 6v-83" id="cd"/><path fill="#3a414a" d="M21-168c41-16 72-42 104-71-5-6-14-8-21-15-19 39-50 62-85 84zm70 38c10-11 29-35 45-48-5-6-14-8-21-15-23 50-59 84-101 115 20-5 43-25 62-39l2 172c5-2 14-2 14-8v-163c1-5 8-12-1-14zm193-117-16 20H148l6 9h148c10 0 11-9 2-11-9-5-15-12-20-18zM236 54c11-3 25-16 25-34v-154h63c8 1 12-9 3-11-9-5-16-11-21-18l-16 19H133l6 10h105V18c-2 17-34 7-49 6v4c24 4 34 13 41 26" id="ce"/><path fill="#3a414a" d="M75-108c48 3 76-12 76-58s-28-57-76-54v112zm111-58c-1 60-46 78-111 74v78l37 5v9H13v-9l28-5v-208l-31-4v-10c81 1 178-14 176 70" id="cf"/><path fill="#3a414a" d="M257 54c11-3 22-19 22-36v-237c16-3 46 7 52-6-7-8-25-16-29-25l-18 21H18l5 10h238V15c-1 17-33 9-49 9v4c27 4 36 13 45 26zm-70-195c0-9 21-14 5-21-5-3-10-6-15-12l-11 12c-35-2-80 7-101-9 12 44-2 111 6 158 15 0 15-15 14-32h85c1 6-3 16 3 17 4-2 12-3 14-7v-106zM85-54v-98h85v98H85" id="cg"/><path fill="#3a414a" d="M84-208c5 13 21 9 18-7-3-19-19-29-37-43 3 18 16 25 19 50zm64 140c-4-28-27-28-53-46 10-12 21-30 35-53 5-5 32-10 14-19-4-3-9-9-15-17l-12 14H23l6 9h89C84-110 67-93 15-48l2 2c27-18 46-35 61-50V51c2 7 14-2 17-5v-152c24 16 31 36 46 49 4 0 7-4 7-11zm149-147c0-9 21-14 5-21-5-3-10-6-15-12l-11 11c-40-3-93 8-117-10 10 60 1 136 4 203 2 7 15-1 17-4v-179h100v178c2 7 15-1 17-4v-162zm-61 50c0-6 15-12 1-14-6-1-13-3-20-6 2 134-11 183-97 236l1 3c90-40 110-77 115-219zm20 182c2-31-6-78 6-96-5-4-16-4-24-9 2 35 0 69 1 105 1 29 9 30 46 30 33 0 41 3 49-15-11-7-10-28-11-51h-3c-4 32 8 56-35 51-21-3-30 1-29-15" id="ch"/><path fill="#3a414a" d="M97-159c1-7 9-10 0-14 12-19 23-40 33-64 4-5 24-10 7-15-6-2-12-6-20-11C88-178 70-149 15-96l2 4c23-13 45-32 64-57V47c1 9 10 0 14 0 7-63-1-139 2-206zm91-71c-2-8 16-13 1-16-6-1-12-3-19-6 5 83-2 173 2 259 2 36 19 31 73 31 53 0 68 4 86-16-11-7-11-26-12-49h-3c-3 19-4 42-16 47-18-1-120 14-112-13v-116c50-11 89-28 118-51 5-7 27-5 11-15-5-2-10-7-16-13-21 30-59 55-113 75v-117" id="ci"/><path fill="#3a414a" d="M110-174c14-6 11-26-1-39-9-9-21-21-38-34 12 26 23 32 29 65 2 5 6 8 10 8zm5 47c1-9 17-11 6-19-4-2-8-5-12-10-13 16-52 7-79 9l6 10h63V-5c0 7-4 12-10 16 6 7 11 14 15 21 22-16 44-36 64-60l-2-3c-17 13-34 23-51 30v-126zM235 50c11-2 23-18 23-36v-224h66c9 1 11-8 3-11-9-5-16-11-21-18l-16 20H141l6 9h93V11c1 16-27 10-41 10v4c21 4 29 13 36 25" id="cj"/><path fill="#3a414a" d="M96-201c13-4 15-24-1-32-9-5-26-18-44-21 21 16 23 20 35 44 2 5 6 9 10 9zm-40 9c-1-9 13-15 1-18-8-2-15-2-20-4 9 79-1 184 4 268 5-3 14-2 15-8v-238zm260-32c1-10 18-12 5-19-4-2-8-6-12-11l-11 10H110l5 10h185V14c2 26-42 10-51 10v4c27 6 36 15 43 26 8 0 26-16 24-26v-252zm-172 68c5 11 18 8 17-7-5-16-22-24-40-36 8 18 19 20 23 43zm55 16c13-11 22-32 38-45 7-10-14-9-21-16-3 17-12 37-24 61-30-1-68 5-86-9 10 24-1 64 6 90 8-2 17-5 14-18h26c-6 63-31 86-82 105l1 3c59-21 91-38 98-108h19v62c-6 39 37 25 77 28 8-1 14-4 19-13-10-3-13-25-13-42h-3c-4 20 3 46-31 40-23-4-32 4-32-13v-62h24c1 5-3 14 3 14 4-2 11-2 12-5v-53c0-6 19-12 5-18-4-2-9-7-14-12-5 11-19 12-36 11zm-73 54v-44h103v44H126" id="ck"/><path fill="#3a414a" d="M264-123c28-4 2-55 24-59-2-10-14-10-20-19l-11 12h-76v-29h134c9 0 11-9 2-11-9-5-15-12-20-18l-17 20h-99c-6-17 17-23 2-29-7 0-14-2-22-5 2 7 2 21 2 34H33l5 9h125v29c-35-2-81 7-101-10 10 22-2 61 7 84 7-3 16-3 13-15h81v27H51l5 10h107v34H17l5 10h141v33H43l5 10h115c-2 14 8 35-10 35h-35v4c21 3 30 11 37 22 23 0 30-31 26-61h85c1 5-2 16 3 16 5-2 15 0 15-7v-52c16-2 42 6 50-5-5-9-21-14-25-23-9 6-10 19-25 18v-22c0-9 23-11 8-20-5-4-10-9-15-14l-15 12h-81v-27h80s-1 7 3 7zM82-140v-40h81v40H82zm99-40h80v40h-80v-40zm0 87h85v34h-85v-34zm0 44h85v33h-85v-33" id="cl"/><path fill="#3a414a" d="M81-153c4-8 8-14-5-17 10-19 20-41 30-66 3-3 19-6 5-12-6-3-12-7-19-14-16 70-41 120-74 168l3 2c14-15 28-33 42-55V51c1 9 10 0 15 0 2-1 3-2 3-4v-200zm77-20c9-11 9-32 22-41 6-2 5-6-2-9-6-2-13-5-20-10-10 54-26 93-55 126l3 3c20-18 33-37 47-59h59v86H102l5 10h105l1 122c5-3 14-3 16-9V-67h98c10 0 10-7 2-11-9-4-16-12-21-18l-18 19h-61v-86h86c7 0 6-8 1-11-9-4-16-10-22-18l-18 19h-47c2-26-6-62 7-75-5-7-23-4-29-8 7 15 5 57 5 83h-54" id="cm"/><path fill="#3a414a" d="M75-106v92l39 5v9H13v-9l28-5v-208l-31-4v-10h177v57h-11l-6-38c-28-4-63-3-95-3v98h69l5-28h11v73h-11l-5-29H75" id="cn"/><path fill="#3a414a" d="m77-14 30 5v9H13v-9l30-5v-208l-30-4v-10h94v10l-30 4v208" id="co"/><path fill="#3a414a" d="M75-131c50 2 93 3 93-48 0-46-48-41-93-41v89zm0 115c55 4 111 6 111-51 0-53-58-48-111-48v99zm148-52C223 24 102-3 10 0v-9l31-5v-208l-31-4v-10c77 6 193-24 194 56 0 33-20 48-48 54 36 5 67 20 67 58" id="cp"/><path fill="#3a414a" d="M126-119c3-38-42-31-69-25v132l23 4v8H7v-8l21-4v-226l-24-4v-8h53l-1 98c31-22 99-31 99 31v109c7 3 23-1 20 12h-71v-8l22-4v-107" id="cq"/><path fill="#3a414a" d="m203-222-32-4v-10h81v10l-31 4V0h-17L59-212v198l32 5v9H10v-9l31-5v-208l-31-4v-10h72L203-61v-161" id="cr"/><path fill="#3a414a" d="M56-15s89 2 122-6l10-45h12l-5 66H17v-17l132-204c-33 1-75-1-103 4l-6 37H28v-56h161v15" id="cs"/><path fill="#3a414a" d="M114-181c15-4 12-26-1-37-9-7-21-18-39-29 10 23 22 28 29 56 2 6 6 10 11 10zm194 39c-1-7 28-13 11-23-5-3-11-8-16-16l-17 15h-93c9-22 17-45 25-71 4-4 17-7 3-12-6-2-12-7-19-12-8 34-16 66-27 95H37l6 10h128C137-67 91-5 17 51l1 3C101 5 148-55 188-156h103c-7 88-5 133-30 175-13 12-33-1-54 3 18 5 31 13 39 29 31-11 38-19 47-53 5-22 11-69 15-140zM232-37c15-4 12-25-1-36-8-7-22-25-39-30 17 24 22 28 31 58 2 5 5 8 9 8" id="ct"/><path fill="#3a414a" d="M263-159c11-22-7-70 14-78-3-11-16-11-23-21l-11 14H79l-23-14c7 37 1 89 3 131 1 25 8 31 34 31h192c17 0 26-5 34-15-11-3-14-17-14-37h-3c-5 33-10 37-57 37H98c-32 5-18-35-21-60h172c1 5-2 15 2 16zM77-234h172v53H77v-53zM222 53c10 7 28-13 28-28v-69h76c10 0 10-7 2-11-9-4-15-11-20-17l-17 19h-41c-2-14 3-21 8-26-6-6-20-4-29-9 2 7 3 21 3 35H18l5 9h209v69c-3 12-31 4-41 3v4c16 4 27 11 31 21zm-82-28c12-3 11-21 0-32-7-8-18-16-33-26 8 21 19 24 23 50 2 5 6 8 10 8" id="cu"/><path fill="#3a414a" d="M80-210c19-13 28-24 41-35-5-7-18-8-26-16-2 18-9 35-20 51-15 1-21-8-31-12 4 14 4 84 4 120l-30 4 12 23c4-3 9-8 17-8C45-18 37 7 18 53l3 1C51 7 59-16 64-88c23-7 44-13 65-21V10c1 21-31 10-32 10v4c16 4 24 13 31 23 8-3 18-17 18-30v-132c7-4 23-4 23-12l-23 6v-67c0-7 17-13 7-19-5-3-10-8-14-14-9 15-36 11-59 11zm24 68c-3-19-21-30-39-43v-15h64v83c-21 5-43 9-65 13l1-75c11 16 16 20 23 43 2 4 4 7 8 7 6 0 9-4 8-13zM101 0c9-21-6-64 8-78-3-5-19-4-23-7 5 25-1 63 3 90zm142-210c-1-19 1-33 7-42-6-5-20-5-29-10 6 12 3 34 4 52h-63l6 10h155c9 0 10-10 1-11-8-5-14-10-19-16l-17 17h-45zm39 76c1-7 18-11 6-18-5-3-10-7-15-14-13 19-67 14-86 0 11 80 5 176-43 217l2 3c57-36 63-107 61-199h58V11c4 25-2 30 32 30 24 0 29-3 37-12-11-8-2-40-8-55-10 47 7 51-29 52-16 0-15-2-15-15v-145" id="cv"/><path fill="#3a414a" d="M135-214c0-8 22-13 6-20-5-3-10-7-15-13-11 17-48 8-73 10l-19-10c9 34 2 81 4 121 6 6 21-1 17-15h27V8l-27 6c3-38-7-91 7-114l-26-8c5 36 1 85 2 125-8 1-14 2-21 3 5 3 12 39 20 21 32-16 66-24 116-50l-3-3C131-6 114-1 99 3v-81h45c8 1 7-8 2-11-8-3-13-8-18-15-8 7-11 19-29 16v-53h19c-2 10 7 8 13 5 2-1 4-3 4-4v-74zm-80 63v-76h63v76H55zm153-61c5-11 8-27 20-33-5-6-18-8-26-14-8 54-28 92-58 129l2 3c16-13 34-36 48-58 12 27 23 44 40 63-25 23-56 41-95 57 41-8 78-32 104-49 16 14 47 36 65 42 7-7 15-11 24-11v-3c-30-8-56-21-78-37 18-17 34-42 48-76 0-6 14-6 5-13-4-3-10-7-15-12l-8 12h-76zm-12 23c3-4 5-9 8-14h80c-8 28-21 52-40 72-16-12-32-32-48-58zM297-39c0-8 22-14 6-21-5-3-10-6-15-12l-11 9c-35-2-81 6-103-9 13 33-1 88 7 126 7-3 17-3 14-15h85c-3 12 6 10 14 6 8-21 0-57 3-84zM195 29v-82h85v82h-85" id="cw"/><path fill="#3a414a" d="M92-258c-15 41-40 70-70 96 32-10 61-42 82-72 3-4 17-7 5-12-5-2-11-6-17-12zm-6 144c13-12 24-34 40-46-4-8-15-9-23-18-18 51-48 85-84 116l2 2c17-10 33-22 49-37V53c3 5 14-2 16-6v-161zm139-17c20 15 57 36 78 42 8-7 18-11 28-11v-4c-36-8-67-21-93-37 18-15 35-36 53-63 2-5 19-8 9-15-4-3-9-9-13-17l-15 9H129c2 9 13 10 26 9 17 35 31 57 58 77-25 18-58 36-99 51l1 2c52-11 83-27 110-43zm-65-87h115c-16 29-32 59-52 67-21-14-42-36-63-67zm67 170c-1-20 1-35 6-45-6-5-19-5-28-10 6 13 3 36 4 55h-74l5 10h69v63H107l5 10h208c10 0 11-9 2-11-9-5-15-12-20-18l-16 19h-59v-63h74c10 0 11-9 2-11-9-5-15-12-20-18l-17 19h-39" id="cx"/><path fill="#3a414a" d="M13-81c0-71 46-101 114-85l-1-72-28-4v-8h57v238c8 3 24-2 21 12h-47l-2-12C80 23 13-1 13-81zm77-74c-37 1-44 33-45 74 0 38 9 66 45 66 14 0 27-3 36-7v-130c-10-1-24-3-36-3" id="cy"/><path fill="#3a414a" d="M181-193c3-18-1-46 8-55-6-4-18-5-27-10C169-92 124-8 18 50l1 3C124 1 161-39 179-164 189-67 231 4 297 44c13-11 21-18 37-13v-5C234-6 196-74 181-193" id="cz"/><path fill="#3a414a" d="M158-225c0-6 16-11 3-17-4-3-7-7-11-12l-13 10H30l6 10h43c-1 18-1 34-3 49H18l5 10h52l-9 45H30c2 12 20 9 34 9-10 36-24 62-46 84l1 3c13-9 24-20 33-32V50c1 9 10 0 14 0 7-3 1-16 3-24h74c1 5-3 15 3 15 4-2 12-2 13-6v-87c0-8 24-12 7-20-5-3-10-7-15-13-16 14-65 9-91 5 7-11 13-25 18-41h63c-4 15 12 12 17 5v-59c10 1 35 0 20-10-9-3-14-20-20-9v-31zM69 17v-84h74v84H69zm27-251h45v49H91c2-15 4-31 5-49zM81-130c4-14 7-28 9-45h51v45H81zm143-80c11-3 11-19-1-27-6-4-21-20-34-19 16 16 18 17 27 39 2 4 4 7 8 7zm46 6c14-9 28-31 42-47-5-4-15-5-22-11-6 23-17 40-28 58h-83l5 9h62v62h-63l5 10h58v66h-76l6 9h70v99c2 5 16 0 16-5v-94h62c8 1 10-8 2-10-8-5-15-11-20-17l-16 18h-28v-66h54c8 1 10-9 2-10-7-4-13-10-17-15l-15 15h-24v-62h59c9 1 9-8 2-10-7-4-13-9-17-14-8 9-16 18-36 15" id="cA"/><path fill="#3a414a" d="M224-29c26-11 48-29 73-43-4-7-12-8-18-17-18 23-37 42-58 56-16-19-28-40-39-68h138c9 0 10-9 1-11-8-5-14-11-19-17l-16 18H183v-41h96c8 0 10-8 2-11-8-5-15-9-19-15l-15 16h-64v-42h115c7 0 11-8 2-11-8-5-15-11-20-17l-16 18h-81c-2-18 3-27 6-37l-26-8c4 10 3 30 3 45H50l5 10h111v42H65l5 10h96v41H29l5 10h117C116-56 76-31 21-9l1 4c37-11 68-25 93-42v69c-18 5-40 8-56 9 6 4 12 37 21 22 33-16 68-23 120-48l-2-3c-25 7-46 13-65 17v-79c14-11 27-25 40-41h3c23 76 63 117 121 147 8-10 22-11 33-15-47-14-77-31-106-60" id="cB"/><path fill="#3a414a" d="M17-33c5 4 13 38 20 21 32-16 65-24 113-50-22-1-47 14-65 16v-83h52c8 1 9-8 2-10-7-4-13-9-17-14l-15 15H85v-79h56c9 1 10-8 2-10-8-5-15-11-19-17l-17 18H18l5 9h46v79H21l5 9h43v88c-18 2-38 8-52 8zm288-191c-1-8 23-12 6-20-5-3-9-6-14-12l-11 12H177l-19-10c10 63 1 143 4 213 2 7 14-2 17-4v-189h109v185c2 7 15-1 17-4v-171zm-66 101c0-22-4-53 5-66l-26-8c3 2 5 27 5 74C223-10 180 15 97 53l2 2c85-26 140-62 140-178zm80 105c-4 32 7 58-30 53-21-3-27-1-27-15 0-33-7-82 7-101l-25-8c4 35 1 72 2 109 2 29 7 30 43 30 29 0 39 2 46-15-15-5-9-35-16-53" id="cC"/><path fill="#3a414a" d="M18-42c35 5 79 36 68 77-9 16-30 3-30-15 0-29-22-42-39-58-1-2 0-3 1-4" id="cD"/><path fill="#3a414a" d="M103-236c-39-15-35 32-34 71h44v15H69v136l35 6v8H15v-8l25-6v-136H11v-9l29-7c-6-59 23-100 80-84v36c-15 2-12-14-17-22" id="cE"/><path fill="#3a414a" d="M191-105c2-23-5-56 7-66-5-7-23-5-29-9 6 14 4 52 4 75H79c13-28 24-60 36-94h193c10 0 10-7 2-11-9-4-17-11-22-17l-17 19H119c6-12 4-34 17-41 5-3 6-7-2-8-5-1-10-3-17-6-5 19-11 38-17 55H29l5 9h63c-14 42-29 74-45 106-1 2 11 10 15 10 5 1 9-10 12-13h94v75H17l5 9h151c1 23-2 50 1 71 5-3 14-3 17-9v-62h132c11 1 12-9 3-12-11-6-19-13-25-21l-21 24h-89v-75h103c10-2 7-9-2-12-6-3-12-8-20-16l-19 19h-62" id="cF"/><path fill="#3a414a" d="M100-98c2-26-6-64 6-80-3-7-20-4-25-8 5 19 2 62 3 88H37c10-31 20-65 29-103h71c8 1 10-9 2-11-8-5-14-9-18-15l-15 16H69c4-16 4-37 16-44-4-4-13-4-20-8-4 18-9 35-13 52H18l5 10h27c-11 44-23 79-36 112 2 9 18 10 22 0h48v59c-21 6-47 13-67 15 5 3 13 40 20 22 6-8 33-15 47-22 1 24-2 51 1 73 5-3 14-2 15-8v-74c12-6 25-13 40-22l-3-3c-20 8-20 7-37 13v-53h36c12-11-14-15-19-26zm221-49c1-6 18-12 8-19-5-3-10-8-14-14-8 10-28 10-47 9v-56h58c10 0 10-8 2-12-9-4-15-11-20-17l-17 19H141l6 10h50l-1 56c-23 1-43 0-55-10 15 67-3 164 7 236 4-2 11-3 14-6V14c26-35 39-67 45-110 7 13 8 21 11 42 5 10 19 6 17-8-2-17-14-30-27-43 2-17 3-36 4-57h39c-2 79-8 113-38 168l3 3c26-34 41-61 46-107 12 20 17 27 24 56 2 4 4 7 8 7 5-1 9-6 8-14-3-22-21-38-39-55 2-17 4-37 4-58h38V11c-1 25-25 9-48 10v4c20 6 31 12 38 25 8-1 29-15 26-30v-167zm-70-24h-39l1-56h38v56zM162 6v-168h34c-3 75-8 112-34 168" id="cG"/><path fill="#3a414a" d="M134-16c44-1 70-21 70-64v-142l-32-4v-10h80v10l-30 4v141c0 57-33 84-91 85-58 0-93-26-93-82v-144l-30-4v-10h94v10l-30 4c7 82-31 209 62 206" id="cH"/><path fill="#3a414a" d="M99-105c23-28 30-40 52-86h170c12 1 13-9 3-11-10-6-17-13-23-20l-19 22H155c8-18 9-18 17-39 3-3 20-9 5-13-6-2-14-5-21-10-7 23-13 44-20 62H18l5 9h110C103-122 79-93 18-42l1 3c25-16 46-33 63-49V54c2 7 14-2 17-5v-154zm117 5c1-23-5-54 7-65-5-5-18-3-26-8 2 20 2 48 2 73h-82l5 10h77V28h-89l5 10h209c10 0 11-9 2-12-10-6-18-12-23-19l-17 21h-70V-90h92c9 1 11-9 2-11-9-5-17-11-22-18l-17 19h-55" id="cI"/><path fill="#3a414a" d="M67-92c-6 74 69 96 125 60l13-39h15l-11 60C128 16 12 10 12-93c0-122 110-166 231-136l-9 59h-15v-34c-11-9-30-16-51-16-69 4-96 57-101 128" id="cJ"/><path fill="#3a414a" d="m59-16 21 4-2 12H9l27-149-16-5 1-11h65zm39-207c0 38-54 32-54 0 0-16 10-27 28-27 17 0 26 11 26 27" id="cK"/><path fill="#3a414a" d="M62-57c-4 16-6 39 13 38 8 0 13-3 20-4l4 12C72 11 3 12 13-44l18-103H11l2-11 25-7 24-38h26l-7 38h28l-3 18H78" id="cL"/><path fill="#3a414a" d="M116-165c22 0 56-7 42 26C128-75 87-21 52 37 36 63 6 88-36 74l7-42h11c-5 29 27 32 42 11 9-13 20-28 29-42L15-149l-11-5 2-11h54L86-53c14-28 38-48 43-84 2-12-7-14-15-17" id="cM"/><path fill="#3a414a" d="M128-140c85 34 48 161-52 144C49 5 24-2 7-9l11-63h15v38c24 36 125 19 95-37-22-41-94-36-94-101 0-71 88-73 151-59l-10 56h-15l-2-34c-26-23-99-7-75 36 9 16 30 23 45 33" id="cN"/><path fill="#3a414a" d="M4-56c-1-80 62-132 143-106 7-3 13-7 24-6L145-16l19 6-2 10h-61v-24C89-11 75 4 51 4 17 4 5-22 4-56zm116-90c-48-23-67 38-70 84-2 36 29 52 46 24 2-3 5-6 7-9" id="cO"/><path fill="#3a414a" d="M169-135c20-49 103-47 90 26l-17 93 21 4-2 12h-68l21-127c1-27-25-14-34-3-24 31-22 86-33 130h-47l21-127c2-24-26-18-33-5C63-102 65-44 54 0H7l26-149-16-5 3-11h57v29c15-32 90-55 92 1" id="cP"/><path fill="#3a414a" d="M124-170c31 0 45 25 45 59C170-40 123 20 52-2l-9 63 28 4-2 12h-95l2-12 19-4 37-211-17-5 2-10h61l-1 24c11-15 25-29 47-29zM57-22c45 27 66-36 66-81 0-26-13-53-34-33-5 4-10 9-15 16" id="cQ"/><path fill="#3a414a" d="m58-16 21 4-2 12H8l41-234-16-4 2-12h64" id="cR"/><path fill="#3a414a" d="M8-58c3-72 59-136 130-101 9 5 14 13 14 25 0 48-53 54-95 64-3 26 4 52 31 52 20 0 33-9 45-17l8 11C108 13 5 18 8-58zm101-78c-5-28-28-9-35 5-6 12-12 25-14 42 27-4 47-18 49-47" id="cS"/><path fill="#3a414a" d="m280-243-19 22H48l5 10h112V14H19l6 10h296c12 0 13-10 3-12-11-6-18-13-24-21l-21 23h-95v-225h117c12 1 11-9 3-12-10-6-18-13-24-20" id="cT"/><path fill="#3a414a" d="m106-227 44-18c-3-7-11-9-17-17-17 19-52 36-107 52 17 4 44-8 63-12v60H22l5 10h61C67-75 54-67 19 5c32-36 52-64 70-113V51c2 6 16 0 17-5v-172c19 9 18 34 37 44 5 0 8-7 8-15-5-16-25-24-45-34v-21c17-3 45 6 52-6-6-8-20-14-25-22-8 7-10 20-27 18v-65zm199 5c0-9 21-14 5-21-5-3-10-7-15-12l-11 8c-41-3-95 8-122-9 9 36 2 85 4 127 2 7 15-1 17-4v-20h105c1 5-3 15 3 15 4-2 12-3 14-7v-77zm-122 59v-74h105v74H183zm119 34-15 17H151l5 9h68v57h-63l5 9h58v66h-94l6 10h188c8 0 10-8 2-11-8-5-14-9-18-15l-16 16h-52v-66h70c8 1 9-8 2-10-8-5-14-10-18-16l-15 17h-39v-57h79c9 1 9-9 1-10-8-5-14-10-18-16" id="cU"/><path fill="#3a414a" d="M184-182c2-24-6-59 7-70-3-9-25-6-30-10 6 15 4 55 4 80H65l-24-13c9 44 2 103 4 154 12 10 23-3 20-21h100l1 120c6-3 15-3 18-9V-62h102c1 5-3 14 4 14 5-2 13-3 15-8v-104c1-9 23-15 4-23-5-3-11-8-17-14l-13 15h-95zM65-71v-102h100v102H65zm119-102h102v102H184v-102" id="cV"/><use transform="rotate(.413) scale(.06173)" xlink:href="#aY" id="c"/><use transform="rotate(.413) scale(.06173)" xlink:href="#aZ" id="d"/><use transform="rotate(.413) scale(.06173)" xlink:href="#ba" id="e"/><use transform="rotate(.413) scale(.06173)" xlink:href="#bb" id="f"/><use transform="rotate(.413) scale(.06173)" xlink:href="#bv" id="s"/><use transform="rotate(.413) scale(.06173)" xlink:href="#bC" id="u"/><use transform="rotate(.413) scale(.06173)" xlink:href="#bD" id="v"/><use transform="rotate(.413) scale(.06173)" xlink:href="#bJ" id="x"/><use transform="rotate(.413) scale(.06173)" xlink:href="#bK" id="y"/><use transform="rotate(.413) scale(.06173)" xlink:href="#bL" id="z"/><use transform="rotate(.413) scale(.06173)" xlink:href="#bM" id="A"/><use transform="rotate(.413) scale(.06173)" xlink:href="#bN" id="B"/><use transform="rotate(.413) scale(.06173)" xlink:href="#bO" id="C"/><use transform="rotate(.413) scale(.06173)" xlink:href="#bP" id="D"/><use transform="rotate(.413) scale(.06173)" xlink:href="#bQ" id="E"/><use transform="rotate(.413) scale(.06173)" xlink:href="#bR" id="G"/><use transform="rotate(.413) scale(.06173)" xlink:href="#bS" id="H"/><use transform="rotate(.413) scale(.06173)" xlink:href="#bT" id="I"/><use transform="rotate(.413) scale(.06173)" xlink:href="#bU" id="J"/><use transform="rotate(.413) scale(.06173)" xlink:href="#bV" id="K"/><use transform="rotate(.413) scale(.06173)" xlink:href="#bW" id="L"/><use transform="rotate(.413) scale(.06173)" xlink:href="#bX" id="M"/><use transform="rotate(.413) scale(.06173)" xlink:href="#bZ" id="P"/><use transform="rotate(.413) scale(.06173)" xlink:href="#ca" id="Q"/><use transform="rotate(.413) scale(.06173)" xlink:href="#cb" id="R"/><use transform="rotate(.413) scale(.06173)" xlink:href="#cd" id="T"/><use transform="rotate(.413) scale(.06173)" xlink:href="#ce" id="U"/><use transform="rotate(.413) scale(.06173)" xlink:href="#cg" id="W"/><use transform="rotate(.413) scale(.06173)" xlink:href="#ch" id="X"/><use transform="rotate(.413) scale(.06173)" xlink:href="#ci" id="Y"/><use transform="rotate(.413) scale(.06173)" xlink:href="#cj" id="aa"/><use transform="rotate(.413) scale(.06173)" xlink:href="#ck" id="ab"/><use transform="rotate(.413) scale(.06173)" xlink:href="#cl" id="ac"/><use transform="rotate(.413) scale(.06173)" xlink:href="#cm" id="ad"/><use transform="rotate(.413) scale(.06173)" xlink:href="#ba" id="ae"/><use transform="rotate(.413) scale(.06173)" xlink:href="#ce" id="an"/><use transform="rotate(.413) scale(.06173)" xlink:href="#ct" id="ao"/><use transform="rotate(.413) scale(.06173)" xlink:href="#cu" id="ap"/><use transform="rotate(.413) scale(.06173)" xlink:href="#cv" id="aq"/><use transform="rotate(.413) scale(.06173)" xlink:href="#cw" id="ar"/><use transform="rotate(.413) scale(.06173)" xlink:href="#cx" id="as"/><use transform="rotate(.413) scale(.06173)" xlink:href="#cu" id="au"/><use transform="rotate(.413) scale(.06173)" xlink:href="#cz" id="aw"/><use transform="rotate(.413) scale(.06173)" xlink:href="#cA" id="ax"/><use transform="rotate(.413) scale(.06173)" xlink:href="#cB" id="ay"/><use transform="rotate(.413) scale(.06173)" xlink:href="#cF" id="aB"/><use transform="rotate(.413) scale(.06173)" xlink:href="#cG" id="aC"/><use transform="rotate(.413) scale(.06173)" xlink:href="#cI" id="aJ"/><use transform="rotate(.413) scale(.06173)" xlink:href="#cT" id="aL"/><use transform="rotate(.413) scale(.06173)" xlink:href="#cU" id="aM"/><use transform="rotate(.413) scale(.06173)" xlink:href="#cV" id="aN"/><g id="a"><use transform="rotate(.413) scale(.06173)" xlink:href="#aO"/><use transform="matrix(.06173 0 0 .06173 19.753 0)" xlink:href="#aP"/><use transform="matrix(.06173 0 0 .06173 29.568 0)" xlink:href="#aQ"/><use transform="matrix(.06173 0 0 .06173 38.21 0)" xlink:href="#aQ"/><use transform="matrix(.06173 0 0 .06173 46.852 0)" xlink:href="#aR"/><use transform="matrix(.06173 0 0 .06173 60.37 0)" xlink:href="#aS"/><use transform="matrix(.06173 0 0 .06173 71.481 0)" xlink:href="#aT"/><use transform="matrix(.06173 0 0 .06173 77.654 0)" xlink:href="#aU"/><use transform="matrix(.06173 0 0 .06173 83.827 0)" xlink:href="#aT"/><use transform="matrix(.06173 0 0 .06173 90 0)" xlink:href="#aV"/></g><g id="b"><use transform="rotate(.413) scale(.06173)" xlink:href="#aR"/><use transform="matrix(.06173 0 0 .06173 13.519 0)" xlink:href="#aW"/><use transform="matrix(.06173 0 0 .06173 28.333 0)" xlink:href="#aX"/></g><g id="g"><use transform="rotate(.413) scale(.06173)" xlink:href="#aO"/><use transform="matrix(.06173 0 0 .06173 19.753 0)" xlink:href="#aP"/><use transform="matrix(.06173 0 0 .06173 29.568 0)" xlink:href="#aQ"/><use transform="matrix(.06173 0 0 .06173 38.21 0)" xlink:href="#aQ"/><use transform="matrix(.06173 0 0 .06173 46.852 0)" xlink:href="#bc"/><use transform="matrix(.06173 0 0 .06173 62.84 0)" xlink:href="#aP"/><use transform="matrix(.06173 0 0 .06173 72.654 0)" xlink:href="#bd"/><use transform="matrix(.06173 0 0 .06173 89.938 0)" xlink:href="#be"/><use transform="matrix(.06173 0 0 .06173 99.753 0)" xlink:href="#bf"/><use transform="matrix(.06173 0 0 .06173 110.864 0)" xlink:href="#bg"/><use transform="matrix(.06173 0 0 .06173 117.037 0)" xlink:href="#aP"/><use transform="matrix(.06173 0 0 .06173 126.852 0)" xlink:href="#aV"/></g><g id="h"><use transform="rotate(.413) scale(.06173)" xlink:href="#aO"/><use transform="matrix(.06173 0 0 .06173 19.753 0)" xlink:href="#aP"/><use transform="matrix(.06173 0 0 .06173 29.568 0)" xlink:href="#aQ"/><use transform="matrix(.06173 0 0 .06173 38.21 0)" xlink:href="#aQ"/><use transform="matrix(.06173 0 0 .06173 46.852 0)" xlink:href="#bh"/><use transform="matrix(.06173 0 0 .06173 62.84 0)" xlink:href="#bi"/><use transform="matrix(.06173 0 0 .06173 72.654 0)" xlink:href="#aT"/><use transform="matrix(.06173 0 0 .06173 78.827 0)" xlink:href="#bj"/><use transform="matrix(.06173 0 0 .06173 89.938 0)" xlink:href="#bk"/><use transform="matrix(.06173 0 0 .06173 97.284 0)" xlink:href="#aQ"/></g><g id="i"><use transform="rotate(.413) scale(.06173)" xlink:href="#aO"/><use transform="matrix(.06173 0 0 .06173 19.753 0)" xlink:href="#aP"/><use transform="matrix(.06173 0 0 .06173 29.568 0)" xlink:href="#aQ"/><use transform="matrix(.06173 0 0 .06173 38.21 0)" xlink:href="#aQ"/><use transform="matrix(.06173 0 0 .06173 46.852 0)" xlink:href="#aX"/><use transform="matrix(.06173 0 0 .06173 59.198 0)" xlink:href="#bd"/><use transform="matrix(.06173 0 0 .06173 76.481 0)" xlink:href="#aP"/><use transform="matrix(.06173 0 0 .06173 86.296 0)" xlink:href="#bk"/><use transform="matrix(.06173 0 0 .06173 93.642 0)" xlink:href="#aT"/><use transform="matrix(.06173 0 0 .06173 99.815 0)" xlink:href="#bl"/><use transform="matrix(.06173 0 0 .06173 115.802 0)" xlink:href="#bm"/><use transform="matrix(.06173 0 0 .06173 126.914 0)" xlink:href="#bn"/><use transform="matrix(.06173 0 0 .06173 133.086 0)" xlink:href="#be"/><use transform="matrix(.06173 0 0 .06173 142.901 0)" xlink:href="#bi"/><use transform="matrix(.06173 0 0 .06173 152.716 0)" xlink:href="#aT"/><use transform="matrix(.06173 0 0 .06173 158.889 0)" xlink:href="#aQ"/></g><g id="j"><use transform="rotate(.413) scale(.06173)" xlink:href="#aO"/><use transform="matrix(.06173 0 0 .06173 19.753 0)" xlink:href="#aP"/><use transform="matrix(.06173 0 0 .06173 29.568 0)" xlink:href="#aQ"/><use transform="matrix(.06173 0 0 .06173 38.21 0)" xlink:href="#aQ"/><use transform="matrix(.06173 0 0 .06173 46.852 0)" xlink:href="#bo"/><use transform="matrix(.06173 0 0 .06173 61.667 0)" xlink:href="#be"/><use transform="matrix(.06173 0 0 .06173 71.481 0)" xlink:href="#bf"/><use transform="matrix(.06173 0 0 .06173 82.593 0)" xlink:href="#bg"/><use transform="matrix(.06173 0 0 .06173 88.765 0)" xlink:href="#aU"/><use transform="matrix(.06173 0 0 .06173 94.938 0)" xlink:href="#bi"/><use transform="matrix(.06173 0 0 .06173 104.753 0)" xlink:href="#aP"/><use transform="matrix(.06173 0 0 .06173 114.568 0)" xlink:href="#aT"/><use transform="matrix(.06173 0 0 .06173 120.74 0)" xlink:href="#aU"/><use transform="matrix(.06173 0 0 .06173 126.914 0)" xlink:href="#bj"/><use transform="matrix(.06173 0 0 .06173 138.025 0)" xlink:href="#aS"/></g><g id="k"><use transform="rotate(.413) scale(.06173)" xlink:href="#aO"/><use transform="matrix(.06173 0 0 .06173 19.753 0)" xlink:href="#aP"/><use transform="matrix(.06173 0 0 .06173 29.568 0)" xlink:href="#aQ"/><use transform="matrix(.06173 0 0 .06173 38.21 0)" xlink:href="#aQ"/><use transform="matrix(.06173 0 0 .06173 46.852 0)" xlink:href="#bc"/><use transform="matrix(.06173 0 0 .06173 62.84 0)" xlink:href="#aP"/><use transform="matrix(.06173 0 0 .06173 72.654 0)" xlink:href="#bd"/><use transform="matrix(.06173 0 0 .06173 89.938 0)" xlink:href="#be"/><use transform="matrix(.06173 0 0 .06173 99.753 0)" xlink:href="#bf"/><use transform="matrix(.06173 0 0 .06173 110.864 0)" xlink:href="#bg"/><use transform="matrix(.06173 0 0 .06173 117.037 0)" xlink:href="#aP"/><use transform="matrix(.06173 0 0 .06173 126.852 0)" xlink:href="#aV"/><use transform="matrix(.06173 0 0 .06173 137.963 0)" xlink:href="#bp"/><use transform="matrix(.06173 0 0 .06173 153.95 0)" xlink:href="#be"/><use transform="matrix(.06173 0 0 .06173 163.765 0)" xlink:href="#bm"/><use transform="matrix(.06173 0 0 .06173 174.877 0)" xlink:href="#bq"/><use transform="matrix(.06173 0 0 .06173 185.988 0)" xlink:href="#br"/></g><g id="l"><use transform="rotate(.413) scale(.06173)" xlink:href="#aO"/><use transform="matrix(.06173 0 0 .06173 19.753 0)" xlink:href="#aP"/><use transform="matrix(.06173 0 0 .06173 29.568 0)" xlink:href="#aQ"/><use transform="matrix(.06173 0 0 .06173 38.21 0)" xlink:href="#aQ"/><use transform="matrix(.06173 0 0 .06173 46.852 0)" xlink:href="#aO"/><use transform="matrix(.06173 0 0 .06173 66.605 0)" xlink:href="#bj"/><use transform="matrix(.06173 0 0 .06173 77.716 0)" xlink:href="#bs"/><use transform="matrix(.06173 0 0 .06173 88.827 0)" xlink:href="#be"/><use transform="matrix(.06173 0 0 .06173 98.642 0)" xlink:href="#bd"/><use transform="matrix(.06173 0 0 .06173 115.926 0)" xlink:href="#be"/><use transform="matrix(.06173 0 0 .06173 125.74 0)" xlink:href="#aS"/><use transform="matrix(.06173 0 0 .06173 136.852 0)" xlink:href="#aT"/></g><g id="m"><use transform="rotate(.413) scale(.06173)" xlink:href="#aO"/><use transform="matrix(.06173 0 0 .06173 19.753 0)" xlink:href="#aP"/><use transform="matrix(.06173 0 0 .06173 29.568 0)" xlink:href="#aQ"/><use transform="matrix(.06173 0 0 .06173 38.21 0)" xlink:href="#aQ"/><use transform="matrix(.06173 0 0 .06173 46.852 0)" xlink:href="#bt"/><use transform="matrix(.06173 0 0 .06173 60.37 0)" xlink:href="#bl"/><use transform="matrix(.06173 0 0 .06173 76.358 0)" xlink:href="#bp"/></g><g id="n"><use transform="rotate(.413) scale(.06173)" xlink:href="#aO"/><use transform="matrix(.06173 0 0 .06173 19.753 0)" xlink:href="#aP"/><use transform="matrix(.06173 0 0 .06173 29.568 0)" xlink:href="#aQ"/><use transform="matrix(.06173 0 0 .06173 38.21 0)" xlink:href="#aQ"/><use transform="matrix(.06173 0 0 .06173 46.852 0)" xlink:href="#aX"/><use transform="matrix(.06173 0 0 .06173 59.198 0)" xlink:href="#aU"/><use transform="matrix(.06173 0 0 .06173 65.37 0)" xlink:href="#br"/><use transform="matrix(.06173 0 0 .06173 76.481 0)" xlink:href="#aS"/><use transform="matrix(.06173 0 0 .06173 87.593 0)" xlink:href="#aP"/><use transform="matrix(.06173 0 0 .06173 97.407 0)" xlink:href="#bg"/><use transform="matrix(.06173 0 0 .06173 103.58 0)" xlink:href="#aQ"/></g><g id="o"><use transform="rotate(.413) scale(.06173)" xlink:href="#aO"/><use transform="matrix(.06173 0 0 .06173 19.753 0)" xlink:href="#aP"/><use transform="matrix(.06173 0 0 .06173 29.568 0)" xlink:href="#aQ"/><use transform="matrix(.06173 0 0 .06173 38.21 0)" xlink:href="#aQ"/><use transform="matrix(.06173 0 0 .06173 46.852 0)" xlink:href="#aX"/><use transform="matrix(.06173 0 0 .06173 59.198 0)" xlink:href="#bf"/><use transform="matrix(.06173 0 0 .06173 70.309 0)" xlink:href="#aP"/><use transform="matrix(.06173 0 0 .06173 80.123 0)" xlink:href="#bu"/><use transform="matrix(.06173 0 0 .06173 96.111 0)" xlink:href="#aS"/><use transform="matrix(.06173 0 0 .06173 107.222 0)" xlink:href="#be"/><use transform="matrix(.06173 0 0 .06173 117.037 0)" xlink:href="#bk"/></g><g id="p"><use transform="rotate(.413) scale(.06173)" xlink:href="#aO"/><use transform="matrix(.06173 0 0 .06173 19.753 0)" xlink:href="#aP"/><use transform="matrix(.06173 0 0 .06173 29.568 0)" xlink:href="#aQ"/><use transform="matrix(.06173 0 0 .06173 38.21 0)" xlink:href="#aQ"/><use transform="matrix(.06173 0 0 .06173 46.852 0)" xlink:href="#aX"/><use transform="matrix(.06173 0 0 .06173 59.198 0)" xlink:href="#aU"/><use transform="matrix(.06173 0 0 .06173 65.37 0)" xlink:href="#bd"/><use transform="matrix(.06173 0 0 .06173 82.654 0)" xlink:href="#bq"/><use transform="matrix(.06173 0 0 .06173 93.765 0)" xlink:href="#bg"/><use transform="matrix(.06173 0 0 .06173 99.938 0)" xlink:href="#aP"/><use transform="matrix(.06173 0 0 .06173 109.753 0)" xlink:href="#aT"/><use transform="matrix(.06173 0 0 .06173 115.926 0)" xlink:href="#aU"/><use transform="matrix(.06173 0 0 .06173 122.099 0)" xlink:href="#bj"/><use transform="matrix(.06173 0 0 .06173 133.21 0)" xlink:href="#aS"/></g><g id="q"><use transform="rotate(.413) scale(.06173)" xlink:href="#aO"/><use transform="matrix(.06173 0 0 .06173 19.753 0)" xlink:href="#aP"/><use transform="matrix(.06173 0 0 .06173 29.568 0)" xlink:href="#aQ"/><use transform="matrix(.06173 0 0 .06173 38.21 0)" xlink:href="#aQ"/><use transform="matrix(.06173 0 0 .06173 46.852 0)" xlink:href="#aW"/><use transform="matrix(.06173 0 0 .06173 61.667 0)" xlink:href="#bj"/><use transform="matrix(.06173 0 0 .06173 72.778 0)" xlink:href="#bd"/><use transform="matrix(.06173 0 0 .06173 90.062 0)" xlink:href="#bd"/><use transform="matrix(.06173 0 0 .06173 107.346 0)" xlink:href="#bj"/><use transform="matrix(.06173 0 0 .06173 118.457 0)" xlink:href="#aS"/></g><g id="r"><use transform="rotate(.413) scale(.06173)" xlink:href="#aO"/><use transform="matrix(.06173 0 0 .06173 19.753 0)" xlink:href="#aP"/><use transform="matrix(.06173 0 0 .06173 29.568 0)" xlink:href="#aQ"/><use transform="matrix(.06173 0 0 .06173 38.21 0)" xlink:href="#aQ"/><use transform="matrix(.06173 0 0 .06173 46.852 0)" xlink:href="#bo"/><use transform="matrix(.06173 0 0 .06173 61.667 0)" xlink:href="#be"/><use transform="matrix(.06173 0 0 .06173 71.481 0)" xlink:href="#bf"/><use transform="matrix(.06173 0 0 .06173 82.593 0)" xlink:href="#bk"/><use transform="matrix(.06173 0 0 .06173 89.938 0)" xlink:href="#be"/><use transform="matrix(.06173 0 0 .06173 99.753 0)" xlink:href="#aQ"/><use transform="matrix(.06173 0 0 .06173 108.395 0)" xlink:href="#be"/><use transform="matrix(.06173 0 0 .06173 118.21 0)" xlink:href="#aS"/><use transform="matrix(.06173 0 0 .06173 129.321 0)" xlink:href="#aT"/><use transform="matrix(.06173 0 0 .06173 135.494 0)" xlink:href="#aP"/><use transform="matrix(.06173 0 0 .06173 145.309 0)" xlink:href="#aT"/><use transform="matrix(.06173 0 0 .06173 151.481 0)" xlink:href="#aU"/><use transform="matrix(.06173 0 0 .06173 157.654 0)" xlink:href="#bj"/><use transform="matrix(.06173 0 0 .06173 168.765 0)" xlink:href="#aS"/></g><g id="t"><use transform="rotate(.413) scale(.06173)" xlink:href="#bw"/><use transform="matrix(.06173 0 0 .06173 22.222 0)" xlink:href="#bx"/><use transform="matrix(.06173 0 0 .06173 37.037 0)" xlink:href="#by"/><use transform="matrix(.06173 0 0 .06173 49.383 0)" xlink:href="#bz"/><use transform="matrix(.06173 0 0 .06173 56.728 0)" xlink:href="#bA"/><use transform="matrix(.06173 0 0 .06173 62.901 0)" xlink:href="#bz"/><use transform="matrix(.06173 0 0 .06173 70.247 0)" xlink:href="#bB"/></g><g id="w"><use transform="rotate(.413) scale(.06173)" xlink:href="#bE"/><use transform="matrix(.06173 0 0 .06173 22.222 0)" xlink:href="#bF"/><use transform="matrix(.06173 0 0 .06173 38.21 0)" xlink:href="#bG"/><use transform="matrix(.06173 0 0 .06173 48.025 0)" xlink:href="#bz"/><use transform="matrix(.06173 0 0 .06173 55.37 0)" xlink:href="#bH"/><use transform="matrix(.06173 0 0 .06173 66.481 0)" xlink:href="#bI"/></g><g id="F"><use transform="rotate(.413) scale(.06173)" xlink:href="#aX"/><use transform="matrix(.06173 0 0 .06173 12.346 0)" xlink:href="#bd"/><use transform="matrix(.06173 0 0 .06173 29.63 0)" xlink:href="#aP"/><use transform="matrix(.06173 0 0 .06173 39.444 0)" xlink:href="#bk"/><use transform="matrix(.06173 0 0 .06173 46.79 0)" xlink:href="#aT"/><use transform="matrix(.06173 0 0 .06173 52.963 0)" xlink:href="#bl"/><use transform="matrix(.06173 0 0 .06173 68.95 0)" xlink:href="#bm"/><use transform="matrix(.06173 0 0 .06173 80.062 0)" xlink:href="#bn"/><use transform="matrix(.06173 0 0 .06173 86.235 0)" xlink:href="#be"/><use transform="matrix(.06173 0 0 .06173 96.05 0)" xlink:href="#bi"/><use transform="matrix(.06173 0 0 .06173 105.864 0)" xlink:href="#aT"/></g><g id="N"><use transform="rotate(.413) scale(.06173)" xlink:href="#bY"/><use transform="matrix(.06173 0 0 .06173 12.716 0)" xlink:href="#bk"/><use transform="matrix(.06173 0 0 .06173 20.062 0)" xlink:href="#aP"/><use transform="matrix(.06173 0 0 .06173 29.877 0)" xlink:href="#aU"/><use transform="matrix(.06173 0 0 .06173 36.05 0)" xlink:href="#aT"/><use transform="matrix(.06173 0 0 .06173 42.222 0)" xlink:href="#aQ"/></g><g id="O"><use transform="rotate(.413) scale(.06173)" xlink:href="#bt"/><use transform="matrix(.06173 0 0 .06173 13.519 0)" xlink:href="#bl"/><use transform="matrix(.06173 0 0 .06173 29.506 0)" xlink:href="#bp"/></g><g id="S"><use transform="rotate(.413) scale(.06173)" xlink:href="#cc"/><use transform="matrix(.06173 0 0 .06173 22.222 0)" xlink:href="#aR"/><use transform="matrix(.06173 0 0 .06173 35.74 0)" xlink:href="#aS"/><use transform="matrix(.06173 0 0 .06173 46.852 0)" xlink:href="#aT"/><use transform="matrix(.06173 0 0 .06173 53.025 0)" xlink:href="#aU"/><use transform="matrix(.06173 0 0 .06173 59.198 0)" xlink:href="#aT"/><use transform="matrix(.06173 0 0 .06173 65.37 0)" xlink:href="#aV"/></g><g id="V"><use transform="rotate(.413) scale(.06173)" xlink:href="#cf"/><use transform="matrix(.06173 0 0 .06173 12.346 0)" xlink:href="#bk"/><use transform="matrix(.06173 0 0 .06173 19.691 0)" xlink:href="#bj"/><use transform="matrix(.06173 0 0 .06173 30.802 0)" xlink:href="#bi"/><use transform="matrix(.06173 0 0 .06173 40.617 0)" xlink:href="#be"/><use transform="matrix(.06173 0 0 .06173 50.432 0)" xlink:href="#aQ"/><use transform="matrix(.06173 0 0 .06173 59.074 0)" xlink:href="#aQ"/><use transform="matrix(.06173 0 0 .06173 67.716 0)" xlink:href="#bj"/><use transform="matrix(.06173 0 0 .06173 78.827 0)" xlink:href="#bk"/><use transform="matrix(.06173 0 0 .06173 86.173 0)" xlink:href="#aQ"/></g><g id="Z"><use transform="rotate(.413) scale(.06173)" xlink:href="#aR"/><use transform="matrix(.06173 0 0 .06173 13.519 0)" xlink:href="#aS"/><use transform="matrix(.06173 0 0 .06173 24.63 0)" xlink:href="#aT"/><use transform="matrix(.06173 0 0 .06173 30.802 0)" xlink:href="#aU"/><use transform="matrix(.06173 0 0 .06173 36.975 0)" xlink:href="#aT"/><use transform="matrix(.06173 0 0 .06173 43.148 0)" xlink:href="#aV"/></g><g id="af"><use transform="rotate(.413) scale(.06173)" xlink:href="#bb"/><use transform="matrix(.06173 0 0 .06173 22.222 0)" xlink:href="#cn"/><use transform="matrix(.06173 0 0 .06173 34.568 0)" xlink:href="#bk"/><use transform="matrix(.06173 0 0 .06173 41.914 0)" xlink:href="#aP"/><use transform="matrix(.06173 0 0 .06173 51.728 0)" xlink:href="#br"/><use transform="matrix(.06173 0 0 .06173 62.84 0)" xlink:href="#bd"/><use transform="matrix(.06173 0 0 .06173 80.123 0)" xlink:href="#be"/><use transform="matrix(.06173 0 0 .06173 89.938 0)" xlink:href="#aS"/><use transform="matrix(.06173 0 0 .06173 101.05 0)" xlink:href="#aT"/></g><g id="ag"><use transform="rotate(.413) scale(.06173)" xlink:href="#aO"/><use transform="matrix(.06173 0 0 .06173 19.753 0)" xlink:href="#aP"/><use transform="matrix(.06173 0 0 .06173 29.568 0)" xlink:href="#aQ"/><use transform="matrix(.06173 0 0 .06173 38.21 0)" xlink:href="#aQ"/><use transform="matrix(.06173 0 0 .06173 46.852 0)" xlink:href="#bh"/><use transform="matrix(.06173 0 0 .06173 62.84 0)" xlink:href="#co"/></g><g id="ah"><use transform="rotate(.413) scale(.06173)" xlink:href="#aO"/><use transform="matrix(.06173 0 0 .06173 19.753 0)" xlink:href="#aP"/><use transform="matrix(.06173 0 0 .06173 29.568 0)" xlink:href="#aQ"/><use transform="matrix(.06173 0 0 .06173 38.21 0)" xlink:href="#aQ"/><use transform="matrix(.06173 0 0 .06173 46.852 0)" xlink:href="#bh"/><use transform="matrix(.06173 0 0 .06173 62.84 0)" xlink:href="#co"/><use transform="matrix(.06173 0 0 .06173 70.185 0)" xlink:href="#bp"/><use transform="matrix(.06173 0 0 .06173 86.173 0)" xlink:href="#be"/><use transform="matrix(.06173 0 0 .06173 95.988 0)" xlink:href="#bm"/><use transform="matrix(.06173 0 0 .06173 107.099 0)" xlink:href="#bq"/><use transform="matrix(.06173 0 0 .06173 118.21 0)" xlink:href="#br"/></g><g id="ai"><use transform="rotate(.413) scale(.06173)" xlink:href="#aO"/><use transform="matrix(.06173 0 0 .06173 19.753 0)" xlink:href="#aP"/><use transform="matrix(.06173 0 0 .06173 29.568 0)" xlink:href="#aQ"/><use transform="matrix(.06173 0 0 .06173 38.21 0)" xlink:href="#aQ"/><use transform="matrix(.06173 0 0 .06173 46.852 0)" xlink:href="#bh"/><use transform="matrix(.06173 0 0 .06173 62.84 0)" xlink:href="#co"/><use transform="matrix(.06173 0 0 .06173 70.185 0)" xlink:href="#cp"/><use transform="matrix(.06173 0 0 .06173 85 0)" xlink:href="#be"/><use transform="matrix(.06173 0 0 .06173 94.815 0)" xlink:href="#cq"/><use transform="matrix(.06173 0 0 .06173 105.926 0)" xlink:href="#aP"/><use transform="matrix(.06173 0 0 .06173 115.74 0)" xlink:href="#bs"/><use transform="matrix(.06173 0 0 .06173 126.852 0)" xlink:href="#aU"/><use transform="matrix(.06173 0 0 .06173 133.025 0)" xlink:href="#bj"/><use transform="matrix(.06173 0 0 .06173 144.136 0)" xlink:href="#bk"/></g><g id="aj"><use transform="rotate(.413) scale(.06173)" xlink:href="#aO"/><use transform="matrix(.06173 0 0 .06173 19.753 0)" xlink:href="#aP"/><use transform="matrix(.06173 0 0 .06173 29.568 0)" xlink:href="#aQ"/><use transform="matrix(.06173 0 0 .06173 38.21 0)" xlink:href="#aQ"/><use transform="matrix(.06173 0 0 .06173 46.852 0)" xlink:href="#cr"/><use transform="matrix(.06173 0 0 .06173 62.84 0)" xlink:href="#aP"/><use transform="matrix(.06173 0 0 .06173 72.654 0)" xlink:href="#bs"/><use transform="matrix(.06173 0 0 .06173 83.765 0)" xlink:href="#aU"/><use transform="matrix(.06173 0 0 .06173 89.938 0)" xlink:href="#br"/><use transform="matrix(.06173 0 0 .06173 101.05 0)" xlink:href="#aP"/><use transform="matrix(.06173 0 0 .06173 110.864 0)" xlink:href="#aT"/><use transform="matrix(.06173 0 0 .06173 117.037 0)" xlink:href="#aU"/><use transform="matrix(.06173 0 0 .06173 123.21 0)" xlink:href="#bj"/><use transform="matrix(.06173 0 0 .06173 134.321 0)" xlink:href="#aS"/></g><g id="ak"><use transform="rotate(.413) scale(.06173)" xlink:href="#aO"/><use transform="matrix(.06173 0 0 .06173 19.753 0)" xlink:href="#aP"/><use transform="matrix(.06173 0 0 .06173 29.568 0)" xlink:href="#aQ"/><use transform="matrix(.06173 0 0 .06173 38.21 0)" xlink:href="#aQ"/><use transform="matrix(.06173 0 0 .06173 46.852 0)" xlink:href="#bh"/><use transform="matrix(.06173 0 0 .06173 62.84 0)" xlink:href="#co"/><use transform="matrix(.06173 0 0 .06173 70.185 0)" xlink:href="#bo"/><use transform="matrix(.06173 0 0 .06173 85 0)" xlink:href="#be"/><use transform="matrix(.06173 0 0 .06173 94.815 0)" xlink:href="#bf"/><use transform="matrix(.06173 0 0 .06173 105.926 0)" xlink:href="#bg"/><use transform="matrix(.06173 0 0 .06173 112.099 0)" xlink:href="#aU"/><use transform="matrix(.06173 0 0 .06173 118.272 0)" xlink:href="#bi"/><use transform="matrix(.06173 0 0 .06173 128.086 0)" xlink:href="#aP"/><use transform="matrix(.06173 0 0 .06173 137.901 0)" xlink:href="#aT"/><use transform="matrix(.06173 0 0 .06173 144.074 0)" xlink:href="#aU"/><use transform="matrix(.06173 0 0 .06173 150.247 0)" xlink:href="#bj"/><use transform="matrix(.06173 0 0 .06173 161.358 0)" xlink:href="#aS"/></g><g id="al"><use transform="rotate(.413) scale(.06173)" xlink:href="#aO"/><use transform="matrix(.06173 0 0 .06173 19.753 0)" xlink:href="#aP"/><use transform="matrix(.06173 0 0 .06173 29.568 0)" xlink:href="#aQ"/><use transform="matrix(.06173 0 0 .06173 38.21 0)" xlink:href="#aQ"/><use transform="matrix(.06173 0 0 .06173 46.852 0)" xlink:href="#cs"/><use transform="matrix(.06173 0 0 .06173 60.37 0)" xlink:href="#bj"/><use transform="matrix(.06173 0 0 .06173 71.481 0)" xlink:href="#aS"/><use transform="matrix(.06173 0 0 .06173 82.593 0)" xlink:href="#be"/><use transform="matrix(.06173 0 0 .06173 92.407 0)" xlink:href="#bc"/><use transform="matrix(.06173 0 0 .06173 108.395 0)" xlink:href="#bk"/><use transform="matrix(.06173 0 0 .06173 115.74 0)" xlink:href="#aP"/><use transform="matrix(.06173 0 0 .06173 125.556 0)" xlink:href="#bf"/><use transform="matrix(.06173 0 0 .06173 136.667 0)" xlink:href="#cq"/><use transform="matrix(.06173 0 0 .06173 147.778 0)" xlink:href="#cr"/><use transform="matrix(.06173 0 0 .06173 163.765 0)" xlink:href="#aP"/><use transform="matrix(.06173 0 0 .06173 173.58 0)" xlink:href="#bs"/><use transform="matrix(.06173 0 0 .06173 184.691 0)" xlink:href="#aU"/><use transform="matrix(.06173 0 0 .06173 190.864 0)" xlink:href="#br"/><use transform="matrix(.06173 0 0 .06173 201.975 0)" xlink:href="#aP"/><use transform="matrix(.06173 0 0 .06173 211.79 0)" xlink:href="#aT"/><use transform="matrix(.06173 0 0 .06173 217.963 0)" xlink:href="#aU"/><use transform="matrix(.06173 0 0 .06173 224.136 0)" xlink:href="#bj"/><use transform="matrix(.06173 0 0 .06173 235.247 0)" xlink:href="#aS"/></g><g id="am"><use transform="rotate(.413) scale(.06173)" xlink:href="#bh"/><use transform="matrix(.06173 0 0 .06173 15.988 0)" xlink:href="#co"/></g><g id="at"><use transform="rotate(.413) scale(.06173)" xlink:href="#cs"/><use transform="matrix(.06173 0 0 .06173 13.519 0)" xlink:href="#bc"/></g><g id="av"><use transform="rotate(.413) scale(.06173)" xlink:href="#aO"/><use transform="matrix(.06173 0 0 .06173 19.753 0)" xlink:href="#aP"/><use transform="matrix(.06173 0 0 .06173 29.568 0)" xlink:href="#aQ"/><use transform="matrix(.06173 0 0 .06173 38.21 0)" xlink:href="#aQ"/><use transform="matrix(.06173 0 0 .06173 46.852 0)" xlink:href="#aW"/><use transform="matrix(.06173 0 0 .06173 61.667 0)" xlink:href="#bk"/><use transform="matrix(.06173 0 0 .06173 69.012 0)" xlink:href="#bj"/><use transform="matrix(.06173 0 0 .06173 80.123 0)" xlink:href="#bu"/><use transform="matrix(.06173 0 0 .06173 96.111 0)" xlink:href="#cy"/></g><g id="az"><use transform="rotate(.413) scale(.06173)" xlink:href="#cC"/><use transform="matrix(.06173 0 0 .06173 22.222 0)" xlink:href="#cD"/></g><g id="aA"><use transform="rotate(.413) scale(.06173)" xlink:href="#aO"/><use transform="matrix(.06173 0 0 .06173 19.753 0)" xlink:href="#aP"/><use transform="matrix(.06173 0 0 .06173 29.568 0)" xlink:href="#aQ"/><use transform="matrix(.06173 0 0 .06173 38.21 0)" xlink:href="#aQ"/><use transform="matrix(.06173 0 0 .06173 46.852 0)" xlink:href="#bY"/><use transform="matrix(.06173 0 0 .06173 59.568 0)" xlink:href="#bk"/><use transform="matrix(.06173 0 0 .06173 66.914 0)" xlink:href="#aP"/><use transform="matrix(.06173 0 0 .06173 76.728 0)" xlink:href="#cE"/><use transform="matrix(.06173 0 0 .06173 83.642 0)" xlink:href="#cE"/><use transform="matrix(.06173 0 0 .06173 90.988 0)" xlink:href="#aU"/><use transform="matrix(.06173 0 0 .06173 97.16 0)" xlink:href="#bi"/></g><g id="aD"><use transform="rotate(.413) scale(.06173)" xlink:href="#bl"/><use transform="matrix(.06173 0 0 .06173 15.988 0)" xlink:href="#aT"/><use transform="matrix(.06173 0 0 .06173 22.16 0)" xlink:href="#cq"/><use transform="matrix(.06173 0 0 .06173 33.272 0)" xlink:href="#be"/><use transform="matrix(.06173 0 0 .06173 43.086 0)" xlink:href="#bk"/></g><g id="aE"><use transform="rotate(.413) scale(.06173)" xlink:href="#aX"/><use transform="matrix(.06173 0 0 .06173 12.346 0)" xlink:href="#aT"/><use transform="matrix(.06173 0 0 .06173 18.519 0)" xlink:href="#bk"/><use transform="matrix(.06173 0 0 .06173 25.864 0)" xlink:href="#bq"/><use transform="matrix(.06173 0 0 .06173 36.975 0)" xlink:href="#bi"/><use transform="matrix(.06173 0 0 .06173 46.79 0)" xlink:href="#aT"/><use transform="matrix(.06173 0 0 .06173 52.963 0)" xlink:href="#cH"/><use transform="matrix(.06173 0 0 .06173 68.95 0)" xlink:href="#aT"/><use transform="matrix(.06173 0 0 .06173 75.123 0)" xlink:href="#aU"/><use transform="matrix(.06173 0 0 .06173 81.296 0)" xlink:href="#bg"/><use transform="matrix(.06173 0 0 .06173 87.47 0)" xlink:href="#aQ"/></g><g id="aF"><use transform="rotate(.413) scale(.06173)" xlink:href="#cs"/><use transform="matrix(.06173 0 0 .06173 13.519 0)" xlink:href="#bj"/><use transform="matrix(.06173 0 0 .06173 24.63 0)" xlink:href="#aS"/><use transform="matrix(.06173 0 0 .06173 35.74 0)" xlink:href="#be"/><use transform="matrix(.06173 0 0 .06173 45.556 0)" xlink:href="#bc"/><use transform="matrix(.06173 0 0 .06173 61.543 0)" xlink:href="#bk"/><use transform="matrix(.06173 0 0 .06173 68.889 0)" xlink:href="#aP"/><use transform="matrix(.06173 0 0 .06173 78.704 0)" xlink:href="#bf"/><use transform="matrix(.06173 0 0 .06173 89.815 0)" xlink:href="#cq"/></g><g id="aG"><use transform="rotate(.413) scale(.06173)" xlink:href="#aX"/><use transform="matrix(.06173 0 0 .06173 12.346 0)" xlink:href="#aT"/><use transform="matrix(.06173 0 0 .06173 18.519 0)" xlink:href="#aP"/><use transform="matrix(.06173 0 0 .06173 28.333 0)" xlink:href="#aT"/><use transform="matrix(.06173 0 0 .06173 34.506 0)" xlink:href="#be"/><use transform="matrix(.06173 0 0 .06173 44.321 0)" xlink:href="#bY"/><use transform="matrix(.06173 0 0 .06173 57.037 0)" xlink:href="#bk"/><use transform="matrix(.06173 0 0 .06173 64.383 0)" xlink:href="#be"/><use transform="matrix(.06173 0 0 .06173 74.198 0)" xlink:href="#be"/></g><g id="aH"><use transform="rotate(.413) scale(.06173)" xlink:href="#aX"/><use transform="matrix(.06173 0 0 .06173 12.346 0)" xlink:href="#bd"/><use transform="matrix(.06173 0 0 .06173 29.63 0)" xlink:href="#aP"/><use transform="matrix(.06173 0 0 .06173 39.444 0)" xlink:href="#bk"/><use transform="matrix(.06173 0 0 .06173 46.79 0)" xlink:href="#aT"/><use transform="matrix(.06173 0 0 .06173 52.963 0)" xlink:href="#bl"/><use transform="matrix(.06173 0 0 .06173 68.95 0)" xlink:href="#bm"/><use transform="matrix(.06173 0 0 .06173 80.062 0)" xlink:href="#bn"/><use transform="matrix(.06173 0 0 .06173 86.235 0)" xlink:href="#be"/><use transform="matrix(.06173 0 0 .06173 96.05 0)" xlink:href="#bi"/><use transform="matrix(.06173 0 0 .06173 105.864 0)" xlink:href="#aT"/><use transform="matrix(.06173 0 0 .06173 112.037 0)" xlink:href="#aQ"/></g><g id="aI"><use transform="rotate(.413) scale(.06173)" xlink:href="#cs"/><use transform="matrix(.06173 0 0 .06173 13.519 0)" xlink:href="#bj"/><use transform="matrix(.06173 0 0 .06173 24.63 0)" xlink:href="#aS"/><use transform="matrix(.06173 0 0 .06173 35.74 0)" xlink:href="#be"/><use transform="matrix(.06173 0 0 .06173 45.556 0)" xlink:href="#bc"/><use transform="matrix(.06173 0 0 .06173 61.543 0)" xlink:href="#bk"/><use transform="matrix(.06173 0 0 .06173 68.889 0)" xlink:href="#aP"/><use transform="matrix(.06173 0 0 .06173 78.704 0)" xlink:href="#bf"/><use transform="matrix(.06173 0 0 .06173 89.815 0)" xlink:href="#cq"/><use transform="matrix(.06173 0 0 .06173 100.926 0)" xlink:href="#bh"/><use transform="matrix(.06173 0 0 .06173 116.914 0)" xlink:href="#aS"/><use transform="matrix(.06173 0 0 .06173 128.025 0)" xlink:href="#aS"/><use transform="matrix(.06173 0 0 .06173 139.136 0)" xlink:href="#bj"/><use transform="matrix(.06173 0 0 .06173 150.247 0)" xlink:href="#aT"/><use transform="matrix(.06173 0 0 .06173 156.42 0)" xlink:href="#aP"/><use transform="matrix(.06173 0 0 .06173 166.235 0)" xlink:href="#aT"/><use transform="matrix(.06173 0 0 .06173 172.407 0)" xlink:href="#aU"/><use transform="matrix(.06173 0 0 .06173 178.58 0)" xlink:href="#bj"/><use transform="matrix(.06173 0 0 .06173 189.691 0)" xlink:href="#aS"/><use transform="matrix(.06173 0 0 .06173 200.802 0)" xlink:href="#aQ"/></g><g id="aK"><use transform="rotate(.413) scale(.06173)" xlink:href="#cJ"/><use transform="matrix(.06173 0 0 .06173 14.815 0)" xlink:href="#cK"/><use transform="matrix(.06173 0 0 .06173 20.988 0)" xlink:href="#cL"/><use transform="matrix(.06173 0 0 .06173 27.16 0)" xlink:href="#cM"/><use transform="matrix(.06173 0 0 .06173 36.975 0)" xlink:href="#cN"/><use transform="matrix(.06173 0 0 .06173 49.321 0)" xlink:href="#cO"/><use transform="matrix(.06173 0 0 .06173 60.432 0)" xlink:href="#cP"/><use transform="matrix(.06173 0 0 .06173 77.716 0)" xlink:href="#cQ"/><use transform="matrix(.06173 0 0 .06173 88.827 0)" xlink:href="#cR"/><use transform="matrix(.06173 0 0 .06173 95 0)" xlink:href="#cS"/></g></defs></g></svg>