<svg width="1219.9999999999998" height="1045.02" xmlns="http://www.w3.org/2000/svg" xmlns:undefined="lucid" xmlns:xlink="http://www.w3.org/1999/xlink">
 <g>
  <title>Layer 1</title>
  <rect id="svg_364" height="1450" width="1833" y="0" x="-261" stroke="#3a414a" fill="#e2e2e2"/>
  <g id="svg_1" >
   <path id="svg_2" fill="#fff" stroke="#3a414a" d="m20,566a6,6 0 0 1 6,-6l268,0a6,6 0 0 1 6,6l0,213a6,6 0 0 1 -6,6l-268,0a6,6 0 0 1 -6,-6l0,-213z"/>
   <path id="svg_3" fill="none" stroke="#3a414a" d="m20,602.93l280,0"/>
   <use id="svg_4" x="-40" y="540" transform="matrix(1 0 0 1 119.169 45.9889)" xlink:href="#a"/>
   <path id="svg_5" fill="#fff" stroke="#3a414a" d="m20,611.02a6,6 0 0 1 6,-6l268,0a6,6 0 0 1 6,6l0,48a6,6 0 0 1 -6,6l-268,0a6,6 0 0 1 -6,-6l0,-48z"/>
   <use id="svg_6" x="-40" y="540" transform="matrix(1 0 0 1 101.795 97.7944)" xlink:href="#b"/>
   <path id="svg_7" fill="#fff" stroke="#3a414a" d="m20,671.02a6,6 0 0 1 6,-6l268,0a6,6 0 0 1 6,6l0,48a6,6 0 0 1 -6,6l-268,0a6,6 0 0 1 -6,-6l0,-48z"/>
   <use id="svg_8" x="-40" y="540" transform="matrix(1 0 0 1 105.746 157.794)" xlink:href="#c"/>
   <path id="svg_9" fill="#fff" stroke="#3a414a" d="m20,731.02a6,6 0 0 1 6,-6l268,0a6,6 0 0 1 6,6l0,48a6,6 0 0 1 -6,6l-268,0a6,6 0 0 1 -6,-6l0,-48z"/>
   <use id="svg_10" x="-40" y="540" transform="matrix(1 0 0 1 90.2211 217.794)" xlink:href="#d"/>
   <path id="svg_11" fill="#fff" stroke="#3a414a" d="m21.46,806a6,6 0 0 1 6,-6l268,0a6,6 0 0 1 6,6l0,213a6,6 0 0 1 -6,6l-268,0a6,6 0 0 1 -6,-6l0,-213z"/>
   <path id="svg_12" fill="none" stroke="#3a414a" d="m21.46,842.93l280,0"/>
   <use id="svg_13" x="-40" y="540" transform="matrix(1 0 0 1 110.625 285.989)" xlink:href="#e"/>
   <path id="svg_14" fill="#fff" stroke="#3a414a" d="m21.46,851.02a6,6 0 0 1 6,-6l268,0a6,6 0 0 1 6,6l0,48a6,6 0 0 1 -6,6l-268,0a6,6 0 0 1 -6,-6l0,-48z"/>
   <use id="svg_15" x="-40" y="540" transform="matrix(1 0 0 1 103.258 337.794)" xlink:href="#b"/>
   <path id="svg_16" fill="#fff" stroke="#3a414a" d="m21.46,911.02a6,6 0 0 1 6,-6l268,0a6,6 0 0 1 6,6l0,48a6,6 0 0 1 -6,6l-268,0a6,6 0 0 1 -6,-6l0,-48z"/>
   <use id="svg_17" x="-40" y="540" transform="matrix(1 0 0 1 98.0112 397.794)" xlink:href="#f"/>
   <path id="svg_18" fill="#fff" stroke="#3a414a" d="m21.46,971.02a6,6 0 0 1 6,-6l268,0a6,6 0 0 1 6,6l0,48a6,6 0 0 1 -6,6l-268,0a6,6 0 0 1 -6,-6l0,-48z"/>
   <use id="svg_19" x="-40" y="540" transform="matrix(1 0 0 1 91.6841 457.794)" xlink:href="#d"/>
   <path id="svg_20" fill="#fff" stroke="#3a414a" d="m20,33.64a6,6 0 0 1 6,-6l268,0a6,6 0 0 1 6,6l0,213a6,6 0 0 1 -6,6l-268,0a6,6 0 0 1 -6,-6l0,-213z"/>
   <path id="svg_21" fill="none" stroke="#3a414a" d="m20,70.57l280,0"/>
   <use id="svg_22" x="-40" y="540" transform="matrix(1 0 0 1 70.0404 -486.371)" xlink:href="#g"/>
   <path id="svg_23" fill="#fff" stroke="#3a414a" d="m20,78.66a6,6 0 0 1 6,-6l268,0a6,6 0 0 1 6,6l0,48a6,6 0 0 1 -6,6l-268,0a6,6 0 0 1 -6,-6l0,-48z"/>
   <use id="svg_24" x="-40" y="540" transform="matrix(1 0 0 1 129.882 -434.565)" xlink:href="#h"/>
   <path id="svg_25" fill="#fff" stroke="#3a414a" d="m20,138.66a6,6 0 0 1 6,-6l268,0a6,6 0 0 1 6,6l0,48a6,6 0 0 1 -6,6l-268,0a6,6 0 0 1 -6,-6l0,-48z"/>
   <use id="svg_26" x="-40" y="540" transform="matrix(1 0 0 1 100.252 -374.565)" xlink:href="#i"/>
   <path id="svg_27" fill="#fff" stroke="#3a414a" d="m20,198.66a6,6 0 0 1 6,-6l268,0a6,6 0 0 1 6,6l0,48a6,6 0 0 1 -6,6l-268,0a6,6 0 0 1 -6,-6l0,-48z"/>
   <use id="svg_28" x="-40" y="540" transform="matrix(1 0 0 1 132.32 -314.565)" xlink:href="#j"/>
   <path id="svg_29" fill="#fff" stroke="#3a414a" d="m478,448.52a6,6 0 0 1 6,-6l428,0a6,6 0 0 1 6,6l0,286.33a6,6 0 0 1 -6,6l-428,0a6,6 0 0 1 -6,-6l0,-286.33z"/>
   <use id="svg_30" x="-40" y="540" transform="matrix(1 0 0 1 523 -74.7056)" xlink:href="#k"/>
   <path id="svg_31" fill="#fff" stroke="#3a414a" d="m478,506.85a6,6 0 0 1 6,-6l428,0a6,6 0 0 1 6,6l0,48a6,6 0 0 1 -6,6l-428,0a6,6 0 0 1 -6,-6l0,-48zm0,60.17a6,6 0 0 1 6,-6l428,0a6,6 0 0 1 6,6l0,48a6,6 0 0 1 -6,6l-428,0a6,6 0 0 1 -6,-6l0,-48z"/>
   <path id="svg_32" fill="#fff" stroke="#3a414a" d="m478,626.85a6,6 0 0 1 6,-6l428,0a6,6 0 0 1 6,6l0,48a6,6 0 0 1 -6,6l-428,0a6,6 0 0 1 -6,-6l0,-48zm0,60a6,6 0 0 1 6,-6l428,0a6,6 0 0 1 6,6l0,48a6,6 0 0 1 -6,6l-428,0a6,6 0 0 1 -6,-6l0,-48z"/>
   <path id="svg_33" fill-opacity="0" fill="#fff" stroke-opacity="0" stroke="#000" d="m678,516.85a6,6 0 0 1 6,-6l228,0a6,6 0 0 1 6,6l0,18.33a6,6 0 0 1 -6,6l-228,0a6,6 0 0 1 -6,-6l0,-18.33z"/>
   <use id="svg_34" x="-40" y="540" transform="matrix(1 0 0 1 775.531 -5.05978)" xlink:href="#l"/>
   <path id="svg_35" fill-opacity="0" fill="#fff" stroke-opacity="0" stroke="#000" d="m678,567.02a6,6 0 0 1 6,-6l228,0a6,6 0 0 1 6,6l0,48a6,6 0 0 1 -6,6l-228,0a6,6 0 0 1 -6,-6l0,-48z"/>
   <use id="svg_36" x="-40" y="540" transform="matrix(1 0 0 1 756.58 56.2944)" xlink:href="#b"/>
   <path id="svg_37" fill-opacity="0" fill="#fff" stroke-opacity="0" stroke="#000" d="m678.5,626.85a6,6 0 0 1 6,-6l228,0a6,6 0 0 1 6,6l0,48a6,6 0 0 1 -6,6l-228,0a6,6 0 0 1 -6,-6l0,-48z"/>
   <use id="svg_38" x="-40" y="540" transform="matrix(1 0 0 1 764.981 116.128)" xlink:href="#c"/>
   <path id="svg_39" fill-opacity="0" fill="#fff" stroke-opacity="0" stroke="#000" d="m678,686.85a6,6 0 0 1 6,-6l228,0a6,6 0 0 1 6,6l0,51.33a6,6 0 0 1 -6,6l-228,0a6,6 0 0 1 -6,-6l0,-51.33z"/>
   <use id="svg_40" x="-40" y="540" transform="matrix(1 0 0 1 733.432 177.128)" xlink:href="#d"/>
   <path id="svg_41" fill="#fff" stroke="#3a414a" d="m478,566.85a6,6 0 0 1 6,-6l128,0a6,6 0 0 1 6,6l0,48a6,6 0 0 1 -6,6l-128,0a6,6 0 0 1 -6,-6l0,-48z"/>
   <use id="svg_42" x="-40" y="540" transform="matrix(1 0 0 1 567.11 53.6277)" xlink:href="#m"/>
   <path id="svg_43" fill="#fff" stroke="#3a414a" d="m478,506.85a6,6 0 0 1 6,-6l128,0a6,6 0 0 1 6,6l0,48a6,6 0 0 1 -6,6l-128,0a6,6 0 0 1 -6,-6l0,-48z"/>
   <use id="svg_44" x="-40" y="540" transform="matrix(1 0 0 1 567.11 -6.37228)" xlink:href="#m"/>
   <path id="svg_45" fill="#fff" stroke="#3a414a" d="m440,26a6,6 0 0 1 6,-6l428,0a6,6 0 0 1 6,6l0,198.15a6,6 0 0 1 -6,6l-428,0a6,6 0 0 1 -6,-6l0,-198.15z"/>
   <use id="svg_46" x="-40" y="540" transform="matrix(1 0 0 1 488.01 -497.212)" xlink:href="#n"/>
   <path id="svg_47" fill="#fff" stroke="#3a414a" d="m440,70.82a6,6 0 0 1 6,-6l379.3,0a6,6 0 0 1 6,6l0,151a6,6 0 0 1 -6,6l-379.3,0a6,6 0 0 1 -6,-6l0,-151z"/>
   <path id="svg_48" fill="none" stroke="#3a414a" d="m440,107.75l391.3,0"/>
   <use id="svg_49" x="-40" y="540" transform="matrix(1 0 0 1 568.298 -449.193)" xlink:href="#o"/>
   <path id="svg_50" fill="#fff" stroke="#3a414a" d="m440,116.14a6,6 0 0 1 6,-6l379.3,0a6,6 0 0 1 6,6l0,48a6,6 0 0 1 -6,6l-379.3,0a6,6 0 0 1 -6,-6l0,-48z"/>
   <use id="svg_51" x="-40" y="540" transform="matrix(1 0 0 1 485.01 -397.082)" xlink:href="#p"/>
   <use id="svg_52" x="-40" y="540" transform="matrix(1 0 0 1 611.306 -397.082)" xlink:href="#q"/>
   <path id="svg_53" fill="#fff" stroke="#3a414a" d="m440,176.15a6,6 0 0 1 6,-6l379.3,0a6,6 0 0 1 6,6l0,48a6,6 0 0 1 -6,6l-379.3,0a6,6 0 0 1 -6,-6l0,-48z"/>
   <use id="svg_54" x="-40" y="540" transform="matrix(1 0 0 1 609.703 -337.074)" xlink:href="#r"/>
   <path id="svg_55" fill="none" stroke-width="3" stroke="#3a414a" d="m302,103.8l62,0a6,6 0 0 0 6,-6l0,-55.64a6,6 0 0 1 6,-6l42.88,0"/>
   <path id="svg_56" fill="#3a414a" stroke-width="0.05" stroke="#3a414a" d="m302.04,105.3l-1.54,0l0,-3l1.54,0l0,3z"/>
   <path id="svg_57" fill="#3a414a" stroke-width="3" stroke="#3a414a" d="m434.65,36.16l-14.27,4.63l0,-9.28l14.27,4.65z"/>
   <g id="svg_58" fill="none">
    <path id="svg_59" d="m271.08,363.85a0.5,0.5 0 0 1 0.7,0.05l203.85,232.48a0.5,0.5 0 0 1 -0.05,0.7a0.5,0.5 0 0 1 -0.7,-0.04l-203.84,-232.48a0.5,0.5 0 0 1 0.04,-0.7l0,-0.01z"/>
    <path id="svg_60" stroke="#6db1ff" d="m278.32,371.35l2.6,2.98m5.24,5.96l2.6,2.97m5.24,5.96l2.6,2.98m5.24,5.98l2.6,2.98m5.24,5.96l2.6,2.98m5.24,5.96l2.6,2.98m5.24,5.96l2.6,2.98m5.24,5.96l2.6,2.98m5.24,5.96l2.6,2.98m5.24,5.96l2.6,2.98m5.24,5.97l2.6,2.98m5.24,5.96l2.6,3m5.24,5.95l2.6,2.98m5.24,5.96l2.6,2.97m5.24,5.96l2.6,2.98m5.24,5.97l2.6,2.98m5.24,5.96l2.6,3m5.23,5.95l2.6,3m5.23,5.95l2.62,2.98m5.22,5.96l2.62,2.98m5.2,5.96l2.63,2.98m5.22,5.96l2.62,2.98m5.22,5.96l2.6,2.98m5.23,5.96l2.62,2.98m5.22,5.96l2.62,3m5.2,5.95l1.32,1.48l0.05,0.06l0.03,0.07l0.03,0.08l0,0.24l-0.02,0.07l-0.03,0.06l-0.04,0.07l-0.06,0.05l-0.06,0.05l-0.06,0.04l-0.07,0.02l-0.25,0l-0.07,-0.03l-0.07,-0.03l-0.08,-0.05l-0.05,-0.06l-1.3,-1.5m-5.24,-5.96l-2.6,-2.98m-5.24,-5.96l-2.62,-2.98m-5.23,-5.96l-2.6,-2.98m-5.24,-5.96l-2.6,-2.98m-5.22,-5.96l-2.62,-2.98m-5.22,-5.96l-2.62,-2.98m-5.22,-5.96l-2.62,-2.98m-5.18,-5.95l-2.62,-3m-5.22,-5.95l-2.62,-2.98m-5.22,-5.96l-2.62,-2.97m-5.22,-5.96l-2.62,-2.98m-5.22,-5.97l-2.62,-2.98m-5.22,-5.96l-2.62,-3m-5.22,-5.95l-2.62,-2.98m-5.22,-5.97l-2.62,-2.98m-5.22,-5.96l-2.6,-2.98m-5.24,-5.96l-2.6,-2.98m-5.24,-5.96l-2.6,-2.98m-5.24,-5.96l-2.6,-2.98m-5.24,-5.96l-2.6,-2.98m-5.24,-5.96l-2.6,-2.98m-5.24,-5.96l-2.6,-3m-5.24,-5.95l-2.6,-2.98m-5.24,-5.97l-2.6,-2.98m-5.24,-5.96l-2.6,-3m-5.24,-5.95l-1.3,-1.5l-0.05,-0.05l-0.05,-0.07l-0.02,-0.08l-0.02,-0.07l0,-0.08l0.02,-0.08l0.03,-0.08l0.03,-0.07l0.05,-0.06l0.05,-0.05l0.06,-0.04l0.07,-0.03l0.1,-0.03l0.19,0l0.08,0.03l0.07,0.03l0.06,0.04l0.06,0.06l1.3,1.5"/>
   </g>
   <path id="svg_61" fill="#fff" stroke="#3a414a" d="m270,322.37a6,6 0 0 1 6,-6l688,0a6,6 0 0 1 6,6l0,39.1a6,6 0 0 1 -6,6l-688,0a6,6 0 0 1 -6,-6l0,-39.1z"/>
   <path id="svg_62" fill="#fff" stroke="#3a414a" d="m270,322.37a6,6 0 0 1 6,-6l128,0a6,6 0 0 1 6,6l0,39.1a6,6 0 0 1 -6,6l-128,0a6,6 0 0 1 -6,-6l0,-39.1z"/>
   <use id="svg_63" x="-40" y="540" transform="matrix(1 0 0 1 337.5 -192.104)" xlink:href="#s"/>
   <path id="svg_64" fill="#fff" stroke="#3a414a" d="m410,322.37a6,6 0 0 1 6,-6l128,0a6,6 0 0 1 6,6l0,39.1a6,6 0 0 1 -6,6l-128,0a6,6 0 0 1 -6,-6l0,-39.1z"/>
   <use id="svg_65" x="-40" y="540" transform="matrix(1 0 0 1 477.5 -192.104)" xlink:href="#s"/>
   <path id="svg_66" fill="#fff" stroke="#3a414a" d="m550,322.37a6,6 0 0 1 6,-6l128,0a6,6 0 0 1 6,6l0,39.1a6,6 0 0 1 -6,6l-128,0a6,6 0 0 1 -6,-6l0,-39.1z"/>
   <use id="svg_67" x="-40" y="540" transform="matrix(1 0 0 1 617.5 -192.104)" xlink:href="#s"/>
   <path id="svg_68" fill="#fff" stroke="#3a414a" d="m690,322.37a6,6 0 0 1 6,-6l128,0a6,6 0 0 1 6,6l0,39.1a6,6 0 0 1 -6,6l-128,0a6,6 0 0 1 -6,-6l0,-39.1z"/>
   <use id="svg_69" x="-40" y="540" transform="matrix(1 0 0 1 757.5 -192.104)" xlink:href="#s"/>
   <path id="svg_70" fill="#fff" stroke="#3a414a" d="m830,322.37a6,6 0 0 1 6,-6l128,0a6,6 0 0 1 6,6l0,39.1a6,6 0 0 1 -6,6l-128,0a6,6 0 0 1 -6,-6l0,-39.1z"/>
   <use id="svg_71" x="-40" y="540" transform="matrix(1 0 0 1 897.5 -192.104)" xlink:href="#s"/>
   <path id="svg_72" fill="none" stroke-width="2" stroke="#6db1ff" d="m831.95,224.17a1,1 0 0 1 1.4,-0.27l133.6,90.92a1,1 0 0 1 0.26,1.4a1,1 0 0 1 -1.38,0.25l-133.6,-90.92a1,1 0 0 1 -0.27,-1.38l-0.01,0zm-392.77,3.13a1,1 0 0 1 -0.4,1.34l-164,87.96a1,1 0 0 1 -1.37,-0.4a1,1 0 0 1 0.42,-1.36l164,-87.96a1,1 0 0 1 1.36,0.4l-0.01,0.02z"/>
   <g id="svg_73" fill="none">
    <path id="svg_74" d="m969.32,369.86a0.5,0.5 0 0 1 -0.15,0.7l-349.53,219.19a0.5,0.5 0 0 1 -0.7,-0.15a0.5,0.5 0 0 1 0.17,-0.68l349.54,-219.2a0.5,0.5 0 0 1 0.68,0.14l-0.01,0z"/>
    <path id="svg_75" stroke="#6db1ff" d="m960.6,375.93l-3.43,2.15m-6.85,4.3l-3.43,2.14m-6.86,4.3l-3.43,2.15m-6.84,4.3l-3.43,2.15m-6.85,4.3l-3.43,2.15m-6.85,4.3l-3.43,2.14m-6.85,4.3l-3.43,2.16m-6.86,4.3l-3.43,2.15m-6.84,4.3l-3.43,2.16m-6.85,4.3l-3.43,2.14m-6.85,4.3l-3.43,2.15m-6.85,4.3l-3.42,2.13m-6.86,4.3l-3.43,2.15m-6.84,4.3l-3.43,2.14m-6.85,4.3l-3.43,2.14m-6.85,4.3l-3.43,2.15m-6.85,4.3l-3.43,2.14m-6.86,4.3l-3.43,2.14m-6.84,4.3l-3.43,2.15m-6.85,4.3l-3.43,2.15m-6.85,4.3l-3.43,2.15m-6.85,4.3l-3.43,2.14m-6.86,4.3l-3.44,2.17m-6.84,4.3l-3.43,2.15m-6.85,4.3l-3.43,2.15m-6.85,4.3l-3.43,2.15m-6.85,4.3l-3.42,2.13m-6.86,4.3l-3.43,2.16m-6.84,4.3l-3.43,2.15m-6.85,4.3l-3.43,2.16m-6.85,4.3l-3.43,2.14m-6.85,4.3l-3.43,2.15m-6.86,4.3l-3.43,2.15m-6.84,4.3l-1.72,1.07l-0.07,0.04l-0.07,0.03l-0.08,0.02l-0.08,0l-0.07,-0.02l-0.08,-0.02l-0.08,-0.02l-0.06,-0.05l-0.06,-0.05l-0.05,-0.07l-0.03,-0.06l-0.03,-0.07l-0.02,-0.08l0,-0.16l0.03,-0.08l0.05,-0.07l0.05,-0.07l0.05,-0.06l0.06,-0.05l1.73,-1.07m6.85,-4.3l3.43,-2.15m6.86,-4.3l3.43,-2.15m6.84,-4.3l3.43,-2.14m6.85,-4.3l3.43,-2.14m6.85,-4.3l3.43,-2.15m6.85,-4.3l3.43,-2.14m6.86,-4.3l3.43,-2.14m6.84,-4.3l3.43,-2.15m6.85,-4.3l3.43,-2.15m6.85,-4.3l3.43,-2.15m6.85,-4.3l3.43,-2.14m6.86,-4.3l3.43,-2.15m6.84,-4.3l3.43,-2.15m6.85,-4.3l3.43,-2.15m6.85,-4.3l3.43,-2.14m6.85,-4.3l3.43,-2.15m6.86,-4.3l3.43,-2.16m6.84,-4.3l3.43,-2.15m6.85,-4.3l3.43,-2.15m6.85,-4.3l3.43,-2.15m6.85,-4.3l3.43,-2.15m6.86,-4.3l3.42,-2.17m6.84,-4.3l3.43,-2.14m6.85,-4.3l3.43,-2.15m6.85,-4.3l3.43,-2.14m6.85,-4.3l3.43,-2.15m6.86,-4.3l3.43,-2.14m6.84,-4.3l3.43,-2.14m6.85,-4.3l3.43,-2.15m6.85,-4.3l3.43,-2.15m6.85,-4.3l3.43,-2.15m6.86,-4.3l3.43,-2.14m6.84,-4.3l3.43,-2.15m6.85,-4.3l1.72,-1.07l0.06,-0.03l0.08,-0.03l0.23,0l0.1,0.03l0.06,0.03l0.06,0.05l0.06,0.05l0.04,0.06l0.04,0.07l0.03,0.08l0,0.24l-0.04,0.08l-0.03,0.07l-0.05,0.05l-0.05,0.06l-0.06,0.05l-1.72,1.08"/>
   </g>
   <path id="svg_76" fill="none" stroke-width="2" stroke="#3a414a" d="m301.5,589.28l81.5,0a6,6 0 0 0 6,-6l0,-107.15a6,6 0 0 1 6,-6l64,0"/>
   <path id="svg_77" fill="#3a414a" stroke-width="0.05" stroke="#3a414a" d="m301.53,590.28l-1.03,0l0,-2l1.03,0l0,2z"/>
   <path id="svg_78" fill="#3a414a" stroke-width="2" stroke="#3a414a" d="m474.26,470.13l-14.26,4.64l0,-9.28l14.26,4.64z"/>
   <path id="svg_79" fill="none" stroke-width="2" stroke="#3a414a" d="m302.96,826.45l157,0"/>
   <path id="svg_80" fill="#3a414a" stroke-width="0.05" stroke="#3a414a" d="m303,827.45l-1.04,0l0,-2l1.04,0l0,2z"/>
   <path id="svg_81" fill="#3a414a" stroke-width="2" stroke="#3a414a" d="m475.23,826.45l-14.27,4.64l0,-9.28l14.27,4.64z"/>
   <path id="svg_82" fill="#fff" stroke="#3a414a" d="m980,448.52a6,6 0 0 1 6,-6l208,0a6,6 0 0 1 6,6l0,285.48a6,6 0 0 1 -6,6l-208,0a6,6 0 0 1 -6,-6l0,-285.48z"/>
   <use id="svg_83" x="-40" y="540" transform="matrix(1 0 0 1 1028.01 -74.6956)" xlink:href="#t"/>
   <path id="svg_84" fill="none" stroke-width="2" stroke="#3a414a" d="m919.5,468.17l41.5,0"/>
   <path id="svg_85" fill="#3a414a" stroke-width="0.05" stroke="#3a414a" d="m919.53,469.17l-1.03,0l0,-2l1.03,0l0,2z"/>
   <path id="svg_86" fill="#3a414a" stroke-width="2" stroke="#3a414a" d="m976.26,468.17l-14.26,4.63l0,-9.27l14.26,4.64z"/>
   <path id="svg_87" fill="#fff" stroke="#3a414a" d="m478,806a6,6 0 0 1 6,-6l230,0a6,6 0 0 1 6,6l0,213.02a6,6 0 0 1 -6,6l-230,0a6,6 0 0 1 -6,-6l0,-213.02z"/>
   <use id="svg_88" x="-40" y="540" transform="matrix(1 0 0 1 526.01 282.788)" xlink:href="#t"/>
   <path id="svg_89" fill="none" stroke-width="2" stroke="#ff8f8f" d="m250,254.16l0,3m0,4l0,6.03m0,4l0,6.02m0,4l0,6.02m0,4l0,6.03m0,4l0,6.02m0,4l0,6.02m0,4l0,6.02m0,4l0,6.03m0,4l0,6.03m0,4l0,6.02m0,4l0,6.03m0,4l0,6.02m0,4l0,6.03m0,4l0,6.02m0,4l0,6.03m0,4l0,6.02m0,4.02l0,6m0,4l0,6.03m0,4l0,6.02m0,4l0,6.03m0,4l0,6.02m0,4l0,6.03m0,4l0,6.03m0,4l0,6.02m0,4l0,6.03m0,4.02l0,6m0,4.02l0,3l0.07,0.95l0.22,0.9l0.35,0.87m2.63,2.63l0.87,0.36l0.9,0.22l0.95,0.07l3.05,0m4.06,0l6.1,0m4.06,0l6.1,0m4.04,0l6.1,0m4.06,0l6.08,0m4.06,0l6.1,0m4.05,0l6.1,0m4.05,0l6.1,0m4.05,0l6.1,0m4.05,0l6.1,0m4.05,0l6.1,0m4.05,0l6.1,0m4.05,0l6.1,0m4.05,0l6.1,0m4.05,0l6.1,0m4.05,0l6.1,0m4.05,0l6.1,0m4.05,0l6.1,0m4.05,0l6.1,0m4.05,0l6.1,0m4.05,0l3.05,0"/>
   <path id="svg_90" fill="#ff8f8f" stroke-width="0.05" stroke="#ff8f8f" d="m251,254.18l-2,0l0,-1.02l2,0l0,1.02z"/>
   <path id="svg_91" fill="#ff8f8f" stroke-width="2" stroke="#ff8f8f" d="m474.26,530.85l-14.26,4.65l0,-9.29l14.26,4.64z"/>
   <defs transform="translate(-40 540)">
    <path id="u" d="m199,0l-22,-63l-94,0l-22,63l-52,0l90,-248l61,0l90,248l-51,0zm-33,-102l-36,-108c-10,38 -24,72 -36,108l72,0"/>
    <path id="v" d="m135,-150c-39,-12 -60,13 -60,57l0,93l-50,0l-1,-190l47,0c2,13 -1,29 3,40c6,-28 27,-53 61,-41l0,41"/>
    <path id="w" d="m190,-63c-7,42 -38,67 -86,67c-59,0 -84,-38 -90,-98c-12,-110 154,-137 174,-36l-49,2c-2,-19 -15,-32 -35,-32c-30,0 -35,28 -38,64c-6,74 65,87 74,30"/>
    <path id="x" d="m114,-157c-59,0 -34,97 -39,157l-50,0l0,-261l50,0l-1,109c12,-26 28,-41 61,-42c86,-1 58,113 63,194l-50,0c-7,-57 23,-157 -34,-157"/>
    <path id="y" d="m185,-48c-13,30 -37,53 -82,52c-60,-2 -89,-37 -89,-100s30,-98 90,-98c62,0 83,45 84,108l-122,0c0,31 8,55 39,56c18,0 30,-7 34,-22l46,4zm-45,-69c5,-46 -57,-63 -70,-21c-2,6 -4,13 -4,21l74,0"/>
    <path id="z" d="m115,-3c-36,14 -87,7 -87,-42l0,-112l-24,0l0,-33l27,0l15,-45l31,0l0,45l36,0l0,33l-36,0l0,99c-1,23 16,31 38,25l0,30"/>
    <path id="A" d="m123,10c-15,43 -43,76 -104,62l0,-35c35,8 53,-11 59,-39l-75,-188l52,0l48,148c12,-52 28,-100 44,-148l51,0"/>
    <path id="B" d="m135,-194c53,0 70,44 70,98c0,56 -19,98 -73,100c-31,1 -45,-17 -59,-34c3,33 2,69 2,105l-50,0l-1,-265l48,0c2,10 0,23 3,31c11,-24 29,-35 60,-35zm-21,164c33,0 39,-31 40,-66c0,-38 -9,-64 -40,-64c-56,0 -55,130 0,130"/>
    <path id="C" d="m67,-125c0,53 21,87 73,88c37,1 54,-22 65,-47l45,17c-17,42 -51,71 -110,71c-82,0 -120,-46 -125,-129c-7,-110 109,-156 196,-107c18,10 29,29 36,50l-46,12c-8,-25 -30,-41 -62,-41c-52,0 -71,34 -72,86"/>
    <path id="D" d="m110,-194c64,0 96,36 96,99c0,64 -35,99 -97,99c-61,0 -95,-36 -95,-99c0,-62 34,-99 96,-99zm-1,164c35,0 45,-28 45,-65c0,-40 -10,-65 -43,-65c-34,0 -45,26 -45,65c0,36 10,65 43,65"/>
    <g id="a">
     <use id="svg_92" xlink:href="#u" transform="matrix(0.06234567901234567,0,0,0.06234567901234567,0,0)"/>
     <use id="svg_93" xlink:href="#v" transform="matrix(0.06234567901234567,0,0,0.06234567901234567,16.147530864197527,0)"/>
     <use id="svg_94" xlink:href="#w" transform="matrix(0.06234567901234567,0,0,0.06234567901234567,24.87592592592592,0)"/>
     <use id="svg_95" xlink:href="#x" transform="matrix(0.06234567901234567,0,0,0.06234567901234567,37.34506172839505,0)"/>
     <use id="svg_96" xlink:href="#y" transform="matrix(0.06234567901234567,0,0,0.06234567901234567,50.99876543209875,0)"/>
     <use id="svg_97" xlink:href="#z" transform="matrix(0.06234567901234567,0,0,0.06234567901234567,63.46790123456788,0)"/>
     <use id="svg_98" xlink:href="#A" transform="matrix(0.06234567901234567,0,0,0.06234567901234567,70.88703703703702,0)"/>
     <use id="svg_99" xlink:href="#B" transform="matrix(0.06234567901234567,0,0,0.06234567901234567,83.35617283950614,0)"/>
     <use id="svg_100" xlink:href="#y" transform="matrix(0.06234567901234567,0,0,0.06234567901234567,97.00987654320984,0)"/>
     <use id="svg_101" xlink:href="#C" transform="matrix(0.06234567901234567,0,0,0.06234567901234567,109.47901234567897,0)"/>
     <use id="svg_102" xlink:href="#v" transform="matrix(0.06234567901234567,0,0,0.06234567901234567,125.6265432098765,0)"/>
     <use id="svg_103" xlink:href="#D" transform="matrix(0.06234567901234567,0,0,0.06234567901234567,134.3549382716049,0)"/>
     <use id="svg_104" xlink:href="#B" transform="matrix(0.06234567901234567,0,0,0.06234567901234567,148.00864197530862,0)"/>
    </g>
    <path id="E" d="m75,-106l0,92l39,5l0,9l-101,0l0,-9l28,-5l0,-208l-31,-4l0,-10l177,0l0,57l-11,0l-6,-38c-28,-4 -63,-3 -95,-3l0,98l69,0l5,-28l11,0l0,73l-11,0l-5,-29l-69,0" fill="#3a414a"/>
    <path id="F" d="m32,-163c41,-10 102,-14 102,39l0,112c8,3 24,-2 21,12l-45,0l-4,-17c-23,30 -103,30 -93,-29c-2,-50 45,-50 92,-51c4,-36 -5,-70 -42,-56c-6,2 -12,4 -16,6c-4,7 0,23 -15,20l0,-36zm10,116c0,41 41,33 63,22l0,-59c-34,1 -63,-1 -63,37" fill="#3a414a"/>
    <path id="G" d="m57,-145c16,-10 35,-24 60,-25l0,45c-19,1 -8,-30 -40,-17l-20,6l0,124l29,4l0,8l-79,0l0,-8l21,-4l0,-141c-8,-3 -24,2 -21,-12l48,0" fill="#3a414a"/>
    <path id="H" d="m126,-118c4,-37 -42,-32 -68,-25l0,131l24,4l0,8l-74,0c-3,-13 13,-9 20,-12l0,-141c-7,-3 -23,1 -20,-12l48,0l1,13c22,-15 77,-30 92,2c32,-22 104,-36 104,29l0,109c8,3 24,-2 21,12l-75,0l0,-8l25,-4l0,-106c3,-39 -45,-31 -72,-24c7,37 1,88 3,130l25,4l0,8l-78,0l0,-8l24,-4l0,-106" fill="#3a414a"/>
    <path id="I" d="m319,-222l-77,227l-10,0l-61,-162l-63,162l-9,0l-78,-227l-21,-4l0,-10l90,0l0,10l-34,4l56,166l63,-163l8,0l61,163l54,-166l-37,-4l0,-10l78,0l0,10" fill="#3a414a"/>
    <path id="J" d="m54,-38c-1,25 24,26 44,20l0,12c-27,16 -73,15 -73,-29l0,-115l-21,0c-2,-14 14,-10 21,-15l18,-38l11,0l0,38l38,0l0,15l-38,0l0,112" fill="#3a414a"/>
    <path id="K" d="m84,-170c49,0 66,33 63,87l-101,0c-8,60 38,80 95,63l0,10c-13,8 -33,14 -53,14c-54,0 -74,-33 -74,-88c-1,-54 22,-86 70,-86zm33,73c12,-57 -57,-82 -69,-24c-1,7 -2,15 -2,24l71,0" fill="#3a414a"/>
    <path id="L" d="m141,-152c28,39 5,97 -54,97c-9,0 -20,-2 -27,-3l-11,23c29,22 130,-14 124,52c-4,45 -38,57 -88,61c-64,5 -93,-52 -40,-80c-12,-4 -23,-13 -24,-29l28,-31c-19,-9 -28,-26 -28,-51c-2,-51 53,-65 100,-52l38,-20l7,8l-25,25zm-56,216c35,0 61,-11 61,-42c0,-35 -57,-17 -89,-21c-9,8 -16,19 -17,34c0,25 19,29 45,29zm-33,-177c1,26 7,46 35,44c28,-1 34,-16 35,-44c0,-26 -6,-43 -34,-43s-36,17 -36,43" fill="#3a414a"/>
    <path id="M" d="m125,-118c4,-37 -41,-34 -68,-26l0,132l23,4l0,8l-72,0c-3,-13 13,-9 20,-12l0,-141c-7,-3 -23,1 -20,-12l47,0l2,13c31,-23 98,-29 98,31l0,109c7,3 23,-1 20,12l-72,0l0,-8l22,-4l0,-106" fill="#3a414a"/>
    <g id="b">
     <use id="svg_105" xlink:href="#E" transform="matrix(0.06172839506172839,0,0,0.06172839506172839,0,0)"/>
     <use id="svg_106" xlink:href="#E" transform="matrix(0.06172839506172839,0,0,0.06172839506172839,12.345679012345679,0)"/>
     <use id="svg_107" xlink:href="#F" transform="matrix(0.06172839506172839,0,0,0.06172839506172839,24.691358024691358,0)"/>
     <use id="svg_108" xlink:href="#G" transform="matrix(0.06172839506172839,0,0,0.06172839506172839,34.50617283950617,0)"/>
     <use id="svg_109" xlink:href="#H" transform="matrix(0.06172839506172839,0,0,0.06172839506172839,41.85185185185185,0)"/>
     <use id="svg_110" xlink:href="#I" transform="matrix(0.06172839506172839,0,0,0.06172839506172839,59.1358024691358,0)"/>
     <use id="svg_111" xlink:href="#F" transform="matrix(0.06172839506172839,0,0,0.06172839506172839,78.2716049382716,0)"/>
     <use id="svg_112" xlink:href="#J" transform="matrix(0.06172839506172839,0,0,0.06172839506172839,88.0864197530864,0)"/>
     <use id="svg_113" xlink:href="#K" transform="matrix(0.06172839506172839,0,0,0.06172839506172839,94.25925925925924,0)"/>
     <use id="svg_114" xlink:href="#G" transform="matrix(0.06172839506172839,0,0,0.06172839506172839,104.07407407407405,0)"/>
     <use id="svg_115" xlink:href="#E" transform="matrix(0.06172839506172839,0,0,0.06172839506172839,111.41975308641973,0)"/>
     <use id="svg_116" xlink:href="#G" transform="matrix(0.06172839506172839,0,0,0.06172839506172839,123.76543209876542,0)"/>
     <use id="svg_117" xlink:href="#F" transform="matrix(0.06172839506172839,0,0,0.06172839506172839,131.1111111111111,0)"/>
     <use id="svg_118" xlink:href="#L" transform="matrix(0.06172839506172839,0,0,0.06172839506172839,140.9259259259259,0)"/>
     <use id="svg_119" xlink:href="#H" transform="matrix(0.06172839506172839,0,0,0.06172839506172839,152.037037037037,0)"/>
     <use id="svg_120" xlink:href="#K" transform="matrix(0.06172839506172839,0,0,0.06172839506172839,169.32098765432096,0)"/>
     <use id="svg_121" xlink:href="#M" transform="matrix(0.06172839506172839,0,0,0.06172839506172839,179.13580246913577,0)"/>
     <use id="svg_122" xlink:href="#J" transform="matrix(0.06172839506172839,0,0,0.06172839506172839,190.24691358024688,0)"/>
    </g>
    <path id="N" d="m52,-115c0,93 80,130 150,87l7,-35l11,0l-1,55c-23,7 -52,12 -83,12c-76,0 -117,-41 -121,-119c-5,-113 97,-141 201,-114l1,51l-12,0l-5,-30c-15,-9 -39,-16 -62,-16c-66,0 -86,41 -86,109" fill="#3a414a"/>
    <path id="O" d="m90,-170c52,0 76,32 76,87c0,54 -24,87 -77,87c-51,0 -75,-34 -75,-87c0,-54 24,-87 76,-87zm-1,160c39,0 46,-35 46,-73c0,-39 -7,-73 -46,-73c-39,1 -44,34 -44,73s6,72 44,73" fill="#3a414a"/>
    <path id="P" d="m166,-85c3,67 -44,102 -111,85l1,64l29,4l0,9l-79,0l0,-9l21,-4l0,-217c-7,-3 -22,1 -19,-12l46,0l1,9c11,-8 26,-14 45,-14c47,2 64,36 66,85zm-110,72c53,14 83,-14 78,-72c7,-53 -33,-79 -78,-60l0,132" fill="#3a414a"/>
    <g id="c">
     <use id="svg_123" xlink:href="#E" transform="matrix(0.06172839506172839,0,0,0.06172839506172839,0,0)"/>
     <use id="svg_124" xlink:href="#E" transform="matrix(0.06172839506172839,0,0,0.06172839506172839,12.345679012345679,0)"/>
     <use id="svg_125" xlink:href="#F" transform="matrix(0.06172839506172839,0,0,0.06172839506172839,24.691358024691358,0)"/>
     <use id="svg_126" xlink:href="#G" transform="matrix(0.06172839506172839,0,0,0.06172839506172839,34.50617283950617,0)"/>
     <use id="svg_127" xlink:href="#H" transform="matrix(0.06172839506172839,0,0,0.06172839506172839,41.85185185185185,0)"/>
     <use id="svg_128" xlink:href="#N" transform="matrix(0.06172839506172839,0,0,0.06172839506172839,59.1358024691358,0)"/>
     <use id="svg_129" xlink:href="#G" transform="matrix(0.06172839506172839,0,0,0.06172839506172839,73.9506172839506,0)"/>
     <use id="svg_130" xlink:href="#O" transform="matrix(0.06172839506172839,0,0,0.06172839506172839,81.29629629629629,0)"/>
     <use id="svg_131" xlink:href="#P" transform="matrix(0.06172839506172839,0,0,0.06172839506172839,92.4074074074074,0)"/>
     <use id="svg_132" xlink:href="#E" transform="matrix(0.06172839506172839,0,0,0.06172839506172839,103.51851851851852,0)"/>
     <use id="svg_133" xlink:href="#G" transform="matrix(0.06172839506172839,0,0,0.06172839506172839,115.8641975308642,0)"/>
     <use id="svg_134" xlink:href="#F" transform="matrix(0.06172839506172839,0,0,0.06172839506172839,123.20987654320989,0)"/>
     <use id="svg_135" xlink:href="#L" transform="matrix(0.06172839506172839,0,0,0.06172839506172839,133.0246913580247,0)"/>
     <use id="svg_136" xlink:href="#H" transform="matrix(0.06172839506172839,0,0,0.06172839506172839,144.13580246913583,0)"/>
     <use id="svg_137" xlink:href="#K" transform="matrix(0.06172839506172839,0,0,0.06172839506172839,161.41975308641977,0)"/>
     <use id="svg_138" xlink:href="#M" transform="matrix(0.06172839506172839,0,0,0.06172839506172839,171.23456790123458,0)"/>
     <use id="svg_139" xlink:href="#J" transform="matrix(0.06172839506172839,0,0,0.06172839506172839,182.3456790123457,0)"/>
    </g>
    <path id="Q" d="m10,0l0,-9l31,-5l0,-208l-31,-4l0,-10l95,0l0,10l-30,4l0,93l110,0l0,-93l-30,-4l0,-10l94,0l0,10l-30,4l0,208l30,5l0,9l-94,0l0,-9l30,-5l0,-99l-110,0l0,99l30,5l0,9l-95,0" fill="#3a414a"/>
    <path id="R" d="m164,-154l-66,158l-13,0l-68,-157c-7,-3 -20,0 -17,-12l77,0l0,8l-26,4l48,115l46,-115l-26,-4l0,-8l61,0l0,8" fill="#3a414a"/>
    <path id="S" d="m41,-130c7,48 86,23 86,84c0,56 -69,57 -112,41l0,-40c20,0 9,29 31,31c35,19 77,-26 41,-50c-27,-18 -72,-13 -72,-59c0,-50 58,-52 100,-41l0,36c-19,1 -8,-25 -28,-25c-21,-7 -50,-1 -46,23" fill="#3a414a"/>
    <path id="T" d="m55,0l0,-9l38,-5l0,-207c-22,1 -53,0 -70,4l-5,37l-11,0l0,-56l207,0l0,56l-12,0l-5,-37l-70,-3l0,206l37,5l0,9l-109,0" fill="#3a414a"/>
    <path id="U" d="m47,-200c-23,0 -25,-39 0,-38c13,0 18,7 20,19c-1,11 -8,19 -20,19zm18,188l28,4l0,8l-85,0l0,-8l28,-4l0,-141l-24,-4l0,-8l53,0l0,153" fill="#3a414a"/>
    <g id="d">
     <use id="svg_140" xlink:href="#E" transform="matrix(0.06172839506172839,0,0,0.06172839506172839,0,0)"/>
     <use id="svg_141" xlink:href="#Q" transform="matrix(0.06172839506172839,0,0,0.06172839506172839,12.345679012345679,0)"/>
     <use id="svg_142" xlink:href="#F" transform="matrix(0.06172839506172839,0,0,0.06172839506172839,28.333333333333332,0)"/>
     <use id="svg_143" xlink:href="#G" transform="matrix(0.06172839506172839,0,0,0.06172839506172839,38.148148148148145,0)"/>
     <use id="svg_144" xlink:href="#R" transform="matrix(0.06172839506172839,0,0,0.06172839506172839,45.49382716049382,0)"/>
     <use id="svg_145" xlink:href="#K" transform="matrix(0.06172839506172839,0,0,0.06172839506172839,56.60493827160494,0)"/>
     <use id="svg_146" xlink:href="#S" transform="matrix(0.06172839506172839,0,0,0.06172839506172839,66.41975308641975,0)"/>
     <use id="svg_147" xlink:href="#J" transform="matrix(0.06172839506172839,0,0,0.06172839506172839,75.06172839506172,0)"/>
     <use id="svg_148" xlink:href="#T" transform="matrix(0.06172839506172839,0,0,0.06172839506172839,81.23456790123456,0)"/>
     <use id="svg_149" xlink:href="#U" transform="matrix(0.06172839506172839,0,0,0.06172839506172839,93.9506172839506,0)"/>
     <use id="svg_150" xlink:href="#H" transform="matrix(0.06172839506172839,0,0,0.06172839506172839,100.12345679012344,0)"/>
     <use id="svg_151" xlink:href="#K" transform="matrix(0.06172839506172839,0,0,0.06172839506172839,117.40740740740739,0)"/>
     <use id="svg_152" xlink:href="#G" transform="matrix(0.06172839506172839,0,0,0.06172839506172839,127.22222222222219,0)"/>
     <use id="svg_153" xlink:href="#E" transform="matrix(0.06172839506172839,0,0,0.06172839506172839,134.56790123456787,0)"/>
     <use id="svg_154" xlink:href="#G" transform="matrix(0.06172839506172839,0,0,0.06172839506172839,146.91358024691354,0)"/>
     <use id="svg_155" xlink:href="#F" transform="matrix(0.06172839506172839,0,0,0.06172839506172839,154.2592592592592,0)"/>
     <use id="svg_156" xlink:href="#L" transform="matrix(0.06172839506172839,0,0,0.06172839506172839,164.07407407407402,0)"/>
     <use id="svg_157" xlink:href="#H" transform="matrix(0.06172839506172839,0,0,0.06172839506172839,175.18518518518513,0)"/>
     <use id="svg_158" xlink:href="#K" transform="matrix(0.06172839506172839,0,0,0.06172839506172839,192.46913580246908,0)"/>
     <use id="svg_159" xlink:href="#M" transform="matrix(0.06172839506172839,0,0,0.06172839506172839,202.2839506172839,0)"/>
     <use id="svg_160" xlink:href="#J" transform="matrix(0.06172839506172839,0,0,0.06172839506172839,213.395061728395,0)"/>
    </g>
    <path id="V" d="m76,-208l0,77l127,0l0,40l-127,0l0,91l-52,0l0,-248l183,0l0,40l-131,0"/>
    <path id="W" d="m25,0l0,-261l50,0l0,261l-50,0"/>
    <path id="X" d="m231,0l-52,0l-39,-155l-40,155l-52,0l-49,-190l46,0l32,145c9,-52 24,-97 36,-145l53,0l37,145l32,-145l46,0"/>
    <g id="e">
     <use id="svg_161" xlink:href="#u" transform="matrix(0.06234567901234567,0,0,0.06234567901234567,0,0)"/>
     <use id="svg_162" xlink:href="#v" transform="matrix(0.06234567901234567,0,0,0.06234567901234567,16.147530864197527,0)"/>
     <use id="svg_163" xlink:href="#w" transform="matrix(0.06234567901234567,0,0,0.06234567901234567,24.87592592592592,0)"/>
     <use id="svg_164" xlink:href="#x" transform="matrix(0.06234567901234567,0,0,0.06234567901234567,37.34506172839505,0)"/>
     <use id="svg_165" xlink:href="#y" transform="matrix(0.06234567901234567,0,0,0.06234567901234567,50.99876543209875,0)"/>
     <use id="svg_166" xlink:href="#z" transform="matrix(0.06234567901234567,0,0,0.06234567901234567,63.46790123456788,0)"/>
     <use id="svg_167" xlink:href="#A" transform="matrix(0.06234567901234567,0,0,0.06234567901234567,70.88703703703702,0)"/>
     <use id="svg_168" xlink:href="#B" transform="matrix(0.06234567901234567,0,0,0.06234567901234567,83.35617283950614,0)"/>
     <use id="svg_169" xlink:href="#y" transform="matrix(0.06234567901234567,0,0,0.06234567901234567,97.00987654320984,0)"/>
     <use id="svg_170" xlink:href="#V" transform="matrix(0.06234567901234567,0,0,0.06234567901234567,109.47901234567897,0)"/>
     <use id="svg_171" xlink:href="#W" transform="matrix(0.06234567901234567,0,0,0.06234567901234567,123.13271604938267,0)"/>
     <use id="svg_172" xlink:href="#D" transform="matrix(0.06234567901234567,0,0,0.06234567901234567,129.36728395061724,0)"/>
     <use id="svg_173" xlink:href="#X" transform="matrix(0.06234567901234567,0,0,0.06234567901234567,143.02098765432095,0)"/>
     <use id="svg_174" xlink:href="#y" transform="matrix(0.06234567901234567,0,0,0.06234567901234567,160.47777777777773,0)"/>
     <use id="svg_175" xlink:href="#v" transform="matrix(0.06234567901234567,0,0,0.06234567901234567,172.94691358024687,0)"/>
    </g>
    <path id="Y" d="m65,-12l28,4l0,8l-86,0l0,-8l28,-4l0,-226l-28,-4l0,-8l58,0l0,238" fill="#3a414a"/>
    <path id="Z" d="m240,-154l-55,158l-14,0l-41,-109l-40,109l-13,0l-57,-157c-7,-3 -23,1 -20,-12l79,0l0,8l-27,4l39,112l40,-108l14,0l40,109l38,-113l-28,-4l0,-8l63,0l0,8" fill="#3a414a"/>
    <g id="f">
     <use id="svg_176" xlink:href="#E" transform="matrix(0.06172839506172839,0,0,0.06172839506172839,0,0)"/>
     <use id="svg_177" xlink:href="#E" transform="matrix(0.06172839506172839,0,0,0.06172839506172839,12.345679012345679,0)"/>
     <use id="svg_178" xlink:href="#F" transform="matrix(0.06172839506172839,0,0,0.06172839506172839,24.691358024691358,0)"/>
     <use id="svg_179" xlink:href="#G" transform="matrix(0.06172839506172839,0,0,0.06172839506172839,34.50617283950617,0)"/>
     <use id="svg_180" xlink:href="#H" transform="matrix(0.06172839506172839,0,0,0.06172839506172839,41.85185185185185,0)"/>
     <use id="svg_181" xlink:href="#E" transform="matrix(0.06172839506172839,0,0,0.06172839506172839,59.1358024691358,0)"/>
     <use id="svg_182" xlink:href="#Y" transform="matrix(0.06172839506172839,0,0,0.06172839506172839,71.48148148148148,0)"/>
     <use id="svg_183" xlink:href="#O" transform="matrix(0.06172839506172839,0,0,0.06172839506172839,77.65432098765432,0)"/>
     <use id="svg_184" xlink:href="#Z" transform="matrix(0.06172839506172839,0,0,0.06172839506172839,88.76543209876543,0)"/>
     <use id="svg_185" xlink:href="#K" transform="matrix(0.06172839506172839,0,0,0.06172839506172839,104.75308641975309,0)"/>
     <use id="svg_186" xlink:href="#G" transform="matrix(0.06172839506172839,0,0,0.06172839506172839,114.5679012345679,0)"/>
     <use id="svg_187" xlink:href="#E" transform="matrix(0.06172839506172839,0,0,0.06172839506172839,121.91358024691358,0)"/>
     <use id="svg_188" xlink:href="#G" transform="matrix(0.06172839506172839,0,0,0.06172839506172839,134.25925925925927,0)"/>
     <use id="svg_189" xlink:href="#F" transform="matrix(0.06172839506172839,0,0,0.06172839506172839,141.60493827160494,0)"/>
     <use id="svg_190" xlink:href="#L" transform="matrix(0.06172839506172839,0,0,0.06172839506172839,151.41975308641975,0)"/>
     <use id="svg_191" xlink:href="#H" transform="matrix(0.06172839506172839,0,0,0.06172839506172839,162.53086419753086,0)"/>
     <use id="svg_192" xlink:href="#K" transform="matrix(0.06172839506172839,0,0,0.06172839506172839,179.8148148148148,0)"/>
     <use id="svg_193" xlink:href="#M" transform="matrix(0.06172839506172839,0,0,0.06172839506172839,189.62962962962962,0)"/>
     <use id="svg_194" xlink:href="#J" transform="matrix(0.06172839506172839,0,0,0.06172839506172839,200.74074074074073,0)"/>
    </g>
    <path id="aa" d="m230,0l2,-204l-64,204l-37,0l-63,-204l2,204l-46,0l0,-248l70,0l56,185l57,-185l69,0l0,248l-46,0"/>
    <path id="ab" d="m133,-34c-16,19 -30,39 -64,38c-37,-1 -58,-20 -58,-58c-1,-60 55,-63 116,-61c1,-26 -3,-47 -28,-47c-18,1 -26,9 -28,27l-52,-2c7,-38 36,-58 82,-57s74,22 75,68l1,82c-1,14 12,18 25,15l0,27c-30,8 -71,5 -69,-32zm-48,3c29,0 43,-24 42,-57c-32,0 -66,-3 -65,30c0,17 8,27 23,27"/>
    <path id="ac" d="m137,-138c1,-29 -70,-34 -71,-4c15,46 118,7 119,86c1,83 -164,76 -172,9l43,-7c4,19 20,25 44,25c33,8 57,-30 24,-41c-43,-14 -102,-11 -104,-66c-2,-80 154,-74 161,-7"/>
    <path id="ad" d="m24,0l0,-248l195,0l0,40l-143,0l0,63l132,0l0,40l-132,0l0,65l150,0l0,40l-202,0"/>
    <path id="ae" d="m144,0l-44,-69l-45,69l-53,0l70,-98l-66,-92l53,0l41,62l40,-62l54,0l-67,91l71,99l-54,0"/>
    <path id="af" d="m85,4c-87,1 -58,-113 -63,-194l50,0c7,57 -23,150 33,157c60,-5 35,-97 40,-157l50,0l1,190l-47,0c-2,-12 1,-28 -3,-38c-12,25 -28,42 -61,42"/>
    <path id="ag" d="m25,-224l0,-37l50,0l0,37l-50,0zm0,224l0,-190l50,0l0,190l-50,0"/>
    <path id="ah" d="m135,-194c87,-1 58,113 63,194l-50,0c-7,-57 23,-157 -34,-157c-59,0 -34,97 -39,157l-50,0l-1,-190l47,0c2,12 -1,28 3,38c12,-26 28,-41 61,-42"/>
    <g id="g">
     <use id="svg_195" xlink:href="#V" transform="matrix(0.06234567901234567,0,0,0.06234567901234567,0,0)"/>
     <use id="svg_196" xlink:href="#aa" transform="matrix(0.06234567901234567,0,0,0.06234567901234567,13.653703703703702,0)"/>
     <use id="svg_197" xlink:href="#ab" transform="matrix(0.06234567901234567,0,0,0.06234567901234567,32.295061728395055,0)"/>
     <use id="svg_198" xlink:href="#ac" transform="matrix(0.06234567901234567,0,0,0.06234567901234567,44.76419753086419,0)"/>
     <use id="svg_199" xlink:href="#ac" transform="matrix(0.06234567901234567,0,0,0.06234567901234567,57.23333333333332,0)"/>
     <use id="svg_200" xlink:href="#ad" transform="matrix(0.06234567901234567,0,0,0.06234567901234567,69.70246913580246,0)"/>
     <use id="svg_201" xlink:href="#ae" transform="matrix(0.06234567901234567,0,0,0.06234567901234567,84.66543209876542,0)"/>
     <use id="svg_202" xlink:href="#y" transform="matrix(0.06234567901234567,0,0,0.06234567901234567,97.13456790123456,0)"/>
     <use id="svg_203" xlink:href="#w" transform="matrix(0.06234567901234567,0,0,0.06234567901234567,109.6037037037037,0)"/>
     <use id="svg_204" xlink:href="#af" transform="matrix(0.06234567901234567,0,0,0.06234567901234567,122.07283950617284,0)"/>
     <use id="svg_205" xlink:href="#z" transform="matrix(0.06234567901234567,0,0,0.06234567901234567,135.72654320987655,0)"/>
     <use id="svg_206" xlink:href="#ag" transform="matrix(0.06234567901234567,0,0,0.06234567901234567,143.14567901234568,0)"/>
     <use id="svg_207" xlink:href="#D" transform="matrix(0.06234567901234567,0,0,0.06234567901234567,149.38024691358024,0)"/>
     <use id="svg_208" xlink:href="#ah" transform="matrix(0.06234567901234567,0,0,0.06234567901234567,163.03395061728395,0)"/>
     <use id="svg_209" xlink:href="#C" transform="matrix(0.06234567901234567,0,0,0.06234567901234567,176.68765432098766,0)"/>
     <use id="svg_210" xlink:href="#D" transform="matrix(0.06234567901234567,0,0,0.06234567901234567,192.8351851851852,0)"/>
     <use id="svg_211" xlink:href="#ah" transform="matrix(0.06234567901234567,0,0,0.06234567901234567,206.4888888888889,0)"/>
     <use id="svg_212" xlink:href="#z" transform="matrix(0.06234567901234567,0,0,0.06234567901234567,220.14259259259262,0)"/>
     <use id="svg_213" xlink:href="#y" transform="matrix(0.06234567901234567,0,0,0.06234567901234567,227.56172839506175,0)"/>
     <use id="svg_214" xlink:href="#ae" transform="matrix(0.06234567901234567,0,0,0.06234567901234567,240.0308641975309,0)"/>
     <use id="svg_215" xlink:href="#z" transform="matrix(0.06234567901234567,0,0,0.06234567901234567,252.50000000000003,0)"/>
    </g>
    <path id="ai" d="m256,-236l0,10l-26,4l-95,227l-9,0l-95,-227l-27,-4l0,-10l95,0l0,10l-31,4l71,174l71,-174l-31,-4l0,-10l77,0" fill="#3a414a"/>
    <g id="h">
     <use id="svg_216" xlink:href="#E" transform="matrix(0.06172839506172839,0,0,0.06172839506172839,0,0)"/>
     <use id="svg_217" xlink:href="#G" transform="matrix(0.06172839506172839,0,0,0.06172839506172839,12.345679012345679,0)"/>
     <use id="svg_218" xlink:href="#F" transform="matrix(0.06172839506172839,0,0,0.06172839506172839,19.691358024691358,0)"/>
     <use id="svg_219" xlink:href="#L" transform="matrix(0.06172839506172839,0,0,0.06172839506172839,29.50617283950617,0)"/>
     <use id="svg_220" xlink:href="#H" transform="matrix(0.06172839506172839,0,0,0.06172839506172839,40.61728395061728,0)"/>
     <use id="svg_221" xlink:href="#K" transform="matrix(0.06172839506172839,0,0,0.06172839506172839,57.90123456790123,0)"/>
     <use id="svg_222" xlink:href="#M" transform="matrix(0.06172839506172839,0,0,0.06172839506172839,67.71604938271604,0)"/>
     <use id="svg_223" xlink:href="#J" transform="matrix(0.06172839506172839,0,0,0.06172839506172839,78.82716049382715,0)"/>
     <use id="svg_224" xlink:href="#ai" transform="matrix(0.06172839506172839,0,0,0.06172839506172839,84.99999999999999,0)"/>
     <use id="svg_225" xlink:href="#U" transform="matrix(0.06172839506172839,0,0,0.06172839506172839,99.62962962962962,0)"/>
     <use id="svg_226" xlink:href="#K" transform="matrix(0.06172839506172839,0,0,0.06172839506172839,105.80246913580245,0)"/>
     <use id="svg_227" xlink:href="#Z" transform="matrix(0.06172839506172839,0,0,0.06172839506172839,115.61728395061726,0)"/>
     <use id="svg_228" xlink:href="#S" transform="matrix(0.06172839506172839,0,0,0.06172839506172839,131.6049382716049,0)"/>
    </g>
    <path id="aj" d="m126,-119c3,-38 -42,-31 -69,-25l0,132l23,4l0,8l-73,0l0,-8l21,-4l0,-226l-24,-4l0,-8l53,0l-1,98c31,-22 99,-31 99,31l0,109c7,3 23,-1 20,12l-71,0l0,-8l22,-4l0,-107" fill="#3a414a"/>
    <path id="ak" d="m124,-13c-35,21 -98,28 -98,-32l0,-108c-8,-3 -24,2 -21,-12l50,0l0,118c-3,37 42,32 69,25l0,-131l-25,-4l0,-8l54,0l0,153c8,3 24,-2 21,12l-48,0" fill="#3a414a"/>
    <path id="al" d="m60,-80l68,-73c-7,-3 -20,0 -17,-12l58,0c3,13 -13,9 -20,12l-47,48l60,93c7,3 21,-1 18,12l-68,0c-3,-12 9,-9 15,-12l-45,-71l-22,23l0,48c7,3 21,-1 18,12l-68,0l0,-8l21,-4l0,-226l-24,-4l0,-8l53,0l0,170" fill="#3a414a"/>
    <g id="i">
     <use id="svg_229" xlink:href="#N" transform="matrix(0.06172839506172839,0,0,0.06172839506172839,0,0)"/>
     <use id="svg_230" xlink:href="#aj" transform="matrix(0.06172839506172839,0,0,0.06172839506172839,14.814814814814813,0)"/>
     <use id="svg_231" xlink:href="#ak" transform="matrix(0.06172839506172839,0,0,0.06172839506172839,25.925925925925924,0)"/>
     <use id="svg_232" xlink:href="#M" transform="matrix(0.06172839506172839,0,0,0.06172839506172839,37.03703703703704,0)"/>
     <use id="svg_233" xlink:href="#al" transform="matrix(0.06172839506172839,0,0,0.06172839506172839,48.14814814814815,0)"/>
     <use id="svg_234" xlink:href="#E" transform="matrix(0.06172839506172839,0,0,0.06172839506172839,59.25925925925927,0)"/>
     <use id="svg_235" xlink:href="#G" transform="matrix(0.06172839506172839,0,0,0.06172839506172839,71.60493827160495,0)"/>
     <use id="svg_236" xlink:href="#F" transform="matrix(0.06172839506172839,0,0,0.06172839506172839,78.95061728395063,0)"/>
     <use id="svg_237" xlink:href="#L" transform="matrix(0.06172839506172839,0,0,0.06172839506172839,88.76543209876544,0)"/>
     <use id="svg_238" xlink:href="#H" transform="matrix(0.06172839506172839,0,0,0.06172839506172839,99.87654320987656,0)"/>
     <use id="svg_239" xlink:href="#K" transform="matrix(0.06172839506172839,0,0,0.06172839506172839,117.16049382716051,0)"/>
     <use id="svg_240" xlink:href="#M" transform="matrix(0.06172839506172839,0,0,0.06172839506172839,126.97530864197533,0)"/>
     <use id="svg_241" xlink:href="#J" transform="matrix(0.06172839506172839,0,0,0.06172839506172839,138.08641975308643,0)"/>
     <use id="svg_242" xlink:href="#ai" transform="matrix(0.06172839506172839,0,0,0.06172839506172839,144.25925925925927,0)"/>
     <use id="svg_243" xlink:href="#U" transform="matrix(0.06172839506172839,0,0,0.06172839506172839,158.88888888888889,0)"/>
     <use id="svg_244" xlink:href="#K" transform="matrix(0.06172839506172839,0,0,0.06172839506172839,165.06172839506172,0)"/>
     <use id="svg_245" xlink:href="#Z" transform="matrix(0.06172839506172839,0,0,0.06172839506172839,174.87654320987653,0)"/>
     <use id="svg_246" xlink:href="#S" transform="matrix(0.06172839506172839,0,0,0.06172839506172839,190.86419753086417,0)"/>
    </g>
    <path id="am" d="m10,-9l31,-5l0,-208l-31,-4l0,-10l177,0l0,57l-11,0l-6,-38c-28,-4 -63,-3 -95,-3l0,92l63,0l6,-28l11,0l0,73l-11,0l-6,-29l-63,0l0,96l105,-3l10,-43l12,0l-3,62l-189,0l0,-9" fill="#3a414a"/>
    <path id="an" d="m161,-154l-76,191c-10,29 -36,49 -77,38l0,-36c18,-2 6,24 29,21c30,-4 38,-32 47,-58l-63,-155c-7,-3 -20,0 -17,-12l77,0l0,8l-26,4l45,116l43,-116l-26,-4l0,-8l62,0l0,8" fill="#3a414a"/>
    <path id="ao" d="m111,-226l-36,4l0,207c33,-1 73,2 101,-4l11,-49l11,0l-3,68l-185,0l0,-9l31,-5l0,-208l-31,-4l0,-10l101,0l0,10" fill="#3a414a"/>
    <g id="j">
     <use id="svg_247" xlink:href="#am" transform="matrix(0.06172839506172839,0,0,0.06172839506172839,0,0)"/>
     <use id="svg_248" xlink:href="#M" transform="matrix(0.06172839506172839,0,0,0.06172839506172839,13.518518518518517,0)"/>
     <use id="svg_249" xlink:href="#J" transform="matrix(0.06172839506172839,0,0,0.06172839506172839,24.629629629629626,0)"/>
     <use id="svg_250" xlink:href="#U" transform="matrix(0.06172839506172839,0,0,0.06172839506172839,30.802469135802465,0)"/>
     <use id="svg_251" xlink:href="#J" transform="matrix(0.06172839506172839,0,0,0.06172839506172839,36.9753086419753,0)"/>
     <use id="svg_252" xlink:href="#an" transform="matrix(0.06172839506172839,0,0,0.06172839506172839,43.148148148148145,0)"/>
     <use id="svg_253" xlink:href="#ao" transform="matrix(0.06172839506172839,0,0,0.06172839506172839,54.25925925925925,0)"/>
     <use id="svg_254" xlink:href="#U" transform="matrix(0.06172839506172839,0,0,0.06172839506172839,67.77777777777777,0)"/>
     <use id="svg_255" xlink:href="#S" transform="matrix(0.06172839506172839,0,0,0.06172839506172839,73.9506172839506,0)"/>
     <use id="svg_256" xlink:href="#J" transform="matrix(0.06172839506172839,0,0,0.06172839506172839,82.59259259259258,0)"/>
     <use id="svg_257" xlink:href="#ai" transform="matrix(0.06172839506172839,0,0,0.06172839506172839,88.76543209876542,0)"/>
     <use id="svg_258" xlink:href="#U" transform="matrix(0.06172839506172839,0,0,0.06172839506172839,103.39506172839505,0)"/>
     <use id="svg_259" xlink:href="#K" transform="matrix(0.06172839506172839,0,0,0.06172839506172839,109.56790123456788,0)"/>
     <use id="svg_260" xlink:href="#Z" transform="matrix(0.06172839506172839,0,0,0.06172839506172839,119.3827160493827,0)"/>
    </g>
    <path id="ap" d="m45,-84c0,64 52,80 104,63c1,25 -30,25 -55,25c-56,0 -80,-32 -80,-88c0,-76 62,-98 131,-80l0,46l-10,0c-5,-15 -4,-31 -23,-35c-47,-10 -67,21 -67,69" fill="#3a414a"/>
    <g id="k">
     <use id="svg_261" xlink:href="#ap" transform="matrix(0.06172839506172839,0,0,0.06172839506172839,0,0)"/>
     <use id="svg_262" xlink:href="#aj" transform="matrix(0.06172839506172839,0,0,0.06172839506172839,9.814814814814815,0)"/>
     <use id="svg_263" xlink:href="#ak" transform="matrix(0.06172839506172839,0,0,0.06172839506172839,20.925925925925924,0)"/>
     <use id="svg_264" xlink:href="#M" transform="matrix(0.06172839506172839,0,0,0.06172839506172839,32.03703703703704,0)"/>
     <use id="svg_265" xlink:href="#al" transform="matrix(0.06172839506172839,0,0,0.06172839506172839,43.14814814814815,0)"/>
    </g>
    <path id="aq" d="m152,0l-7,0l-86,-203l0,189l32,5l0,9l-81,0l0,-9l31,-5l0,-208l-31,-4l0,-10l72,0l76,180l84,-180l68,0l0,10l-31,4l0,208l31,5l0,9l-96,0l0,-9l32,-5l0,-189" fill="#3a414a"/>
    <path id="ar" d="m13,-81c0,-71 46,-101 114,-85l-1,-72l-28,-4l0,-8l57,0l0,238c8,3 24,-2 21,12l-47,0l-2,-12c-47,35 -114,11 -114,-69zm77,-74c-37,1 -44,33 -45,74c0,38 9,66 45,66c14,0 27,-3 36,-7l0,-130c-10,-1 -24,-3 -36,-3" fill="#3a414a"/>
    <g id="l">
     <use id="svg_266" xlink:href="#E" transform="matrix(0.06172839506172839,0,0,0.06172839506172839,0,0)"/>
     <use id="svg_267" xlink:href="#aq" transform="matrix(0.06172839506172839,0,0,0.06172839506172839,12.345679012345679,0)"/>
     <use id="svg_268" xlink:href="#F" transform="matrix(0.06172839506172839,0,0,0.06172839506172839,32.098765432098766,0)"/>
     <use id="svg_269" xlink:href="#S" transform="matrix(0.06172839506172839,0,0,0.06172839506172839,41.91358024691358,0)"/>
     <use id="svg_270" xlink:href="#S" transform="matrix(0.06172839506172839,0,0,0.06172839506172839,50.55555555555556,0)"/>
     <use id="svg_271" xlink:href="#am" transform="matrix(0.06172839506172839,0,0,0.06172839506172839,59.19753086419753,0)"/>
     <use id="svg_272" xlink:href="#M" transform="matrix(0.06172839506172839,0,0,0.06172839506172839,72.71604938271605,0)"/>
     <use id="svg_273" xlink:href="#J" transform="matrix(0.06172839506172839,0,0,0.06172839506172839,83.82716049382717,0)"/>
     <use id="svg_274" xlink:href="#U" transform="matrix(0.06172839506172839,0,0,0.06172839506172839,90,0)"/>
     <use id="svg_275" xlink:href="#J" transform="matrix(0.06172839506172839,0,0,0.06172839506172839,96.17283950617283,0)"/>
     <use id="svg_276" xlink:href="#an" transform="matrix(0.06172839506172839,0,0,0.06172839506172839,102.34567901234567,0)"/>
     <use id="svg_277" xlink:href="#Q" transform="matrix(0.06172839506172839,0,0,0.06172839506172839,113.45679012345678,0)"/>
     <use id="svg_278" xlink:href="#F" transform="matrix(0.06172839506172839,0,0,0.06172839506172839,129.44444444444443,0)"/>
     <use id="svg_279" xlink:href="#M" transform="matrix(0.06172839506172839,0,0,0.06172839506172839,139.25925925925924,0)"/>
     <use id="svg_280" xlink:href="#ar" transform="matrix(0.06172839506172839,0,0,0.06172839506172839,150.37037037037035,0)"/>
     <use id="svg_281" xlink:href="#Y" transform="matrix(0.06172839506172839,0,0,0.06172839506172839,161.48148148148147,0)"/>
     <use id="svg_282" xlink:href="#K" transform="matrix(0.06172839506172839,0,0,0.06172839506172839,167.6543209876543,0)"/>
    </g>
    <path id="as" d="m75,-17c87,13 134,-18 134,-103c0,-78 -51,-106 -134,-100l0,203zm171,-102c0,124 -107,126 -236,119l0,-9l31,-5l0,-208l-31,-4l0,-10l107,0c82,0 129,35 129,117" fill="#3a414a"/>
    <g id="m">
     <use id="svg_283" xlink:href="#as" transform="matrix(0.06172839506172839,0,0,0.06172839506172839,0,0)"/>
     <use id="svg_284" xlink:href="#F" transform="matrix(0.06172839506172839,0,0,0.06172839506172839,15.987654320987653,0)"/>
     <use id="svg_285" xlink:href="#J" transform="matrix(0.06172839506172839,0,0,0.06172839506172839,25.80246913580247,0)"/>
     <use id="svg_286" xlink:href="#F" transform="matrix(0.06172839506172839,0,0,0.06172839506172839,31.975308641975307,0)"/>
    </g>
    <path id="at" d="m81,-9l0,9l-77,0l0,-9l26,-5l81,-224l33,0l83,224l30,5l0,9l-99,0l0,-9l31,-5l-23,-68l-93,0l-24,68l32,5zm38,-203l-41,114l82,0" fill="#3a414a"/>
    <g id="n">
     <use id="svg_287" xlink:href="#at" transform="matrix(0.06172839506172839,0,0,0.06172839506172839,0,0)"/>
     <use id="svg_288" xlink:href="#G" transform="matrix(0.06172839506172839,0,0,0.06172839506172839,15.987654320987653,0)"/>
     <use id="svg_289" xlink:href="#G" transform="matrix(0.06172839506172839,0,0,0.06172839506172839,23.333333333333332,0)"/>
     <use id="svg_290" xlink:href="#F" transform="matrix(0.06172839506172839,0,0,0.06172839506172839,30.679012345679013,0)"/>
     <use id="svg_291" xlink:href="#an" transform="matrix(0.06172839506172839,0,0,0.06172839506172839,40.49382716049383,0)"/>
    </g>
    <path id="au" d="m220,-157c-53,9 -28,100 -34,157l-49,0l0,-107c1,-27 -5,-49 -29,-50c-53,10 -27,100 -33,157l-50,0l-1,-190l47,0c2,12 -1,28 3,38c10,-53 101,-56 108,0c13,-22 24,-43 59,-42c82,1 51,116 57,194l-49,0l0,-107c-1,-25 -5,-48 -29,-50"/>
    <path id="av" d="m275,0l-61,0l-44,-196l-44,196l-62,0l-64,-248l53,0l44,199l45,-199l58,0l43,199l44,-199l52,0"/>
    <path id="aw" d="m195,-6c11,88 -120,106 -164,52c-4,-6 -6,-13 -8,-21l49,-6c3,16 16,24 34,25c40,0 42,-37 40,-79c-11,22 -30,35 -61,35c-53,0 -70,-43 -70,-97c0,-56 18,-96 73,-97c30,0 46,14 59,34l2,-30l47,0l-1,184zm-90,-29c32,0 41,-27 41,-63c0,-35 -9,-62 -40,-62c-32,0 -39,29 -40,63c0,36 9,62 39,62"/>
    <path id="ax" d="m147,0l-53,0l-92,-248l55,0l64,206c17,-72 42,-137 63,-206l54,0"/>
    <g id="o">
     <use id="svg_292" xlink:href="#V" transform="matrix(0.06234567901234567,0,0,0.06234567901234567,0,0)"/>
     <use id="svg_293" xlink:href="#ab" transform="matrix(0.06234567901234567,0,0,0.06234567901234567,13.653703703703702,0)"/>
     <use id="svg_294" xlink:href="#v" transform="matrix(0.06234567901234567,0,0,0.06234567901234567,26.122839506172834,0)"/>
     <use id="svg_295" xlink:href="#au" transform="matrix(0.06234567901234567,0,0,0.06234567901234567,34.85123456790123,0)"/>
     <use id="svg_296" xlink:href="#av" transform="matrix(0.06234567901234567,0,0,0.06234567901234567,54.80185185185184,0)"/>
     <use id="svg_297" xlink:href="#ab" transform="matrix(0.06234567901234567,0,0,0.06234567901234567,75.12654320987653,0)"/>
     <use id="svg_298" xlink:href="#z" transform="matrix(0.06234567901234567,0,0,0.06234567901234567,87.59567901234567,0)"/>
     <use id="svg_299" xlink:href="#y" transform="matrix(0.06234567901234567,0,0,0.06234567901234567,95.0148148148148,0)"/>
     <use id="svg_300" xlink:href="#v" transform="matrix(0.06234567901234567,0,0,0.06234567901234567,107.48395061728394,0)"/>
     <use id="svg_301" xlink:href="#V" transform="matrix(0.06234567901234567,0,0,0.06234567901234567,116.21234567901233,0)"/>
     <use id="svg_302" xlink:href="#v" transform="matrix(0.06234567901234567,0,0,0.06234567901234567,129.86604938271603,0)"/>
     <use id="svg_303" xlink:href="#ab" transform="matrix(0.06234567901234567,0,0,0.06234567901234567,138.59444444444443,0)"/>
     <use id="svg_304" xlink:href="#aw" transform="matrix(0.06234567901234567,0,0,0.06234567901234567,151.06358024691357,0)"/>
     <use id="svg_305" xlink:href="#ax" transform="matrix(0.06234567901234567,0,0,0.06234567901234567,164.7172839506173,0)"/>
     <use id="svg_306" xlink:href="#ag" transform="matrix(0.06234567901234567,0,0,0.06234567901234567,179.24382716049382,0)"/>
     <use id="svg_307" xlink:href="#y" transform="matrix(0.06234567901234567,0,0,0.06234567901234567,185.47839506172838,0)"/>
     <use id="svg_308" xlink:href="#X" transform="matrix(0.06234567901234567,0,0,0.06234567901234567,197.94753086419752,0)"/>
    </g>
    <path id="ay" d="m199,-173c-1,36 -21,56 -49,65l64,94l26,5l0,9l-57,0l-66,-103l-42,0l0,89l35,5l0,9l-97,0l0,-9l28,-5l0,-208l-31,-4l0,-10c80,4 190,-20 189,63zm-124,54c50,2 89,-1 89,-51c0,-49 -39,-52 -89,-50l0,101" fill="#3a414a"/>
    <path id="az" d="m13,-82c-2,-68 46,-101 114,-84c8,-3 15,-8 28,-7l0,237l18,4l0,9l-70,0l0,-9l23,-4c1,-25 -2,-53 2,-75c-11,8 -27,15 -47,15c-49,-1 -66,-35 -68,-86zm113,-70c-53,-13 -86,12 -81,70c-6,54 34,80 81,61l0,-131" fill="#3a414a"/>
    <path id="aA" d="m50,-37c14,0 21,9 21,21s-9,21 -21,21c-13,0 -22,-9 -22,-21s8,-21 22,-21zm0,-132c12,0 21,9 21,21c0,13 -9,22 -21,22c-13,0 -22,-9 -22,-22c0,-12 9,-21 22,-21" fill="#3a414a"/>
    <g id="p">
     <use id="svg_309" xlink:href="#ay" transform="matrix(0.06172839506172839,0,0,0.06172839506172839,0,0)"/>
     <use id="svg_310" xlink:href="#K" transform="matrix(0.06172839506172839,0,0,0.06172839506172839,14.814814814814813,0)"/>
     <use id="svg_311" xlink:href="#az" transform="matrix(0.06172839506172839,0,0,0.06172839506172839,24.629629629629626,0)"/>
     <use id="svg_312" xlink:href="#ak" transform="matrix(0.06172839506172839,0,0,0.06172839506172839,35.74074074074073,0)"/>
     <use id="svg_313" xlink:href="#U" transform="matrix(0.06172839506172839,0,0,0.06172839506172839,46.85185185185185,0)"/>
     <use id="svg_314" xlink:href="#G" transform="matrix(0.06172839506172839,0,0,0.06172839506172839,53.02469135802469,0)"/>
     <use id="svg_315" xlink:href="#K" transform="matrix(0.06172839506172839,0,0,0.06172839506172839,60.37037037037037,0)"/>
     <use id="svg_316" xlink:href="#H" transform="matrix(0.06172839506172839,0,0,0.06172839506172839,70.18518518518518,0)"/>
     <use id="svg_317" xlink:href="#K" transform="matrix(0.06172839506172839,0,0,0.06172839506172839,87.46913580246913,0)"/>
     <use id="svg_318" xlink:href="#M" transform="matrix(0.06172839506172839,0,0,0.06172839506172839,97.28395061728394,0)"/>
     <use id="svg_319" xlink:href="#J" transform="matrix(0.06172839506172839,0,0,0.06172839506172839,108.39506172839505,0)"/>
     <use id="svg_320" xlink:href="#aA" transform="matrix(0.06172839506172839,0,0,0.06172839506172839,114.56790123456788,0)"/>
    </g>
    <g id="q">
     <use id="svg_321" xlink:href="#E" transform="matrix(0.06172839506172839,0,0,0.06172839506172839,0,0)"/>
     <use id="svg_322" xlink:href="#E" transform="matrix(0.06172839506172839,0,0,0.06172839506172839,12.345679012345679,0)"/>
     <use id="svg_323" xlink:href="#F" transform="matrix(0.06172839506172839,0,0,0.06172839506172839,24.691358024691358,0)"/>
     <use id="svg_324" xlink:href="#G" transform="matrix(0.06172839506172839,0,0,0.06172839506172839,34.50617283950617,0)"/>
     <use id="svg_325" xlink:href="#H" transform="matrix(0.06172839506172839,0,0,0.06172839506172839,41.85185185185185,0)"/>
     <use id="svg_326" xlink:href="#I" transform="matrix(0.06172839506172839,0,0,0.06172839506172839,59.1358024691358,0)"/>
     <use id="svg_327" xlink:href="#F" transform="matrix(0.06172839506172839,0,0,0.06172839506172839,78.2716049382716,0)"/>
     <use id="svg_328" xlink:href="#J" transform="matrix(0.06172839506172839,0,0,0.06172839506172839,88.0864197530864,0)"/>
     <use id="svg_329" xlink:href="#K" transform="matrix(0.06172839506172839,0,0,0.06172839506172839,94.25925925925924,0)"/>
     <use id="svg_330" xlink:href="#G" transform="matrix(0.06172839506172839,0,0,0.06172839506172839,104.07407407407405,0)"/>
     <use id="svg_331" xlink:href="#E" transform="matrix(0.06172839506172839,0,0,0.06172839506172839,111.41975308641973,0)"/>
     <use id="svg_332" xlink:href="#G" transform="matrix(0.06172839506172839,0,0,0.06172839506172839,123.76543209876542,0)"/>
     <use id="svg_333" xlink:href="#F" transform="matrix(0.06172839506172839,0,0,0.06172839506172839,131.1111111111111,0)"/>
     <use id="svg_334" xlink:href="#L" transform="matrix(0.06172839506172839,0,0,0.06172839506172839,140.9259259259259,0)"/>
     <use id="svg_335" xlink:href="#H" transform="matrix(0.06172839506172839,0,0,0.06172839506172839,152.037037037037,0)"/>
     <use id="svg_336" xlink:href="#K" transform="matrix(0.06172839506172839,0,0,0.06172839506172839,169.32098765432096,0)"/>
     <use id="svg_337" xlink:href="#M" transform="matrix(0.06172839506172839,0,0,0.06172839506172839,179.13580246913577,0)"/>
     <use id="svg_338" xlink:href="#J" transform="matrix(0.06172839506172839,0,0,0.06172839506172839,190.24691358024688,0)"/>
    </g>
    <g id="r">
     <use id="svg_339" xlink:href="#E" transform="matrix(0.06172839506172839,0,0,0.06172839506172839,0,0)"/>
     <use id="svg_340" xlink:href="#G" transform="matrix(0.06172839506172839,0,0,0.06172839506172839,12.345679012345679,0)"/>
     <use id="svg_341" xlink:href="#F" transform="matrix(0.06172839506172839,0,0,0.06172839506172839,19.691358024691358,0)"/>
     <use id="svg_342" xlink:href="#L" transform="matrix(0.06172839506172839,0,0,0.06172839506172839,29.50617283950617,0)"/>
     <use id="svg_343" xlink:href="#H" transform="matrix(0.06172839506172839,0,0,0.06172839506172839,40.61728395061728,0)"/>
     <use id="svg_344" xlink:href="#K" transform="matrix(0.06172839506172839,0,0,0.06172839506172839,57.90123456790123,0)"/>
     <use id="svg_345" xlink:href="#M" transform="matrix(0.06172839506172839,0,0,0.06172839506172839,67.71604938271604,0)"/>
     <use id="svg_346" xlink:href="#J" transform="matrix(0.06172839506172839,0,0,0.06172839506172839,78.82716049382715,0)"/>
     <use id="svg_347" xlink:href="#ai" transform="matrix(0.06172839506172839,0,0,0.06172839506172839,84.99999999999999,0)"/>
     <use id="svg_348" xlink:href="#U" transform="matrix(0.06172839506172839,0,0,0.06172839506172839,99.62962962962962,0)"/>
     <use id="svg_349" xlink:href="#K" transform="matrix(0.06172839506172839,0,0,0.06172839506172839,105.80246913580245,0)"/>
     <use id="svg_350" xlink:href="#Z" transform="matrix(0.06172839506172839,0,0,0.06172839506172839,115.61728395061726,0)"/>
    </g>
    <g id="s">
     <use id="svg_351" xlink:href="#E" transform="matrix(0.06172839506172839,0,0,0.06172839506172839,0,0)"/>
     <use id="svg_352" xlink:href="#G" transform="matrix(0.06172839506172839,0,0,0.06172839506172839,12.345679012345679,0)"/>
     <use id="svg_353" xlink:href="#F" transform="matrix(0.06172839506172839,0,0,0.06172839506172839,19.691358024691358,0)"/>
     <use id="svg_354" xlink:href="#L" transform="matrix(0.06172839506172839,0,0,0.06172839506172839,29.50617283950617,0)"/>
     <use id="svg_355" xlink:href="#H" transform="matrix(0.06172839506172839,0,0,0.06172839506172839,40.61728395061728,0)"/>
     <use id="svg_356" xlink:href="#K" transform="matrix(0.06172839506172839,0,0,0.06172839506172839,57.90123456790123,0)"/>
     <use id="svg_357" xlink:href="#M" transform="matrix(0.06172839506172839,0,0,0.06172839506172839,67.71604938271604,0)"/>
     <use id="svg_358" xlink:href="#J" transform="matrix(0.06172839506172839,0,0,0.06172839506172839,78.82716049382715,0)"/>
    </g>
    <g id="t">
     <use id="svg_359" xlink:href="#ap" transform="matrix(0.06172839506172839,0,0,0.06172839506172839,0,0)"/>
     <use id="svg_360" xlink:href="#aj" transform="matrix(0.06172839506172839,0,0,0.06172839506172839,9.814814814814815,0)"/>
     <use id="svg_361" xlink:href="#ak" transform="matrix(0.06172839506172839,0,0,0.06172839506172839,20.925925925925924,0)"/>
     <use id="svg_362" xlink:href="#M" transform="matrix(0.06172839506172839,0,0,0.06172839506172839,32.03703703703704,0)"/>
     <use id="svg_363" xlink:href="#al" transform="matrix(0.06172839506172839,0,0,0.06172839506172839,43.14814814814815,0)"/>
    </g>
   </defs>
  </g>
 </g>
</svg>