<svg width="1220" height="1045.02" xmlns="http://www.w3.org/2000/svg" xmlns:xlink="http://www.w3.org/1999/xlink"><path stroke="#3a414a" fill="#e2e2e2" d="M-261 0h1833v1450H-261z"/><path fill="#fff" stroke="#3a414a" d="M20 566a6 6 0 0 1 6-6h268a6 6 0 0 1 6 6v213a6 6 0 0 1-6 6H26a6 6 0 0 1-6-6V566z"/><path fill="none" stroke="#3a414a" d="M20 602.93h280"/><use x="-40" y="540" transform="translate(119.169 45.989)" xlink:href="#a"/><path fill="#fff" stroke="#3a414a" d="M20 611.02a6 6 0 0 1 6-6h268a6 6 0 0 1 6 6v48a6 6 0 0 1-6 6H26a6 6 0 0 1-6-6v-48z"/><use x="-40" y="540" transform="translate(101.795 97.794)" xlink:href="#b"/><path fill="#fff" stroke="#3a414a" d="M20 671.02a6 6 0 0 1 6-6h268a6 6 0 0 1 6 6v48a6 6 0 0 1-6 6H26a6 6 0 0 1-6-6v-48z"/><use x="-40" y="540" transform="translate(105.746 157.794)" xlink:href="#c"/><path fill="#fff" stroke="#3a414a" d="M20 731.02a6 6 0 0 1 6-6h268a6 6 0 0 1 6 6v48a6 6 0 0 1-6 6H26a6 6 0 0 1-6-6v-48z"/><use x="-40" y="540" transform="translate(90.221 217.794)" xlink:href="#d"/><path fill="#fff" stroke="#3a414a" d="M21.46 806a6 6 0 0 1 6-6h268a6 6 0 0 1 6 6v213a6 6 0 0 1-6 6h-268a6 6 0 0 1-6-6V806z"/><path fill="none" stroke="#3a414a" d="M21.46 842.93h280"/><use x="-40" y="540" transform="translate(110.625 285.989)" xlink:href="#e"/><path fill="#fff" stroke="#3a414a" d="M21.46 851.02a6 6 0 0 1 6-6h268a6 6 0 0 1 6 6v48a6 6 0 0 1-6 6h-268a6 6 0 0 1-6-6v-48z"/><use x="-40" y="540" transform="translate(103.258 337.794)" xlink:href="#b"/><path fill="#fff" stroke="#3a414a" d="M21.46 911.02a6 6 0 0 1 6-6h268a6 6 0 0 1 6 6v48a6 6 0 0 1-6 6h-268a6 6 0 0 1-6-6v-48z"/><use x="-40" y="540" transform="translate(98.011 397.794)" xlink:href="#f"/><path fill="#fff" stroke="#3a414a" d="M21.46 971.02a6 6 0 0 1 6-6h268a6 6 0 0 1 6 6v48a6 6 0 0 1-6 6h-268a6 6 0 0 1-6-6v-48z"/><use x="-40" y="540" transform="translate(91.684 457.794)" xlink:href="#d"/><path fill="#fff" stroke="#3a414a" d="M20 33.64a6 6 0 0 1 6-6h268a6 6 0 0 1 6 6v213a6 6 0 0 1-6 6H26a6 6 0 0 1-6-6v-213z"/><path fill="none" stroke="#3a414a" d="M20 70.57h280"/><use x="-40" y="540" transform="translate(70.04 -486.371)" xlink:href="#g"/><path fill="#fff" stroke="#3a414a" d="M20 78.66a6 6 0 0 1 6-6h268a6 6 0 0 1 6 6v48a6 6 0 0 1-6 6H26a6 6 0 0 1-6-6v-48z"/><use x="-40" y="540" transform="translate(129.882 -434.565)" xlink:href="#h"/><path fill="#fff" stroke="#3a414a" d="M20 138.66a6 6 0 0 1 6-6h268a6 6 0 0 1 6 6v48a6 6 0 0 1-6 6H26a6 6 0 0 1-6-6v-48z"/><use x="-40" y="540" transform="translate(100.252 -374.565)" xlink:href="#i"/><path fill="#fff" stroke="#3a414a" d="M20 198.66a6 6 0 0 1 6-6h268a6 6 0 0 1 6 6v48a6 6 0 0 1-6 6H26a6 6 0 0 1-6-6v-48z"/><use x="-40" y="540" transform="translate(132.32 -314.565)" xlink:href="#j"/><path fill="#fff" stroke="#3a414a" d="M478 448.52a6 6 0 0 1 6-6h428a6 6 0 0 1 6 6v286.33a6 6 0 0 1-6 6H484a6 6 0 0 1-6-6V448.52z"/><use x="-40" y="540" transform="translate(523 -74.706)" xlink:href="#k"/><path fill="#fff" stroke="#3a414a" d="M478 506.85a6 6 0 0 1 6-6h428a6 6 0 0 1 6 6v48a6 6 0 0 1-6 6H484a6 6 0 0 1-6-6v-48zm0 60.17a6 6 0 0 1 6-6h428a6 6 0 0 1 6 6v48a6 6 0 0 1-6 6H484a6 6 0 0 1-6-6v-48z"/><path fill="#fff" stroke="#3a414a" d="M478 626.85a6 6 0 0 1 6-6h428a6 6 0 0 1 6 6v48a6 6 0 0 1-6 6H484a6 6 0 0 1-6-6v-48zm0 60a6 6 0 0 1 6-6h428a6 6 0 0 1 6 6v48a6 6 0 0 1-6 6H484a6 6 0 0 1-6-6v-48z"/><path fill="none" d="M678 516.85a6 6 0 0 1 6-6h228a6 6 0 0 1 6 6v18.33a6 6 0 0 1-6 6H684a6 6 0 0 1-6-6v-18.33z"/><use x="-40" y="540" transform="translate(775.531 -5.06)" xlink:href="#l"/><path fill="none" d="M678 567.02a6 6 0 0 1 6-6h228a6 6 0 0 1 6 6v48a6 6 0 0 1-6 6H684a6 6 0 0 1-6-6v-48z"/><use x="-40" y="540" transform="translate(756.58 56.294)" xlink:href="#b"/><path fill="none" d="M678.5 626.85a6 6 0 0 1 6-6h228a6 6 0 0 1 6 6v48a6 6 0 0 1-6 6h-228a6 6 0 0 1-6-6v-48z"/><use x="-40" y="540" transform="translate(764.981 116.128)" xlink:href="#c"/><path fill="none" d="M678 686.85a6 6 0 0 1 6-6h228a6 6 0 0 1 6 6v51.33a6 6 0 0 1-6 6H684a6 6 0 0 1-6-6v-51.33z"/><use x="-40" y="540" transform="translate(733.432 177.128)" xlink:href="#d"/><path fill="#fff" stroke="#3a414a" d="M478 566.85a6 6 0 0 1 6-6h128a6 6 0 0 1 6 6v48a6 6 0 0 1-6 6H484a6 6 0 0 1-6-6v-48z"/><use x="-40" y="540" transform="translate(567.11 53.628)" xlink:href="#m"/><path fill="#fff" stroke="#3a414a" d="M478 506.85a6 6 0 0 1 6-6h128a6 6 0 0 1 6 6v48a6 6 0 0 1-6 6H484a6 6 0 0 1-6-6v-48z"/><use x="-40" y="540" transform="translate(567.11 -6.372)" xlink:href="#m"/><path fill="#fff" stroke="#3a414a" d="M440 26a6 6 0 0 1 6-6h428a6 6 0 0 1 6 6v198.15a6 6 0 0 1-6 6H446a6 6 0 0 1-6-6V26z"/><use x="-40" y="540" transform="translate(488.01 -497.212)" xlink:href="#n"/><path fill="#fff" stroke="#3a414a" d="M440 70.82a6 6 0 0 1 6-6h379.3a6 6 0 0 1 6 6v151a6 6 0 0 1-6 6H446a6 6 0 0 1-6-6v-151z"/><path fill="none" stroke="#3a414a" d="M440 107.75h391.3"/><use x="-40" y="540" transform="translate(568.298 -449.193)" xlink:href="#o"/><path fill="#fff" stroke="#3a414a" d="M440 116.14a6 6 0 0 1 6-6h379.3a6 6 0 0 1 6 6v48a6 6 0 0 1-6 6H446a6 6 0 0 1-6-6v-48z"/><use x="-40" y="540" transform="translate(485.01 -397.082)" xlink:href="#p"/><use x="-40" y="540" transform="translate(611.306 -397.082)" xlink:href="#q"/><path fill="#fff" stroke="#3a414a" d="M440 176.15a6 6 0 0 1 6-6h379.3a6 6 0 0 1 6 6v48a6 6 0 0 1-6 6H446a6 6 0 0 1-6-6v-48z"/><use x="-40" y="540" transform="translate(609.703 -337.074)" xlink:href="#r"/><path fill="none" stroke-width="3" stroke="#3a414a" d="M302 103.8h62a6 6 0 0 0 6-6V42.16a6 6 0 0 1 6-6h42.88"/><path fill="#3a414a" stroke-width=".05" stroke="#3a414a" d="M302.04 105.3h-1.54v-3h1.54v3z"/><path fill="#3a414a" stroke-width="3" stroke="#3a414a" d="m434.65 36.16-14.27 4.63v-9.28l14.27 4.65z"/><g fill="none"><path d="M271.08 363.85a.5.5 0 0 1 .7.05l203.85 232.48a.5.5 0 0 1-.05.7.5.5 0 0 1-.7-.04L271.04 364.56a.5.5 0 0 1 .04-.7v-.01z"/><path stroke="#6db1ff" d="m278.32 371.35 2.6 2.98m5.24 5.96 2.6 2.97m5.24 5.96 2.6 2.98m5.24 5.98 2.6 2.98m5.24 5.96 2.6 2.98m5.24 5.96 2.6 2.98m5.24 5.96 2.6 2.98m5.24 5.96 2.6 2.98m5.24 5.96 2.6 2.98m5.24 5.96 2.6 2.98m5.24 5.97 2.6 2.98m5.24 5.96 2.6 3m5.24 5.95 2.6 2.98m5.24 5.96 2.6 2.97m5.24 5.96 2.6 2.98m5.24 5.97 2.6 2.98m5.24 5.96 2.6 3m5.23 5.95 2.6 3m5.23 5.95 2.62 2.98m5.22 5.96 2.62 2.98m5.2 5.96 2.63 2.98m5.22 5.96 2.62 2.98m5.22 5.96 2.6 2.98m5.23 5.96 2.62 2.98m5.22 5.96 2.62 3m5.2 5.95 1.32 1.48.05.06.03.07.03.08v.24l-.02.07-.03.06-.04.07-.06.05-.06.05-.06.04-.07.02h-.25l-.07-.03-.07-.03-.08-.05-.05-.06-1.3-1.5m-5.24-5.96-2.6-2.98m-5.24-5.96-2.62-2.98m-5.23-5.96-2.6-2.98m-5.24-5.96-2.6-2.98m-5.22-5.96-2.62-2.98m-5.22-5.96-2.62-2.98m-5.22-5.96-2.62-2.98m-5.18-5.95-2.62-3m-5.22-5.95-2.62-2.98m-5.22-5.96-2.62-2.97m-5.22-5.96-2.62-2.98m-5.22-5.97-2.62-2.98m-5.22-5.96-2.62-3m-5.22-5.95-2.62-2.98m-5.22-5.97-2.62-2.98m-5.22-5.96-2.6-2.98m-5.24-5.96-2.6-2.98m-5.24-5.96-2.6-2.98m-5.24-5.96-2.6-2.98m-5.24-5.96-2.6-2.98m-5.24-5.96-2.6-2.98m-5.24-5.96-2.6-3m-5.24-5.95-2.6-2.98m-5.24-5.97-2.6-2.98m-5.24-5.96-2.6-3m-5.24-5.95-1.3-1.5-.05-.05-.05-.07-.02-.08-.02-.07v-.08l.02-.08.03-.08.03-.07.05-.06.05-.05.06-.04.07-.03.1-.03h.19l.08.03.07.03.06.04.06.06 1.3 1.5"/></g><path fill="#fff" stroke="#3a414a" d="M270 322.37a6 6 0 0 1 6-6h688a6 6 0 0 1 6 6v39.1a6 6 0 0 1-6 6H276a6 6 0 0 1-6-6v-39.1z"/><path fill="#fff" stroke="#3a414a" d="M270 322.37a6 6 0 0 1 6-6h128a6 6 0 0 1 6 6v39.1a6 6 0 0 1-6 6H276a6 6 0 0 1-6-6v-39.1z"/><use x="-40" y="540" transform="translate(337.5 -192.104)" xlink:href="#s"/><path fill="#fff" stroke="#3a414a" d="M410 322.37a6 6 0 0 1 6-6h128a6 6 0 0 1 6 6v39.1a6 6 0 0 1-6 6H416a6 6 0 0 1-6-6v-39.1z"/><use x="-40" y="540" transform="translate(477.5 -192.104)" xlink:href="#s"/><path fill="#fff" stroke="#3a414a" d="M550 322.37a6 6 0 0 1 6-6h128a6 6 0 0 1 6 6v39.1a6 6 0 0 1-6 6H556a6 6 0 0 1-6-6v-39.1z"/><use x="-40" y="540" transform="translate(617.5 -192.104)" xlink:href="#s"/><path fill="#fff" stroke="#3a414a" d="M690 322.37a6 6 0 0 1 6-6h128a6 6 0 0 1 6 6v39.1a6 6 0 0 1-6 6H696a6 6 0 0 1-6-6v-39.1z"/><use x="-40" y="540" transform="translate(757.5 -192.104)" xlink:href="#s"/><path fill="#fff" stroke="#3a414a" d="M830 322.37a6 6 0 0 1 6-6h128a6 6 0 0 1 6 6v39.1a6 6 0 0 1-6 6H836a6 6 0 0 1-6-6v-39.1z"/><use x="-40" y="540" transform="translate(897.5 -192.104)" xlink:href="#s"/><path fill="none" stroke-width="2" stroke="#6db1ff" d="M831.95 224.17a1 1 0 0 1 1.4-.27l133.6 90.92a1 1 0 0 1 .26 1.4 1 1 0 0 1-1.38.25l-133.6-90.92a1 1 0 0 1-.27-1.38h-.01zm-392.77 3.13a1 1 0 0 1-.4 1.34l-164 87.96a1 1 0 0 1-1.37-.4 1 1 0 0 1 .42-1.36l164-87.96a1 1 0 0 1 1.36.4l-.01.02z"/><g fill="none"><path d="M969.32 369.86a.5.5 0 0 1-.15.7L619.64 589.75a.5.5 0 0 1-.7-.15.5.5 0 0 1 .17-.68l349.54-219.2a.5.5 0 0 1 .68.14h-.01z"/><path stroke="#6db1ff" d="m960.6 375.93-3.43 2.15m-6.85 4.3-3.43 2.14m-6.86 4.3-3.43 2.15m-6.84 4.3-3.43 2.15m-6.85 4.3-3.43 2.15m-6.85 4.3-3.43 2.14m-6.85 4.3-3.43 2.16m-6.86 4.3-3.43 2.15m-6.84 4.3-3.43 2.16m-6.85 4.3-3.43 2.14m-6.85 4.3-3.43 2.15m-6.85 4.3L844.1 449m-6.86 4.3-3.43 2.15m-6.84 4.3-3.43 2.14m-6.85 4.3-3.43 2.14m-6.85 4.3-3.43 2.15m-6.85 4.3-3.43 2.14m-6.86 4.3-3.43 2.14m-6.84 4.3-3.43 2.15m-6.85 4.3-3.43 2.15m-6.85 4.3-3.43 2.15m-6.85 4.3-3.43 2.14m-6.86 4.3-3.44 2.17m-6.84 4.3-3.43 2.15m-6.85 4.3-3.43 2.15m-6.85 4.3-3.43 2.15m-6.85 4.3-3.42 2.13m-6.86 4.3-3.43 2.16m-6.84 4.3-3.43 2.15m-6.85 4.3-3.43 2.16m-6.85 4.3-3.43 2.14m-6.85 4.3-3.43 2.15m-6.86 4.3-3.43 2.15m-6.84 4.3-1.72 1.07-.07.04-.07.03-.08.02h-.08l-.07-.02-.08-.02-.08-.02-.06-.05-.06-.05-.05-.07-.03-.06-.03-.07-.02-.08v-.16l.03-.08.05-.07.05-.07.05-.06.06-.05 1.73-1.07m6.85-4.3 3.43-2.15m6.86-4.3 3.43-2.15m6.84-4.3 3.43-2.14m6.85-4.3 3.43-2.14m6.85-4.3 3.43-2.15m6.85-4.3 3.43-2.14m6.86-4.3 3.43-2.14m6.84-4.3 3.43-2.15m6.85-4.3 3.43-2.15m6.85-4.3 3.43-2.15m6.85-4.3 3.43-2.14m6.86-4.3 3.43-2.15m6.84-4.3 3.43-2.15m6.85-4.3 3.43-2.15m6.85-4.3 3.43-2.14m6.85-4.3 3.43-2.15m6.86-4.3 3.43-2.16m6.84-4.3 3.43-2.15m6.85-4.3 3.43-2.15m6.85-4.3 3.43-2.15m6.85-4.3 3.43-2.15m6.86-4.3L847 446m6.84-4.3 3.43-2.14m6.85-4.3 3.43-2.15m6.85-4.3 3.43-2.14m6.85-4.3 3.43-2.15m6.86-4.3 3.43-2.14m6.84-4.3 3.43-2.14m6.85-4.3 3.43-2.15m6.85-4.3 3.43-2.15m6.85-4.3 3.43-2.15m6.86-4.3 3.43-2.14m6.84-4.3 3.43-2.15m6.85-4.3 1.72-1.07.06-.03.08-.03h.23l.1.03.06.03.06.05.06.05.04.06.04.07.03.08v.24l-.04.08-.03.07-.05.05-.05.06-.06.05-1.72 1.08"/></g><path fill="none" stroke-width="2" stroke="#3a414a" d="M301.5 589.28H383a6 6 0 0 0 6-6V476.13a6 6 0 0 1 6-6h64"/><path fill="#3a414a" stroke-width=".05" stroke="#3a414a" d="M301.53 590.28h-1.03v-2h1.03v2z"/><path fill="#3a414a" stroke-width="2" stroke="#3a414a" d="M474.26 470.13 460 474.77v-9.28l14.26 4.64z"/><path fill="none" stroke-width="2" stroke="#3a414a" d="M302.96 826.45h157"/><path fill="#3a414a" stroke-width=".05" stroke="#3a414a" d="M303 827.45h-1.04v-2H303v2z"/><path fill="#3a414a" stroke-width="2" stroke="#3a414a" d="m475.23 826.45-14.27 4.64v-9.28l14.27 4.64z"/><path fill="#fff" stroke="#3a414a" d="M980 448.52a6 6 0 0 1 6-6h208a6 6 0 0 1 6 6V734a6 6 0 0 1-6 6H986a6 6 0 0 1-6-6V448.52z"/><use x="-40" y="540" transform="translate(1028.01 -74.696)" xlink:href="#t"/><path fill="none" stroke-width="2" stroke="#3a414a" d="M919.5 468.17H961"/><path fill="#3a414a" stroke-width=".05" stroke="#3a414a" d="M919.53 469.17h-1.03v-2h1.03v2z"/><path fill="#3a414a" stroke-width="2" stroke="#3a414a" d="M976.26 468.17 962 472.8v-9.27l14.26 4.64z"/><path fill="#fff" stroke="#3a414a" d="M478 806a6 6 0 0 1 6-6h230a6 6 0 0 1 6 6v213.02a6 6 0 0 1-6 6H484a6 6 0 0 1-6-6V806z"/><use x="-40" y="540" transform="translate(526.01 282.788)" xlink:href="#t"/><path fill="none" stroke-width="2" stroke="#ff8f8f" d="M250 254.16v3m0 4v6.03m0 4v6.02m0 4v6.02m0 4v6.03m0 4v6.02m0 4v6.02m0 4v6.02m0 4v6.03m0 4v6.03m0 4v6.02m0 4v6.03m0 4v6.02m0 4v6.03m0 4v6.02m0 4v6.03m0 4v6.02m0 4.02v6m0 4v6.03m0 4v6.02m0 4v6.03m0 4v6.02m0 4v6.03m0 4v6.03m0 4v6.02m0 4v6.03m0 4.02v6m0 4.02v3l.07.95.22.9.35.87m2.63 2.63.87.36.9.22.95.07h3.05m4.06 0h6.1m4.06 0h6.1m4.04 0h6.1m4.06 0h6.08m4.06 0h6.1m4.05 0h6.1m4.05 0h6.1m4.05 0h6.1m4.05 0h6.1m4.05 0h6.1m4.05 0h6.1m4.05 0h6.1m4.05 0h6.1m4.05 0h6.1m4.05 0h6.1m4.05 0h6.1m4.05 0h6.1m4.05 0h6.1m4.05 0h6.1m4.05 0H459"/><path fill="#ff8f8f" stroke-width=".05" stroke="#ff8f8f" d="M251 254.18h-2v-1.02h2v1.02z"/><path fill="#ff8f8f" stroke-width="2" stroke="#ff8f8f" d="M474.26 530.85 460 535.5v-9.29l14.26 4.64z"/><defs transform="translate(-40 540)"><path id="u" d="m199 0-22-63H83L61 0H9l90-248h61L250 0h-51zm-33-102-36-108c-10 38-24 72-36 108h72"/><path id="v" d="M135-150c-39-12-60 13-60 57V0H25l-1-190h47c2 13-1 29 3 40 6-28 27-53 61-41v41"/><path id="w" d="M190-63c-7 42-38 67-86 67-59 0-84-38-90-98-12-110 154-137 174-36l-49 2c-2-19-15-32-35-32-30 0-35 28-38 64-6 74 65 87 74 30"/><path id="x" d="M114-157C55-157 80-60 75 0H25v-261h50l-1 109c12-26 28-41 61-42 86-1 58 113 63 194h-50c-7-57 23-157-34-157"/><path id="y" d="M185-48c-13 30-37 53-82 52C43 2 14-33 14-96s30-98 90-98c62 0 83 45 84 108H66c0 31 8 55 39 56 18 0 30-7 34-22l46 4zm-45-69c5-46-57-63-70-21-2 6-4 13-4 21h74"/><path id="z" d="M115-3C79 11 28 4 28-45v-112H4v-33h27l15-45h31v45h36v33H77v99c-1 23 16 31 38 25v30"/><path id="A" d="M123 10C108 53 80 86 19 72V37c35 8 53-11 59-39L3-190h52l48 148c12-52 28-100 44-148h51"/><path id="B" d="M135-194c53 0 70 44 70 98 0 56-19 98-73 100-31 1-45-17-59-34 3 33 2 69 2 105H25l-1-265h48c2 10 0 23 3 31 11-24 29-35 60-35zM114-30c33 0 39-31 40-66 0-38-9-64-40-64-56 0-55 130 0 130"/><path id="C" d="M67-125c0 53 21 87 73 88 37 1 54-22 65-47l45 17C233-25 199 4 140 4 58 4 20-42 15-125 8-235 124-281 211-232c18 10 29 29 36 50l-46 12c-8-25-30-41-62-41-52 0-71 34-72 86"/><path id="D" d="M110-194c64 0 96 36 96 99 0 64-35 99-97 99-61 0-95-36-95-99 0-62 34-99 96-99zm-1 164c35 0 45-28 45-65 0-40-10-65-43-65-34 0-45 26-45 65 0 36 10 65 43 65"/><path id="E" d="M75-106v92l39 5v9H13v-9l28-5v-208l-31-4v-10h177v57h-11l-6-38c-28-4-63-3-95-3v98h69l5-28h11v73h-11l-5-29H75" fill="#3a414a"/><path id="F" d="M32-163c41-10 102-14 102 39v112c8 3 24-2 21 12h-45l-4-17C83 13 3 13 13-46c-2-50 45-50 92-51 4-36-5-70-42-56-6 2-12 4-16 6-4 7 0 23-15 20v-36zM42-47c0 41 41 33 63 22v-59c-34 1-63-1-63 37" fill="#3a414a"/><path id="G" d="M57-145c16-10 35-24 60-25v45c-19 1-8-30-40-17l-20 6v124l29 4v8H7v-8l21-4v-141c-8-3-24 2-21-12h48" fill="#3a414a"/><path id="H" d="M126-118c4-37-42-32-68-25v131l24 4v8H8C5-13 21-9 28-12v-141c-7-3-23 1-20-12h48l1 13c22-15 77-30 92 2 32-22 104-36 104 29v109c8 3 24-2 21 12h-75v-8l25-4v-106c3-39-45-31-72-24 7 37 1 88 3 130l25 4v8h-78v-8l24-4v-106" fill="#3a414a"/><path id="I" d="M319-222 242 5h-10l-61-162L108 5h-9L21-222l-21-4v-10h90v10l-34 4 56 166 63-163h8l61 163 54-166-37-4v-10h78v10" fill="#3a414a"/><path id="J" d="M54-38c-1 25 24 26 44 20v12C71 10 25 9 25-35v-115H4c-2-14 14-10 21-15l18-38h11v38h38v15H54v112" fill="#3a414a"/><path id="K" d="M84-170c49 0 66 33 63 87H46c-8 60 38 80 95 63v10C128-2 108 4 88 4 34 4 14-29 14-84c-1-54 22-86 70-86zm33 73c12-57-57-82-69-24-1 7-2 15-2 24h71" fill="#3a414a"/><path id="L" d="M141-152c28 39 5 97-54 97-9 0-20-2-27-3L49-35c29 22 130-14 124 52-4 45-38 57-88 61C21 83-8 26 45-2 33-6 22-15 21-31l28-31c-19-9-28-26-28-51-2-51 53-65 100-52l38-20 7 8-25 25zM85 64c35 0 61-11 61-42 0-35-57-17-89-21-9 8-16 19-17 34 0 25 19 29 45 29zM52-113c1 26 7 46 35 44 28-1 34-16 35-44 0-26-6-43-34-43s-36 17-36 43" fill="#3a414a"/><path id="M" d="M125-118c4-37-41-34-68-26v132l23 4v8H8C5-13 21-9 28-12v-141c-7-3-23 1-20-12h47l2 13c31-23 98-29 98 31v109c7 3 23-1 20 12h-72v-8l22-4v-106" fill="#3a414a"/><path id="N" d="M52-115c0 93 80 130 150 87l7-35h11l-1 55c-23 7-52 12-83 12C60 4 19-37 15-115c-5-113 97-141 201-114l1 51h-12l-5-30c-15-9-39-16-62-16-66 0-86 41-86 109" fill="#3a414a"/><path id="O" d="M90-170c52 0 76 32 76 87 0 54-24 87-77 87-51 0-75-34-75-87 0-54 24-87 76-87zM89-10c39 0 46-35 46-73 0-39-7-73-46-73-39 1-44 34-44 73s6 72 44 73" fill="#3a414a"/><path id="P" d="M166-85c3 67-44 102-111 85l1 64 29 4v9H6v-9l21-4v-217c-7-3-22 1-19-12h46l1 9c11-8 26-14 45-14 47 2 64 36 66 85zM56-13c53 14 83-14 78-72 7-53-33-79-78-60v132" fill="#3a414a"/><path id="Q" d="M10 0v-9l31-5v-208l-31-4v-10h95v10l-30 4v93h110v-93l-30-4v-10h94v10l-30 4v208l30 5v9h-94v-9l30-5v-99H75v99l30 5v9H10" fill="#3a414a"/><path id="R" d="M164-154 98 4H85L17-153c-7-3-20 0-17-12h77v8l-26 4L99-38l46-115-26-4v-8h61v8" fill="#3a414a"/><path id="S" d="M41-130c7 48 86 23 86 84 0 56-69 57-112 41v-40c20 0 9 29 31 31 35 19 77-26 41-50-27-18-72-13-72-59 0-50 58-52 100-41v36c-19 1-8-25-28-25-21-7-50-1-46 23" fill="#3a414a"/><path id="T" d="M55 0v-9l38-5v-207c-22 1-53 0-70 4l-5 37H7v-56h207v56h-12l-5-37-70-3v206l37 5v9H55" fill="#3a414a"/><path id="U" d="M47-200c-23 0-25-39 0-38 13 0 18 7 20 19-1 11-8 19-20 19zM65-12l28 4v8H8v-8l28-4v-141l-24-4v-8h53v153" fill="#3a414a"/><path id="V" d="M76-208v77h127v40H76V0H24v-248h183v40H76"/><path id="W" d="M25 0v-261h50V0H25"/><path id="X" d="M231 0h-52l-39-155L100 0H48L-1-190h46L77-45c9-52 24-97 36-145h53l37 145 32-145h46"/><path id="Y" d="m65-12 28 4v8H7v-8l28-4v-226l-28-4v-8h58v238" fill="#3a414a"/><path id="Z" d="M240-154 185 4h-14l-41-109L90 4H77L20-153c-7-3-23 1-20-12h79v8l-27 4L91-41l40-108h14l40 109 38-113-28-4v-8h63v8" fill="#3a414a"/><path id="aa" d="m230 0 2-204L168 0h-37L68-204 70 0H24v-248h70l56 185 57-185h69V0h-46"/><path id="ab" d="M133-34C117-15 103 5 69 4 32 3 11-16 11-54c-1-60 55-63 116-61 1-26-3-47-28-47-18 1-26 9-28 27l-52-2c7-38 36-58 82-57s74 22 75 68l1 82c-1 14 12 18 25 15v27c-30 8-71 5-69-32zm-48 3c29 0 43-24 42-57-32 0-66-3-65 30 0 17 8 27 23 27"/><path id="ac" d="M137-138c1-29-70-34-71-4 15 46 118 7 119 86 1 83-164 76-172 9l43-7c4 19 20 25 44 25 33 8 57-30 24-41C81-84 22-81 20-136c-2-80 154-74 161-7"/><path id="ad" d="M24 0v-248h195v40H76v63h132v40H76v65h150V0H24"/><path id="ae" d="m144 0-44-69L55 0H2l70-98-66-92h53l41 62 40-62h54l-67 91 71 99h-54"/><path id="af" d="M85 4C-2 5 27-109 22-190h50c7 57-23 150 33 157 60-5 35-97 40-157h50l1 190h-47c-2-12 1-28-3-38-12 25-28 42-61 42"/><path id="ag" d="M25-224v-37h50v37H25zM25 0v-190h50V0H25"/><path id="ah" d="M135-194c87-1 58 113 63 194h-50c-7-57 23-157-34-157-59 0-34 97-39 157H25l-1-190h47c2 12-1 28 3 38 12-26 28-41 61-42"/><path id="ai" d="M256-236v10l-26 4L135 5h-9L31-222l-27-4v-10h95v10l-31 4 71 174 71-174-31-4v-10h77" fill="#3a414a"/><path id="aj" d="M126-119c3-38-42-31-69-25v132l23 4v8H7v-8l21-4v-226l-24-4v-8h53l-1 98c31-22 99-31 99 31v109c7 3 23-1 20 12h-71v-8l22-4v-107" fill="#3a414a"/><path id="ak" d="M124-13C89 8 26 15 26-45v-108c-8-3-24 2-21-12h50v118c-3 37 42 32 69 25v-131l-25-4v-8h54v153c8 3 24-2 21 12h-48" fill="#3a414a"/><path id="al" d="m60-80 68-73c-7-3-20 0-17-12h58c3 13-13 9-20 12l-47 48 60 93c7 3 21-1 18 12h-68c-3-12 9-9 15-12L82-83 60-60v48c7 3 21-1 18 12H10v-8l21-4v-226l-24-4v-8h53v170" fill="#3a414a"/><path id="am" d="m10-9 31-5v-208l-31-4v-10h177v57h-11l-6-38c-28-4-63-3-95-3v92h63l6-28h11v73h-11l-6-29H75v96l105-3 10-43h12l-3 62H10v-9" fill="#3a414a"/><path id="an" d="M161-154 85 37C75 66 49 86 8 75V39c18-2 6 24 29 21 30-4 38-32 47-58L21-153c-7-3-20 0-17-12h77v8l-26 4 45 116 43-116-26-4v-8h62v8" fill="#3a414a"/><path id="ao" d="m111-226-36 4v207c33-1 73 2 101-4l11-49h11l-3 68H10v-9l31-5v-208l-31-4v-10h101v10" fill="#3a414a"/><path id="ap" d="M45-84c0 64 52 80 104 63 1 25-30 25-55 25-56 0-80-32-80-88 0-76 62-98 131-80v46h-10c-5-15-4-31-23-35-47-10-67 21-67 69" fill="#3a414a"/><path id="aq" d="M152 0h-7L59-203v189l32 5v9H10v-9l31-5v-208l-31-4v-10h72l76 180 84-180h68v10l-31 4v208l31 5v9h-96v-9l32-5v-189" fill="#3a414a"/><path id="ar" d="M13-81c0-71 46-101 114-85l-1-72-28-4v-8h57v238c8 3 24-2 21 12h-47l-2-12C80 23 13-1 13-81zm77-74c-37 1-44 33-45 74 0 38 9 66 45 66 14 0 27-3 36-7v-130c-10-1-24-3-36-3" fill="#3a414a"/><path id="as" d="M75-17c87 13 134-18 134-103 0-78-51-106-134-100v203zm171-102C246 5 139 7 10 0v-9l31-5v-208l-31-4v-10h107c82 0 129 35 129 117" fill="#3a414a"/><path id="at" d="M81-9v9H4v-9l26-5 81-224h33l83 224 30 5v9h-99v-9l31-5-23-68H73L49-14l32 5zm38-203L78-98h82" fill="#3a414a"/><path id="au" d="M220-157c-53 9-28 100-34 157h-49v-107c1-27-5-49-29-50C55-147 81-57 75 0H25l-1-190h47c2 12-1 28 3 38 10-53 101-56 108 0 13-22 24-43 59-42 82 1 51 116 57 194h-49v-107c-1-25-5-48-29-50"/><path id="av" d="M275 0h-61l-44-196L126 0H64L0-248h53L97-49l45-199h58l43 199 44-199h52"/><path id="aw" d="M195-6C206 82 75 100 31 46c-4-6-6-13-8-21l49-6c3 16 16 24 34 25 40 0 42-37 40-79-11 22-30 35-61 35-53 0-70-43-70-97 0-56 18-96 73-97 30 0 46 14 59 34l2-30h47L195-6zm-90-29c32 0 41-27 41-63 0-35-9-62-40-62-32 0-39 29-40 63 0 36 9 62 39 62"/><path id="ax" d="M147 0H94L2-248h55l64 206c17-72 42-137 63-206h54"/><path id="ay" d="M199-173c-1 36-21 56-49 65l64 94 26 5v9h-57l-66-103H75v89l35 5v9H13v-9l28-5v-208l-31-4v-10c80 4 190-20 189 63zM75-119c50 2 89-1 89-51 0-49-39-52-89-50v101" fill="#3a414a"/><path id="az" d="M13-82c-2-68 46-101 114-84 8-3 15-8 28-7V64l18 4v9h-70v-9l23-4c1-25-2-53 2-75-11 8-27 15-47 15-49-1-66-35-68-86zm113-70c-53-13-86 12-81 70-6 54 34 80 81 61v-131" fill="#3a414a"/><path id="aA" d="M50-37c14 0 21 9 21 21S62 5 50 5C37 5 28-4 28-16s8-21 22-21zm0-132c12 0 21 9 21 21 0 13-9 22-21 22-13 0-22-9-22-22 0-12 9-21 22-21" fill="#3a414a"/><g id="a"><use xlink:href="#u" transform="scale(.06235)"/><use xlink:href="#v" transform="matrix(.06235 0 0 .06235 16.148 0)"/><use xlink:href="#w" transform="matrix(.06235 0 0 .06235 24.876 0)"/><use xlink:href="#x" transform="matrix(.06235 0 0 .06235 37.345 0)"/><use xlink:href="#y" transform="matrix(.06235 0 0 .06235 50.999 0)"/><use xlink:href="#z" transform="matrix(.06235 0 0 .06235 63.468 0)"/><use xlink:href="#A" transform="matrix(.06235 0 0 .06235 70.887 0)"/><use xlink:href="#B" transform="matrix(.06235 0 0 .06235 83.356 0)"/><use xlink:href="#y" transform="matrix(.06235 0 0 .06235 97.01 0)"/><use xlink:href="#C" transform="matrix(.06235 0 0 .06235 109.479 0)"/><use xlink:href="#v" transform="matrix(.06235 0 0 .06235 125.627 0)"/><use xlink:href="#D" transform="matrix(.06235 0 0 .06235 134.355 0)"/><use xlink:href="#B" transform="matrix(.06235 0 0 .06235 148.009 0)"/></g><g id="b"><use xlink:href="#E" transform="rotate(.413) scale(.06173)"/><use xlink:href="#E" transform="matrix(.06173 0 0 .06173 12.346 0)"/><use xlink:href="#F" transform="matrix(.06173 0 0 .06173 24.691 0)"/><use xlink:href="#G" transform="matrix(.06173 0 0 .06173 34.506 0)"/><use xlink:href="#H" transform="matrix(.06173 0 0 .06173 41.852 0)"/><use xlink:href="#I" transform="matrix(.06173 0 0 .06173 59.136 0)"/><use xlink:href="#F" transform="matrix(.06173 0 0 .06173 78.272 0)"/><use xlink:href="#J" transform="matrix(.06173 0 0 .06173 88.086 0)"/><use xlink:href="#K" transform="matrix(.06173 0 0 .06173 94.26 0)"/><use xlink:href="#G" transform="matrix(.06173 0 0 .06173 104.074 0)"/><use xlink:href="#E" transform="matrix(.06173 0 0 .06173 111.42 0)"/><use xlink:href="#G" transform="matrix(.06173 0 0 .06173 123.765 0)"/><use xlink:href="#F" transform="matrix(.06173 0 0 .06173 131.111 0)"/><use xlink:href="#L" transform="matrix(.06173 0 0 .06173 140.926 0)"/><use xlink:href="#H" transform="matrix(.06173 0 0 .06173 152.037 0)"/><use xlink:href="#K" transform="matrix(.06173 0 0 .06173 169.321 0)"/><use xlink:href="#M" transform="matrix(.06173 0 0 .06173 179.136 0)"/><use xlink:href="#J" transform="matrix(.06173 0 0 .06173 190.247 0)"/></g><g id="c"><use xlink:href="#E" transform="rotate(.413) scale(.06173)"/><use xlink:href="#E" transform="matrix(.06173 0 0 .06173 12.346 0)"/><use xlink:href="#F" transform="matrix(.06173 0 0 .06173 24.691 0)"/><use xlink:href="#G" transform="matrix(.06173 0 0 .06173 34.506 0)"/><use xlink:href="#H" transform="matrix(.06173 0 0 .06173 41.852 0)"/><use xlink:href="#N" transform="matrix(.06173 0 0 .06173 59.136 0)"/><use xlink:href="#G" transform="matrix(.06173 0 0 .06173 73.95 0)"/><use xlink:href="#O" transform="matrix(.06173 0 0 .06173 81.296 0)"/><use xlink:href="#P" transform="matrix(.06173 0 0 .06173 92.407 0)"/><use xlink:href="#E" transform="matrix(.06173 0 0 .06173 103.519 0)"/><use xlink:href="#G" transform="matrix(.06173 0 0 .06173 115.864 0)"/><use xlink:href="#F" transform="matrix(.06173 0 0 .06173 123.21 0)"/><use xlink:href="#L" transform="matrix(.06173 0 0 .06173 133.025 0)"/><use xlink:href="#H" transform="matrix(.06173 0 0 .06173 144.136 0)"/><use xlink:href="#K" transform="matrix(.06173 0 0 .06173 161.42 0)"/><use xlink:href="#M" transform="matrix(.06173 0 0 .06173 171.235 0)"/><use xlink:href="#J" transform="matrix(.06173 0 0 .06173 182.346 0)"/></g><g id="d"><use xlink:href="#E" transform="rotate(.413) scale(.06173)"/><use xlink:href="#Q" transform="matrix(.06173 0 0 .06173 12.346 0)"/><use xlink:href="#F" transform="matrix(.06173 0 0 .06173 28.333 0)"/><use xlink:href="#G" transform="matrix(.06173 0 0 .06173 38.148 0)"/><use xlink:href="#R" transform="matrix(.06173 0 0 .06173 45.494 0)"/><use xlink:href="#K" transform="matrix(.06173 0 0 .06173 56.605 0)"/><use xlink:href="#S" transform="matrix(.06173 0 0 .06173 66.42 0)"/><use xlink:href="#J" transform="matrix(.06173 0 0 .06173 75.062 0)"/><use xlink:href="#T" transform="matrix(.06173 0 0 .06173 81.235 0)"/><use xlink:href="#U" transform="matrix(.06173 0 0 .06173 93.95 0)"/><use xlink:href="#H" transform="matrix(.06173 0 0 .06173 100.123 0)"/><use xlink:href="#K" transform="matrix(.06173 0 0 .06173 117.407 0)"/><use xlink:href="#G" transform="matrix(.06173 0 0 .06173 127.222 0)"/><use xlink:href="#E" transform="matrix(.06173 0 0 .06173 134.568 0)"/><use xlink:href="#G" transform="matrix(.06173 0 0 .06173 146.914 0)"/><use xlink:href="#F" transform="matrix(.06173 0 0 .06173 154.26 0)"/><use xlink:href="#L" transform="matrix(.06173 0 0 .06173 164.074 0)"/><use xlink:href="#H" transform="matrix(.06173 0 0 .06173 175.185 0)"/><use xlink:href="#K" transform="matrix(.06173 0 0 .06173 192.47 0)"/><use xlink:href="#M" transform="matrix(.06173 0 0 .06173 202.284 0)"/><use xlink:href="#J" transform="matrix(.06173 0 0 .06173 213.395 0)"/></g><g id="e"><use xlink:href="#u" transform="scale(.06235)"/><use xlink:href="#v" transform="matrix(.06235 0 0 .06235 16.148 0)"/><use xlink:href="#w" transform="matrix(.06235 0 0 .06235 24.876 0)"/><use xlink:href="#x" transform="matrix(.06235 0 0 .06235 37.345 0)"/><use xlink:href="#y" transform="matrix(.06235 0 0 .06235 50.999 0)"/><use xlink:href="#z" transform="matrix(.06235 0 0 .06235 63.468 0)"/><use xlink:href="#A" transform="matrix(.06235 0 0 .06235 70.887 0)"/><use xlink:href="#B" transform="matrix(.06235 0 0 .06235 83.356 0)"/><use xlink:href="#y" transform="matrix(.06235 0 0 .06235 97.01 0)"/><use xlink:href="#V" transform="matrix(.06235 0 0 .06235 109.479 0)"/><use xlink:href="#W" transform="matrix(.06235 0 0 .06235 123.133 0)"/><use xlink:href="#D" transform="matrix(.06235 0 0 .06235 129.367 0)"/><use xlink:href="#X" transform="matrix(.06235 0 0 .06235 143.021 0)"/><use xlink:href="#y" transform="matrix(.06235 0 0 .06235 160.478 0)"/><use xlink:href="#v" transform="matrix(.06235 0 0 .06235 172.947 0)"/></g><g id="f"><use xlink:href="#E" transform="rotate(.413) scale(.06173)"/><use xlink:href="#E" transform="matrix(.06173 0 0 .06173 12.346 0)"/><use xlink:href="#F" transform="matrix(.06173 0 0 .06173 24.691 0)"/><use xlink:href="#G" transform="matrix(.06173 0 0 .06173 34.506 0)"/><use xlink:href="#H" transform="matrix(.06173 0 0 .06173 41.852 0)"/><use xlink:href="#E" transform="matrix(.06173 0 0 .06173 59.136 0)"/><use xlink:href="#Y" transform="matrix(.06173 0 0 .06173 71.481 0)"/><use xlink:href="#O" transform="matrix(.06173 0 0 .06173 77.654 0)"/><use xlink:href="#Z" transform="matrix(.06173 0 0 .06173 88.765 0)"/><use xlink:href="#K" transform="matrix(.06173 0 0 .06173 104.753 0)"/><use xlink:href="#G" transform="matrix(.06173 0 0 .06173 114.568 0)"/><use xlink:href="#E" transform="matrix(.06173 0 0 .06173 121.914 0)"/><use xlink:href="#G" transform="matrix(.06173 0 0 .06173 134.26 0)"/><use xlink:href="#F" transform="matrix(.06173 0 0 .06173 141.605 0)"/><use xlink:href="#L" transform="matrix(.06173 0 0 .06173 151.42 0)"/><use xlink:href="#H" transform="matrix(.06173 0 0 .06173 162.53 0)"/><use xlink:href="#K" transform="matrix(.06173 0 0 .06173 179.815 0)"/><use xlink:href="#M" transform="matrix(.06173 0 0 .06173 189.63 0)"/><use xlink:href="#J" transform="matrix(.06173 0 0 .06173 200.74 0)"/></g><g id="g"><use xlink:href="#V" transform="scale(.06235)"/><use xlink:href="#aa" transform="matrix(.06235 0 0 .06235 13.654 0)"/><use xlink:href="#ab" transform="matrix(.06235 0 0 .06235 32.295 0)"/><use xlink:href="#ac" transform="matrix(.06235 0 0 .06235 44.764 0)"/><use xlink:href="#ac" transform="matrix(.06235 0 0 .06235 57.233 0)"/><use xlink:href="#ad" transform="matrix(.06235 0 0 .06235 69.702 0)"/><use xlink:href="#ae" transform="matrix(.06235 0 0 .06235 84.665 0)"/><use xlink:href="#y" transform="matrix(.06235 0 0 .06235 97.135 0)"/><use xlink:href="#w" transform="matrix(.06235 0 0 .06235 109.604 0)"/><use xlink:href="#af" transform="matrix(.06235 0 0 .06235 122.073 0)"/><use xlink:href="#z" transform="matrix(.06235 0 0 .06235 135.727 0)"/><use xlink:href="#ag" transform="matrix(.06235 0 0 .06235 143.146 0)"/><use xlink:href="#D" transform="matrix(.06235 0 0 .06235 149.38 0)"/><use xlink:href="#ah" transform="matrix(.06235 0 0 .06235 163.034 0)"/><use xlink:href="#C" transform="matrix(.06235 0 0 .06235 176.688 0)"/><use xlink:href="#D" transform="matrix(.06235 0 0 .06235 192.835 0)"/><use xlink:href="#ah" transform="matrix(.06235 0 0 .06235 206.489 0)"/><use xlink:href="#z" transform="matrix(.06235 0 0 .06235 220.143 0)"/><use xlink:href="#y" transform="matrix(.06235 0 0 .06235 227.562 0)"/><use xlink:href="#ae" transform="matrix(.06235 0 0 .06235 240.03 0)"/><use xlink:href="#z" transform="matrix(.06235 0 0 .06235 252.5 0)"/></g><g id="h"><use xlink:href="#E" transform="rotate(.413) scale(.06173)"/><use xlink:href="#G" transform="matrix(.06173 0 0 .06173 12.346 0)"/><use xlink:href="#F" transform="matrix(.06173 0 0 .06173 19.691 0)"/><use xlink:href="#L" transform="matrix(.06173 0 0 .06173 29.506 0)"/><use xlink:href="#H" transform="matrix(.06173 0 0 .06173 40.617 0)"/><use xlink:href="#K" transform="matrix(.06173 0 0 .06173 57.901 0)"/><use xlink:href="#M" transform="matrix(.06173 0 0 .06173 67.716 0)"/><use xlink:href="#J" transform="matrix(.06173 0 0 .06173 78.827 0)"/><use xlink:href="#ai" transform="matrix(.06173 0 0 .06173 85 0)"/><use xlink:href="#U" transform="matrix(.06173 0 0 .06173 99.63 0)"/><use xlink:href="#K" transform="matrix(.06173 0 0 .06173 105.802 0)"/><use xlink:href="#Z" transform="matrix(.06173 0 0 .06173 115.617 0)"/><use xlink:href="#S" transform="matrix(.06173 0 0 .06173 131.605 0)"/></g><g id="i"><use xlink:href="#N" transform="rotate(.413) scale(.06173)"/><use xlink:href="#aj" transform="matrix(.06173 0 0 .06173 14.815 0)"/><use xlink:href="#ak" transform="matrix(.06173 0 0 .06173 25.926 0)"/><use xlink:href="#M" transform="matrix(.06173 0 0 .06173 37.037 0)"/><use xlink:href="#al" transform="matrix(.06173 0 0 .06173 48.148 0)"/><use xlink:href="#E" transform="matrix(.06173 0 0 .06173 59.26 0)"/><use xlink:href="#G" transform="matrix(.06173 0 0 .06173 71.605 0)"/><use xlink:href="#F" transform="matrix(.06173 0 0 .06173 78.95 0)"/><use xlink:href="#L" transform="matrix(.06173 0 0 .06173 88.765 0)"/><use xlink:href="#H" transform="matrix(.06173 0 0 .06173 99.877 0)"/><use xlink:href="#K" transform="matrix(.06173 0 0 .06173 117.16 0)"/><use xlink:href="#M" transform="matrix(.06173 0 0 .06173 126.975 0)"/><use xlink:href="#J" transform="matrix(.06173 0 0 .06173 138.086 0)"/><use xlink:href="#ai" transform="matrix(.06173 0 0 .06173 144.26 0)"/><use xlink:href="#U" transform="matrix(.06173 0 0 .06173 158.889 0)"/><use xlink:href="#K" transform="matrix(.06173 0 0 .06173 165.062 0)"/><use xlink:href="#Z" transform="matrix(.06173 0 0 .06173 174.877 0)"/><use xlink:href="#S" transform="matrix(.06173 0 0 .06173 190.864 0)"/></g><g id="j"><use xlink:href="#am" transform="rotate(.413) scale(.06173)"/><use xlink:href="#M" transform="matrix(.06173 0 0 .06173 13.519 0)"/><use xlink:href="#J" transform="matrix(.06173 0 0 .06173 24.63 0)"/><use xlink:href="#U" transform="matrix(.06173 0 0 .06173 30.802 0)"/><use xlink:href="#J" transform="matrix(.06173 0 0 .06173 36.975 0)"/><use xlink:href="#an" transform="matrix(.06173 0 0 .06173 43.148 0)"/><use xlink:href="#ao" transform="matrix(.06173 0 0 .06173 54.26 0)"/><use xlink:href="#U" transform="matrix(.06173 0 0 .06173 67.778 0)"/><use xlink:href="#S" transform="matrix(.06173 0 0 .06173 73.95 0)"/><use xlink:href="#J" transform="matrix(.06173 0 0 .06173 82.593 0)"/><use xlink:href="#ai" transform="matrix(.06173 0 0 .06173 88.765 0)"/><use xlink:href="#U" transform="matrix(.06173 0 0 .06173 103.395 0)"/><use xlink:href="#K" transform="matrix(.06173 0 0 .06173 109.568 0)"/><use xlink:href="#Z" transform="matrix(.06173 0 0 .06173 119.383 0)"/></g><g id="k"><use xlink:href="#ap" transform="rotate(.413) scale(.06173)"/><use xlink:href="#aj" transform="matrix(.06173 0 0 .06173 9.815 0)"/><use xlink:href="#ak" transform="matrix(.06173 0 0 .06173 20.926 0)"/><use xlink:href="#M" transform="matrix(.06173 0 0 .06173 32.037 0)"/><use xlink:href="#al" transform="matrix(.06173 0 0 .06173 43.148 0)"/></g><g id="l"><use xlink:href="#E" transform="rotate(.413) scale(.06173)"/><use xlink:href="#aq" transform="matrix(.06173 0 0 .06173 12.346 0)"/><use xlink:href="#F" transform="matrix(.06173 0 0 .06173 32.099 0)"/><use xlink:href="#S" transform="matrix(.06173 0 0 .06173 41.914 0)"/><use xlink:href="#S" transform="matrix(.06173 0 0 .06173 50.556 0)"/><use xlink:href="#am" transform="matrix(.06173 0 0 .06173 59.198 0)"/><use xlink:href="#M" transform="matrix(.06173 0 0 .06173 72.716 0)"/><use xlink:href="#J" transform="matrix(.06173 0 0 .06173 83.827 0)"/><use xlink:href="#U" transform="matrix(.06173 0 0 .06173 90 0)"/><use xlink:href="#J" transform="matrix(.06173 0 0 .06173 96.173 0)"/><use xlink:href="#an" transform="matrix(.06173 0 0 .06173 102.346 0)"/><use xlink:href="#Q" transform="matrix(.06173 0 0 .06173 113.457 0)"/><use xlink:href="#F" transform="matrix(.06173 0 0 .06173 129.444 0)"/><use xlink:href="#M" transform="matrix(.06173 0 0 .06173 139.26 0)"/><use xlink:href="#ar" transform="matrix(.06173 0 0 .06173 150.37 0)"/><use xlink:href="#Y" transform="matrix(.06173 0 0 .06173 161.481 0)"/><use xlink:href="#K" transform="matrix(.06173 0 0 .06173 167.654 0)"/></g><g id="m"><use xlink:href="#as" transform="rotate(.413) scale(.06173)"/><use xlink:href="#F" transform="matrix(.06173 0 0 .06173 15.988 0)"/><use xlink:href="#J" transform="matrix(.06173 0 0 .06173 25.802 0)"/><use xlink:href="#F" transform="matrix(.06173 0 0 .06173 31.975 0)"/></g><g id="n"><use xlink:href="#at" transform="rotate(.413) scale(.06173)"/><use xlink:href="#G" transform="matrix(.06173 0 0 .06173 15.988 0)"/><use xlink:href="#G" transform="matrix(.06173 0 0 .06173 23.333 0)"/><use xlink:href="#F" transform="matrix(.06173 0 0 .06173 30.679 0)"/><use xlink:href="#an" transform="matrix(.06173 0 0 .06173 40.494 0)"/></g><g id="o"><use xlink:href="#V" transform="scale(.06235)"/><use xlink:href="#ab" transform="matrix(.06235 0 0 .06235 13.654 0)"/><use xlink:href="#v" transform="matrix(.06235 0 0 .06235 26.123 0)"/><use xlink:href="#au" transform="matrix(.06235 0 0 .06235 34.851 0)"/><use xlink:href="#av" transform="matrix(.06235 0 0 .06235 54.802 0)"/><use xlink:href="#ab" transform="matrix(.06235 0 0 .06235 75.127 0)"/><use xlink:href="#z" transform="matrix(.06235 0 0 .06235 87.596 0)"/><use xlink:href="#y" transform="matrix(.06235 0 0 .06235 95.015 0)"/><use xlink:href="#v" transform="matrix(.06235 0 0 .06235 107.484 0)"/><use xlink:href="#V" transform="matrix(.06235 0 0 .06235 116.212 0)"/><use xlink:href="#v" transform="matrix(.06235 0 0 .06235 129.866 0)"/><use xlink:href="#ab" transform="matrix(.06235 0 0 .06235 138.594 0)"/><use xlink:href="#aw" transform="matrix(.06235 0 0 .06235 151.064 0)"/><use xlink:href="#ax" transform="matrix(.06235 0 0 .06235 164.717 0)"/><use xlink:href="#ag" transform="matrix(.06235 0 0 .06235 179.244 0)"/><use xlink:href="#y" transform="matrix(.06235 0 0 .06235 185.478 0)"/><use xlink:href="#X" transform="matrix(.06235 0 0 .06235 197.948 0)"/></g><g id="p"><use xlink:href="#ay" transform="rotate(.413) scale(.06173)"/><use xlink:href="#K" transform="matrix(.06173 0 0 .06173 14.815 0)"/><use xlink:href="#az" transform="matrix(.06173 0 0 .06173 24.63 0)"/><use xlink:href="#ak" transform="matrix(.06173 0 0 .06173 35.74 0)"/><use xlink:href="#U" transform="matrix(.06173 0 0 .06173 46.852 0)"/><use xlink:href="#G" transform="matrix(.06173 0 0 .06173 53.025 0)"/><use xlink:href="#K" transform="matrix(.06173 0 0 .06173 60.37 0)"/><use xlink:href="#H" transform="matrix(.06173 0 0 .06173 70.185 0)"/><use xlink:href="#K" transform="matrix(.06173 0 0 .06173 87.47 0)"/><use xlink:href="#M" transform="matrix(.06173 0 0 .06173 97.284 0)"/><use xlink:href="#J" transform="matrix(.06173 0 0 .06173 108.395 0)"/><use xlink:href="#aA" transform="matrix(.06173 0 0 .06173 114.568 0)"/></g><g id="q"><use xlink:href="#E" transform="rotate(.413) scale(.06173)"/><use xlink:href="#E" transform="matrix(.06173 0 0 .06173 12.346 0)"/><use xlink:href="#F" transform="matrix(.06173 0 0 .06173 24.691 0)"/><use xlink:href="#G" transform="matrix(.06173 0 0 .06173 34.506 0)"/><use xlink:href="#H" transform="matrix(.06173 0 0 .06173 41.852 0)"/><use xlink:href="#I" transform="matrix(.06173 0 0 .06173 59.136 0)"/><use xlink:href="#F" transform="matrix(.06173 0 0 .06173 78.272 0)"/><use xlink:href="#J" transform="matrix(.06173 0 0 .06173 88.086 0)"/><use xlink:href="#K" transform="matrix(.06173 0 0 .06173 94.26 0)"/><use xlink:href="#G" transform="matrix(.06173 0 0 .06173 104.074 0)"/><use xlink:href="#E" transform="matrix(.06173 0 0 .06173 111.42 0)"/><use xlink:href="#G" transform="matrix(.06173 0 0 .06173 123.765 0)"/><use xlink:href="#F" transform="matrix(.06173 0 0 .06173 131.111 0)"/><use xlink:href="#L" transform="matrix(.06173 0 0 .06173 140.926 0)"/><use xlink:href="#H" transform="matrix(.06173 0 0 .06173 152.037 0)"/><use xlink:href="#K" transform="matrix(.06173 0 0 .06173 169.321 0)"/><use xlink:href="#M" transform="matrix(.06173 0 0 .06173 179.136 0)"/><use xlink:href="#J" transform="matrix(.06173 0 0 .06173 190.247 0)"/></g><g id="r"><use xlink:href="#E" transform="rotate(.413) scale(.06173)"/><use xlink:href="#G" transform="matrix(.06173 0 0 .06173 12.346 0)"/><use xlink:href="#F" transform="matrix(.06173 0 0 .06173 19.691 0)"/><use xlink:href="#L" transform="matrix(.06173 0 0 .06173 29.506 0)"/><use xlink:href="#H" transform="matrix(.06173 0 0 .06173 40.617 0)"/><use xlink:href="#K" transform="matrix(.06173 0 0 .06173 57.901 0)"/><use xlink:href="#M" transform="matrix(.06173 0 0 .06173 67.716 0)"/><use xlink:href="#J" transform="matrix(.06173 0 0 .06173 78.827 0)"/><use xlink:href="#ai" transform="matrix(.06173 0 0 .06173 85 0)"/><use xlink:href="#U" transform="matrix(.06173 0 0 .06173 99.63 0)"/><use xlink:href="#K" transform="matrix(.06173 0 0 .06173 105.802 0)"/><use xlink:href="#Z" transform="matrix(.06173 0 0 .06173 115.617 0)"/></g><g id="s"><use xlink:href="#E" transform="rotate(.413) scale(.06173)"/><use xlink:href="#G" transform="matrix(.06173 0 0 .06173 12.346 0)"/><use xlink:href="#F" transform="matrix(.06173 0 0 .06173 19.691 0)"/><use xlink:href="#L" transform="matrix(.06173 0 0 .06173 29.506 0)"/><use xlink:href="#H" transform="matrix(.06173 0 0 .06173 40.617 0)"/><use xlink:href="#K" transform="matrix(.06173 0 0 .06173 57.901 0)"/><use xlink:href="#M" transform="matrix(.06173 0 0 .06173 67.716 0)"/><use xlink:href="#J" transform="matrix(.06173 0 0 .06173 78.827 0)"/></g><g id="t"><use xlink:href="#ap" transform="rotate(.413) scale(.06173)"/><use xlink:href="#aj" transform="matrix(.06173 0 0 .06173 9.815 0)"/><use xlink:href="#ak" transform="matrix(.06173 0 0 .06173 20.926 0)"/><use xlink:href="#M" transform="matrix(.06173 0 0 .06173 32.037 0)"/><use xlink:href="#al" transform="matrix(.06173 0 0 .06173 43.148 0)"/></g></defs></svg>