<svg width="1845" height="1050" xmlns="http://www.w3.org/2000/svg" xmlns:xlink="http://www.w3.org/1999/xlink"><path stroke="#3a414a" fill="#e8e8e8" d="M-89 0h1953v1161H-89z"/><path fill="#fff" stroke="#3a414a" d="M594 342.07a6 6 0 0 1 6-6h408a6 6 0 0 1 6 6V540.7a6 6 0 0 1-6 6H600a6 6 0 0 1-6-6V342.07z"/><use x="-26" y="-148" transform="translate(632 513.851)" xlink:href="#a"/><path fill="#fff" stroke="#3a414a" d="M614 400.7a6 6 0 0 1 6-6h248a6 6 0 0 1 6 6v118a6 6 0 0 1-6 6H620a6 6 0 0 1-6-6v-118z"/><path fill="none" stroke="#3a414a" d="M614 437.64h260"/><use x="-26" y="-148" transform="translate(707.841 568.697)" xlink:href="#b"/><path fill="none" d="M614 440.7a6 6 0 0 1 6-6h191.48a6 6 0 0 1 6 6V479a6 6 0 0 1-6 6H620a6 6 0 0 1-6-6v-38.3z"/><use x="-26" y="-148" transform="translate(645 613.174)" xlink:href="#c"/><use x="-26" y="-148" transform="translate(650.556 613.174)" xlink:href="#c"/><use x="-26" y="-148" transform="translate(668.642 613.174)" xlink:href="#d"/><path fill="none" d="M614 480.7a6 6 0 0 1 6-6h191.48a6 6 0 0 1 6 6V519a6 6 0 0 1-6 6H620a6 6 0 0 1-6-6v-38.3z"/><use x="-26" y="-148" transform="translate(645 653.174)" xlink:href="#c"/><use x="-26" y="-148" transform="translate(650.556 653.174)" xlink:href="#c"/><use x="-26" y="-148" transform="translate(668.642 653.174)" xlink:href="#e"/><path fill="#fff" stroke="#3a414a" d="M894 400.7a6 6 0 0 1 6-6h68a6 6 0 0 1 6 6V519a6 6 0 0 1-6 6h-68a6 6 0 0 1-6-6V400.7z"/><use x="-26" y="-148" transform="translate(932.875 613.705)" xlink:href="#f"/><path fill="#fff" stroke="#3a414a" d="M874 38a6 6 0 0 1 6-6h268a6 6 0 0 1 6 6v243a6 6 0 0 1-6 6H880a6 6 0 0 1-6-6V38z"/><path fill="none" stroke="#3a414a" d="M874 74.93h280"/><use x="-26" y="-148" transform="translate(926.157 205.989)" xlink:href="#g"/><path fill="none" d="M874 81.74a6 6 0 0 1 6-6h248a6 6 0 0 1 6 6v34.24a6 6 0 0 1-6 6H880a6 6 0 0 1-6-6V81.74z"/><use x="-26" y="-148" transform="translate(905 251.14)" xlink:href="#c"/><use x="-26" y="-148" transform="translate(910.556 251.14)" xlink:href="#c"/><use x="-26" y="-148" transform="translate(928.642 251.14)" xlink:href="#h"/><path fill="none" d="M874 121.74a6 6 0 0 1 6-6h108a6 6 0 0 1 6 6v34.24a6 6 0 0 1-6 6H880a6 6 0 0 1-6-6v-34.24z"/><use x="-26" y="-148" transform="translate(905 291.14)" xlink:href="#c"/><use x="-26" y="-148" transform="translate(910.556 291.14)" xlink:href="#c"/><use x="-26" y="-148" transform="translate(928.642 291.14)" xlink:href="#i"/><path fill="none" d="M875.54 161.74a6 6 0 0 1 6-6h248a6 6 0 0 1 6 6v34.24a6 6 0 0 1-6 6h-248a6 6 0 0 1-6-6v-34.24z"/><use x="-26" y="-148" transform="translate(906.542 331.14)" xlink:href="#c"/><use x="-26" y="-148" transform="translate(912.098 331.14)" xlink:href="#c"/><use x="-26" y="-148" transform="translate(930.184 331.14)" xlink:href="#j"/><path fill="none" d="M874 201.74a6 6 0 0 1 6-6h248a6 6 0 0 1 6 6v34.24a6 6 0 0 1-6 6H880a6 6 0 0 1-6-6v-34.24z"/><use x="-26" y="-148" transform="translate(905 371.14)" xlink:href="#c"/><use x="-26" y="-148" transform="translate(910.556 371.14)" xlink:href="#c"/><use x="-26" y="-148" transform="translate(928.642 371.14)" xlink:href="#k"/><path fill="none" d="M874 241.74a6 6 0 0 1 6-6h248a6 6 0 0 1 6 6v34.24a6 6 0 0 1-6 6H880a6 6 0 0 1-6-6v-34.24z"/><use x="-26" y="-148" transform="translate(905 411.14)" xlink:href="#c"/><use x="-26" y="-148" transform="translate(910.556 411.14)" xlink:href="#c"/><use x="-26" y="-148" transform="translate(928.642 411.14)" xlink:href="#l"/><path fill="#fff" stroke="#3a414a" d="M34 44.07a6 6 0 0 1 6-6h448a6 6 0 0 1 6 6v108a6 6 0 0 1-6 6H40a6 6 0 0 1-6-6v-108z"/><path fill="none" stroke="#3a414a" d="M34 81h460"/><use x="-26" y="-148" transform="translate(163.095 212.062)" xlink:href="#m"/><use x="-26" y="-148" transform="translate(72 271.951)" xlink:href="#n"/><use x="-26" y="-148" transform="translate(90.086 271.951)" xlink:href="#o"/><use x="-26" y="-148" transform="translate(402.37 271.951)" xlink:href="#p"/><path fill="#fff" stroke="#3a414a" d="M34 196.07a6 6 0 0 1 6-6h448a6 6 0 0 1 6 6v134a6 6 0 0 1-6 6H40a6 6 0 0 1-6-6v-134z"/><path fill="none" stroke="#3a414a" d="M34 233h460"/><use x="-26" y="-148" transform="translate(186.756 364.062)" xlink:href="#q"/><use x="-26" y="-148" transform="translate(72 424.117)" xlink:href="#r"/><use x="-26" y="-148" transform="translate(90.086 424.117)" xlink:href="#s"/><use x="-26" y="-148" transform="translate(141.321 424.117)" xlink:href="#t"/><use x="-26" y="-148" transform="translate(72 450.784)" xlink:href="#r"/><use x="-26" y="-148" transform="translate(90.086 450.784)" xlink:href="#s"/><use x="-26" y="-148" transform="translate(141.321 450.784)" xlink:href="#u"/><path fill="#fff" stroke="#3a414a" d="M1234 44.07a6 6 0 0 1 6-6h448a6 6 0 0 1 6 6v160a6 6 0 0 1-6 6h-448a6 6 0 0 1-6-6v-160z"/><path fill="none" stroke="#3a414a" d="M1234 81h460"/><use x="-26" y="-148" transform="translate(1276.06 212.062)" xlink:href="#v"/><use x="-26" y="-148" transform="translate(1272 257.951)" xlink:href="#r"/><use x="-26" y="-148" transform="translate(1290.09 257.951)" xlink:href="#w"/><use x="-26" y="-148" transform="translate(1272 284.617)" xlink:href="#r"/><use x="-26" y="-148" transform="translate(1290.09 284.617)" xlink:href="#x"/><use x="-26" y="-148" transform="translate(1272 311.284)" xlink:href="#r"/><use x="-26" y="-148" transform="translate(1290.09 311.284)" xlink:href="#y"/><use x="-26" y="-148" transform="translate(1272 337.951)" xlink:href="#r"/><use x="-26" y="-148" transform="translate(1290.09 337.951)" xlink:href="#z"/><path fill="none" stroke="#3a414a" d="M1134.5 98.86h82.62"/><path fill="#3a414a" stroke-width=".05" stroke="#3a414a" d="M1134.5 99.36h-.5v-1h.5v1z"/><path fill="#3a414a" stroke="#3a414a" d="m1231.88 98.86-14.26 4.64v-9.28l14.26 4.64z"/><path fill="#fff" stroke="#3a414a" d="M1234 244.07a6 6 0 0 1 6-6h508a6 6 0 0 1 6 6V446a6 6 0 0 1-6 6h-508a6 6 0 0 1-6-6V244.07z"/><use x="-26" y="-148" transform="translate(1758.33 498.101)" xlink:href="#A"/><path fill="none" stroke="#cc4e00" d="M494.5 112.07h362.62m-362.62 0h-.5"/><path fill="#cc4e00" stroke="#cc4e00" d="m871.88 112.07-14.26 4.64v-9.26l14.26 4.62z"/><path fill="none" stroke="#cc4e00" d="M495 263.07h33a6 6 0 0 1 6 6V453.7a6 6 0 0 0 6 6h57.12"/><path fill="#cc4e00" stroke-width=".05" stroke="#cc4e00" d="M495 263.57h-.5v-1h.5v1z"/><path fill="#cc4e00" stroke="#cc4e00" d="m611.88 459.7-14.26 4.64v-9.27l14.26 4.63z"/><path fill="#fff" stroke="#3a414a" d="M1574 264.07a6 6 0 0 1 6-6h128a6 6 0 0 1 6 6V428.7a6 6 0 0 1-6 6h-128a6 6 0 0 1-6-6V264.07z"/><use x="-26" y="-148" transform="translate(1642.87 435.851)" xlink:href="#B"/><path fill="#fff" stroke="#3a414a" d="M34 568a6 6 0 0 1 6-6h448a6 6 0 0 1 6 6v206a6 6 0 0 1-6 6H40a6 6 0 0 1-6-6V568z"/><path fill="none" stroke="#3a414a" d="M34 604.93h460"/><use x="-26" y="-148" transform="translate(178.027 735.989)" xlink:href="#C"/><path fill="none" stroke="#3a414a" d="M817.98 459.85H838a6 6 0 0 0 6-6V147.08a6 6 0 0 1 6-6h7.12"/><path fill="#3a414a" stroke-width=".05" stroke="#3a414a" d="M818 460.35h-.52v-1h.5l.02 1z"/><path fill="#3a414a" stroke="#3a414a" d="m871.88 141.08-14.26 4.63v-9.26l14.26 4.63z"/><path fill="none" d="M34 610a6 6 0 0 1 6-6h248a6 6 0 0 1 6 6v28a6 6 0 0 1-6 6H40a6 6 0 0 1-6-6v-28z"/><use x="-26" y="-148" transform="translate(65 776.715)" xlink:href="#c"/><use x="-26" y="-148" transform="translate(70.556 776.715)" xlink:href="#c"/><use x="-26" y="-148" transform="translate(88.642 776.715)" xlink:href="#D"/><path fill="none" stroke="#3a414a" d="M294.5 624H528a6 6 0 0 0 6-6V485.2a6 6 0 0 1 6-6h37.12"/><path fill="#3a414a" stroke-width=".05" stroke="#3a414a" d="M294.5 624.5h-.5v-1h.5v1z"/><path fill="#3a414a" stroke="#3a414a" d="m591.88 479.2-14.26 4.64v-9.27l14.26 4.63z"/><path fill="none" d="M34 646a6 6 0 0 1 6-6h328a6 6 0 0 1 6 6v31.33a6 6 0 0 1-6 6H40a6 6 0 0 1-6-6V646z"/><use x="-26" y="-148" transform="translate(65 815.028)" xlink:href="#c"/><use x="-26" y="-148" transform="translate(70.556 815.028)" xlink:href="#c"/><use x="-26" y="-148" transform="translate(88.642 815.028)" xlink:href="#E"/><path fill="none" d="M34 686a6 6 0 0 1 6-6h328a6 6 0 0 1 6 6v38.3a6 6 0 0 1-6 6H40a6 6 0 0 1-6-6V686z"/><use x="-26" y="-148" transform="translate(65 858.465)" xlink:href="#c"/><use x="-26" y="-148" transform="translate(70.556 858.465)" xlink:href="#c"/><use x="-26" y="-148" transform="translate(88.642 858.465)" xlink:href="#F"/><path fill="#fff" stroke="#3a414a" d="M594 619.62v-33.88a6 6 0 0 1 6-6h548a6 6 0 0 1 6 6v33.88H594z"/><path fill="#fff" stroke="#3a414a" d="M594 659.5v-39.9h181v39.87m0 .03v-39.9h379v39.87M775 779.12H600a6 6 0 0 1-6-6V659.5h181v119.62zm379-119.62v113.6a6 6 0 0 1-6 6H775V659.5h379z"/><use x="-26" y="-148" transform="translate(879.66 752.184)" xlink:href="#G"/><use x="-26" y="-148" transform="translate(692.043 792.061)" xlink:href="#H"/><use x="-26" y="-148" transform="translate(965.284 792.061)" xlink:href="#I"/><path fill="#fff" stroke="#3a414a" d="M594 665.5a6 6 0 0 1 6-6h169a6 6 0 0 1 6 6v41.33a6 6 0 0 1-6 6H600a6 6 0 0 1-6-6V665.5z"/><use x="-26" y="-148" transform="translate(678.499 838.771)" xlink:href="#J"/><path fill="#fff" stroke="#3a414a" d="M775 665.5a6 6 0 0 1 6-6h367a6 6 0 0 1 6 6v41.33a6 6 0 0 1-6 6H781a6 6 0 0 1-6-6V665.5z"/><use x="-26" y="-148" transform="translate(830.875 838.771)" xlink:href="#K"/><path fill="#fff" stroke="#3a414a" d="M594 852.9v-34.75a6 6 0 0 1 6-6h628a6 6 0 0 1 6 6v34.74l-640 .01z"/><path fill="#fff" stroke="#3a414a" d="M594 893.63v-40.74h181v40.74m0 0v-40.74h459v40.74M775 1015.86H600a6 6 0 0 1-6-6V893.64h181v122.22zm459-122.23v116.23a6 6 0 0 1-6 6H775V893.64l459-.01z"/><use x="-26" y="-148" transform="translate(919.66 985.098)" xlink:href="#G"/><use x="-26" y="-148" transform="translate(692.043 1025.84)" xlink:href="#H"/><use x="-26" y="-148" transform="translate(1005.28 1025.84)" xlink:href="#I"/><path fill="#fff" stroke="#3a414a" d="M594 898a6 6 0 0 1 6-6h169a6 6 0 0 1 6 6v41.33a6 6 0 0 1-6 6H600a6 6 0 0 1-6-6V898z"/><use x="-26" y="-148" transform="translate(638.406 1071.28)" xlink:href="#L"/><path fill="#fff" stroke="#3a414a" d="M775 898a6 6 0 0 1 6-6h447a6 6 0 0 1 6 6v41.33a6 6 0 0 1-6 6H781a6 6 0 0 1-6-6V898z"/><use x="-26" y="-148" transform="translate(823.9 1071.28)" xlink:href="#M"/><use x="-26" y="-148" transform="translate(1224.58 1071.28)" xlink:href="#N"/><path fill="none" stroke="#3a414a" d="M374.5 661.67h203.86"/><path fill="#3a414a" stroke-width=".05" stroke="#3a414a" d="M374.5 662.17h-.5v-1h.5v1z"/><path fill="#3a414a" stroke="#3a414a" d="m593.13 661.67-14.27 4.63v-9.27l14.27 4.64z"/><path fill="none" stroke="#3a414a" d="M374.5 705.14H528a6 6 0 0 1 6 6v179.63a6 6 0 0 0 6 6h37.25"/><path fill="#3a414a" stroke-width=".05" stroke="#3a414a" d="M374.5 705.64h-.5v-1h.5v1z"/><path fill="#3a414a" stroke="#3a414a" d="m592 896.77-14.25 4.64v-9.26l14.25 4.62z"/><path fill="none" d="M34 726a6 6 0 0 1 6-6h328a6 6 0 0 1 6 6v38.3a6 6 0 0 1-6 6H40a6 6 0 0 1-6-6V726z"/><use x="-26" y="-148" transform="translate(65 898.465)" xlink:href="#c"/><use x="-26" y="-148" transform="translate(70.556 898.465)" xlink:href="#c"/><use x="-26" y="-148" transform="translate(88.642 898.465)" xlink:href="#O"/><path fill="none" stroke="#3a414a" d="M994.5 138.86H1188a6 6 0 0 1 6 6v194.18a6 6 0 0 0 6 6h17.12"/><path fill="#3a414a" stroke-width=".05" stroke="#3a414a" d="M994.5 139.36h-.5v-1h.5v1z"/><path fill="#3a414a" stroke="#3a414a" d="m1231.88 345.04-14.26 4.63v-9.27l14.26 4.64z"/><path stroke="#3a414a" d="M1254 264.07a6 6 0 0 1 6-6h288a6 6 0 0 1 6 6v167a6 6 0 0 1-6 6h-288a6 6 0 0 1-6-6v-167zM1254 301h300" fill="none"/><use x="-26" y="-148" transform="translate(1288 432.029)" xlink:href="#P"/><use x="-26" y="-148" transform="translate(1292 476.562)" xlink:href="#R"/><use x="-26" y="-148" transform="translate(1292 505.895)" xlink:href="#Q"/><use x="-26" y="-148" transform="translate(1311.9 505.895)" xlink:href="#R"/><use x="-26" y="-148" transform="translate(1292 535.229)" xlink:href="#Q"/><use x="-26" y="-148" transform="translate(1311.9 535.229)" xlink:href="#S"/><use x="-26" y="-148" transform="translate(1292 564.562)" xlink:href="#Q"/><use x="-26" y="-148" transform="translate(1311.9 564.562)" xlink:href="#T"/><path fill="none" d="M1254 307.87a6 6 0 0 1 6-6h248a6 6 0 0 1 6 6v24.02a6 6 0 0 1-6 6h-248a6 6 0 0 1-6-6v-24.02z"/><use x="-26" y="-148" transform="translate(1286.01 476.115)" xlink:href="#W"/><use x="-26" y="-148" transform="translate(1292.12 476.115)" xlink:href="#U"/><use x="-26" y="-148" transform="translate(1312.02 476.115)" xlink:href="#V"/><use x="-26" y="-148" transform="translate(1380.6 476.115)" xlink:href="#W"/><path fill="#fff" stroke="#3a414a" d="M1294 497.67a6 6 0 0 1 6-6h508a6 6 0 0 1 6 6v328a6 6 0 0 1-6 6h-508a6 6 0 0 1-6-6v-328z"/><path fill="#fff" stroke="#3a414a" d="M1334 556a6 6 0 0 1 6-6h428a6 6 0 0 1 6 6v68a6 6 0 0 1-6 6h-428a6 6 0 0 1-6-6v-68z"/><path fill="none" d="M1294.5 498a6 6 0 0 1 6-6h228a6 6 0 0 1 6 6v48a6 6 0 0 1-6 6h-228a6 6 0 0 1-6-6v-48z"/><use x="-26" y="-148" transform="translate(1325.5 675.278)" xlink:href="#X"/><use x="-26" y="-148" transform="translate(1413.09 675.278)" xlink:href="#Y"/><path fill="#fff" stroke="#3a414a" d="M1334 636a6 6 0 0 1 6-6h428a6 6 0 0 1 6 6v48a6 6 0 0 1-6 6h-428a6 6 0 0 1-6-6v-48zm0 60a6 6 0 0 1 6-6h428a6 6 0 0 1 6 6v48a6 6 0 0 1-6 6h-428a6 6 0 0 1-6-6v-48zm0 60a6 6 0 0 1 6-6h428a6 6 0 0 1 6 6v48a6 6 0 0 1-6 6h-428a6 6 0 0 1-6-6v-48z"/><path fill="none" d="M1534 566a6 6 0 0 1 6-6h228a6 6 0 0 1 6 6v48a6 6 0 0 1-6 6h-228a6 6 0 0 1-6-6v-48z"/><use x="-26" y="-148" transform="translate(1617.53 743.278)" xlink:href="#Z"/><path fill="#fff" stroke="#3a414a" d="M1334 556a6 6 0 0 1 6-6h228a6 6 0 0 1 6 6v28a6 6 0 0 1-6 6h-228a6 6 0 0 1-6-6v-28z"/><use x="-26" y="-148" transform="translate(1381.48 727.778)" xlink:href="#aa"/><use x="-26" y="-148" transform="translate(1454.2 727.778)" xlink:href="#ab"/><path fill="none" stroke-width=".5" stroke="#3a414a" d="M1414.5 550.25a.25.25 0 0 1 .25.25v39.4a.25.25 0 0 1-.25.26.25.25 0 0 1-.25-.25v-39.4a.25.25 0 0 1 .25-.25v-.01z"/><path fill="none" d="M1534 636a6 6 0 0 1 6-6h228a6 6 0 0 1 6 6v48a6 6 0 0 1-6 6h-228a6 6 0 0 1-6-6v-48z"/><use x="-26" y="-148" transform="translate(1693.33 813.278)" xlink:href="#ac"/><use x="-26" y="-148" transform="translate(1783.89 813.278)" xlink:href="#ad"/><path fill="none" d="M1534 696a6 6 0 0 1 6-6h228a6 6 0 0 1 6 6v48a6 6 0 0 1-6 6h-228a6 6 0 0 1-6-6v-48z"/><use x="-26" y="-148" transform="translate(1693.33 873.278)" xlink:href="#ac"/><use x="-26" y="-148" transform="translate(1783.89 873.278)" xlink:href="#ae"/><path fill="none" d="M1534 754.33a6 6 0 0 1 6-6h228a6 6 0 0 1 6 6v51.34a6 6 0 0 1-6 6h-228a6 6 0 0 1-6-6v-51.34z"/><use x="-26" y="-148" transform="translate(1693.33 932.611)" xlink:href="#ac"/><use x="-26" y="-148" transform="translate(1783.89 932.611)" xlink:href="#af"/><path fill="none" stroke-width="3" stroke="#3a414a" d="M1515.5 319.88h45.5a6 6 0 0 1 6 6v151.46"/><path fill="#3a414a" stroke-width=".05" stroke="#3a414a" d="M1515.54 321.38H1514v-3h1.54v3z"/><path fill="#3a414a" stroke-width="3" stroke="#3a414a" d="m1567 493.1-4.63-14.26h9.27L1567 493.1z"/><defs transform="translate(-26 -148)"><path id="ag" d="M81-9v9H4v-9l26-5 81-224h33l83 224 30 5v9h-99v-9l31-5-23-68H73L49-14l32 5zm38-203L78-98h82" fill="#3a414a"/><path id="ah" d="M57-145c16-10 35-24 60-25v45c-19 1-8-30-40-17l-20 6v124l29 4v8H7v-8l21-4v-141c-8-3-24 2-21-12h48" fill="#3a414a"/><path id="ai" d="M32-163c41-10 102-14 102 39v112c8 3 24-2 21 12h-45l-4-17C83 13 3 13 13-46c-2-50 45-50 92-51 4-36-5-70-42-56-6 2-12 4-16 6-4 7 0 23-15 20v-36zM42-47c0 41 41 33 63 22v-59c-34 1-63-1-63 37" fill="#3a414a"/><path id="aj" d="M161-154 85 37C75 66 49 86 8 75V39c18-2 6 24 29 21 30-4 38-32 47-58L21-153c-7-3-20 0-17-12h77v8l-26 4 45 116 43-116-26-4v-8h62v8" fill="#3a414a"/><path id="ak" d="M76-208v77h127v40H76V0H24v-248h183v40H76"/><path id="al" d="M24 0v-248h195v40H76v63h132v40H76v65h150V0H24"/><path id="am" d="M135-194c87-1 58 113 63 194h-50c-7-57 23-157-34-157-59 0-34 97-39 157H25l-1-190h47c2 12-1 28 3 38 12-26 28-41 61-42"/><path id="an" d="M115-3C79 11 28 4 28-45v-112H4v-33h27l15-45h31v45h36v33H77v99c-1 23 16 31 38 25v30"/><path id="ao" d="M25-224v-37h50v37H25zM25 0v-190h50V0H25"/><path id="ap" d="M123 10C108 53 80 86 19 72V37c35 8 53-11 59-39L3-190h52l48 148c12-52 28-100 44-148h51"/><path id="aq" d="M24-248c120-7 223 5 221 122C244-46 201 0 124 0H24v-248zM76-40c74 7 117-18 117-86 0-67-45-88-117-82v168"/><path id="ar" d="M133-34C117-15 103 5 69 4 32 3 11-16 11-54c-1-60 55-63 116-61 1-26-3-47-28-47-18 1-26 9-28 27l-52-2c7-38 36-58 82-57s74 22 75 68l1 82c-1 14 12 18 25 15v27c-30 8-71 5-69-32zm-48 3c29 0 43-24 42-57-32 0-66-3-65 30 0 17 8 27 23 27"/><path id="as" d="M111-111v75H92v-75H18v-17h74v-75h19v75h74v17h-74" fill="#3a414a"/><path id="at" d="M52-115c0 93 80 130 150 87l7-35h11l-1 55c-23 7-52 12-83 12C60 4 19-37 15-115c-5-113 97-141 201-114l1 51h-12l-5-30c-15-9-39-16-62-16-66 0-86 41-86 109" fill="#3a414a"/><path id="au" d="M124-13C89 8 26 15 26-45v-108c-8-3-24 2-21-12h50v118c-3 37 42 32 69 25v-131l-25-4v-8h54v153c8 3 24-2 21 12h-48" fill="#3a414a"/><path id="av" d="M84-170c49 0 66 33 63 87H46c-8 60 38 80 95 63v10C128-2 108 4 88 4 34 4 14-29 14-84c-1-54 22-86 70-86zm33 73c12-57-57-82-69-24-1 7-2 15-2 24h71" fill="#3a414a"/><path id="aw" d="M125-118c4-37-41-34-68-26v132l23 4v8H8C5-13 21-9 28-12v-141c-7-3-23 1-20-12h47l2 13c31-23 98-29 98 31v109c7 3 23-1 20 12h-72v-8l22-4v-106" fill="#3a414a"/><path id="ax" d="M54-38c-1 25 24 26 44 20v12C71 10 25 9 25-35v-115H4c-2-14 14-10 21-15l18-38h11v38h38v15H54v112" fill="#3a414a"/><path id="ay" d="M45-84c0 64 52 80 104 63 1 25-30 25-55 25-56 0-80-32-80-88 0-76 62-98 131-80v46h-10c-5-15-4-31-23-35-47-10-67 21-67 69" fill="#3a414a"/><path id="az" d="M126-119c3-38-42-31-69-25v132l23 4v8H7v-8l21-4v-226l-24-4v-8h53l-1 98c31-22 99-31 99 31v109c7 3 23-1 20 12h-71v-8l22-4v-107" fill="#3a414a"/><path id="aA" d="M166-85c3 67-44 102-111 85l1 64 29 4v9H6v-9l21-4v-217c-7-3-22 1-19-12h46l1 9c11-8 26-14 45-14 47 2 64 36 66 85zM56-13c53 14 83-14 78-72 7-53-33-79-78-60v132" fill="#3a414a"/><path id="aB" d="M178-68c0 79-95 82-154 59v-54h12c1 35 22 52 60 52 50 0 69-58 33-82-39-24-105-21-105-85 0-67 86-66 142-53v49h-12l-6-29c-31-27-121-7-89 42 28 43 119 24 119 101" fill="#3a414a"/><path id="aC" d="M47-200c-23 0-25-39 0-38 13 0 18 7 20 19-1 11-8 19-20 19zM65-12l28 4v8H8v-8l28-4v-141l-24-4v-8h53v153" fill="#3a414a"/><path id="aD" d="m65-12 28 4v8H7v-8l28-4v-226l-28-4v-8h58v238" fill="#3a414a"/><path id="aE" d="m203-222-32-4v-10h81v10l-31 4V0h-17L59-212v198l32 5v9H10v-9l31-5v-208l-31-4v-10h72L203-61v-161" fill="#3a414a"/><path id="aF" d="M126-118c4-37-42-32-68-25v131l24 4v8H8C5-13 21-9 28-12v-141c-7-3-23 1-20-12h48l1 13c22-15 77-30 92 2 32-22 104-36 104 29v109c8 3 24-2 21 12h-75v-8l25-4v-106c3-39-45-31-72-24 7 37 1 88 3 130l25 4v8h-78v-8l24-4v-106" fill="#3a414a"/><path id="aG" d="M53-14c58 12 82-15 82-73 0-52-35-77-82-58v131zM89 4C64 4 42-2 24-9v-229l-24-4v-8h53l-1 94c48-33 114-4 114 69 0 57-23 91-77 91" fill="#3a414a"/><path id="aH" d="m10-9 31-5v-208l-31-4v-10h177v57h-11l-6-38c-28-4-63-3-95-3v92h63l6-28h11v73h-11l-6-29H75v96l105-3 10-43h12l-3 62H10v-9" fill="#3a414a"/><path id="aI" d="m230 0 2-204L168 0h-37L68-204 70 0H24v-248h70l56 185 57-185h69V0h-46"/><path id="aJ" d="M137-138c1-29-70-34-71-4 15 46 118 7 119 86 1 83-164 76-172 9l43-7c4 19 20 25 44 25 33 8 57-30 24-41C81-84 22-81 20-136c-2-80 154-74 161-7"/><path id="aK" d="m199 0-22-63H83L61 0H9l90-248h61L250 0h-51zm-33-102-36-108c-10 38-24 72-36 108h72"/><path id="aL" d="M135-150c-39-12-60 13-60 57V0H25l-1-190h47c2 13-1 29 3 40 6-28 27-53 61-41v41"/><path id="aM" d="M190-63c-7 42-38 67-86 67-59 0-84-38-90-98-12-110 154-137 174-36l-49 2c-2-19-15-32-35-32-30 0-35 28-38 64-6 74 65 87 74 30"/><path id="aN" d="M114-157C55-157 80-60 75 0H25v-261h50l-1 109c12-26 28-41 61-42 86-1 58 113 63 194h-50c-7-57 23-157-34-157"/><path id="aO" d="M185-48c-13 30-37 53-82 52C43 2 14-33 14-96s30-98 90-98c62 0 83 45 84 108H66c0 31 8 55 39 56 18 0 30-7 34-22l46 4zm-45-69c5-46-57-63-70-21-2 6-4 13-4 21h74"/><path id="aP" d="M135-194c53 0 70 44 70 98 0 56-19 98-73 100-31 1-45-17-59-34 3 33 2 69 2 105H25l-1-265h48c2 10 0 23 3 31 11-24 29-35 60-35zM114-30c33 0 39-31 40-66 0-38-9-64-40-64-56 0-55 130 0 130"/><path id="aQ" d="M90-170c52 0 76 32 76 87 0 54-24 87-77 87-51 0-75-34-75-87 0-54 24-87 76-87zM89-10c39 0 46-35 46-73 0-39-7-73-46-73-39 1-44 34-44 73s6 72 44 73" fill="#3a414a"/><path id="aR" d="M41-130c7 48 86 23 86 84 0 56-69 57-112 41v-40c20 0 9 29 31 31 35 19 77-26 41-50-27-18-72-13-72-59 0-50 58-52 100-41v36c-19 1-8-25-28-25-21-7-50-1-46 23" fill="#3a414a"/><path id="aS" d="M75-17c87 13 134-18 134-103 0-78-51-106-134-100v203zm171-102C246 5 139 7 10 0v-9l31-5v-208l-31-4v-10h107c82 0 129 35 129 117" fill="#3a414a"/><path id="aT" d="m60-80 68-73c-7-3-20 0-17-12h58c3 13-13 9-20 12l-47 48 60 93c7 3 21-1 18 12h-68c-3-12 9-9 15-12L82-83 60-60v48c7 3 21-1 18 12H10v-8l21-4v-226l-24-4v-8h53v170" fill="#3a414a"/><path id="aU" d="M75-106v92l39 5v9H13v-9l28-5v-208l-31-4v-10h177v57h-11l-6-38c-28-4-63-3-95-3v98h69l5-28h11v73h-11l-5-29H75" fill="#3a414a"/><path id="aV" d="M141-152c28 39 5 97-54 97-9 0-20-2-27-3L49-35c29 22 130-14 124 52-4 45-38 57-88 61C21 83-8 26 45-2 33-6 22-15 21-31l28-31c-19-9-28-26-28-51-2-51 53-65 100-52l38-20 7 8-25 25zM85 64c35 0 61-11 61-42 0-35-57-17-89-21-9 8-16 19-17 34 0 25 19 29 45 29zM52-113c1 26 7 46 35 44 28-1 34-16 35-44 0-26-6-43-34-43s-36 17-36 43" fill="#3a414a"/><path id="aW" d="M103-236c-39-15-35 32-34 71h44v15H69v136l35 6v8H15v-8l25-6v-136H11v-9l29-7c-6-59 23-100 80-84v36c-15 2-12-14-17-22" fill="#3a414a"/><path id="aX" d="m77-14 30 5v9H13v-9l30-5v-208l-30-4v-10h94v10l-30 4v208" fill="#3a414a"/><path id="aY" d="M13-81c0-71 46-101 114-85l-1-72-28-4v-8h57v238c8 3 24-2 21 12h-47l-2-12C80 23 13-1 13-81zm77-74c-37 1-44 33-45 74 0 38 9 66 45 66 14 0 27-3 36-7v-130c-10-1-24-3-36-3" fill="#3a414a"/><path id="aZ" d="M156-12c7 3 23-1 20 12h-75v-8l22-4-38-58-45 58 23 4v8H3v-8l19-3 55-71-48-71c-7-3-23 1-20-12h75v8l-22 4 32 48 37-48-23-4v-8h59v8l-19 3-46 60" fill="#3a414a"/><path id="ba" d="M152 0h-7L59-203v189l32 5v9H10v-9l31-5v-208l-31-4v-10h72l76 180 84-180h68v10l-31 4v208l31 5v9h-96v-9l32-5v-189" fill="#3a414a"/><path id="bb" d="M186 0v-106H76V0H24v-248h52v99h110v-99h50V0h-50"/><path id="bc" d="M88-194c31-1 46 15 58 34l-1-101h50l1 261h-48c-2-10 0-23-3-31C134-8 116 4 84 4 32 4 16-41 15-95c0-56 19-97 73-99zm17 164c33 0 40-30 41-66 1-37-9-64-41-64s-38 30-39 65c0 43 13 65 39 65"/><path id="bd" d="M25 0v-261h50V0H25"/><path id="be" d="M55 0v-9l38-5v-207c-22 1-53 0-70 4l-5 37H7v-56h207v56h-12l-5-37-70-3v206l37 5v9H55" fill="#3a414a"/><path id="bf" d="M75-108c48 3 76-12 76-58s-28-57-76-54v112zm111-58c-1 60-46 78-111 74v78l37 5v9H13v-9l28-5v-208l-31-4v-10c81 1 178-14 176 70" fill="#3a414a"/><path id="bg" d="M18-115v-9l167-82v18L43-120l142 69v18" fill="#3a414a"/><path id="bh" d="M50-169c12 0 21 9 21 21 0 13-9 22-21 22-13 0-22-9-22-22 0-12 9-21 22-21zM47-37c42 4 24 74-3 81-7 4-15 8-25 11V42c22-4 44-32 19-42-18-7-14-39 9-37" fill="#3a414a"/><path id="bi" d="M104-123c39 3 61 21 62 59C167 7 83 12 19-4l-2-50h12c2 29 16 43 51 43 38 0 54-19 54-55 2-43-34-49-75-50v-14c37 0 64-7 64-48 0-47-47-56-81-36l-6 29H24v-46c51-13 135-13 131 51-2 34-20 52-51 57" fill="#3a414a"/><path id="bj" d="M24-231c66-21 156 2 128 81C132-92 78-66 39-27h121V0H16v-26l59-54c26-25 47-47 47-97 0-48-47-57-81-37l-6 29H24v-46" fill="#3a414a"/><path id="bk" d="M67-125c0 53 21 87 73 88 37 1 54-22 65-47l45 17C233-25 199 4 140 4 58 4 20-42 15-125 8-235 124-281 211-232c18 10 29 29 36 50l-46 12c-8-25-30-41-62-41-52 0-71 34-72 86"/><path id="bl" d="M110-194c64 0 96 36 96 99 0 64-35 99-97 99-61 0-95-36-95-99 0-62 34-99 96-99zm-1 164c35 0 45-28 45-65 0-40-10-65-43-65-34 0-45 26-45 65 0 36 10 65 43 65"/><path id="bm" d="M220-157c-53 9-28 100-34 157h-49v-107c1-27-5-49-29-50C55-147 81-57 75 0H25l-1-190h47c2 12-1 28 3 38 10-53 101-56 108 0 13-22 24-43 59-42 82 1 51 116 57 194h-49v-107c-1-25-5-48-29-50"/><path id="bn" d="M45-37c13 0 21 8 21 21C67-2 57 4 45 5 33 4 23-2 24-16c0-13 8-21 21-21" fill="#3a414a"/><path id="bo" d="M195-6C206 82 75 100 31 46c-4-6-6-13-8-21l49-6c3 16 16 24 34 25 40 0 42-37 40-79-11 22-30 35-61 35-53 0-70-43-70-97 0-56 18-96 73-97 30 0 46 14 59 34l2-30h47L195-6zm-90-29c32 0 41-27 41-63 0-35-9-62-40-62-32 0-39 29-40 63 0 36 9 62 39 62"/><path id="bp" d="M10 0v-9l31-5v-208l-31-4v-10h95v10l-30 4v93h110v-93l-30-4v-10h94v10l-30 4v208l30 5v9h-94v-9l30-5v-99H75v99l30 5v9H10" fill="#3a414a"/><path id="bq" d="M238-236v10l-27 4-81 79L231-14l25 5v9h-57l-93-119-31 25v80l33 5v9H10v-9l31-5v-208l-31-4v-10h95v10l-30 4v111l112-111-23-4v-10h74" fill="#3a414a"/><path id="br" d="M256-236v10l-26 4L135 5h-9L31-222l-27-4v-10h95v10l-31 4 71 174 71-174-31-4v-10h77" fill="#3a414a"/><path id="bs" d="M18-33v-18l142-69-142-68v-18l168 82v9" fill="#3a414a"/><path id="bt" d="M52-115c0 90 69 126 140 93v-67l-30-5v-9h87v9l-23 5v77c-27 8-56 16-90 16C59 2 15-37 15-115c-1-82 41-123 122-123 31 0 59 4 83 10v51h-12l-5-29c-15-12-38-18-65-18-66-1-86 42-86 109" fill="#3a414a"/><path id="bu" d="M85 4C-2 5 27-109 22-190h50c7 57-23 150 33 157 60-5 35-97 40-157h50l1 190h-47c-2-12 1-28-3-38-12 25-28 42-61 42"/><path id="bv" d="M147 0 96-86 75-71V0H25v-261h50v150l67-79h53l-66 74L201 0h-54"/><path id="bw" d="M10 0v-8l90-143c-23 2-54-4-70 6-5 8 1 26-14 24v-44h122v8L47-14c29-2 65 3 86-8l9-35h8l-5 57H10" fill="#3a414a"/><path id="bx" d="M90-239c42 0 69 19 69 61 0 28-14 44-35 53 25 8 42 28 42 61 0 47-28 68-77 68-48 0-75-21-75-68-1-33 18-51 41-61-19-9-34-25-34-53 0-42 26-61 69-61zM89-10c34 0 46-20 46-54 0-32-11-53-46-53-34 0-44 20-44 53-1 34 11 54 44 54zm0-123c28 0 38-16 38-45s-9-47-38-47c-28-1-36 18-36 47s8 45 36 45" fill="#3a414a"/><path id="by" d="m18-187 11-25 55 34-7-58h27l-8 58 56-34 11 25-59 17 59 17-11 25-56-33 8 57H77l7-57-55 34-11-25 57-18" fill="#3a414a"/><path id="bz" d="M199-173c-1 36-21 56-49 65l64 94 26 5v9h-57l-66-103H75v89l35 5v9H13v-9l28-5v-208l-31-4v-10c80 4 190-20 189 63zM75-119c50 2 89-1 89-51 0-49-39-52-89-50v101" fill="#3a414a"/><path id="bA" d="M240-154 185 4h-14l-41-109L90 4H77L20-153c-7-3-23 1-20-12h79v8l-27 4L91-41l40-108h14l40 109 38-113-28-4v-8h63v8" fill="#3a414a"/><path id="bB" d="m110-14 48 5v9H32v-9l48-5v-192l-48 17v-10l69-39h9v224" fill="#3a414a"/><g id="a"><use xlink:href="#ag" transform="rotate(.413) scale(.06173)"/><use xlink:href="#ah" transform="matrix(.06173 0 0 .06173 15.988 0)"/><use xlink:href="#ah" transform="matrix(.06173 0 0 .06173 23.333 0)"/><use xlink:href="#ai" transform="matrix(.06173 0 0 .06173 30.679 0)"/><use xlink:href="#aj" transform="matrix(.06173 0 0 .06173 40.494 0)"/></g><g id="b"><use xlink:href="#ak" transform="scale(.06235)"/><use xlink:href="#al" transform="matrix(.06235 0 0 .06235 13.654 0)"/><use xlink:href="#am" transform="matrix(.06235 0 0 .06235 28.617 0)"/><use xlink:href="#an" transform="matrix(.06235 0 0 .06235 42.27 0)"/><use xlink:href="#ao" transform="matrix(.06235 0 0 .06235 49.69 0)"/><use xlink:href="#an" transform="matrix(.06235 0 0 .06235 55.924 0)"/><use xlink:href="#ap" transform="matrix(.06235 0 0 .06235 63.343 0)"/><use xlink:href="#aq" transform="matrix(.06235 0 0 .06235 75.812 0)"/><use xlink:href="#ar" transform="matrix(.06235 0 0 .06235 91.96 0)"/><use xlink:href="#an" transform="matrix(.06235 0 0 .06235 104.429 0)"/><use xlink:href="#ar" transform="matrix(.06235 0 0 .06235 111.848 0)"/></g><g id="d"><use xlink:href="#at" transform="rotate(.413) scale(.06173)"/><use xlink:href="#au" transform="matrix(.06173 0 0 .06173 14.815 0)"/><use xlink:href="#ah" transform="matrix(.06173 0 0 .06173 25.926 0)"/><use xlink:href="#ah" transform="matrix(.06173 0 0 .06173 33.272 0)"/><use xlink:href="#av" transform="matrix(.06173 0 0 .06173 40.617 0)"/><use xlink:href="#aw" transform="matrix(.06173 0 0 .06173 50.432 0)"/><use xlink:href="#ax" transform="matrix(.06173 0 0 .06173 61.543 0)"/><use xlink:href="#ag" transform="matrix(.06173 0 0 .06173 67.716 0)"/><use xlink:href="#ah" transform="matrix(.06173 0 0 .06173 83.704 0)"/><use xlink:href="#ay" transform="matrix(.06173 0 0 .06173 91.05 0)"/><use xlink:href="#az" transform="matrix(.06173 0 0 .06173 100.864 0)"/><use xlink:href="#av" transform="matrix(.06173 0 0 .06173 111.975 0)"/><use xlink:href="#ax" transform="matrix(.06173 0 0 .06173 121.79 0)"/><use xlink:href="#aj" transform="matrix(.06173 0 0 .06173 127.963 0)"/><use xlink:href="#aA" transform="matrix(.06173 0 0 .06173 139.074 0)"/><use xlink:href="#av" transform="matrix(.06173 0 0 .06173 150.185 0)"/></g><g id="e"><use xlink:href="#aB" transform="rotate(.413) scale(.06173)"/><use xlink:href="#av" transform="matrix(.06173 0 0 .06173 12.346 0)"/><use xlink:href="#ah" transform="matrix(.06173 0 0 .06173 22.16 0)"/><use xlink:href="#aC" transform="matrix(.06173 0 0 .06173 29.506 0)"/><use xlink:href="#ai" transform="matrix(.06173 0 0 .06173 35.679 0)"/><use xlink:href="#aD" transform="matrix(.06173 0 0 .06173 45.494 0)"/><use xlink:href="#aE" transform="matrix(.06173 0 0 .06173 51.667 0)"/><use xlink:href="#au" transform="matrix(.06173 0 0 .06173 67.654 0)"/><use xlink:href="#aF" transform="matrix(.06173 0 0 .06173 78.765 0)"/><use xlink:href="#aG" transform="matrix(.06173 0 0 .06173 96.05 0)"/><use xlink:href="#av" transform="matrix(.06173 0 0 .06173 107.16 0)"/><use xlink:href="#ah" transform="matrix(.06173 0 0 .06173 116.975 0)"/></g><g id="f"><use xlink:href="#aH" transform="rotate(.413) scale(.06173)"/><use xlink:href="#aw" transform="matrix(.06173 0 0 .06173 13.519 0)"/><use xlink:href="#ax" transform="matrix(.06173 0 0 .06173 24.63 0)"/><use xlink:href="#aC" transform="matrix(.06173 0 0 .06173 30.802 0)"/><use xlink:href="#ax" transform="matrix(.06173 0 0 .06173 36.975 0)"/><use xlink:href="#aj" transform="matrix(.06173 0 0 .06173 43.148 0)"/></g><g id="g"><use xlink:href="#ak" transform="scale(.06235)"/><use xlink:href="#aI" transform="matrix(.06235 0 0 .06235 13.654 0)"/><use xlink:href="#ar" transform="matrix(.06235 0 0 .06235 32.295 0)"/><use xlink:href="#aJ" transform="matrix(.06235 0 0 .06235 44.764 0)"/><use xlink:href="#aJ" transform="matrix(.06235 0 0 .06235 57.233 0)"/><use xlink:href="#aK" transform="matrix(.06235 0 0 .06235 69.702 0)"/><use xlink:href="#aL" transform="matrix(.06235 0 0 .06235 85.85 0)"/><use xlink:href="#aM" transform="matrix(.06235 0 0 .06235 94.578 0)"/><use xlink:href="#aN" transform="matrix(.06235 0 0 .06235 107.048 0)"/><use xlink:href="#aO" transform="matrix(.06235 0 0 .06235 120.701 0)"/><use xlink:href="#an" transform="matrix(.06235 0 0 .06235 133.17 0)"/><use xlink:href="#ap" transform="matrix(.06235 0 0 .06235 140.59 0)"/><use xlink:href="#aP" transform="matrix(.06235 0 0 .06235 153.059 0)"/><use xlink:href="#aO" transform="matrix(.06235 0 0 .06235 166.712 0)"/><use xlink:href="#aq" transform="matrix(.06235 0 0 .06235 179.181 0)"/><use xlink:href="#ar" transform="matrix(.06235 0 0 .06235 195.329 0)"/><use xlink:href="#an" transform="matrix(.06235 0 0 .06235 207.798 0)"/><use xlink:href="#ar" transform="matrix(.06235 0 0 .06235 215.217 0)"/></g><g id="h"><use xlink:href="#at" transform="rotate(.413) scale(.06173)"/><use xlink:href="#aQ" transform="matrix(.06173 0 0 .06173 14.815 0)"/><use xlink:href="#aF" transform="matrix(.06173 0 0 .06173 25.926 0)"/><use xlink:href="#aA" transform="matrix(.06173 0 0 .06173 43.21 0)"/><use xlink:href="#aQ" transform="matrix(.06173 0 0 .06173 54.321 0)"/><use xlink:href="#aR" transform="matrix(.06173 0 0 .06173 65.432 0)"/><use xlink:href="#aC" transform="matrix(.06173 0 0 .06173 74.074 0)"/><use xlink:href="#ax" transform="matrix(.06173 0 0 .06173 80.247 0)"/><use xlink:href="#aC" transform="matrix(.06173 0 0 .06173 86.42 0)"/><use xlink:href="#aQ" transform="matrix(.06173 0 0 .06173 92.593 0)"/><use xlink:href="#aw" transform="matrix(.06173 0 0 .06173 103.704 0)"/><use xlink:href="#aS" transform="matrix(.06173 0 0 .06173 114.815 0)"/><use xlink:href="#av" transform="matrix(.06173 0 0 .06173 130.802 0)"/><use xlink:href="#aR" transform="matrix(.06173 0 0 .06173 140.617 0)"/><use xlink:href="#ay" transform="matrix(.06173 0 0 .06173 149.26 0)"/><use xlink:href="#ah" transform="matrix(.06173 0 0 .06173 159.074 0)"/><use xlink:href="#aC" transform="matrix(.06173 0 0 .06173 166.42 0)"/><use xlink:href="#aA" transform="matrix(.06173 0 0 .06173 172.593 0)"/><use xlink:href="#ax" transform="matrix(.06173 0 0 .06173 183.704 0)"/><use xlink:href="#aQ" transform="matrix(.06173 0 0 .06173 189.877 0)"/><use xlink:href="#ah" transform="matrix(.06173 0 0 .06173 200.988 0)"/></g><g id="i"><use xlink:href="#at" transform="rotate(.413) scale(.06173)"/><use xlink:href="#az" transform="matrix(.06173 0 0 .06173 14.815 0)"/><use xlink:href="#au" transform="matrix(.06173 0 0 .06173 25.926 0)"/><use xlink:href="#aw" transform="matrix(.06173 0 0 .06173 37.037 0)"/><use xlink:href="#aT" transform="matrix(.06173 0 0 .06173 48.148 0)"/><use xlink:href="#aR" transform="matrix(.06173 0 0 .06173 59.26 0)"/></g><g id="j"><use xlink:href="#aU" transform="rotate(.413) scale(.06173)"/><use xlink:href="#ah" transform="matrix(.06173 0 0 .06173 12.346 0)"/><use xlink:href="#ai" transform="matrix(.06173 0 0 .06173 19.691 0)"/><use xlink:href="#aV" transform="matrix(.06173 0 0 .06173 29.506 0)"/><use xlink:href="#aF" transform="matrix(.06173 0 0 .06173 40.617 0)"/><use xlink:href="#av" transform="matrix(.06173 0 0 .06173 57.901 0)"/><use xlink:href="#aw" transform="matrix(.06173 0 0 .06173 67.716 0)"/><use xlink:href="#ax" transform="matrix(.06173 0 0 .06173 78.827 0)"/><use xlink:href="#at" transform="matrix(.06173 0 0 .06173 85 0)"/><use xlink:href="#aQ" transform="matrix(.06173 0 0 .06173 99.815 0)"/><use xlink:href="#aw" transform="matrix(.06173 0 0 .06173 110.926 0)"/><use xlink:href="#aW" transform="matrix(.06173 0 0 .06173 122.037 0)"/><use xlink:href="#aC" transform="matrix(.06173 0 0 .06173 129.383 0)"/><use xlink:href="#aV" transform="matrix(.06173 0 0 .06173 135.556 0)"/><use xlink:href="#aR" transform="matrix(.06173 0 0 .06173 146.667 0)"/></g><g id="k"><use xlink:href="#aU" transform="rotate(.413) scale(.06173)"/><use xlink:href="#ah" transform="matrix(.06173 0 0 .06173 12.346 0)"/><use xlink:href="#ai" transform="matrix(.06173 0 0 .06173 19.691 0)"/><use xlink:href="#aV" transform="matrix(.06173 0 0 .06173 29.506 0)"/><use xlink:href="#aF" transform="matrix(.06173 0 0 .06173 40.617 0)"/><use xlink:href="#av" transform="matrix(.06173 0 0 .06173 57.901 0)"/><use xlink:href="#aw" transform="matrix(.06173 0 0 .06173 67.716 0)"/><use xlink:href="#ax" transform="matrix(.06173 0 0 .06173 78.827 0)"/><use xlink:href="#aX" transform="matrix(.06173 0 0 .06173 85 0)"/><use xlink:href="#aw" transform="matrix(.06173 0 0 .06173 92.346 0)"/><use xlink:href="#aY" transform="matrix(.06173 0 0 .06173 103.457 0)"/><use xlink:href="#av" transform="matrix(.06173 0 0 .06173 114.568 0)"/><use xlink:href="#aZ" transform="matrix(.06173 0 0 .06173 124.383 0)"/><use xlink:href="#ba" transform="matrix(.06173 0 0 .06173 135.494 0)"/><use xlink:href="#ai" transform="matrix(.06173 0 0 .06173 155.247 0)"/><use xlink:href="#aA" transform="matrix(.06173 0 0 .06173 165.062 0)"/></g><g id="l"><use xlink:href="#aH" transform="rotate(.413) scale(.06173)"/><use xlink:href="#aw" transform="matrix(.06173 0 0 .06173 13.519 0)"/><use xlink:href="#ax" transform="matrix(.06173 0 0 .06173 24.63 0)"/><use xlink:href="#aC" transform="matrix(.06173 0 0 .06173 30.802 0)"/><use xlink:href="#ax" transform="matrix(.06173 0 0 .06173 36.975 0)"/><use xlink:href="#aj" transform="matrix(.06173 0 0 .06173 43.148 0)"/><use xlink:href="#ba" transform="matrix(.06173 0 0 .06173 54.26 0)"/><use xlink:href="#ai" transform="matrix(.06173 0 0 .06173 74.012 0)"/><use xlink:href="#aA" transform="matrix(.06173 0 0 .06173 83.827 0)"/></g><g id="m"><use xlink:href="#ak" transform="scale(.06235)"/><use xlink:href="#aI" transform="matrix(.06235 0 0 .06235 13.654 0)"/><use xlink:href="#ar" transform="matrix(.06235 0 0 .06235 32.295 0)"/><use xlink:href="#aJ" transform="matrix(.06235 0 0 .06235 44.764 0)"/><use xlink:href="#aJ" transform="matrix(.06235 0 0 .06235 57.233 0)"/><use xlink:href="#aK" transform="matrix(.06235 0 0 .06235 69.702 0)"/><use xlink:href="#aL" transform="matrix(.06235 0 0 .06235 85.85 0)"/><use xlink:href="#aM" transform="matrix(.06235 0 0 .06235 94.578 0)"/><use xlink:href="#aN" transform="matrix(.06235 0 0 .06235 107.048 0)"/><use xlink:href="#aO" transform="matrix(.06235 0 0 .06235 120.701 0)"/><use xlink:href="#an" transform="matrix(.06235 0 0 .06235 133.17 0)"/><use xlink:href="#ap" transform="matrix(.06235 0 0 .06235 140.59 0)"/><use xlink:href="#aP" transform="matrix(.06235 0 0 .06235 153.059 0)"/><use xlink:href="#aO" transform="matrix(.06235 0 0 .06235 166.712 0)"/><use xlink:href="#bb" transform="matrix(.06235 0 0 .06235 179.181 0)"/><use xlink:href="#ar" transform="matrix(.06235 0 0 .06235 195.329 0)"/><use xlink:href="#am" transform="matrix(.06235 0 0 .06235 207.798 0)"/><use xlink:href="#bc" transform="matrix(.06235 0 0 .06235 221.452 0)"/><use xlink:href="#bd" transform="matrix(.06235 0 0 .06235 235.106 0)"/><use xlink:href="#aO" transform="matrix(.06235 0 0 .06235 241.34 0)"/></g><g id="o"><use xlink:href="#be" transform="rotate(.413) scale(.06173)"/><use xlink:href="#aB" transform="matrix(.06173 0 0 .06173 13.519 0)"/><use xlink:href="#az" transform="matrix(.06173 0 0 .06173 25.864 0)"/><use xlink:href="#ai" transform="matrix(.06173 0 0 .06173 36.975 0)"/><use xlink:href="#ah" transform="matrix(.06173 0 0 .06173 46.79 0)"/><use xlink:href="#av" transform="matrix(.06173 0 0 .06173 54.136 0)"/><use xlink:href="#aY" transform="matrix(.06173 0 0 .06173 63.95 0)"/><use xlink:href="#bf" transform="matrix(.06173 0 0 .06173 75.062 0)"/><use xlink:href="#ax" transform="matrix(.06173 0 0 .06173 87.407 0)"/><use xlink:href="#ah" transform="matrix(.06173 0 0 .06173 93.58 0)"/><use xlink:href="#bg" transform="matrix(.06173 0 0 .06173 100.926 0)"/><use xlink:href="#aU" transform="matrix(.06173 0 0 .06173 113.457 0)"/><use xlink:href="#ba" transform="matrix(.06173 0 0 .06173 125.802 0)"/><use xlink:href="#ai" transform="matrix(.06173 0 0 .06173 145.556 0)"/><use xlink:href="#aR" transform="matrix(.06173 0 0 .06173 155.37 0)"/><use xlink:href="#aR" transform="matrix(.06173 0 0 .06173 164.012 0)"/><use xlink:href="#ag" transform="matrix(.06173 0 0 .06173 172.654 0)"/><use xlink:href="#ah" transform="matrix(.06173 0 0 .06173 188.642 0)"/><use xlink:href="#ay" transform="matrix(.06173 0 0 .06173 195.988 0)"/><use xlink:href="#az" transform="matrix(.06173 0 0 .06173 205.802 0)"/><use xlink:href="#av" transform="matrix(.06173 0 0 .06173 216.914 0)"/><use xlink:href="#ax" transform="matrix(.06173 0 0 .06173 226.728 0)"/><use xlink:href="#aj" transform="matrix(.06173 0 0 .06173 232.901 0)"/><use xlink:href="#aA" transform="matrix(.06173 0 0 .06173 244.012 0)"/><use xlink:href="#av" transform="matrix(.06173 0 0 .06173 255.123 0)"/><use xlink:href="#aS" transform="matrix(.06173 0 0 .06173 264.938 0)"/><use xlink:href="#ai" transform="matrix(.06173 0 0 .06173 280.926 0)"/><use xlink:href="#ax" transform="matrix(.06173 0 0 .06173 290.74 0)"/><use xlink:href="#ai" transform="matrix(.06173 0 0 .06173 296.914 0)"/></g><g id="p"><use xlink:href="#aS" transform="rotate(.413) scale(.06173)"/><use xlink:href="#ai" transform="matrix(.06173 0 0 .06173 15.988 0)"/><use xlink:href="#ax" transform="matrix(.06173 0 0 .06173 25.802 0)"/><use xlink:href="#ai" transform="matrix(.06173 0 0 .06173 31.975 0)"/><use xlink:href="#bf" transform="matrix(.06173 0 0 .06173 41.79 0)"/><use xlink:href="#ax" transform="matrix(.06173 0 0 .06173 54.136 0)"/><use xlink:href="#ah" transform="matrix(.06173 0 0 .06173 60.309 0)"/><use xlink:href="#bh" transform="matrix(.06173 0 0 .06173 67.654 0)"/></g><g id="q"><use xlink:href="#ak" transform="scale(.06235)"/><use xlink:href="#aI" transform="matrix(.06235 0 0 .06235 13.654 0)"/><use xlink:href="#ar" transform="matrix(.06235 0 0 .06235 32.295 0)"/><use xlink:href="#aJ" transform="matrix(.06235 0 0 .06235 44.764 0)"/><use xlink:href="#aJ" transform="matrix(.06235 0 0 .06235 57.233 0)"/><use xlink:href="#al" transform="matrix(.06235 0 0 .06235 69.702 0)"/><use xlink:href="#am" transform="matrix(.06235 0 0 .06235 84.665 0)"/><use xlink:href="#an" transform="matrix(.06235 0 0 .06235 98.32 0)"/><use xlink:href="#ao" transform="matrix(.06235 0 0 .06235 105.738 0)"/><use xlink:href="#an" transform="matrix(.06235 0 0 .06235 111.973 0)"/><use xlink:href="#ap" transform="matrix(.06235 0 0 .06235 119.392 0)"/><use xlink:href="#bb" transform="matrix(.06235 0 0 .06235 131.861 0)"/><use xlink:href="#ar" transform="matrix(.06235 0 0 .06235 148.009 0)"/><use xlink:href="#am" transform="matrix(.06235 0 0 .06235 160.478 0)"/><use xlink:href="#bc" transform="matrix(.06235 0 0 .06235 174.131 0)"/><use xlink:href="#bd" transform="matrix(.06235 0 0 .06235 187.785 0)"/><use xlink:href="#aO" transform="matrix(.06235 0 0 .06235 194.02 0)"/></g><g id="s"><use xlink:href="#aC" transform="rotate(.413) scale(.06173)"/><use xlink:href="#aw" transform="matrix(.06173 0 0 .06173 6.173 0)"/><use xlink:href="#ax" transform="matrix(.06173 0 0 .06173 17.284 0)"/><use xlink:href="#bi" transform="matrix(.06173 0 0 .06173 23.457 0)"/><use xlink:href="#bj" transform="matrix(.06173 0 0 .06173 34.568 0)"/></g><g id="t"><use xlink:href="#aX" transform="rotate(.413) scale(.06173)"/><use xlink:href="#aw" transform="matrix(.06173 0 0 .06173 7.346 0)"/><use xlink:href="#aY" transform="matrix(.06173 0 0 .06173 18.457 0)"/><use xlink:href="#av" transform="matrix(.06173 0 0 .06173 29.568 0)"/><use xlink:href="#aZ" transform="matrix(.06173 0 0 .06173 39.383 0)"/><use xlink:href="#bh" transform="matrix(.06173 0 0 .06173 50.494 0)"/></g><g id="u"><use xlink:href="#aB" transform="rotate(.413) scale(.06173)"/><use xlink:href="#av" transform="matrix(.06173 0 0 .06173 12.346 0)"/><use xlink:href="#ah" transform="matrix(.06173 0 0 .06173 22.16 0)"/><use xlink:href="#aC" transform="matrix(.06173 0 0 .06173 29.506 0)"/><use xlink:href="#ai" transform="matrix(.06173 0 0 .06173 35.679 0)"/><use xlink:href="#aD" transform="matrix(.06173 0 0 .06173 45.494 0)"/><use xlink:href="#aE" transform="matrix(.06173 0 0 .06173 51.667 0)"/><use xlink:href="#au" transform="matrix(.06173 0 0 .06173 67.654 0)"/><use xlink:href="#aF" transform="matrix(.06173 0 0 .06173 78.765 0)"/><use xlink:href="#aG" transform="matrix(.06173 0 0 .06173 96.05 0)"/><use xlink:href="#av" transform="matrix(.06173 0 0 .06173 107.16 0)"/><use xlink:href="#ah" transform="matrix(.06173 0 0 .06173 116.975 0)"/><use xlink:href="#bh" transform="matrix(.06173 0 0 .06173 124.321 0)"/></g><g id="v"><use xlink:href="#ak" transform="scale(.06235)"/><use xlink:href="#aI" transform="matrix(.06235 0 0 .06235 13.654 0)"/><use xlink:href="#ar" transform="matrix(.06235 0 0 .06235 32.295 0)"/><use xlink:href="#aJ" transform="matrix(.06235 0 0 .06235 44.764 0)"/><use xlink:href="#aJ" transform="matrix(.06235 0 0 .06235 57.233 0)"/><use xlink:href="#aK" transform="matrix(.06235 0 0 .06235 69.702 0)"/><use xlink:href="#aL" transform="matrix(.06235 0 0 .06235 85.85 0)"/><use xlink:href="#aM" transform="matrix(.06235 0 0 .06235 94.578 0)"/><use xlink:href="#aN" transform="matrix(.06235 0 0 .06235 107.048 0)"/><use xlink:href="#aO" transform="matrix(.06235 0 0 .06235 120.701 0)"/><use xlink:href="#an" transform="matrix(.06235 0 0 .06235 133.17 0)"/><use xlink:href="#ap" transform="matrix(.06235 0 0 .06235 140.59 0)"/><use xlink:href="#aP" transform="matrix(.06235 0 0 .06235 153.059 0)"/><use xlink:href="#aO" transform="matrix(.06235 0 0 .06235 166.712 0)"/><use xlink:href="#bk" transform="matrix(.06235 0 0 .06235 179.181 0)"/><use xlink:href="#bl" transform="matrix(.06235 0 0 .06235 195.329 0)"/><use xlink:href="#bm" transform="matrix(.06235 0 0 .06235 208.983 0)"/><use xlink:href="#aP" transform="matrix(.06235 0 0 .06235 228.933 0)"/><use xlink:href="#bl" transform="matrix(.06235 0 0 .06235 242.587 0)"/><use xlink:href="#aJ" transform="matrix(.06235 0 0 .06235 256.24 0)"/><use xlink:href="#ao" transform="matrix(.06235 0 0 .06235 268.71 0)"/><use xlink:href="#an" transform="matrix(.06235 0 0 .06235 274.944 0)"/><use xlink:href="#ao" transform="matrix(.06235 0 0 .06235 282.364 0)"/><use xlink:href="#bl" transform="matrix(.06235 0 0 .06235 288.598 0)"/><use xlink:href="#am" transform="matrix(.06235 0 0 .06235 302.252 0)"/><use xlink:href="#aq" transform="matrix(.06235 0 0 .06235 315.906 0)"/><use xlink:href="#aO" transform="matrix(.06235 0 0 .06235 332.053 0)"/><use xlink:href="#aJ" transform="matrix(.06235 0 0 .06235 344.522 0)"/><use xlink:href="#aM" transform="matrix(.06235 0 0 .06235 356.991 0)"/><use xlink:href="#aL" transform="matrix(.06235 0 0 .06235 369.46 0)"/><use xlink:href="#ao" transform="matrix(.06235 0 0 .06235 378.189 0)"/><use xlink:href="#aP" transform="matrix(.06235 0 0 .06235 384.423 0)"/><use xlink:href="#an" transform="matrix(.06235 0 0 .06235 398.077 0)"/><use xlink:href="#bl" transform="matrix(.06235 0 0 .06235 405.496 0)"/><use xlink:href="#aL" transform="matrix(.06235 0 0 .06235 419.15 0)"/></g><g id="w"><use xlink:href="#aU" transform="rotate(.413) scale(.06173)"/><use xlink:href="#ah" transform="matrix(.06173 0 0 .06173 12.346 0)"/><use xlink:href="#ai" transform="matrix(.06173 0 0 .06173 19.691 0)"/><use xlink:href="#aV" transform="matrix(.06173 0 0 .06173 29.506 0)"/><use xlink:href="#aF" transform="matrix(.06173 0 0 .06173 40.617 0)"/><use xlink:href="#av" transform="matrix(.06173 0 0 .06173 57.901 0)"/><use xlink:href="#aw" transform="matrix(.06173 0 0 .06173 67.716 0)"/><use xlink:href="#ax" transform="matrix(.06173 0 0 .06173 78.827 0)"/><use xlink:href="#aR" transform="matrix(.06173 0 0 .06173 85 0)"/></g><g id="x"><use xlink:href="#be" transform="rotate(.413) scale(.06173)"/><use xlink:href="#ai" transform="matrix(.06173 0 0 .06173 11.975 0)"/><use xlink:href="#aV" transform="matrix(.06173 0 0 .06173 21.79 0)"/><use xlink:href="#aR" transform="matrix(.06173 0 0 .06173 32.901 0)"/></g><g id="y"><use xlink:href="#at" transform="rotate(.413) scale(.06173)"/><use xlink:href="#az" transform="matrix(.06173 0 0 .06173 14.815 0)"/><use xlink:href="#au" transform="matrix(.06173 0 0 .06173 25.926 0)"/><use xlink:href="#aw" transform="matrix(.06173 0 0 .06173 37.037 0)"/><use xlink:href="#aT" transform="matrix(.06173 0 0 .06173 48.148 0)"/><use xlink:href="#aU" transform="matrix(.06173 0 0 .06173 59.26 0)"/><use xlink:href="#ah" transform="matrix(.06173 0 0 .06173 71.605 0)"/><use xlink:href="#ai" transform="matrix(.06173 0 0 .06173 78.95 0)"/><use xlink:href="#aV" transform="matrix(.06173 0 0 .06173 88.765 0)"/><use xlink:href="#aF" transform="matrix(.06173 0 0 .06173 99.877 0)"/><use xlink:href="#av" transform="matrix(.06173 0 0 .06173 117.16 0)"/><use xlink:href="#aw" transform="matrix(.06173 0 0 .06173 126.975 0)"/><use xlink:href="#ax" transform="matrix(.06173 0 0 .06173 138.086 0)"/><use xlink:href="#aR" transform="matrix(.06173 0 0 .06173 144.26 0)"/></g><g id="z"><use xlink:href="#aB" transform="rotate(.413) scale(.06173)"/><use xlink:href="#az" transform="matrix(.06173 0 0 .06173 12.346 0)"/><use xlink:href="#ai" transform="matrix(.06173 0 0 .06173 23.457 0)"/><use xlink:href="#ah" transform="matrix(.06173 0 0 .06173 33.272 0)"/><use xlink:href="#av" transform="matrix(.06173 0 0 .06173 40.617 0)"/><use xlink:href="#aY" transform="matrix(.06173 0 0 .06173 50.432 0)"/><use xlink:href="#aU" transform="matrix(.06173 0 0 .06173 61.543 0)"/><use xlink:href="#ah" transform="matrix(.06173 0 0 .06173 73.889 0)"/><use xlink:href="#ai" transform="matrix(.06173 0 0 .06173 81.235 0)"/><use xlink:href="#aV" transform="matrix(.06173 0 0 .06173 91.05 0)"/><use xlink:href="#aF" transform="matrix(.06173 0 0 .06173 102.16 0)"/><use xlink:href="#av" transform="matrix(.06173 0 0 .06173 119.444 0)"/><use xlink:href="#aw" transform="matrix(.06173 0 0 .06173 129.26 0)"/><use xlink:href="#ax" transform="matrix(.06173 0 0 .06173 140.37 0)"/><use xlink:href="#aR" transform="matrix(.06173 0 0 .06173 146.543 0)"/></g><g id="A"><use xlink:href="#bn" transform="rotate(.413) scale(.06173)"/><use xlink:href="#bn" transform="matrix(.06173 0 0 .06173 5.556 0)"/><use xlink:href="#bn" transform="matrix(.06173 0 0 .06173 11.111 0)"/></g><g id="B"><use xlink:href="#ay" transform="rotate(.413) scale(.06173)"/><use xlink:href="#az" transform="matrix(.06173 0 0 .06173 9.815 0)"/><use xlink:href="#au" transform="matrix(.06173 0 0 .06173 20.926 0)"/><use xlink:href="#aw" transform="matrix(.06173 0 0 .06173 32.037 0)"/><use xlink:href="#aT" transform="matrix(.06173 0 0 .06173 43.148 0)"/></g><g id="C"><use xlink:href="#ak" transform="scale(.06235)"/><use xlink:href="#aI" transform="matrix(.06235 0 0 .06235 13.654 0)"/><use xlink:href="#ar" transform="matrix(.06235 0 0 .06235 32.295 0)"/><use xlink:href="#aJ" transform="matrix(.06235 0 0 .06235 44.764 0)"/><use xlink:href="#aJ" transform="matrix(.06235 0 0 .06235 57.233 0)"/><use xlink:href="#al" transform="matrix(.06235 0 0 .06235 69.702 0)"/><use xlink:href="#am" transform="matrix(.06235 0 0 .06235 84.665 0)"/><use xlink:href="#an" transform="matrix(.06235 0 0 .06235 98.32 0)"/><use xlink:href="#ao" transform="matrix(.06235 0 0 .06235 105.738 0)"/><use xlink:href="#an" transform="matrix(.06235 0 0 .06235 111.973 0)"/><use xlink:href="#ap" transform="matrix(.06235 0 0 .06235 119.392 0)"/><use xlink:href="#aI" transform="matrix(.06235 0 0 .06235 131.861 0)"/><use xlink:href="#ar" transform="matrix(.06235 0 0 .06235 150.502 0)"/><use xlink:href="#am" transform="matrix(.06235 0 0 .06235 162.972 0)"/><use xlink:href="#ar" transform="matrix(.06235 0 0 .06235 176.625 0)"/><use xlink:href="#bo" transform="matrix(.06235 0 0 .06235 189.094 0)"/><use xlink:href="#aO" transform="matrix(.06235 0 0 .06235 202.748 0)"/><use xlink:href="#aL" transform="matrix(.06235 0 0 .06235 215.217 0)"/></g><g id="D"><use xlink:href="#aH" transform="rotate(.413) scale(.06173)"/><use xlink:href="#aw" transform="matrix(.06173 0 0 .06173 13.519 0)"/><use xlink:href="#ax" transform="matrix(.06173 0 0 .06173 24.63 0)"/><use xlink:href="#aC" transform="matrix(.06173 0 0 .06173 30.802 0)"/><use xlink:href="#ax" transform="matrix(.06173 0 0 .06173 36.975 0)"/><use xlink:href="#aC" transform="matrix(.06173 0 0 .06173 43.148 0)"/><use xlink:href="#av" transform="matrix(.06173 0 0 .06173 49.321 0)"/><use xlink:href="#aR" transform="matrix(.06173 0 0 .06173 59.136 0)"/></g><g id="E"><use xlink:href="#aU" transform="rotate(.413) scale(.06173)"/><use xlink:href="#ah" transform="matrix(.06173 0 0 .06173 12.346 0)"/><use xlink:href="#ai" transform="matrix(.06173 0 0 .06173 19.691 0)"/><use xlink:href="#aV" transform="matrix(.06173 0 0 .06173 29.506 0)"/><use xlink:href="#aF" transform="matrix(.06173 0 0 .06173 40.617 0)"/><use xlink:href="#av" transform="matrix(.06173 0 0 .06173 57.901 0)"/><use xlink:href="#aw" transform="matrix(.06173 0 0 .06173 67.716 0)"/><use xlink:href="#ax" transform="matrix(.06173 0 0 .06173 78.827 0)"/><use xlink:href="#bp" transform="matrix(.06173 0 0 .06173 85 0)"/><use xlink:href="#ai" transform="matrix(.06173 0 0 .06173 100.988 0)"/><use xlink:href="#aR" transform="matrix(.06173 0 0 .06173 110.802 0)"/><use xlink:href="#az" transform="matrix(.06173 0 0 .06173 119.444 0)"/><use xlink:href="#be" transform="matrix(.06173 0 0 .06173 130.556 0)"/><use xlink:href="#aQ" transform="matrix(.06173 0 0 .06173 142.53 0)"/><use xlink:href="#ag" transform="matrix(.06173 0 0 .06173 153.642 0)"/><use xlink:href="#ah" transform="matrix(.06173 0 0 .06173 169.63 0)"/><use xlink:href="#ay" transform="matrix(.06173 0 0 .06173 176.975 0)"/><use xlink:href="#az" transform="matrix(.06173 0 0 .06173 186.79 0)"/><use xlink:href="#av" transform="matrix(.06173 0 0 .06173 197.901 0)"/><use xlink:href="#ax" transform="matrix(.06173 0 0 .06173 207.716 0)"/><use xlink:href="#aj" transform="matrix(.06173 0 0 .06173 213.889 0)"/><use xlink:href="#aA" transform="matrix(.06173 0 0 .06173 225 0)"/><use xlink:href="#av" transform="matrix(.06173 0 0 .06173 236.111 0)"/><use xlink:href="#ba" transform="matrix(.06173 0 0 .06173 245.926 0)"/><use xlink:href="#ai" transform="matrix(.06173 0 0 .06173 265.679 0)"/><use xlink:href="#aA" transform="matrix(.06173 0 0 .06173 275.494 0)"/></g><g id="F"><use xlink:href="#aU" transform="rotate(.413) scale(.06173)"/><use xlink:href="#ah" transform="matrix(.06173 0 0 .06173 12.346 0)"/><use xlink:href="#ai" transform="matrix(.06173 0 0 .06173 19.691 0)"/><use xlink:href="#aV" transform="matrix(.06173 0 0 .06173 29.506 0)"/><use xlink:href="#aF" transform="matrix(.06173 0 0 .06173 40.617 0)"/><use xlink:href="#av" transform="matrix(.06173 0 0 .06173 57.901 0)"/><use xlink:href="#aw" transform="matrix(.06173 0 0 .06173 67.716 0)"/><use xlink:href="#ax" transform="matrix(.06173 0 0 .06173 78.827 0)"/><use xlink:href="#be" transform="matrix(.06173 0 0 .06173 85 0)"/><use xlink:href="#aj" transform="matrix(.06173 0 0 .06173 96.975 0)"/><use xlink:href="#aA" transform="matrix(.06173 0 0 .06173 108.086 0)"/><use xlink:href="#av" transform="matrix(.06173 0 0 .06173 119.198 0)"/><use xlink:href="#be" transform="matrix(.06173 0 0 .06173 129.012 0)"/><use xlink:href="#aQ" transform="matrix(.06173 0 0 .06173 140.988 0)"/><use xlink:href="#ag" transform="matrix(.06173 0 0 .06173 152.099 0)"/><use xlink:href="#ah" transform="matrix(.06173 0 0 .06173 168.086 0)"/><use xlink:href="#ay" transform="matrix(.06173 0 0 .06173 175.432 0)"/><use xlink:href="#az" transform="matrix(.06173 0 0 .06173 185.247 0)"/><use xlink:href="#av" transform="matrix(.06173 0 0 .06173 196.358 0)"/><use xlink:href="#ax" transform="matrix(.06173 0 0 .06173 206.173 0)"/><use xlink:href="#aj" transform="matrix(.06173 0 0 .06173 212.346 0)"/><use xlink:href="#aA" transform="matrix(.06173 0 0 .06173 223.457 0)"/><use xlink:href="#av" transform="matrix(.06173 0 0 .06173 234.568 0)"/><use xlink:href="#ba" transform="matrix(.06173 0 0 .06173 244.383 0)"/><use xlink:href="#ai" transform="matrix(.06173 0 0 .06173 264.136 0)"/><use xlink:href="#aA" transform="matrix(.06173 0 0 .06173 273.95 0)"/></g><g id="G"><use xlink:href="#ba" transform="rotate(.413) scale(.06173)"/><use xlink:href="#ai" transform="matrix(.06173 0 0 .06173 19.753 0)"/><use xlink:href="#aA" transform="matrix(.06173 0 0 .06173 29.568 0)"/></g><g id="H"><use xlink:href="#bq" transform="rotate(.413) scale(.06173)"/><use xlink:href="#av" transform="matrix(.06173 0 0 .06173 15.988 0)"/><use xlink:href="#aj" transform="matrix(.06173 0 0 .06173 25.802 0)"/></g><g id="I"><use xlink:href="#br" transform="rotate(.413) scale(.06173)"/><use xlink:href="#ai" transform="matrix(.06173 0 0 .06173 13.519 0)"/><use xlink:href="#aD" transform="matrix(.06173 0 0 .06173 23.333 0)"/><use xlink:href="#au" transform="matrix(.06173 0 0 .06173 29.506 0)"/><use xlink:href="#av" transform="matrix(.06173 0 0 .06173 40.617 0)"/></g><g id="J"><use xlink:href="#bp" transform="rotate(.413) scale(.06173)"/><use xlink:href="#ai" transform="matrix(.06173 0 0 .06173 15.988 0)"/><use xlink:href="#aR" transform="matrix(.06173 0 0 .06173 25.802 0)"/><use xlink:href="#az" transform="matrix(.06173 0 0 .06173 34.444 0)"/><use xlink:href="#aX" transform="matrix(.06173 0 0 .06173 45.556 0)"/><use xlink:href="#aY" transform="matrix(.06173 0 0 .06173 52.901 0)"/></g><g id="K"><use xlink:href="#be" transform="rotate(.413) scale(.06173)"/><use xlink:href="#aB" transform="matrix(.06173 0 0 .06173 13.519 0)"/><use xlink:href="#az" transform="matrix(.06173 0 0 .06173 25.864 0)"/><use xlink:href="#ai" transform="matrix(.06173 0 0 .06173 36.975 0)"/><use xlink:href="#ah" transform="matrix(.06173 0 0 .06173 46.79 0)"/><use xlink:href="#av" transform="matrix(.06173 0 0 .06173 54.136 0)"/><use xlink:href="#aY" transform="matrix(.06173 0 0 .06173 63.95 0)"/><use xlink:href="#bf" transform="matrix(.06173 0 0 .06173 75.062 0)"/><use xlink:href="#ax" transform="matrix(.06173 0 0 .06173 87.407 0)"/><use xlink:href="#ah" transform="matrix(.06173 0 0 .06173 93.58 0)"/><use xlink:href="#bg" transform="matrix(.06173 0 0 .06173 100.926 0)"/><use xlink:href="#aU" transform="matrix(.06173 0 0 .06173 113.457 0)"/><use xlink:href="#ba" transform="matrix(.06173 0 0 .06173 125.802 0)"/><use xlink:href="#ai" transform="matrix(.06173 0 0 .06173 145.556 0)"/><use xlink:href="#aR" transform="matrix(.06173 0 0 .06173 155.37 0)"/><use xlink:href="#aR" transform="matrix(.06173 0 0 .06173 164.012 0)"/><use xlink:href="#ag" transform="matrix(.06173 0 0 .06173 172.654 0)"/><use xlink:href="#ah" transform="matrix(.06173 0 0 .06173 188.642 0)"/><use xlink:href="#ay" transform="matrix(.06173 0 0 .06173 195.988 0)"/><use xlink:href="#az" transform="matrix(.06173 0 0 .06173 205.802 0)"/><use xlink:href="#av" transform="matrix(.06173 0 0 .06173 216.914 0)"/><use xlink:href="#ax" transform="matrix(.06173 0 0 .06173 226.728 0)"/><use xlink:href="#aj" transform="matrix(.06173 0 0 .06173 232.901 0)"/><use xlink:href="#aA" transform="matrix(.06173 0 0 .06173 244.012 0)"/><use xlink:href="#av" transform="matrix(.06173 0 0 .06173 255.123 0)"/><use xlink:href="#aS" transform="matrix(.06173 0 0 .06173 264.938 0)"/><use xlink:href="#ai" transform="matrix(.06173 0 0 .06173 280.926 0)"/><use xlink:href="#ax" transform="matrix(.06173 0 0 .06173 290.74 0)"/><use xlink:href="#ai" transform="matrix(.06173 0 0 .06173 296.914 0)"/><use xlink:href="#bs" transform="matrix(.06173 0 0 .06173 306.728 0)"/></g><g id="L"><use xlink:href="#aU" transform="rotate(.413) scale(.06173)"/><use xlink:href="#ba" transform="matrix(.06173 0 0 .06173 12.346 0)"/><use xlink:href="#ai" transform="matrix(.06173 0 0 .06173 32.099 0)"/><use xlink:href="#aR" transform="matrix(.06173 0 0 .06173 41.914 0)"/><use xlink:href="#aR" transform="matrix(.06173 0 0 .06173 50.556 0)"/><use xlink:href="#aU" transform="matrix(.06173 0 0 .06173 59.198 0)"/><use xlink:href="#ah" transform="matrix(.06173 0 0 .06173 71.543 0)"/><use xlink:href="#ai" transform="matrix(.06173 0 0 .06173 78.889 0)"/><use xlink:href="#aV" transform="matrix(.06173 0 0 .06173 88.704 0)"/><use xlink:href="#aF" transform="matrix(.06173 0 0 .06173 99.815 0)"/><use xlink:href="#av" transform="matrix(.06173 0 0 .06173 117.099 0)"/><use xlink:href="#aw" transform="matrix(.06173 0 0 .06173 126.914 0)"/><use xlink:href="#ax" transform="matrix(.06173 0 0 .06173 138.025 0)"/></g><g id="M"><use xlink:href="#be" transform="rotate(.413) scale(.06173)"/><use xlink:href="#ag" transform="matrix(.06173 0 0 .06173 11.728 0)"/><use xlink:href="#ah" transform="matrix(.06173 0 0 .06173 27.716 0)"/><use xlink:href="#ah" transform="matrix(.06173 0 0 .06173 35.062 0)"/><use xlink:href="#ai" transform="matrix(.06173 0 0 .06173 42.407 0)"/><use xlink:href="#aj" transform="matrix(.06173 0 0 .06173 52.222 0)"/><use xlink:href="#bg" transform="matrix(.06173 0 0 .06173 63.333 0)"/><use xlink:href="#be" transform="matrix(.06173 0 0 .06173 75.864 0)"/><use xlink:href="#aB" transform="matrix(.06173 0 0 .06173 89.383 0)"/><use xlink:href="#az" transform="matrix(.06173 0 0 .06173 101.728 0)"/><use xlink:href="#ai" transform="matrix(.06173 0 0 .06173 112.84 0)"/><use xlink:href="#ah" transform="matrix(.06173 0 0 .06173 122.654 0)"/><use xlink:href="#av" transform="matrix(.06173 0 0 .06173 130 0)"/><use xlink:href="#aY" transform="matrix(.06173 0 0 .06173 139.815 0)"/><use xlink:href="#bf" transform="matrix(.06173 0 0 .06173 150.926 0)"/><use xlink:href="#ax" transform="matrix(.06173 0 0 .06173 163.272 0)"/><use xlink:href="#ah" transform="matrix(.06173 0 0 .06173 169.444 0)"/><use xlink:href="#bg" transform="matrix(.06173 0 0 .06173 176.79 0)"/><use xlink:href="#aU" transform="matrix(.06173 0 0 .06173 189.321 0)"/><use xlink:href="#ba" transform="matrix(.06173 0 0 .06173 201.667 0)"/><use xlink:href="#ai" transform="matrix(.06173 0 0 .06173 221.42 0)"/><use xlink:href="#aR" transform="matrix(.06173 0 0 .06173 231.235 0)"/><use xlink:href="#aR" transform="matrix(.06173 0 0 .06173 239.877 0)"/><use xlink:href="#ag" transform="matrix(.06173 0 0 .06173 248.519 0)"/><use xlink:href="#ah" transform="matrix(.06173 0 0 .06173 264.506 0)"/><use xlink:href="#ay" transform="matrix(.06173 0 0 .06173 271.852 0)"/><use xlink:href="#az" transform="matrix(.06173 0 0 .06173 281.667 0)"/><use xlink:href="#av" transform="matrix(.06173 0 0 .06173 292.778 0)"/><use xlink:href="#ax" transform="matrix(.06173 0 0 .06173 302.593 0)"/><use xlink:href="#aj" transform="matrix(.06173 0 0 .06173 308.765 0)"/><use xlink:href="#aA" transform="matrix(.06173 0 0 .06173 319.877 0)"/><use xlink:href="#av" transform="matrix(.06173 0 0 .06173 330.988 0)"/><use xlink:href="#aS" transform="matrix(.06173 0 0 .06173 340.802 0)"/><use xlink:href="#ai" transform="matrix(.06173 0 0 .06173 356.79 0)"/><use xlink:href="#ax" transform="matrix(.06173 0 0 .06173 366.605 0)"/><use xlink:href="#ai" transform="matrix(.06173 0 0 .06173 372.778 0)"/><use xlink:href="#bs" transform="matrix(.06173 0 0 .06173 382.593 0)"/></g><g id="O"><use xlink:href="#aB" transform="rotate(.413) scale(.06173)"/><use xlink:href="#av" transform="matrix(.06173 0 0 .06173 12.346 0)"/><use xlink:href="#ah" transform="matrix(.06173 0 0 .06173 22.16 0)"/><use xlink:href="#aC" transform="matrix(.06173 0 0 .06173 29.506 0)"/><use xlink:href="#ai" transform="matrix(.06173 0 0 .06173 35.679 0)"/><use xlink:href="#aD" transform="matrix(.06173 0 0 .06173 45.494 0)"/><use xlink:href="#aE" transform="matrix(.06173 0 0 .06173 51.667 0)"/><use xlink:href="#au" transform="matrix(.06173 0 0 .06173 67.654 0)"/><use xlink:href="#aF" transform="matrix(.06173 0 0 .06173 78.765 0)"/><use xlink:href="#aG" transform="matrix(.06173 0 0 .06173 96.05 0)"/><use xlink:href="#av" transform="matrix(.06173 0 0 .06173 107.16 0)"/><use xlink:href="#ah" transform="matrix(.06173 0 0 .06173 116.975 0)"/><use xlink:href="#bt" transform="matrix(.06173 0 0 .06173 124.321 0)"/><use xlink:href="#av" transform="matrix(.06173 0 0 .06173 140.309 0)"/><use xlink:href="#aw" transform="matrix(.06173 0 0 .06173 150.123 0)"/><use xlink:href="#av" transform="matrix(.06173 0 0 .06173 161.235 0)"/><use xlink:href="#ah" transform="matrix(.06173 0 0 .06173 171.05 0)"/><use xlink:href="#ai" transform="matrix(.06173 0 0 .06173 178.395 0)"/><use xlink:href="#ax" transform="matrix(.06173 0 0 .06173 188.21 0)"/><use xlink:href="#aQ" transform="matrix(.06173 0 0 .06173 194.383 0)"/><use xlink:href="#ah" transform="matrix(.06173 0 0 .06173 205.494 0)"/></g><g id="P"><use xlink:href="#ak" transform="scale(.06235)"/><use xlink:href="#aI" transform="matrix(.06235 0 0 .06235 13.654 0)"/><use xlink:href="#ar" transform="matrix(.06235 0 0 .06235 32.295 0)"/><use xlink:href="#aJ" transform="matrix(.06235 0 0 .06235 44.764 0)"/><use xlink:href="#aJ" transform="matrix(.06235 0 0 .06235 57.233 0)"/><use xlink:href="#aK" transform="matrix(.06235 0 0 .06235 69.702 0)"/><use xlink:href="#aL" transform="matrix(.06235 0 0 .06235 85.85 0)"/><use xlink:href="#aM" transform="matrix(.06235 0 0 .06235 94.578 0)"/><use xlink:href="#aN" transform="matrix(.06235 0 0 .06235 107.048 0)"/><use xlink:href="#aO" transform="matrix(.06235 0 0 .06235 120.701 0)"/><use xlink:href="#an" transform="matrix(.06235 0 0 .06235 133.17 0)"/><use xlink:href="#ap" transform="matrix(.06235 0 0 .06235 140.59 0)"/><use xlink:href="#aP" transform="matrix(.06235 0 0 .06235 153.059 0)"/><use xlink:href="#aO" transform="matrix(.06235 0 0 .06235 166.712 0)"/><use xlink:href="#bk" transform="matrix(.06235 0 0 .06235 179.181 0)"/><use xlink:href="#aN" transform="matrix(.06235 0 0 .06235 195.329 0)"/><use xlink:href="#bu" transform="matrix(.06235 0 0 .06235 208.983 0)"/><use xlink:href="#am" transform="matrix(.06235 0 0 .06235 222.636 0)"/><use xlink:href="#bv" transform="matrix(.06235 0 0 .06235 236.29 0)"/></g><g id="R"><use xlink:href="#ag" transform="scale(.0679)"/><use xlink:href="#aD" transform="translate(17.586) scale(.0679)"/><use xlink:href="#aD" transform="translate(24.377) scale(.0679)"/><use xlink:href="#aQ" transform="translate(31.167) scale(.0679)"/><use xlink:href="#ay" transform="translate(43.389) scale(.0679)"/><use xlink:href="#aB" transform="translate(54.185) scale(.0679)"/><use xlink:href="#aC" transform="translate(67.765) scale(.0679)"/><use xlink:href="#bw" transform="translate(74.556) scale(.0679)"/><use xlink:href="#av" transform="translate(85.352) scale(.0679)"/><use xlink:href="#bh" transform="translate(96.148) scale(.0679)"/></g><g id="S"><use xlink:href="#at" transform="scale(.0679)"/><use xlink:href="#az" transform="translate(16.296) scale(.0679)"/><use xlink:href="#au" transform="translate(28.519) scale(.0679)"/><use xlink:href="#aw" transform="translate(40.74) scale(.0679)"/><use xlink:href="#aT" transform="translate(52.963) scale(.0679)"/><use xlink:href="#aU" transform="translate(65.185) scale(.0679)"/><use xlink:href="#ah" transform="translate(78.765) scale(.0679)"/><use xlink:href="#ai" transform="translate(86.846) scale(.0679)"/><use xlink:href="#aV" transform="translate(97.642) scale(.0679)"/><use xlink:href="#aF" transform="translate(109.864) scale(.0679)"/><use xlink:href="#av" transform="translate(128.877) scale(.0679)"/><use xlink:href="#aw" transform="translate(139.673) scale(.0679)"/><use xlink:href="#ax" transform="translate(151.895) scale(.0679)"/><use xlink:href="#aS" transform="translate(158.685) scale(.0679)"/><use xlink:href="#ai" transform="translate(176.272) scale(.0679)"/><use xlink:href="#ax" transform="translate(187.068) scale(.0679)"/><use xlink:href="#ai" transform="translate(193.858) scale(.0679)"/><use xlink:href="#bh" transform="translate(204.654) scale(.0679)"/></g><g id="T"><use xlink:href="#aB" transform="scale(.0679)"/><use xlink:href="#az" transform="translate(13.58) scale(.0679)"/><use xlink:href="#ai" transform="translate(25.802) scale(.0679)"/><use xlink:href="#ah" transform="translate(36.599) scale(.0679)"/><use xlink:href="#av" transform="translate(44.679) scale(.0679)"/><use xlink:href="#aY" transform="translate(55.475) scale(.0679)"/><use xlink:href="#aU" transform="translate(67.698) scale(.0679)"/><use xlink:href="#ah" transform="translate(81.278) scale(.0679)"/><use xlink:href="#ai" transform="translate(89.358) scale(.0679)"/><use xlink:href="#aV" transform="translate(100.154) scale(.0679)"/><use xlink:href="#aF" transform="translate(112.377) scale(.0679)"/><use xlink:href="#av" transform="translate(131.389) scale(.0679)"/><use xlink:href="#aw" transform="translate(142.185) scale(.0679)"/><use xlink:href="#ax" transform="translate(154.407) scale(.0679)"/><use xlink:href="#br" transform="translate(161.198) scale(.0679)"/><use xlink:href="#ai" transform="translate(176.068) scale(.0679)"/><use xlink:href="#aD" transform="translate(186.864) scale(.0679)"/><use xlink:href="#au" transform="translate(193.654) scale(.0679)"/><use xlink:href="#av" transform="translate(205.877) scale(.0679)"/><use xlink:href="#aR" transform="translate(216.673) scale(.0679)"/></g><g id="V"><use xlink:href="#au" transform="scale(.0679)"/><use xlink:href="#aC" transform="translate(12.222) scale(.0679)"/><use xlink:href="#aw" transform="translate(19.012) scale(.0679)"/><use xlink:href="#ax" transform="translate(31.235) scale(.0679)"/><use xlink:href="#bx" transform="translate(38.025) scale(.0679)"/><use xlink:href="#by" transform="translate(50.247) scale(.0679)"/></g><g id="W"><use xlink:href="#bz" transform="scale(.0679)"/><use xlink:href="#ai" transform="translate(16.296) scale(.0679)"/><use xlink:href="#bA" transform="translate(27.093) scale(.0679)"/><use xlink:href="#ba" transform="translate(44.679) scale(.0679)"/><use xlink:href="#av" transform="translate(66.407) scale(.0679)"/><use xlink:href="#aF" transform="translate(77.204) scale(.0679)"/><use xlink:href="#aQ" transform="translate(96.216) scale(.0679)"/><use xlink:href="#ah" transform="translate(108.438) scale(.0679)"/><use xlink:href="#aj" transform="translate(116.519) scale(.0679)"/><use xlink:href="#bh" transform="translate(128.74) scale(.0679)"/></g><g id="X"><use xlink:href="#ay" transform="rotate(.413) scale(.06173)"/><use xlink:href="#az" transform="matrix(.06173 0 0 .06173 9.815 0)"/><use xlink:href="#au" transform="matrix(.06173 0 0 .06173 20.926 0)"/><use xlink:href="#aw" transform="matrix(.06173 0 0 .06173 32.037 0)"/><use xlink:href="#aT" transform="matrix(.06173 0 0 .06173 43.148 0)"/></g><g id="Y"><use xlink:href="#bB" transform="rotate(.413) scale(.06173)"/><use xlink:href="#bj" transform="matrix(.06173 0 0 .06173 11.111 0)"/><use xlink:href="#bx" transform="matrix(.06173 0 0 .06173 22.222 0)"/><use xlink:href="#bq" transform="matrix(.06173 0 0 .06173 33.333 0)"/></g><g id="Z"><use xlink:href="#aU" transform="rotate(.413) scale(.06173)"/><use xlink:href="#ba" transform="matrix(.06173 0 0 .06173 12.346 0)"/><use xlink:href="#ai" transform="matrix(.06173 0 0 .06173 32.099 0)"/><use xlink:href="#aR" transform="matrix(.06173 0 0 .06173 41.914 0)"/><use xlink:href="#aR" transform="matrix(.06173 0 0 .06173 50.556 0)"/><use xlink:href="#aH" transform="matrix(.06173 0 0 .06173 59.198 0)"/><use xlink:href="#aw" transform="matrix(.06173 0 0 .06173 72.716 0)"/><use xlink:href="#ax" transform="matrix(.06173 0 0 .06173 83.827 0)"/><use xlink:href="#aC" transform="matrix(.06173 0 0 .06173 90 0)"/><use xlink:href="#ax" transform="matrix(.06173 0 0 .06173 96.173 0)"/><use xlink:href="#aj" transform="matrix(.06173 0 0 .06173 102.346 0)"/><use xlink:href="#bp" transform="matrix(.06173 0 0 .06173 113.457 0)"/><use xlink:href="#ai" transform="matrix(.06173 0 0 .06173 129.444 0)"/><use xlink:href="#aw" transform="matrix(.06173 0 0 .06173 139.26 0)"/><use xlink:href="#aY" transform="matrix(.06173 0 0 .06173 150.37 0)"/><use xlink:href="#aD" transform="matrix(.06173 0 0 .06173 161.481 0)"/><use xlink:href="#av" transform="matrix(.06173 0 0 .06173 167.654 0)"/></g><g id="aa"><use xlink:href="#aX" transform="rotate(.413) scale(.06173)"/><use xlink:href="#aw" transform="matrix(.06173 0 0 .06173 7.346 0)"/><use xlink:href="#aY" transform="matrix(.06173 0 0 .06173 18.457 0)"/><use xlink:href="#av" transform="matrix(.06173 0 0 .06173 29.568 0)"/><use xlink:href="#aZ" transform="matrix(.06173 0 0 .06173 39.383 0)"/></g><g id="ab"><use xlink:href="#aB" transform="rotate(.413) scale(.06173)"/><use xlink:href="#av" transform="matrix(.06173 0 0 .06173 12.346 0)"/><use xlink:href="#ah" transform="matrix(.06173 0 0 .06173 22.16 0)"/><use xlink:href="#aC" transform="matrix(.06173 0 0 .06173 29.506 0)"/><use xlink:href="#ai" transform="matrix(.06173 0 0 .06173 35.679 0)"/><use xlink:href="#aD" transform="matrix(.06173 0 0 .06173 45.494 0)"/><use xlink:href="#aE" transform="matrix(.06173 0 0 .06173 51.667 0)"/><use xlink:href="#au" transform="matrix(.06173 0 0 .06173 67.654 0)"/><use xlink:href="#aF" transform="matrix(.06173 0 0 .06173 78.765 0)"/><use xlink:href="#aG" transform="matrix(.06173 0 0 .06173 96.05 0)"/><use xlink:href="#av" transform="matrix(.06173 0 0 .06173 107.16 0)"/><use xlink:href="#ah" transform="matrix(.06173 0 0 .06173 116.975 0)"/></g><g id="ac"><use xlink:href="#aU" transform="rotate(.413) scale(.06173)"/><use xlink:href="#ah" transform="matrix(.06173 0 0 .06173 12.346 0)"/><use xlink:href="#ai" transform="matrix(.06173 0 0 .06173 19.691 0)"/><use xlink:href="#aV" transform="matrix(.06173 0 0 .06173 29.506 0)"/><use xlink:href="#aF" transform="matrix(.06173 0 0 .06173 40.617 0)"/><use xlink:href="#av" transform="matrix(.06173 0 0 .06173 57.901 0)"/><use xlink:href="#aw" transform="matrix(.06173 0 0 .06173 67.716 0)"/><use xlink:href="#ax" transform="matrix(.06173 0 0 .06173 78.827 0)"/></g><use id="c" xlink:href="#as" transform="rotate(.413) scale(.06173)"/><use id="n" xlink:href="#as" transform="rotate(.413) scale(.06173)"/><use id="r" xlink:href="#as" transform="rotate(.413) scale(.06173)"/><use id="N" xlink:href="#bs" transform="rotate(.413) scale(.06173)"/><use id="Q" xlink:href="#as" transform="scale(.0679)"/><use id="U" xlink:href="#as" transform="scale(.0679)"/><use id="ad" xlink:href="#bB" transform="rotate(.413) scale(.06173)"/><use id="ae" xlink:href="#bj" transform="rotate(.413) scale(.06173)"/><use id="af" xlink:href="#bi" transform="rotate(.413) scale(.06173)"/></defs></svg>