<?xml version="1.0" encoding="UTF-8" standalone="no"?><svg xmlns="http://www.w3.org/2000/svg" xmlns:xlink="http://www.w3.org/1999/xlink" contentScriptType="application/ecmascript" contentStyleType="text/css" height="1115px" preserveAspectRatio="none" style="width:1352px;height:1115px;background:#FFFFFF;" version="1.1" viewBox="0 0 1352 1115" width="1352px" zoomAndPan="magnify"><defs><filter height="300%" id="f1rlx795q7e1rf" width="300%" x="-1" y="-1"><feGaussianBlur result="blurOut" stdDeviation="2.0"/><feColorMatrix in="blurOut" result="blurOut2" type="matrix" values="0 0 0 0 0 0 0 0 0 0 0 0 0 0 0 0 0 0 .4 0"/><feOffset dx="4.0" dy="4.0" in="blurOut2" result="blurOut3"/><feBlend in="SourceGraphic" in2="blurOut3" mode="normal"/></filter></defs><g><ellipse cx="163" cy="16" fill="#000000" filter="url(#f1rlx795q7e1rf)" rx="10" ry="10" style="stroke:none;stroke-width:1.0;"/><rect fill="#FEFECE" filter="url(#f1rlx795q7e1rf)" height="33.9688" rx="12.5" ry="12.5" style="stroke:#A80036;stroke-width:1.5;" width="129" x="98.5" y="67"/><text fill="#000000" font-family="sans-serif" font-size="12" lengthAdjust="spacing" textLength="109" x="108.5" y="88.1387">FEngineLoop::Tick</text><rect fill="#FEFECE" filter="url(#f1rlx795q7e1rf)" height="33.9688" rx="12.5" ry="12.5" style="stroke:#A80036;stroke-width:1.5;" width="155" x="85.5" y="142"/><text fill="#000000" font-family="sans-serif" font-size="12" lengthAdjust="spacing" textLength="135" x="95.5" y="163.1387">FSlateApplication::Tick</text><rect fill="#FEFECE" filter="url(#f1rlx795q7e1rf)" height="33.9688" rx="12.5" ry="12.5" style="stroke:#A80036;stroke-width:1.5;" width="259" x="33.5" y="217"/><text fill="#000000" font-family="sans-serif" font-size="12" lengthAdjust="spacing" textLength="239" x="43.5" y="238.1387">FSlateApplication::TickAndDrawWidgets</text><rect fill="#FEFECE" filter="url(#f1rlx795q7e1rf)" height="33.9688" rx="12.5" ry="12.5" style="stroke:#A80036;stroke-width:1.5;" width="224" x="51" y="292"/><text fill="#000000" font-family="sans-serif" font-size="12" lengthAdjust="spacing" textLength="204" x="61" y="313.1387">FSlateApplication::DrawWindowns</text><rect fill="#FEFECE" filter="url(#f1rlx795q7e1rf)" height="33.9688" rx="12.5" ry="12.5" style="stroke:#A80036;stroke-width:1.5;" width="257" x="34.5" y="367"/><text fill="#000000" font-family="sans-serif" font-size="12" lengthAdjust="spacing" textLength="237" x="44.5" y="388.1387">FSlateApplication::PrivateDrawWindows</text><polygon fill="#FEFECE" filter="url(#f1rlx795q7e1rf)" points="163,447,175,459,163,471,151,459,163,447" style="stroke:#A80036;stroke-width:1.5;"/><rect fill="#FEFECE" filter="url(#f1rlx795q7e1rf)" height="33.9688" rx="12.5" ry="12.5" style="stroke:#A80036;stroke-width:1.5;" width="282" x="336" y="442"/><text fill="#000000" font-family="sans-serif" font-size="12" lengthAdjust="spacing" textLength="262" x="346" y="463.1387">FSlateApplication::DrawWindowAndChildren</text><rect fill="#FEFECE" filter="url(#f1rlx795q7e1rf)" height="33.9688" rx="12.5" ry="12.5" style="stroke:#A80036;stroke-width:1.5;" width="159" x="638.5" y="442"/><text fill="#000000" font-family="sans-serif" font-size="12" lengthAdjust="spacing" textLength="139" x="648.5" y="463.1387">SWindow::PaintWindow</text><rect fill="#FEFECE" filter="url(#f1rlx795q7e1rf)" height="33.9688" rx="12.5" ry="12.5" style="stroke:#A80036;stroke-width:1.5;" width="280" x="818" y="442"/><text fill="#000000" font-family="sans-serif" font-size="12" lengthAdjust="spacing" textLength="260" x="828" y="463.1387">FSlateInvalidationRoot::PaintInvalidationRoot</text><rect fill="#FEFECE" filter="url(#f1rlx795q7e1rf)" height="33.9688" rx="12.5" ry="12.5" style="stroke:#A80036;stroke-width:1.5;" width="164" x="1118" y="442"/><text fill="#000000" font-family="sans-serif" font-size="12" lengthAdjust="spacing" textLength="144" x="1128" y="463.1387">SWindow::PaintSlowPath</text><rect fill="#FEFECE" filter="url(#f1rlx795q7e1rf)" height="33.9688" rx="12.5" ry="12.5" style="stroke:#A80036;stroke-width:1.5;" width="106" x="1147" y="530"/><text fill="#000000" font-family="sans-serif" font-size="12" lengthAdjust="spacing" textLength="86" x="1157" y="551.1387">SWidget::Paint</text><rect fill="#FEFECE" filter="url(#f1rlx795q7e1rf)" height="33.9688" rx="12.5" ry="12.5" style="stroke:#A80036;stroke-width:1.5;" width="92" x="1154" y="605"/><text fill="#000000" font-family="sans-serif" font-size="12" lengthAdjust="spacing" textLength="72" x="1164" y="626.1387">XXX:OnPaint</text><rect fill="#FEFECE" filter="url(#f1rlx795q7e1rf)" height="33.9688" rx="12.5" ry="12.5" style="stroke:#A80036;stroke-width:1.5;" width="199" x="1100.5" y="680"/><text fill="#000000" font-family="sans-serif" font-size="12" lengthAdjust="spacing" textLength="179" x="1110.5" y="701.1387">FSlateDrawElement::MakeBox</text><rect fill="#FEFECE" filter="url(#f1rlx795q7e1rf)" height="33.9688" rx="12.5" ry="12.5" style="stroke:#A80036;stroke-width:1.5;" width="277" x="1061.5" y="755"/><text fill="#000000" font-family="sans-serif" font-size="12" lengthAdjust="spacing" textLength="257" x="1071.5" y="776.1387">FSlateWindowElementList::AddUninitialized</text><rect fill="#FEFECE" filter="url(#f1rlx795q7e1rf)" height="33.9688" rx="12.5" ry="12.5" style="stroke:#A80036;stroke-width:1.5;" width="214" x="56" y="530"/><text fill="#000000" font-family="sans-serif" font-size="12" lengthAdjust="spacing" textLength="194" x="66" y="551.1387">FSlateRenderer::DrawWindowns</text><rect fill="#FEFECE" filter="url(#f1rlx795q7e1rf)" height="33.9688" rx="12.5" ry="12.5" style="stroke:#A80036;stroke-width:1.5;" width="272" x="27" y="605"/><text fill="#000000" font-family="sans-serif" font-size="12" lengthAdjust="spacing" textLength="252" x="37" y="626.1387">FSlateRHIRenderer::DrawWindows_Private</text><rect fill="#FEFECE" filter="url(#f1rlx795q7e1rf)" height="33.9688" rx="12.5" ry="12.5" style="stroke:#A80036;stroke-width:1.5;" width="271" x="27.5" y="680"/><text fill="#000000" font-family="sans-serif" font-size="12" lengthAdjust="spacing" textLength="251" x="37.5" y="701.1387">ResourceManager::UpdateTextureAtlases</text><rect fill="#FEFECE" filter="url(#f1rlx795q7e1rf)" height="33.9688" rx="12.5" ry="12.5" style="stroke:#A80036;stroke-width:1.5;" width="310" x="8" y="755"/><text fill="#000000" font-family="sans-serif" font-size="12" lengthAdjust="spacing" textLength="290" x="18" y="776.1387">FSlateRHIRenderer::DrawWindow_RenderThread</text><polygon fill="#FEFECE" filter="url(#f1rlx795q7e1rf)" points="163,835,175,847,163,859,151,847,163,835" style="stroke:#A80036;stroke-width:1.5;"/><rect fill="#FEFECE" filter="url(#f1rlx795q7e1rf)" height="33.9688" rx="12.5" ry="12.5" style="stroke:#A80036;stroke-width:1.5;" width="238" x="273" y="830"/><text fill="#000000" font-family="sans-serif" font-size="12" lengthAdjust="spacing" textLength="218" x="283" y="851.1387">FSlateElementBatcher::AddElements</text><rect fill="#FEFECE" filter="url(#f1rlx795q7e1rf)" height="33.9688" rx="12.5" ry="12.5" style="stroke:#A80036;stroke-width:1.5;" width="283" x="531.5" y="830"/><text fill="#000000" font-family="sans-serif" font-size="12" lengthAdjust="spacing" textLength="263" x="541.5" y="851.1387">FSlateElementBatcher::AddCachedElements</text><rect fill="#FEFECE" filter="url(#f1rlx795q7e1rf)" height="33.9688" rx="12.5" ry="12.5" style="stroke:#A80036;stroke-width:1.5;" width="282" x="532" y="918"/><text fill="#000000" font-family="sans-serif" font-size="12" lengthAdjust="spacing" textLength="262" x="542" y="939.1387">FSlateElementBatcher::AddElementsInternal</text><rect fill="#FEFECE" filter="url(#f1rlx795q7e1rf)" height="33.9688" rx="12.5" ry="12.5" style="stroke:#A80036;stroke-width:1.5;" width="278" x="534" y="993"/><text fill="#000000" font-family="sans-serif" font-size="12" lengthAdjust="spacing" textLength="258" x="544" y="1014.1387">FSlateElementBatcher::AddAddBoxElement</text><rect fill="#FEFECE" filter="url(#f1rlx795q7e1rf)" height="33.9688" rx="12.5" ry="12.5" style="stroke:#A80036;stroke-width:1.5;" width="275" x="535.5" y="1068"/><text fill="#000000" font-family="sans-serif" font-size="12" lengthAdjust="spacing" textLength="255" x="545.5" y="1089.1387">FSlateElementBatcher::CreateRenderBatch</text><rect fill="#FEFECE" filter="url(#f1rlx795q7e1rf)" height="33.9688" rx="12.5" ry="12.5" style="stroke:#A80036;stroke-width:1.5;" width="312" x="7" y="918"/><text fill="#000000" font-family="sans-serif" font-size="12" lengthAdjust="spacing" textLength="292" x="17" y="939.1387">FSlateRHIRenderingPolicy::BuildRenderingBuffers</text><rect fill="#FEFECE" filter="url(#f1rlx795q7e1rf)" height="33.9688" rx="12.5" ry="12.5" style="stroke:#A80036;stroke-width:1.5;" width="255" x="35.5" y="993"/><text fill="#000000" font-family="sans-serif" font-size="12" lengthAdjust="spacing" textLength="235" x="45.5" y="1014.1387">FSlateBatchData::MergeRenderBatches</text><rect fill="#FEFECE" filter="url(#f1rlx795q7e1rf)" height="33.9688" rx="12.5" ry="12.5" style="stroke:#A80036;stroke-width:1.5;" width="265" x="30.5" y="1068"/><text fill="#000000" font-family="sans-serif" font-size="12" lengthAdjust="spacing" textLength="245" x="40.5" y="1089.1387">FSlateRHIRenderingPolicy::DrawElements</text><!--MD5=[9836d159a2f03a780845c0bb126b4e6b]
link start to FEngineLoop::Tick--><path d="M163,26.18 C163,35.27 163,49.53 163,61.49 " fill="none" id="start-to-FEngineLoop::Tick" style="stroke:#A80036;stroke-width:1.0;"/><polygon fill="#A80036" points="163,66.79,167,57.79,163,61.79,159,57.79,163,66.79" style="stroke:#A80036;stroke-width:1.0;"/><!--MD5=[64226a8f18efb4bf2e53e1b76b1b4b57]
link FEngineLoop::Tick to FSlateApplication::Tick--><path d="M163,101.2 C163,111.692 163,125.463 163,136.818 " fill="none" id="FEngineLoop::Tick-to-FSlateApplication::Tick" style="stroke:#A80036;stroke-width:1.0;"/><polygon fill="#A80036" points="163,141.844,167,132.844,163,136.844,159,132.844,163,141.844" style="stroke:#A80036;stroke-width:1.0;"/><!--MD5=[590c2b799af11cde1478fde9f678c829]
link FSlateApplication::Tick to FSlateApplication::TickAndDrawWidgets--><path d="M163,176.201 C163,186.692 163,200.463 163,211.818 " fill="none" id="FSlateApplication::Tick-to-FSlateApplication::TickAndDrawWidgets" style="stroke:#A80036;stroke-width:1.0;"/><polygon fill="#A80036" points="163,216.844,167,207.844,163,211.844,159,207.844,163,216.844" style="stroke:#A80036;stroke-width:1.0;"/><!--MD5=[df97ff1325abe6f49041f3013eb481ef]
link FSlateApplication::TickAndDrawWidgets to FSlateApplication::DrawWindowns--><path d="M163,251.201 C163,261.692 163,275.463 163,286.818 " fill="none" id="FSlateApplication::TickAndDrawWidgets-to-FSlateApplication::DrawWindowns" style="stroke:#A80036;stroke-width:1.0;"/><polygon fill="#A80036" points="163,291.844,167,282.844,163,286.844,159,282.844,163,291.844" style="stroke:#A80036;stroke-width:1.0;"/><!--MD5=[e971b629bf3be59c59c259bfdc4a8b45]
link FSlateApplication::DrawWindowns to FSlateApplication::PrivateDrawWindows--><path d="M163,326.201 C163,336.692 163,350.463 163,361.818 " fill="none" id="FSlateApplication::DrawWindowns-to-FSlateApplication::PrivateDrawWindows" style="stroke:#A80036;stroke-width:1.0;"/><polygon fill="#A80036" points="163,366.844,167,357.844,163,361.844,159,357.844,163,366.844" style="stroke:#A80036;stroke-width:1.0;"/><!--MD5=[1bcce5ebb0f6a3a4a1f3e05d56b73c8a]
link FSlateApplication::PrivateDrawWindows to #486992--><path d="M163,401.201 C163,413.149 163,429.351 163,441.394 " fill="none" id="FSlateApplication::PrivateDrawWindows-to-#486992" style="stroke:#A80036;stroke-width:1.0;"/><polygon fill="#A80036" points="163,446.604,167,437.604,163,441.604,159,437.604,163,446.604" style="stroke:#A80036;stroke-width:1.0;"/><text fill="#000000" font-family="sans-serif" font-size="11" lengthAdjust="spacing" textLength="0" x="162.075" y="436.4924"/><!--MD5=[29d30cccecec4c7a49e0112e198b7900]
link #486992 to FSlateApplication::DrawWindowAndChildren--><path d="M175.309,459 C201.888,459 267.367,459 330.556,459 " fill="none" id="#486992-to-FSlateApplication::DrawWindowAndChildren" style="stroke:#A80036;stroke-width:1.0;"/><polygon fill="#A80036" points="335.879,459,326.879,455,330.879,459,326.879,463,335.879,459" style="stroke:#A80036;stroke-width:1.0;"/><text fill="#000000" font-family="sans-serif" font-size="11" lengthAdjust="spacing" textLength="71" x="218" y="453.2104">Widget Paint</text><!--MD5=[20d27b718dd9b61061d83c42d68d006c]
link FSlateApplication::DrawWindowAndChildren to SWindow::PaintWindow--><path d="M618.211,459 C623.278,459 628.346,459 633.413,459 " fill="none" id="FSlateApplication::DrawWindowAndChildren-to-SWindow::PaintWindow" style="stroke:#A80036;stroke-width:1.0;"/><polygon fill="#A80036" points="638.481,459,629.481,455,633.481,459,629.481,463,638.481,459" style="stroke:#A80036;stroke-width:1.0;"/><!--MD5=[847ca83d46548d268314baf5fd8e3c0e]
link SWindow::PaintWindow to FSlateInvalidationRoot::PaintInvalidationRoot--><path d="M797.688,459 C802.697,459 807.707,459 812.717,459 " fill="none" id="SWindow::PaintWindow-to-FSlateInvalidationRoot::PaintInvalidationRoot" style="stroke:#A80036;stroke-width:1.0;"/><polygon fill="#A80036" points="817.727,459,808.727,455,812.727,459,808.727,463,817.727,459" style="stroke:#A80036;stroke-width:1.0;"/><!--MD5=[808bb3731f7f596842ea5c741fe5767b]
link FSlateInvalidationRoot::PaintInvalidationRoot to SWindow::PaintSlowPath--><path d="M1098.38,459 C1103.14,459 1107.9,459 1112.66,459 " fill="none" id="FSlateInvalidationRoot::PaintInvalidationRoot-to-SWindow::PaintSlowPath" style="stroke:#A80036;stroke-width:1.0;"/><polygon fill="#A80036" points="1117.83,459,1108.83,455,1112.83,459,1108.83,463,1117.83,459" style="stroke:#A80036;stroke-width:1.0;"/><!--MD5=[53b90bb9f8638f591643801b09c852ce]
link SWindow::PaintSlowPath to SWidget::Paint--><path d="M1200,476.176 C1200,489.87 1200,509.606 1200,524.605 " fill="none" id="SWindow::PaintSlowPath-to-SWidget::Paint" style="stroke:#A80036;stroke-width:1.0;"/><polygon fill="#A80036" points="1200,529.897,1204,520.897,1200,524.897,1196,520.897,1200,529.897" style="stroke:#A80036;stroke-width:1.0;"/><!--MD5=[df90d723954d6bc044d744f9f6be9365]
link SWidget::Paint to XXX:OnPaint--><path d="M1200,564.201 C1200,574.692 1200,588.463 1200,599.818 " fill="none" id="SWidget::Paint-to-XXX:OnPaint" style="stroke:#A80036;stroke-width:1.0;"/><polygon fill="#A80036" points="1200,604.844,1204,595.844,1200,599.844,1196,595.844,1200,604.844" style="stroke:#A80036;stroke-width:1.0;"/><!--MD5=[f7d7c4a2927a6295ec3bfc7c211801bc]
link XXX:OnPaint to FSlateDrawElement::MakeBox--><path d="M1200,639.201 C1200,649.692 1200,663.463 1200,674.818 " fill="none" id="XXX:OnPaint-to-FSlateDrawElement::MakeBox" style="stroke:#A80036;stroke-width:1.0;"/><polygon fill="#A80036" points="1200,679.844,1204,670.844,1200,674.844,1196,670.844,1200,679.844" style="stroke:#A80036;stroke-width:1.0;"/><!--MD5=[b8a96c65da9860039713d58045f0c718]
link FSlateDrawElement::MakeBox to FSlateWindowElementList::AddUninitialized--><path d="M1200,714.201 C1200,724.692 1200,738.463 1200,749.818 " fill="none" id="FSlateDrawElement::MakeBox-to-FSlateWindowElementList::AddUninitialized" style="stroke:#A80036;stroke-width:1.0;"/><polygon fill="#A80036" points="1200,754.844,1204,745.844,1200,749.844,1196,745.844,1200,754.844" style="stroke:#A80036;stroke-width:1.0;"/><!--MD5=[e747bdb05f67bf0b759bc1c643a42a39]
link #486992 to FSlateRenderer::DrawWindowns--><path d="M163,471.243 C163,484.777 163,507.793 163,524.72 " fill="none" id="#486992-to-FSlateRenderer::DrawWindowns" style="stroke:#A80036;stroke-width:1.0;"/><polygon fill="#A80036" points="163,529.761,167,520.761,163,524.761,159,520.761,163,529.761" style="stroke:#A80036;stroke-width:1.0;"/><text fill="#000000" font-family="sans-serif" font-size="11" lengthAdjust="spacing" textLength="71" x="164" y="507.2104">SlateRender</text><!--MD5=[5c93a4ab293ef96aca5bd410cabac4da]
link FSlateRenderer::DrawWindowns to FSlateRHIRenderer::DrawWindows_Private--><path d="M163,564.201 C163,574.692 163,588.463 163,599.818 " fill="none" id="FSlateRenderer::DrawWindowns-to-FSlateRHIRenderer::DrawWindows_Private" style="stroke:#A80036;stroke-width:1.0;"/><polygon fill="#A80036" points="163,604.844,167,595.844,163,599.844,159,595.844,163,604.844" style="stroke:#A80036;stroke-width:1.0;"/><!--MD5=[656909bd54c0ddddc39d8b1365a68fd6]
link FSlateRHIRenderer::DrawWindows_Private to ResourceManager::UpdateTextureAtlases--><path d="M163,639.201 C163,649.692 163,663.463 163,674.818 " fill="none" id="FSlateRHIRenderer::DrawWindows_Private-to-ResourceManager::UpdateTextureAtlases" style="stroke:#A80036;stroke-width:1.0;"/><polygon fill="#A80036" points="163,679.844,167,670.844,163,674.844,159,670.844,163,679.844" style="stroke:#A80036;stroke-width:1.0;"/><!--MD5=[fc4bc482120e087c163d9fc45532f842]
link ResourceManager::UpdateTextureAtlases to FSlateRHIRenderer::DrawWindow_RenderThread--><path d="M163,714.201 C163,724.692 163,738.463 163,749.818 " fill="none" id="ResourceManager::UpdateTextureAtlases-to-FSlateRHIRenderer::DrawWindow_RenderThread" style="stroke:#A80036;stroke-width:1.0;"/><polygon fill="#A80036" points="163,754.844,167,745.844,163,749.844,159,745.844,163,754.844" style="stroke:#A80036;stroke-width:1.0;"/><!--MD5=[9fd4b877295f7e0e37c00032e08c581c]
link FSlateRHIRenderer::DrawWindow_RenderThread to #487019--><path d="M163,789.201 C163,801.149 163,817.351 163,829.394 " fill="none" id="FSlateRHIRenderer::DrawWindow_RenderThread-to-#487019" style="stroke:#A80036;stroke-width:1.0;"/><polygon fill="#A80036" points="163,834.604,167,825.604,163,829.604,159,825.604,163,834.604" style="stroke:#A80036;stroke-width:1.0;"/><text fill="#000000" font-family="sans-serif" font-size="11" lengthAdjust="spacing" textLength="0" x="162.075" y="824.4924"/><!--MD5=[e56b4156e9999c9fac3565fa9f4911d4]
link #487019 to FSlateElementBatcher::AddElements--><path d="M175.312,847 C193.627,847 229.966,847 267.732,847 " fill="none" id="#487019-to-FSlateElementBatcher::AddElements" style="stroke:#A80036;stroke-width:1.0;"/><polygon fill="#A80036" points="272.826,847,263.826,843,267.826,847,263.826,851,272.826,847" style="stroke:#A80036;stroke-width:1.0;"/><text fill="#000000" font-family="sans-serif" font-size="11" lengthAdjust="spacing" textLength="76" x="186" y="841.2104">AddElements</text><!--MD5=[56235bd5b4191eb4ba06ac0d95cd8dd3]
link FSlateElementBatcher::AddElements to FSlateElementBatcher::AddCachedElements--><path d="M511.096,847 C516.155,847 521.215,847 526.274,847 " fill="none" id="FSlateElementBatcher::AddElements-to-FSlateElementBatcher::AddCachedElements" style="stroke:#A80036;stroke-width:1.0;"/><polygon fill="#A80036" points="531.334,847,522.334,843,526.334,847,522.334,851,531.334,847" style="stroke:#A80036;stroke-width:1.0;"/><!--MD5=[58cdcf7c049bb19026c4b32e439e3ceb]
link FSlateElementBatcher::AddCachedElements to FSlateElementBatcher::AddElementsInternal--><path d="M673,864.176 C673,877.87 673,897.606 673,912.605 " fill="none" id="FSlateElementBatcher::AddCachedElements-to-FSlateElementBatcher::AddElementsInternal" style="stroke:#A80036;stroke-width:1.0;"/><polygon fill="#A80036" points="673,917.897,677,908.897,673,912.897,669,908.897,673,917.897" style="stroke:#A80036;stroke-width:1.0;"/><!--MD5=[97a8dc7b97774738802cbe622ce952b0]
link FSlateElementBatcher::AddElementsInternal to FSlateElementBatcher::AddAddBoxElement--><path d="M673,952.201 C673,962.692 673,976.463 673,987.818 " fill="none" id="FSlateElementBatcher::AddElementsInternal-to-FSlateElementBatcher::AddAddBoxElement" style="stroke:#A80036;stroke-width:1.0;"/><polygon fill="#A80036" points="673,992.844,677,983.844,673,987.844,669,983.844,673,992.844" style="stroke:#A80036;stroke-width:1.0;"/><!--MD5=[9d83fb59faa138a784dcb422ec37691e]
link FSlateElementBatcher::AddAddBoxElement to FSlateElementBatcher::CreateRenderBatch--><path d="M673,1027.2011 C673,1037.6917 673,1051.4627 673,1062.8176 " fill="none" id="FSlateElementBatcher::AddAddBoxElement-to-FSlateElementBatcher::CreateRenderBatch" style="stroke:#A80036;stroke-width:1.0;"/><polygon fill="#A80036" points="673,1067.8442,677,1058.8442,673,1062.8442,669,1058.8442,673,1067.8442" style="stroke:#A80036;stroke-width:1.0;"/><!--MD5=[55787cfd8d4b22c2dcfcb746566fcf34]
link #487019 to FSlateRHIRenderingPolicy::BuildRenderingBuffers--><path d="M163,859.243 C163,872.777 163,895.793 163,912.72 " fill="none" id="#487019-to-FSlateRHIRenderingPolicy::BuildRenderingBuffers" style="stroke:#A80036;stroke-width:1.0;"/><polygon fill="#A80036" points="163,917.761,167,908.761,163,912.761,159,908.761,163,917.761" style="stroke:#A80036;stroke-width:1.0;"/><text fill="#000000" font-family="sans-serif" font-size="11" lengthAdjust="spacing" textLength="31" x="188" y="895.2104">batch</text><!--MD5=[890740eb2c7afc3c9c4492a536b0eca7]
link FSlateRHIRenderingPolicy::BuildRenderingBuffers to FSlateBatchData::MergeRenderBatches--><path d="M163,952.201 C163,962.692 163,976.463 163,987.818 " fill="none" id="FSlateRHIRenderingPolicy::BuildRenderingBuffers-to-FSlateBatchData::MergeRenderBatches" style="stroke:#A80036;stroke-width:1.0;"/><polygon fill="#A80036" points="163,992.844,167,983.844,163,987.844,159,983.844,163,992.844" style="stroke:#A80036;stroke-width:1.0;"/><!--MD5=[75a3fe3ad71f205d1816fc6e45e7b06e]
link FSlateBatchData::MergeRenderBatches to FSlateRHIRenderingPolicy::DrawElements--><path d="M163,1027.2011 C163,1037.6917 163,1051.4627 163,1062.8176 " fill="none" id="FSlateBatchData::MergeRenderBatches-to-FSlateRHIRenderingPolicy::DrawElements" style="stroke:#A80036;stroke-width:1.0;"/><polygon fill="#A80036" points="163,1067.8442,167,1058.8442,163,1062.8442,159,1058.8442,163,1067.8442" style="stroke:#A80036;stroke-width:1.0;"/><!--MD5=[20128da35c1948d9ba5ef47a34773be4]
@startuml
(*) - ->FEngineLoop::Tick
- ->FSlateApplication::Tick
- ->FSlateApplication::TickAndDrawWidgets
- ->FSlateApplication::DrawWindowns
- ->FSlateApplication::PrivateDrawWindows
if "" then
    -right->[        Widget Paint         ]FSlateApplication::DrawWindowAndChildren
    -right-> SWindow::PaintWindow
    -right->FSlateInvalidationRoot::PaintInvalidationRoot
    -right->SWindow::PaintSlowPath
    - ->SWidget::Paint
    - ->XXX:OnPaint
    - ->FSlateDrawElement::MakeBox
    - ->FSlateWindowElementList::AddUninitialized
else
    -down->[SlateRender] FSlateRenderer::DrawWindowns
    - ->FSlateRHIRenderer::DrawWindows_Private
    - ->ResourceManager::UpdateTextureAtlases
    - ->FSlateRHIRenderer::DrawWindow_RenderThread
    if "" then
        -right->[AddElements]FSlateElementBatcher::AddElements
        -right->FSlateElementBatcher::AddCachedElements
        - ->FSlateElementBatcher::AddElementsInternal
        - ->FSlateElementBatcher::AddAddBoxElement
        - ->FSlateElementBatcher::CreateRenderBatch

    else
        - ->[      batch                  ]FSlateRHIRenderingPolicy::BuildRenderingBuffers
        - ->FSlateBatchData::MergeRenderBatches
        - ->FSlateRHIRenderingPolicy::DrawElements
@enduml

PlantUML version 1.2021.7(Sun May 23 12:40:07 UTC 2021)
(GPL source distribution)
Java Runtime: Java(TM) SE Runtime Environment
JVM: Java HotSpot(TM) 64-Bit Server VM
Default Encoding: UTF-8
Language: en
Country: US
--></g></svg>