<svg xmlns="http://www.w3.org/2000/svg" viewBox="0 0 1183.1 542.28" width="2366.201" height="1084.56"><defs><style>@font-face{font-family:&quot;Virgil&quot;;src:url(https://excalidraw.com/Virgil.woff2)}@font-face{font-family:&quot;Cascadia&quot;;src:url(https://excalidraw.com/Cascadia.woff2)}</style></defs><path fill="#fff" d="M0 0h1183.1v542.28H0z"/><path d="M820.01 455.587c24.69.17 124.45 1.07 149.25 1.1m-147.38 1.04c24.59-.14 122.59-2.89 147.01-3.06" stroke="#1971c2" stroke-width="4" fill="none" stroke-linecap="round"/><path d="M298.963 80.444c17.14-.02 86.87-1.09 104.57-1.33" stroke="#f08c00" stroke-width="4.5" fill="none" stroke-dasharray="8 12" stroke-linecap="round"/><path d="M406.563 77.984c10.84.04 54.98.09 65.99.38m-64.06 1.88c10.64.27 52.53-.1 63.1-.49" stroke="#ffd43b" stroke-width="4" fill="none" stroke-linecap="round"/><path d="M10.003 456.064c68.58-.11 342.63-.94 411.12-1.1m-409.22.53c68.56.05 340.49.77 408.56.91" stroke="#1971c2" stroke-width="4" fill="none" stroke-linecap="round"/><path d="M377.123 160.014c11.72-.01 58.72.02 70.48.08m-71.92-.93c12.08-.42 61.72-.83 74.12-.96" stroke="#2f9e44" stroke-width="4" fill="none" stroke-linecap="round"/><path d="M407.573 81.144c-25.33 61.92-126.67 309.58-152 371.5M476.073 76.894l-462 376.5" stroke="#ffec99" stroke-width="4.5" fill="none" stroke-dasharray="8 12" stroke-linecap="round"/><g stroke-linecap="round"><path d="M381.573 160.144c0 .41-.04.82-.11 1.22-.07.39-.17.79-.31 1.17-.14.38-.32.76-.52 1.11a6.986 6.986 0 0 1-2.56 2.56c-.35.2-.73.38-1.11.52-.38.14-.78.24-1.17.31-.4.07-.81.11-1.22.11-.41 0-.82-.04-1.22-.11-.39-.07-.79-.17-1.17-.31-.38-.14-.76-.32-1.11-.52a6.986 6.986 0 0 1-2.56-2.56c-.2-.35-.38-.73-.52-1.11-.14-.38-.24-.78-.31-1.17-.07-.4-.11-.81-.11-1.22 0-.41.04-.82.11-1.22.07-.39.17-.79.31-1.17.14-.38.32-.76.52-1.11a6.986 6.986 0 0 1 2.56-2.56c.35-.2.73-.38 1.11-.52.38-.14.78-.24 1.17-.31.4-.07.81-.11 1.22-.11.41 0 .82.04 1.22.11.39.07.79.17 1.17.31.38.14.76.32 1.11.52a6.986 6.986 0 0 1 2.56 2.56c.2.35.38.73.52 1.11.14.38.24.78.31 1.17.07.4.09 1.02.11 1.22.02.2.02-.2 0 0" stroke-width="0" fill="#099268"/><path d="M381.573 160.144c0 .41-.04.82-.11 1.22-.07.39-.17.79-.31 1.17-.14.38-.32.76-.52 1.11a6.986 6.986 0 0 1-2.56 2.56c-.35.2-.73.38-1.11.52-.38.14-.78.24-1.17.31-.4.07-.81.11-1.22.11-.41 0-.82-.04-1.22-.11-.39-.07-.79-.17-1.17-.31-.38-.14-.76-.32-1.11-.52a6.986 6.986 0 0 1-2.56-2.56c-.2-.35-.38-.73-.52-1.11-.14-.38-.24-.78-.31-1.17-.07-.4-.11-.81-.11-1.22 0-.41.04-.82.11-1.22.07-.39.17-.79.31-1.17.14-.38.32-.76.52-1.11a6.986 6.986 0 0 1 2.56-2.56c.35-.2.73-.38 1.11-.52.38-.14.78-.24 1.17-.31.4-.07.81-.11 1.22-.11.41 0 .82.04 1.22.11.39.07.79.17 1.17.31.38.14.76.32 1.11.52a6.986 6.986 0 0 1 2.56 2.56c.2.35.38.73.52 1.11.14.38.24.78.31 1.17.07.4.09 1.02.11 1.22.02.2.02-.2 0 0" stroke="#2f9e44" stroke-width="4" fill="none"/></g><path d="M374.573 450.144v-289.14" stroke="#1971c2" stroke-width="4.5" fill="none" stroke-dasharray="8 12" stroke-linecap="round"/><text font-family="Virgil, Segoe UI Emoji" font-size="36" fill="#ffd43b" style="white-space:pre" dominant-baseline="text-before-edge" transform="translate(436.632 15.577)">light</text><path d="M18.006 454.093c39.48.33 197.24.64 236.72.32m-234.85-.96c39.92.1 197.49-.49 237.06-.59" stroke="#868e96" stroke-width="4" fill="none" stroke-linecap="round"/><path d="M585.397 78.881c17.36-.03 88.05-.25 105.43-.35" stroke="#f08c00" stroke-width="4.5" fill="none" stroke-dasharray="8 12" stroke-linecap="round"/><path d="M693.827 77.031c10.88-.1 53.69-.58 64.33-.25m-65.44 2.42c10.69.05 53.01-1.14 64.22-1.46" stroke="#ffd43b" stroke-width="4" fill="none" stroke-linecap="round"/><path d="M762.827 76.131c-24.11 63.08-120.57 315.42-144.68 378.5" stroke="#ffec99" stroke-width="4.5" fill="none" stroke-dasharray="8 12" stroke-linecap="round"/><path d="M558.266 453.281c24.3.33 122.49 2.12 146.99 2.25m-145.06-.21c24.61.1 122.67-1.3 147.23-1.31" stroke="#1971c2" stroke-width="4" fill="none" stroke-linecap="round"/><path d="M662.137 354.031c11.83.13 59.27-1.35 71.5-1.45m-69.83 1.01c12.23.4 60.11.74 72 .36" stroke="#2f9e44" stroke-width="4" fill="none" stroke-linecap="round"/><path d="M693.667 80.381c-8.41 62.24-42.06 311.22-50.48 373.46" stroke="#ffec99" stroke-width="4.5" fill="none" stroke-dasharray="8 12" stroke-linecap="round"/><g stroke-linecap="round"><path d="M667.667 353.381c0 .41-.04.82-.11 1.22-.07.39-.17.79-.31 1.17-.14.38-.32.76-.52 1.11a6.986 6.986 0 0 1-2.56 2.56c-.35.2-.73.38-1.11.52-.38.14-.78.24-1.17.31-.4.07-.81.11-1.22.11-.41 0-.82-.04-1.22-.11-.39-.07-.79-.17-1.17-.31-.38-.14-.76-.32-1.11-.52a6.986 6.986 0 0 1-2.56-2.56c-.2-.35-.38-.73-.52-1.11-.14-.38-.24-.78-.31-1.17-.07-.4-.11-.81-.11-1.22 0-.41.04-.82.11-1.22.07-.39.17-.79.31-1.17.14-.38.32-.76.52-1.11a6.986 6.986 0 0 1 2.56-2.56c.35-.2.73-.38 1.11-.52.38-.14.78-.24 1.17-.31.4-.07.81-.11 1.22-.11.41 0 .82.04 1.22.11.39.07.79.17 1.17.31.38.14.76.32 1.11.52a6.986 6.986 0 0 1 2.56 2.56c.2.35.38.73.52 1.11.14.38.24.78.31 1.17.07.4.09 1.02.11 1.22.02.2.02-.2 0 0" stroke-width="0" fill="#099268"/><path d="M667.667 353.381c0 .41-.04.82-.11 1.22-.07.39-.17.79-.31 1.17-.14.38-.32.76-.52 1.11a6.986 6.986 0 0 1-2.56 2.56c-.35.2-.73.38-1.11.52-.38.14-.78.24-1.17.31-.4.07-.81.11-1.22.11-.41 0-.82-.04-1.22-.11-.39-.07-.79-.17-1.17-.31-.38-.14-.76-.32-1.11-.52a6.986 6.986 0 0 1-2.56-2.56c-.2-.35-.38-.73-.52-1.11-.14-.38-.24-.78-.31-1.17-.07-.4-.11-.81-.11-1.22 0-.41.04-.82.11-1.22.07-.39.17-.79.31-1.17.14-.38.32-.76.52-1.11a6.986 6.986 0 0 1 2.56-2.56c.35-.2.73-.38 1.11-.52.38-.14.78-.24 1.17-.31.4-.07.81-.11 1.22-.11.41 0 .82.04 1.22.11.39.07.79.17 1.17.31.38.14.76.32 1.11.52a6.986 6.986 0 0 1 2.56 2.56c.2.35.38.73.52 1.11.14.38.24.78.31 1.17.07.4.09 1.02.11 1.22.02.2.02-.2 0 0" stroke="#2f9e44" stroke-width="4" fill="none"/></g><path d="M660.667 449.381v-94.61" stroke="#1971c2" stroke-width="4.5" fill="none" stroke-dasharray="8 12" stroke-linecap="round"/><path d="M619.5 453.802c3.34.01 15.61.07 20.05.07 4.45 0 5.52-.06 6.63-.07m-26.68 0c3.34.01 15.61.07 20.05.07 4.45 0 5.52-.06 6.63-.07" stroke="#868e96" stroke-width="4" fill="none" stroke-linecap="round"/><path d="M660.84 352.401V79.051M374.853 159.942v-79.78" stroke="#2f9e44" stroke-width="4.5" fill="none" stroke-dasharray="8 12" stroke-linecap="round"/><text font-family="Virgil, Segoe UI Emoji" font-size="28" fill="#2f9e44" style="white-space:pre" dominant-baseline="text-before-edge" transform="translate(474.206 141.508)">blocker</text><text font-family="Virgil, Segoe UI Emoji" font-size="28" fill="#2f9e44" style="white-space:pre" dominant-baseline="text-before-edge" transform="translate(762.516 332.561)">blocker</text><text font-family="Virgil, Segoe UI Emoji" font-size="28" fill="#868e96" style="white-space:pre" dominant-baseline="text-before-edge" transform="translate(58.2 497.28)">penumbra</text><text font-family="Virgil, Segoe UI Emoji" font-size="28" fill="#868e96" style="white-space:pre" dominant-baseline="text-before-edge" transform="translate(589.685 495.215)">penumbra</text><text font-family="Virgil, Segoe UI Emoji" font-size="36" fill="#ffd43b" style="white-space:pre" dominant-baseline="text-before-edge" transform="translate(701.609 10)">light</text><path d="M256.61 452.426c19.3-.19 96.03.47 115.4.81m-116.46 1.26c19.64-.09 99.3.47 118.72.15M649.21 455.019c1.98-.02 10.41-1.67 12.28-1.8m-13.77 1.3c1.85.18 11.19-.35 13.14-.17" stroke="#1e1e1e" stroke-width="4" fill="none" stroke-linecap="round"/><path d="M893.598 77.553c17.41-.22 86.8-.03 103.92 0" stroke="#f08c00" stroke-width="4.5" fill="none" stroke-dasharray="8 12" stroke-linecap="round"/><path d="M1000.518 76.053c28.31.04 141.93-.04 170.48.19m-171.91-1.32c28.61.25 145.39 2.73 174.01 2.86" stroke="#ffd43b" stroke-width="4" fill="none" stroke-linecap="round"/><path d="M1172.704 78.707c-47.04 62.28-235.22 311.39-282.27 373.67" stroke="#ffec99" stroke-width="4.5" fill="none" stroke-dasharray="8 12" stroke-linecap="round"/><path d="M970.078 352.413c12.04.09 59.53-.51 71.43-.65m-69.42.23c11.94-.27 56.83-1.65 68.23-2.07" stroke="#2f9e44" stroke-width="4" fill="none" stroke-linecap="round"/><path d="M1000.958 78.44c-7.88 62.88-39.39 314.38-47.26 377.26" stroke="#ffec99" stroke-width="4.5" fill="none" stroke-dasharray="8 12" stroke-linecap="round"/><g stroke-linecap="round"><path d="M974.958 351.733c0 .41-.04.82-.11 1.22-.07.39-.17.79-.31 1.17-.14.38-.32.76-.52 1.11a6.986 6.986 0 0 1-2.56 2.56c-.35.2-.73.38-1.11.52-.38.14-.78.24-1.17.31-.4.07-.81.11-1.22.11-.41 0-.82-.04-1.22-.11-.39-.07-.79-.17-1.17-.31-.38-.14-.76-.32-1.11-.52a6.986 6.986 0 0 1-2.56-2.56c-.2-.35-.38-.73-.52-1.11-.14-.38-.24-.78-.31-1.17-.07-.4-.11-.81-.11-1.22 0-.41.04-.82.11-1.22.07-.39.17-.79.31-1.17.14-.38.32-.76.52-1.11a6.986 6.986 0 0 1 2.56-2.56c.35-.2.73-.38 1.11-.52.38-.14.78-.24 1.17-.31.4-.07.81-.11 1.22-.11.41 0 .82.04 1.22.11.39.07.79.17 1.17.31.38.14.76.32 1.11.52a6.986 6.986 0 0 1 2.56 2.56c.2.35.38.73.52 1.11.14.38.24.78.31 1.17.07.4.09 1.02.11 1.22.02.2.02-.2 0 0" stroke-width="0" fill="#099268"/><path d="M974.958 351.733c0 .41-.04.82-.11 1.22-.07.39-.17.79-.31 1.17-.14.38-.32.76-.52 1.11a6.986 6.986 0 0 1-2.56 2.56c-.35.2-.73.38-1.11.52-.38.14-.78.24-1.17.31-.4.07-.81.11-1.22.11-.41 0-.82-.04-1.22-.11-.39-.07-.79-.17-1.17-.31-.38-.14-.76-.32-1.11-.52a6.986 6.986 0 0 1-2.56-2.56c-.2-.35-.38-.73-.52-1.11-.14-.38-.24-.78-.31-1.17-.07-.4-.11-.81-.11-1.22 0-.41.04-.82.11-1.22.07-.39.17-.79.31-1.17.14-.38.32-.76.52-1.11a6.986 6.986 0 0 1 2.56-2.56c.35-.2.73-.38 1.11-.52.38-.14.78-.24 1.17-.31.4-.07.81-.11 1.22-.11.41 0 .82.04 1.22.11.39.07.79.17 1.17.31.38.14.76.32 1.11.52a6.986 6.986 0 0 1 2.56 2.56c.2.35.38.73.52 1.11.14.38.24.78.31 1.17.07.4.09 1.02.11 1.22.02.2.02-.2 0 0" stroke="#2f9e44" stroke-width="4" fill="none"/></g><path d="M967.958 447.733v-94.61" stroke="#1971c2" stroke-width="4.5" fill="none" stroke-dasharray="8 12" stroke-linecap="round"/><path d="M893.67 452.388c8.86-.03 43.21-.13 53.17-.16 9.97-.04 5.52-.06 6.63-.07m-59.8.23c8.86-.03 43.21-.13 53.17-.16 9.97-.04 5.52-.06 6.63-.07" stroke="#868e96" stroke-width="4" fill="none" stroke-linecap="round"/><path d="M968.13 350.752V77.402" stroke="#2f9e44" stroke-width="4.5" fill="none" stroke-dasharray="8 12" stroke-linecap="round"/><text font-family="Virgil, Segoe UI Emoji" font-size="28" fill="#2f9e44" style="white-space:pre" dominant-baseline="text-before-edge" transform="translate(1069.806 330.912)">blocker</text><text font-family="Virgil, Segoe UI Emoji" font-size="28" fill="#868e96" style="white-space:pre" dominant-baseline="text-before-edge" transform="translate(870.518 490.513)">penumbra</text><text font-family="Virgil, Segoe UI Emoji" font-size="36" fill="#ffd43b" style="white-space:pre" dominant-baseline="text-before-edge" transform="translate(1049.095 10.386)">light</text><path d="M957.01 452.81c1.93.05 8.17-.39 10.06-.46m-11.28-.34c2.37.28 11.42 1.6 13.41 1.89" stroke="#1e1e1e" stroke-width="4" fill="none" stroke-linecap="round"/></svg>