<svg width="204" height="159" xmlns="http://www.w3.org/2000/svg" xmlns:xlink="http://www.w3.org/1999/xlink" overflow="hidden"><defs><clipPath id="clip0"><rect x="66" y="151" width="204" height="159"/></clipPath></defs><g clip-path="url(#clip0)" transform="translate(-66 -151)"><path d="M117.468 151.559 225.179 201.832 174.907 309.543 67.1951 259.271 117.468 151.559Z" stroke="#3465A4" stroke-width="0" stroke-linejoin="round" stroke-miterlimit="10" fill="#5983B0" fill-rule="evenodd"/><path d="M144.5 219.5C138.977 219.5 134.5 223.753 134.5 229 134.5 234.247 138.977 238.5 144.5 238.5 150.023 238.5 154.5 234.247 154.5 229 154.5 223.753 150.023 219.5 144.5 219.5Z" stroke="#3465A4" stroke-width="0" stroke-linejoin="round" stroke-miterlimit="10" fill="#FFFFFF" fill-rule="evenodd"/><path d="M225 192.5C219.753 192.5 215.5 196.753 215.5 202 215.5 207.247 219.753 211.5 225 211.5 230.247 211.5 234.5 207.247 234.5 202 234.5 196.753 230.247 192.5 225 192.5Z" stroke="#3465A4" stroke-width="0" stroke-linejoin="round" stroke-miterlimit="10" fill="#FFFFFF" fill-rule="evenodd"/><path d="M0.500098-1.44671 78.6358 25.5632 77.6356 28.4566-0.500098 1.44671ZM72.3665 17.9481 81.0067 28.0023 68.0019 30.5743C67.1726 30.7384 66.3673 30.199 66.2033 29.3697 66.0393 28.5404 66.5786 27.7351 67.4079 27.5711L77.8385 25.5082 76.9746 28.0075 70.0447 19.9434C69.4937 19.3022 69.5668 18.3358 70.2079 17.7848 70.8491 17.2338 71.8155 17.3069 72.3665 17.9481Z" fill="#FFFFFF" transform="matrix(1 0 0 -1 144.5 228.5)"/><text font-family="Arial,Arial_MSFontService,sans-serif" font-weight="400" font-size="24" transform="translate(239.206 208)">P<tspan font-size="24" x="-124.687" y="42">X</tspan><tspan font-size="24" x="-75.5527" y="0">R</tspan></text></g></svg>