<svg width="204" height="159" xmlns="http://www.w3.org/2000/svg" overflow="hidden"><defs><clipPath id="a"><path d="M66 151h204v159H66z"/></clipPath></defs><g clip-path="url(#a)" transform="translate(-66 -151)"><path d="m117.468 151.559 107.711 50.273-50.272 107.711-107.712-50.272 50.273-107.712Z" fill="#5983B0" fill-rule="evenodd"/><path d="M144.5 219.5c-5.523 0-10 4.253-10 9.5s4.477 9.5 10 9.5 10-4.253 10-9.5-4.477-9.5-10-9.5ZM225 192.5a9.5 9.5 0 0 0-9.5 9.5 9.5 9.5 0 0 0 9.5 9.5 9.5 9.5 0 0 0 9.5-9.5 9.5 9.5 0 0 0-9.5-9.5Z" fill="#FFF" fill-rule="evenodd"/><path d="m145 229.947 78.136-27.01-1-2.894L144 227.053Zm71.867-19.395 8.64-10.054-13.005-2.572a1.53 1.53 0 1 0-.594 3.003l10.43 2.063-.863-2.5-6.93 8.065a1.53 1.53 0 0 0 2.322 1.995Z" fill="#FFF"/><text font-family="Arial,Arial_MSFontService,sans-serif" font-weight="400" font-size="24" transform="translate(239.206 208)">P<tspan x="-124.687" y="42">X</tspan><tspan x="-75.553" y="0">R</tspan></text></g></svg>