<svg width="501" height="209" xmlns="http://www.w3.org/2000/svg" overflow="hidden"><defs><clipPath id="a"><path d="M68 123h501v209H68z"/></clipPath></defs><g clip-path="url(#a)" transform="translate(-68 -123)"><path d="m145 229.947 78.136-27.01-1-2.894L144 227.053Zm71.867-19.395 8.64-10.054-13.005-2.572a1.53 1.53 0 1 0-.594 3.003l10.43 2.063-.863-2.5-6.93 8.065a1.53 1.53 0 0 0 2.322 1.995Z" fill="#FFF"/><path d="m118.597 153.052 107.712 50.272-50.273 107.712-107.711-50.272 50.272-107.712Z" fill="#5983B0" fill-rule="evenodd"/><path d="M146 220.5a9.5 9.5 0 0 0-9.5 9.5 9.5 9.5 0 0 0 9.5 9.5 9.5 9.5 0 0 0 9.5-9.5 9.5 9.5 0 0 0-9.5-9.5Z" fill="#FFF" fill-rule="evenodd"/><text font-family="Arial,Arial_MSFontService,sans-serif" font-weight="400" font-size="24" transform="translate(240.336 210)">P<tspan x="-124.687" y="41">X</tspan></text><path d="m145.04 233.04 93.24-1.843-.08-3.999-93.24 1.843Zm91.319 2.196L248.238 229l-12.116-5.762Z" fill="#ED7D31"/><text font-family="Arial,Arial_MSFontService,sans-serif" font-weight="400" font-size="24" transform="translate(219.107 261)">V</text><path d="M225 192.5a9.5 9.5 0 0 0-9.5 9.5 9.5 9.5 0 0 0 9.5 9.5 9.5 9.5 0 0 0 9.5-9.5 9.5 9.5 0 0 0-9.5-9.5Z" fill="#FFF" fill-rule="evenodd"/><path d="m380.207 172.611 107.712 50.273-50.273 107.711-107.712-50.272 50.273-107.712Z" fill="#5983B0" fill-rule="evenodd"/><path d="M487 214.5a9.5 9.5 0 0 0-9.5 9.5 9.5 9.5 0 0 0 9.5 9.5 9.5 9.5 0 0 0 9.5-9.5 9.5 9.5 0 0 0-9.5-9.5ZM407 240.5a9.5 9.5 0 0 0-9.5 9.5 9.5 9.5 0 0 0 9.5 9.5 9.5 9.5 0 0 0 9.5-9.5 9.5 9.5 0 0 0-9.5-9.5Z" fill="#FFF" fill-rule="evenodd"/><text font-family="Arial,Arial_MSFontService,sans-serif" font-weight="400" font-size="24" transform="translate(501.946 229)">P<tspan x="-124.687" y="42">X</tspan><tspan x="-122.225" y="-64">ω</tspan><tspan font-family="Microsoft JhengHei,Microsoft JhengHei_MSFontService,sans-serif" x="-103.485" y="-64">×</tspan><tspan x="-85.791" y="-64">R</tspan></text><path d="m405.703 252.607 72.45-27.218-1.407-3.744-72.45 27.218Zm71.985-22.77L486.81 220l-13.343-1.396Z" fill="#ED7D31"/><path d="M477 169.5c35.622 0 64.5 35.37 64.5 79" stroke="#4472C4" stroke-width="3" stroke-miterlimit="8" fill="none"/><path d="m480.5 165.5-8 4 8 4Z" fill="#4472C4"/><text font-family="Arial,Arial_MSFontService,sans-serif" font-weight="400" font-size="24" transform="translate(424.213 232)">R</text><path d="m484.347 221.824-31.48-47.388 3.332-2.213 31.48 47.387Zm-33.705-43.508L449 165l11.638 6.675Z" fill="#00B0F0"/><text font-family="Arial,Arial_MSFontService,sans-serif" font-weight="400" font-size="24" transform="translate(528.951 197)">ω</text></g></svg>